<svg xmlns="http://www.w3.org/2000/svg" width="320" height="320" fill="none"><path fill="#92FCFF" d="m58.973 125.518-.22.69c2.268-2.219-.79-5.586 2.967-8.792 4-3.413 11.487-6.909 14.683-6.176a6.555 6.555 0 0 1 3.56 2.805c5.18.152 10.447-4.844 28.588-3.056 6.833.673 6.72.704 7.105.606 1.055-.272 2.672-2.56 5.336-2.838 5.005-.511 15.776 4.32 20.96 8.451 6.279 5.005 2.775 8.264 2.786 8.947a10.062 10.062 0 0 0 1.861 3.072c2.96 3.475 9.868 6.72 14.336 26.219 2.606 11.383 2.374 17.13-.49 26.901-12.029 41.029-37.909 40.008-40.909 44.424-3.389 4.992-10.025 5.267-15.52 5.344-4.768.067-9.58.688-11.149-2.142-.64-1.148-.508-1.458-2.056-1.826-4.16-.986-16.976-5.8-17.339-5.966-4.696-2.143-7.616-5.773-9.6-6.271-2.19-.549-4.939 1.322-6.589-.57-2.142-2.456-6.25-.742-14.85-18.907-2.56-5.406-5.314-11.608-2.631-17.385.87-1.875 3.225-4.701 2.105-7.272-1.56-3.559-1.606-29.765 17.066-46.258z"/><path fill="#fff" d="M119.648 165.16a28.035 28.035 0 0 0-6.112-1.05c1.546-1.8 4-2.459 6.042-3.669a10.36 10.36 0 0 0 5.222-8.997 17.47 17.47 0 0 0-.931-4.344c-2.119-6.945-3.501-8.019-8.021-9.803a22.364 22.364 0 0 1-5.288-2.097c-1.248-.992-1.779-3.559-2.39-4.992-4.64-10.88-11.53-.8-9.07 6.708l-3.04.64c-.745-3.403-1.697-7.126-4.548-9.12-3.2-2.24-6.131 2.117-6.448 5.509-.182 1.992 1.26 4.059-1.52 4.336-1.748.177-3.446.69-5 1.509-4.443 2.346-2.21 6.256.22 7.245 2.2.893 3.049.771 3.089 4.675.062 6.035 1.733 12.126 2.96 17.99.627 2.983 3.294 18.029 2.958 18.765-.3.658-2.368 1.28-3.84 2.808a3.548 3.548 0 0 0 .448 5.813c4.407 3.405 9.237 1.678 10.296 3.032.927 1.182.725 5.144 2.72 7.968 3.098 4.386 10.199 2.179 8.043-10.043l3.696-.815c2.552 15.404 12.444 12.615 12.168 5.423-.169-4.459-2.107-4.619 1.9-7.307a13.484 13.484 0 0 0 6.206-7.621 33.914 33.914 0 0 0-.082-10.475c-1.019-5.248-4.451-10.368-9.676-12.088h-.002zm-22.6-8.96a51.11 51.11 0 0 0-1.66-6.375c-.722-3.021 3.404-3.398 5.388-3.942 11.598-3.17 16.539 10.072-2.378 11.667a1.36 1.36 0 0 1-1.35-1.355v.005zm9.867 30.888a9.607 9.607 0 0 1-1.416-.13c.171-.446-1.28.898-2.632-.445-1.945-1.92-2.08-8.43-3.062-9.952-1.815-2.803 12.461-7.331 14.467 2.469.832 4.07-2.966 9.07-7.357 8.053v.005z"/><path fill="#0F0F0F" d="M164.122 164.414c-.874-11.568-6.525-27.52-18.152-38.123 6.793-10.147-24.616-25.587-30.93-15.763-10.6-2.421-22.71-2.42-33.142 1.347a3.783 3.783 0 0 1-1.634.39c-.395-.131-.947-3.211-5.104-2.683a33.183 33.183 0 0 0-13.785 6.768c-1.725 1.416-3.346 2.704-2.82 5.536.91 4.176-.406.616-7.715 10.8a57.577 57.577 0 0 0-9.88 40.914c-10.256 7.088.9 26.499 8 36.8 3.789 5.392 9.54 9.324 15.234 6.387a45.945 45.945 0 0 0 26.12 12.041c2.024 8.444 28.603 5.714 30.888-.98 1.147-3.36-.674.598 11.385-6.319 20.053-7.091 32.748-40.216 31.535-57.115zm-3.787 8.694c-3.52 16.16-7.383 28.248-19.245 39.884a33.839 33.839 0 0 1-8.824 5.851c-1.997.8-4.368 2.829-10.735 5.299-1.497-5.749-14.305-4.301-14.14-3.272.107.694 13.491.502 11.304 5.349-1.829 5.051-29.338 7.067-25.396.013 2.211-3.12 9.495-3.596 9.466-4.303-.024-.753-10.773-1.193-12.386 4.578a77.95 77.95 0 0 1-24.227-11.117 10.48 10.48 0 0 0 1.933-2.533c9.208 6.837 18.35 9.031 18.494 8.464.144-.566-7.664-2.325-17.8-9.993 3.004-8.16-4.281-17.162-4.605-16.992-.736.385 4.024 7.624 3.018 13.584-.832 5.001-4.744 8.337-9.483 6.297-4.352-1.734-8.282-8.68-11.343-14.048-3.551-6.289-9.71-19.219-4.32-23.985 2.4-2.25 6.745-3.015 11-.256 3.637 2.419 5.399 6.044 5.796 5.854.566-.27-2.898-8.976-10.592-9.92-.96-7.942.875-13.389.347-13.546-.46-.145-2.795 5.956-2.005 13.476a10.75 10.75 0 0 0-3.571.71c-2.154-31.234 17.875-45.67 18.566-46.861 1.461-2.72-.419-4.32.34-5.357.97-1.984 12.715-8.616 14.902-7.43-.016-.013.072.016.344.48 3.848 6.643 9.253-5.632 37.155-.709-.491 4.752 9.635 8.832 9.871 7.695.142-.592-10.167-5.552-6.525-8.773 5.221-4.437 22.08 4.195 25.496 9.28 2.302 3.283.592 7.606-8.96 4.851-1.571-.456-2.459-.776-2.578-.57-.427.716 7.826 5.84 12.755 2.708 12.988 12.9 18.493 33.755 15.948 45.292z"/><path fill="#0F0F0F" d="M69.458 127.742c-5.666-1.863-12.291 7.929-11.52 8.32.113.057.589-.74 1.635-2.008 5.92-7.05 13.53-7.629 10.315 2.168a2.977 2.977 0 0 0-2.382-2.429 3.004 3.004 0 0 0-1.199.017c-3.956.517-3.168 3.84-10.184 12.9-3.1 4.187.079 6 2.25 5.512-4.925 3.462-7.552.787-7.16-2.794.5-4.709 3.413-8.714 3.102-8.922-.31-.208-3.574 4.548-4.257 8.8-.59 3.813 1.89 6.141 4.6 6.036 9.107-.423 23.643-24.82 14.8-27.6zM58.08 151.409c-1.38.16-2.597-.72-2.24-2.08.437-1.714 2.503-3.066 5.816-8.786a29.096 29.096 0 0 1 2.824-4.63 2.925 2.925 0 0 1 3.885-.592c3.054 3.017-6.302 15.569-10.285 16.088zm88.509-8.22c-.296.168 4.96 9.667 3.144 13.078-.872 1.699-2.699 2.002-4.755-.32a3.507 3.507 0 0 0 2.206-3.918c-.248-2-4.049-9.231-4.2-9.501-2.107-3.774-5.406-3.742-6.685-1.81-.32-4.312 2.743-6.468 7.213-1.616 3.768 3.88-.041-1.401-1.232-2.36-4-3.851-8.712-.246-7.142 6.029.841 3.399 5.909 11.136 8.515 14.101 3.989 4.539 8.102 1.528 7.851-2.496-.245-4.411-4.507-11.512-4.915-11.187zm-10.109-1.253c.282.018.077-.931 1.355-1.43 2.98-1.264 4.975 4.16 5.743 5.662 1.709 3.485 2.427 4.731 2.622 6a2.613 2.613 0 0 1-1.768 3.126c-2.083-2.632-7.222-10.192-7.952-13.358zm6.251 49.408c-2.232 2.192-5.796 9.577-6.945 12.925-1.6 5.222 2.579 7.012 5.589 4.96 3.296-2.223 6.748-8.704 6.286-8.888-.312-.176-5.197 8.096-8.576 8.244-1.621.095-2.618-1.089-1.846-3.587a3.183 3.183 0 0 0 3.968-.16 9.515 9.515 0 0 0 1.952-2.294c2.24-3.36 6.489-8.543 3.068-10.771a2.572 2.572 0 0 0-1.156-.444c2.708-1.8 5.222-.651 4.704 2.666-.08.72-.221 1.432-.423 2.128-1.12 4.614.981-.349 1.328-1.99 1.043-4.893-3.814-6.869-7.949-2.789zm1.381.845c.943-.426 2.426.372 2.376 2.164 0 1.538-1.001 2.688-4.219 7.608a9.086 9.086 0 0 1-1.677 2.108 2.306 2.306 0 0 1-3.072.14c.97-2.529 4.49-10.094 6.56-12.078l.032.058zm-91.677-9.13c-3.625-4.721-7.595-3.809-8.075.251a12.616 12.616 0 0 0 2.538 8.608c.382-.187-2.095-4.102-1.394-8.414.211-1.373 1.072-2.574 2.522-2.197-.03 8.123 2.379 12.029 6.195 17.861a22.608 22.608 0 0 0 7.309 7.251 2.738 2.738 0 0 1-.933 2.24c-2.4 1.155-5.6-3.811-7.386-6.07-4.625-5.704 1.904 4.414 3.25 5.787 3.282 3.456 7.297 1.803 6.442-3.93-.573-3.593-4.242-13.268-10.468-21.387zm.29 11.762a27.644 27.644 0 0 1-3.93-13.202c4.16 2.271 12.376 19.33 12.725 23.891-4.142-2.902-6.19-6.571-8.795-10.689zm85.214-71.211a2.124 2.124 0 0 0 1.81-1.523c.64-2.455-8.434-6.453-8.64-5.986-.11.234 7.408 4.925 7.2 5.622-.208.8-1.848.077-2.608-.248-1.939-.784-13.086-5.785-13.019-7.744.022-.96 3.981.228 4.075.064.16-.283-2.08-1.6-4.011-1.385-1.33.061-2.037 1.993.293 3.96 3.081 2.518 12.508 7.549 14.9 7.24zM96.39 227.493c-.017.438 4.151.929 9.268.395 5.116-.535 9.1-1.847 8.995-2.274-.106-.454-4.16.136-9.162.64-5.001.504-9.09.771-9.1 1.239zm35.06-44.808c-.048-10.693-5.717-19.2-17.421-18.736 21.248-6.794 11.917-28.247-3.098-29.1-.931-4.35-1.845-9.348-6.096-10.537-4-1.149-8.856 2.496-6.976 12.177-.182.03-.363.064-.544.103-2.733-12.855-14.472-12.946-12.608-.269-11.016.787-11.99 7.52-8.25 10.389 6.052 4.536 2.276-5.898 6.703 22.062 3.645 23.002 4.349 18.861 1.98 20.306-5.335 3.254-4.586 9.672 3.991 11.747 6.267 1.466 4.64-1.506 5.653 3.52 2.68 11.891 14.426 6.99 11.736-5.669.424-.027.87-.067 1.466-.16.299 10.88 8.262 13.295 11.926 10.023a7.132 7.132 0 0 0 2.267-6.424c-.32-1.192-1.203-2.799-1.376-3.424a16.859 16.859 0 0 0 7.831-6.337 16.859 16.859 0 0 0 2.816-9.671zm-4.504 7.2c-3.559 6.502-12.448 8.056-12.256 9.26.108.692 2.464.372 3.438.122.392 1.37 1.15 2.534 1.397 3.51a4.544 4.544 0 0 1-1.395 3.69 3.79 3.79 0 0 1-4.96-.669c-2.112-1.936-2.42-5.323-2.46-7.947.725-.258 2.823-1.224 2.573-1.773-.249-.549-3.235.131-6.528.391-3.52.302-6.512.662-6.505 1.299 0 .39 1.387.809 3.475.931 2.313 8.982-4.256 14.528-7.066 5.162-2.184-7.541-4.2-13.069-2.947-5.322-6.88.299-12.973-3.702-7.482-7.864 3.492-2.56 7.279-2.787 7.285-3.227 0-.175-.817-.4-2.309-.291-.909.077-1.81.238-2.69.48-1.178-10.93-3.98-28.544-6.207-38.999 3.958.375 6.297-.403 6.24-.672-.023-.43-3.072-.198-7.573-1.44-6.616-1.947-4.94-7.027 4.107-7.489l-.045-.96c.09.411.74 3.163 1.15 3.072.711-.152-1.172-8.852 1.6-11.232 2.96-2.54 6.134 3.52 6.92 7.563-1.657.816-2.56 1.827-2.326 2.173.343.518 2.528-.3 5.255-.892 2.72-.63 5.043-.825 5.131-1.44.058-.4-1.12-.912-2.888-.96-.118-2.009-.192-5.662.779-7.424 1.032-1.92 2.912-2.787 4.727-1.342 1.664 1.314 2.166 3.573 3.592 7.288-1.578.146-2.444.563-2.389.718.032.444 2.896.082 6.936 1.591a15.356 15.356 0 0 1 10.08 11.811c2.254 13.71-23.344 15.581-11.477 16.15 4.832.32 9.566 1.005 12.632 4.765 3.744 4.394 5.674 13.85 2.186 19.971v-.004z"/><path fill="#0F0F0F" d="M112.269 149.616c-1.238-6.88-11.75-6.551-16.73-2.832-.5-.607-2.213-2.226-2.598-1.789-.416.47 2.128 3.189 2.827 7.48.824 4.269-.632 7.707-.075 8 .464.259 1.44-1.504 1.789-2.482 7.843 1.424 15.928-2.878 14.787-8.377zm-14.387 6.928a12.13 12.13 0 0 0-1.501-8.567c3.31-1.96 8.693-2.321 11.077-1.144 6.088 2.957 1.352 10.515-9.576 9.711zm18.014 21.677c-1.501-5.632-9.528-8.818-16.7-3.61-1.058-1.12-1.92-1.532-2.108-1.35-.491.499 4.855 6.749 3.323 14.597-.288 1.544-.8 2.448-.568 2.657.192.204 1.261-.444 2.04-2.177 1.04-2.311-.697-1.053 3.607-.291 7.173 1.252 11.801-4.669 10.406-9.826zm-2.841 4.976c-1.701 2.707-5.44 4.099-10.28 2.389-.629-.221 1.174-4.56-2.624-9.824 8.984-5.168 16.489 1.761 12.904 7.438v-.003z"/><path fill="#FFC5F6" d="M97.98 103.35c2.382.051 5.471 1.44 8.991 1.528 2.703.069 5.493-.96 5.899-1.829.32-.667-1.259-8.548-1.395-9.217-.171-.835-.541-1.224-1.821-.613-6.488 3.1-11.44.302-14.37-.251-3.455-.653-5.457.774-5.694 1.768.144 1.872.4 3.733.765 5.574.189 1.045.258 3.571 1.075 4.33 1.163 1.081 3.298-1.36 6.55-1.29z"/><path fill="#0F0F0F" d="M113.618 103.179c-1.212-3.934-.96-5.813-1.887-11.239-.152-.902-5.686 3.32-11.965 1.639-2.92-.782-7.662-2.71-11.08.16a61.215 61.215 0 0 0 4.274 23.23c-5.875-1.8-11.318.277-11.12.831.198.553 5.76-1.471 11.907 1.195 3.352 1.454 2.807 1.699 3.119 1.355 3.553-6.091 7.2-5.677 7.04-6.4-.056-.573-4.887.261-7.626 4.32-.446-3.376-1.794-8.859-2.856-13.376 4.877-2.435 6.18.531 14.002.599a9.35 9.35 0 0 0 6.256-1.901c.112-.093-.055-.275-.064-.413zm-1.468-.096c-2.187 1.95-8.547 1.21-11.443.582-10.422-2.289-5.419 7.079-9.91-9.307 4.992-2.133 10.4 4.078 19.733-.517l.019.044c.035.16.128.876.363 2.567a48.151 48.151 0 0 0 1.238 6.631z"/><path fill="#FDFE1F" d="M308.303 141.982c1.66-3.52-3.415-3.486-5.818-10.275-1.582-4.48.363-17.334-.014-17.525-.16-.081-2.72-1.798-2.88-1.92-14.623-10.341-15.087-7.659-17.701-21.28-1.16-6.038-.981-4.48-.085-10.589.24-1.628.811-2.697-.498-2.755-9.022-.389-17.28-4.109-21.467-7.92-8.078-7.36-10.211-10.753-12.789-15.79a35.63 35.63 0 0 1-2.34-8.826c-.1-1.45-.172-.681-7.488-.243a43.131 43.131 0 0 1-20.892-1.66c-7.84-2.815-13.569-6.911-19.412-18.751-.32-.666-.48-1.408-.836-2.064-.712-1.295-16.724 4.595-28.094 2.805a73.175 73.175 0 0 1-14.981-4.754c-3.113-1.576-10.016-6.224-12.48-9.333-1.065-1.339-2.112-3.734-3.472-2.795-6.616 4.576-20.92 9.955-28.534 8.747-29.016-4.593-23.215-12.278-26.602-5.953-5.968 11.152-26.027 16.96-41.149 7.712a6.054 6.054 0 0 0-2.313-1.037c.64 9.745.872 8.304-2.333 19.254a21.494 21.494 0 0 1-4.56 9.167 37.947 37.947 0 0 1-10.512 9.98 64.47 64.47 0 0 1 7.754 4.5c8.561 5.521 13.374 9.497 12.648 22.57-.12 2.137-.43 4-1.399 10.692 22.365-12.48 35.408 5.694 35.57 5.814 1.99-4.16 8.251-9.12 11.641-10.681 4.221-1.947 16.277-4.175 23.748-1.898 6.043 1.843 10.748 6.096 11.2 6.208.744.184 2.388-1.779 3.126-2.198 5.299-3.018 9.76-7.002 22.042-3.927 5.88 1.47 9.902 6.732 13.44 11.652 8.844-7.43 26.774-4.748 34.496 3.742 3.601 3.962 2.836 7.84 3.38 8.27.5.399 3.3-.48 5.239-.729 4.905-.629 9.686 1.557 14.15 3.68 6.501 3.101 3.979 4.102 7.341 5.769.16.08 32.328 6.693 21.728 23.501 16.723 15.906 12.834 19.767 12.8 19.605.64 2.899 21.133 7.261 23.309 16.739 12.833-19.347 24.269-8.774 23.52-12.64-.471-2.461-1.727-2.477-2.21-6.4-.745-6.037 1.143-12.995 3.727-18.464z"/><path fill="#fff" d="M269.179 147.04c-3.942-1.246-4.819-7.386.715-11.075 2.341-1.56 5.151-2.311 9.394-3.656 1.978-.627 4.192-1.242 6.056-.33 2.512 1.229 3.602 4.866 1.318 8.459 2.128 1.895 6.466-.52 7.012 3.788.76 6.009 1.691 4.16-5.38 8.883-2.953 1.971-7.913 5.331-11.46 5.358-7.412.059-3.861-10.385-3.941-11.016-.152-1.193-1.44.307-3.714-.411zm13.994-32.614c-1.223-7.04-8.96-11.29-14.139-9.202-17.735 7.147-18.93 32.066 2.864 25.464a8.15 8.15 0 0 0 4.628-2.787c4.167-4.471 7.608-7.931 6.647-13.475zm-11.458 5.675c-8.461 7.52-11.883 2.374-3.302-4.024 1.633-1.218 3.419-3.056 5.629-2.779a1.39 1.39 0 0 1 1.35 1.35c.054 2.312-2.099 4.05-3.677 5.453zm-6.966-35.394c-5.949-10.915-20.109-5.187-26.762 10.775-5.697 13.661 5.703 22.969 16.173 15.742 4.48-3.091 9.778-11.142 11.2-15.163a14.134 14.134 0 0 0-.611-11.354zm-8.392 9.316c-1.355 3.158-6.248 9.92-8.389 11.051a1.389 1.389 0 0 1-1.848-.48c-2.089-3.173 1.664-7.149 2.992-9.853 1.611-3.285 5.504-8.387 7.707-5.565 1.069 1.363.127 3.474-.462 4.847zm-46.41-29.3c-7.632 13.251-8.465 14.432-9.168 16.96-1.576 5.675 2.005 9.469 5.498 8.864 4.48-.773 7.507-7.797 9.019-11.539a6.448 6.448 0 0 0 .52 4.3 4.378 4.378 0 0 0 4.918 1.351 12.81 12.81 0 0 0 4.514-3.019c-.654 6.328-9.459 14.56-3.912 18.966a7 7 0 0 0 9.245-.8c2.323-2.608 9.294-22.742 9.459-25.64.126-2.24-.752-6.993-2.323-8.412-3.349-3.024-8.247 1.542-13.354 5.187l-1.398-8.541c-.504-3.086-2.504-6.786-6.322-5.638-3.043.916-5.251 5.454-6.696 7.961zm-31.972-18.36c-3.181 9.48-3.322 19.672-3.429 29.67a4.742 4.742 0 0 0 1.774 4.447c3.821 3.385 11.693 3.793 12.423 3.648 2.08-.413 2.79-2.616 3.04-4.706.344-2.94-.247-5.155-3.439-6.528-5.024-2.161-4.702 1.178-3.757-4.595 2.778.342 8.082.011 9.344-2.355a5.925 5.925 0 0 0-.067-4.667c-.909-1.296-5.965-2.741-7.486-3.168a44.857 44.857 0 0 1 1.011-4.312c2.989-.25 7.33 1.29 9.728-1.376a5.071 5.071 0 0 0-.562-6.607c-2.88-3.04-8.64-3.267-12.817-3.086-3.383.152-4.637.275-5.763 3.635zm-23.922 4.383c3.566-17.28-1.899-21.376-5.109-17.882a8.582 8.582 0 0 0-1.6 3.118 105.479 105.479 0 0 0-5.683 28.43c-.309 3.554-.525 7.398 1.384 10.414a4.8 4.8 0 0 0 2.053 1.92 6.239 6.239 0 0 0 4.035.043c2.058-.82 2.843-3.267 3.352-5.421a29.305 29.305 0 0 0 1.115-10.043c1.003-.093 4.714-.192 5.28.368.421.419.283.366-1.411 11.022-.702 4.411 6.2 9.56 9.813 5.384 2.622-3.03 4.773-22.09 3.979-35.32-.147-2.438-.512-6.08-2.946-6.792-5.019-1.46-6.18 9.719-7.328 15.343a49.571 49.571 0 0 0-6.934-.584zM63.718 72.26c.984 3.606 2.015 9.16 6.732 9.567 3.113.269 6.043-2.333 4.824-8.361-1.4-6.924-5.28-13.1-7.19-19.9a24.269 24.269 0 0 0-2.58-7.179c1.637-.945 9.909-5.947 10.266-7.984.286-1.648-2.367-4.597-4.021-5.081-4.997-1.464-27.531 7.017-27.382 15.536.065 3.74 4.457 3.595 8.124 2.907 1.002-.187 2.94-1.253 3.876-1.101 1.182.192 1.579 5.158 1.982 6.5 1.544 5.12 3.963 9.932 5.37 15.097zm42.215-23.586a41.573 41.573 0 0 0-4.446-12.346c-5.074-7.886-19.2-9.622-23.327 6.517a25.921 25.921 0 0 0 .24 14.531c.856 2.72 4.075 9.76 6.042 11.8 2.993 3.106 9.713 5.472 14.299 2.891 4-2.248 5.306-6.88 6.125-11.384a49.941 49.941 0 0 0 1.067-12.01zM94.677 63.107c-2.776 4.221-5.34-5.473-6.456-10.356-2.222-9.732 1.507-15.36 4.8-12.298 2.067 1.947 4.1 18.94 1.656 22.654zm29.272-23.726a14.019 14.019 0 0 1-6.373-1.76c-3.144-2.1-4.627-8.011 4.32-8.51 6.735-.376 19.458-1.402 19.671 4.777a4.69 4.69 0 0 1-2.986 4.135 13.784 13.784 0 0 1-5.31.835c.408 2.23.66 4.485.753 6.75a30.83 30.83 0 0 0 .09 3.698c.278.766.464 1.563.55 2.373a147.09 147.09 0 0 1-1.429 16.846c-1.11 7.762-6.867 6.971-9.374.984-3.459-8.256-1.251-18.28.357-29.973l-.269-.155z"/><path fill="#0F0F0F" d="M306.147 159.066c-.587-10.514 3.786-18.484 2.671-19.05.406-.659-2.032-1.882-4.279-7.08-4.028-9.323-.459-18.099-1.592-18.523.767-1.72-15.798-6.535-19.652-22.891-1.895-8.037-.269-13.53-1.132-13.716.042-1.014-13.683-1.715-23.936-11.09-12.771-11.91-12.432-22.642-13.665-22.543-.186-1.34-14.603 1.544-28.579-2.968a31.025 31.025 0 0 1-15.26-11.98c-6.472-9.167-1.46-7.654-14.011-6.345-11.273 1.163-23.069.6-33.265-4.12C143.215 13.92 138.519 7.368 137.778 8c-.877-1.194-9.307 6.928-27.2 7.166-17.573.024-26.632-7.713-27.421-6.545-.603-.378-3.02 3.91-8.067 7.534-3.01 2.133-5.698 3.602-12.573 4.514-6.354.837-11.15 1.334-17.213-.64-8.78-3.027-6.982-5.373-7.731 4.043-2.79 26.715-17.893 30.578-17.013 32.37-.355 1.406 17.76 4.998 20.123 23.499 1.93 15.064-6.041 16.16 4.83 12.723 21.946-6.536 28.974 8.091 30.13 7.496.864.387 6.104-11.56 21.75-12.947 15.199-1.533 24.423 7.238 25.166 6.384.712.782 8.347-6.438 20.374-5.056 11.341 1.178 17.234 10.864 18.147 10.264.631 1.022 8.837-4.986 22.027-1.451 4.932 1.28 9.869 3.742 12.679 7.985 4.353 6.651.259 6.131 7.222 6.328a32.78 32.78 0 0 1 18.053 5.578c5.13 3.593 2.674 2.2 8.824 4.16 20.061 6.318 16.406 22.033 17.531 22.325.082.456 1.402.649 3.133 2 6.355 5.075 6.954 6.24 8.386 14.24.686 4.216.8 4.342 5.12 6.148 5.022 2.149 9.651 3.703 13.812 7.444 3.621 3.24 4.789 7.07 5.575 6.857 1.691.49 2.984-10.825 19.331-12.2 6.874-.51 3.92.621 3.374-9.153zm-22.08 16.753c-1.022 2.528-.22 2.495-1.256-.056a17.657 17.657 0 0 0-7.734-8.227c-5.546-3.106-13.106-4.413-14.656-3.957.942-1.347 1.014-5.904.728-8.11a13.116 13.116 0 0 0-5.63-9.562c-1.89-1.36-5.399-3.459-7.596-2.649a10.258 10.258 0 0 0 1.064-5.184c0-8.784-7.822-17.512-18.598-18.941-3.16-.426-5.245-.111-5.69.254a6.516 6.516 0 0 0-2.097-3.87c-4.087-4.682-12.64-7.624-19.807-6.163-4.96 1.009-3.628 2.688-3.68-.044-.273-12.777-19.7-19.487-32.203-14.446-10.357 4.06-1.974 6.318-9.12-1.958a22.634 22.634 0 0 0-14.483-7.626c-11.04-1.269-20.038 5.5-20.763 8.087-2.72-7.018-29.157-17.021-43.263-.593-6.95 8.068-.665 8.418-6.347 1.769-6.515-8.101-22.853-9.12-31.878-1.76 8.419-14.733-3.386-34.781-19.125-36.461 9.098-2.834 18.622-15.728 17.953-32.205-.561-8.669-3.438-5.9 4.538-1.92 6.051 2.88 11.931 2.605 18.522 1.738C73.389 22.55 79.726 17.08 82.638 10.7c1.426-3.186-1.356-1.46 7.5 3.08a45.353 45.353 0 0 0 40.829-.383c11.606-6.384 2.275-7.552 12.624 2.11 18.6 17.334 49.494 9.489 52.32 6.794-.332 1.901 2.56 9.946 8.777 15.826 12.912 12.317 37.146 7.952 39.704 6.256-1.957 5.091 4.629 23.597 20.96 30.76 4.365 1.92 12.986 4.142 16.525 2.872-.99 1.333-2.637 7.186-1.544 14.13 2.87 15.161 18.736 22.31 22.259 22.379-3.797 2.87-4.843 17.483 2.208 23.576 4.8 4.16 4.41-.683 1.205 5.313-4.712 8.863-3.49 18.906-.038 23.266-7.194-2.902-18.127.317-21.892 9.139h-.008z"/><path fill="#0F0F0F" d="M289.24 140.19c-1.617.063-.96.842-.201-2.489a5.909 5.909 0 0 0-.312-4.552 5.874 5.874 0 0 0-3.466-2.968c-4-1.298-11.562 2.272-15.277 4.198-8.969 4.621-4.88 14.378.405 13.859 2.053-.19.925-1.4.331 3.36-.627 5.68 3.147 8.648 8.037 7.743 4.355-.842 14.43-6.263 16.32-10.274a6.304 6.304 0 0 0-2.802-8.137 6.293 6.293 0 0 0-3.035-.74zm3.656 7.855c-1.409 3.123-13.563 10.414-17.55 8.755-6.663-2.786 3.384-17.859 3.027-18.198-.437-.442-3.571 2.56-5.634 6.571-4.82 3.913-8.934-5.051-1.643-8.667 7.403-3.85 17.235-7.333 15.586.712-1.65 7.47-7.563 12.027-7.019 12.752.48.625 5.28-3.04 7.828-8.026a4.603 4.603 0 0 1 1.866-.078 4.61 4.61 0 0 1 3.072 1.983 4.594 4.594 0 0 1 .467 4.196zM66.413 46.614c5.3-1.866 11.85-5.453 10.048-10.768-1.622-4.838-9.592-3.66-14.477-2.269a51.656 51.656 0 0 0-12.817 6.39c-5.96 4.132-8 9.687-3.64 12.503 3.217 2.144 6.56.694 10.06-.88 1.78-.8.021-1.978 4.356 14.42 2.78 10.503 3.656 13.2 5.704 15.292 3.913 3.949 13.398 1.208 10.764-9.92-.988-4.122-8.284-20.86-9.998-24.768zm7.67 30.24c-.508 2.734-4.438 4.656-6.542 2.5-2.56-2.506-8.464-25.72-9.34-29.2 1.386-.884 2.065-1.575 1.95-1.782-.32-.6-7.36 2.544-10.616 2.608-3.292.066-5.084-2.56-2.044-5.964 3.152-3.538 12.148-8.714 19.586-9.738 6.936-.907 7.747 1.835 6.518 3.893-1.153 1.909-4.873 4.147-6.817 5.26-4.235 2.346-6.632 4.133-2.067 2.745 6.97 19.09 10.267 24.57 9.37 29.68l.002-.002z"/><path fill="#0F0F0F" d="M83.856 31.296c-10.633 6.663-8.814 29.485-.16 38.493 6.77 7.094 17.551 6.474 21.08-5.014 7.595-23.785-7.073-42.085-20.92-33.479zm20.762 21.974c-.16 10.623-3.749 21.648-13.877 18.335-12.66-4.13-15.408-31.698-5.43-38.005 9.604-6.003 19.489 4.112 19.307 19.67z"/><path fill="#0F0F0F" d="M95.787 45.878c-1.654-6.88-5.187-6.69-5.12-6.188.024.198.77.244 1.51 1.312 2.617 3.646 3.492 21.801 1.21 22.179-.462-.034-.8-.48-1.189-.975a16.479 16.479 0 0 1-2.575-6.825c-3.105-15.482.96-14.759.86-15.667-.056-.432-3.44-.021-3.84 7.081-.273 5.28.504 14.906 4.573 18.34a3.22 3.22 0 0 0 4.43-.23c3.074-3.379 1.172-14.6.141-19.027zm165.296 60.063c18.427-21.05-7.395-42.08-22.176-15.073-9.685 18.016 4.787 34.704 22.176 15.072v.001zm-8.64 5.151c-7.31 4.376-13.545-.061-14.131-7.04-.85-7.813 5.402-18.052 12.046-21.792a9.637 9.637 0 0 1 12.531 2.283 9.636 9.636 0 0 1 1.905 4.18c1.004 5.981-2.676 15.503-12.354 22.369h.003z"/><path fill="#0F0F0F" d="M257.082 88.686c-.266-.225-.464-.235-.498-.182-.089.137.363.537.32 1.57-.072 3.59-9.619 16.902-10.475 13.91-.878-3.04 3.394-9.654 5.28-12.211 3.152-4.272 4.518-2.971 4.755-3.35.235-.2-2.053-1.933-5.955 2.372-10.602 11.792-6 19.827.05 13.728 2.721-2.825 9.684-13.194 6.523-15.837zm10.509 44.114c15.268-3.228 23.667-18.737 10.537-27.939-9.12-5.2-22.971 5.547-23.52 16.039-.416 6.996 4.739 13.769 12.983 11.9zm-7.503-3.496c-11.088-10.102 10.842-32.881 20.48-18.24 7.272 9.711-12.43 25.717-20.48 18.232v.008z"/><path fill="#0F0F0F" d="M270.019 122.88c8.436-6.72 5.266-9.342 5.098-9.093-.678.532 2.154 1.455-6.306 7.48-7.564 5.333-5.262-1.174 1.88-6.38 3.103-2.266 4.06-.978 4.34-1.207.299-.126-1.16-2.312-5.17-.099-11.752 6.506-9.098 16.52.158 9.299zm-130.2-83.83a5.95 5.95 0 0 0 3.099-5.136 5.952 5.952 0 0 0-2.939-5.228c-3.508-2.27-7.931-1.877-12.072-1.721-2.592.14-9.71.65-11.947 1.972-4.56 2.76-4.376 11.896 7.04 11.183a130.554 130.554 0 0 0-1.833 20.605c.022 6.89.425 13.848 7.272 14.704 7.112.905 7.43-12.783 7.2-19.946-.956-23.688-4.628-11.902 4.18-16.434zm-9.838.233c.046.234.819.429 2.218.578.707 6.476 2.912 33.55-3.549 32.84-6.733-.79-5.263-14.981-3.8-32.792 1.077-.194 1.664-.461 1.653-.67-.015-.396-1.76-.567-4.418-1.004-3.272-.608-6.634-1.49-6.134-4.826.336-2.315 2.417-2.628 4.595-2.952 3.904-.574 11.286-1.267 14.856-.64 5.547.992 5.873 5.367 3.144 7.053-2.354 1.46-8.738 1.456-8.565 2.413zm42.747 1.06c-1.12-7.245-7.694-8.31-10.057.614-.898 3.2-1.76 6.128-2.424 9.322a17.649 17.649 0 0 0-4.831-.607c.951-4.979 1.92-13.414-1.033-17.549a3.85 3.85 0 0 0-2.675-1.545 3.838 3.838 0 0 0-2.948.925c-1.957 1.496-2.933 4.744-4.272 8.976a95.37 95.37 0 0 0-4.414 26.464c-.301 12.536 8.037 13.817 11.878 9.024 2.41-3.002 2.24-7.074 2.597-13.852 5.752 1.28 3.04-2.45 2.248 8.02-.15 2.88-.122 6.057 1.806 8.219a6.728 6.728 0 0 0 6.271 1.979c3.64-.8 4.933-4.426 5.6-8.069.947-5.592 3.246-26.344 2.254-31.921zm-2.382 6.158c-1.936 23.544-1.907 33.174-8.181 31.286a3.982 3.982 0 0 1-2.779-2.907c-.914-3.305-.139-9.16.659-12.515.86-.024 1.695-.3 2.4-.792.87-.8.616-.754-5.856-1.354-3.338-.243-5.896-1.003-6.197-.48-.285.554 1.576 1.535 2.4 1.856-.725 6.47-.582 10.516-2.641 12.896-2.463 2.935-5.823 1.477-6.904-1.752-1.519-4.286.128-22.668 5.76-37.267.497-1.233 1.624-2.854 2.849-2.349.762.136 1.487 2.343 1.848 3.866.715 4.224.661 8.54-.16 12.746-.8.056-3.811.364-3.585 1.13.2.742 7.859.844 12.043 1.807 1.221.28 2.019.52 2.192.256.344-.499-1.45-1.643-2.211-2.003.528-2.038 3.31-11.949 4.92-13.347 1.049-.896 2.388-.688 3.008 1.859.524 2.315.672 4.7.435 7.064zm8.598-3.657c-3.304 2.106-6.282 28.94-6.24 32.884a7.054 7.054 0 0 0 2.754 5.822c2.72 1.837 10.344 4.883 14.118 3.07a7.327 7.327 0 0 0 3.107-8.182 7.344 7.344 0 0 0-1.457-2.74 11.82 11.82 0 0 0-6.432-2.4 6.68 6.68 0 0 0 .622-2.422c11.226 3.453 14.15-8.355 5.6-10.956-4.64-1.28-3.758.585-3.218-2.098.402-1.989-1.022-1.085 4.16-.75 2.288.144 4.562.019 6.021-1.76a5.48 5.48 0 0 0 .869-5.28c-1.326-6.592-15.798-7.885-19.904-5.188zm8.709 9.844c-.471-1.6-1.749-2.866-2.17-2.55-.513.393.765 2.583.16 5.273-.561 2.709-2.08 4.864-1.579 5.28.41.357 1.61-.8 2.102-1.407 2.069.362 4.9.852 6.252 2.4 1.857 2.199.332 4.882-2.656 5.364a15.86 15.86 0 0 1-4.525-.152c-.17-.63-.754-1.868-1.247-1.677-.571.241-.278 2.2-.9 4.397-.546 2.216-1.78 3.777-1.396 4.264.341.432 1.477-.381 1.975-.901 3.069.39 6.526 1.26 7.024 4.16.385 2.286-.68 5.47-3.303 5.62-2.72.215-6.606-1.358-9.049-2.57a4.371 4.371 0 0 1-2.975-4.503 202.183 202.183 0 0 1 4.071-28.186c.544-2.328.169-2.99 5.547-3.31 3.742-.16 9.011.32 11.147 3.405 2.547 5.805-2.222 6.123-8.478 5.093zm51.326 29.446c1.133-3.805 2.548-7.587 2.28-11.888-.55-9.296-9.256-8.362-15.921-1.698-.511-.256.681-13.128-7.171-13.28-5.556-.057-9.069 7.77-11.911 12.605a82.737 82.737 0 0 0-5.933 11.781c-3.918 10.97 5.325 13.76 8.935 10.968 2.446-1.675 3.861-4.72 4.92-7.498.488-1.296-.018-.64.821.858a3.973 3.973 0 0 0 4.105 2.032 11.07 11.07 0 0 0 4.767-2.298c-2.197 3.925-5.551 10.036-5.452 13.216a7.261 7.261 0 0 0 11.056 5.36c4.36-2.996 7.866-14.808 9.504-20.16v.002zm-4.171 4.62c-1.355 4.17-4.288 13.692-8.526 14.351a5.7 5.7 0 0 1-5.12-2.53 4.563 4.563 0 0 1-.299-3.68c1.224-4.783 7.302-14.668 7.131-14.769.992-1.064 3.645-4.47 3.16-4.816-.485-.342-13.399 13.949-14.687 6.326-.379-2.172.527-13.782-.352-13.843-.604-.041-1.406 7.376-1.467 7.933-1.365 4.16-3.23 10.74-6.56 13.107-2.523 1.795-7.587-.392-6.24-6.107.947-4.387 7.504-14.992 9.432-18.213 1.392-2.4 3.976-6.616 6.858-6.549 4.611.124 4.341 9.16 5.041 16.848 1.21-1.328 3.052-3.408 4.194-4.401 8.533-7.648 13.034-4.811 10.661 5.483-.434 1.875-2.592 8.906-3.226 10.86z"/><path fill="#92FCFF" d="M156.062 117.152a18.024 18.024 0 0 1 .757-8.227 6.668 6.668 0 0 1 5.463-4.688c7.36-1.563 19.36 3.2 21.547 4.931a14.158 14.158 0 0 1 3.52 4.603c.565 1.92-.789 6.309-1.549 8.928a2.53 2.53 0 0 1-2.28 2.212c-12.906 3.385-23.277-4.8-25.01-5.472a3.48 3.48 0 0 1-2.448-2.288v.001zm109.772 87.637c-2.826 4.267-3.84 8.075.499 11.486a3.88 3.88 0 0 0 4.702.581c8.335-3.569 12.64-12.32 12.175-15.597-.367-2.537-4.202-5.582-5.848-5.712-1.527-.121-6.043 2.064-7.65 3.738a38.921 38.921 0 0 0-3.878 5.504zM207.04 297.87a9.853 9.853 0 0 0 1.992 5.317 14.753 14.753 0 0 0 7.435 1.181 25.729 25.729 0 0 0 9.589-3.795c1.885-1.391 2.478-2.76 1.11-6.059-1.12-2.685-2.16-4.128-5.019-4.408-3.048-.296-7.68 1.192-10.574 2.225a5.247 5.247 0 0 0-4.533 5.539zM87.303 265.475c.515 8.68 3.505 10.72 9.008 11.106 9.996.693 14.176.174 25.782-6.069a2.967 2.967 0 0 0 2.026-2.843c.48-4.384-.261-10.762-4.176-12.827-2.615-1.38-33.514-4.072-32.64 10.633zM41.76 234.841a2.962 2.962 0 0 0-.11 3.419c5.73 11.84 18.899 17.677 21.93 17.2 1.36-.212 4.48-3.376 5.335-4.299a5.487 5.487 0 0 0 1.557-6.414c-2.582-8.152-14.451-15.68-17.77-16.738-5.69-1.813-8.555 2.317-10.942 6.832zm16.061 46.366a3.068 3.068 0 0 0 1.87 3.472c9.196 5.201 20.399 2.411 21.341.88.176-.288.128-.194.826-4.731.389-2.528.32-4.148-1.933-5.82-3.552-2.638-13.25-3.36-17.92-2.091-3.669 1.003-4.14 5.093-4.184 8.29zM13.797 170.619a12.803 12.803 0 0 1 6.637-1.392c3.664.96 7.808 10.171 8.768 15.706.702 4.051-.63 5.28-3.178 6.155a19.297 19.297 0 0 1-5.243 1.222c-5.626-.542-13.86-17.59-6.984-21.691zm20.042-51.259c-.997 2-.525 3.132.89 5.183 1.55 2.24 2.56 3.101 4.994 2.64 8.285-1.57 13.418-10.781 13.373-12.213-.038-1.264-2.433-3.65-3.625-4.552a2.721 2.721 0 0 0-3-.531c-4.968 1.488-10.245 4.691-12.632 9.472v.001z"/><path fill="#0F0F0F" d="M185.28 109.032c-5.531-4-17.384-6.459-22.608-5.53a7.626 7.626 0 0 0-6.992 6.932 30.017 30.017 0 0 0-.32 6.374c.818 3.688 12.823 11.986 26.378 9.483 2.824-.52 4.704-1.489 5.64-4.232 1.888-5.406 2.078-9.891-2.098-13.027zm-1.688 13.848c-3.971 2.6-17.92 1.709-25.555-5.251a3.051 3.051 0 0 1-.96-2.943c.109-1.628.378-3.241.8-4.817 2.637 6.696 23.186 10.971 27.922 7.04-.213 1.603-.829 5.107-2.207 5.971zm1.778-7.389c-2.872 3.504-23.488-.264-26.24-5.998-.659-1.36-.343-1.618.16-2.112 5.19-5.119 30.357 3.121 26.08 8.113v-.003zM63.493 256.502c2.502-.21 4.086-2.331 5.651-4.238a10.137 10.137 0 0 0 2.731-6.616c-.28-6.983-16.757-21.623-24.387-18.636-2.851 1.032-4.522 4.122-6.038 6.748a4.874 4.874 0 0 0-.792 4.588c3.521 10.322 16.084 18.821 22.835 18.154zm-16.066-27.118c6.909-3.8 26.775 15.961 20.655 18.577-4.301 1.947-23.39-12.139-20.655-18.577zm-2.905 12.091c-2.935-4.741-3.088-5.383.662-10.08 2.251-2.703-3.07 2.014 9.266 12.045 2.91 2.369 9.96 6.803 13.396 5.976-3.145 4.665-4.348 4.854-7.118 4.067a28.494 28.494 0 0 1-16.206-12.008zm80.758 20.33c-1.225-6.92-4.233-10.314-14.961-10.031-7.309.224-21.341 2.331-23.937 9.299-1.318 3.264.07 7.164 1.172 10.514a5.585 5.585 0 0 0 3.345 4.194 34.14 34.14 0 0 0 17.624 1.716c5.244-.856 13.484-3.966 16.095-7.555 1.734-2.301 1.11-5.329.662-8.137zm-14.88-7.365c3.927.016 8.747.2 10.733 3.302 1.186 7.191-29.76 12.995-33.048 5.058 1.54-6.44 15.694-8.223 22.315-8.36zm12.031 13.942c-3.295 4.709-19.168 9.947-30.743 5.587a3.691 3.691 0 0 1-2.453-2.928 24.406 24.406 0 0 1-1.315-6.145c5.76 7.136 31.711 1.563 34.202-4.76.493 1.713 1.568 6.509.304 8.246h.005zm161.44-68.168a22.553 22.553 0 0 0-3.04-3.704 5.749 5.749 0 0 0-7.338-1.077c-3.534 1.749-9.6 8.48-11.163 13.389-1.12 3.76.979 6.4 4.552 8.835a4.722 4.722 0 0 0 5.334.043c9.304-4.539 12.811-14.891 11.655-17.486zm-19.453 9.226c1.101-3.565 4.451-7.442 7.065-10.162 4.124-4.088 8.448-4.046 6.144 1.099-4.27 9.383-15.521 16.655-13.209 9.063zm18.113-7.533c-1.51 7.544-9.6 14.248-12.971 14.432-1.08.078-2.219-1.051-3.158-1.866-1.09-.973-.435.112 2.208-1.478 5.541-3.275 11.752-11.266 10.849-15.581.844.72 1.634 1.501 2.362 2.336a2.228 2.228 0 0 1 .71 2.158v-.001zM20.392 168.48c-3.073-.987-8.686 1.587-9.537 3.901-1.644 4.256 1.342 15.165 8.521 20.045a3.695 3.695 0 0 0 3.491.347c2.199-.573 4.754-1.152 6.08-3.005 3.608-4.822-3.363-19.627-8.555-21.288zm2.117 22.933c-1.563.384-2.034.248-4.531-2.464a21.145 21.145 0 0 1-5.367-13.96c-.01-1.799-.073-2.632 3.973-4.115-2.046 4.564 3.952 18.168 9.056 19.419a22.25 22.25 0 0 1-3.131 1.115v.005zm5.013-2.635c-.181.265-.304.604-1.44.286-4.178-1.168-10.178-15.469-8-18.144 2.878-3.742 12.478 13.21 9.438 17.853l.002.005zm26.689-73.137a6.116 6.116 0 0 0-1.95-4.401c-2.594-3.2-5.171-4.042-10.455-.922-5.854 3.619-12.184 9.12-7.747 14.373 3.208 3.601 3.97 3.653 8.018 2.47 6.838-2.19 11.742-8.413 12.134-11.52zm-19.899 6.224c-1.173-4.92 14.056-14.312 14.66-10.4.558 2.954-11.162 12.797-14.66 10.4zm4.531 4.403a1.9 1.9 0 0 1-1.825-.686 21.94 21.94 0 0 1-1.836-2.014c4.674.932 14.487-7.021 15.103-11.288 2.273 2.654 2.053 3.088 1.23 4.596a18.733 18.733 0 0 1-12.672 9.392zm189.72 168.208c-1.12-4.027-3.18-5.824-9.331-5.058-3.021.442-8.289 1.714-10.934 3.762a5.255 5.255 0 0 0-2.045 6.459c1.514 4.602 2.168 4.982 6.446 5.517a20.147 20.147 0 0 0 14.24-4.059c2.738-2.135 2.384-3.679 1.624-6.621zm-3.091-1.703c.383 3.258-15.489 8.16-17.867 4.343.715-4.227 15.426-7.637 17.867-4.343zm1.259 5.496c-2.256 4.063-16.16 7.552-18.105 3.397a21.86 21.86 0 0 1-.903-2.637c3.901 2.738 16.3-.611 18.604-4.412.3.963.907 2.787.404 3.652zM81.653 275.897c-3.2-4.344-19.882-6.467-23.416-1.313-1.36 1.878-1.09 4.539-.923 6.862a3.748 3.748 0 0 0 1.475 3.259c6.662 5.032 18.24 5.005 22.213 1.69 1.95-1.574 2.608-7.854.65-10.498zm-1.28 2.24c-.19 1.336-1.472 1.76-2.806 2.007-5.373 1.073-17.44.206-18.2-4.128 2.419-4.336 19.49-2.416 21.008 2.118l-.002.003zm-.773 6.623c-2.696 2.352-13.305 3.189-19.856-1.306a2.314 2.314 0 0 1-1.029-2.102 22.391 22.391 0 0 1 .064-3.453c2.88 4.621 18.24 5.87 21.85 2.418-.029 1.443-.125 3.683-1.027 4.44l-.002.003z"/><path fill="#fff" d="M213.263 211.005c-5.879-8.496-13.364-9.232-17.687-6.24a30.906 30.906 0 0 0-6.12-7.965 10.5 10.5 0 0 0-9.357-2.516 13.59 13.59 0 0 0-4.9 3.008c-2.298-8.74-18.898-10.383-27.879 12.76-2.528 6.513-3.873 12.59-6.824 19.15l-.216-.302a38.113 38.113 0 0 0-4 9.3c-3.03 7.004-3.705 12.085-1.734 19.559 2.944 11.168 6.641 9.552.864 15.009a17.874 17.874 0 0 0-2.415 22.311 15.614 15.614 0 0 0 3.327 4.32c3.897 3.117 21.049 10.11 35.939 11.267-.178.946 1.184 1.314 2.146 1.262 5.892-.31 12.465-.937 16.336-5.392 5.931-6.83 1.472-17.492 2.12-18.476.244-.372.32-.32 5.294-2.216.126.154.28.282.454.379 26.552-23.463 25.205-59.967 14.652-75.218z"/><path fill="#0F0F0F" d="M221.133 229.992c-2.422-24.926-17.043-31.99-25.355-27.894a15.505 15.505 0 0 0-13.858-9.778c-2.206.173-4.34.863-6.23 2.013-.871.503-.202-.025-2.688-1.653-5.165-3.2-13.407-2.63-20.074 4.426-7.63 7.76-8.185 18.84-12.822 28.32-3.218 6.56-7.863 13.52-7.552 25.003a29.964 29.964 0 0 0 5.568 17.163c-8.949 9.92-13.375 20.495-4.352 30.199 9.142 9.904 39.894 21.64 54.302 12.814 5.968-3.573 9.632-10.638 6.709-22.363 20.778-7.23 28.294-36.291 26.352-58.25zm-6.206 29.44c-6.796 23.084-22.08 33.6-47.554 25.62-8.333-2.693-12.706-5.367-12.933-4.96-.201.369 19.891 13.318 37.866 8.862 4.133 22.181-14.005 24.451-35.474 17.498-28.368-9.44-29.326-21.317-17.11-36.882 4.121 4.698 9.897 8.126 10.12 7.754.782-1.08-14.855-8.274-14.589-26.943.11-14.104 6.741-17.91 11.595-32.779 3.245-10.138 5.44-16.77 13.794-21.645 5.101-2.325 9.328-1.313 11.445.858-10.104 8.269-14.271 20.889-18.384 33.187-4.32-.402-8.602.515-8.504 1.352.118 1.176 7.472.597 16.2 4.64l1.611-3.474a28.836 28.836 0 0 0-6.594-2.12c4.027-9.243 7.571-19.374 14.202-26.827 2.656-2.993 6.72-6.733 10.632-7.553 4.467-1.002 10.457 3.107 12.267 7.548-5.92 4.855-8.947 18.9-9.31 25.85l3.824.181c.304-6.165 3.2-19.658 8.198-23.351 6.018-4.672 19.005 1.408 21.394 24.093a77.776 77.776 0 0 1-2.696 29.098v-.007z"/><path fill="#92FCFF" d="M199.162 186.899c12.121 6.28 16.872 12.715 22.499 17.424 3.305 2.768 6.838 4.822 9.241 8.401-.169-.081-.185.25-.073.4 3.891 5.216 1.237 2.663 9.349 1.415 4.296-.661 9.032-1.106 12.48 1.801 5.182 4.37-1.957 11.2-6.72 16.924.233 1.475 1.6 7.822 2.56 8.379.316.134.668.166 1.004.089 4.533-.51 6.517.789 13.456 3.597a21.26 21.26 0 0 1 10.455 7.544 12.922 12.922 0 0 1 2.182 3.456c-7.72 1.314-10.766 1.424-12.84 3.6-.366-.022-.256.578 0 .848a21.04 21.04 0 0 1 4.765 6.743c2.752 5.667 5.664 11.867 3.774 18.142a11.84 11.84 0 0 1-3.889-1.874c-1.591-.92-3.285-.452-4.826-1.457-7.216-4.703-15.725-.877-14.184 9.201.8 5.189-12.509-2.678-18.19-7.38-9.719-8.044-5.459-13.096-8.96-12.64-2.931.15-5.869.024-8.776-.375-.509 4.48-2.735 7.65-5.688 10.959-3.52 3.948-6.363 4.561-10.12-.112a37.593 37.593 0 0 1-4.943-6.832c-.32-.095-.07.584.207.4.277-.184.19-.605.075-.916-7.109-19.072-11.04-14.26-31.606-26.985-22.837-14.122-26.794-28.867-32.18-35.439-6.329-7.724-12.628-21.192-11.168-31.144.893-6.088 5.106-12.022 11.127-13.288 2.949-.619 5.827-1.662 8.833-1.459 39.023 2.639 41.109 9.679 62.156 20.578z"/><path fill="#FFC5F6" d="M161.635 196.561a16.061 16.061 0 0 1 17.543 4.783c5.92 7.627 2.016 19.827-6.24 24.075a15.766 15.766 0 0 1-17.876-2.466c-7.617-7.529-5.086-22.304 6.303-26.299l.27-.093z"/><path fill="#FDFE1F" d="M222.781 260.352a24.364 24.364 0 0 1 17.059-18.479c2.59-.634 5.25-.941 7.917-.912 12.089-.076 23.465 7.532 27.457 14.375.532.91.36 1.454-.705 1.504-5.237.249-11.165 2.04-11.592 2.72-.304.48.173 1.069.597 1.453a25.72 25.72 0 0 1 7.788 23.825c-.171.827-.548.946-1.27.592-6.358-3.11-17.632-8.262-21.221-2.24-2.617 4.397 2.424 10.76-2.72 9.6a45.303 45.303 0 0 1-9.505-2.893c-9.204-4.347-16.248-17.577-13.805-29.545z"/><path fill="#0F0F0F" d="M220.135 246.355c-2.762-2.24-1.967-2.434-3.978.329a59.667 59.667 0 0 0-1.366 2.047c-.221.371.094.421 2.374 1.809.298.181.454-.144.606-.376 2.317-3.544 2.776-3.473 2.364-3.809zm-4.887 7.77c-3.058-1.429-2.584-1.572-3.253.011a36.16 36.16 0 0 0-1.32 3.611c-.125.405.139.373 2.752 1.155.304.091.376-.16.48-.517 1.066-3.552 1.907-3.995 1.341-4.26zm-2.76 8.689c-3.485-.613-2.928-1.011-3.234 1.541-.353 2.955-.368 3.458.074 3.469 3.69.097 2.853.648 3.125-2.448.169-1.922.523-2.475.035-2.562zm22.163-27.671c-1.427-3.112-1.025-2.826-2.181-2.261-2.033.994-4.046 1.978-3.755 2.446 1.424 2.29 1.474 2.581 1.835 2.354 3.514-2.206 4.359-1.979 4.101-2.539zm-11.736 8.14c.36.362.346-.104 3.061-2.347.514-.416 1.061-.715.8-1.048-1.622-2.111-1.72-2.424-2.056-2.163a44.258 44.258 0 0 0-3.68 3.23c-.299.296-.051.397 1.875 2.328z"/><path fill="#0F0F0F" d="M275.37 255.166c-2.88-6.931-12.458-14.526-26.56-15.419a26.787 26.787 0 0 0-2.183-6.8c14.25-9.72 11.146-18.987 1.058-19.888a46.527 46.527 0 0 0-13.872 1.541c-53.197-61.336-154.82-73.357-106.464 1.803 12.48 19.226 30.496 35.506 58.04 46.779 1.6 8.311 11.441 28.045 19.741 22.648a15.49 15.49 0 0 0 4.587-5.512c7.101-12.041-1.269-6.771 11.576-7.84a28.206 28.206 0 0 0 22.272 20.436c6.424.852 4.357.238 5.685-5.426 1.097-4.41 2.651-5.912 9.491-4.704a32.798 32.798 0 0 1 13.28 5.92 34.8 34.8 0 0 0 1.827-4.986 21.6 21.6 0 0 0-3.341-15.84 49.705 49.705 0 0 0-5.632-7.291c-.245-.209-.433-.184.231-.595 8.675-3.811 11.388-2.085 10.264-4.826zm-29.98-24.64a82.666 82.666 0 0 0-9.539-13.545c17.32-1.301 22.397 1.454 9.539 13.547v-.002zM131.75 216.32c.064-7.211 1.709-14.08 8.341-23.651 4.853-6.946 1.92-4.419-1.213-.96-5.44 6.037-9.12 14.36-8.678 22.24a101.512 101.512 0 0 1-9.72-19.653c-5.816-16.846 1.6-25.95 16.358-25.992a91.097 91.097 0 0 1 27.772 4.24c1.889.574 1.544.126-1.28.982a47.516 47.516 0 0 0-17.12 10.576c-11.991 11.639 8.144-5.196 17.748-8.66a29.538 29.538 0 0 1 5.33-1.368c25.374 8.894 49.462 26.945 66.44 47.328-19.885 5.942-35.2 23.2-35.331 44.441-28.763-10.733-51.303-23.675-68.647-49.523zm75.04 62.162c-3.508 5.041-4.92 6.536-9.67.561a65.882 65.882 0 0 1-8.563-14.605c7.048 2.72 14.71 5.909 22.037 7.335a52.15 52.15 0 0 1-3.81 6.705l.006.004zm-4.926-12.098c1.133-21.35 15.797-37.066 34.904-43.715.621.768 5.163 6.88 4.696 6.99-.602.135-2.157.552-3.68 1.053-.402.134-.221.333.666 2.91.185.538.433-.036 4.723-.979a.316.316 0 0 0 .217-.176 25.523 25.523 0 0 1 2.836 7.2c-10.538 0-16.696 3.827-21.074 9.949a27.842 27.842 0 0 0-4.421 20.387 49.497 49.497 0 0 1-18.873-3.622l.006.003zm69.92-10.346a22.127 22.127 0 0 0-11.73 3.498c5.727 7.178 11.778 14.414 10.045 23.462-.171.133-9.102-5.2-16.979-3.499-5.002 1.088-6.376 5.783-5.742 10.835.363 2.818 1.12 2.4-.32 2.023-24.81-6.52-30.216-33.218-13.104-46.018 11.217-5.776 28.87-4.4 40.753 9.231.813.939.992.224-2.923.465v.003z"/><path fill="#0F0F0F" d="M165.168 188.096c-4.782.883-9.536 3.68-9.28 4.11.256.431 3.73-1.894 9.511-2.579a20.847 20.847 0 0 1 10.281 1.266c19.426 6.297 13.6 33.173-2.013 41.374-14.838 7.776-33.07-7.118-27.747-26.867 1.688-5.782 4.717-8.456 4.365-8.786-.411-.401-4.149 3.656-5.835 8.304-8.48 24.869 23.136 45.869 40.465 19.535 13.38-20.338-.74-39.771-19.747-36.357z"/><path fill="#0F0F0F" d="M150.025 213.889c1.296 15.386 21.268 19.244 29.562 6.749 8.354-12.014.131-27.144-14.198-25.229-4.381.64-5.256 1.02.067.748 3.427-.181 6.825.7 9.733 2.523 10.22 6.633 6.22 22.749-4.359 26.59-11.897 4.274-22.438-6.385-18.592-18.448a16.131 16.131 0 0 1 5.861-8.145c4.267-3.023 3.482-2.88-.413-.629a16.492 16.492 0 0 0-7.661 15.841z"/><path fill="#FFC5F6" d="M256.928 169.44c4.421 4.245 3.715 10.939 2.992 16.48-2.069 15.869-2.105 18.512-4.552 19.456-4.443 1.717-7.544.683-8.539.987a3.577 3.577 0 0 0-1.325.946c-3.352 3.171-7.211 3.603-11.213 5.28-3.462 1.448-12.48 1.67-13.337 3.414-.151.304-.075.32 1.067 5.944-.152-.056.504.014.509-.149a61.694 61.694 0 0 1 2.256 13.699 2.245 2.245 0 0 1-1.12 2.552c-4.49 3.125-10.08 4.452-17.333 6.543-3.485 1.005-7.187 2.014-10.685 1.053-10.011-2.749-10.414-18.381 3.267-19.933-1.377-5.954-4.48-6.333-5.07-15.36a7.713 7.713 0 0 1 1.845-6.365 28.968 28.968 0 0 1 9.413-8.107c-1.874-1.023-18.263 5.638-27.36 1.673-5.28-2.299-6.604-7.433-4.218-10.476a10.072 10.072 0 0 1 5.405-2.88c45.326-13.077 34.08-1.268 4.497-26.525-4.689-4-13.452-11.765-13.129-18.266.467-9.44 16.757-.867 25.464 2.832 5.881-8.819 6.097-13.861 8.8-17.318 7.048-9.035 34.913-6.171 42.965-.447 3.36 2.391 10.278 11.826 11.945 17.461a33.186 33.186 0 0 1 .92 11.299c-.285.92-1.078 1.792-.785 2.711.675 2.109 2.24 3.31 1.912 5.499a15.086 15.086 0 0 1-4.879 7.989c-.099-.039.221-.051.288.008z"/><path fill="#92FCFF" d="M232.704 150.774c1.218-7.573-5.656-16.994-8.24-19.167-3.345-2.814-12.32-5.096-19.04-2.516-11.84 4.547-17.145 33.427.583 36.912 6.764 1.329 9.676 1.068 15.792-1.812 7.356-3.462 9.729-6.112 10.905-13.417z"/><path fill="#0F0F0F" d="M258.307 169.904c3.148-4.071 5.194-9.882 2.517-14.213 3.725-12.8-4.563-45.965-52.16-35.819h-.033a15.782 15.782 0 0 0-4.223 2.798c-2.47 2.638-2.854 5.858-4.776 8.571a31.806 31.806 0 0 0-5.205 9.944c-12.08-5.721-16.764-8.571-21.848-6.803a5.767 5.767 0 0 0-3.939 5.586c.011 4.539 3.52 7.656 6.619 10.955a146.457 146.457 0 0 0 31.141 24.512c-29.509 7.36-32.038 7.401-34.691 11.333-2.44 3.667-.6 9.188 4.915 11.545 3.736 1.92 9.031 1.994 13.227 1.6 10.655-1.024 10.736-2.39 7.815-.281-6.8 4.868-6.336 12.139-2.613 19.595a36.494 36.494 0 0 0 2.32 5.296 11.201 11.201 0 0 0-5.299 1.713 11.954 11.954 0 0 0-4.498 12.132c1.954 8.95 9.92 10.048 18.768 8.016 8.098-1.973 16.127-6.344 18.034-8.045a4.494 4.494 0 0 0 1.233-4.202 100.964 100.964 0 0 0-3.974-18.121c14.587-2.703 19.344-3.653 22.88-6.322 3.968-2.848.139-2.709 6.434-2.227 8.188.505 8.664-6.007 9.99-14.738.92-6.169 2.062-18.721-2.634-22.825zm-46.115-48.106c22.056.48 26.411 16.269 27.226 15.938.451-.18-3.167-12.234-16.077-16.085-3.418-1.077-4.778-.8-.16-1.016 15.67-.648 28.29 4.171 34.262 18.806 3.237 7.81 2.173 14.72 1.887 14.491-2.799-2.4-6.418-2.091-6.4-1.712-.024.48 6.299.679 7.03 6.421.693 5.44-4.32 11.411-8.816 14.538-11.224 7.704-18.365-5.637-7.597-15.967a18.384 18.384 0 0 1 6.498-4.08c1.734-.617 2.797-.697 2.794-.913.032-.48-5.178-.917-10.573 3.545-3.453 2.863-.96 2.429-.504-4.64a11.542 11.542 0 0 0-.343-4.784c-.187.01-.07 1.712-.504 4.695-3.04 20.059-25.67 24.48-37.43 17.825a24.501 24.501 0 0 1-2.539-2.856c14.971 7.244 31.369-3.211 32.64-15.073a22.104 22.104 0 0 0-18.429-23.795 22.103 22.103 0 0 0-10.88.939c1.565-3.474 2.923-5.264 7.915-6.277zm-.755 52.378h-.029c-4.613-2.093.464.678 9.184-.847a27.087 27.087 0 0 0 15.56-8.48 11.176 11.176 0 0 0 2.299 10.807c-13.478 3.934-26.8-.592-27.014-1.48zm-8.717-42.733c.333.654 2.178-1.57 7.877-1.933a19.468 19.468 0 0 1 18.862 9.896c9.348 16.787-8.835 30.757-24.336 25.466-5.539-1.834-6.868-4.202-7.089-3.933-6.963-16.183 4.07-28.384 4.686-29.496zm-31.416 8.521c-.022-3.3 3.562-4 6.815-3.291 2.568.61 3.268 1.063 15.84 6.288a30.136 30.136 0 0 0 2.832 21.335c1.6 2.921 1.82 2.144 1.048 2.836 1.108 1.212-26.44-20.296-26.541-27.168h.006zm51.416 96.629a55.56 55.56 0 0 1-16.984 7.2c-4.902 1.093-11.398 1.587-14.15-2.622a9.521 9.521 0 0 1 2.037-12.759c2.26-1.673 5.499-.779 6.894-2.451-.534-.254-.142-.081-.259-.144.507-.8.501-.661-.607-2.619-5.46-9.659-.704-.429 14.119-4.998 1.238-.349 5.28-2.823 5.661-2.504.63.07 1.68 5.547 1.806 6.174.44 2.427 3.208 13.093 1.483 14.723zm22.589-31.918c-2.347 4.534-8.336 5.558-13.242 6.771-14.4 3.474-10.363 2.904-11.969 2.464-1.775-.342-3.568.822-5.733 1.85-2.73.963-5.6 1.467-8.494 1.488-4.186.16-8.151-1.671-9.652-1.087-4.107-12.257 2.802-14.88 13.477-19.729 7.959-2.12 3.651-.944 16.514-2.608 7.283-1.013 10.27-1.984-.143-1.541-8.713.449-5.62 1.174 1.781-3.431 2.368-1.502 3.541-2.52 3.45-2.664-.699-1.12-10.61 8.416-41.691 11.056-5.077.437-12.352.111-15.271-4.078-1.969-2.806-1.336-6.064 4.599-7.986 1.366-.433-.442.037 32.832-8.267a41.787 41.787 0 0 0 28.499.085 9.687 9.687 0 0 0 4.128 1.144c1.427 12.088 3.926 21.086.913 26.533h.002zm12.918-12.359c-2.184 14.356-2.56 12.685-10.176 12.984 2.89-6.198.661-14.745-1.748-27.243 4.198-.558 8.025-3.542 10.844-6.749 3.319 3.768 1.826 16.068 1.079 21.012l.001-.004z"/><path fill="#fff" d="M153.76 250.462c2.656-1.583 2.973-1.519 3.61-5.229 1.955-11.381 13.681-21.056 20.544-22.08 6.129-.915 10.913 2.918 9.51 11.446a42.244 42.244 0 0 0-1.28 8.968c.259 4.939 3.454 9.363 3.723 14.304.16 2.968-.513 5.104-3.414 17.887-.855 3.761-2.008 4.244-4.48 4.376a68.228 68.228 0 0 1-12.451-.103 34.54 34.54 0 0 1-23.826-14.742c-.6-.871 2.605-11.576 8.064-14.827z"/><path fill="#0F0F0F" d="M180.544 238.684c-.27-2.948-.32-4.8-.57-4.812-.203-.016-.564 1.833-.59 4.862-.094 6.898 1.931 15.91 2.635 23.211.301 2.947.379 4.8.626 4.8.205.013.539-1.841.533-4.867.022-6.798-1.999-15.781-2.634-23.194z"/><path fill="#0F0F0F" d="M190.49 259.105c-.245-6.048-1.805-11.929-2.204-18.145-.377-5.471.994-10.226-1.28-14.853-4.152-8.528-13.576-5.003-21.212 1.019a31.212 31.212 0 0 0-10.871 20.517c-6.152 4.464-8.059 10.582-7.35 10.88.659.293 2.339-3.349 7.04-7.221-.341 6.987 1.003 17.078 1.92 17.04 1.019-.042.835-10.616 1.619-17.302.96-8.388 3.418-15.61 10.08-20.96 5.195-4.093 12.456-8.266 15.325-2.287 1.739 3.506.499 7.875.896 13.408.424 6.634 1.979 12.687 2.501 18.103.545 6.369-2.29 16.904-1.002 17.092.768.093 4.725-10.169 4.538-17.291z"/></svg>