<svg xmlns="http://www.w3.org/2000/svg" width="320" height="320" fill="none"><path fill="#fff" d="M310.978 220.189c-1.965-15.3-6.376-16.408-12.626-17.469-19.291-3.181-10.005 4.555-17.717-7.666-6.673-10.621-15.412-19.771-24.216-28.592-6.115-6.126-9.88-15.387-18.702-15.419-6.442-.045-12.541 5.398-11.853 17.106.679 16.931 9.979 23.52 11.693 29.6a157.68 157.68 0 0 1-25.35-4.178c-12.952-3.15-25.573-15.182-38.695-8.64-4.853 2.418-9.257 7.558-5.827 12.187 1.523 2.08 3.051 2.946 12.248 9.152-3.176 5.311-4.882 9.973.586 19.959 6.182 11.275 11.185 13.977 18.902 15.39a20.992 20.992 0 0 0 .856 9.077c3.469 9.822 16.064 14.281 26.171 16.619 11.427 2.643 25.887 5.949 37.391 2.758 3.659-1.011 1.841-2.049 6.91 3.128 4.229 4.32 8.059 8.116 13.76 7.084 12.856-2.338 30.51-28.418 26.469-60.096z"/><path fill="#0F0F0F" d="M311.225 211.2c-1.613-4.8-4-8.208-8.829-9.453a53.613 53.613 0 0 0-16.624-.862c-6.624-13.939-17.069-25.304-27.68-36.104-5.843-6.013-10.093-16.114-20.357-16.189-12.269-.126-15.912 13.014-13.691 25.194 2.122 11.819 8.901 19.38 10.491 21.92a222.973 222.973 0 0 1-24.523-5.357c-9.982-3.419-20.848-11.415-31.93-9.543-5.966 1.082-12.64 5.28-13.92 11.053-1.569 7.058 5.535 10.472 12.463 15.149-2.682 5.342-3.378 11.03 1.733 20.4 4.739 8.706 9.854 14.424 19.017 16.278a18.8 18.8 0 0 0 6.384 16c10.338 9.335 46.293 18.212 63.008 11.226 6.267 6.4 12.047 16.152 24.36 8.938 19.531-12.32 27.272-46.41 20.098-68.65zm-10.637 53.45c-3.72 6.118-10.987 14.324-17.984 14.42-4.934.068-9.61-5.716-13.368-9.344 11.394-6.24 16.842-22.768 16.344-22.988-.269-.124-1.312 1.708-3.254 4.945-7.754 12.651-14.277 18.776-30.973 18.267-9.263-.276-35.152-4.219-45.099-13.006a15.493 15.493 0 0 1-5.527-12.691c18.901 2.72 29.699 5.009 29.92 4.109.127-.503-3.939-2.061-10.72-3.892-20.833-5.584-25.779-2.683-33.086-11.219-2.989-3.52-7.36-10.601-8.253-16.061a12.44 12.44 0 0 1 1.206-8.027c17.488 11.803 14.834 11.955 44.228 14.72 17.1 1.711 17.147.48.393-2.694-31.793-5.845-20.822-.336-52.022-21.68-2.495-1.709-5.066-3.84-4.48-6.802.997-3.945 6.304-7.294 10.817-8.104 9.538-1.611 19.732 5.808 30.052 9.395 15.953 5.194 43.744 6.492 43.8 4.864.024-.608-5.837-1.248-13.989-2.505-1.506-4.242-11.904-14.267-11.338-29.999.203-4.654.842-8.979 4.552-11.907a9.595 9.595 0 0 1 5.185-2.029 9.594 9.594 0 0 1 5.439 1.189c5.6 2.93 6.56 7.36 14.925 15.733 17.574 17.92 35.384 38.77 31.568 64.48-.378 4.16-1.901 8.557-1.579 8.678.557.21 9.12-16.83-.458-39.158 4.04-.134 14.434.266 17.512 2.866 6.298 5.044 10.195 35.478-3.811 58.44z"/><path fill="#fff" d="M166.251 187.381c-1.725-9.901-12.098-4.498-28.024-10.122-11.392-3.952-12.597-8.868-28.621-3.457-3.925 1.325.32.894.64-12.679.275-14.547-8.509-20.82-15.5-19.862-5.847.8-8.673 6.49-12.102 11.33-10.4 14.596-37.92 26.835-48.55 43.284-6.66 10.316-.123 7.368-10.674 8-4.512.277-7.776.96-10.603 4.104-5.057 5.62-4.897 12.64-3.795 20.239 3.36 22.891 14.123 60.653 35.333 51.36 5.315-2.37 8.16-5.719 11.104-8.759 11.001 5.319 22.363.271 34.499-5.12 5.222-2.323 3.472-1.964 5.493-1.164 7.915 3.105 13.992-5.068 27.944-8.748 4.448-1.161 9.526-1.894 13.296-4.512 5.478-3.804 7.536-13.329-.053-22.089 9.12-6.789 4.376-19.058-4.032-24.848-2.784-1.946-1.155-.048 7.402.269 12.992.464 28.368-5.767 26.243-17.226z"/><path fill="#0F0F0F" d="M168.67 186.984a9.683 9.683 0 0 0-5.999-7.731c-4.584-1.802-8.024-.575-16.5-2.24-17.178-3.336-18.632-11.428-35.168-5.068 3.638-13.723 1.52-29.265-11.51-32.809-11.68-3.248-16.406 9.699-20.713 14.429-13.92 16.033-42.224 27.384-49.76 49.07-7.8-.338-14.105-.69-18.81 5.536-5.412 7.093-4.177 16.176-2.868 24.64 2.693 16.779 8.272 36.57 21.205 47.349 8.64 6.4 19.622 1.253 26.379-7.224 9.776 4.713 19.123 2.329 29.95-2.472 10.4-4.65 7.947-4.501 9.715-3.776 3.904 1.6 8.362.702 12.192-1.035 5.05-2.272 9.164-5.778 20.778-8.432 8.421-2.103 14.678-4.96 15.718-13.653 1.008-8.255-4.193-13.2-3.952-13.402 5.533-4.627 5.852-12.488 2.511-18.912-3.144-6.059-5.773-5.293-1.952-4.992 14.688 1.059 31.056-5.886 28.784-19.278zm-35.466 64.632c-5.691 2.451-11.51 2.08-21.237 7.022-4.441 2.229-8.515 5.165-13.132 5.128-8.428-.016-12.693-13.033-.81-24.217 13.187 3.864 15.443 2.662 22.72-.52 6.197-2.711 11.744-4.063 16.384-7.17 4.25 5.402 5.211 15.835-3.925 19.757zm30.487-57.536c-5.034 8.387-21.328 10.851-30.92 8.019-9.082-5.226-19.888-4.867-19.936-4.147-.087 1.149 29.468 4.064 27.166 24.07a9.001 9.001 0 0 1-1.723 3.719c-4.976 5.28-11.143 6.355-16.744 8.748-9.12 3.895-9.344 4.823-20.514 1.896-23.952-6.308-16.424-17.411-8.32-19.609 7.407-1.976 13.135 1.92 17.269.16 1.208-.48 13.2-6.653 12.811-7.495-.39-.841-12.555 4.32-13.797 4.692-2.979.875-9.145-2.988-17.219-1.013-11.38 2.88-18.433 17.862 3.388 25.504-9.178 8.539-9.733 19.379-4.508 25.256-10.72 4.76-23.667 11.049-34.224 5.838-7.291-3.341-11.531-10.769-15.585-16.8-2.768-4.16-3.05-3.529-1.325.701 2.985 7.2 6.816 13.672 13.241 18.027-5.968 6.546-15.2 11.08-22.099 5.717-16.26-14.386-22.257-51.869-20.438-60.941.878-4.673 3.705-8.744 7.36-10.093a32.691 32.691 0 0 1 10.688-1.19c-4.832 18.675 6.953 39.2 7.36 39.006.597-.262-4.16-9.92-5.69-21.081-4.291-31.696 22.451-41.039 44.64-60.146 12.375-10.705 11.498-15.48 17.04-19.081 6.443-4.084 17.557 1.289 17.256 17.264-.253 10.312-3.558 18.094-9.528 26.457a33.893 33.893 0 0 1-16.272 13.002c-5.142 2.014-8.6 2.768-8.513 3.302.116.717 16.16.912 27.592-14.213a51.885 51.885 0 0 0 7.897-14.545c10.88-3.73 14.08-2.672 20.81.529 15.657 7.741 26.048 5.415 30.35 7.184 4.215 1.472 4.715 7.538 2.487 11.263z"/><path fill="#0F0F0F" d="M82.466 235.801c-3.907-18.34-11.882-21.804-10.88-23.028.368-.54 10.38 4.812 14.109 22.342 2.91 13.677.216 26.739-.733 26.616-1.09-.141.456-12.075-2.496-25.93zM60.19 248.698c11.71-8.872 9.44-24.786 8.239-24.64-.408.036-.434 2.168-.928 5.46-3.172 20.81-19.04 21.178-18.413 23.021.107.32 2.24.199 5.624-.894a22.985 22.985 0 0 1 10.536.238c6.4 1.45 10.429 5.28 11.016 4.736.82-.761-5.566-8.505-16.074-7.921z"/><path fill="#fff" d="M156.594 66.144c-4.893-10.159-65.77-18.888-69.193-5.069-1.074 4.34-8.275 66.16-8.504 68.285-2.578 24.24-5.232 45.466 10.203 59.778 10.344 9.833 14.832 4.913 13.507 15.177-.139 1.091-6.315 56.237-6.944 57.44-1.685 3.178-10.8.307-23.131 5.76-10.149 4.49 49.585 12.226 55.878 7.914 4.101-2.755-13.11-6.832-20.246-9.723-1.815-.743-3.04-1.178-2.811-3.36 7.52-69.431 4.577-63.69 12.598-66.704a51.47 51.47 0 0 0 21.219-16.236c5.069-6.803 6.808-13.256 8.511-21.678 5.731-28.346 6.224-52.111 6.755-51.539 3.147-36.493 3.875-36.717 2.158-40.045z"/><path fill="#92FCFF" d="M89.304 263.101c-1.872.198-15.61 2.038-17.229 3.454-6.54 5.718 19.723 7.661 28.226 8.874 7.409 1.057 22.72 4.716 28.34.886.668-.454.829-.894.32-1.725-1.785-2.901-5.327-4.101-8.588-5.088-17.36-5.262-14.547-3.152-13.791-10.774 1.789-18.016 3.389-36.083 5.517-54.063.76-6.43 3.232-7.219 9.85-9.82 10.003-3.932 19.717-12.716 23.2-23.122 3.657-10.933 10.316-57.406 10.744-65.44.099-1.874-.519-2.771-2.344-2.28-5.898 1.584-7.119 6.579-8.272 7.17-1.208.619-2.618-.64-3.959-.439-1.971.303-2.342 3.333-4.217 4.01-1.637.589-3.484-.96-5.12-.354-1.28.469-1.776 2.002-2.759 2.947-2.352 2.268-4.952-.009-5.712-.121-2.048-.303-2.845 2.987-4.856 3.472-2.04.494-3.872-2.187-5.9-1.651-1.477.39-2.189 2.324-3.695 2.585-2 .347-3.421-2.494-5.44-2.321-1.699.144-2.648 2.34-4.346 2.523-2.031.219-3.446-2.56-5.483-2.383-2.493.224-2.048 3.157-8.216.074-4.579-2.29-6.536-.621-6.94 3.635-2.445 25.76-1.932 18.461-1.868 34.09-.038 2.736.072 5.47.33 8.193a39.146 39.146 0 0 0 20.02 29.464c6.863 3.709 5.749 4.245 5.29 10.218-.32 4.122-.26 3.275-7.078 54.669-.195 1.43.757 2.598-6.024 3.317z"/><path fill="#0F0F0F" d="M156.853 62.24c-8.144-7.226-48.514-15.263-65.802-8.02-5.02 2.116-5.829 4.842-6.595 8.991-.034.184-8.94 71.597-9.296 91.906-.352 37.028 24.562 41.052 25.866 43.977 1.136 2.133.259 2.645-6.263 56.32-.712 5.877-.334 5.76-2.272 5.938-29.784 2.952-28.54 9.806-12.989 13.166 7.943 1.663 32.264 5.554 44.434 4.624a12.206 12.206 0 0 0 7.062-2.665c6.127-6.772-21.377-11.5-23.126-13.714 5.867-58.72 5.798-59.07 6.616-61.579.738-2.487 3.011-1.76 9.878-5.578 19.748-11 23.981-24.688 27.533-45.248 4.079-23.36 8.32-79.064 8.32-79.238-.035-3.522-.726-6.568-3.366-8.88zm-40.936 133.02c-6.746 2.796-5.215.15-11.36 63.87-.778 8.355-.741 5.837 15.811 11.87a45.818 45.818 0 0 1 7.426 3.298c.48.472-3 1.32-5.698 1.414-15.019.724-53.46-5.414-48.754-7.348a57.606 57.606 0 0 1 16.338-3.648c6.282-.661 6.738-.333 7.72-5.988 6.733-58.59 8.218-59.611 4.32-62.536-1.323-.984-13.011-5.016-19.443-18.123-4.077-8.253-4.27-15.451-4.141-22.902.3-11.96 1.504-23.2 2.944-35.243a16.14 16.14 0 0 0 3.5.718c2.4.192 2.257 2.035 4.692 2.221 2.442.129 2.538-1.706 4.947-1.579 2.411.052 2.371 1.934 4.823 1.947 2.451.013 2.433-1.826 4.846-1.901 2.413-.075 2.509 1.76 4.96 1.589 2.451-.171 2.291-2.007 4.69-2.29 2.398-.283 2.659 1.546 5.099 1.135 2.44-.412 2.097-2.208 4.454-2.738 2.357-.53 2.81 1.28 5.199.595 2.388-.685 1.854-2.416 4.136-3.2 2.281-.784 2.939.952 5.238 0 2.299-.952 1.563-2.616 3.741-3.665 2.177-1.05 2.993.537 5.203-.602 2.141-1.261 1.206-2.848 3.288-4.075a27.816 27.816 0 0 0 3.453-2.341c-5.631 60.115-8.154 77.333-37.432 89.522zm40.081-118.9c-.353 2.502-.377 3.219-2.454 27.339-.592-.605-2.867.237-5.28 1.746-1.976 1.233-1.08 2.758-3.144 3.976-2.131 1.097-2.947-.488-5.043.523-2.096 1.011-1.362 2.672-3.576 3.589-2.215.916-2.869-.828-5.067-.064-2.199.763-1.663 2.499-3.968 3.155-2.306.656-2.757-1.146-5.032-.64-2.276.505-1.932 2.304-4.296 2.704-2.365.4-2.626-1.426-4.948-1.152-2.321.273-2.158 2.101-4.55 2.273-2.392.173-2.49-1.665-4.84-1.6-2.35.066-2.331 1.911-4.731 1.898-2.4-.013-2.362-1.891-4.723-1.942-2.364-.124-2.46 1.708-4.858 1.58-3.211-.244-1.536-3.064-8.115-2.193.019-.16 6.56-53.975 7.059-56.058 2.4-10.142 44.64-7.573 64.032 2.323 4.51 2.384 4.403 5.783 3.534 12.543z"/><path fill="#0F0F0F" d="M150.265 68.07c-2.651-2.704-7.127-3.907-10.867-4.579-.68-.118-9.893-1.498-9.984-1.02-.282 1.52 14.4 2.25 19.004 7.353 3.052 3.312 1.741 7.957-9.518 7.721-22.341-.203-53.048-8.425-41.957-14.313 4.295-2.226 12.44-1.675 15.858-1.896 6.054-.213 6.227-.674.051-1.28-5-.331-12.067-1.381-17.045.899-3.04 1.472-4.725 4.293-3.307 7.315 5.6 10.064 48.923 16.152 57.328 9.89 3.245-2.344 3.853-6.653.437-10.09z"/><path fill="#fff" d="M258.493 210.291c-12-69.557-22.609-108.433-23.924-116.112a6.347 6.347 0 0 0-1.575-4.096c-10.734-9.709-73.264 3.2-76.251 26.08-.64 4.931 26.283 76.32 33.034 91.968 2.72 6.309 6.291 19.405 12.417 22.706 5.383 2.899 27.232 3.254 48.451-9.664 7.834-4.765 8.788-5.443 7.848-10.882z"/><path fill="#FFC5F6" d="M184.657 196.725c3.879 6.552 3.946 11.488 4.826 14.4.665 2.21 1.272 3.176 7.459 14.891 3.829 7.25 6.267 6.37 14.376 6.504 6.848.114 9.162 2.007 20.872-1.876 6.798-2.255 20.133-7.508 25.366-12.372a3.48 3.48 0 0 0 1.336-3.84c-1.32-9.428-2.02-19.328-4.272-28.568-2.24-9.204-4.041-18.497-5.729-27.817-4.707-1.336-7.335.733-8.901.605-2.013-.16-3.376-2.829-5.362-2.466-1.158.211-1.961 1.43-3.134 1.552-1.97.205-3.04-2.688-5.008-2.88-1.682-.16-3.066 1.75-4.741 1.52-1.387-.192-2.12-1.706-3.219-2.576-2.512-1.981-4.837.176-5.6.267-1.675.203-2.25-2.4-3.814-3.025-2.183-.884-4.629 2.523-6.631 1.28-.971-.602-1.129-1.988-1.971-2.759-1.952-1.787-4.986.874-6.213.847-2.033-.048-2.24-3.501-4.184-4.103-1.331-.411-2.673.768-4.062.672-2.101-.145-3.058-2.957-5.083-3.52-1.864-.525-4.236.96-5.621-.4-.911-.888-.736-2.541-1.722-3.347-1.261-1.034-3.2.16-4.761-.294-2.583-.736-2.613-5.221-7.86-5.298 7.151 21.6 4.466 12.717 9.476 25.68 2.299 5.938 5.267 21.87 14.177 36.923z"/><path fill="#0F0F0F" d="M204.093 116.528c-2.105-.667-5.76.979-14.637 3.189-4.355 1.083-17.908 4.23-22.222 3.008-3.099-.879-5.194-3.09-4.605-6.208 1.92-10.181 29.28-19.637 29.663-18.56.16.48-25.92 10.88-26.956 18.969-1.017 7.874 25.047-1.307 34.848-3.486 4.876-1.085 5.888.107 12.244 4.009a29.976 29.976 0 0 1 2.822 1.831c-.008-.691-1.517-6.469-2.734-10.587a40.046 40.046 0 0 0 9.801-5.847c4.443-3.24 5.407-5.837.189-7.428-7.474-2.284-24.222 1.92-24.414 1.163-.26-1.013 12.86-3.33 16.889-3.866 10.599-1.41 19.547 4.285 9.045 12.4a45.415 45.415 0 0 1-7.81 5.254c.62 1.474 1.391 5.666 4.64 16.922-.918-.659-12.934-9.549-16.763-10.763z"/><path fill="#0F0F0F" d="M261.025 209.852c-6.339-33.12-10.373-56.27-23.68-110.262-2.127-8.611-1.258-10.29-6.859-12.464-19.421-7.32-78.4 7.298-76.188 31.602.151 2.43 28.522 82.86 38.229 103.691 4.904 10.531 8.851 12.753 18.943 12.629a78.841 78.841 0 0 0 45.06-14.634c4.749-3.325 5.389-5.285 4.495-10.562zm-103.253-91.584c-.408-4.334 2.72-9.193 6.08-12.443 18.474-17.401 64.875-21.406 68.885-14.368.664 1.17 14.019 63.267 14.4 65.031-5.493-1.431-4.091 1.272-7.168.932-2.295-.32-2.032-2.132-4.298-2.475-2.265-.342-2.56 1.461-4.846 1.066-2.287-.395-1.954-2.21-4.215-2.629-2.26-.419-2.612 1.37-4.884.92-2.272-.45-1.9-2.259-4.16-2.738-2.261-.478-2.645 1.316-4.911.82-2.265-.496-1.862-2.296-4.12-2.8-2.257-.504-2.664 1.28-4.925.766-2.26-.514-1.852-2.307-4.115-2.824-2.262-.517-2.648 1.28-4.894.701-2.247-.579-1.73-2.376-3.899-3.016-2.16-.672-2.732 1.062-4.92.32-2.172-.8-1.53-2.503-3.634-3.333-2.09-.862-2.818.85-4.926-.098-2.109-.947-1.316-2.619-3.341-3.62-2.026-1.002-2.871.592-4.903-.508-2.422-1.364-.561-3.788-6.422-5.489-1.24-3.626-2.19-6.357-4.784-14.215zm99.907 95.172c-.173 1.857-1.741 2.88-3.302 3.95a71.114 71.114 0 0 1-8.8 5.365c-18.048 9.369-37.44 9.533-42.515 7.291-3.492-2.054-5.255-5.4-7.04-9.24-5.76-12.32-25.871-66.179-32.092-84.312 2.764 1.814 1.359 2.976 3.532 4.2 2.091 1.131 2.942-.48 5.022.566 2.08 1.047 1.294 2.696 3.459 3.68s2.896-.74 5.047.146c2.163.856 1.521 2.56 3.753 3.382 2.25.764 2.823-.972 5.043-.281 2.24.659 1.724 2.449 4.021 3.053 2.298.603 2.741-1.208 4.994-.68 2.253.528 1.851 2.31 4.113 2.827 2.263.517 2.672-1.28 4.935-.767 2.262.514 1.862 2.306 4.136 2.805 2.273.499 2.664-1.301 4.933-.816 2.268.485 1.899 2.279 4.185 2.747 2.287.469 2.643-1.347 4.923-.915 2.28.432 1.954 2.24 4.261 2.64 2.307.4 2.61-1.427 4.903-1.061 2.292.367 2.033 2.17 4.361 2.488 2.496.276 1.792-1.494 5.655-1.28.832.053 1.667.031 2.496-.067.539 2.493 10.195 51.847 9.977 54.279z"/><path fill="#FDFE1F" d="M229.158 170.958c10.018-11.011.144-40.64-19.52-42.898-5.76-.659-13.44 3.2-18.688 5.964-15.237 8.009-3.318 46.68 17.818 46.452 4.904-.052 17.491-6.334 20.39-9.518z"/><path fill="#0F0F0F" d="M207.805 126.974c-4.781.034-10.57 2.86-14.89 4.975-3.48 1.787-6.24 2.739-8.23 7.84-5.827 16.632 6.27 40.729 23.314 41.651 5.132.39 16-5.038 20.737-8.718 13.594-10.535.043-46.544-20.931-45.748zm-8.8 4.506a15.22 15.22 0 0 0-4.621 9.539c-3.827 1.904-2.912 2.301-8.561 3.399 1.296-8.08 4.974-9.336 13.182-12.938zm-13.406 14.776c.729-.32 4.177-2.019 4.385-2.019 1.328-.48 3.002-.861 4.223-1.218-.093 3.448.35 6.89 1.313 10.202-4.365 1.957-2.531 2.147-9.099 3.374a31.085 31.085 0 0 1-.822-10.339zm1.265 11.947c7.987-3.557 5.227-1.841 9.197-3.2a45.163 45.163 0 0 0 4.698 9.983c-1.151.529-2.935 1.568-4.466 2.136-.206.208-3.966.988-4.682 1.172a39.097 39.097 0 0 1-4.75-10.091h.003zm5.781 11.565c.216-.107 3.606-1.882 3.923-1.882 1.779-.619 4.176-.96 5.24-1.331a28.748 28.748 0 0 0 6.08 6.504c-4.904 3.218-3.766 2.047-7.859 3.611a25.216 25.216 0 0 1-7.39-6.902h.006zm9.181 7.84a21.608 21.608 0 0 1 2.841-1.666c.16 0 4.76-1.654 4.922-1.742a16.466 16.466 0 0 0 9.134 1.92c-9.257 4.184-12.624 3.475-16.9 1.491l.003-.003zm24.694-5.782c-24.145 17.44-46.587-44.16-16.409-42.677a21.33 21.33 0 0 1 10.017 4.217c11.941 8.975 17.159 30.687 6.389 38.463l.003-.003z"/><path fill="#0F0F0F" d="M225.972 146.328c-3.258-6.216 6.51 11.408-.93 21.248-8.131 11.128-22.318-6.638-24.549-20.147-2.408-15.04 10.839-21.787 22.471-5.703 1.556 2.188 2.224 3.536 2.329 3.48a16.13 16.13 0 0 0-1.877-3.784c-8.56-13.468-20.054-11.724-23.241-4-4.338 10.048 2.649 25.6 12.688 32.936 10.918 7.976 21.305-8.369 13.109-24.032v.002z"/><path fill="#0F0F0F" d="M212.742 152.891c3.51.579 5.27-2.221 6.184-5.663a70.094 70.094 0 0 0-9.691-11.779 91.065 91.065 0 0 0-1.147 16.048c.856 1.359 3.072 1.133 4.654 1.394zm-2.544-14.135a57.266 57.266 0 0 1 7.04 8.768 8.523 8.523 0 0 1-2.066 3.464c-.755.674-1.92.381-2.907.295a15.234 15.234 0 0 1-2.635-.399 80.06 80.06 0 0 1 .568-12.128z"/><path fill="#0F0F0F" d="M209.358 155.68c.3.899 9.359 10.595 11.282 10.595.196-.024.389-.067.576-.128a13.58 13.58 0 0 0 .39-7.794c-.393-2.765-.331-3.373-.833-5.625a28.345 28.345 0 0 1-.584-3.605 11.113 11.113 0 0 0-2.175 3.222c-1.856 3.863-2.611 2.627-9.616 1.6.836 1.541.82 1.515.96 1.735zm2.368.395a10.95 10.95 0 0 0 4.706.229c3.04-.738 2.685-5.372 3.182-1.372.596 4.791 1.133 7.245.564 9.488a58.843 58.843 0 0 1-8.452-8.352v.007z"/><path fill="#FFC5F6" d="M195.102 65.627a18.355 18.355 0 0 1 3.322-1.953c7.083-2.749 11.01 3.896 7.982 6.905-2.004 1.996-7.68 2.953-13.747 5.975-.621.309-10.019 5.075-10.688 5.253a35.597 35.597 0 0 0 1.719-3.59c4.497-6.764 5.62-8.716 11.412-12.59zM170.58 78.742c.723-4.453 1.547-9.134 4.416-12.616 3.504-4.253 8.982-2.515 7.064 4.749-1.432 5.422-4.683 10.594-11.89 15.878-1.68 1.232-.605-1.776.41-8.01z"/><path fill="#0F0F0F" d="M176.604 66.528c-5.416 6.578-6.064 20.946-7.396 20.72-.671-.113.228-21.153 8.128-24.497 4.1-1.736 9.243 2.787 4.425 12.192-4.424 8.64-12.23 12.907-12.553 12.306-.306-.448 11.936-9.997 11.825-19.327-.038-3.208-2.459-3.785-4.429-1.394zm28.924-.809c-4.872-4.616-13.733 3.352-18.093 8.545-3.881 4.623-5.489 8.122-5.881 7.933-.287-.1.701-3.95 4.374-9.1 14.947-20.948 28.471-7.793 21.069-1.391a19.471 19.471 0 0 1-6.141 2.907c-8.651 3.26-18.998 8.197-19.302 7.584-.519-1.043 14.24-8.107 18.382-9.89 2.335-1.006 6.255-2.038 6.471-4.6a2.457 2.457 0 0 0-.879-1.989z"/><path fill="#92FCFF" d="M155.967 52.4s1.099-13.698-3.507-18.59c-2.4-2.546-5.499-1.783-5.331 2.524.259 6.655 3.184 3.15-6.165-2.173-3.099-1.76-9.504-4.21-11.301-1.206-1.233 2.06 1.12 6.522 2.824 7.931a45.263 45.263 0 0 0 7.872 3.898c2.832 1.064 3.975.238 10.671 4.406.843.525 4.939 3.21 4.939 3.21h-.002z"/><path fill="#0F0F0F" d="M156.69 47.292c-.139-5.34.106-9.314-2.115-12.71-3.184-4.861-9.173-3.217-8.52 1.943.042.3.106.596.192.885a19.567 19.567 0 0 0-10.328-6.669c-7.453-1.641-9.52 3.02-6.79 7.754 2.24 3.904 6.256 5.238 10.296 6.64a128.044 128.044 0 0 1 16.16 7.297c.52.21.681.207.856-.595.244-1.502.327-3.026.249-4.545zm-16.515-4.212c-3.432-1.316-7.125-2.56-8.992-5.77-.701-1.207-1.237-3.324-.218-4.142.743-.72 3.492-.48 4.522-.283 7.488 1.384 12.389 8.743 13.834 9.981.379.456.665.718.756.677.612-.277-1.987-5.264-2.064-7.2-.12-3.098 2.959-3.002 4.589-.439 1.727 2.72 1.547 5.908 2.413 11.52.344 2.24.587 3.87.816 4.621a52.727 52.727 0 0 0-15.656-8.965zm153.424 19.757s2.437 67.605 3.347 83.474l5.856-.253a1.642 1.642 0 0 1 1.41 2.589c-8.374 11.798-8.056 11.83-9.245 11.83-1.061 0-.563.191-10.488-10.949a1.643 1.643 0 0 1-.286-1.729 1.65 1.65 0 0 1 1.441-1l5.791-.25c-1.299-22.673-1.57-39.489-2.632-67.774-8.039 11.139-13.375 18.448-21.099 29.056-4.703-17.555-4.399-16.168-5.535-20.688-.288-1.143 1.093-2.44-6.965 7.158-.864 1.029-2.793 3.477-4.68 5.853-5.545-9.67-13.838-27.61-12.508-28.213.675-.305 4.836 8.008 11.219 18.56 1.974 3.266 1.664 2.776 2.121 2.06 1.042-1.63 3.756-4.8 12.901-17.085.751 2.852 2.24 8.69 2.899 11.024a185.971 185.971 0 0 0 2.805 9.062s22.608-31.826 23.648-32.725zm1.344-4.38s-.998-.682-24.195 31.803c-1.691-5.655-2.024-7.264-5.44-20.255-14.411 19.36-4.299 5.784-14.248 18.861-9.674-16.051-10.603-20.618-14.03-19.136-2.517 1.088-1.76 3.718.894 10.354a178.396 178.396 0 0 0 12.267 24.366c11.901-14.989 10.482-13.34 10.803-12.14l5.672 21.036 19.968-27.458c.829 23.341 1.151 38.612 2.24 58.351l-3.342.144a4.047 4.047 0 0 0-2.976 1.496 4.06 4.06 0 0 0 .12 5.259c14.211 15.95 11.338 16.056 23.509-1.091a4.065 4.065 0 0 0 .25-4.284 4.064 4.064 0 0 0-3.733-2.116l-3.472.15c-1.087-19.699-2.746-73.187-2.733-74.104.117-9.633-1.56-11.237-1.56-11.237h.006z"/><path fill="#FFC5F6" d="m302.795 146.057-5.856.253c-.844-14.731-3.347-83.474-3.347-83.474-.75.653-23.883 33.03-23.606 32.64-.128.178.16-.7.078-.542-.024-.032-.238.66-.281.568-3.455-11.584-2.56-8.704-5.543-20.024-11.952 16.064-11.336 14.622-13.28 17.68-1.952-2.278-12.23-21.542-12.96-21.22-1.041.46 4.651 13.098 5.709 15.329 2.285 4.841 4.16 8.285 6.8 12.885 3.315-4.18 10.24-12.624 11.512-13.876.395 2.503 3.718 14.272 5.667 21.552 7.773-10.673 12.907-17.707 21.099-29.056 1.1 29.44 1.348 45.359 2.632 67.775l-5.79.249a1.641 1.641 0 0 0-1.155 2.73l9.264 10.4a1.65 1.65 0 0 0 2.016.344c.216-.12.401-.286.544-.486l7.905-11.14a1.637 1.637 0 0 0 .103-1.732 1.633 1.633 0 0 0-1.511-.855z"/><path fill="#0F0F0F" d="M68.25 48.032c1.346 0 1.094.232 8.14 12.96a1.63 1.63 0 0 1-1.718 2.4l-5.428-.992c-1.6 5.728-3.05 17.317-4.356 23.117-2.321 10.312-3.36 16.867-4.69 24.576-6.449-6.4-4.96-4.906-6.88-6.912-9.01-9.413-11.318-14.377-11.56-14.134.058-1.325-.343 5.892-1.406 16.072-.787 7.547-4.77 36.116-5.516 43.22-1.192 11.36-1.695 17.98-3.274 17.98-1.792 0 2.738-36.604 5.66-94.88 5.831 9.587 10.62 17.99 19.383 27.235.034-.18 6.679-35.328 7.211-37.255l-5.953-1.075a1.632 1.632 0 0 1-.8-2.82c10.893-9.79 10.317-9.492 11.187-9.492zm-2.693-1.372c-10.331 9.28-12.21 9.956-11.294 13.182.845 2.974 3.561 2.94 6.605 3.491-1.192 5.42.278-.358-5.725 30.112-7.375-8.598-10.215-13.953-19.944-29.936-4.76 94.979-9.663 105.216-3.65 105.216 4.061 0 4.135-5.462 5.666-20.131 1.537-14.72 4.819-33.495 6.429-52.933 5.878 7.566 10.768 12.086 18.13 19.397 2.08-12.074 9.217-49.725 9.252-49.888a25.09 25.09 0 0 0 3.942.64 4.04 4.04 0 0 0 3.52-5.992c-6.916-12.493-7.09-14.197-10.24-14.197a4 4 0 0 0-2.69 1.038z"/><path fill="#92FCFF" d="m76.39 60.989-6.71-12.116a1.634 1.634 0 0 0-2.518-.424l-10.106 9.076a1.632 1.632 0 0 0 .8 2.82l5.954 1.075c-1.571 5.655-2.995 17.168-4.283 22.9-3.312 14.72-2.7 14.61-3.056 14.227-9.218-9.907-12.335-15.728-19.256-27.107-2.975 59.408-7.466 94.88-5.66 94.88 1.581 0 2.08-6.626 3.274-17.979.747-7.104 4.725-35.68 5.517-43.221 1.173-11.303 1.342-16.402 1.44-16.05-.118-.16 3.43 6.144 18.418 21.024 2.622-15.216 8.502-45.763 9.04-47.696l5.428.984a1.632 1.632 0 0 0 1.719-2.393z"/><path fill="#FDFE1F" d="M137.384 144.142c10.643-12.462.227-40.622-16.229-45.262-7.704-2.173-13.932.374-23.254 4.8-15.493 7.347-6.96 46.4 14.693 49.92 1.44.317 2.931.334 4.379.048 5.36-.995 16.144-5.168 20.411-9.506z"/><path fill="#0F0F0F" d="M116.126 97c-5.066-.173-11.312 2.56-16.011 4.625-3.771 1.744-6.749 2.634-9.075 7.965-6.91 17.384 4.873 43.474 22.918 45.197 5.413.64 17.157-4.627 22.379-8.342 14.847-10.567 2.138-49.354-20.211-49.445zm-9.531 4.395a16.16 16.16 0 0 0-5.32 9.92c-3.661 1.635-3.221 2.322-9.232 3.23 1.7-8.384 5.397-9.577 14.552-13.15zm-14.87 15.085c1.16-.443 4.463-1.951 4.739-1.951 1.428-.444 3.222-.782 4.532-1.108a35.36 35.36 0 0 0 .948 10.88c-4.56 1.824-2.728 2.16-9.799 3.182a32.88 32.88 0 0 1-.42-11.003zm.82 12.728c8.535-3.383 5.44-1.672 9.896-2.994a47.893 47.893 0 0 0 4.547 10.795c-.532.22-4.468 2.08-4.832 2.08-1.6.49-3.696.757-5.017 1.039a41.488 41.488 0 0 1-4.594-10.915v-.005zm5.626 12.523c.16-.072 3.883-1.826 4.245-1.826 1.92-.579 4.48-.836 5.616-1.184a30.5 30.5 0 0 0 6.176 7.167c-5.34 3.2-4.096 2.009-8.496 3.488a26.837 26.837 0 0 1-7.541-7.64v-.005zm9.398 8.72a23.088 23.088 0 0 1 3.087-1.642c.16 0 5.11-1.542 5.296-1.633a17.614 17.614 0 0 0 9.6 2.432c-9.956 4.024-13.504 3.145-17.984.848v-.005h.001zm26.448-5.054c-26.379 17.44-47.504-48.88-15.542-45.992a22.659 22.659 0 0 1 10.441 4.915c12.28 10.041 16.869 33.304 5.103 41.081v-.004h-.002z"/><path fill="#0F0F0F" d="M134.559 118.323c-3.174-6.72 6.4 12.398-1.92 22.501-12.434 15.635-34.786-26.24-21.056-36.122a10.651 10.651 0 0 1 11.68.117c8.208 5.379 10.072 12.536 10.624 12.286.48-.217-6.816-16.729-18.432-15.19-14.856 1.958-11.437 28.926 4.147 41.337 11.311 8.994 22.944-8.011 14.957-24.929z"/><path fill="#0F0F0F" d="M124.582 121.722c-.835-.429-.819-.192-.431-.573a6.223 6.223 0 0 0-3.403-10.416c-.208-2.08-1.573-3.306-1.933-3.054-.36.251 0 1.339.344 2.624.141.508.304.124-1.968.342-.7-3.549-2.4-3.294-1.467.213a13.98 13.98 0 0 0-1.726.8c.651 2.576 2.848 7.971 3.989 12.371 0 .16 2.276 10.653 3.084 12.768 1.64-.606 1.316-.514 1.634-.52.568 2.686 3.099 4.309 1.499-.083a9.796 9.796 0 0 0 2.195-.463c1.141 4.16 2.576 2.613 1.346-.614 5.235-3.117 1.694-10.762-3.163-13.395zm-7.215-8.343c2.98-.905 5.432-1.099 6.836 1.708a3.522 3.522 0 0 1-1.461 4.427 12.485 12.485 0 0 1-4.131 1.232c-.49-2.571-.882-5.264-1.244-7.367zm5.485 19.975a70.336 70.336 0 0 1-3.52-9.295 8.29 8.29 0 0 1 4.424-.34c5.221 1.617 8.789 10.529-.904 9.635z"/><path fill="#fff" d="M241.67 271.283c25.13 2.88 32.56-4.35 40.653-17.237 3.937-6.268 3.169-16.1 2.211-23.278-2.605-19.483-17.949-29.931-34.56-31.894-14.427-1.703-29.557-1.12-42.754-7.2-8.96-4.125-17.704-11.372-27.379-9.469-4 .785-12.225 5.288-13.267 8.909a9.58 9.58 0 0 0 .64 5.816c.741 1.28 1.466 1.627 8.549 6.529 3.934 2.72 2.629 3.952 1.681 6.069-1.185 2.651-1.536 8.395.879 13.954 1.107 2.552 2.781 4.742 4.115 7.158 4.01 7.254 7.36 7.725 15.573 11.158.84.351 1.033.608 1.013 1.693-.349 18.976 23.828 25.629 42.646 27.792z"/><path fill="#0F0F0F" d="M285.581 246.738c-1.503-.686-7.028 17.938-22.117 21.979-11.904 3.307-28.146-.617-40.367-3.68-11.657-3.225-22.656-8.757-22.369-20.79 18.8 2.696 29.702 4.997 29.92 4.109.125-.503-4.043-2.09-10.992-3.951-15.73-4.193-21.563-3.545-26.693-6.189-7.48-3.793-17.76-19.419-13.202-29.083 14.786 9.979 15.284 11.546 30.448 13.216 1.572.16 26.54 3.261 26.708 2.024.172-1.28-23.908-5.203-26.255-5.542-14.915-2.199-13.422-2.53-33.76-16.269-6.352-4.293-12.776-7.63-6.72-13.547 5.023-5.08 11.562-5.535 18.451-3.435 10.149 3.086 18.949 11.643 51 13.692 7.978.48 12.917.093 12.935-.409.041-1.045-14.856-1.861-34.229-6.344-17.568-4.211-16.84-6.994-28.587-10.624-8.202-2.498-16.16-1.76-22.303 4.408-5.024 4.997-5.219 10.901 2.738 16.368 5.44 3.736 3.957 2.678 6.355 4.296-6.232 11.849 5.424 29.981 14.666 34.683a23.515 23.515 0 0 0 6.147 2.038c-1.331 19.344 20.726 24.901 39.634 28.346 18.427 3.253 33.5 2.43 43.36-13.454 3.193-5.1 5.659-11.652 5.232-11.842z"/><path fill="#FFC5F6" d="M164.341 178.635c10.547-25.253 11.08-25.839 12.31-26.48 1.698-.884 3.867.48 4.547 2.265 1.516 3.984-2.736 13.539-3.472 24.767-.48 7.339-2.4 14.758-2.39 22.059.051 21.174-4.64 25.653 2.706 78.693 1.008 7.275-11.532 7.84-16.623 8.296-6.869.625-14.272.033-20.32-3.551-3.763-2.222 14.269-84.561 23.242-106.049z"/><path fill="#FDFE1F" d="M150.854 250.379c.107 2.382 2.848 6.731 6.286 6.868 3.293.132 10.687-4.262 13.693-11.784 1.227-3.07.981-6.156-3.923-8.64-7.28-3.692-16.288 8.456-16.056 13.556z"/><path fill="#0F0F0F" d="M176.032 219.187c-1.36 40.867 3.242 63.176 2.099 63.369-.544.091-2.196-9.381-2.382-10.653-8.306-57.059 4.256-116.284 5.982-115.9.868.193-4.435 25.251-5.699 63.184zm-22.022-2.307c-10.439 39.294-12.547 67.219-13.6 67.125-.835-.076 1.033-17.8 1.317-20.127 7.936-65.339 33.28-112.35 34.611-111.656 1.008.53-10.08 18.551-22.328 64.658z"/><path fill="#0F0F0F" d="M172.13 242.174c-.208-3.17-3.04-5.341-5.945-6.694-6.823-3.076-17.421 10.4-15.756 16.105a11.162 11.162 0 0 0 3.672 5.227 5.161 5.161 0 0 0 2.224.96c6.645 1.359 16.303-9.014 15.805-15.598zm-2.275 3.226c-2.272-1.12-2.04-1.44-3.624-3.24a5.734 5.734 0 0 0 .107-4.73c3.443 1.944 4.912 4.218 3.517 7.97zm-10.597-7c4.739-3.248 7.347-1.44 6.4 2.201-.899 3.853-6.093 8.979-8.8 10.08-9.264 3.634-4.275-7.685 2.4-12.281zm-4.185 17.03a10.204 10.204 0 0 1-2.845-3.373c1.278.41 2.652.41 3.929 0 .311.384 1.938 1.704 1.938 1.893.403.642.758 1.314 1.061 2.008a4.868 4.868 0 0 1-4.083-.533v.005zm5.459.014c-.285-.345-1.92-1.691-1.92-1.88a15.683 15.683 0 0 1-1.066-2.019 13.354 13.354 0 0 0 3.927-2.856c1.804 1.477 1.66.664 3.612 3.474a17.586 17.586 0 0 1-4.553 3.277v.004zm5.421-4.177c-2.88-1.995-1.808-1.592-3.476-3.605a19.72 19.72 0 0 0 3.149-4.173 12.637 12.637 0 0 1 3.765 2.987 21.845 21.845 0 0 1-3.438 4.786v.005z"/><path fill="#FDFE1F" d="M163.775 217.87c1.717 2.381 2.138 3.903.771 6.315a3.416 3.416 0 0 1-4.774 1.69c-13.853-5.03-4.768-20.162 4.003-8.005z"/><path fill="#0F0F0F" d="M165.562 220c-1.043-2.581-4.347-6.387-7.435-7.2a4.951 4.951 0 0 0-4.948 1.84c-4.401 4.499 4.541 13.08 9.228 11.939a5.31 5.31 0 0 0 3.155-6.579zm-5.723-5.418c2.56 1.549 5.227 4.8 5.107 7.282-1.397 2.456-7.936-2.011-9.024-5.664-.666-2.042.64-3.571 3.917-1.618zm-4.461-.334a3.612 3.612 0 0 0 .246 2.95c-.912 1.17-.768 1.376-2.144 2.163-1.024-2.313-.155-3.787 1.898-5.113zm-1.565 5.76a7.884 7.884 0 0 1 2.24-2.011c.596.92 1.311 1.757 2.126 2.489-.886 1.213-.32 1.037-2.033 2.386a13.644 13.644 0 0 1-2.333-2.858v-.006zm2.91 3.39c1.12-1.838 1.047-1.309 2.125-2.309a8.386 8.386 0 0 0 2.56 1.637c-1.086 2.491-.854 1.362-1.721 2.551a11.09 11.09 0 0 1-2.964-1.872v-.007zm7.148.842a2.965 2.965 0 0 1-3.303 1.305c1.04-2.4 1.011-1.548 1.725-2.56a4.06 4.06 0 0 0 2.456-.145 4.063 4.063 0 0 1-.878 1.406v-.006z"/><path fill="#FDFE1F" d="M166.033 202.992c4.298 1.421 9.8-6.28 8.709-9.803a5.547 5.547 0 0 0-5.016-3.314c-2.055.134-5.245 3.01-6.4 7.138a4.724 4.724 0 0 0 2.707 5.979z"/><path fill="#0F0F0F" d="M175.133 193.046a5.364 5.364 0 0 0-4.115-3.503c-3.621-1.059-7.586 4.874-8.267 8.541a4.346 4.346 0 0 0 1.731 4.418c4.931 4.537 11.579-5.125 10.651-9.456zm-1.089 2.118c-1.532-.507-1.429-.765-2.439-1.632a3.459 3.459 0 0 0-.333-2.837c2.226.876 3.287 2.104 2.772 4.469zm-9.224-.409c3.2-5.28 6.676-5.269 6.313-2.109-.555 6.15-11.19 12.257-6.313 2.109zm2.24 7.904a4.739 4.739 0 0 1-2.997-2.039c.798.138 1.62.022 2.349-.331 1.027.96.62-.062 2.12 2.08a3.637 3.637 0 0 1-1.471.29h-.001zm2.251-.709c-1.28-1.178-.533.171-2.117-2.08a7.905 7.905 0 0 0 2.069-1.984c.085-.109 1.429.689 1.542.776.343.288.659.605.949.945a10.652 10.652 0 0 1-2.442 2.343h-.001zm2.889-2.952c-1.865-.946-1.31-.885-2.379-1.864a11.91 11.91 0 0 0 1.533-2.76c.413.2 1 .421 1.432.68.37.245.726.509 1.069.792a13.19 13.19 0 0 1-1.653 3.152h-.002z"/><path fill="#fff" d="M36.657 204.724a14.558 14.558 0 0 0 10.997 10.193c7.587 1.28 14.337-4.358 21.204-7.827 13.245-6.691 23.21-4.885 32.887-19.746 19.075-29.292 3.272-49.476-8.075-46.502-4.853 1.28-6.896 5.6-9.488 9.331-14.519 20.904-54.15 32.76-47.525 54.551zm85.852 4.826c-15.559 6.656-15.095 6.56-16.093 6.647-2.026.187-8.358-2.317-14.544-.927-9.018 2.028-12.096 11.338-4.437 17.772a32.313 32.313 0 0 0 9.78 4.96c-16.617 15.26-5.785 32.569 8.649 25.864 8.693-4.039 3.698-3.695 21.088-7.85 7.584-1.811 13.829-5.12 14.72-13.406.848-7.84-4.584-10.866-4.192-12.62.274-1.232 4.245-4.96 4.672-9.44.453-4.785-3.722-13.6-12.352-18.377-1.92-1.061-4.622-2.858-6.49-1.071-2.054 1.973-2 6.112-.8 8.448h-.001z"/><path fill="#0F0F0F" d="M139.259 230.229c9.365-8.072 5.221-25.827-14.459-31.374-5.1-1.386-11.904-1.674-11.959-.903-.094 1.263 19.378 2.389 25.631 14.999 2.44 4.819 2.56 11.04-1.692 14.337-4.104 3.68-10.72 5.213-17.6 8.221-7.758 3.398-8.182 2.938-13.379 1.963-11.76-2.208-26.854-8.304-18.971-17.155 5.498-6.344 15.101-3.453 19.36-2.88a10.365 10.365 0 0 0 6.464-1.808c13.851-7.235 13.512-8.421-1.144-2.47-5.92 2.355-3.587.688-11.592-.36-17.04-2.24-27.546 14.924-9.694 23.785 7.388 3.634 5.156-.32.16 7.874-7.988 13.486.672 28.328 16.388 21.201 5.05-2.272 9.164-5.777 20.778-8.432 8.421-2.102 14.678-4.96 15.718-13.652a17.763 17.763 0 0 0-4.009-13.346zm-1.328 17.974c-2.48 3.242-7.223 4.429-11.255 5.375-11.984 2.56-16.784 6.464-21.472 8.595-14.782 6.83-19.968-10.589-7.179-22.624 13.496 3.954 15.2 2.688 24.976-1.499 2.501-1.072 9.581-3.147 14.128-6.191 3.467 4.408 4.336 11.741.8 16.344h.002zm-26.212-95.678c-3.28-12.8-17.614-20.032-27.343-6.788-3.84 5.22-3.783 6.906-12.27 14.335-20.772 18.123-50.3 30.009-44.294 63.328 1.883 10.334 7.38 20.947 7.816 20.745.597-.262-4.16-9.92-5.69-21.081-4.29-31.696 22.452-41.039 44.64-60.146 12.375-10.705 11.498-15.48 17.04-19.081 6.444-4.084 17.557 1.289 17.257 17.264-.253 10.312-3.559 18.094-9.528 26.457a33.893 33.893 0 0 1-16.272 13.002c-5.143 2.014-8.6 2.768-8.514 3.302.067.413 3.654.549 9.304-.96 19.984-5.641 32.342-32.731 27.854-50.377z"/></svg>