<svg xmlns="http://www.w3.org/2000/svg" width="320" height="320" fill="none"><path fill="#fff" d="M261.726 270.122c6.551-48.333 11.066-92.586 12.533-101.099 1.76-10.191 3.136-20.468-5.928-26.581-13.787-9.29-66.777-2.666-125.28-13.467-41.886-7.733-61.822-21.668-76.16-11.712-5.795 4.025-7.6 9.545-8.51 16.479-.021.16-7.181 87.871-7.23 121.314 0 11.68-.22 24.16 10.649 26.917a254.664 254.664 0 0 0 40.248 2.576c9.176-.136 11.048-.533 19.84-.291.16 0 32.8 1.456 32.96 1.485 18.24 3.244 22.829 9.374 63.235 19.68 7.503 1.92 20.099 6.369 26.967 4.849 12.593-2.79 14.702-25.592 16.676-40.15z"/><path fill="#0F0F0F" d="m51.59 272.381 2.696-.762c-4.25-15.731 4.504-103.606 6.138-126.416.822-11.496.594-23.638 11.88-27.23 11.554-3.68 26.43 3.36 45.6 8.545C177.181 142.56 244.8 138.123 260.8 142.72c9.6 2.758 12.234 8.992 11.158 18.963-.67 6.24.253-4.629-5.12 40.423-12.195 102.171-9.616 110.56-36.468 103.579-55.808-14.49-46.789-15.002-65.938-20.501a47.785 47.785 0 0 0-11.139-2.176c-10.501-.05-21.013-1.006-31.349-1.214-9.76-.197-12.736.305-19.933.438-16.224.296-37.465-1.406-40.725-2.424-3.85-1.202-5.873-4.33-6.992-8.189l-2.696.762c1.636 5.848 5.04 9.91 11.152 10.762a258.6 258.6 0 0 0 49.168 2.092c14.132-.47 26.24 1.253 42.546 1.44 18.414 3.275 22.781 9.559 63.378 19.703 8.836 2.208 23.072 7.961 30.865 3.555 11.818-6.68 13.141-33.269 15.898-54.927.022-.179 12.187-96.368 11.805-100.176-1.453-14.416-13.96-17.497-28.431-18.2-53.971-2.619-93.317-2.896-140.737-17.44-14.164-4.356-29.962-10.816-41.91-2.022-9.47 6.971-8.063 19.976-9.503 38.8-1.336 17.453-8.754 100.24-4.239 116.413z"/><path fill="#FDFE1F" d="M73.792 102.496c3.335 4.24 6.519 5.789 13.76 8.778 4.882 2.037 16.906 6.093 22.135 5.376 32.884-4.517 44.526-54.495 26.324-67.189-2.598-1.811-13.723-5.57-15.785-6.22-5.719-1.8-10.895-3.04-16.738-2.118-29.497 4.679-42.473 45.117-29.696 61.373z"/><path fill="#0F0F0F" d="M144.775 62.856c-2.824-13.792-10.205-15.502-16.815-17.952-6.84-2.526-15.445-5.632-22.739-4.984-32.26 3.789-46.032 48.352-30.947 64.594 4.185 5.373 20.69 10.841 27.849 12.373 25.93 5.545 47.808-27.594 42.652-54.03zm-11.626-.15c4.272.305 3.702.137 8.531 2.224a41.085 41.085 0 0 1-.421 14.859c-7.115-.462-5.614-1.28-9.809-2.56a44.19 44.19 0 0 0 1.699-14.523zm8.05-.291c-5.08-.32-4.72-.96-8.343-2.372A22.493 22.493 0 0 0 127.68 48.3c5.058 1.932 10.962 3.124 13.519 14.116zm-64.783 40.081c-13.109-13.721-3.136-50.3 22.424-58.197 8.224-2.756 15.111-1.008 23.989 2.184 15.227 10.677 7.032 37.636-4.91 52.272-6.93 8.37-14.56 12.648-25.28 12.136-3.96-1.366-13.655-5.086-16.223-8.396v.001zm21.512 10.032a29.214 29.214 0 0 0 12.184-3.96c3.184.936 4.432.087 9.17 2.757-8.357 4.256-13.397 3.37-21.354 1.202v.001zm23.96-2.688c-4.769-1.155-4.099-.246-9.221-3.024a47.07 47.07 0 0 0 9.719-10.4c-.131.549 3.51.363 6.174 1.043a31.005 31.005 0 0 1 4.208 1.73 38.76 38.76 0 0 1-10.88 10.651zm12.333-12.841c-7.566-.988-3.922-.122-10.366-2.784a64.272 64.272 0 0 0 6.804-14.348c4.231.8 3.33-.692 10.072 2.17a54.882 54.882 0 0 1-6.51 14.962z"/><path fill="#0F0F0F" d="M89.509 105.819c21.946 4.876 45.712-33.81 32.115-53.29-6.229-8.995-25.125-9.329-38.104 9.9a23.33 23.33 0 0 0-3.073 5.789c.548.299 4.707-9.778 16.74-16.882 7.37-4.246 18.492-4.19 22.797 2.354 8.33 12.237.53 32.334-10.4 42.934-17.648 17.176-38.739 3.632-31.377-21.98 1.072-3.604 3.36-8.767 1.164-4.72-7.68 14.113-4.153 32.974 10.138 35.895z"/><path fill="#0F0F0F" d="M102.53 78.896c2.56.066 5.715 1.064 7.32-.81 2.125-12.234 2.705-15.793 2.569-24.161-11.916 8.834-10.156 7.638-17.505 14.77A15.736 15.736 0 0 0 97.62 76.8a6.135 6.135 0 0 0 4.909 2.096zm7.566-20.336c-.118 4.075-.48 7.058-2.4 18.256a23.01 23.01 0 0 1-3.982-.172c-1.503-.16-3.287-.055-4.229-1.28a13.214 13.214 0 0 1-2.134-5.764 85.13 85.13 0 0 1 12.745-11.04z"/><path fill="#0F0F0F" d="m93.858 73.549-1.31-2.43c-4.16 13.017-7.375 18.745-6.23 24.441.26.893.057.685.836.96 2.168.783 16.369-9.081 19.651-12.513.354-.37.402-.453 1.867-2.284-2.901-.135-3.478-.185-5.531-.148-9.7.174-6.595-3.03-9.283-8.026zm7.542 10.373c2.989.1 2.911-.856-2.39 3.422a113.934 113.934 0 0 1-10.549 6.59 23.824 23.824 0 0 1 1.728-8.702c1.2-3.635 1.44-5.003 2.56-7.68 1.213 4.444 2.482 6.154 8.651 6.37z"/><path fill="#FDFE1F" d="M231.694 56.187c8.332-11.902 4.927-16.777 2.4-21.18-3.588-6.24-7.262-12.836-13.536-15.727-23.064-10.624-61.08 15.04-60.98 34.267.48 6.917 8.5 20.197 13.705 24.015 11.563 8.488 42.68.868 58.411-21.375z"/><path fill="#0F0F0F" d="M237.885 41.816a16.962 16.962 0 0 0-2.951-7.302c-3.385-5.882-7.68-13.47-13.984-16.103C198.4 7.567 156.054 33.87 158.794 55.38c.64 4.983 6.003 14.525 11.04 20.239 5.315 6.07 14.18 7.105 22.14 6.04 25.236-3.71 47.151-26.754 45.911-39.842zm-18.088-20.921c4.374 1.892 7.715 6.787 10.177 10.899 4.333 20.553-44.419 49.427-63.492 34.349a51.286 51.286 0 0 1-4.668-9.743c-5.803-17.99 35.346-46.8 57.983-35.505zm-51.069 48.64a23.907 23.907 0 0 0 11.541 3.064c1.813 2.45 2.808 2.24 4.27 6.324-9.267-.523-12.43-4.683-15.811-9.387v-.001zm18.221 9.44c-2.546-3.2-2.52-2.36-4.103-6.47a52.803 52.803 0 0 0 13.615-3.217c1.782 2.272 2.577 1.255 5.192 6.626a42.983 42.983 0 0 1-14.704 3.059v.002zm16.809-3.898a32.359 32.359 0 0 1-2.923-2.918 33.141 33.141 0 0 1-2.041-3.775 81.78 81.78 0 0 0 14.422-7.717c2.762 2.919 2.674 1.338 5.178 6.07a69.942 69.942 0 0 1-14.636 8.338v.002zm16.229-9.573c-3.971-3.36-2.488-2.803-4.75-6.254a55.52 55.52 0 0 0 11.013-10.293 11.395 11.395 0 0 1 4.16 5.41 51.435 51.435 0 0 1-10.423 11.136v.001zm11.6-12.96c-2.816-2.382-2.229-2.309-3.96-5.456a21.878 21.878 0 0 0 4.32-11.88c2.642 4.682 5.373 7.877-.36 17.338v-.002z"/><path fill="#0F0F0F" d="M166.168 57.618a11.985 11.985 0 0 0 7.658 7.1c22.494 7.948 66.334-24.934 46.273-39.166C208.331 17.33 186.56 28 186.88 28.655c.234.48 9.07-4.784 21.875-4.84 7.645 0 12.615 3.84 14.144 7.57 2.285 5.36-3.105 13.428-7.624 17.72a61.231 61.231 0 0 1-26.955 14.108c-17.986 3.96-26.218-6.454-18.214-19.406 6.595-10.44 16.771-14.479 16.489-15.008-.526-1.05-25.936 13.441-20.427 28.819z"/><path fill="#0F0F0F" d="M182.279 41.691c-3.488-4.518-2.829-3.84 7.188-5.499 27.645-4.565 15.81-2.709 18.844-3.113 1.412-.188 2.004.537 1.315 1.686-5.41 8.989-2.779 7.056-19.291 9.685-5.733.912-5.298.816-8.056-2.759zm6.961 9.016c-.64-.894-.082-1.824 1.266-2.08 14.059-2.59 11.944-2.08 7.299 5.487-1.242 2.02-1.33 2.179-1.463 2.36-.692.933-1.784 1.081-2.4.307-.262-.32-4.513-5.81-4.702-6.074z"/><path fill="#FDFE1F" d="M241.683 69.549c-3.52 1.745-12.768 8.429-14.267 11.605-7.088 15.008 17.13 49.92 38.318 48 6.064-.549 16.892-9.45 19.632-14.413 9.157-16.576-23.248-55.306-43.683-45.192z"/><path fill="#0F0F0F" d="M286.453 100.28c-5.367-16.34-22.749-34.697-39.227-33.235-5.866.208-11.624 5.026-16.106 8.714a14.359 14.359 0 0 0-4.579 4.977c-4.903 10.038 5.566 35.226 24.851 45.901 10.757 5.781 19.616 5.309 31.79-7.48 4.324-4.541 6.135-9.752 3.271-18.877zm-57.6-18.424a12.51 12.51 0 0 1 3.88-4.152c2.286-1.92-1.92.253.454 10.371-2.32 1.99-1.846 2.128-4.832 3.19-.555-2.986-.824-6.687.501-9.407h-.003v-.002zm-.106 11.226a9.973 9.973 0 0 1 4.983-3.088 47.532 47.532 0 0 0 5.74 11.6c-2.576 1.88-1.46 2.08-5.71 3.59a44.17 44.17 0 0 1-5.01-12.102h-.003zm5.92 13.576c3.392-2.997 3.349-2.021 5.995-3.312a70.137 70.137 0 0 0 9.258 10.56c-3.315 2.923-1.92 2.117-6.013 3.877a59.94 59.94 0 0 1-9.235-11.125h-.005zm10.679 12.435c3.913-3.701 3.601-2.192 6.177-3.754a45.345 45.345 0 0 0 9.967 6.701c-2.541 2.848-2.253 2.157-5.253 3.959a36.99 36.99 0 0 1-10.887-6.906h-.004zm12.841 7.597c2.416-2.856 3.075-2.327 5.347-3.792 3.26 1.2 6.77 1.552 10.204 1.025-4.338 2.896-7.978 5.112-15.546 2.768h-.005v-.001zm27.082-15.84c-.779 4.453-5.12 8.224-8.701 11.027-19.715 6.306-50.411-31.5-40.64-46.803 3.216-2.56 7.382-5.48 11.472-5.68 19.32-2 40.616 25.78 37.88 41.454l-.011.003v-.001z"/><path fill="#0F0F0F" d="M275.282 89.643a24.264 24.264 0 0 0-3.584-3.86c-.346.308 6.601 6.806 8.715 17.046 2.536 12.92-7.327 18.661-20.506 10.09a52.536 52.536 0 0 1-17.4-19.488c-2.304-4.757-4.233-12.922-.769-16.548 2.385-2.56 7.556-4.105 13.654-1.808 10.936 4.168 15.662 10.928 16.118 10.504.456-.424-13.692-15.616-25.76-12.536-20.468 5.383 4.882 45.056 25.348 45.469 10.396.279 16.648-12.384 4.184-28.869z"/><path fill="#0F0F0F" d="M264.871 96.81c-5.308 5.419-4.817 5.213-5.628 4.973-6.037-1.783-5.92-1.591-6.168-2-.248-.413-.84.497 9.655-10.288.392-.404.39-.245 6.496 1.504.461.13.827.516.499.85l-4.854 4.96zm-14.692.134c-.403-.224-.177.04-2.14-6.144-.269-.848-.336-.464 4.52-5.392 1.224-1.243 5.12-5.304 5.28-5.328.8-.131.547-.102 2.539 6.15.267.84.32.413-4.903 5.751-.169-.158-4.755 5.264-5.296 4.963zm17.247 2.256 4.827-4.93c.278-.3.681.03.814.461 1.92 6.223 2.032 6.138 1.683 6.493-10.595 10.742-9.734 10.08-10.108 9.877-.404-.224-.188.054-2.165-6.231-.232-.736-.392-.275 4.918-5.7l.031.03z"/><path fill="#FDFE1F" d="M92.613 195.795c5.776 3.124 26.918 7.448 34.513 5.463 32.133-8.403 37.6-62.071 17.292-73.28-2.88-1.584-4.874-1.815-10.271-2.88-8.459-1.68-17.521-3.36-25.329-.96-30.848 9.413-38.39 59.657-16.205 71.657z"/><path fill="#0F0F0F" d="M138.411 124.934c-12.849-2.55-24.243-5.478-35.608.64-25.715 13.154-31.315 55.372-13.985 68.914 5.512 5.141 26.649 8.65 35.097 8.224 34.021-1.733 47.704-71.032 14.496-77.776v-.002zm15.412 32.976c-7.373.695-6.096-.404-10.543-1.02a46.78 46.78 0 0 0-.64-15.26c5.179-.456 4.36-.336 9.165.882a42.912 42.912 0 0 1 2.018 15.398zM150.88 140c-5.297.512-4.702-.144-8.997-1.066a23.46 23.46 0 0 0-7.278-11.254c5.458 1.133 11.795 1.315 16.275 12.32zm-60.192 52.054c-15.817-12-11.52-51.387 13.506-63.736 8.088-4.236 15.566-3.518 25.11-1.716 17.52 8.518 13.419 37.76 3.578 54.72-5.687 9.652-12.746 15.393-24.072 16.702-4.29-.744-14.92-2.984-18.117-5.973l-.005.003zm23.84 6.791a30.557 30.557 0 0 0 11.912-6.099c3.669.468 4.498-.684 9.92 1.328-8 5.814-13.713 5.636-21.819 4.768l-.013.003zm24.269-6.735c-5.074-.398-4.269.424-10.011-1.6a56.763 56.763 0 0 0 8.288-12.144c1.133.117 1.245-.14 6.56-.14 1.566.252 3.112.616 4.625 1.089a40.455 40.455 0 0 1-9.449 12.792l-.013.003zm10.598-15.284c-7.955.227-4.232.48-11.153-1.16a67.286 67.286 0 0 0 4.64-15.92c3.933.105 3.646-1.191 10.747.571a57.366 57.366 0 0 1-4.221 16.505l-.013.004z"/><path fill="#0F0F0F" d="M119.583 188.334c14.908-15.595 21.904-41.968 9.6-55.321-7.925-8.675-27.288-5.984-37.095 16.493a24.803 24.803 0 0 0-2.06 6.515c.601.201 3.055-11.019 13.975-20.469 8.096-6.854 22.24-8.656 27.54 5.288 4.444 11.779-.439 28.261-8.48 39.637-4.5 6.249-9.679 12.678-17.983 11.805-12.715-1.34-17.6-15.97-16.187-29.248.504-4.308 1.224-6.632 1.029-6.688-.447-.132-5.11 12.608-.303 25.139 5.055 13.048 19.591 17.645 29.964 6.849z"/><path fill="#fff" d="M120.213 53.206A15.402 15.402 0 0 0 130.954 40c.072-.895.14-1.944.892-2.435 3.52 9.897 5.469 9.888 14.455 12.912-1.931 2.3-7.099-.218-12.493 15.904-3.814-12.5-10.491-11.242-13.595-13.175z"/><path fill="#0F0F0F" d="M141.422 48.15c-3.268-1.25-6.07-3.36-7.94-8.64-1.12-3.224-1.677-6.057-2.148-5.995-.468.016-.609 2.971-1.238 6.464-2.205 12.64-12.195 12.243-11.962 13.536-.016 1.04 10.068.016 13.868 10.533 1.182 3.2 1.659 5.982 2.126 5.931 1.52 0-.752-12.912 11.55-18.4 3.002-1.349 2.032-1.136-4.256-3.429zm-.364 4.308a20.803 20.803 0 0 0-7.188 12.23c-1.6-5.654-6.025-10.56-11.84-11.494 3.988-1.228 8.242-5.408 9.616-12.933.204-1.128.04-1.091.341-.224 2.013 5.686 5.167 8.18 8.863 9.589 5.881 2.13 4.398-.327.208 2.832z"/><path fill="#fff" d="M219.592 17.983c.56-2.026.998-4.085 1.312-6.164.8.458.517 1.947 2.413 5.015 2.896 4.683 5.72 3.748 8.697 5.457-6.913 3.104-6.227 4.83-9.107 11.746-.104.248-.264.206-.379 0-.901-1.683-.539-4.718-4.678-7.462-3.556-2.357-5.46-1.6-4.748-2.634.338-.49 4.896-1.618 6.49-5.958z"/><path fill="#0F0F0F" d="M228.442 20.48a9.605 9.605 0 0 1-5.984-6.512c-.86-2.464-1.224-4.518-1.565-4.512-1.021.02.48 8.91-5.578 12.816-2.201 1.512-4.445 1.823-4.32 2.199.112.843 7.536-.177 10.443 7.868.89 2.412 1.224 4.49 1.549 4.464.725-.056.235-7.921 5.885-12.23 4-3.015 6.757-1.482-.43-4.093zm-5.639 12.571a12.082 12.082 0 0 0-6.933-8.232c-2.969-1.219-2.694.207.045-1.636a13.035 13.035 0 0 0 5.296-9.544 11.232 11.232 0 0 0 9.92 8.655c-4.411 1.108-7.563 6.337-8.328 10.75v.007z"/><path fill="#FDFE1F" d="M217.76 209.563c21.496 11.41 53.371-18.749 41.301-47.395-3.661-8.69-20.454-21.405-23.086-22.997-19.536-11.865-56.96 18.938-42.781 48.669 2.981 6.24 18.544 18.523 24.566 21.723z"/><path fill="#0F0F0F" d="M261.21 165.061c-3.36-9.234-7.589-13.2-18.516-22.003-4.228-3.28-7.128-6.605-14.24-7.264-22.02-1.672-47.923 25.502-36.56 51.542 3.392 7.443 16.212 17.198 23.071 21.712 23.435 14.539 55.336-16.126 46.245-43.987zm-21.29-20.231a23.044 23.044 0 0 0-12.09.621c-3.052-2.422-3.444-1.715-6.451-5.92 10.219-2.219 14.392 2.005 18.541 5.299zm-21.035-4.64c4 2.911 3.51 2.128 6.458 6.176a37.132 37.132 0 0 0-11.002 7.296c-2.76-2.595-3.19-1.233-7.464-7.163a35.26 35.26 0 0 1 12.003-6.31h.005v.001zm-13.704 7.756c6.173 4.499 4.341 4.32 7.299 7.566a49.917 49.917 0 0 0-8.178 11.373c-6.449-4.85-3.137-1.682-7.968-7.565a42.988 42.988 0 0 1 8.847-11.376v.002zm-9.96 13.62a38.56 38.56 0 0 1 3.8 2.821c2.219 2.195 3.731 5.173 4.208 4.698a37.736 37.736 0 0 0-3.469 12.189c-4.95-2.996-3.36-2.375-7.52-6.501a31.434 31.434 0 0 1 2.981-13.208v.001zm4.939 31.554c-4-4.19-6.813-7.52-7.747-15.376 4.689 2.73 5.021 4.538 7.241 6.55.295 9.503 6.16 14.647.506 8.826zm59.928-15.074c-1.723 22.215-23.806 35.74-37.834 31.386-4.67-1.363-11.632-6.917-15.344-10.042-7.465-10.72-6.571-21.091-.185-32.667 7.982-13.825 23.021-25.353 37.478-18.465 10.013 8.19 16.8 15.4 15.892 29.788h-.007z"/><path fill="#0F0F0F" d="M246.965 154.352c-6.195-4.629-17.203-4.605-27.403 5.242-11.24 10.902-14.413 28.278-11.159 35.699 5.029 11.766 23.458 14.928 36.17 1.502 1.262-1.332 3.894-4.742 3.634-4.928-.522-.39-5.9 9.296-18.4 11.784-7.956 1.564-16.722-1.92-19.637-9.11-4.69-11.085 6.336-37.15 23.2-40.723 13.76-2.967 26.704 11.249 17.653 32.371-1.367 3.139-4.146 7.75-1.6 4.238 7.777-10.747 9.048-27.609-2.458-36.075z"/><path fill="#FDFE1F" d="M208.35 163.275c18.815-13.808 12.252-60.096-18.291-70.093-8.133-2.662-16.721-.928-25.694.856-4.675.93-8.541 1.381-12.133 4.122-5.546 4.23-8.336 12.192-9.586 19.027-3.729 20.368 8.351 48.082 28.722 53.018 7.992 1.936 30.411-2.107 36.982-6.93z"/><path fill="#0F0F0F" d="M188.454 91.696c-10.07-2.546-30.598 2.56-32.686 3.36-13.562 5.373-16.69 26.69-13.395 41.461 4.864 21.685 18.819 33.109 29.92 34.897 7.761 1.373 31.616-2.579 37.395-7.971 17.992-14.049 11.912-62.357-21.234-71.747zm-24.545 4.93a23.51 23.51 0 0 0-7.287 11.257c-4.179.899-3.728 1.583-8.998 1.067 4.352-10.654 10.192-11.054 16.285-12.324zm-17.189 14.84c4.739-1.2 4.024-1.328 9.166-.882a46.851 46.851 0 0 0-.648 15.258c-4.614.64-3.134 1.728-10.54 1.02a42.901 42.901 0 0 1 2.022-15.396zm-1.858 17.801c7.146-1.76 6.772-.464 10.749-.574a67.095 67.095 0 0 0 4.64 15.923c-6.669 1.592-3.145 1.4-11.155 1.158a57.522 57.522 0 0 1-4.234-16.507zm5.378 19c1.514-.47 3.06-.834 4.626-1.088 2.769 0 6.56.139 6.56.139-.087-1.142 2.035 5.583 8.288 12.143-5.772 2.025-4.844 1.187-10.013 1.6a40.503 40.503 0 0 1-9.461-12.794zm28.514 19.923c-4.452.183-9.25.202-16.615-5.171 5.344-1.984 6.411-.878 9.92-1.325 8.402 7.208 18.072 5.997 6.696 6.496h-.001zm29.062-7.187c-3.2 2.992-13.794 5.221-18.109 5.979-11.374-1.313-18.417-7.092-24.08-16.702-9.862-17.011-13.92-46.221 3.584-54.72 9.549-1.798 17.031-2.514 25.101 1.714 25.55 12.598 28.835 52.094 13.506 63.729h-.002z"/><path fill="#0F0F0F" d="M209.28 126.93c-3.344-10.066 7.789 21.83-9.582 32.142a13.87 13.87 0 0 1-13.136 1.038c-7.84-3.161-16.231-17.6-18.88-25.812-11.944-36.656 20.867-48.808 37.942-15.46 1.797 3.549 3.816 8.992 2.53 4.392a44.273 44.273 0 0 0-12.586-19.953c-8.862-7.923-24.619-9.61-30.632 5.728-7.339 18.974 8.246 47.925 20.811 53.048 16.037 6.747 30.741-13.448 23.533-35.123z"/><path fill="#0F0F0F" d="M191.262 127.624c-1.197-.704-1.182-.347-.581-.875a9.114 9.114 0 0 0 2.576-8.976 9.104 9.104 0 0 0-6.68-6.525c-.128-3.059-2.02-4.96-2.568-4.624-.529.307-.118 1.957.284 3.862.16.756.43.208-2.904.336-.692-5.182-3.231-5.076-2.162.192-.885.277-1.749.616-2.587 1.013.734 3.819 3.494 11.883 4.8 18.408 0 .16 2.4 15.627 3.443 18.912 2.413-.741 1.978-.648 2.429-.624.595 3.933 4.136 6.599 2.198 0a14.479 14.479 0 0 0 3.24-.48c1.424 6.517 3.437 3.616 2.015-.787 8.089-4.256 3.243-15.656-3.503-19.832zm-9.843-12.8c4.64-1.12 7.699-1.221 9.842 3.066a5.163 5.163 0 0 1-2.503 6.344 18.063 18.063 0 0 1-6.139 1.451c-.499-3.787-.846-7.752-1.2-10.853v-.008zm6.347 29.656a103.705 103.705 0 0 1-4.365-13.872 12.133 12.133 0 0 1 6.493-.128c7.632 2.845 11.877 16.102-2.128 14z"/><path fill="#fff" d="M201.92 103.979c-7.2 3.564 1.12-1.745 5.48 10.308.582-.781.55-7.392 7.36-10.231-.306-.921-3.579-.728-5.715-2.843a20.505 20.505 0 0 1-3.058-5.315c-.678 3.187-2.024 7.784-5.248 8.696l1.181-.615z"/><path fill="#0F0F0F" d="M212.106 102.41c-7.488-2.861-5.292-15.451-7.162-5.084-1.381 7.911-7.6 7.599-7.445 8.49-.009.858 6.21-.107 8.64 6.613.309 1.28.762 2.518 1.351 3.696.8.182.216-6.495 4.996-10.143 3.194-2.462 5.636-1.38-.38-3.572zm-4.759 10.201a10.1 10.1 0 0 0-5.747-6.577c-2.062-.847-1.877.088.054-1.21a10.835 10.835 0 0 0 4.408-7.632 9.29 9.29 0 0 0 7.917 6.837c-3.419 1.001-5.899 5.035-6.632 8.582z"/><path fill="#FFC5F6" d="M81.086 128.93s-15.267-1.8-17.5 13.745c-2.234 15.546-7.023 103.36-7.023 103.36s-1.656 26.221 4.16 28.96c5.816 2.74 35.757 3.78 35.757 3.78 63.307.686 47.117-.391 74.507 4.281 52.384 16.621 70.12 23.815 75.831 18.104 6.608-6.608 8.651-33.672 18.08-104.569 0 0 7.243-37.236-8.234-41.26 0 0 4.102 6.119-3.552 8.599-7.654 2.48-57.246 13.52-92.605 6.4-35.358-7.12-75.561-15.501-85.429-31.728.002-.002-5.144-7.571 6.008-9.672z"/><path fill="#0F0F0F" d="m252.848 152-.701 2.349c27.082 10.054-61.32 26.045-130.054 5.584-11.232-3.344-38.912-12.214-45.188-22.035A4.8 4.8 0 0 1 80 130.229c4.565-1.083 11.344 1.619 15.877 2.856l.64-2.365c-6.347-1.92-14.88-5.856-20.536-1.808a7.681 7.681 0 0 0-1.744 10.627c6.862 11.096 34.285 20.16 46.789 23.954 54.28 16.506 137.6 11.013 138.355-5.394.2-4.432-3.511-5.164-6.533-6.099z"/><path fill="#0F0F0F" fill-rule="evenodd" d="m63.734 169.143-.144 2.153a1.635 1.635 0 0 0 2.695 1.315c.324-.278.527-.672.565-1.097l.145-2.152a1.633 1.633 0 0 0-2.705-1.34 1.633 1.633 0 0 0-.556 1.121zm.704-9.72-.16 2.152a1.632 1.632 0 0 0 2.679 1.328c.327-.271.535-.659.58-1.08l.16-2.152a1.635 1.635 0 0 0-3.259-.248zm2.569-11.17a1.642 1.642 0 0 0-1.775 1.48c-.16 1.773-.614 3.765 1.306 3.925a1.646 1.646 0 0 0 1.76-1.488c.153-1.76.62-3.744-1.291-3.917zm-5.044 50.075-.121 2.154a1.636 1.636 0 0 0 3.262.184l.122-2.152a1.636 1.636 0 0 0-3.263-.186zm.557-9.712-.12 2.152a1.633 1.633 0 0 0 1.533 1.791 1.637 1.637 0 0 0 1.587-.964c.09-.201.138-.418.142-.638l.12-2.157a1.633 1.633 0 1 0-3.262-.184zm.58-9.686c-.111 1.806-.543 3.768 1.4 3.884a1.65 1.65 0 0 0 1.729-1.531l.133-2.152a1.632 1.632 0 0 0-2.161-1.645 1.634 1.634 0 0 0-1.1 1.444zm-1.037 47.036a1.65 1.65 0 0 0-1.708 1.562c-.075 1.773-.443 3.792 1.487 3.862a1.641 1.641 0 0 0 1.69-1.569c.07-1.763.452-3.768-1.47-3.855zm-1.218-8.177-.118 2.155a1.638 1.638 0 0 0 1.537 1.793 1.643 1.643 0 0 0 1.206-.438 1.626 1.626 0 0 0 .519-1.174l.12-2.157a1.632 1.632 0 0 0-2.706-1.273c-.32.279-.52.671-.558 1.094zm.562-9.683-.125 2.152a1.631 1.631 0 0 0 1.537 1.725 1.62 1.62 0 0 0 1.565-.919 1.64 1.64 0 0 0 .16-.617l.125-2.152a1.64 1.64 0 0 0-1.698-1.73 1.63 1.63 0 0 0-1.564 1.541zm-1.533 38.982c0 .951 0 1.28-.034 2.08a1.657 1.657 0 0 0 1.54 1.688c1.8.101 1.743-1.705 1.76-2.667v-1.085a1.631 1.631 0 0 0-2.783-1.168c-.307.304-.48.719-.483 1.152zm1.826-11.325a1.647 1.647 0 0 0-1.68 1.591c-.044 1.773-.378 3.803 1.556 3.84a1.646 1.646 0 0 0 1.662-1.6c.037-1.767.384-3.776-1.537-3.831zm16.7 37.564a1.646 1.646 0 0 0 1.624 1.652c1.76.012 3.81.309 3.807-1.627a1.647 1.647 0 0 0-1.63-1.63c-1.767-.003-3.777-.317-3.8 1.605zm-10.386-1.007a1.644 1.644 0 0 0 1.292 1.92c1.732.338 3.68 1.008 4.04-.896a1.646 1.646 0 0 0-1.3-1.902c-1.737-.333-3.654-1.015-4.032.878zm-6.179-7.11c-1.684.912-.608 2.777.527 4.328a1.695 1.695 0 0 0 1.772.636 1.696 1.696 0 0 0 .958-2.651c-.772-1.033-1.431-3.3-3.257-2.313zm-.512-10.152c-1.92-.023-1.88 2.133-1.641 4.038a1.698 1.698 0 0 0 1.888 1.385 1.696 1.696 0 0 0 1.472-1.822c-.173-1.28.356-3.579-1.719-3.601zm47.967 19.517c1.768-.029 3.784.238 3.76-1.69a1.644 1.644 0 0 0-1.661-1.613l-2.152.035a1.633 1.633 0 1 0 .053 3.268zm-9.717.191 2.155-.044a1.633 1.633 0 0 0-.067-3.268l-2.155.045a1.643 1.643 0 0 0-1.6 1.667 1.634 1.634 0 0 0 1.667 1.6zm-11.365-1.443a1.641 1.641 0 0 0 1.653 1.618c1.76-.022 3.806.245 3.773-1.693a1.648 1.648 0 0 0-1.661-1.6c-1.765.023-3.786-.246-3.765 1.675zm48.592-.07a1.642 1.642 0 0 0 1.531 1.718c1.728.103 3.727.544 3.871-1.371a1.644 1.644 0 0 0-.398-1.194 1.645 1.645 0 0 0-1.124-.566c-1.72-.11-3.773-.528-3.88 1.413zm-9.701-.35c-.036 1.961 2.013 1.665 3.724 1.721a1.659 1.659 0 0 0 1.689-1.569c.067-1.773-1.737-1.704-2.659-1.727-.974-.021-2.718-.243-2.754 1.575zm-9.681-.06a1.646 1.646 0 0 0 1.638 1.624h2.138a1.633 1.633 0 1 0 .014-3.267c-1.688 0-3.801-.32-3.79 1.643zm48.267 4.032a1.643 1.643 0 0 0 1.227 1.936c1.685.384 3.554 1.162 4.031-.691a1.641 1.641 0 0 0-1.199-1.997c-1.696-.414-3.649-1.148-4.059.752zm-9.538-1.737a1.647 1.647 0 0 0 1.356 1.853c1.707.273 3.627.923 3.977-.96a1.657 1.657 0 0 0-.269-1.232 1.64 1.64 0 0 0-1.062-.679c-1.717-.299-3.714-.905-4.002 1.018zm-9.596-1.168a1.645 1.645 0 0 0 1.456 1.779c1.723.179 3.68.714 3.921-1.189a1.647 1.647 0 0 0-1.44-1.825c-1.739-.202-3.753-.695-3.937 1.235zm48.078 13.366c1.717.571 3.502 1.491 4.114-.355a1.644 1.644 0 0 0-1.036-2.064l-2.046-.682a1.642 1.642 0 0 0-2.067 1.036 1.634 1.634 0 0 0 1.035 2.065zm-9.226-3.069 2.045.679a1.632 1.632 0 0 0 2.014-1.054 1.633 1.633 0 0 0-.985-2.049l-2.045-.676a1.624 1.624 0 0 0-1.741.487 1.634 1.634 0 0 0-.22 1.794c.19.386.526.68.932.819zm-10.261-4.993c-.545 1.869 1.474 2.126 3.116 2.653a1.658 1.658 0 0 0 2.051-1.052c.549-1.691-1.223-2.12-2.08-2.384-.939-.284-2.573-.976-3.087.783zm46.333 14.793c-.116.418-.062.865.151 1.243.212.379.565.658.982.776 1.178.32 2.267.62 2.104.576a1.625 1.625 0 0 0 1.72-.582 1.636 1.636 0 0 0-.874-2.574c-1.616-.432-3.55-1.322-4.083.561zm-9.334-2.769c-.578 1.862 1.429 2.149 3.155 2.673a1.613 1.613 0 0 0 1.742-.532 1.63 1.63 0 0 0 .298-.568c.507-1.712-1.317-2.096-2.126-2.34-.952-.291-2.538-.953-3.069.767zm-9.243-2.951a1.647 1.647 0 0 0 1.048 2.063c1.684.545 3.529 1.448 4.115-.394a1.647 1.647 0 0 0-1.059-2.053c-1.671-.537-3.504-1.449-4.104.384zm42.825.965a1.615 1.615 0 0 0 2.509-.984c.138-.629.32-1.56.44-2.194a1.627 1.627 0 0 0-1.312-1.823 1.627 1.627 0 0 0-1.888 1.219c-.414 2.198-.819 3.045.251 3.782zm-5.04 8.037c1.103 2.093 2.924.757 4.343-1.12a1.726 1.726 0 0 0-.306-2.365 1.728 1.728 0 0 0-2.376.21c-.814.966-2.49 1.702-1.661 3.275zm-9.617-.389c-.011 1.685 1.638 1.695 3.305 2.058a1.585 1.585 0 0 0 1.52-.466 1.587 1.587 0 0 0 .368-1.545c-.256-.893-.694-.997-2.729-1.482l-.48-.115a1.597 1.597 0 0 0-1.821.851 1.587 1.587 0 0 0-.163.699zm20.412-36.242a1.64 1.64 0 0 0 1.877-1.345c.29-1.747.904-3.703-1.003-4a1.649 1.649 0 0 0-1.872 1.355c-.277 1.699-.914 3.675.998 3.99zm.268 8.261.363-2.128a1.646 1.646 0 0 0-.277-1.219 1.624 1.624 0 0 0-1.058-.666 1.626 1.626 0 0 0-1.22.277 1.624 1.624 0 0 0-.666 1.058l-.363 2.126a1.637 1.637 0 0 0 1.334 1.887 1.638 1.638 0 0 0 1.887-1.335zm-1.679 9.564.378-2.125a1.634 1.634 0 0 0-3.218-.573l-.377 2.125a1.64 1.64 0 0 0 1.321 1.896 1.64 1.64 0 0 0 1.896-1.323zm7.711-48.095.304-2.136a1.636 1.636 0 0 0-1.391-1.814 1.634 1.634 0 0 0-1.843 1.352l-.306 2.136a1.648 1.648 0 0 0 .309 1.212 1.638 1.638 0 0 0 1.077.637 1.64 1.64 0 0 0 1.85-1.387zm-1.407 9.635.32-2.134a1.639 1.639 0 0 0-1.065-1.78 1.639 1.639 0 0 0-1.762.441c-.217.24-.358.539-.405.859l-.32 2.134a1.644 1.644 0 0 0 .776 1.642 1.63 1.63 0 0 0 1.237.183 1.624 1.624 0 0 0 1.004-.744c.111-.184.184-.388.215-.601zm-3.331 10.957a1.637 1.637 0 0 0 1.869-1.363c.272-1.749.864-3.706-1.04-4a1.646 1.646 0 0 0-1.862 1.368c-.268 1.755-.866 3.701 1.033 3.995zm8.637-49.582c.227-1.794.784-3.723-1.147-3.965a1.644 1.644 0 0 0-1.824 1.416l-.271 2.139a1.637 1.637 0 0 0 1.416 1.826 1.632 1.632 0 0 0 1.826-1.416zm-1.246 9.656c.233-1.794.8-3.72-1.132-3.971a1.649 1.649 0 0 0-1.83 1.409l-.278 2.138a1.633 1.633 0 0 0 1.416 1.766 1.635 1.635 0 0 0 1.824-1.342zm-3.135 11.017a1.643 1.643 0 0 0 1.843-1.393c.242-1.76.8-3.723-1.109-3.981a1.649 1.649 0 0 0-1.836 1.402c-.236 1.745-.805 3.71 1.102 3.972zm7.88-49.704.245-2.142a1.636 1.636 0 0 0-1.438-1.809 1.634 1.634 0 0 0-1.808 1.438l-.245 2.142a1.632 1.632 0 0 0 1.437 1.809 1.634 1.634 0 0 0 1.809-1.438zm-1.129 9.668c.212-1.797.753-3.73-1.18-3.956a1.645 1.645 0 0 0-1.812 1.432l-.255 2.141a1.637 1.637 0 0 0 2.074 1.812 1.635 1.635 0 0 0 1.173-1.429zm-1.159 9.633c.219-1.795.768-3.726-1.165-3.96a1.653 1.653 0 0 0-1.817 1.424l-.263 2.141a1.63 1.63 0 0 0 1.431 1.77 1.631 1.631 0 0 0 1.814-1.375zm-101.833 52.816.251-2.906a1.615 1.615 0 0 0-.875-1.59 1.637 1.637 0 0 0-2.123.558 1.638 1.638 0 0 0-.258.751l-.251 2.905a1.626 1.626 0 0 0 .376 1.194 1.631 1.631 0 0 0 2.304.198c.332-.279.539-.678.577-1.11h-.001zm-.945 11.046.245-2.905a1.64 1.64 0 0 0-.38-1.191 1.643 1.643 0 0 0-.498-.398 1.644 1.644 0 0 0-1.246-.104 1.633 1.633 0 0 0-1.132 1.419l-.245 2.904a1.622 1.622 0 0 0 .857 1.65 1.645 1.645 0 0 0 1.846-.217 1.64 1.64 0 0 0 .553-1.158zm-2.635 12.508a1.641 1.641 0 0 0 1.751-1.506c.16-2.193.774-4.494-1.28-4.657a1.647 1.647 0 0 0-1.76 1.497c-.168 2.2-.76 4.512 1.289 4.666zm4.544-55.279c.432.03.858-.112 1.185-.396.328-.283.53-.684.562-1.116.16-2.2.741-4.524-1.318-4.659a1.647 1.647 0 0 0-1.736 1.517c-.149 2.203-.746 4.507 1.307 4.654zm-.848 11.064a1.647 1.647 0 0 0 1.76-1.496c.104-1.28.242-3.081.231-2.916a1.635 1.635 0 0 0-3.26-.25c-.168 2.197-.782 4.496 1.269 4.662zm.844 9.53.246-2.907a1.636 1.636 0 0 0-.876-1.593 1.635 1.635 0 0 0-1.806.206 1.633 1.633 0 0 0-.574 1.11l-.246 2.907a1.626 1.626 0 0 0 .877 1.59 1.64 1.64 0 0 0 1.804-.202 1.647 1.647 0 0 0 .575-1.111zm1.646-53.893a1.646 1.646 0 0 0 1.665-1.6c.023-1.017.034-3.107.032-2.944a1.633 1.633 0 0 0-1.624-1.648 1.636 1.636 0 0 0-1.648 1.624v1.453c-.006 1.128-.283 3.082 1.575 3.115zm-.346 11.099a1.638 1.638 0 0 0 1.703-1.574c0-.16.104-3.085.099-2.923a1.639 1.639 0 0 0-1.58-1.621 1.634 1.634 0 0 0-1.686 1.51l-.049 1.456c-.042 1.16-.32 3.075 1.513 3.152zm1.165 9.508.16-2.917a1.638 1.638 0 0 0-1.546-1.671 1.636 1.636 0 0 0-1.718 1.493l-.16 2.915a1.635 1.635 0 0 0 2.02 1.676c.261-.063.503-.19.703-.368.323-.29.517-.696.541-1.128z" clip-rule="evenodd"/><path fill="#fff" d="M177.718 197.853c.8-7.893 3.311-9.195 8.741-9.221 13.984-.067 38.773.683 52.16 4.869 6.951 2.173 4.808 8.738.32 56.664-2.741 29.262-6.325 30.808-25.48 27.347-32.513-5.873-42.061-4.515-40.96-19.766 5.272-72.648 1.741-25.773 5.219-59.893z"/><path fill="#0F0F0F" d="m172.264 248.938 2.112.19c4.757-55.027 3.024-56.96 8.432-58.595 5.6-1.691 34.344.48 47.342 2.339 5.05.722 9.949.747 10.789 5.863a40.9 40.9 0 0 1-.174 7.52c-.701 20.305-.779 10.523-2.219 28.819-1.44 18.326-1.159 16.16-3.38 29.864-1.321 8.16-2.576 11.013-9.737 11.497-10.967.743-44.984-5.795-48.701-8.48-3.928-2.835-2.76-13.555-2.352-18.827l-2.112-.19c-.616 6.345-2.115 17.229 2.986 21.032 4.987 3.717 39.696 10.149 50.374 9.51 11.71-.699 11.811-7.777 14.226-23.806.454-3.013 4.145-41.066 4.195-46.704.062-7.024 1.051-10.08-.855-13.746-2.616-5.038-8.822-5.389-22.673-6.72a243.984 243.984 0 0 0-29.056-1.507c-4.96-.037-11.149-.518-13.898 3.84-2.221 3.52-1.741 9.12-2.163 13.408-1.48 14.92-.477 1.6-3.136 44.693z"/><path fill="#fff" d="M225.146 199.189c-3.456-3.747-2.24-3.013-5.428-.109-.326.363-.76.613-1.238.714a2.312 2.312 0 0 1-1.421-.147 3.195 3.195 0 0 1-.904-1.076c-2.981-4.715-2.998-2.545-5.827-.1-2.434 2.102-3.021-1.077-3.695-1.621-.03.16.783.251-1.321-1.507-.658-.551-1.088-.64-2.01.152-4.854 4.136-5.625 6.449-4.232-6.573.413-3.851.16-6.843.685-8.535 1.133-.308 3.2 5.535 4.856 3.389 5.141-6.654 3.747-1.633 8.48 1.429 1.191.773 3.282-2.523 3.786-3.014 2.72-2.644 4 2.646 6.128 3.42a1.275 1.275 0 0 0 1.649-.64c.496-1.644 2.56-2.164 3.968-3.14.48 2.648.194 19.502-.592 19.798-.491.181-2.27-1.774-2.884-2.44z"/><path fill="#0F0F0F" d="M228.848 181.304c-.384-.421-5.179 3.637-5.537 3.579a5.638 5.638 0 0 1-.514-.697c-2.331-3.435-3.854-5.402-6.861-2.416-.382.379-2.013 2.357-2.174 2.518-4.152-3.611-4.976-6.08-6.834-4.248-1.28 1.266-2.912 3.291-3.073 3.386-.109.261-2.391-2.231-2.845-2.72-1.359-1.469-1.779-2.167-2.4 1.633-.581 3.36-1.061 16.826.176 16.789.278.375 4.31-2.497 4.784-2.768 1.369-.821 1.499-.08 2.499 1.365 2.896 4.226 3 2.467 7.264-.848.915 0 2.72 5.069 5.752 3.763 1.469-.621 1.707-1.726 3.155-2.955.311-.55 5.312 4.925 5.856 4.16 1.883.274 2.045-20.442.752-20.541zm-1.32 10.264c-.067 14.384 1.76 9.744-3.985 4.773-.772-.493-1.077-1.042-2.25-.19a19.298 19.298 0 0 0-2.483 2.316c-1.6 1.244-2.12-2.353-4.618-3.584-1.677-.667-2.273.32-5.44 3.127l-.04-.01c-2.741-3.006-2.843-5.669-7.433-1.633-.927.852-1.623 1.544-2.042 2.024.635-2.956.968-5.968.994-8.992.622-9.984-1.551-10.176 1.198-6.391 2.322 3.2 2.694 2.501 5.144.139 2.314-2.262.421-2.142 4.854 1.957.904.835 1.42 1.421 2.248 1.466 1.567.049 2.52-1.898 3.81-3.328 1.667-1.85 1.806-.234 4.41 2.677a1.794 1.794 0 0 0 1.52.712 1.82 1.82 0 0 0 1.448-.848 50.043 50.043 0 0 0 3.507-3.628 43.93 43.93 0 0 0-.842 9.413zm2.019 30.112-6.068-.701.905-13.144c.063-.875-1.301-.87-1.361 0l-.895 12.989-12.624-1.425.93-13.503c.061-.873-1.301-.87-1.362 0l-.92 13.354-12.728-1.395.912-13.344c.061-.876-1.301-.871-1.361 0l-.903 13.2-2.72-.293c-.869-.095-.862 1.267 0 1.36l2.639.283-.808 12.43-3.149-.406c-.866-.114-.858 1.25 0 1.36l3.064.398-.781 12.696-3.07-.4c-.868-.112-.86 1.25 0 1.362l2.99.389-.678 11.632c-.05.877 1.312.873 1.361 0l.667-11.455 12.696 1.68-.774 13.252c-.05.875 1.312.872 1.362 0l.763-13.071 12.603 1.712-.778 13.296c-.049.877 1.312.874 1.362 0l.766-13.12 6.092.845c.857.118 1.227-1.192.363-1.314l-6.375-.881.788-12.711 5.531.762c.857.12 1.227-1.192.363-1.312l-5.808-.8.854-13.082 6.16.711c.861.109.855-1.253-.008-1.354zm-34.212-2.48 12.728 1.394-.834 12.742-12.704-1.675.81-12.461zm-1.676 26.509.783-12.698 12.702 1.676-.787 12.702-12.698-1.68zm26.652 3.573-12.604-1.712.786-12.704 12.605 1.705-.787 12.711zm.872-14.061-12.604-1.706.836-12.771 12.622 1.426-.854 13.051z"/><path fill="#0F0F0F" d="M183.829 259.848c.702 2.482 4.57 2.72 6.629 3.256a253.632 253.632 0 0 0 33.24 6.375c1.561.195 1.547-2.256 0-2.452-14.88-1.867-34.53-6.323-36.68-7.396-1.106-.552-.96 0-.491-10.629.67-15.133 1.76-30.24 2.904-45.346.118-1.573-2.333-1.566-2.452 0 .162 0-3.971 53.293-3.15 56.192z"/><path fill="#92FCFF" d="m230.762 222.965-1.074-9.467a2.112 2.112 0 0 0-1.25-1.69 2.111 2.111 0 0 0-2.089.235l-7.661 5.663a2.093 2.093 0 0 0-.792 2.198 2.1 2.1 0 0 0 1.202 1.421l2.582 1.12c-2.614 6.821-5.547 14.4-8.664 21.15-.8 1.73-.619 1.517-.834 1.188-10.48-16.092-8.542-21.085-14.617-8.597-2.149 4.414-10.376 21.025-8.869 21.797 1.718.876 10.952-17.133 13.394-21.708a143.012 143.012 0 0 0 7.477 12.461c2.008 3 2.001 3.746 3.2 4.16 1.72.591 12.251-26.997 12.907-28.709 2.185.952 2.411 1.12 2.995 1.12a2.115 2.115 0 0 0 2.093-2.342zm-35.212-7.33c10.324.8 15.223 1.909 16.013 1.909 2.026 0 2.667-3.112.512-3.464-4.789-.784-14.518-1.987-16.593-1.987-2.18 0-2.128 3.373.068 3.542zm.268-5.27c7.739.8 11.52 1.2 11.68 1.2 2.12 0 2.08-3.32-.09-3.546-7.739-.8-11.52-1.198-11.68-1.198-2.12 0-2.085 3.318.09 3.544z"/><path fill="#0F0F0F" d="M227.594 212.175c1.864 0 1.534 1.209 2.625 10.851a1.555 1.555 0 0 1-.385 1.213 1.529 1.529 0 0 1-1.16.523c-.427 0-.379-.026-3.299-1.298-2.965 7.73-5.405 14.115-8.669 21.237-4.464 9.741-2.943 9.338-6.687 3.739-7.976-11.929-7.71-13.533-7.979-13.221-16.15 30.28-17.389 28.757-3.985 1.208.619-1.28 2.72-6.632 4.36-6.63 1.313 0 .851 2.298 9.312 15.288.868 1.334.616 1.224.952.523 3.544-7.403 6.952-16.288 9.697-23.449l-3.061-1.333a1.56 1.56 0 0 1-.926-1.253 1.567 1.567 0 0 1 .622-1.429c8.421-6.219 7.882-5.969 8.583-5.969zm0-1.634c-1.453 0-1.368.243-9.554 6.29a3.195 3.195 0 0 0-1.274 2.926 3.194 3.194 0 0 0 1.897 2.566l1.627.709c-2.346 6.115-5.328 13.775-8.098 19.754-7.982-12.591-7.123-14.623-9.777-14.623-3.048 0-4.938 5.616-8.237 12.554-5.634 11.84-9.061 18.4-5.199 18.427 2.141.019 5.92-7.115 13.12-20.566a154.478 154.478 0 0 0 6.919 11.297c.549 0 1.133 3.277 3.398 4.055 2.019.691 2.456-1.352 5.6-8.16 10.067-21.818 7.019-20.68 9.387-19.65a3.18 3.18 0 0 0 3.66-.8c1.268-1.421.75-2.806.251-7.214-.419-3.637-.123-7.565-3.72-7.565zm-32.112 2.099c2.414 0 12.123 1.263 16.505 1.981 1.552.253.896 2.613-.651 2.363a193.585 193.585 0 0 0-15.744-1.888c-1.526-.121-1.571-2.456-.11-2.456zm0-1.088c-2.861 0-2.88 4.407.027 4.631 9.699.745 15.4 1.908 16.054 1.908 2.687 0 3.419-4.084.6-4.545-10.131-1.659-16.843-1.997-16.681-1.997v.003zm.246-4.192c.16 0 .069 0 11.626 1.197 1.561.16 1.56 2.616 0 2.451-3.826-.408-7.653-.8-11.48-1.19-1.506-.151-1.565-2.458-.146-2.458zm0-1.089c-2.813 0-2.821 4.335.034 4.639 7.04.728 4.433.48 11.48 1.189 3.04.304 3.184-4.312.224-4.617-10.426-1.082-11.9-1.207-11.738-1.207v-.004z"/><path fill="#fff" d="M128.8 182.21c9.92 3.144 10.483 3.2 11.32 3.969 1.662 1.543 3.013 7.812 3.296 10.72.389 4.012 1.157 55.492-.819 59.341a6.37 6.37 0 0 1-3.237 2.96c2.89 2.279-41.155-1.91-42.834-1.992-5.505-.262-14.987-2.896-17.054-5.793-2.624-3.68-1.466-33.455-1.09-38.791.258-3.661.53-6.619 2.143-25.224.25-2.88.075-7.221 1.517-9.723a8.276 8.276 0 0 1 8.107-3.706c13.304 2.16 25.795 4.165 38.651 8.239z"/><path fill="#FDFE1F" d="M91.898 195.719c-2.738-7.04 4.8-.263 5.47-.109.903.206 1.744-.632 2.013-1.519.411-1.355-.096-4.492 2.014-4.724.93-.103 1.327.355 6.573 4.057 1.664-4.357 1.771-4.83 2.295-5.353.771-.773 1.905-.8 2.364 1.088l2.18 8.948c3.569-3.457 8.428-5.11 8.98-1.825.252 1.491-1.348 2.669-1.6 4.16 5.967-3.794 8.176-1.733 7.21.92-.661 1.817-3.018 3.422-2.475 5.531a34.318 34.318 0 0 0 2.72 5.088c4.096-2.438 8.814 2.664 6.166 7.587a8.144 8.144 0 0 1-5.222 3.85 10.67 10.67 0 0 1 1.894 9.062 8.149 8.149 0 0 0-.465 4.32 6.95 6.95 0 0 1-4.863 6.592 42.997 42.997 0 0 1 4.872 7.579 22.012 22.012 0 0 1 2.24 7.863c.122.829-.32 1.225-1.086 1.558-2.288.991-39.077-4.417-44.703-4.102a7.9 7.9 0 0 1-2.686-.117 2.283 2.283 0 0 1-1.733-1.854 26.006 26.006 0 0 1 4.442-9.592c3.136-3.804 8.019-5.652 12.752-7.04-.64-2.436-7.384-3.01-6.826-17.832-10.678-4.981-5.6-14.679-.067-12.748a.556.556 0 0 0 .218.063.556.556 0 0 0 .225-.026c2.413-1.259 3.293 4.487-2.902-11.425z"/><path fill="#0F0F0F" d="M121.082 250.198c-3.509-1.55-12.232-3.36-17.352-1.686-4.692 1.533-6.861 5.65-6.338 5.944.523.294 2.069-2.832 6.845-4.39 4.571-1.493 12.969.198 16.173 1.622 4.896 2.179 5.585 5.382 6.11 5.227.597-.115-.459-4.515-5.438-6.717zm10.478-35.222c-2.486.335-2.176 2.701-.81 2.794.228-.059.519.533.362.913-.333.8-1.546 1.338-1.379 1.632.131.348 1.853.074 2.4-1.27a1.718 1.718 0 0 0-1.319-2.358.175.175 0 0 1-.032-.117.175.175 0 0 1 .056-.109c.239-.363 1.376-.707 1.776-.022 1.063 1.801 1.365-1.789-1.054-1.463zm-35.72-2.665c-1.573-.364-2.4 1.536-1.92 2.825.55 1.495 2.24 1.506 2.202 1.191.014-.215-1.87-.919-1.12-2.546.32-.712.419-.429 2.488.179.864.253.776.309.64-.037a4.618 4.618 0 0 0-1.59-2.457c-3.36-2.387-6.143 1.376-5.38 1.672.226.11 2.267-2.487 4.68-.827z"/><path fill="#0F0F0F" d="M145.314 210.749c-.16-18.509 2.232-25.53-15.789-29.6-29.135-6.771-44.693-13.094-48.96-3.68-1.306 2.893-1.13 6.264-1.333 9.858-3.754 57.736-4.246 64.48 2.522 68.32 6.745 3.8 43.984 5.971 52.465 6.017 8.061-.08 9.775-3.387 10.285-11.145.891-13.684.898-27.012.81-39.77zm-60.338 43.085c1.6-7.781 9.12-13.319 16.578-15.2 1.089.539 2.236.955 3.417 1.243a12.966 12.966 0 0 0 5.496 3.614c3.056 1.071 12.074 2.4 16.45 1.151 3.926 4.265 5.083 8.117 6.273 13.789-10.112-.092-42.752-2.612-48.214-4.597zm14.24-34.915c.36-.416-.272-.549-.18-.375.012.031.037.067.012.096-.192-.182-.648.32-1.92.431a8.661 8.661 0 0 1-6.84-3.477c-2.08-2.739-.96-7.789 3.157-7.763 6.152-.14 7.2 5.081 7.627 4.96.358-.034.387-2.626-1.94-4.756 6.924-1.486 6.508-1.4 15.543-3.382 1.877-.64 1.234-4.029.93-6.117a18.91 18.91 0 0 1 4.445-2.581c.899-.208 2.467-.15 2.734.872.213.895-.554 1.965-1.24 2.852-1.424 1.816-2.014 3.225-1.76 3.374.331.37 3.792-2.909 6.499-3.68 1.968-.413 2.709.218 2.018 2.046-.746 2.018-2.091 2.103-2.72 3.831-.8 2.147 1.44 3.461 1.782 3.883a5.407 5.407 0 0 1 1.12 2.374 7.437 7.437 0 0 0-9.241-.947 7.428 7.428 0 0 0-2.314 2.376c-4.766-6.254-13.963-1.76-13.168 4.112a1.608 1.608 0 0 0 1.12 1.474 5.494 5.494 0 0 0 3.475 5.072c1.138.433.597-.375-2.137 2.453-3.434 3.577-4.114 8.5-2.818 11.425-6.594-3.36-8.445-9.72-8.33-17.12a4.216 4.216 0 0 0 4.14-1.433h.006zm-6.584-25.197c1.625.505 4.337 3.744 6.493 2.283 1.561-1.102 1.44-5.264 2.529-5.619 1.703-.944 5.461 7.187 7.597 2.344.415-.939 1.655-5.565 2.194-4.408 1.177 1.061 2.859 12.281 2.529 14.39-.033.213 1.02-.169-15.053 3.165-2.174.48-1.53.658-2.472-1.461 1.885-.499 5.005-1.541 7.172-2.064 19.262-4.705 1.645-2.88-7.85.459-.76-1.792-1.522-3.587-2.194-5.352-1.703-4.422-1.32-3.828-.951-3.737h.006zm21.549 44.48c9.529 1.12 14.067 1.694 16.873-.685a5.39 5.39 0 0 1-2.72 4.258c-4.014 2.379-14.609.584-17.168-.298-9.004-2.933-8.396-12.48.215-17.781a3.922 3.922 0 0 0-.05 1.632c.395 2.08 2.115 2.522 4.17 2.767 2.502.243 2.651.568 3.107 2.56.662 2.804 2.24-2.668-.874-4-1.44-.652-3.531-.64-4.062-1.28a1.716 1.716 0 0 1 .256-2.029c1.106-1.351 4.774-1.541 6.667-1.6 5.911-.079 9.255 2.23 7.096 3.645-2.08 1.368-5.262.824-4.889 5.6.081.528.15.828.299.865.149.037.363-.238.544-.779.705-1.902.288-2.293 3.11-3.064 1.799-.539 3.437-1.189 3.733-3.2a11.828 11.828 0 0 1 1.101 6.056c-.311 7.018-4.611 6.08-10.672 5.984-11.627-.49-18.33-.016-6.743 1.346l.007.003zm-4.6-15.168a5.267 5.267 0 0 1-3.791-4.471c1.26-.254 2.542-.38 3.828-.376.112 1.12-.127 1.954 1.548 1.684 1.6-.258 1.28-.8 1.178-1.783 2.765.205 3.088.768 4.125.363-.343 1.912-.491 1.559-1.44 1.831a5.34 5.34 0 0 0-2.855 1.784c-2.574 1.041-1.908 1.197-2.6.965l.007.003zm-4.023-5.794c-.273.048-.348.035-.396 0-.132-.027-.272-.624-.218-1.104.218-4 6.013-6.32 9.44-3.504a4.03 4.03 0 0 1 1.934 3.821c-.624 1.613-.904-1.16-10.766.784l.006.003zm11.864.711c.557.11 2.456-.352 4.892-.463-.02.099.148.96.19 1.338.069.569 2.837.79 2.706-.309-.042-.35-.096-.666-.148-.96 1.816.184 2.487.507 3.08.48-2.272 4.432-1.257.456-10.889 1.795a4.167 4.167 0 0 0 .163-1.885l.006.004zm11.018-3.804c.704 1.42.032 2.501-.467 2.303a20.258 20.258 0 0 0-8.16-.034c-2.415.386-1.811.778-1.779-.198a3.983 3.983 0 0 0-.404-2.141 6.165 6.165 0 0 1 10.804.067l.006.003zm.429 7.375c-1.498-1.187-1.499-.399-.834-1.25a6.324 6.324 0 0 0 1.17-2.573 3.321 3.321 0 0 0 .48-4.652c2.189-2.344 5.088-.226 5.529 2.809a5.974 5.974 0 0 1-.986 4.311 5.97 5.97 0 0 1-3.679 2.454 9.031 9.031 0 0 0-1.687-1.102l.007.003zm12.411 28.787c-.354 5.822-.934 8.013-6.443 8.123-.245-5.614-2.003-10.782-6.175-14.448 4.029-1.973 4.591-5.097 4.41-9.555a12.866 12.866 0 0 0-1.611-10.856c7.101-1.539 6.953-11.669 1.28-12.878a3.746 3.746 0 0 0-2.376.27c-.786-4.896-4.461-3.589-1.722-6.17 3.557-3.288 2.363-8.78-2.905-7.139-2.08.791-.724.976-.96-1.104-.261-2.4-3.62-4.534-8.5-.995l-1.035.782c-.605-3.238-1.72-10.646-4.648-9.467-1.649.701-2.128 3.704-2.995 5.427-.443.7-2.147-1.792-2.995-2.611-1.866-1.798-4.075-1.795-5.252.527-.884 1.793-.945 4.174-1.57 4.096-1.901-.594-3.925-3.399-6.308-2.653-2.382.745-.872 4.073.077 6.569 3.443 9.151 4 7.68 1.894 7.596-7.733-.252-9.148 11.604.098 14.24-.994 6.705.64 13.499 6.08 17.409A21.552 21.552 0 0 0 85 248.207c-2.041 4.048-.926 5.308-1.732 4.852-4.716-2.664-4.812-6.416-1.948-65.617.31-4.023.05-9.079 3.074-11.131 3.218-2.276 8.64-.823 13.043.041 4.16.8 35.423 8.095 39.36 10.24 6.605 3.544 5.308 9.783 5.36 24.17.032 12.745-.004 25.998-.878 39.547z"/><path fill="#fff" d="M78.957 173.751c-1.517 2.467-1.886 4.92-3.266 11.68-.892 4.38.927 5.872 3.53 5.532 2.192-.286 7.256-3.371 9.033-4.67 5.674-4.16.935-1.752 13.388-8.579a4.08 4.08 0 0 0 1.624-1.309 2.984 2.984 0 0 0-1.363-3.84 10.857 10.857 0 0 0-4.377-1.035c-6.236-.744-14.345-4.65-18.57 2.221zm61.349 70.905a5.667 5.667 0 0 1 2.196-1.243 3.728 3.728 0 0 1 3.751 1.864c1.635 2.662.785 7.618.281 10.88-1.15 7.421-3.334 6.752-5.681 7.349-.762.193-1.467.587-2.24.744-2.128.432-11.52-.549-15.384-1.146-1.007-.16-1.615-.585-1.44-1.87.371-2.784 4.357-5.467 18.517-16.578z"/><path fill="#0F0F0F" d="m98.56 170.911-.136 1.395a7.293 7.293 0 0 1 3.16.904c.813.542 1.318 1.741.81 2.4-.463.737-2.048 1.318-3.388 2.059-11.483 6.347-14.42 11.434-19.468 12.243a5.638 5.638 0 0 1-2.064 0c.07.16-.863-.854-.404-4.403.29-2.24 1.962-10.294 3.528-12.264 2.034-2.56 6.804-2.253 10.12-1.92 8.892.907 7.623 1.848 7.84-.416-8.539-1.144-17.772-4.422-20.948 3.56-1.28 3.2-4.719 15.162-1.335 17.267 1.8.936 4.693.259 6.595-.665 4.96-2.418 6.624-5.952 19-12.871 1.852-1.035 3-2.481 2.152-4.443-.942-2.194-3.08-2.646-5.462-2.846zm41.699 74.599c-1.214-1.729.087-1.822-6.604 3.479a67.327 67.327 0 0 0-10.728 8.582c-2.538 2.797-3.376 5.792.15 6.682a44.8 44.8 0 0 0 15.168.987c4.549-.44 7.448-1.779 8.731-6.23a45.548 45.548 0 0 0 1-9.6c-.208-5.791-3.283-8.64-8.521-5.045l.8 1.147a6.637 6.637 0 0 1 2.814-1.235c4.376-.275 3.149 10.211 1.936 14.126-1.112 3.589-3.29 4.359-6.968 4.683a49.796 49.796 0 0 1-10.646-.222c-4.44-.576-5.015-.653-4.253-2.104 1.696-3.235 8.752-8.274 11.573-10.411 2.144-1.829 3.819-3.565 5.548-4.839z"/><path fill="#FDFE1F" d="M13.506 178.213c4.584 5.006 22.504 10.413 29.587 7.709 24.835-9.487 32.64-58.132 18.49-69.322-2.71-2.141-13.247-4.736-16.67-5.28-30.513-4.875-45.84 51.147-31.407 66.893z"/><path fill="#0F0F0F" d="M59.128 114.133c-1.24-.467-11.593-3.856-17.646-4.16-26.807-1.571-43.695 51.2-29.426 68.017 4.904 5.781 16.879 8.935 24.458 9.621 29.708 2.789 44.18-65.28 22.614-73.478zm.045 15.333c2.304-.343 4.658.03 6.742 1.07a51.474 51.474 0 0 1 .08 15.254c-5.245.295-4.123-.417-7.75-1.28a55.517 55.517 0 0 0 .928-15.044zm6.344-1.06c-3.75.208-3.306-.177-6.626-1.243-2.046-11.968-7.508-12.371-4.193-11.339 3.987 1.261 8.483 1.792 10.819 12.582zm-48.035 50.752c-10.207-5.59-9.11-24.851-5.995-36.108 4.1-14.823 15.854-31.144 29.846-30.272 2.966.244 5.898.8 8.747 1.662 10.165 7.032 7.947 25.245 4.435 37.12-4.305 14.24-12.267 30.157-26.948 31.462a51.645 51.645 0 0 1-10.085-3.864zm14.05 4.792a23.942 23.942 0 0 0 10.489-5.705c3.04.541 3.584-.303 7.448 1.659-7.13 5.979-12.206 5.146-17.938 4.046zm19.72-5.668c-4.055-.58-3.468 0-7.426-1.88a52.665 52.665 0 0 0 7.68-11.693c2.833.424 2.744-.858 8.32 1.243a42.894 42.894 0 0 1-8.573 12.33zm9.532-14.384c-5.147-.048-3.04.288-8.206-1.45a81.642 81.642 0 0 0 5.174-15.52c3.571.198 2.896-.854 7.933.851a69.837 69.837 0 0 1-4.9 16.119z"/><path fill="#0F0F0F" d="M24.835 178.101c22.11 2.88 38.983-52.986 20.53-60.677-11.919-5.12-24.367 10.592-28.36 22.805-1.314 4.011.611-.571 2.371-3.89 10.269-19.125 24.555-22.782 29.466-12.936 10.262 20.266-13.375 64.277-29.034 50.517-12.293-10.901 0-40.389-4-30.4-5.192 12.946-3.776 32.698 9.027 34.581z"/><path fill="#0F0F0F" d="M27.573 154.171c.102-.272.544.021-5.368-2.219-.16-.061-.014-.205-2.752 7.055-.082.219-.077-.128.411 4.32.02.2-.677-.141 10.898 4.22.16.064.227-.108 3.179-2.798.16-.152-.216.736 5.481-14.4.093-.246.08.08-.398-4.304-.027-.256.562.042-7.22-2.869-.16-.061-.181.221 2.56-7.093.1-.264-.257-.283 3.67 1.18.16.057 0 .24-1.22 3.465-.108.287-.532-.013 5.362 2.224.16.063 0 .253 2.747-7.027.1-.266.08.051-.393-4.29-.03-.267-10.858-4.268-11.021-4.32-.018 0-.037-.016-.053.032-.09.285-3.138 2.752-3.296 3.176-5.632 14.988-5.336 14.08-5.31 14.304.441 3.903.392 4.138.556 4.2 7.852 2.943 7.237 2.6 7.129 2.892-2.685 7.112-2.573 7.075-2.733 7.014-3.805-1.448-3.565-1.24-3.47-1.494l1.24-3.268z"/><path fill="#FDFE1F" d="M277.12 164.055c-3.398.536-13.029 2.801-15.934 5.073-4.872 3.811-6.259 12.496-6.547 18.72-1.186 25.626 16 47.704 28.2 47.704 6.438 0 19.713-3.465 23.921-8.04 13.56-14.745-.382-68.075-29.64-63.457z"/><path fill="#0F0F0F" d="M280.366 162.73c-5.96.294-16.108 3.68-16.753 3.921-16.104 6.08-12.056 48.8 7.44 64.852a23.626 23.626 0 0 0 10.126 4.924c4.399.589 12.536-1.384 17.098-3.054 6.909-2.506 8.099-3.917 10.429-6.68 12.585-20.176-4.493-65.312-28.34-63.963zm-18.288 8.093a13.797 13.797 0 0 1 5.735-2.56c3.185-.975-2.042-.572-4 10.753-3.128 1.002-2.744 1.375-6.291 1.168.718-3.248 2.025-7.152 4.558-9.361h-.002zm-4.936 11.384a10.753 10.753 0 0 1 6.4-1.004 52.698 52.698 0 0 0 .853 14.279c-3.429.809-2.4 1.496-7.36 1.2a48.873 48.873 0 0 1 .107-14.475zm.188 16.366c4.824-1.619 4.062-.606 7.528-.8a77.317 77.317 0 0 0 4.884 14.736c-4.267 1.427-2.56 1.328-7.792 1.362a66.386 66.386 0 0 1-4.62-15.298zm5.523 17.253c5.331-1.992 5.246-.775 7.902-1.165a50.215 50.215 0 0 0 7.264 11.109c-3.827 1.816-3.27 1.233-7.051 1.771a40.693 40.693 0 0 1-8.115-11.715zm9.805 13.257c3.585-1.814 4.43-1.097 7.073-1.561a22.698 22.698 0 0 0 9.947 5.44c-5.67 1.073-10.318 1.768-17.02-3.879zm37.803-14.969c-1.293 11.705-6.011 14.989-17.018 17.973a21.159 21.159 0 0 1-11.878-5.184c-13.12-11.824-24.114-49.789-9.365-59.946 10.002-2.786 13.883-1.712 19.41 1.678 12.23 7.949 20.731 26.858 18.851 45.479z"/><path fill="#0F0F0F" d="M304.662 194.608c-3.313-8.355 7.488 18.834-3.84 28.845-15.017 13.139-37.166-28.911-27.46-47.986 1.76-3.52 4.6-5.449 9.497-4.816 8.083 1.077 14.621 9.997 18.443 17.146 1.68 3.187 3.476 7.486 2.24 3.694-3.753-11.558-15.52-26.539-26.872-21.691-5.905 2.446-7.801 12.16-7.496 18.757a58.737 58.737 0 0 0 9.645 28.273c10.843 15.818 25.173 13.21 28.023-2.24a38.571 38.571 0 0 0-2.18-19.982z"/><path fill="#0F0F0F" d="M288 200.538a14.073 14.073 0 0 1-6.856-2.362c-.502-.339-.398-.15-.459-.77-.835-8.625-.971-7.115-.498-20.04 4.259 3.293 5.867 4.437 15.282 15.093 1.406 1.591-2.36 4.667-3.327 5.813a5.572 5.572 0 0 1-1.817 1.597 5.58 5.58 0 0 1-2.325.669zm-5.28-3.84a11.88 11.88 0 0 0 5.237 1.742 3.734 3.734 0 0 0 2.574-1.52 32.905 32.905 0 0 0 3.04-3.421c-7.256-8.169-9.016-9.848-11.441-11.902a75.388 75.388 0 0 0 .59 15.096v.005z"/><path fill="#0F0F0F" d="M295.382 219.224c-5.347-2.211-8.942-10.301-14.275-18.312 8.16 1.486 7.93 4.725 12.32-.403 1.73-2.016.037-.296 4.135-4.96 1.499 6.701.041 22.302-1.684 23.36l-.496.315zm-9.659-14.848c.911 1.661 6.287 10.24 9.08 12.171a101.777 101.777 0 0 0 1.28-11.078c-.025-6.125.682-5.619-1.059-3.591-3.594 4.202-5.512 4.13-9.301 2.498z"/></svg>