<svg xmlns="http://www.w3.org/2000/svg" width="320" height="320" fill="none"><path fill="#FFC5F6" d="M184.008 257.904c9.28 14.451 10.418 15.725 12.757 16.125a8.832 8.832 0 0 0 6.674-1.932 5.905 5.905 0 0 0 2.165-7.36c-1.908-5.993-26.922-45.307-35.773-35.335-4.373 4.948 4.973 14.172 14.177 28.502z"/><path fill="#fff" d="M263.967 264.48a11.095 11.095 0 0 0-2.434-5.798 82.262 82.262 0 0 0-10.24-12.56 27.744 27.744 0 0 0-31.536-4.861c-5.665 2.739-10.976 8.971-11.781 11.893a29.625 29.625 0 0 0-.219 14.289 33.704 33.704 0 0 1-5.44 7.088c-9.133.33-7.773.403-15.213-10.216-3.96 3.771-7.545 6.157-3.716 15.591 2.734 6.739 8.859 14.672 13.44 20.177 4.449 5.351 8.049 5.992 14.196 4.73 9.276-1.907 53.962-29.463 52.943-40.333z"/><path fill="#0F0F0F" d="M261.195 254.214c-6.427-8.774-12.875-15.636-23.726-17.414-16.693-2.829-31.312 8.686-32.76 23.19-4.522-7.275-15.453-27.281-26.27-33.057-7.52-3.968-12.658.997-11.968 6.629.71 5.248 2.937 7.04 19.016 30.731-.62.59-1.338 1.185-2.101 1.894-8.653 8.237 3.598 24.136 10.309 33.08 2.302 3.069 4.54 5.909 8.134 7.384 9.51 3.895 22.306-5.379 31.861-10.813 8.393-4.916 26.977-17.982 31.248-25.736 3.52-6.593.08-10.67-3.743-15.888zm-76.924 1.61c-8.336-12.97-16.815-21.733-13.413-25.522 6.857-7.899 30.953 27.098 33.462 34.842.8 2.56.298 3.789-.64 4.882a8.483 8.483 0 0 1-5.245 2.75c-3.508.411-4.331-1.762-14.164-16.952zm77.372 12.501c-3.79 6.88-22.438 19.929-29.838 24.312-8.838 5.086-22.765 15.598-30.862 9.6 16.96-1.579 42.515-21.61 54.302-34.021 15.75-16.587-19.616 18.24-43.762 27.99a36.594 36.594 0 0 1-13.675 2.922c-6.248-7.52-19.633-24.275-12.621-31.104.525-.526 1.136-1.062 1.74-1.653 3.38 4.842 5.632 9.861 11.131 9.659-7.167 3.236-11.189-4.048-11.56-3.913-1.999.726 9.243 16.254 21.153-2.032 2.039 5.417 5.364 9.08 5.716 8.771.718-.514-7.84-11.694-4.101-25.301 6.896-14.369 26.79-18.48 39.475-7.894a70.17 70.17 0 0 1 13.397 16.755 6.502 6.502 0 0 1-.495 5.904v.005z"/><path fill="#fff" d="M305.685 125.325c-.16-4.73-6.016-6.371-10.784-5.488-8.181 1.53-9.843 11-16.421 17.488a27.617 27.617 0 0 1-7.246 4.491c-13.69-7.635-17.85-22.894-31.055-20.013-3.081.674-3.451 3.557-2.451 7.208-1.451-1.526-6.72-3.555-10.427-1.774a5.852 5.852 0 0 0-3.504 5.44c.258 2.776 2.976 3.854 7.613 11.45 2.955 4.86 4.813 8.582 6.56 11.577a75.41 75.41 0 0 0 1.416 10.485c3.749 11.541 21.483 15.491 34.547 9.218 7.214-3.479 7.75-7.232 8.448-10.144 15.613-9.213 16.829-23.2 22.051-35.754a10.089 10.089 0 0 0 1.253-4.184z"/><path fill="#FFC5F6" d="M240.213 169.573c-38.262 6.411-35.102 16.337-24.306 16.765 5.887.384 8.764-.533 41.725-6.455-7.414-2.123-12.917-3.222-17.419-10.31z"/><path fill="#0F0F0F" d="M288.961 119.899c-6.24 4.717-11.09 20.235-18.439 18.653a39.15 39.15 0 0 1-4.39-3.262c-4.133-3.469-7.576-8.703-12.117-12.14-6.229-5.014-18.592-6.451-19.214 1.989-7.746-3.387-15.351 3.451-12.981 9.461.897 2.366 2.454 3.555 4.531 6.344 4.182 5.6 7.069 11.981 10.73 17.376a36.02 36.02 0 0 0 .092 5.736c1.3 12.893 16.471 18.72 29.212 16.126 7.864-1.614 17.15-6.56 16.843-14.388 15.512-7.751 17.539-21.616 24.049-37.098 4.186-9.95-10.172-15.046-18.316-8.797zm15.347 6.023c-.151 1-.839 2.014-2.451 6.54-5.701 15.989-8.728 28.624-27.552 34.861-13.271 4.32 1.043 1.733 6.264-.339-3.04 12.141-38.194 16.181-40.693-4.986 4.376 4.623 14.365 8.724 24.262 8.052 4.586-.346 6.751-.868.015-1.468-7.415-.712-16.48-3.444-21.218-8.219-4.608-4.614-8.194-15.657-15.966-24.625-1.253-1.452-2.287-2.784-1.652-4.583 1.319-3.499 6.56-4.571 9.965-1.83 1.41 5.355 7.52 15.286 10.029 18.317 3.469 4.291 7.749 5.382 13.158 6.324 10.106 1.538 11.296.584.589-2.598-8.254-2.584-9.491-3.376-13.792-10.422-5-8.364-11.349-18.88-1.977-18.026 12.504.976 13.699 13.709 29.665 21.28 9.546 4.437 17.101 2.307 16.941 1.55-.101-.998-6.002.215-14.854-4.376 11.172-5.156 10.651-21.156 23.537-20.36 3.832.234 6.063 2.666 5.731 4.906l-.001.002z"/><path fill="#0F0F0F" d="m239.804 171.005-.304-2.4c-8.461.741-33.76 5.08-33.197 13.576.581 8.693 14.424 6.958 22.993 5.198 4.152-.853 25.983-5.6 31.255-6.856l-.48-2.377c-22.629 3.62-49.818 11.004-50.064 3.84-.429-4.605 25.001-10.186 29.797-10.981z"/><path fill="#FDFE1F" d="M236.49 149.87c-.96-21.836-9.007-42.411-25.203-57.318 3.35-4.438 1.28-9.384-2.906-13.077a71.184 71.184 0 0 0-16.275-10.177c-6.629-2.628-17.821-4.903-22.213.726-1.037 1.325-.488 1.25-1.355 1.062a94.539 94.539 0 0 0-36.178-1.006c-11.984 2.045-11.323 5.037-13.941 3.706-2.001-1.018-1.404-5.8-10.102-3.013a52.823 52.823 0 0 0-14.79 7.883c-3.395 2.531-5.261 3.936-4.618 8.31.703 4.778-.48 4.352-4.27 7.23-5.243 4-12.848 16.682-16.596 26.265-7.61 19.465-3.382 30.845-9.425 34.776a7.228 7.228 0 0 0-3.189 3.291c-3.178 6.706 4.767 29.451 8.07 37.213 3.928 9.227 8.128 7.227 10.71 7.893 7.302 1.82 8.48 19.235 41.98 31.36 14.573 5.28 17.92 3.889 18.48 5.048 1.624 3.398 5.502 4.118 8.928 4.8a49.5 49.5 0 0 0 26.691-2.759c2.424-.95 4.984-2.216 5.971-4.651.724-1.781-.432-.786 3.428-2.222 5.259-1.986 8.524-4.104 14.345-5.92 5.92-1.855 4.597.15 8.723.011 7.778-.744 16.698-8.6 17.248-16.835.151-2.24-.91-3.352 0-5.588 10.378-19.054 17.437-33.918 16.487-57.008z"/><path fill="#fff" d="M105.193 128.441c8-10.731 25.952-8.262 30.494 2.69.971 2.342 4.654 18.411 1.659 19.768-1.453.658-9.859-2.92-16.408-3.04-4.997-.096-10.737 1.586-15.2 2.688-2.096.515-2.814.038-3.533-2.026a22.081 22.081 0 0 1 2.988-20.08zm28.171 42.028c-4.016 1.899-15.146 4.571-16.299 13.307-.533 4.037 1.44 7.664 6.675 8.779 11.539 2.461 16.48-10.04 39.565-5.232 16.622 3.461 18.475 4.026 21.31 3.84 6.864-.437 8.995-6.536 5.984-11.605-5.528-9.307-35.331-19.449-57.235-9.089z"/><path fill="#0F0F0F" d="M237.295 149.838c-1.357-25.209-11.175-44.817-24.909-57.392a9.02 9.02 0 0 0-.274-9.93c-2.609-4.142-13.969-12.66-24.366-15.58-6.426-1.76-15.637-2.304-19.026 3.36a95.817 95.817 0 0 0-40.425-.272c-6.543 1.315-8.64 4.925-10.307 2.121-3.191-5.353-9.199-2.865-14.775-.145a55.518 55.518 0 0 0-12.763 8.077 6.806 6.806 0 0 0-2.467 5.907c.331 4.424 1.336 3.987-2.847 6.856-5.564 3.648-12.91 16.2-15.68 22.253-3.2 6.921-6.257 14.789-8.081 32.521-1.136 9.22-4.343 5.362-6.656 10.53-3.389 7.178 5.12 31.432 8.578 39.086 4.019 8.266 8.273 6.514 10.704 7.178 5.495 1.502 15.868 28.55 59.943 35.984 1.789 3.718 5.842 4.533 9.517 5.243a50.077 50.077 0 0 0 27.127-2.801c3.425-1.346 5.649-2.685 6.732-5.959 5.796-1.744 16.858-7.68 20.255-7.558 1.64.054 3.408 1.037 5.526.745 8.754-.929 19.186-10.667 17.483-20.211-.904-5.459 18.421-26.064 16.711-60.013zm-6.72 26.24c-3.085 11.295-8.335 20.364-11.859 27.224-1.332 2.589-2.348 3.64-1.672 7.136 1.363 7.786-7.84 15.693-14.252 16.439-1.28.265-2.857-.565-5.153-.651-4.016-.14-14.928 5.984-19.914 7.88-.429-9.709-20.32-7.378-20.128-6.188.104.692 15.04.32 16.763 5.242a4.546 4.546 0 0 1-1.779 4.773c-7.262 5.142-35.862 7.211-36.096-.195-.203-6.456 14.522-7.416 14.488-8.303-.03-.96-17.6-1.208-17.613 8.343 0 .16-26.854-3.887-46.424-24.573-5.307-5.723-6.85-10.696-12.097-12.16-3.063-.757-5.34.984-8.32-5.343a118.708 118.708 0 0 1-8.538-29.142c-1.469-8.125 1.189-7.84 3.557-9.81 7.776-6.625-.984-28.731 22.24-57.733 3.8-4.625 8.832-4.742 8.128-10.828-.235-2.327-1.016-3.728.91-5.45a52.526 52.526 0 0 1 11.919-7.645c4.185-2.099 8.497-4.348 10.449-1.198 3.04 4.757 7.056 1.698 9.941.507 6.28-2.806 23.933-5.36 42.789-1.749-.8 7.056 13.472 12.496 13.75 11.253.06-.267-1.129-.79-3.112-2.069-15.169-9.61-5.177-15.248 8.189-11.36 8.448 2.532 20.029 10.264 22.456 13.92 3.267 4.74.653 10.314-9.145 8.4-4.46-.865-7.52-2.42-7.741-2.037-.515.868 11.504 8.113 18.277 3.436 20.932 20.504 27.752 54.574 19.972 81.88l.015.001z"/><path fill="#0F0F0F" d="M213.733 116.654c-.418.237 7.083 13.872 4.502 18.733-1.211 2.358-3.804 2.939-6.811-.453a5.028 5.028 0 0 0 3.16-5.613c-.355-2.862-5.8-13.217-6.016-13.6-3.014-5.403-7.741-5.363-9.574-2.592-.48-6.251 4.014-9.182 10.331-2.315 5.483 5.648-.077-1.968-1.76-3.379-4.4-3.67-8.029-2.742-9.941 1.448-2.675 6.314 2.531 14.149 7.103 20.917 2.542 3.715 5.108 7.608 8.04 9.081 4.203 2.212 8.31-1.404 8-6.188-.348-6.333-6.45-16.501-7.034-16.039zm-14.291-1.774c.179-1.703 2.56-3.163 5.067-1.587 2.27 1.344 3.379 4.564 4.917 7.638 2.88 5.752 3.499 6.934 3.755 8.59a3.758 3.758 0 0 1-2.53 4.48c-5.5-6.939-12.515-19.212-11.209-19.12v-.001zm-77.067 100.914c-3.271-3.813-14.77-10.354-19.975-12.559-8.078-3.097-11.348 3.266-8.435 8.251 3.165 5.5 13.184 11.828 13.496 11.154.267-.402-12.568-9.205-12.445-14.707.021-2.658 2.08-4.335 6.287-2.659a5.02 5.02 0 0 0-.298 6.433c1.629 2.437 11.328 9.339 11.49 9.45 5.152 3.488 9.329 1.272 9.718-1.991 2.829 4.698.691 8.93-4.8 7.655-1.76-.207-10.88-3.771-3.742-.099 10.597 5.798 15.219-3.378 8.704-10.928zm-5.162 5.708c-2.632-.177-5.07-2.56-7.825-4.611-4.45-3.317-6.154-4.493-7.22-5.985a3.752 3.752 0 0 1 .247-5.141c7.435 3.441 19.921 11.485 18.611 12.04.608 1.606-.866 3.977-3.813 3.697zm88.858-33.182c-2.431 3.848-8.666 14.936-8.347 19.52.22 4.32 4.96 5.842 8.539 3.4 4.728-3.186 9.667-12.469 9.005-12.73-.576-.32-9.41 15.2-14.4 11.2-1.061-.846-1.101-2.664-.522-4.536a4.559 4.559 0 0 0 5.683-.222c1.584-1.219 2.647-3.003 5.267-6.992 1.724-2.621 3.78-5.213 3.712-8.027a4.126 4.126 0 0 0-3.443-4.331c2.136-1.421 5.144-1.836 6.192.179 1.715 3.057-1.097 9.229-.531 9.427.32.11 1.64-3.162 1.875-3.84 3.517-9.683-6.781-12.562-13.03-3.048zm4.113-1.491c1.351-.608 3.476.536 3.404 3.102 0 2.202-1.458 3.827-6.044 10.896a13.19 13.19 0 0 1-2.4 3.019 3.302 3.302 0 0 1-4.398.2c3.04-7.934 9.029-18.022 9.438-17.211v-.006zM172.744 86.24c-3.865-3.2-12.96-5.096-13.02-4.469-.077.335 8.699 2.808 11.875 5.76 2.315 2.18 1.939 5.304-2.517 5.24a4.021 4.021 0 0 0-1.6-4.761c-1.426-1.037-3.165-1.484-7.23-2.72-2.639-.8-5.356-1.906-7.724-1.15a3.643 3.643 0 0 0-2.814 3.991c-3.598-3.024-2.592-6.504 3.026-6.829 1.245.033 2.49-.085 3.707-.353.019-.367-9.699-2.354-10.367 3.21-.331 2.74 1.832 5.338 4.48 6.809 3.373 1.882 13.962 3.71 18.154 3.83 6.771.178 7.669-5.579 4.03-8.558zm-21.651 2.734a2.408 2.408 0 0 1-.118-2.32 2.401 2.401 0 0 1 1.902-1.333c1.877-.553 3.68.306 10.731 2.413 1.109.27 2.171.702 3.154 1.28.627.35 1.102.92 1.334 1.6.234.677.208 1.42-.072 2.08-6.316-.505-17.648-3.04-16.931-3.72zm-64.187 17.141c-.405-.331-6.64 6.41-10.662 16.629-3.458 8.723-6.218 24.48-5.28 35.04.509 5.882 1.6 9.371 1.883 9.314.352-.06-.149-3.637-.222-9.388a116.868 116.868 0 0 1 5.646-34.206c3.81-10.616 9.114-17 8.635-17.389zM199.789 88.53c3.295.697 5.053-2.143 3.818-3.956-1.775-2.5-11.707-7.49-12.043-6.72-.226.48 11.601 7.244 10.048 8.372-1.76 1.196-26.064-10.98-21.746-12.192 1.89-.492 5.363.699 5.47.52.229-.39-2.931-2.301-5.744-1.99-1.953.238-2.88 2.895.42 5.673 4.835 3.966 15.776 9.385 19.777 10.293zM141.834 237.4c-.026.629 5.946 1.333 13.28.566 7.331-.741 13.034-2.645 12.882-3.256-.152-.649-5.964.195-13.12.919-7.165.75-13.026 1.104-13.042 1.771zm66.006-19.07c-6.52 5.331-5.045 7.16 1.488 1.82 6.533-5.339 5.039-7.16-1.488-1.82zM103.555 81.561c9.256-5.299 6.156-6.228-1.166-2.04-7.046 4.021-8.401 7.5 1.166 2.04zm42.417 123.252c-3.04-3.231-18.787-8.338-20.311-2.786a3.82 3.82 0 0 0 1.476 3.638c2.11 2.028 5.92 2.712 6.046 2.412.234-.551-2.949-1.327-4.829-3.544-5.76-6.802 19.573.556 16.626 3.577a4.044 4.044 0 0 1-2.315.655c-3.68.094-6.068-.548-6.149-.21-.218.605 7.213 3.269 9.825.949a3.346 3.346 0 0 0-.369-4.691zM188.221 93.03c-.684-.13-1.072-.028-1.102.12-.096.348 1.28.776 2.411 2.4 1.229 1.719 1.315 4.692-.371 3.428a44.896 44.896 0 0 1-6.118-6.616c-7.94-8.56 1.969 7.68 5.6 8.96a2.871 2.871 0 0 0 3.5-1.034c1.543-2.472-.86-6.651-3.92-7.258zm-100.39 49.85c-.202.118.392 6.494-1.552 7.179-.504.277-2.08-.104-2.641-1.92-.781-2.381.791-5.065-.095-9.825-.517-2.684-1.44-4.116-1.718-4.015-.32.117 0 1.693.067 4.191.112 5.428-2.954 11.371 2.574 13.611 1.728.75 3.82.041 4.612-2.72.875-3.234-.695-6.893-1.247-6.501zm115.689 32.749c-.256-.248-1.369.393-1.524 2.049a3.74 3.74 0 0 0 1.473 3.112 3.712 3.712 0 0 0 3.395.573 3.706 3.706 0 0 0 2.413-2.456 3.732 3.732 0 0 0-.632-3.384c-1.097-1.251-2.372-1.12-2.436-.766-.071.398 1.708 1.587 1.156 3.262a2.014 2.014 0 0 1-2.067 1.195 2.022 2.022 0 0 1-.803-.265c-1.454-1.061-.671-3.034-.975-3.32zm-136.115 2.987c-5.333-21.85-7.68-21.517-2.281.557 3.836 15.502 9.057 26.849 2.281-.557zm81.295-75.917c-.6-1.91-1.48-2.81-1.747-2.673-.306.16 0 1.264.115 2.987.665 10.19-6.474-4.407-7.391-4.106-.32.103-.201 1.32.432 3.107 3.807 10.692 10.724 7.66 8.591.685zm-9.741 47.909c2.688-9.12.179-20.696-7.41-26.515a19.865 19.865 0 0 0-24.053-.223c-8.499 6.266-10.24 18.408-6.037 26.842-5.28 2.803-9.196 6.779-8.72 7.325.855.98 10.229-7.495 25.976-8.194 15.94-.709 25.807 6.95 26.6 5.858.268-.367-1.878-2.682-6.356-5.093zm-35.255-.994a21.17 21.17 0 0 1 .08-15.176c4.176-11.333 19.861-15.376 29.029-3.905a25.58 25.58 0 0 1 3.805 18.921 40.504 40.504 0 0 0-32.914.16z"/><path fill="#0F0F0F" d="M118.881 129.138c-2.73 2.315-1.365 8.94 6.75 9.667-5.845 3.221-1.573 13.936 4.488 10.203 8.429-5.187-3.41-26.507-11.238-19.87zm21.44-6.025c-6.037-6.952-12.509-7.465-12.332-8.518.143-.851 8.394-.12 14.364 6.754 5.905 6.803 5.539 15.148 4.672 15.169-.93.023-1.021-6.851-6.704-13.405zm-29.365 47.618c-4.248 4.536-4.435 9.315-5.309 9.288-.946-.029-1.149-6.331 3.346-11.128 4.611-4.923 10.806-4.878 10.88-4.064.086.85-4.746 1.453-8.917 5.904zm83.035 12.259c-.986-6.248-5.677-9.777-11.466-12.608-18.056-9.233-41.42-7.499-58.779 3.031-14.517 9.013-7.121 19.059 1.557 20.489 7.437 1.076 14.165-3.504 20.514-5.358 14.688-4.371 30.72 6.88 41.708 3.68 4.956-1.454 7.13-5.024 6.466-9.234zm-5.208 4.536c-8.392 5.997-26.88-7.622-43.944-2.24-7.154 2.24-19.36 10.458-25.59 2.024 17.451-7.753 29.27-7.886 29.168-8.984-.055-.68-14.216-.545-30.261 6.527-.707-4 3.472-7.09 6.974-9.101 29.24-16.49 62.954-3.774 65.079 7.483-18.765-8.995-39.476-5.613-39.488-5.315-.042 2.019 18.894-2.014 39.252 8.203a4.419 4.419 0 0 1-1.19 1.397v.006zM97.11 103.05c-1.7 1.713-3.294 3.308-2.76 5.684a12.347 12.347 0 0 0 2.834 4.994c4.8 5.229 9.661-.523 15.263-2.896 8.205-3.56 15.393 2.106 18.979-3.334 9.029-13.695-18.146-20.75-34.315-4.448zm84.044 26.171c-8.593 1.027-14.92 4.228-14.608 5.024.242.614 3.583-.071 8.427-.868 3.36 7.412 12.461 3.744 11.653-1.483 5.696-.497 9.821-.593 9.92-1.313.106-.848-6.805-2.432-15.392-1.36z"/><path fill="#0F0F0F" d="M182.869 140.085c-7.448.849-13.531.278-13.533-.448 0-.76 5.946-1.397 13.229-2.227 7.283-.831 13.219-1.549 13.391-.8.161.7-5.639 2.627-13.087 3.475z"/><path fill="#0F0F0F" d="M193.093 152.225a27.394 27.394 0 0 0-31.462-.438c5.099-8.096 4.652-20.069-2.572-29.899 8.055 2.827 14.252-2.24 17.132-10.288.844-2.445.572-2.735.736-1.815a16.35 16.35 0 0 0 15.472 13.109c2.784.032 4.364-.72 4.305-1.12-.19-1.28-12.217.104-17.587-12.64-1.232-2.864-1.504-5.251-2.866-2.739a42.348 42.348 0 0 1-5.46 9.154 9.687 9.687 0 0 1-11.911 3.056c-3.389-1.332-9.899-6.037-10.577-5.242-.616.96 15.744 12.026 13.393 29.933-.817 7.462-5.805 13.622-5.189 14.121.397.364.434-.774 6.372-3.726 19.68-9.946 33.825 4.499 34.712 3.624.297-.259-1.079-2.549-4.498-5.088v-.002z"/><path fill="#fff" d="M122.036 255.566A24.93 24.93 0 0 0 96.88 260c-1.361-1.744-2.054-2.498-2.13-6.614-.12-6.506 1.222-7.546 8.31-9.364-.216-1.912-1.415-8.688-12.559-6.673-9.003 1.635-7.96 3.136-16.246 2.795-4.197-.171-12.546-.998-12.733 5.624-.054 2.186 5.192 28.293 5.65 31.821 1.708 13.19 1.427 21.707 12.785 23.125 6.011.748 34.786.128 45.298-1.903 5.702-1.112 7.771-3.725 9.102-9.525 3.346-14.406 1.655-28.848-12.321-33.72z"/><path fill="#FFC5F6" d="M136.357 231.64c-22.13-14.285-23.581-15.642-26.56-16.061a4.658 4.658 0 0 0-5.29 3.09c-1.502 3.502-.024 6.357 2.603 9.245a103.595 103.595 0 0 0 18.122 14.998l.307.96c-7.36 2.272-26.304-1.312-29.389 4.675a11.727 11.727 0 0 0-.881 4.842 10.141 10.141 0 0 0 1.347 6.929 25.597 25.597 0 0 1 9.082-5.353c7.947-2.632 19.409-.999 26.016 6.491 9.71-.722 20.305-3.08 21.852-12.698 1.525-9.464-9.337-12.036-17.209-17.118z"/><path fill="#0F0F0F" d="M154.706 241.747c-3.571-6.795-9.787-6.4-34.56-23.385-4.861-3.343-9.815-6.805-14.765-4.135a9.185 9.185 0 0 0-3.538 5.811c-.622 4.8 2.78 8.16 5.975 11.164 16.685 15.603 25.705 11.052.056 11.308-4 .04-2.117.752-3.613-1.667a12.16 12.16 0 0 0-8.293-4.925c-4.45-.809-8.817.655-13.225 1.727-7.343 1.792-8.32.461-13.568.443-6.317.026-9.581 3.694-9.62 7.622-.059 1.92-.132 1.104 4.77 28.085 2.72 14.949.344 27.693 16.232 29.362 7.426.651 33.454.027 45.141-2.103a12.133 12.133 0 0 0 8.294-4.872c3.855-5.809 5.827-22.993.731-32.55a31.523 31.523 0 0 0 14.765-4.582c5.594-3.668 8.463-11.132 5.218-17.303zm-21.253 45.293c-2.08 10.538-3.898 10.91-25.626 12.152-8.195.48-24.892.446-26.939.266-9.731-.786-10.56-6.88-11.869-17.78-3.755-31.563-10.88-39.04-1.086-40.339-1.677 5.898.902 11.658 2.589 19.84 4.014 18.536.681 30.491 12.579 33.512 8.062 1.952 45.464-1.589 45.344-2.609-.062-.575-37.362 1.956-44.666 0-5.905-1.56-6.95-6.312-7.472-12.373-1.92-25.178-7.776-31.427-4.947-38.376 1.578.118 3.234.32 4.96.305 8.443-.129 15.858-5.8 23.171-1.795-4.744-1.629-10.027 1.861-11.443 6.695-1.942 6.278 1.845 13.974 2.39 13.748.7-.283-4.049-11.856 2.415-16.71a5.642 5.642 0 0 1 3.67-1.502 5.641 5.641 0 0 1 3.752 1.28 9.186 9.186 0 0 0-5.745 3.619c-1.683 2.771-1.677 10.037.6 12.993-7.09 7.162-5.903 17.33-5.106 17.12.48-.036.309-5.42 3.314-10.916 3.3-6.162 11.803-11.588 21.897-10.685 17.148 1.601 21.405 14.774 18.218 31.555zm18.349-36.771c-2.515 7.349-11.765 9.225-19.533 9.801-7.181-8.16-23.822-11.129-35.173-1.88-.886-1.902-.46-6.016-.259-7.286 1.232-7.872 21.098-2.661 30.664-6.162 6.88 3.52 8.432 3.714 1.722-.769-7.608-5.146-28.592-18.995-23.012-25.567.506-.58.248-.673 1.53-1.353 4.347-1.831 15.554 9.093 30.747 17.389 7.215 3.976 16.272 7.352 13.314 15.827z"/><path fill="#92FCFF" d="M309.306 96.125C300.16 67.888 276 58.007 261.76 64.745c-1.155.548-66.379 37.082-67.227 37.511-6.662 3.426-2.651 5.699-8.29 8.77-5.02 2.747-17.129 10.769-17.32 10.905-2.921 2.08-4.212 3.981-3.62 10.208.667 6.963 4.444 18.733 9.225 21.6 1.781 1.069 4.143.578 13.175-.025 4.214 8.593 7.84 8 11.428 7.171 5.13-1.176 9.474-1.462 12.882-5.045.974-.093 1.574-.152 3.36-.438 11.666-1.904 34.984-2.732 72.526-6.88 13.44-1.482 30.732-23.532 21.407-52.397z"/><path fill="#0F0F0F" d="M304.784 106.186c-2.918-18.317-16.972-40.053-35.2-35.876-30.932 6.77-17.011 59.36 2.551 68.693 15.881 7.834 36.704-6.912 32.649-32.816v-.001zm-34.768 24.72c-12.16-5.836-18.225-35.84-13.182-44.903 5.622-10.765 25.539-14.213 34.702 11.936 8.594 25.219-8.851 39.408-21.52 32.967zM301.6 117.6c-2.739 15.688-16.96 23.565-27.84 18.013-.427-.207-2.899-1.562-1.984-1.248 8.12 2.31 15.957-1.6 20.34-8.363 13.401-20.348-8.596-60.87-31.13-47.6a18.879 18.879 0 0 1 22.8-3.018c12.659 7.165 20.098 28.723 17.814 42.216z"/><path fill="#0F0F0F" d="M312.682 106.76c-4.17-34.422-33.962-53-53.536-41.96-78.595 44.32-67.587 36.2-71.04 42.966-.73 1.429.544-.337-17.429 11.317-2.56 1.663-5.075 3.098-6.153 5.976-2.688 7.04 3.737 27.482 10.308 29.824 2.045.717 2.653.379 12.079-.361a17.402 17.402 0 0 0 4.835 6.377c2.738 2.141 4.709 1.651 7.63 1.039 4.25-.989 10.18-1.493 13.588-5.564 82.662-8.744 76.48-4.094 87.284-13.462 9.788-10.043 14.22-21.274 12.434-36.152zm-87.6 14.597c2.814 10.277 7.226 24.985 17.696 28.891-13.131 1.336-18.822-14.528-22.283-27.091-3.04-10.88-6.251-25.296 1.877-33.373 7.163-3.987-6.2-.395 2.71 31.573zm-39.178 30.777c-9.468.528-10.292 1.533-12.728-2.203a38.985 38.985 0 0 1-6.043-17.038c-.944-8.69.698-8.264 9.72-13.97 3.267-2.065 6.682-4.256 10.139-6.096a35.924 35.924 0 0 0 .839 13.941c2.174 9.28 2.864 5.725.275 7.974-4.674 3.946-4.312 11.645-2.202 17.392zm17.388.975c-1.042 4.174-5.136 6.861-9.068 5.075-4.872-3.397-8.918-16.16-3.84-20.818 5.776-5.278 15.303 6.711 12.908 15.743zm7.691.47c-1.511 2.24-4.234 3.159-6.864 3.771 5.15-6.88.64-19.652-6.88-22.824a13.497 13.497 0 0 1 7.464-.603c7.261 2.026 10.608 13.227 6.28 19.656zm18.177-1.829c-13.203 1.477-9.193.991-14.585 1.92 2.92-6.787.227-15.04-4.507-19.651-5.21-5.28-11.56-3.566-18.466-1.083-1.202-5.566-2.571-11.2-2.24-17.352.333-4.917 1.339-5.486 1.723-6.286 2.933-5.871-2.459-.941 26.522-16.883-6.378 11.163-.131 33.318 4.464 44.012 2.373 5.507 6.011 11.223 11.329 14.045 1.831.925 3.133.454-4.24 1.278zm76.22-21.572a36.462 36.462 0 0 1-7.533 10.214c-4.099 3.586-5.792 5.339-12.946 5.957-39.813 3.435-47.283 10.592-57.222-25.701-3.018-10.971-6.378-26.053 1.401-34.611 33.98-19.159 33.13-18.73 34.618-19.33 9.363-3.77 25.826-.24 36.986 17.263 8.547 13.45 12.048 32.219 4.696 46.208z"/><path fill="#fff" d="M261.354 76.32c-17.538 14.293-3.215 67.016 23.702 62.338 15.487-2.692 26.712-27.943 12.587-51.803-7.323-12.367-23.443-20.999-36.289-10.535z"/><path fill="#0F0F0F" d="M305.625 107.149c-1.875-16-12.982-35.463-28.462-37.28-15.816-2.029-29.144 10.771-25.739 34.723 7.296 53.714 58.496 40.811 54.201 2.557zm-5.193 10.912c-3.823 14.685-17.672 20.733-27.735 15.118-14.945-7.88-25.889-48.7-5.24-57.555 23.472-9.214 37.442 24.643 32.975 42.437z"/><path fill="#0F0F0F" d="M292.341 93.456c-13.571-24.949-29.31-9.27-21.642 2.218a17.1 17.1 0 0 0 12.736 6.81c-10.87 6.574-3.172 28.489 8.106 20.868 8.469-5.721 4.821-22.502.8-29.896zm7.499-52.411a6.434 6.434 0 0 0-3.597-4.072c-26.513-14.914-58.339 1.291-58.893 9.44-.35 4.243 5.96 11.314 8.445 14.06 3.791 4.186 10.066-.764 14.783-3.167a36.68 36.68 0 0 1 14.208-2.64c6.219.109 15.95 4.008 18.411 3.744 1.547-.16 1.982-1.303 2.613-2.704 1.297-2.882 4.713-11.575 4.03-14.661z"/><path fill="#FDFE1F" d="M187.805 82.437c24.722-2.869 36.229-42.213 23.269-53.61-2.69-2.366-14.066-6.72-18.354-7.66-24.984-5.463-44.936 33.28-32.691 49.64 4.064 5.37 20.746 12.447 27.776 11.632v-.002z"/><path fill="#0F0F0F" d="M207.61 25.806a82.93 82.93 0 0 0-14.72-5.428c-28.554-6.24-49.655 42.117-28.871 55.006 5.28 3.27 18.088 8.867 23.877 7.832 25.496-2.51 40.397-48.336 19.714-57.41zm5.973 13.293c-5.72-.825-5.237-1.2-9.829-3.36a17.487 17.487 0 0 0-4.48-10.003c-.338-.346-1.397-.832 4.19 1.622 4.253 1.972 8.583 2.685 10.119 11.741zm-.732 14.12c-6.641-.907-5.448-1.176-10.467-3.326a37.69 37.69 0 0 0 1.575-11.907c7.716 1.813 3.577.705 9.892 3.189a34.778 34.778 0 0 1-1 12.044zm-51.26 16.37c-8.8-10.856-.8-39.547 20-45.97 6.1-1.884 12.028-1.267 16.348 3.36 8.628 9.25 1.794 29.077-6.144 39.226-4.912 6.363-10.468 10.2-18.512 9.637a18.559 18.559 0 0 1-11.692-6.253zm13.92 8.056a20.31 20.31 0 0 0 10.001-2.784c2.674 1.12 4.043.49 8.784 3.29-6.846 3.25-11.461 2.206-18.776-.506h-.009zm20.864-.608c-4.407-1.338-3.893-.571-8.858-3.54a36.692 36.692 0 0 0 7.363-7.897c4.728 1.211 3.088-.25 10.493 3.087a31.848 31.848 0 0 1-8.99 8.35h-.008zm10.2-10.051c-7.189-1.41-3.749-.376-10.472-3.223a53.526 53.526 0 0 0 5.632-11.81c4.691 1.258 2.364-.175 10.585 3.101a46.787 46.787 0 0 1-5.737 11.932h-.008z"/><path fill="#0F0F0F" d="M170.275 72.354c9.031 3.963 19.426-8.788 23.498-16.64 6.296-12.296 6.672-29.213-6.379-30.413-8.723-.768-17.031 7.881-20.525 15.437-3.306 7.136 6.821-15.5 20.397-14.08 11.864 1.28 10.784 17.12 5.043 28.29-2.915 5.618-10.494 15.137-16.504 16.447-8.01 1.748-15.946-8.222-11.082-24.542.871-2.84 2.514-6.64.888-3.587-5.113 9.614-5.166 24.937 4.664 29.088z"/><path fill="#0F0F0F" d="M182.325 33.65a18.55 18.55 0 0 0-2.027-.49c-1.227 2.77-3.018 9.17-5.138 13.9-2.12 4.732-5.291 10.67-6.214 13.615 1.811.588 1.632.48 1.792.597-1.339 2.698-.402 5.92 1.28 1.237.142-.408.054-.368.336-.21 2.105 1.181 2.08.544 1.846 1.154-1.638 4.291.48 3.395 1.543.598.288-.734.033-.565.689-.561 6.813.124 8.618-10.45 5.656-15.023a7.19 7.19 0 0 0 4.917-2.78 7.21 7.21 0 0 0 1.395-5.472 7.208 7.208 0 0 0-1.565-3.489c1.269-2.019.925-4.036.444-4.067-.482-.03-.941 1.186-1.536 2.586-.258.624.187.397-1.949-.846 1.878-3.679.184-4.679-1.469-.75zm-9.429 25.182a83.35 83.35 0 0 1 3.44-10.858 8.21 8.21 0 0 1 4.133 2.56c3.371 4.986.074 15.03-7.573 8.298zm13.76-18.683a4.277 4.277 0 0 1-1.587 5.093c-2.466 1.645-5.206.187-7.155-.55 1.403-2.74 3-5.535 4.176-7.735 2 .66 3.83 1.355 4.566 3.192z"/><path fill="#FDFE1F" d="M45.493 175.114c-5.793-.348-10.456 2.51-16.022 5.934a14.943 14.943 0 0 0-4.88 3.816c-8.77 12.226 9.44 49.152 30.912 50.098 5.974.262 15.184-5.538 19.094-9.082 13.738-12.44-7.696-49.485-29.104-50.766z"/><path fill="#0F0F0F" d="M79.218 210.2c-3.173-15.47-16.96-34.56-33.679-35.872-5.836-.457-11.21 2.778-16.49 6.032a15.301 15.301 0 0 0-5.106 4.045C13.76 198.435 36.504 237.97 57.6 235.757c3.84-.424 10.148-3.84 13.695-6.325 6.19-4.297 9.934-8.342 7.923-19.232zM30.66 182.949c7.84-4.96.866-2.347 1.742 8.011-3.462 2.384-3.287 2.704-7.57 3.763-.53-8.339 2.48-9.603 5.828-11.774zm-5.646 13.68c4.86-2.8 2.35-1.682 7.65-3.579a43.333 43.333 0 0 0 3.774 11.512c-3.762 2.389-3.232 2.617-8.05 3.753a40.406 40.406 0 0 1-3.374-11.686zm4.147 13.31c5.86-3.369 4-1.889 8.2-3.512a64.222 64.222 0 0 0 7.305 11.095c-5.355 3.04-2.153 1.635-8.06 3.635a56.307 56.307 0 0 1-7.445-11.218zm8.74 12.679c4.48-3.085 4.018-2.157 8.16-3.453a41.693 41.693 0 0 0 8.105 7.218c-3.325 2.835-3.058 2.273-6.701 3.852a35.929 35.929 0 0 1-9.565-7.617zm11.463 8.512c3.26-2.733 4.62-2.439 6.754-3.616a17.857 17.857 0 0 0 9.44 1.984c-6.122 3.286-9.522 4.323-16.194 1.632zm26.915-11.192c-1.094 3.027-2.763 4.441-6.472 6.973-11.453 4.334-21.896-7.21-28.382-17.65-17.096-28.31-.533-39.859 17.417-26.944 15.27 10.922 20.296 29.706 17.437 37.621z"/><path fill="#0F0F0F" d="M69.067 198.541a21.683 21.683 0 0 0-2.708-3.936c-.386.253 4.845 6.781 5.92 16.392.464 4.509-.32 9.752-4.03 11.858-4.617 2.772-10.16-2.16-13.8-5.252a48.915 48.915 0 0 1-13.617-19.484c-1.828-4.864-2.817-12.031.232-15.188 2.123-2.24 6.853-3.315 12.208-.254 8.96 5.176 12.506 12.021 12.943 11.717.436-.304-10.535-16.416-21.338-14.714-11.76 1.874-7.264 18.999.304 29.888 4.877 6.946 16.52 18.935 23.749 14.439 7.443-4.389 4.725-17.239.137-25.466z"/><path fill="#0F0F0F" d="M55.402 202.686c1.669-.284 2.4-1.752 3.04-2.702 1.971-2.952 1.69-3.285 1.44-3.947-7.36-5.6-7.755-6.162-13.042-8.885a69.943 69.943 0 0 0 2.56 12.733c.666 2.182.43 1.822.887 2.022a10.17 10.17 0 0 0 5.115.779zm-6.627-12.766a77.125 77.125 0 0 1 9.705 6.976 14.804 14.804 0 0 1-1.313 2.24c-.858 1.28-1.44 3.216-5.967 1.506a55.85 55.85 0 0 1-2.425-10.722z"/><path fill="#0F0F0F" d="M56.858 210.613c1.845 1.912 3.718 3.888 6.318 4.44 1.898-1.707-.118-13.779-1.584-17.227-5.686 9.619-2.803 6.044-10.982 6.044 3.673 3.81.976 1.276 6.248 6.743zm1.6-5.211c3.24-2.482 2.493-6.034 3.125-1.936.526 3.227.803 6.49.828 9.76a16.092 16.092 0 0 1-4.579-3.8c-6.424-6.797-2.38-1.725.623-4.024h.003z"/><path fill="#FDFE1F" d="M123.82 33.064c1.129 5.144 11.221 15.736 16.833 16.989 8.399 1.87 19.322-8.821 3.976-24.453-2.814-2.869-6.337-5.874-10.592-6.018-4.785-.17-11.796 6.29-10.217 13.482z"/><path fill="#0F0F0F" d="M153.768 39.48c-.819-8.44-14.302-24.186-22.78-20.02-4.148 1.935-8.202 5.04-8.498 9.575-.712 9.738 13.6 24.357 22.606 22.341 4.173-.816 9.199-6.971 8.672-11.896zm-2.169 1.325c-1.179 2.166-5.002 1.307-7.28.374-7.491-3.04-17.999-18.112-10.016-20.069 7.32.01 18.112 12.461 17.296 19.69v.005zM130.775 22.24c-1.152 1.92-.64 4.67.15 6.76-2.206 2.507-1.889 3.01-5.193 4.64-1.967-5.398.112-8.613 5.043-11.4zM126.4 35.18c3.2-3.257 2.071-2.055 5.389-4.28a28.273 28.273 0 0 0 4.501 5.967c-2.174 2.629-.904 2.344-4.973 5.159a31.401 31.401 0 0 1-4.917-6.847zm6.167 8.129c2.88-4.119 2.601-2.87 5.166-4.973a19.63 19.63 0 0 0 5.61 4.094 19.88 19.88 0 0 1-1.519 2.88c-.8 1.053-2.24 2.052-2.763 2.695a24.546 24.546 0 0 1-6.494-4.696zm16.174 2.905a6.719 6.719 0 0 1-7.71 2.527c.428-1 .937-1.964 1.523-2.88.8-1.07 2.278-2.08 2.786-2.72a8.863 8.863 0 0 0 5.478.08 16.65 16.65 0 0 1-2.077 2.993z"/><path fill="#fff" d="M52.893 96.363c4.434 10.685 1.546 14.923 4.656 13.28 4.284-2.256 9.314-2.483 14.155-2.515 10.668-.072 13.105 1.525 23.586 7.064 2.514 1.328 1.243-5.342 12.277-15.829 2.24-2.134 11.89-7.262 23.093-9.798-2.6-6.341-5.76-6.091-6.032-15.173-.107-3.498-1.141-7.027-.232-10.4a19.275 19.275 0 0 1 7.459-10.658 29.598 29.598 0 0 1-7.253-2.664c-4.598-2.672-11.939-11.134-14.72-18.164a19.537 19.537 0 0 1-1.254-9.136c-12.373 2.71-29.527 2.596-36.176-8.119-3.04 5.955-4.218 7.245-7.381 10.021-4.66 4.086-9.866 11.475-30.482 13.723 1.03 2.165 1.28 3.384 4.693 15.967.824 3.04-1.28 18.984-5.78 23.777a32.27 32.27 0 0 1 19.391 18.624z"/><path fill="#0F0F0F" d="M132.056 52.55c.234-.91-8.921-2.93-15.742-12-7.238-9.617-6.896-18.24-7.725-18.276-.309-1.354-19.469 3.772-31.438-4.576-6.08-4.24-2.663-5.616-8.98 1.61A53.65 53.65 0 0 1 41.144 36c-8.416 2.19-7.314 0-5.386 7.866 2.57 10.502 3.25 23.224-1.74 32.48-1.209 2.344-2.132.465 4.422 4.526 16.297 10.624 16.232 29.28 17.44 29.25.64 1.416 13.41-6.368 34.576 2.454 7.68 3.2 4.715 3.766 9.44-3.339 10.478-16.408 31.184-19.39 30.998-20.584.787-.656-9.318-13.507-3.79-29.247 1.646-4.238 5.225-6.376 4.953-6.856zm-5.265 31.61c4.099 6.749 6.157 3.04-2.674 5.034-12.385 2.806-22.163 11.24-25.92 19.062a16.668 16.668 0 0 0-2.027 6.24c-3.4-5.008-21.098-11.982-34.66-7.323-8.234 2.685-4.33 5.224-5.324-3.378C54.7 90.08 43.78 78.56 34.218 77.6c5.194-3.653 9.31-19.214 3.414-34.314a19.602 19.602 0 0 0-2.752-5.267c2.976.835 12.828-.02 22.512-5.93a42.178 42.178 0 0 0 12.32-11.574c5.568-8.147.456-6.673 6.188-1.293 9.44 8.824 28.513 6.07 32.438 3.36-1.107 2.72-.16 11.784 5.75 19.655 4.89 6.499 12.343 10.117 16.861 10.465-7.726 3.012-11.881 18.47-4.158 31.458z"/><path fill="#FDFE1F" d="M80.67 99.437c-28.122-.176-41.6-37.214-25.06-57.07A34.621 34.621 0 0 1 90.767 31.63c15.43 4.33 27.403 20.416 25.198 36a71.38 71.38 0 0 1-2.126 11.659c-4.456 13.611-20.19 20.23-33.17 20.147z"/><path fill="#0F0F0F" d="m114.459 50.805-2.276 1.04a34.827 34.827 0 0 1 2.001 20.376c-6.317 31.643-47.694 34.272-60.659 5.56-8.34-18.469.875-40.3 21.325-44.784 14.549-3.189 29.774 3.323 37.333 18.843l2.276-1.04c-15.867-34.925-66.24-26.382-67.864 12.224-.675 16.09 10.933 33.04 27.724 37.296 30.875 7.81 52.28-23.662 40.14-49.515z"/><path fill="#fff" d="M69.79 53.51c-1.455-2.625.685-5.523 2.27-7.743a11.416 11.416 0 0 1 20.63 5.875c.518 7.963-6.608 13.323-6.805 16.977-.094 1.722.915 3.44.48 5.106-1.085 4.138-8.629 3.445-8.68-4.464-.038-6.166 3.715-8.915 5.563-11.778 3.63-5.622-.854-9.09-3.376-7.723-1.307.709-2.435 2.928-3.878 4.298a3.908 3.908 0 0 1-6.203-.547zm17.391 35.857a5.819 5.819 0 0 1-7.233-3.745c-.773-3.984 4.912-8.07 9.353-4.65 3.03 2.332 1.239 7.36-2.12 8.395z"/><path fill="#0F0F0F" d="M89.037 61.158c-2.532 4.108-5.35 4.79-4.042 10.157.363 1.178.523 1.994.18 2.596a2.82 2.82 0 0 1-2.031 1.316c-4.397.615-5.61-7.753-2.483-12.453 1.61-2.417 5.52-5.476 5.349-9.67a5.024 5.024 0 0 0-4.09-4.85c-4.5-.551-6.069 6.188-8.715 6.29-2.573.424-4.32-4.507.55-9.505 3.568-3.666 6.912-3.348 6.88-3.913-.02-.348-4.202-.521-7.954 2.767-6.596 5.78-4.148 13.242.705 12.822 4.467-.387 6.112-8.435 9.296-5.789 1.54 1.28 1.299 3.293.355 5.079-1.775 3.36-6.42 5.817-6.4 12.835.032 11.922 11.643 9.731 10.939 3.773-.218-1.847-1.144-3.094-.562-4.707.621-1.722 2.308-2.954 3.916-5.572 4.93-8.022 3.24-15.78-1.844-19.347-4.126-2.89-8.236-2.229-8.216-1.867.03.466 3.535.027 7.243 3.115 5.06 4.202 4.418 11.253.924 16.923z"/><path fill="#0F0F0F" d="M89.28 84.203c.627 6.621-10.256 5.205-7.584-1.067.96-2.24 2.928-2.69 2.835-3.19-.096-1.108-5.92.392-5.397 5.827.67 7.005 13.264 6.86 12.356-1.826-.567-5.398-7.03-5.172-6.773-4.03.083.627 4.204.531 4.563 4.286z"/><path fill="#FFC5F6" d="m294.05 255.72-4.677.998c-1.048-4.59-12.296-58.865-12.296-58.865-.605-2.88-1.32-10.304-2.327-6.788-12.107 24.64-13.995 28.276-13.969 28.436-.056.283.043-.602 0-.466-.024-.022-.099.565-.146.496-4.414-8.978-4.728-9.934-7.179-15.36-.651 1.28-8.211 15.853-8.285 16.027-1.6-1.329-12.755-15.68-13.307-15.312-1.037.683 8.539 14.179 9.306 15.2 1.44 1.92 3.067 3.944 4.587 5.795 1.057-1.92 6.088-10.944 7.377-12.724.33.979-.8-1.581 7.485 16.569l13.032-26.24s10.266 49.575 11.314 54.168l-4.624.986a1.334 1.334 0 0 0-.986 1.744c.082.239.23.451.427.609l8.864 7.109a1.33 1.33 0 0 0 1.671.005c.158-.125.285-.284.373-.466l4.848-10.035a1.333 1.333 0 0 0-.755-1.835 1.346 1.346 0 0 0-.733-.051z"/><path fill="#0F0F0F" d="M275.351 190.018c.414.916 12.188 58.668 14.022 66.7a48.434 48.434 0 0 1 4.96-1.028 1.332 1.332 0 0 1 1.127.63 1.344 1.344 0 0 1 .07 1.29l-4.848 10.035a1.331 1.331 0 0 1-1.507.723 1.343 1.343 0 0 1-.536-.262l-8.864-7.109a1.335 1.335 0 0 1-.465-1.353 1.344 1.344 0 0 1 1.023-1.001l4.624-.985c-1.048-4.592-11.314-54.168-11.314-54.168l-13.032 26.24c-8.336-18.256-7.145-15.567-7.484-16.57-.48.658.406-.842-7.378 12.725-6.323-7.695-15.272-21.013-13.846-21.013.768 0 11.372 13.76 13.26 15.325.074-.173 7.634-14.754 8.285-16.027 1.034 2.288 4.909 10.74 5.227 11.395 2.866 5.893 1.688 3.469 2.098 3.469 0 .177-.045.707 0 .465.006-.158 14.325-29.174 14.578-29.481zm.488-3.7c-3.327 4.052-.506-.902-15.149 28.868l-7.128-15.557s-8.506 16.352-8.903 17.105c-11.03-12.86-10.456-13.832-13.342-13.832-2.53 1.584-1.741 3.084 1.584 8.544a147.916 147.916 0 0 0 13.178 17.938l6.74-11.904 7.72 16.824 12.338-24.8c1.078 5.245 8.848 42.781 9.722 46.646l-2.672.572a3.302 3.302 0 0 0-2.532 2.472 3.309 3.309 0 0 0 1.152 3.345c13.714 11 11.36 11.251 18.762-4.067a3.313 3.313 0 0 0-2.971-4.75 19.125 19.125 0 0 0-3.475.667c-5.874-26.002-11.616-60.547-15.023-68.071h-.001z"/><path fill="#92FCFF" d="m52.469 127.2-4.293-10.88a1.373 1.373 0 0 0-.88-.812 1.395 1.395 0 0 0-.613-.044c-.205.031-.4.108-.57.226l-9.463 6.496a1.372 1.372 0 0 0-.582 1.336 1.379 1.379 0 0 0 .942 1.112l4.87 1.556c-4.037 9.541-6.654 16.917-9.488 25.544-6.739-9.552-8.896-15.113-13.254-24.944-7.173 39.37-12.146 59.247-10.968 59.578 1.824.517 8.78-26.344 9.897-31.013 3.743-15.736 2.437-14.195 3.807-11.696a116.939 116.939 0 0 0 12.28 18.042A322.939 322.939 0 0 1 46.325 127.6l4.442 1.418a1.377 1.377 0 0 0 1.772-1.055c.05-.256.025-.52-.07-.763z"/><path fill="#0F0F0F" d="M46.891 115.437c1.28 0 .96.043 5.578 11.76a1.38 1.38 0 0 1-1.702 1.821l-4.442-1.418a326.246 326.246 0 0 0-12.171 34.091C19.925 142.88 22.463 143.752 21.01 142.03c.198-1.14-1.011 5.216-2.943 13.316-1.78 7.462-8.182 31.016-9.872 31.016-1.24-.191 3.51-18.77 10.943-59.581 4.675 10.582 6.856 15.875 13.254 24.944 2.72-8.304 5.343-15.746 9.488-25.544l-4.87-1.555a1.382 1.382 0 0 1-.947-1.112 1.379 1.379 0 0 1 .587-1.338c10.241-7.027 9.637-6.739 10.241-6.739zm0-2.032c-1.44 0-1.176.086-11.392 7.096a3.408 3.408 0 0 0-.667 5.019c.413.487.954.847 1.562 1.042l2.755.88a307.952 307.952 0 0 0-7.403 19.74c-4.744-7.259-5.552-9.76-13.423-27.273-13 67.163-14.32 68.459-10.128 68.48 4.67.03 12.719-36.171 13.677-40.613 3.936 6.704 7.251 10.731 13.066 18.24a354.534 354.534 0 0 1 12.539-35.922c2.502.8 4.866 1.967 6.533-.48 1.44-2.102.349-3.18-3.944-14.054a3.395 3.395 0 0 0-3.175-2.155z"/><path fill="#fff" d="M276.434 164.016c-5.395 4.27-8.365 5.998-14.142 5.15-26.33-3.864-18.205-8.425-37.421-32.668-2.039-2.573-3.259-4.719-1.146-7.573a8.04 8.04 0 0 1 11.36-1.139c2.071-2.621 1.075-7.44 7.506-6.72 18.95 2.112 22.824 28.265 49.376 28.768 1.315.022 1.374.864.777 1.891-3.771 6.469-10.438 7.645-16.31 12.291z"/><path fill="#0F0F0F" d="M285.151 147.862c-19.488-5.376-23.477-22.419-35.088-27.081-5.893-2.506-14.002-2.683-15.098 3.241-.413 1.935.557.84-2.849.352a9.435 9.435 0 0 0-10.24 5.44c-1.311 3.159.062 5.76 2.228 8.352 6.186 7.216 8.64 13.92 13.312 20.631 9.024 13.512 31.148 11.779 30.992 10.326-.073-.771-20.236.344-28.1-12.251-4.333-6.584-6.892-13.704-13.336-21.141-1.253-1.451-2.287-2.784-1.652-4.582 1.322-3.504 6.578-4.57 9.965-1.831a49.995 49.995 0 0 0 6.107 12.496c5.208 8.453 7.6 11.663 22.842 12.773 3.147.218 3.05-.349.32-1.43-4.082-1.639-9.805-2.512-13.691-5.167-3.33-2.281-16.271-22.035-11.106-24.608 2.223-1.14 6.4-.172 8.816.856 8.743 3.618 14.226 17.384 26.962 23.447 9.558 4.517 17.742 2.936 17.657 2.192-.014-.586-3.235-.65-8.041-2.015z"/><path fill="#FFC5F6" d="M166.123 209.086a20.649 20.649 0 0 1-10.915 3.733c-56.557 6.135-59.83-40.243-70.866-44.745-12.115-3.604-4.912 37.651 32.845 54.212 19.789 8.687 44.387 9.234 68.8-3.326-6.008-1.646-12.357-3.28-19.864-9.874z"/><path fill="#fff" d="M234.285 145.178c-4.63-6.152-3.795-4.351-4.16-8.08-.194-2.015-.435-4.461-1.966-5.792-3.008-2.703-10.708-.687-13.892 7.641-1.721 4.508-1.291 8.68-1.892 13.335-1.175 8.8-6.447 11.95-12.818 18.227 1.054 4.651-4.48-19.106-19.36-23.04a15.957 15.957 0 0 0-13.024 2.138c-9.811 6.664-.198 11.56 3.84 17.819 1.28 1.99 1.013.8-.014 6.777-.903 5.248-4.026 6.8-1.836 13.618a15.142 15.142 0 0 0-4.889 2.117c-13.411 9.464 13.453 36.227 40.065 26.147 4.629-1.782 9.327-4.725 10.01-9.637a13.39 13.39 0 0 0-.44-4.701c-5.794 2.914-.17.447 4.579-3.72 13.056-11.409 26.495-38.635 15.797-52.849z"/><path fill="#0F0F0F" d="M232.891 140.832a57.843 57.843 0 0 0-.82-7.2c-2.12-8.889-14.533-7.701-19.642 3.466-2.387 5.101-1.853 10.333-2.451 14.867-.891 6.944-4.891 10.026-10.063 14.843-10.76-33.721-41.078-21.747-39.211-9.977.653 4.5 4.698 6.433 8.215 11.449 1.252 7.84-3.058 9.248-2.85 15.789.12 3.754.96 3.221.16 3.448-9.261 2.602-8.947 13.941-1.886 21.6-5.645 3.248-15.608 2.96-22.154 2.538-45.44-3.183-44.755-41.584-57.22-45.6a5.32 5.32 0 0 0-6.85 2.673c-8.317 16.123 23.161 71.299 84.281 60.085a71.674 71.674 0 0 0 23.253-8.704c13.467 2.462 33.238-4.28 29.496-17.57 18.782-11.256 35.65-47.075 17.742-61.707zM82.429 184.693c-1.554-4.498-2.805-8.758-1.874-12.571.47-2.08 1.38-3.405 3.31-2.763 9.92 3.291 12.8 50.251 71.49 44.8a23.518 23.518 0 0 0 10.672-3.386 42.953 42.953 0 0 0 16.239 8.565c-36.411 18.582-85.99 3.606-99.837-34.645zm115.851 20.661c-3.133.121-4.776-.056-4.821.203-.073.432 8.349 3.718 19.436-1.786a7.34 7.34 0 0 1-.778 5.128c-4.216 6.015-16.845 10.796-30.674 6.253-19.787-6.521-23.758-21.537-14.07-25.326 5.6 13.302 23.446 16.889 23.802 15.277.132-.608-4.391-1.853-8.765-4.268-6.119-3.403-12.346-10.174-12.575-16.88-.12-4 1.744-4.883 2.503-9.545 3.048 6.907 3.054 11.461 3.813 11.483.448.042 1.176-2.778.48-7.306-2.06-12.713-9.232-16.83-11.485-20.24-2.016-3.04-.243-5.627 2.774-7.622a14.858 14.858 0 0 1 15.391-.605c13.187 6.968 16.523 29.21 18.332 28.85.908-.173-.24-6.439-.603-8.027 3.271-3.263 7.405-6.264 10.157-10.895 5.44-8.891-.226-19.381 8.48-26.478 3.123-2.56 7.728-3.248 8.723.942.426 1.904.997 9.373 1.104 11.36a48.56 48.56 0 0 1-2.51 19.89c-3.383 10.432-14.304 20.403-13.848 20.901.203.312 4.297-2.125 9.382-8.042-3.393 6.4-7.182 9.92-6.846 10.31.435.626 7.419-5.086 10.827-15.507 5.357-8.083 7.078-17.741 6.694-27.427 11.637 15.736-8.041 58.323-34.923 59.357z"/></svg>