<svg xmlns="http://www.w3.org/2000/svg" width="600" height="336" fill="none"><path fill="#FDFE1F" d="M306.732 259.136c58.724-72.04-12.253-239.998-139.606-245.514-33.912-1.47-65.234 14.153-97.985 30.37-17.064 8.449-31.486 14.236-42.595 28.385-17.15 21.84-20.017 54.868-18.07 82.013 5.778 80.895 79.623 172.848 162.854 169.984 32.653-1.125 114.891-40.078 135.402-65.238z"/><path fill="#0F0F0F" d="M159.488 9.7c-41.25 1.016-115.165 41.987-122.406 47.214C-9.774 91.537-.744 175.383 26.522 227.715c40.134 76.796 105.099 105.222 149.565 100.257 31.211-3.01 119.06-43.134 135.962-69.611 55.324-72.085-15.791-248.186-152.561-248.662zM69.946 54.246c-10.419 14.87-16.292 32.324-16.904 50.231-15.187 7.811-12.776 9.916-33.558 13.535 6.213-44.852 28.281-52.531 50.462-63.766zM18.492 128.47c17.044-9.539 14.166-9.267 34.387-13.011a179.417 179.417 0 0 0 12.582 58.333c-17.116 7.291-10.349 9.839-39.535 14.989-6.18-19.412-8.699-39.85-7.434-60.311zm10.443 69.223c25.747-14.196 25.587-8.904 40.777-13.522a255.301 255.301 0 0 0 33.58 55.263c-24.078 13.058-10.716 8.612-41.763 16.158a218.865 218.865 0 0 1-32.594-57.899zm39.457 66.11a138.376 138.376 0 0 1 16.717-8.996c10.653-2.925 25.37-6.402 25.37-6.402-1.461-4.226 13.344 18.943 43.877 37.125-20.198 13.749-17.456 9.601-36.933 16.62-18.819-9.4-35.484-22.434-49.03-38.347zm129.36 45.164c-16.941 5.39-35.378 10.53-69.015-1.993 18.595-13.14 23.792-10.089 36.848-15.482 39.437 18.362 75.437 3.573 32.174 17.473l-.007.002zm104.686-57.849c-9.353 14.684-47.898 34.294-63.747 41.716-45.049 7.05-77.85-7.348-109.124-37.677C74.824 201.3 30.357 95.22 89.288 44.621c34.952-16.88 63.023-27.483 98.242-20.034 110.725 20.618 162.383 166.379 114.914 226.53l-.006.002z"/><path fill="#0F0F0F" d="M274.321 120.963c-22.857-34.564 51.642 74.395-5.112 131.81a56.85 56.85 0 0 1-22.656 15.056c-8.66 3.113-17.923 4.066-26.954 2.773-33.353-3.673-79.994-49.45-98.341-77.735-82.34-126.12 32.112-206.835 130.958-98.664 10.44 11.532 23.614 30.001 14.1 13.949-16.509-26.575-40.105-48.077-68.274-62.216C156.032 25.321 93.621 35.61 85.629 100.03c-9.503 79.591 79.245 172.688 132.754 178.787 68.502 8.573 105.187-83.431 55.938-157.853z"/><path fill="#0F0F0F" d="M205.542 142.639c-5.331-1.402-4.92-.064-3.117-2.704 3.522-5.538 5.478-11.88 5.663-18.355a34.978 34.978 0 0 0-4.617-18.425 35.036 35.036 0 0 0-13.599-13.283c-5.692-3.11-12.165-4.625-18.731-4.385-3.536-11.468-12.748-16.672-14.531-14.817-1.744 1.727 1.486 7.548 4.934 14.35 1.369 2.696 1.872.334-10.902 4.354-7.825-18.925-17.544-15.832-8.173 3.02a82.344 82.344 0 0 0-9.003 6.585c6.637 13.709 25.33 41.372 36.866 64.738.159.606 24.816 56.733 32.117 68.087 8.599-5.368 7.008-4.555 8.777-4.942 6.212 14.287 22.56 20.644 8.506-2.331a59.634 59.634 0 0 0 12.059-5.256c11.986 23.21 16.89 10.072 7.011-5.122 27.07-24.721-3.011-62.826-33.26-71.514zm-50.805-38.118c16.839-9.168 28.575-12.794 41.124 1.194 2.82 4.028 4.033 8.963 3.412 13.881-.622 4.918-3.035 9.481-6.789 12.837a74.38 74.38 0 0 1-22.311 12.014c-5.695-13.837-10.979-28.508-15.429-39.895l-.007-.031zm54.03 105.763a395.844 395.844 0 0 1-30.674-47.992 49.769 49.769 0 0 1 24.994-7.369c32.356 2.699 61.955 48.488 5.68 55.361z"/><path fill="#FDFE1F" d="M570.732 259.136c58.724-72.04-12.252-239.998-139.606-245.514-33.912-1.47-65.234 14.153-97.984 30.37-17.065 8.449-31.487 14.236-42.595 28.385-17.151 21.84-20.018 54.868-18.071 82.013 5.778 80.895 79.623 172.848 162.855 169.984 32.652-1.125 114.89-40.078 135.401-65.238z"/><path fill="#0F0F0F" d="M423.488 9.7c-41.25 1.016-115.165 41.987-122.406 47.214-46.856 34.623-37.826 118.469-10.56 170.801 40.134 76.796 105.099 105.222 149.565 100.257 31.211-3.01 119.06-43.134 135.962-69.611 55.324-72.085-15.791-248.186-152.561-248.662zm-89.542 44.547c-10.419 14.87-16.292 32.324-16.904 50.231-15.187 7.811-12.776 9.916-33.558 13.535 6.213-44.852 28.281-52.531 50.462-63.766zm-51.454 74.224c17.044-9.539 14.166-9.267 34.387-13.011a179.42 179.42 0 0 0 12.582 58.333c-17.116 7.291-10.349 9.839-39.536 14.989-6.179-19.412-8.698-39.85-7.433-60.311zm10.443 69.223c25.747-14.196 25.587-8.904 40.777-13.522a255.323 255.323 0 0 0 33.58 55.263c-24.078 13.058-10.716 8.612-41.763 16.158a218.87 218.87 0 0 1-32.594-57.899zm39.457 66.11a138.429 138.429 0 0 1 16.717-8.996c10.653-2.925 25.371-6.402 25.371-6.402-1.462-4.226 13.343 18.943 43.876 37.125-20.198 13.749-17.456 9.601-36.933 16.62-18.819-9.4-35.484-22.434-49.031-38.347zm129.36 45.164c-16.941 5.39-35.378 10.53-69.015-1.993 18.595-13.14 23.792-10.089 36.848-15.482 39.438 18.362 75.437 3.573 32.174 17.473l-.007.002zm104.686-57.849c-9.353 14.684-47.898 34.294-63.747 41.716-45.049 7.05-77.85-7.348-109.124-37.677C338.824 201.3 294.358 95.22 353.288 44.621c34.952-16.88 63.023-27.483 98.242-20.034 110.725 20.618 162.383 166.379 114.914 226.53l-.006.002z"/><path fill="#0F0F0F" d="M538.321 120.963c-22.857-34.564 51.642 74.395-5.112 131.81a56.85 56.85 0 0 1-22.656 15.056c-8.66 3.113-17.923 4.066-26.954 2.773-33.353-3.673-79.994-49.45-98.341-77.735-82.34-126.12 32.112-206.835 130.958-98.664 10.44 11.532 23.614 30.001 14.1 13.949-16.509-26.575-40.105-48.077-68.274-62.216-42.01-20.615-104.421-10.327-112.413 54.093-9.503 79.591 79.245 172.688 132.754 178.787 68.502 8.573 105.187-83.431 55.938-157.853z"/><path fill="#0F0F0F" d="M456.284 164.66c-10.446.972-20.908-.746-30.342-4.985-2.324-1.048-1.771-.344-2.403-2.848-8.766-34.886-8.421-28.583-14.282-82.046 19.959 10.602 27.434 14.197 73.604 51.519 6.897 5.57-7.112 20.815-10.49 26.19a24.115 24.115 0 0 1-6.692 7.818 24.583 24.583 0 0 1-9.395 4.352zm-24.596-12.149c7.277 2.954 15.208 4.17 23.138 3.555a16.45 16.45 0 0 0 5.8-3.014 16.117 16.117 0 0 0 4.13-5.01 141.514 141.514 0 0 0 10.737-16.158c-35.559-28.587-43.999-34.275-55.475-41.05a304.294 304.294 0 0 0 11.667 61.657l.003.02z"/><path fill="#0F0F0F" d="M498.753 236.757c-23.76-5.374-43.727-35.982-70.933-65.079 35.118.483 36.11 13.88 51.422-10.095 6.034-9.428-.025-1.235 14.34-23.112 10.337 26.367 13.655 91.151 7.061 96.657l-1.89 1.629zm-49.481-54.082c4.821 6.166 32.552 37.555 45.434 43.535a411.898 411.898 0 0 0-1.328-46.169c-3.81-25.023-.538-23.441-6.612-13.953-12.531 19.641-20.619 20.662-37.494 16.587z"/></svg>