<svg xmlns="http://www.w3.org/2000/svg" width="320" height="320" fill="none"><path fill="#FFC5F6" d="M19.475 78.105c2.107-1.28 4.331-2.347 6.55-3.417 7.973-3.84 10.336-3.45 16.012-1.026 4.073 1.741 19.54 8.16 21.12 12.218.48 1.238.36 1.011.464 16.989.035 5.315-.722 4.984-1.236 7.718-.744 3.965.453 5.355-4.217 7.779a58.672 58.672 0 0 1-19.826 6.88 15.842 15.842 0 0 1-12.365-1.449c-2.988-1.415-14.921-8.309-16.512-11.189-.96-1.749-.784-2.418-1.184-18.011-.355-14.012-1.638-8.712 11.194-16.492z"/><path fill="#0F0F0F" d="M60.138 79.66c-22.39-9.496-23.327-10.77-27.592-8.992l-21.12 8.8a8.282 8.282 0 0 0-5.108 7.662v23.785a8.275 8.275 0 0 0 5.112 7.66c23.133 9.644 22.08 9.448 24.332 9.448 2.25 0 .89.32 24.33-9.448a8.276 8.276 0 0 0 5.108-7.66V87.302a8.288 8.288 0 0 0-5.062-7.642zm-26.303-5.9a4.961 4.961 0 0 1 3.84.01c23.107 9.813 21.416 9.045 21.98 9.43l-23.89 9.092-23.893-9.27c.582-.388-1.098.349 21.963-9.264v.001zM12.72 115.48a4.935 4.935 0 0 1-3.04-4.566c0-25.493-.245-24.572.586-26.12l24.38 9.459c0 33.422.338 30.507-.785 30.04L12.72 115.48zm49.12-4.566a4.936 4.936 0 0 1-3.04 4.566l-21.134 8.813c-1.12.469-.788 3.397-.788-30.035l24.386-9.28c.806 1.507.582.496.582 25.936h-.006z"/><path fill="#FDFE1F" d="M90.72 127.2c-1.92-2.4-9.704-6.248-15.232-7.9-4.24-1.265-4.256.189-6.88 1.255 2-5.173-1.535-12.568-5.717-16.48-5.448-5.088-4.762-7.3-8.32-6.62a3.475 3.475 0 0 0-2.114 1.92c-1.971 3.453 4.22 7.749 5.296 10.437a3.486 3.486 0 0 1-.6 3.597c-1.76 1.267-4.342-.037-5.59-1.405-1.248-1.368-2.013-3.052-3.19-4.449-2.756-3.267-6.202-2.389-7.538.144-.693 1.317.513 3.598 1.337 4.832 4.96 7.432 5.642 8.579 7.04 10.037 3.2 3.35 7.815 4.55 9.92 4.16a14.177 14.177 0 0 0 3.292-1.44c.39.32.795.622 1.212.907a8.977 8.977 0 0 0-.8 3.449c.455 6.647 12.704 12.856 16.896 15.2 2.9 1.624 5.317-2.651 4.226-4.492-.907-1.532-5.978-2.08-9.334-5.613-2.018-2.123-1.8-4.139-.768-5.12a6.679 6.679 0 0 1 5.136-1.029 25.017 25.017 0 0 1 6.276 3.52c1.98 1.472 3.157 1.92 4.96.03 1.487-1.542 1.932-3.132.492-4.94z"/><path fill="#0F0F0F" d="M92.245 128.783a2.98 2.98 0 0 0-1.989-2.704c-4.225-4.46-12.702-9.964-19.36-8.569 1.33-7.181-7.61-15.08-12.397-19.178-.528-.448-.227-.721-1.363-1.299-2.755-1.398-6.203 1.333-5.46 4.048.937 3.68 5.14 7.51 5.342 10.352.1 1.512-.648 2.01-1.98 1.64-2.977-.838-7.18-7.04-8.844-7.797-3.7-1.664-7.586 2.24-5.386 5.664.533.783 3.397 9.003 10.08 14.069 3.15 2.336 6.79 3.856 10.42 2.413a11.156 11.156 0 0 0 4.092 9.822c3.091 2.747 11.54 7.008 13.84 7.882.39.845 2.338 1.483 4.48-1.224 2.11-2.663.615-4.56-.28-4.669-1.576-1.427-7.593-5.018-8.736-7.251-.683-1.383.32-2.41 1.732-2.653 2.596-.464 7.52 3.019 10.347 4.072 1.739 2.314 5.766-1.242 5.462-4.618zm-49.942-17.12c-.331-1.104-1.354-2.79.262-4.358a4.16 4.16 0 0 1 4.109-.726c.688 3.312 5.648 10.211 10.034 9.318-1.213 3.322.572 6.589 3.04 9.12-7.313 2.096-15.856-11.434-17.445-13.36v.006zM74.7 135.839c6.786 4.904 8.56 3.264 8.735 4.736.078.669-.233 1.28-1.026 2.284-2.159 2.732-2.502 1.724-3.04 1.369-6.277-5.177-15.86-8.709-15.36-15.816a12.29 12.29 0 0 0 7.768 1.899c-.418 2.351 1.046 4.103 2.923 5.528zm12.567-2.988c-1.218-1.847-7.129-6.546-10.928-6.263a3.474 3.474 0 0 0-.64-3.04c-.575-.624-1.695-1.589-.85.544a2.843 2.843 0 0 1-.599 2.856c-3.77 4.367-17.692-4.664-15.614-10.915.882-2.888 3.19-2.531 3.314-2.864.136-.224-.96-.832-2.272-.402a6.456 6.456 0 0 0-1.1-4.688 28.942 28.942 0 0 0-5.779-6.198 3.44 3.44 0 0 1 1.372-3.093 4.022 4.022 0 0 1 2.916-.58c2.72 4.118 11.064 11.27 11.184 17.703a4.087 4.087 0 0 1-1.12 3.111 43.117 43.117 0 0 1-2.412-4.32c-1.013-1.488-2.279-1.688-2.4-1.36-.16.32.422.96.756 2.184a11.746 11.746 0 0 0 2.442 5.6 6.276 6.276 0 0 0 6.107 2.352c1.647-.442 3.155-.648 1.76-1.426-1.173-.693-2.467-.043-3.85-.929-.206-.125-.172-.082-.09-.205 6.978-3.447 16.14 3.75 20.674 6.091 1.644 2.192-.93 6.398-2.871 5.848v-.006z"/><path fill="#FFC5F6" d="M267.818 77.996c2.107-1.28 4.33-2.348 6.55-3.417 7.973-3.84 10.338-3.451 16.012-1.027 4.073 1.74 19.54 8.16 21.12 12.217.48 1.239.36 1.011.464 16.989.035 5.315-.722 4.984-1.236 7.718-.744 3.965.453 5.356-4.217 7.78a58.744 58.744 0 0 1-19.826 6.88 15.857 15.857 0 0 1-12.365-1.45c-2.988-1.414-14.921-8.309-16.512-11.189-.96-1.749-.782-2.416-1.182-18.011-.357-14.006-1.64-8.712 11.192-16.49z"/><path fill="#0F0F0F" d="M308.616 79.66c-22.469-9.53-23.36-10.758-27.593-8.992l-21.121 8.8a8.278 8.278 0 0 0-5.105 7.662v23.784a8.278 8.278 0 0 0 5.105 7.661c23.133 9.645 22.08 9.448 24.332 9.448 2.356 0 1.92-.104 24.331-9.448a8.275 8.275 0 0 0 5.107-7.661V87.302a8.288 8.288 0 0 0-5.056-7.642zm-26.304-5.9a4.983 4.983 0 0 1 3.84.01c23.114 9.802 21.419 9.04 21.984 9.418l-23.891 9.1-23.893-9.271c.568-.376-1.288.437 21.96-9.258zm-21.12 41.716a4.926 4.926 0 0 1-3.04-4.566c0-25.55-.235-24.586.586-26.12l24.382 9.459c0 33.422.336 30.507-.787 30.04l-21.141-8.813zm49.12-4.566a4.93 4.93 0 0 1-3.04 4.566l-21.136 8.813c-1.12.469-.786 3.397-.786-30.035l24.384-9.28c.815 1.511.589.502.589 25.94l-.011-.004z"/><path fill="#FDFE1F" d="M279.488 105.07c-.348-1.058-2.303-3.52-3.797-3.52-3.04-.02-6.002 8.04-9.799 8.292a2.698 2.698 0 0 1-2.648-1.432c-1.348-3.001 5.906-9.76 5.12-11.984a10.562 10.562 0 0 0-2.38-2.39c-1.429-.74-2.84.411-3.933 1.451-12.338 11.73-10.279 9.338-11.135 15.421a7.022 7.022 0 0 0 .172 3.778 23.907 23.907 0 0 0-8.535.545c-1.537.551-2.377 1.162-8.509 5.093-1.52.976-4.403 1.896-4.937 4.29-.41 1.827.974 5.12 2.907 4.947 1.59-.141 1.051-1.552 8-3.981a8.929 8.929 0 0 1 3.88-.733 3.07 3.07 0 0 1 2.803 2.4c.199 1.768-3.643 6.768-7.056 7.557-1.077.25-2.414.32-2.92 1.298-.465.91.127 1.984.701 2.83 1.733 2.56 2.864 2.317 4.206 1.49 10.927-6.72 11.68-7.053 12.8-8.354 1.343-1.549 3.52-6.462 3.181-9.206a5.68 5.68 0 0 1 1.144-1.029c2.535-1.327 5.176 3.496 12.415-3.146 2.04-1.872 3.636-4.344 6.766-8.755 1.032-1.453 2.106-3.184 1.554-4.862z"/><path fill="#0F0F0F" d="M280.536 104.788a4.168 4.168 0 0 0-3.816-3.821 3.95 3.95 0 0 0-3.618 1.511c-1.461 1.481-7.113 8.36-8.949 6.55-3.52-2.659 9.237-11.56 3.34-15.558-2.183-1.514-4.941-.296-5.032.709-5.288 4.422-12.402 10.836-12.764 17.71-.11 2.008.586 1.725-.568 1.558-6.617-.872-14.72 4.512-18.678 8.688a2.39 2.39 0 0 0-1.12.685c-3.029 3.183 2.365 9.6 4.586 6.64 2.804-1.056 7.766-4.534 10.344-4.072 1.44.25 2.4 1.288 1.731 2.653-1.138 2.224-7.179 5.845-8.736 7.251-.975.119-2.378 2.019-.282 4.669 2.223 2.798 4.141 1.987 4.48 1.226a67.532 67.532 0 0 0 13.84-7.885 11.155 11.155 0 0 0 4.095-9.824c3.625 1.44 7.267-.072 10.419-2.411 4.614-3.496 6.729-7.349 9.309-12.532 1.094-2.228 1.472-2.523 1.419-3.747zm-47.096 24.127c-1.935.547-4.517-3.671-2.869-5.847 4.878-2.518 13.731-9.531 20.675-6.089.082.12.114.078-.091.204-1.403.868-2.682.237-3.85.928-.449.252-.59.519-.524.677.065.159.344.229.71.32a6.67 6.67 0 0 0 4.73.215c4.499-2.026 4.96-6.348 5.39-7.73.334-1.222.92-1.856.758-2.181-.115-.331-1.382-.128-2.4 1.359a44.722 44.722 0 0 1-2.412 4.32c-.112-.07-.225-.138-.34-.204-3.579-6.256 6.746-15.657 9.778-19.739.757-1.01.504-.865.918-.912a3.38 3.38 0 0 1 3.932 2.832c.136 1.24.332.423-2.596 3.283-1.854 1.901-3.977 4.272-4.291 6.908-.203 2.18.61 1.483-.672 1.44-1.129-.061-1.6.428-1.531.544.072.198.586.131 1.302.436 1.882.791 3.242 3.866 1.221 7.056-1.715 2.762-6.323 6.682-10.437 7.311-4.139.728-5.782-2.053-4.987-3.879.285-.716.733-1.051.627-1.227-.171-.464-2.784.743-2.118 3.728-3.733-.296-9.709 4.4-10.923 6.247zm7.317 11.904c-1.088-.05-1.711-.951-2.458-1.896-1.133-1.44-1.173-1.992-.891-2.908 2.336-.208 12.435-4.438 11.534-9.64a12.287 12.287 0 0 0 7.767-1.899c.536 7.711-11.658 11.936-15.954 16.343h.002zm20.203-19.749c2.472-2.538 4.246-5.808 3.04-9.12 3.379.686 6.56-2.903 8.408-5.8 2.373-3.771.854-3.448 2.449-3.68 2.992-.466 4.776 1.798 3.976 4.013-1.2 3.604-11.118 16.532-17.873 14.587z"/><path fill="#fff" d="M120.587 220.022c-.203-1.995-.896-3.922-1.051-5.92-.127-1.619.102-3.245.109-4.869.027-7.475-4.853-12.091-9.901-11.782-.757-4.031-1.747-8.452-5.047-10.888a11.23 11.23 0 0 0-10.08-1.968c-.5-7.164-5.158-14.61-12.568-13.53-10.08 1.47-29.41 26.81-33.454 34.88-3.576 7.139-5.237 15.688-3.123 23.243-3.472-5.317-10.519.613-10.643 11.888a8.587 8.587 0 0 0 2.296 6.522 90.983 90.983 0 0 0 8.217 10.131c3.314 3.146 13.45 10.03 20.375 12.078 10.308 3.048 18.344-1.062 19.88-4.691.48-1.137.48-1.947.96-7.448.184-2.142.06-4.193-1.986-4.859 14.762-3.734 19.216-17.978 19.534-18.323a13.235 13.235 0 0 1 6.202-3.104c6.56-.33 10.942-4.823 10.28-11.36zm-65.782 22.593a82.512 82.512 0 0 0 10.497 7.658 34.095 34.095 0 0 1-10.497-7.658zm13.096 8.96a25.519 25.519 0 0 0 11.939 1.991c-4.463 1.833-7.04.409-11.94-1.987v-.004z"/><path fill="#0F0F0F" d="M119.723 212.285c4.014-5.568-.495-15.723-6.612-16.252-.307-6.992-8.96-14.484-16.852-12.725A14.205 14.205 0 0 0 82.65 169.25c-5.508-.206-9.298 3.296-12.815 7.531-11.893 14.671-29.995 30.488-26.83 49.12-9.6 1.965-15.608 16.111-2.21 29.679 8.94 8.773 27.474 21.405 39.2 16.552a15.129 15.129 0 0 0 8.765-9.487 12.28 12.28 0 0 0-.83-8.896c8.304-3.444 14.102-11.809 18.416-19.753 4.561-1.378 9.681-1.344 13.326-5.495 4.006-4.454 3.722-11.382.05-16.216zm-7.944-10.224c.481-.972.841-2 1.072-3.06 2.625 1.364 5.44 6.732 4.678 10.963a18.995 18.995 0 0 0-7.963-4c-1.247-.323.085.352 2.213-3.903zm-2.476-5.368a12.651 12.651 0 0 1-3.875 8.661 34.47 34.47 0 0 0-11.734 1.328c-16.018 4.687-8.587 7.643-14.613 1.346 8.035-6.147 16.066-13.205 17.09-21.834 6.296-.805 12.992 5.504 13.132 10.499zm-23.505 65.076a12.099 12.099 0 0 1-7.03 7.049c-9.96 3.882-27.735-8.713-35.3-15.96-11.51-11.334-7.016-22.385.114-24.368 4.206 15.33 24.8 31.215 41.848 26.146a9.616 9.616 0 0 1 .368 7.133zm31.144-35.616c-3.874 4.66-12.976 2.644-24.093 12.468-2.034 1.805-2.925 3.031-2.757 3.218.435.488 4.77-3.384 12.405-6.467-5.482 8.35-10.74 15.051-20.298 16.619-15.921 2.344-35.73-14.658-35.664-30.301-.043-13.568 12.818-26.648 21.636-36.984 5.724-6.63 10.73-15.851 19.728-10.203 5.28 3.246 7.264 11.752 1.824 19.293a77.683 77.683 0 0 1-12.546 12.414c-7.614-6.741-16-6.089-16.014-5.072-.024 1.573 7.93.191 18.23 12.08-1.798 1.107-13.987 9.543-13.33 10.463.386.542 7.183-3.912 13.538-7.332 33.072-17.774 43.971 1.829 37.341 9.804z"/><path fill="#FFC5F6" d="M69.348 194.131c.263 6.105.917 12.875 5.44 16.974 3.795 3.434 9.28 4.023 14.141 5.6 12.101 3.928 11.386 9.173 59.533 26.023 10.619 3.717 12.526 2.625 19.928-.682 10.419-4.657 20.248-8.286 30.08-14.08 4.944-2.915 11.179-4.733 16.224-7.47 8.552-4.64 18.755-5.645 27.133-10.596 2.88-1.7 3.739-4.479 4.697-7.679.6-2.496.619-5.098.053-7.604-2.118-13.35 1.082-26.692-.093-40.16-1.352-15.52 2.851-31.072-.206-46.344a11.29 11.29 0 0 0-3.304-4.608c-1.589-1.5-4.05-1.516-6.013-2.476a23.916 23.916 0 0 1-5.019-2.56c-5.367-4.404-19.2-5.14-47.763-19.277-5.583-2.763-16.8-7.216-22.97-8.096-9.661-1.38-13.213 2.614-22.146 6.544-19.507 8.579-31.824 13.93-42.548 18.992-10.962 5.171-23.445 4.925-25.364 14.785-.53 2.72-1.784 27.336-1.968 32.373a635.109 635.109 0 0 0 .165 50.341z"/><path fill="#92FCFF" d="M132.746 124.674a12.896 12.896 0 0 0 3.875 2.293c1.354.461 1.379-2.704 1.459-3.52.13-1.339.48-2.425-.091-2.473-1.44-.127-2.177.875-3.232 1.632-.529.372-2.337 1.243-2.011 2.068zm37.675 97.966c-3.32.361-4.04 1.465-4.189 3.601-.213 3.04.725 6.349 1.294 6.81a1.606 1.606 0 0 0 1.391.096c9.968-2.41 9.728-2.784 9.729-5.493 0-1.101-.014-5.193-.745-6.025-1.451-1.656-7.2.441-9.213 1.6l1.733-.589zm55.709-96.01h.141c-.189-1.589 2.336-1.944 2.987-2.128.294-.083 7.121-3.118 8.342-2.042.751.661.071 2.525.16 4.41.248 5.002 7.581 11.763-3.976 14.72-3.803.973-6.529 2.2-5.857-.766 1.067-4.696-4.567-6.768-1.797-14.192v-.002z"/><path fill="#0F0F0F" d="M248.809 111.088a10.241 10.241 0 0 0-6.357-9.92l-79.118-31.476c-5.534-2.201-1.971-2.4-87.942 32.744a10.88 10.88 0 0 0-6.912 9.733v91.152a10.281 10.281 0 0 0 6.168 9.843l79.121 33.25a10.663 10.663 0 0 0 8.298-.038l80.013-34.487a10.91 10.91 0 0 0 6.72-9.654l.009-91.147zm-3.949 65.334-25.456 10.926v-29.32l25.456-11.017v29.411zm-57.673 24.813v-29.322l29.486-12.713c.669.26.496-5.344.496 29.107l-29.982 12.928zm29.982-10.488v27.621l-29.982 12.924V203.67l29.982-12.923zm-59.249 23.105c-29.172-12.252-26.256-10.542-26.256-12.126l26.926-11.006 26.285 10.456c.117-.29.077-.42.077 1.024l-27.032 11.652zm1.632-118.526 26.24 11.851c-6.095 2.859-13.572 6.4-25.404 12.023-2.452 1.163 2.348 2.552-28.726-11.594l27.89-12.28zm-30.612 11.04a3065.089 3065.089 0 0 0-25.152-11.31l28.245-11.546 24.402 10.747-27.495 12.109zm32.828-12.493 24.246-10.947 28.226 11.226c-11.856 5.355-17.946 8.12-25.77 11.776l-26.702-12.055zm55.401 62.683c-.758.32 2.44 1.412-27.883-10.652v-37.152l27.883 12.59v35.214zm-32.217 42.24-25.25-10.044v-28l25.25 10.043v28.001zm-53.242-62.353c.949-2.16-2.147.632 21.795-11.407 1.6-.8 2.941-1.505 4.016-2.032v35.125c0 .363 2.011-.609-25.857 10.783 0-33.896-.114-32.54.046-32.469zm28.05 20.64v-35.135c7.089-3.36 20.249-9.587 27.291-12.891v36.863l-27.291 11.163zm-.058 1.192.035.089-.035-.014v-.075zm-28.038 13.051 25.803-10.547v27.985l-25.803 10.546v-27.984zm55.752-1.944-26.296-10.459 27.048-11.056 25.561 10.169-26.313 11.346zm1.806-60.659c-1.76 0-1.778.15-.742-.335l.742.335zm-33.154 12.533c-4.892 2.412-14.444 7.388-25.454 12.262L101.723 120.8l27.2-11.981a4676.843 4676.843 0 0 1 27.145 12.437zm-26.64 14.182v34.688l-29.368-12.342v-35.28l29.368 12.934zm-31.603 21.406L72.48 146.192c.262-37.151.16-34.479.456-35.634l24.89 10.962v35.324zm-25.47-8.235 25.47 10.659V188.6l-25.47-10.748v-29.243zm27.705 11.599 29.368 12.342c0 30.197-.065 28.061 0 28.221 0 1.59 4.432 2.974-29.368-11.232v-29.331zm29.368 44.097v27.635L100.06 219.6v-27.636l29.368 12.341zm115.554-59.736-25.578 11.024v-34.67l25.612-11.563c.3 1.2.225-1.341-.034 35.209zm-.869-37.254c-28.827 13.016-26.011 11.52-25.744 12.117L191.15 107.14c7.435-3.46 13.752-6.323 25.97-11.84 26.305 10.46 25.452 9.69 26.993 12.015zm-87.225-33.963c3.36-1.372 3.616-.575 26.24 8.425l-24.434 11.04-23.786-10.483 21.98-8.982zm-55.97 22.88a2899.217 2899.217 0 0 1 25.28 11.344l-27.246 12-25.104-11.058c1.521-2.264.629-1.478 27.07-12.288v.002zM72.16 203.348V180.27l25.672 10.755v27.635l-21.672-9.102a6.59 6.59 0 0 1-4-6.21zm59.504 29.532v-27.634l25.265 10.661v27.337c-1.147-.18.491.461-25.265-10.364zm27.502 10.344v-27.52l25.794-11.064v27.616c-26.588 11.454-24.704 10.771-25.794 10.968zm81.37-34.927-21.132 9.107v-27.62l25.253-10.92v23.342a6.755 6.755 0 0 1-4.121 6.091z"/><path fill="#0F0F0F" d="M179.159 223.536a4.634 4.634 0 0 0-.684-2.664 2.43 2.43 0 0 0-2.508-.74c.418-6.08-9.524-5.27-8.545 2.549-2.69 1.355-2.255 4.909-1.939 8.088a3.269 3.269 0 0 0 2.08 3.04 7.409 7.409 0 0 0 4.448-.696c6.174-2.149 7.752-1.829 7.148-9.577zm-9.896-3.274c.8-2.08 4.981-3.816 5.213.282-6.733 1.953-4.406 1.262-5.641 1.6a7.152 7.152 0 0 1 .428-1.882zm2.24 11.138c-1.91.552-3.252 1.131-3.84.152-.32-.525-1.076-5.994.48-7.04.298-.188 7.317-2.4 7.615-2.488 1.643-.629 1.621-.029 1.851 1.675.91 6.653-.17 5.889-6.099 7.701h-.007z"/><path fill="#0F0F0F" d="M172.707 225.142c-1.305-.035-1.088 4.123.209 3.95 1.297-.172 1.099-3.913-.209-3.95zM138.796 120.16c-.764-.536-1.88.171-3.185.941-3.141-5.132-4.936-9.904-6.69-4.266-.309.989-1.253 3.259-1.169 3.419.014.026-.01.061-.053.039-8.103-6.141-9.975-6.341-1.167 1.432.413.272.712.851 1.6.782a1.54 1.54 0 0 0 1.32-1.12c.714-2.592.672-1.845 1.426-4.224l3.118 5.077c-3.788 2.653-2.478 3.422 1.12 4.949 3.048 1.312 3.312 1.67 4.191-4.698.088-.634.248-1.802-.511-2.331zm-1.814 5.814c-.056.247.12.32-.845-.16-.16-.08-2.387-1.109-2.547-1.163a24.159 24.159 0 0 1 4.102-2.781c-.046.528-.318 2.331-.71 4.103v.001zm103.604 7.84c-.32-2.826-2.58-3.909-2.577-9.37-.01-3.2.96-4.065-6.008-1.539-4.011 1.464-5.816 2.037-6.499 5.179-1.111 4.973 1.796 7.893 2.169 9.805.896 4.32-3.302 7.629 6.053 4.427 4.293-1.446 7.331-3.966 6.862-8.502zm-2.032 5.048a28.155 28.155 0 0 0-5.484 1.6c-6.508 2.226-4.94 3.298-3.956.32.975-3.227-.017-4.651-.996-6.734a17.612 17.612 0 0 1-1.202-8.242c1.301.554 7.824-1.28 10.39-3.442a10.249 10.249 0 0 0 .148 8.728c1.905 3.919 1.628 3.047 1.105 7.77h-.005z"/><path fill="#0F0F0F" d="M235.025 127.973c-.24-.699-6.41 1.424-6.17 2.123.24.699 6.41-1.424 6.17-2.123zm.711 3.313c-.232-.701-5.994 1.201-5.76 1.902.233.701 5.992-1.2 5.76-1.902zm-1.976 3.232c-3.248 1.013-4.752 2.648.333 1.067 5.051-1.58 2.923-2.086-.333-1.067z"/><path fill="#FFC5F6" d="M145.515 14.33c2.107-1.28 4.329-2.348 6.548-3.417 7.975-3.84 10.34-3.451 16.013-1.026 4.074 1.74 19.541 8.16 21.12 12.216.48 1.239.36 1.013.464 16.99.034 5.316-.721 4.983-1.235 7.717-.744 3.965.451 5.356-4.218 7.78a58.724 58.724 0 0 1-19.825 6.88 15.861 15.861 0 0 1-12.365-1.451c-2.989-1.415-14.922-8.31-16.512-11.188-.96-1.75-.782-2.417-1.182-18.013-.357-14.01-1.64-8.708 11.192-16.488z"/><path fill="#0F0F0F" d="M186.271 16.567C163.879 7.075 162.943 5.8 158.677 7.575l-21.12 8.8a8.282 8.282 0 0 0-5.106 7.665v23.784a8.28 8.28 0 0 0 5.106 7.66c23.086 9.626 22.08 9.448 24.331 9.448 2.251 0 1.069.25 24.331-9.448a8.273 8.273 0 0 0 5.108-7.66V24.21a8.292 8.292 0 0 0-5.056-7.643zm-26.303-5.896a4.982 4.982 0 0 1 3.84.013c23.074 9.8 21.426 9.04 21.984 9.416l-23.894 9.1-23.895-9.27c.578-.383-1.152.378 21.965-9.258zm-21.12 41.719a4.938 4.938 0 0 1-3.04-4.566c0-25.552-.235-24.586.586-26.12l24.382 9.459c0 33.408.338 30.507-.787 30.04l-21.141-8.813zm49.12-4.566a4.921 4.921 0 0 1-3.04 4.566l-21.136 8.813c-1.12.468-.787 3.397-.787-30.036l24.386-9.28c.812 1.505.587.497.587 25.937h-.01z"/><path fill="#fff" d="M307.99 229.861c-1.288-3.599-4.45-6.141-7.466-8.488a5.65 5.65 0 0 0-3.893-1.655c-.558 4.015.533-2.369-3.508-12.936-1.6-4.179-4.623-10.448-8.108-13.619-.649-.592-8.536-7.622-13.878-12.024-9.067-7.472-18.762-15.23-30.386-16.938a17.72 17.72 0 0 0-7.977.383c-7.56 2.427-6.045 8.48-7.6 11.856a37.238 37.238 0 0 1-2.891 4.211c-4.632 7.267.142 17.782 10.945 20.064-1.465 4-8.429-.64-8.133 9.691.389 13.567 4 13.034 8.687 18.501 2.257 2.634 3.601 5.92 5.512 8.8 3.982 6.037 14.285 14.053 17.6 15.338 7.149 2.771 16.256-1.469 22.72-4.552-6.645 4.899-9.989 3.476-14.674 6.004-2.76 1.49-3.865 2.712-.897 7.2 15.032 22.759 49.193-17.174 43.947-31.836z"/><path fill="#0F0F0F" d="M309.76 233.572c-.48-6.891-4.853-13.6-11.443-15.262.553-33.386-59.428-68.407-71.784-52.355a11.474 11.474 0 0 0-1.738 10.011c-5.106 2.454-6.643 9.517-4.995 15.232a12.69 12.69 0 0 0-2.341 10.051 12.72 12.72 0 0 0 5.891 8.474c-2.08 6.588.32 11.488 4.895 16.742 6.094 6.995 2.468 1.293 13.08 14.981 5.299 6.857 11.113 13.381 19.84 14.413 1.72 12.908 15.251 17.78 26.6 11.297 8.361-4.705 22.728-20.001 21.995-33.584zm-83.946-55.07c3.554 6.72 11.143 9.057 17.61 11.28a125.555 125.555 0 0 1 12.209 5.013 58.24 58.24 0 0 0-6.283 9.504c-10.358-4.762-9.569-1.242-18.525-5.976-10.176-5.396-9.176-16.354-5.006-19.821h-.005zm-4.384 16.48a17.157 17.157 0 0 0 8.927 6.952 11.25 11.25 0 0 0-5.717 4.88 12.465 12.465 0 0 1-3.2-11.827l-.01-.005zm29.362 51.377c-4.586-4.305-8.403-10.4-12.682-15.252-3.421-3.892-9.112-8.408-11.009-13.463-1.6-4.054-.045-9.518 3.372-11.609 4.8-3.116 13.154-.72 18.448 1.641 16.396 7.448 22.964 24.669 24.2 24.019.224-.115-.516-2.257-2.414-5.894-3.402-6.368-5.835-8.64-5.04-8.134 7.051 4.438 13.506 6.76 13.811 6.044.443-1.014-18.651-12.24-20.377-13.184a37.165 37.165 0 0 0-7.444-5.092c8.378-13.516 14.944-18.821 14.22-19.642-.378-.493-4.746 2.4-9.631 8.32a48.891 48.891 0 0 0-5.315-3.106c-5.76-3.369-10.592-4.435-15.469-7.256-5.005-2.92-9.001-7.66-7.424-13.184 1.999-6.801 10.168-4.78 16.923-3.148a71.416 71.416 0 0 1 30.277 17.28c9.223 8.817 18.823 19.62 19.16 32.294.669 21.504-25.918 46.338-43.601 29.371l-.005-.005zm52.48-1.582c-3.154 5.963-10.607 15.109-17.411 19.067-8.858 5.219-19.52 2.4-21.972-7.84 16.564-.137 32.492-17.747 34.263-34.928 6.141 2.41 11.581 11.65 5.125 23.706l-.005-.005z"/><path fill="#fff" d="M195.214 208.561c-.554.896-1.6 2.116-.944 2.315 5.771 1.76 11.064-1.213 23.634 3.632 6.26 2.413 13.496 6.821 17.585 12.561 3.221 4.525 3.696 7.925 4.191 6.92 1.555-3.156.448-3.2 3.566-6.838 3.52-4.115 7.582-5.638 13.198-7.666 6.031-2.176 12.528-4.883 19.053-4.195 3.2.338 1.6-1.28-.32-10.923-2.177-10.89 1.333-19.52 9.615-25.355a17.818 17.818 0 0 1 2.627-1.623 8.598 8.598 0 0 0 2.517-1.372c2.115-1.909-15.52-2.653-25.461-14.154a36.463 36.463 0 0 1-6.322-10.861c-.816-1.96-1.387-4.097-2.323-5.997-1.552-3.147-1.086-7.798-2.293-6.622-4.309 4.202-5.326 8.992-12.629 11.498-13.086 4.492-27.121 7.048-40.849 5.28 7.557 17.347.133 45.374-4.845 53.4z"/><path fill="#0F0F0F" d="M291.273 175.621c.33-1.215-13.085-4.175-24-14.903-12.168-11.963-11.885-24.56-13.034-24.513-.576-.232-2.88 5.179-9.14 9.424a34.632 34.632 0 0 1-4.372 2.433c-22.187 10.778-40.622 5.261-40.948 6.706-.762.309 1.718 4.833 2.497 17.536 1.523 24.829-9.893 37.728-8.614 38.622-.138 1.779 16.073.896 26.485 5.709a39.238 39.238 0 0 1 14.483 11.634c6.56 8.561 2.933 8.276 8.985 1.428 13.375-15.321 33.76-12.747 33.852-14.465 2.58-.48-8.367-20.911 8.457-35.509 3.045-2.667 5.499-3.605 5.349-4.102zm-6.781 2.209c-8.523 5.483-14.113 16.96-9.816 30.992a31.46 31.46 0 0 0 2.391 6.08c-5.205-2.302-26.128-1.035-35.346 13.37-4.536 7-.107 7.217-5.136-1.333a34.423 34.423 0 0 0-25.838-16.306c-23.808-2.929-17.295 6.375-9.724-10.604 6.812-15.279 4.866-37.312-.726-44.815 4.283 2.223 17.256 4.029 30.448.243 6.589-1.859 14.845-5.532 19.448-10.91 5.731-6.72 2.258-8.48 4.253.355 2.598 11.952 13.07 23.949 28.333 29.12 8.804 2.986 7.428.115 1.713 3.808z"/><path fill="#FDFE1F" d="M173.526 43.266c-.715-1.827-1.463-2.264-3.151-2.227-1.544.032-3.36.544-3.84 2.014-.32.999.196 8.104-1.377 10.623a2.402 2.402 0 0 1-4.136.256c-4.76-4.883-.544-13.301-5.4-13.22a4.53 4.53 0 0 0-4.347 4.263c-.066 1.136.182 2.272.049 3.408-.555 4.747-1.609.573 1.035 12.472.677 3.048 1.49 5.691 5.047 7.36-4.8 1.44-5.501 8.622-6.08 14.229-.535 5.259.32 8.976 5.499 10.905 2.843 1.06 2.899.378 2.685 1.039a10.873 10.873 0 0 0-4.419-1.12c-5.002-.421-6.24 10.443-6.058 15.088.114 2.848 1.163 3.433 3.379 3.414 1.653-.016 2.459-.235 3.05-1.712 1.046-2.603.971-6.355 4.689-5.899 1.76.216 2.28 1.078 2.423 2.771.235 2.792-2.08 4.432.707 5.431 3.768 1.347 5.718 2.224 6.173-8.4a11.76 11.76 0 0 0-1.415-7.04c.263-1.082.432-2.186.508-3.298 1.472-.237 3.212.06 4.675-3.056 2.493-5.314 1.149-14.992-.536-20.72-.245-.834-.467-1.09-1.322-1.264-2.445-.5-2.176.064-2.24-.554 8.135-2.81 6.675-18.944 4.402-24.763z"/><path fill="#0F0F0F" d="M173.498 41.6a4.527 4.527 0 0 0-7.075.394c-.701 1.152-.428 2.412-.652 5.42-.758 9.688-4.48 7.923-5.678 3.85-1.085-3.812-.832-8.716-2.312-10.24a4.16 4.16 0 0 0-6.07.698c-1.544 2.288-4.767 21.335 3.728 26.807-3.461 2.4-4.53 8.16-4.935 12.374-.43 4.352.226 8.936 3.667 11.656-6.702 3.727-6.796 17.464-4.742 19.376 2.008 1.898 6.014 1.301 6.426-1.569.846-1.492 1.296-3.2 2.006-4.32 1.035-1.632 2.346-1.396 2.845-.89.841.848 0 6.645.926 6.968 1.003 2.483 5.41 2.605 6.709.16 1.338-1.6 4.107-12.614.747-16.86.039-.151.075-.303.109-.457 7.813-1.933 6.982-11.545 6.56-18.851-.226-2.944-.782-6.464-3.248-8.086 7.171-6.092 3.67-23.456.989-26.432v.001zm-12.088 60.526c-2.384.448-3.482-2.426-3.794-2.372-.265.024-.353 1.431.674 2.701-2.831 1.056-3.669 5.232-3.571 7.991a3.228 3.228 0 0 1-4.022.413 3.219 3.219 0 0 1-1.004-1.037c-.066-.16.019.118.456-2.314 1.059-5.456 1.726-12.275 7.08-13.302.418.147.826.265 1.222.364a8.77 8.77 0 0 0-1.318 3.91c.056.617.277.905.443.894.191-.01.32-.304.555-.71.892-1.614 2.269-2.498 3.048-4.593 1.642-4.294-1.854-8.019-2.062-11.155-.11-1.477 1.038-3.971-.677-2.426-3.112 2.799.285 7.792.571 10.967-.76-.013-1.519.05-2.267.189-4.8-3.098-3.974-9.544-2.833-15.314.529-2.749 1.387-5.44 3.872-6.72.688.22 1.388.392 2.1.512-.051 1.053-.609 5.315.416 5.066.48-.108 3.442-5.28 1.637-11.36a39.19 39.19 0 0 0-1.709-4.584c-.347-.138-.993.862-.939 2.492 0 1.405.594 3.984.594 5.541-7.818-.8-7.607-12.688-7.52-20.64.072-4.512-.32-3.73.219-4.12a3.283 3.283 0 0 1 5.048.64c.267.42-2.066 12.197 4.176 13.795-1.402.448-1.76 1.837-1.44 1.903.184.096.48-.349 1.12-.567 1.366-.464 4.274.72 5.683 4.256a16.802 16.802 0 0 1-.064 11.868c-1.304 2.806-4.198 3.52-5.891 1.856-.533-.504-.69-.992-.898-.96-.382 0-.384 2.02 1.618 3.12-1.618.16-4.093 1.846-1.091 1.364 8.233-1.366 7.894 20.96.568 22.327v.005zm6.509 1.576c-.8 8.48-.16 7.376-.48 7.724a3.457 3.457 0 0 1-5.06-.299c.823-2.109 1.706-5.51.421-7.376a10.327 10.327 0 0 0 5.056-5.045c.312 1.648.333 3.336.063 4.991v.005zm4.723-31.52c.6 2.185 1.472 13.403-.239 17.379a6.32 6.32 0 0 1-2.867 3.227c.379-4.442-.8-11.968-4.886-13.856 4.225-.57 5.904-5.192 6.153-9.467a4.059 4.059 0 0 1 1.837 2.713l.002.004zm-1.963-6.128c-.48-3.554-2.18-7.424-5.54-8.8-1.097-.48-1.241-.22-.689-.445 3.84-1.536 3.925-10.4 2.134-13.387 2.045-1.84 3.549-2.37 6.751-.588-.263 4.996 3.012 18.188-2.656 23.216v.005-.001z"/><path fill="#92FCFF" d="M209.86 192.62c-.333 3.04.12 3.877 2.226 5.562 20.926 16.742 29.027 16.713 48.585 8.515 3.45-1.44 3.94-2.44 4.266-5.176 3.075-25.843 3.242-25.469 2.71-26.906-1.144-3.091-10.667-7.52-13.651-8.96-11.121-5.355-12.675-6.31-15.089-6.52-4.596-.4-18.685 5.533-22.928 7.378-2.351 1.021-2.314 2.304-2.962 5.571a238.727 238.727 0 0 0-3.157 20.536z"/><path fill="#0F0F0F" d="M265.724 168.729c-21.318-11.706-22.123-13.067-26.545-11.728l-21.9 6.629a8.27 8.27 0 0 0-5.854 7.107l-2.4 23.659a8.286 8.286 0 0 0 4.307 8.138c21.554 11.664 21.243 11.896 24.104 11.896 1.76 0 .869.107 24.311-6.989a8.287 8.287 0 0 0 5.854-7.107l2.381-23.491a8.283 8.283 0 0 0-4.258-8.114zm-25.574-8.52a4.974 4.974 0 0 1 3.816.398c21.985 12.064 20.405 11.159 20.921 11.588l-24.684 6.641-22.839-11.632c.613-.325-1.161.253 22.786-6.995zm-25.214 39.376a4.947 4.947 0 0 1-2.021-2.035 4.958 4.958 0 0 1-.548-2.816c2.58-25.44 2.248-24.488 3.218-25.92l23.302 11.87c-3.368 33.239-2.74 30.389-3.812 29.808l-20.139-10.907zm49.335.414a4.919 4.919 0 0 1-3.489 4.237c-23.768 7.2-22.117 6.73-22.72 6.805l3.054-30.131 25.197-6.779c.645 1.582.525.556-2.042 25.868z"/><path fill="#0F0F0F" d="M233.544 185.467c-.386-2.004-.402-2.33-.875-2.666-.869-.614-2.123.213-2.891.539-3.669 1.56-4.866 2.328-1.12 4.949l-3.04 4.96c-1.511-6.827-1.504-6.998-1.816-7.29a1.52 1.52 0 0 0-1.986-.257c-1.549 1.078-13.6 18.181.107 2.656.757-.856.215-1.543 1.999 6.345.462 2.042 2.012 1.692 2.604.837l3.748-6.12c3.142 1.863 4.435 2.075 3.27-3.953zm-5.294.406c4.036-1.614 3.22-2.294 3.648-.088.16.859.408 2.326.454 2.869a23.772 23.772 0 0 1-4.102-2.781z"/><path fill="#fff" d="M233.32 204.181c-14.704 6.304-5.938 19.456-.254 25.368 1.787 1.859 6.264 3.246 7.926 5.219a70.01 70.01 0 0 0 6.29 7.35c1.82 1.676 47.344 9.354 13.168-27.267-6.584-7.054-18.252-14.478-27.13-10.67z"/><path fill="#0F0F0F" d="M233.935 226.787c-5.488-5.533-9.022-9.808-6.745-16.346 3.509-10.08 18.861-5.043 27.571.984 9.026 6.24 17.304 20.824 18.365 20.275 1.317-.681-6.207-16.64-16.112-23.473-11.304-7.791-29.037-12.199-33.507.894-2.911 8.525 1.203 13.962 7.654 20.422 8 8.01 7.97 9.239 13.107 14.676 3.583 3.79 6.488 5.414 6.792 5.006.343-.459-1.782-2.686-4.662-6.771-7.138-10.119-7.163-10.325-12.463-15.667z"/><path fill="#fff" d="M120.099 226.146c6.384-7.85-6.84-22.27-21.76-18.619-9.218 2.256-33.488 15.39-34.88 19.576-.675 2.04 1.28 4.118 2.355 5.974a16.265 16.265 0 0 0 4.43 4.62c4.945 3.718 10.516 9.34 16.372 7.347 3.737-1.272 7.456-7.36 11.016-8.94.525-.23 19.275-6.035 22.467-9.958z"/><path fill="#0F0F0F" d="M94.626 210.164c-9.463 2.423-17.053 7.347-24.749 11.754-4.976 2.848-4.98 2.176-.872-1.25 38.88-32.427 62.694-5.696 50.672 7.832-2.378 2.677-5.28 3.631-8.786 4.411-14.638 3.263-20.092 9.716-20.8 8.928-.16-.187.722-1.414 2.757-3.217 11.008-9.744 20.179-7.762 24.093-12.469 5.981-7.19-2.104-21.16-22.315-15.989z"/><path fill="#fff" d="M129.759 181.791c-.727-8.174 1.44-44.097.339-46.072-.6-1.072-3.52-2.177-10.667-5.44-2.48-1.131-5.237-1.585-7.703-2.784-4.243-2.056-7.173-3.68-11.35-5.868-1.994-1.042-5.76-1.18-7.616-2.448a86.636 86.636 0 0 0-18.56-8.828c-2.371-.716-3.248.373-3.703 2.72-.259 1.335.053.778.021 2.112-.232 9.6-.662 2.762-.248 18.023.234 8.589.58 10.155-.257 12.403 2.032 23.16-3.917 29.44 5.214 35.509 6.35 4.217 24.026 7.595 37.056 14.454 4.96 2.613 10.029 5.263 15.56 6.189 1.165.195 2.038-.067 2.277-2.35.509-2.868.75-5.776.72-8.688-.245-2.949-1.083-5.97-1.083-8.932z"/><path fill="#92FCFF" d="M79.495 175.212c-3.936-1.631-2.765-1.996-1.935-55.088 1.95-.112 3.53 1.638 5.26 2.544 23.376 12.236 39.283 15.907 39.891 16.832.302.46-.568 50.24-.8 51.001-.832 2.768-1.773.8-2.72.64a19.43 19.43 0 0 1-4.8-1.779c-5.095-2.2-10.599-3.781-15.693-5.981-10.309-4.448-4.36-2.017-19.203-8.169z"/><path fill="#FDFE1F" d="M86.72 158.866c.057-.657.231-3.51-.31-3.904a6.024 6.024 0 0 1-3.641-2.912 3.557 3.557 0 0 1 1.228-4.732 3.552 3.552 0 0 1 1.693-.538c.445-.08 2.296-.16 2.38.075-3.015-8.405-5.53-12.573 1.843-7.792 1.579-3.339 1.584-3.456 1.944-3.733 2.198-1.701 3.593 4.143 5.6 1.551.64-.82.691-2.458 1.051-2.949.411-.56 1.829-.605 2.131 1.486.197 1.368-.256 4.463 1.399 4.736a3.244 3.244 0 0 0 1.897-.64c2.427-1.248 4.205.352 3.925 1.44-.091.355-.48.763-.251 1.131a4.635 4.635 0 0 1 3.421-.624 1.812 1.812 0 0 1 .48 2.12c-.629 1.492-2.08 1.6-2.061 2.652 0 .32-.026.198 1.368 3.07.435.384.709.917.765 1.494 2.256 0 2.507-.305 3.552 1.159a4.333 4.333 0 0 1 .475 3.771 4.337 4.337 0 0 1-2.677 2.699c-3.144 1.035.997 1.315.037 7.653-.349 2.296-.234 5.477-2.355 6.4-.727.32-1.156.568-.352 1.674 1.094 1.505 1.72 1.153 2.56 4.558.485 1.507.609 3.107.361 4.67-.227 3.309 1.432 5.812.01 5.426a24.062 24.062 0 0 1-8.112-3.333c-.16-.072-10.663-3.661-22.536-9.243-3.643-1.714 2.014-7.136 7.36-7.52 1.832-.131.709-1.253-.48-2.482-3.576-3.728-2.866-5.523-2.706-7.363z"/><path fill="#0F0F0F" d="M86.864 149.247c-1.687-.043-2.522 1.587-2.165 1.744.211.117.938-.829 2.14-.8.247.007.489.066.71.176a1.618 1.618 0 0 0-.99 2.231c.132.28.34.516.602.681.536.295.917.139.91.023.02-.237-1.169-.695-.64-1.744.153-.32.234-.248.36-.208 2.505 1.144 2.08 1.235 1.684-.093a2.867 2.867 0 0 0-2.61-2.011l-.001.001z"/><path fill="#0F0F0F" d="M132.058 136.887c0-5.617-3.2-3.553-56.136-27.969a4.798 4.798 0 0 0-4.601.304c-3.165 2.001-2.112-.471-2.704 66.793a4.814 4.814 0 0 0 2.957 4.501c57.63 24.218 55.36 24.263 58.436 22.223 3.077-2.04 2.068.428 2.048-65.852zm-5.288 63.188c-57.664-24.236-54.115-22.636-54.48-23.092 1.823-.748 4.21-2.772 3.752-3.36-.457-.587-3.4 1.295-4.067 1.776.48-66.4.416-62.22.523-62.56.66 1.52 3.775 7.074 4.59 6.54.746-.492-2.057-5.514-3.615-7.492.69-.214-3.16-1.76 53.92 23.455-1.194.48-5.25 2.52-4.898 3.288.387.841 4.85-1.391 6.13-2.211.11.334.125-4.076.184 62.297 0 .96-.008-.105-2.442-2.829-3.174-3.571-8.064-6.56-1.251 1.12 1.091 1.221 2.098 2.308 2.87 3.04a1.443 1.443 0 0 1-1.216.028z"/><path fill="#0F0F0F" d="M78.24 146.779c.268-35.495-1.705-35.565-1.97-.067-.149 5.104-.101 26.608.096 26.632 1.504.196 1.856-25.997 1.873-26.565zm43.603 44.481c1.384.16 1.719-24.909 1.746-25.929.264-34.637-1.709-34.708-1.97-.066-.088 3.214-.155 25.955.224 25.995z"/><path fill="#0F0F0F" d="M114.131 188.319c.575-4.517-.282-9.1-2.451-13.104-1.544-2.501-1.987-1.723-1.04-2.24 2.437-1.328 2.784-3.545 2.757-6.294a9.237 9.237 0 0 0-.64-7.229c-.354-.587.571.16 2.308-1.462 3.5-3.148.624-9.392-3.089-7.933-.464-2.754-2.443-2.584-1.461-3.621.343-.286.659-.603.944-.947 2.021-2.674.757-5.479-2.467-4.567-1.186.415-.448.52-.549-.728-.128-1.726-2.48-3.323-5.994-.928-.816.584-.603.64-.8-.451-.337-1.899-.758-4.581-1.683-5.373-.499-.51-1.313-.656-2.112.447a10.67 10.67 0 0 0-1.104 2.429c-.518 1.26-.73.142-2.18-1.348-1.301-1.336-2.88-1.355-3.769.26a11.546 11.546 0 0 0-.779 2.24 1.526 1.526 0 0 1-.237.542c-1.094-.253-2.185-1.872-3.752-2.051-3.448-.215-.708 5.029 1.172 10.035-5.99-1.099-7.888 7.59-1.068 9.896-.827 4.541.12 9.203 3.68 12.064-4.182.534-7.928 2.848-8.88 7.008-20.32-6.915 39.405 18.738 40.143 16.976.105-.275-2.579-1.65-6.949-3.621zm-4.294-16.752c-3.143 1.736-15.99.471-16.133-5.211-.07-2.781 1.12-5.37 4.683-7.496a2.32 2.32 0 0 0 .91 2.518c2.344 1.253 3.468-.275 4.037 2.344.09.396.248.608.36.581.112-.027.191-.219.293-.569 1.307-4.48-6.013-2.485-3.651-5.12 1.051-1.215 7.333-1.383 9.32.214 2.089 1.693-2.413 1.485-3.25 3.446-.32.765-.219 2.304.048 2.381.367.106.592-1.304.983-1.795.779-.981 3.692-.438 4.32-2.72.5 1.27.68 2.643.524 4-.371 4.725-3.089 4.054-7.444 3.856-21.386-1.506 2.196 2.746 5.78 1.507 1.152-.368 1.3-1.017.96 0a3.5 3.5 0 0 1-.665 1.203 3.5 3.5 0 0 1-1.075.856v.005zm-13.11-13.654a4.03 4.03 0 0 1-1.996-2.922c3.082-.232 2.651-.264 2.662-.109.063.898-.088 1.348 1.04 1.202 1.128-.146.901-.595.847-1.299 2.056.213 2.184.603 2.88.32-.283 1.361-.298 1.067-1.083 1.265a3.748 3.748 0 0 0-2.098 1.255c-.493.183-.974.397-1.44.64a6.014 6.014 0 0 1-.813-.357v.005zm8.233-1.914c-3.221.026-1.947.562-2.152-1.177.358.064 2.598-.151 3.424-.202-.066.16.029.422.089.981.044.393 1.949.609 1.884-.16-.026-.28-.064-.528-.096-.754.681.088 2.041.395 2.094.397-1.443 2.488-.736.99-5.243.915zm5.659-3.558c.49 1.067-.042 1.861-.48 1.713a12.419 12.419 0 0 0-5.616-.16c-2.741.301-.613.45-1.576-1.76a4.351 4.351 0 0 1 3.894-2.204 4.343 4.343 0 0 1 3.775 2.404l.003.007zm-8.381 1.12c-.059 1.12-.976.537-2.232.387-2.662-.355-5.41.499-5.725.254-.66-.356.228-4.1 3.981-4.078 2.343-.003 4.138 2.11 3.978 3.424l-.002.013zm11.024-2.149c2.517.866 2.432 5.954-1.544 6.835-.113-.094-1.481-1.07-1.747-1.216a4.071 4.071 0 0 0 1.133-2.251c.082-.064.157-.136.224-.216a.825.825 0 0 0 .733.584c.073-.048.246.301.147.507-.194.469-1.024.89-.901 1.139.109.32 1.344.181 1.786-.8a1.302 1.302 0 0 0-.369-1.53 1.312 1.312 0 0 0-.497-.254c.16-.23.856-.4 1.099-.028.408.66.675.39.64-.2-.061-1.028-1.4-1.223-2.203-.628a2.832 2.832 0 0 0-.282-1.305c-.091-.189.88-.959 1.776-.65l.005.013zm-21.76-13.493c.125-.417.557-2.329.986-2.424 1.208-.878 3.656 6.4 5.737.434.055-.16.64-1.787.864-1.747.59-.925 1.951 8.515 1.584 10.011-.033.16-.041.054-11.568 2.014.11.304-.48-1.192-.601-1.513.32-.05 11.125-2.143 11.077-2.533-.06-.512-7.178.371-11.268 2.043-5.686-14.658 1.237.342 3.19-6.285zm-4.192 18.219c2.477.266 3.4-1.449 2.59-1.177-3.055 1.029-7.35-2.08-6.227-5.591.8-2.499 3.943-2.316 5.872-.952 1.6 1.154 1.792 2.594 2.039 2.54.105-.008.217-.368.107-1.024a5.468 5.468 0 0 0-1.18-2.264c11.423-2.063 11.03-1.984 11.314-2.4a7.314 7.314 0 0 0 .212-3.856c1.659-.96 2.803-2.08 4.371-1.575 1.952.755-2.467 4.243-1.639 4.752.168.2 1.264-.697 3.1-1.734 1.784-.947 3.542-1.082 2.764.757-.547 1.348-1.489 1.396-1.971 2.598-.816 1.979 1.471 1.995 1.883 4.48a5.09 5.09 0 0 0-4.194-1.537 5.09 5.09 0 0 0-3.786 2.371 5 5 0 0 0-5.144-2.216 5.003 5.003 0 0 0-3.976 3.945c-.036.48-.144 1.341.584 1.647a3.802 3.802 0 0 0 2.328 3.769c.592.24.281-.225-1.54 1.536a8.297 8.297 0 0 0-2.593 6.168c-.011 1.576.918 2.123-.707.92-3.557-2.593-4.372-6.761-4.205-11.157h-.002zm2.589 22.119a10.19 10.19 0 0 1 9.208-1.141c6.515 2.2 8.16 6.514 8.662 6.298.349-.144-.576-2.792-3.216-4.696-6.672-4.936-12.992-3.711-15.29-.706a266.273 266.273 0 0 0-7.289-2.694c1.823-4.01 5.12-5.28 9.376-6.359.733.386 1.506.691 2.304.909 2.469 2.979 5.76 3.275 9.37 3.84 1.924.354 3.898.341 5.817-.038 3.125 3.772 3.824 9.206 4.112 14.112-6.849-3.053-15.88-6.76-23.056-9.525h.002zm32.468-38.974c.36-.898-43.334-19.243-43.723-18.368-.675 1.518 43.115 19.875 43.725 18.368h-.002z"/><path fill="#92FCFF" d="M186.513 101.574c1.211-1.875 2.197-1.678 3.058-.48 2.811 3.888 14.489 20.362 13.678 25.146a7.567 7.567 0 0 1-1.849 3.127 7.569 7.569 0 0 1-3.092 1.908c-1.132.344-2.72 1.206-3.84 1.571a41.63 41.63 0 0 0-3.729 2.147c-3.939 1.76-8.411-1.44-16.208-6.044-1.994-1.176-1.45-2.892-.48-4.928a193.463 193.463 0 0 1 12.462-22.447z"/><path fill="#92FCFF" d="M185.726 157.832c.61 1.254 1.47 3.32 3.168 2.662.981-.381 1.176-1.642 1.614-2.597a10.855 10.855 0 0 1 1.92-2.494c1.54-1.747 11.73-18.12 10.708-20.16-.672-1.343-4.287 1.845-9.719 3.901a13.126 13.126 0 0 1-12.489-.748c-3.906-2.006-5.988-3.486-7.672-2.446-.831.514-.594.48-.231 1.493 4.304 11.913 10.447 15.749 12.701 20.389z"/><path fill="#0F0F0F" d="M172.227 128.959c1.51 2.181 13.92 7.84 15.771 7.587.13 0 .24-.088.387 0l.368-.104c10.77-5.12 19.888-5.331 13.28-16.8-4.356-7.145-12.494-21.1-13.382-20.584-1.059-.667-13.149 19.456-13.718 20.447-1.653 3.027-3.866 6.704-2.706 9.454zm14.984 4.541a68.335 68.335 0 0 1-12.282-5.886c-.625-.456.098-.389 2.533-.852 4.615-.876 8.829-1.95 10.037-2.105.038 10.28.594 9.126-.288 8.845v-.002zm1.862-.395c-1.169.496-.595 1.557-.254-8.506 1.733.079 7.52 1.696 12.341 2.456-1.32 2.25-8.957 4.723-12.087 6.051v-.001zm2.165-27.24c7.371 15.445 10.192 16.865 10.195 20.072-.012.837 1.103.526-10.196-2.421-.777-.197-1.57-.32-2.37-.368.133-4.517.389-19.282-.141-23.19a49.575 49.575 0 0 0 2.512 5.908v-.001zm-16.296 20.448c1.109-3.503 9.968-17.205 13.28-25.429-.537 5.064-.723 16.68-.728 22.312-2.939.336-12.645 3.414-12.552 3.118v-.001z"/><path fill="#0F0F0F" d="M204.607 132.755a1.727 1.727 0 0 0-1.702-.106c-4.01 1.972-8.196 3.764-13.232 6.141-2.162 1.023-1.015 1.109-4.711-.32-13.089-5.08-11.08-7.904-13.129-6.981-4.32 1.952 11.329 26.511 15.892 29.847 2.989 2.184 14.944-20.08 16.685-23.723.765-1.634 1.639-3.911.197-4.858zm-28.146 6.912c-2.179-4.48-2.576-2.384 7.445 1.502 2.619 1.016 2.68 1.04 3.061 1.157 1.403.48.44-1.68.403 8.783a77.838 77.838 0 0 0 .37 8.968c-1.579-3.085-6.583-10.759-11.279-20.41zm11.751 21.485c-.375-1.328.568 2.483.611-10.039.034-9.635-.715-8.534-.05-8.737l12.98-5.941c-5.16 10.846-13.196 23.653-13.541 24.717z"/><path fill="#FDFE1F" d="M155.536 203.907a17.475 17.475 0 0 1-5.224-3.61 28.033 28.033 0 0 0-3.368-4.106 37.519 37.519 0 0 1-5.813-9.04c-.6-1.529-.771-2.907-2.313-11.096-1.395-7.406-2.683-16.34 3.725-21.427 5.092-4.043 14.78-2.806 19.04-.925 5.468 2.416 13.035 10.575 15.286 21.21.984 4.64 1.659 16.877-.226 21.23-3.763 8.684-19.332 8.336-21.107 7.764z"/><path fill="#0F0F0F" d="M166.58 155.348c-6.651-6.197-12.288-5.12-21.109-3.745-13.688 2.126-11.157 42.252 8.658 52.401 3.011 1.511 9.472.861 12.828.186 4.498-.96 6.4-1.531 8.711-4.263 6.608-8.808 3.051-33.776-9.088-44.579zm-22.674-.744c1.178-.76 7.392-1.557 8.515-1.665a11.652 11.652 0 0 0-4.96 7.614c-3.603.714-3.236 1.12-7.236.389.592-2.285 1.694-5.05 3.681-6.338zm-4.067 8.039c5.056-.629 2.114-.535 7.229-.208a39.05 39.05 0 0 0-.035 10.76c-3.794.96-3.084 1.296-7.463.814a36.48 36.48 0 0 1 .269-11.366zm-.03 13.035c5.6-1.173 3.84-.437 7.483-.594a62.282 62.282 0 0 0 2.702 10.656c-4.616.725-2.856.674-7.486.106a55.318 55.318 0 0 1-2.698-10.167l-.001-.001zm3.38 11.894c5.133-.937 5.112.032 7.508.042a40.1 40.1 0 0 0 4.377 8.31c-3.469 1.162-2.737.736-6.478.77a35.03 35.03 0 0 1-5.397-9.122h-.01zm6.72 10.56c3.38-1.105 4.8-.265 6.468-.571a16.2 16.2 0 0 0 7.387 4.859c-6.315.68-9.552.072-13.855-4.281v-.007zm26.941-6.92c-1.211 8.512-4.829 9.663-9.651 10.663-10.254-.348-15.41-13.247-17.723-23.256-6.442-27.925 9.552-33.12 21.045-15.42a42.445 42.445 0 0 1 6.329 28.02v-.007z"/><path fill="#0F0F0F" d="M173.423 179.12c.627 5.48.501 13.6-3.49 17.337a4.998 4.998 0 0 1-7.113.064c-11.085-8.937-15.915-43.36-2.627-39.281 5.19 1.592 9.056 8.838 11.129 13.856 2.011 4.995 2.202 4.9.538-.197-6.72-19.976-21.76-20.293-21.223-1.664.512 13.49 10.789 37.355 20.132 28.11 4.228-4.15 4.299-12.403 3.22-18.315-1.048-5.304-1.241-5.179-.566.09z"/><path fill="#0F0F0F" d="M164.273 175.415a5.287 5.287 0 0 0-2.594-8.976c-.179-1.745-1.302-2.765-1.6-2.56-.336.218.128 1.619.363 2.474-1.885.009-1.557.32-1.675-.176-.682-2.815-1.906-2.24-1.134.512-.453.247-.924.461-1.408.64.547 2.166 2.424 6.696 3.344 10.4 3.43 13.808 1.83 10.35 3.91 10.267.464 2.208 2.462 3.594 1.306.134-.1-.289-.13-.232.092-.265 1.752-.261 1.453-.611 1.575-.16.709 2.603 1.955 2.513 1.179-.339-.152-.554-.219-.343.174-.64 4.117-3.026.272-9.999-3.532-11.311zm-5.271-6.688a4.86 4.86 0 0 1 4.136-.222 3.164 3.164 0 0 1 1.567 2.614 3.151 3.151 0 0 1-1.384 2.717 9.903 9.903 0 0 1-3.228 1.27c-.43-2.225-.774-4.569-1.091-6.379zm4.618 16.872a60.446 60.446 0 0 1-2.946-7.859 6.21 6.21 0 0 1 3.592-.386c4.243 1.349 7.021 8.711-.646 8.245z"/><path fill="#FFC5F6" d="M204.762 263.485c2.108-1.28 4.33-2.349 6.549-3.418 7.975-3.84 10.339-3.451 16.013-1.027 4.074 1.741 19.541 8.16 21.12 12.217.48 1.239.36 1.013.464 16.989.034 5.317-.722 4.984-1.235 7.719-.744 3.964.451 5.355-4.218 7.779a58.739 58.739 0 0 1-19.825 6.88 15.863 15.863 0 0 1-12.365-1.451c-2.989-1.415-14.922-8.309-16.512-11.189-.96-1.749-.783-2.416-1.183-18.011-.356-14.01-1.64-8.709 11.192-16.488z"/><path fill="#0F0F0F" d="M245.519 264.556c-22.4-9.493-23.328-10.769-27.594-8.992l-21.12 8.8a8.28 8.28 0 0 0-5.107 7.663v23.78a8.289 8.289 0 0 0 5.107 7.663c23.133 9.645 22.08 9.44 24.331 9.44 2.251 0 .891.328 24.331-9.44a8.292 8.292 0 0 0 5.108-7.663v-23.609a8.283 8.283 0 0 0-5.056-7.642zm-26.304-5.896a4.985 4.985 0 0 1 3.84.011c23.11 9.808 21.419 9.04 21.984 9.418l-23.892 9.098-23.892-9.269c.579-.387-1.095.349 21.96-9.258zm-21.12 41.717a4.929 4.929 0 0 1-3.04-4.566c0-25.493-.245-24.572.585-26.12l24.383 9.459c0 33.408.337 30.507-.788 30.04l-21.14-8.813zm49.12-4.566a4.931 4.931 0 0 1-3.04 4.566l-21.135 8.813c-1.12.469-.785 3.397-.785-30.035l24.384-9.28c.812 1.504.587.513.587 25.936h-.011z"/><path fill="#FFC5F6" d="M111.115 263.484c2.108-1.28 4.33-2.348 6.549-3.417 7.973-3.84 10.339-3.451 16.013-1.027 4.074 1.74 19.541 8.16 21.12 12.217.48 1.239.36 1.013.464 16.989.034 5.317-.722 4.984-1.235 7.718-.746 3.965.451 5.356-4.218 7.78a58.739 58.739 0 0 1-19.825 6.88 15.863 15.863 0 0 1-12.365-1.452c-2.989-1.414-14.922-8.308-16.512-11.188-.96-1.749-.783-2.416-1.183-18.012-.356-14.009-1.64-8.708 11.192-16.488z"/><path fill="#0F0F0F" d="M151.871 264.701c-22.389-9.494-23.33-10.768-27.594-8.992l-21.12 8.8a8.276 8.276 0 0 0-5.105 7.661v23.781a8.286 8.286 0 0 0 5.105 7.662c23.133 9.647 22.08 9.448 24.331 9.448 2.357 0 1.933-.108 24.332-9.448a8.277 8.277 0 0 0 5.107-7.662v-23.606a8.292 8.292 0 0 0-5.056-7.644zm-26.303-5.896a4.985 4.985 0 0 1 3.84.012c23.09 9.792 21.415 9.038 21.984 9.417l-23.889 9.099-23.899-9.27c.571-.384-1.285.434 21.964-9.258zm-21.12 41.719a4.945 4.945 0 0 1-3.04-4.568c0-25.551-.235-24.586.586-26.12l24.382 9.461c0 33.42.338 30.507-.787 30.038l-21.141-8.811zm49.12-4.568a4.939 4.939 0 0 1-3.04 4.568l-21.136 8.811c-1.12.469-.788 3.398-.788-30.034l24.387-9.288c.813 1.514.587.504.587 25.943h-.01z"/><path fill="#FDFE1F" d="M229.92 264.909c-.12-2.029-3.029-7.738-5.636-13.016a7.844 7.844 0 0 0-3.744-4.17 7.255 7.255 0 0 0-6.334-.902c-2.378.499-1.886.593-2.522-.175 1.44-.129 2.154-.469 3.116-2.328 3.496-6.753.137-8.995-1.14-14.4a28.61 28.61 0 0 0-1.824-6.856c-1.748-4.64-2.003-8.014-7.772-4.742-1.546.877-1.658 1.499-1.103 2.913.887 2.256 3.432 9.343 2.973 11.733a2.58 2.58 0 0 1-3.034 2.33 2.594 2.594 0 0 1-1.272-.627c-2.756-1.823-2.734-4.514-3.158-6.698-.547-2.805-2.754-7.397-5.52-7.712a3.324 3.324 0 0 0-1.914.573 3.323 3.323 0 0 0-1.236 1.568c-.693 2.937 5.76 19.381 7.752 21.667a8.44 8.44 0 0 0 4.755 2.55c.835 4.813 1.723 2.868-.061 4.16a5.6 5.6 0 0 0-1.325 5.28c.762 4.247 8.058 12.8 9.722 13.935 3.249 2.23 7.417 1.147 5.995-2.527a13.39 13.39 0 0 0-1.834-2.809c-3.491-4.879-.257-8.595 2.42-7.84 2.23.622 2.72 3.547 3.408 5.157a17.244 17.244 0 0 0 4.32 5.854 3.057 3.057 0 0 0 3.507.283 3.064 3.064 0 0 0 1.461-3.201z"/><path fill="#0F0F0F" d="M230.34 262.62c-.596-5.201-6.346-17.491-13.92-17.768 3.35-6.828-2.618-22.144-5.389-26.107.363-3.654-6.912-3.928-8.309-.123-.867 2.411 2.974 11.266 2.781 13.885-.072 1.526-1.363 2-2.56 1.033-1.448-1.171-4.039-8.36-5.959-10.55a3.711 3.711 0 0 0-4.096-3.309c-2.788.144-4 2.952-3.104 4.16-1.849 1.981 3.376 16.859 5.872 20.495a8.333 8.333 0 0 0 5.319 3.769c.366 1.322.563 1.44.403 1.296a7.268 7.268 0 0 0-1.517 6.696c1.159 4.8 8.831 14.807 10.842 14.218.219.371.533.678.909.888 3.019 1.878 7.729-.816 5.398-3.741-.8-2.56-3.368-8.246-.872-8.611 3.091-.453 4.563 5.905 6.91 7.867.466 2.56 6.629 4 7.007.64.423-1.542.52-3.156.285-4.738zm-37.295-32.456c-2.128-7.696-3.441-5.59-2.357-7.47a2.654 2.654 0 0 1 2.303-1.339 4.034 4.034 0 0 1 3.374 1.701c-.043 1.705 2.165 7.891 2.789 9.52a6.413 6.413 0 0 0 1.374 2.398 6.389 6.389 0 0 0 2.261 1.59c-2.4 2.151-2.654 6.24-2.273 9.258-4.122-4.002-5.724-9.374-7.471-15.658zm23.29 37.948c-.075 1.068-.115 1.42-1.546 1.899a9.378 9.378 0 0 1-3.974-.106c-.32-1.19-7.477-11.241-8.235-14.453a4.727 4.727 0 0 1 .222-3.16c2.022 3.276 5.944 6.544 9.76 6.56-.723 2.8 1.784 7.735 3.773 9.26zm12.585-1.088c-.726 1.265-3.662.305-4.604-.226-1.12-.629-.3-.08-1.524-3.752-1.02-2.824-2.214-6.366-5.64-6.936.503-1.176.098-2.186-.128-2.131-.227.013-.265.577-.718 1.245-3.011 4.523-13.043-1.783-13.331-11.869-.379-8.458 4.771-6.312 4.91-6.48.106-.095-.041-.659-.923-1.155 2.926-2.944.115-7.864-1.44-11.495a16.566 16.566 0 0 0-2.314-4.129c.77-1.516 2.01-2.72 5.24-2.56.834.041 1.176.451 1.791 1.036-.525 5.002 8.6 21.65 2.093 27.084-1.375-3.013-1.458-6.901-3.384-8.343-1.698-1.27-.741.8-.562 2.49.432 4.07.549 7.614 4.093 10.448 1.086.849 1.835 1.243 2.475 1.782 1.267.96 1.658 1.856 2.054 1.84.679-.072.255-1.928-.595-3.173a28.933 28.933 0 0 0-2.464-2.633c2.336-.904 4.96-.48 7.568 2.478 2.575 2.869 8.765 13.963 7.403 16.479z"/><path fill="#FDFE1F" d="M153.993 229.322a5.977 5.977 0 0 0-3.594-2.123c-3.638-.181-4.052 6.945-6.321 9.76-1.616 2.005-3.824 1.829-4.4.909a5.712 5.712 0 0 1 .117-3.666 21.467 21.467 0 0 0 1.998-5.338 7.69 7.69 0 0 0 .056-5.427c-.626-1.305-3.797-2.038-5.491-.299a8.442 8.442 0 0 0-1.6 3.275c-1.341 3.858-7.752 13.898-1.301 18.56-.392 2.56-.134 2.143-.914 1.92-6.067-1.717-14.049 15.439-14.054 17.474a2.765 2.765 0 0 0 2.214 2.544c3.271.697 4.858-3.04 5.965-4.768 1.723-2.69 3.77-2.871 4.576-2.327a4.684 4.684 0 0 1 .976 4.624c-.469 1.54-2.069 3.485-.984 5.148 1.136 1.744 1.776 1.857 2.867 1.873 2.906.045 1.695.275 4.671-2.821a65.397 65.397 0 0 0 4.973-7.59 8.837 8.837 0 0 0-2.842-11.451c.4-1.535.096-1.154.888-1.01a11.96 11.96 0 0 0 7.472-2.44 23.395 23.395 0 0 0 3.472-7.009c.28-1.013.429-2.058.704-3.071.534-1.921 1.931-4.651.552-6.747z"/><path fill="#0F0F0F" d="M155.171 229.377c-.904-2.622-4.381-4.096-6.501-2.146-2.012.348-5.424 11.244-7.36 10.447-2.547-.891 2.672-10.24 1.824-13.347a4.175 4.175 0 0 0-2.296-2.576 4.192 4.192 0 0 0-3.451.016c-2.011 1.014-13.789 15.726-6.261 24.139-4.64.779-6.4 3.443-8.491 6.854-1.552 2.586-5.187 9.546-4.774 12.431.374 2.907 5.022 3.774 6.286 1.569.8-.049 2.387-1.579 3.765-3.63a2.784 2.784 0 0 1 2.941-1.506c3.483 1.056-1.306 6.154-.058 7.319a3.727 3.727 0 0 0 1.984 2.804 3.69 3.69 0 0 0 3.434-.024c3.04-1.75 12.603-13.542 7.99-20.83 6.739-.848 8.495-7.098 9.943-13.242.217-.961 1.694-7.553 1.025-8.278zM123.64 266.26c-2.389.415-3.757.091-4.989-1.998 2.4-2.426 7.103-12.653 9.864-14.418a7.948 7.948 0 0 1 3.291-1.206 8.806 8.806 0 0 1-1.12 2.777c-2.945 4.695-1.561 7.69 2.384 1.456 2.016-3.249 1.826-6.78 2.512-9.836.64-2.922 1.535-3.719 1.231-4.269-.429-.839-3.346.059-4.139 4.613-4.48-6.36 4.678-17.432 4.088-20.4 1.945.052 3.372-.672 5.6 2.24-1.848 1.12-5.392 9.361-4.503 12.366-.291.16-.977.744-.811 1.05.182.339.995.172 1.512.297 3.606 0 1.498 20.338-5.92 20.079-2.595-.138-2.424-2.498-3.005-2.538-.377-.064-1.038 1.072-.585 2.47-3.13.845-5.583 5.794-5.41 7.317zm12.862 4.301c-2.18.069-2.974.203-4.8-1.701a6.273 6.273 0 0 0 2.743-3.17 6.273 6.273 0 0 0 .137-4.19c4.055-.904 6.024-5.27 7.152-9.264 3.725 5.343-4.379 13.728-5.232 18.323v.002zm16.586-37.661c-3.109 8.023-3.157 15.291-10.37 15.301a17.945 17.945 0 0 0-.188-7.87c3.145-1.058 5.686-7.421 6.358-10.669.411-2.117-.086-1.618.8-1.8a5.238 5.238 0 0 1 4.419 2.013c.394.436.259-.276-1.019 3.025z"/></svg>