<svg xmlns="http://www.w3.org/2000/svg" width="320" height="320" fill="none"><path fill="#fff" d="M29.635 301.017a2.828 2.828 0 0 1-2.346-2.24c-.614-3.317 6.052-17.742 6.052-17.742s-3.567-3.739-1.698-10.765c.767-2.88 6.536-15.128 10.53-19.285 2.678-2.789 7.52-5.501 11.52-4.552.16.037-.983 1.082 7.022-8.377 8.8-10.4 30.371-28.096 48.57-36.388 19.097-8.7 51.294-15.84 79.84-10.776 38.048 6.76 62.758 28.743 78.627 45.623 6.349-.088 11.816 4.921 16 9.694 6.602 7.52 12.63 16.387 13.046 26.386a12.213 12.213 0 0 1-2.08 8.16 121.918 121.918 0 0 1 4.84 14.005 3.652 3.652 0 0 1-.424 2.828 3.65 3.65 0 0 1-2.331 1.66c-20.453 4.532-126.349 25.208-267.168 1.769z"/><path fill="#0F0F0F" d="M283.785 256.073c-.784.619 10.232 15.562 4.025 16.198a14.379 14.379 0 0 0-1.6-5.993c-1.777-3.698-9.44-13.613-11.27-15.639a12.087 12.087 0 0 0-6.282-4.022c1.066-6.016 9.44 2.846 10.101 1.92.282-.421-5.545-7.237-9.491-5.79-2.24.776-3.68 3.79-2.443 7.267 1.976 5.582 14.707 21.017 15.52 21.822 2.099 1.97 4.334 3.325 7.022 2.36 7.771-3.981-4.963-18.621-5.582-18.123zm-5.28 7.422c-2.4-3.067-9.547-11.776-9.906-15.664 4.064 1.341 6.634 5.972 10.805 11.458 2.88 3.906 6.47 8.058 7.085 12.771-2.85-1.059-5.741-5.821-7.976-8.565h-.008zm-32.086 19.69c-.843-15.2-25.475-23.266-25.782-20.939-.194.811 8.816 2.659 16.931 10.773 7.741 7.849 6.007 14.856 2.4 16.073.831-4.547-2.057-8.8-5.638-11.693-5.005-4.062-11.752-5.665-18.034-7.2-8.721-2.052-21.897-4.369-27.294 2.98-3.426-14.256 24.203-10.272 24.433-11.264.562-1.853-26.492-6.277-28.073 7.747a11.83 11.83 0 0 0 6.005 11.643c5.204 3.2 11.454 2.438 17.198 3.174 14.766 1.749 19.936 7.826 28.411 8.351 6.338.305 9.666-3.634 9.443-9.645zm-28.896-.435c-13.678-3.731-22.545-.114-27.424-7.167 3.324-7.243 18.22-4.358 25.538-2.617 7.728 1.854 18.634 4.385 21.789 12.112.6 1.365.758 2.883.454 4.344-5.765.102-10.853-4.082-20.357-6.672zm-37.415-56.781c-3.658-6.589-14.799-5.667-14.583-4.563.039.432 2.173.373 5.26 1.314 3.552 1.12 8.128 3.627 7.168 7.248-.684 2.787-.336.51-6.33-1.948-8.36-3.476-21.453-2.179-25.349 3.709-1.821-3.469.899-6.4 4.381-8.126 2.848-1.309 7.36-2.805 3.373-2.618-14.159.831-13.813 14.731-4.211 16.565 3.608.69 7.404-.395 13.227-.394 4.259-.073 10.4 1.57 14.587-1.904 3.362-2.697 4.046-6.548 2.477-9.283zm-17.067 8.338c-7.967 0-12.48 1.968-15.765-1.243 3.192-4.604 17.76-7.672 29.053-.455-3.328 3.178-8.183 1.664-13.288 1.698zM43.689 264.339c-3.312 6.136-5.62 11.348-6.316 11.128-.64-.207.64-5.973 4.073-12.341 3.431-6.368 7.584-10.587 8.111-10.155.56.468-2.553 5.232-5.868 11.368zm80.471 3.5c-7.809-9.984-26.224-.404-25.377.924.429.763 11.958-4.264 19.288-1.516 4.179 1.935 4.283 4.061 2.507 6.4-.501.661-2.27-1.209-8.8-1.134-11.435.093-23.68 6.622-29.512 15.824-3.003-1.363-3.478-3.547-2.112-6.56 2.749-6.061 10.53-10.227 10.149-10.994-.566-1.334-15.486 6.042-14.08 15.287 1.14 5.346 6.99 6.992 12.933 6.137 6.232-.955 42.379-12.782 35.004-24.368zM84.31 288.91c7.806-9.472 22.353-15.715 34.452-13.403-5.962 5.192-26.992 14.476-34.451 13.403zm135.415-43.018c-2.501-2.592-1.934-5.166.246-5.641a14.562 14.562 0 0 1 8.913 2.505c2.72 1.76 8.263 5.791-.775 1.391-5.136-2.501-8.328-1.682-7.816-1.703 0 0-.011-.022.011.104-.099 2.852 15.559 10.807 13.339 5.455-1.027-2.152-.054-1.392.738-.471 1.771 2.058-.131 7.392-11.286.728a14.018 14.018 0 0 1-3.37-2.368zm-119.16-6.152c-4.047.309-10.992 2.948-8.775 6.316 1.932 2.844 7.385 1.894 10.788 1.134 9.562-2.29 9.239-8.141-2.013-7.45zm6.775 3.733c-3.459 2.424-18.49 3.506-11.82-.248 6.57-3.697 15.681-2.461 11.82.248zm37.369 13.272c-6.206 5.615-11.163 2.72-10.322-.757.32-1.337 2.261-3.406 1.314-.96a2.139 2.139 0 0 0-.089 1.949 2.147 2.147 0 0 0 1.529 1.213c2.126.501 6.779-2.672 7.072-4.168.194-1.518.205-2.898-4.253-1.451-8.008 2.596-.96-1.344 1.6-2.064 2.333-.48 4.261-.178 4.603 2.187a4.341 4.341 0 0 1-1.454 4.051zm-87.652 31.863c-2.65-2.119.66-6.06 4.189-7.52 2.79-1.152 3.771.07 3.565.195a5.907 5.907 0 0 0-2.948 1.038c-3.934 2.451-4.96 5.677-2.252 4.752a12.148 12.148 0 0 0 4.374-3.102 2.64 2.64 0 0 0 .826-2.688c.16-.432 1.905.96.278 3.52s-5.7 5.67-8.032 3.805zm211.38 1.361a2.55 2.55 0 0 1-3.241 1.017c-3.784-1.427-5.935-6.825-4.883-8.035.392-.537.345.237.502.707a11.51 11.51 0 0 0 3.43 4.578c2.4 1.99 3.711.987 1.36-2.355-.792-1.12-2.796-3.426-4.235-3.331-.438.027-.675.3-.8.228-.101-.014-.16-.556.559-.948 2.588-1.4 9.017 4.62 7.308 8.139z"/><path fill="#0F0F0F" d="M176.985 278.08c-1.563-4.292-1.214-7.172-.997-7.157.608-.072 1.76 12.987 13.807 17.76 5.27 2.091 10.904 2.096 16.545 3.161 4.402.832 6.888 2.2 6.771 2.434-.123.301-2.68-.518-6.988-.949-8.46-.841-23.525.146-29.138-15.249zm-25.599-34.483c-8.976-1.002-13.726-6.816-13.141-7.269.535-.48 4.048 4.28 13.365 5.331 7.093.8 14.72-.627 14.826.16.083.638-8.597 2.501-15.05 1.778zm-22.23 37.293c-6.106 7.14-18.573 12.722-19.011 11.69-.288-.68 11.008-6.117 17.12-13.291 3.915-4.595 4.31-8.719 2.275-13.229-1.28-2.85-3.28-5.41-2.955-5.685.427-.365 12.179 9.282 2.571 20.515zm93.624-26.865c-5.155-2.574-8.258-6.803-7.805-7.2.453-.397 3.68 2.946 8.677 5.455 4.997 2.508 9.613 2.988 9.587 3.566-.029.674-5.293.76-10.459-1.821z"/><path fill="#0F0F0F" d="M299.165 288c-3.139-9.256-2.988-6.229-1.811-8.783 5.517-12.571-11.961-42.286-29.6-44.545-56.72-67.735-160.312-61.28-214.014 10.068-11.061-2.82-23.916 19.2-24.301 29.207a12.709 12.709 0 0 0 2.226 7.328 178.191 178.191 0 0 0-3.16 7.758c-1.885 4.96-2.364 9.319-1.455 9.575 1.578.449 4.976-9.509 7.392-15.14 6.984 2.975 15.976-8.505 14.635-9.401-.65-.435-9.256 8.537-13.188 6.374-8-3.854 2.612-23.307 8.047-28.457 3.04-2.952 8.853-5.61 10.56-3 2.69 3.004-.108 14.976.704 15.291.876.366 3.338-5.823 3.476-11.011 39.259-52.082 106.635-69.202 163.387-42.989 11.278 5.184 13.96 7.36 14.115 7.104.082-.127-5.2-3.387-5.329-3.463-55.418-32.444-129.024-19.468-172.423 35.981a6.646 6.646 0 0 0-2.302-4c52.841-65.653 149.798-75.472 208.113-11.245a9.087 9.087 0 0 0-6.211 3.4c-6.179 8.098 6.485 24.328 7.407 23.668.924-.623-9.383-15.98-4.754-21.623 1.723-2.197 4.866-2.4 7.598-1.878a23.24 23.24 0 0 1 9.589 4.761c8.207 6.53 15.891 17.892 17.075 29.981.572 5.818-2.896 8.733-7.262 8.429-4.707-.352-8.552-4.512-11.934-7.717-5.57-5.366-11.904-10.537-1.772 1.647 3.736 4.368 7.653 8.833 13.392 9.406a10.146 10.146 0 0 0 6.453-1.44c.738 1.92 1.439 3.854 2.101 5.805 4.402 12.889 6.226 7.633 3.246-1.091z"/><path fill="#FFC5F6" d="M89.28 200.64c2.806-2.749 7.5-8.879 6.848-12.725-.72-4.245-13.712-16.949-27.024-18.976-6.102-7.866-21.538-17.525-26.608-19.554-4.531-1.811-10.747-2.512-14.354-.134-6.785 4.48-4.24 19.85-4.16 23.315.199 9.568 7.756 22.384 7.487 25.112-.205 2.091-2.818 1.971-1.159 9.701a134.85 134.85 0 0 0 4 15.062c.893 2.632 2.138 5.472 4.672 6.608 3.697 1.652 11.056-.396 14.84-2.457 1.303-.709 1.956-.81 3.04.505 2.133 2.602 4.697 7.741 9.184 7.389 1.28-.101 1.6-.789 1.54-2.051a18.27 18.27 0 0 0-2.11-7.765 11.63 11.63 0 0 0 4.08-2.741c1.662 1.671 7.094 6.72 9.487 6.892 2.397.171 4.045-2.628 3.802-5A18.362 18.362 0 0 0 80 217.305c-.96-1.776-.573-1.681 3.267-6.828 2.826 3.798 4.011 5.697 5.76 6.636a3.593 3.593 0 0 0 4.25-.39c2.149-2.328-.64-6.853-4.509-13.176-.733-1.192-.712-1.72.512-2.907z"/><path fill="#92FCFF" d="M41.632 185.667a11.682 11.682 0 0 0 7.67 12.309 9.94 9.94 0 0 0 9.987-1.898A9.95 9.95 0 0 0 62.4 186.4c-2.23-10.515-18.6-12.307-20.768-.733z"/><path fill="#0F0F0F" d="M59.396 193.76a9.294 9.294 0 0 1-12.96 1.432c-4.272-3.086-4.078-7.52-4.733-7.483-.45.021-.8 5.344 3.467 9.05a11.301 11.301 0 0 0 8.957 2.842 11.307 11.307 0 0 0 8.011-4.91 11.311 11.311 0 0 0 1.93-6.072c.069-7.057-6.288-13.212-13.397-12.078-5.14.749-8.8 4.461-9.198 7.784-.258 1.741.041 2.669.211 2.666.22.008.32-.925.86-2.38 1.522-4.38 8.175-7.291 13.103-4.904 5.131 2.423 7.46 9.413 3.749 14.053z"/><path fill="#0F0F0F" d="M54.823 204.909c13.92-1.242 20.121-17.472 10.497-28.3a17.08 17.08 0 0 0-22.931-2.489 7.817 7.817 0 0 0-2.598 2.56c.108.113 1.01-.824 2.97-1.987 14.742-8.773 29.24 5.787 24.578 18.809-3.438 9.911-16.737 13.495-25.459 5.351-5.512-5.082-5.256-11.596-5.731-11.557-.32 0-.408 7.189 4.869 12.451a17.682 17.682 0 0 0 13.805 5.162z"/><path fill="#0F0F0F" d="M93.67 181.473a52.9 52.9 0 0 0-23.955-14.176 90.835 90.835 0 0 0-27.385-19.635c-25.92-10.336-25.02 23.803-12.986 48.664a53.245 53.245 0 0 0 4.717 29.978 7.17 7.17 0 0 0 5.565 4.814c4.926 1.058 11.704-1.091 16.233-3.701.96 1.199 4.024 4.855 5.076 5.896 4.824 4.784 9.139.458 7.387-4.48-1.92-5.44-3.453-2.144 1.894-5.28 2.783 3.048 6.051 7.405 9.909 6.199a5.228 5.228 0 0 0 3.52-4.592c.275-2.789-1.246-5.761-2.811-8.658-.75-1.395-.381.24 2.462-4.32 3.218 3.91 4.677 5.816 6.981 6.302a3.769 3.769 0 0 0 4.34-3.027c.63-2.598-.993-5.617-2.56-8.32-3.695-6.336-3.85-1.723 2.223-10.053 6.163-8.817 3.427-11.441-.61-15.611zm-68.39-9.859a43.708 43.708 0 0 0 7.08-3.491c2.295-1.453 3.52-2.626 3.349-2.88-.254-.397-2.293.864-10.734 4.088-1.068-9.235.116-20.624 9.398-20.172 4.403.181 9.651 2.837 13.44 5.085-10.472 9.496-10.842 9.719-10.675 9.981.166.262 2.029-.544 4.712-2.379a86.686 86.686 0 0 0 7.965-6.373c20.593 13.032 32.046 31.179 33.817 41.12-2.56 1.933-8.685 6.979-11.136 9.198-5.723-3.387-10.697 1.586-10.145 6.636-2.903 1.353-9.346 4.705-12.16 6.334-10.239-7.586-21.647-25.597-24.91-47.147zm12.701 54.845c-1.7-2.455-6.13-13.303-6.42-25.891 5.044 8.96 13.986 20.593 24.078 24.056-4.439 2.296-15.074 5.566-17.658 1.835zm27.416.384c.648 1.518 1.666 3.633 1.045 5.158-1.463 3.592-5.165-1.609-9.192-5.44 2.3-1.489.677-1.037 4.078-.672 4.4.442 3.152-1.211 4.069.954zm-3.806-3.4a24.465 24.465 0 0 1-9.43-3.36 51.07 51.07 0 0 0 10.72-5.656c.986 2.377 3.158 4.55 5.788 7.429a12.138 12.138 0 0 1-7.078 1.587zm19.313 1.392c-.251 2.189-1.993 3.244-4.512 1.109a72.328 72.328 0 0 1-6.19-6.492c-2.995-3.248-8.213-7.501-3.89-11.646a4.193 4.193 0 0 1 4.71-.747c3.357 1.881 10.271 14.333 9.882 17.776zm-6.813-17.844a52.04 52.04 0 0 0 9.863-7.948 20.167 20.167 0 0 1-4.679 14.776 38.527 38.527 0 0 0-5.184-6.828zm17.78 4.54c1.494 3.537.05 5.043-1.224 4.821-1.536-.234-2.79-2.004-6.54-5.6a21.651 21.651 0 0 0 1.744-4.48 85.79 85.79 0 0 0 2.224-2.101 52.866 52.866 0 0 1 3.796 7.36zm-5.31-9.427c.833-10.544-6.9-22.938-13.486-30.967 11.543 5.33 21.44 14.93 21.479 17.375-.399 4.433-5.069 10.155-7.994 13.592z"/><path fill="#92FCFF" d="M207.067 108.865c4.684-5.369 4.661-4.429 8.671-2.736 14.627 6.167 63.32 31.111 63.48 31.2 8.589 4.944 12.421 5.426 8.694 14.224-3.84 9.075-14.176 29.203-20.267 36.73a61.867 61.867 0 0 0-7.453 10.4c-3.277 6.209-12 10.57-9.339 11.707 10.96 4.677 13.451 9.36 16.374 19.179.152.511.103.725-.427 1.031-1.901 1.101-6.4 3.35-8.259 2.164-1.539-.984-1.978-4.46-5.013-8.68a16.167 16.167 0 0 0-15.267-6.1c-5.28 1.177-2.798 1.164-54.4 29.545-14.331 7.882-17.92 6.269-21.88 14.277-3.144 6.355-3.243 13.671-7.819 15.349-1.855.68-6.039.353-7.68-1.336-2.802-2.88-.135-13.024 1.027-16.879 1.29-4.276.31-3.075 4.413-6.777 3.181-2.87-.872-5.032-49.589-39.304a3.931 3.931 0 0 0-2.344-.429c-5.815 12.733 2.202 21.571-9.67 20.416-2.285-.221-2.91-.693-3.68-2.4-5.59-12.456.047-28.05 14.08-35.52 7.04-3.747-9.013 5.326 59.86-30.41 18.208-9.436 23.503-29.296 46.488-55.651z"/><path fill="#0F0F0F" d="M286.693 140.219c-11.283-7.371-25.563-13.047-37.831-20.032-9.465-5.555-19.937-9.725-29.896-15.016-9.929-5.28-9.987-2.496-37.23 35.52-14.416 20.181-17.616 19.4-43.36 32.978-37.394 19.451-44.592 21.516-47.176 26.971-9.09 10.325-9.818 26.513-5.76 32.248 1.558 2.109 3.798 2.499 6.416 2.24 10.48-1.247 4.51-6.248 8.835-20.895 11.619 8.1-2.728-3.36 50.176 36.48-5.475 4.119-7.094 11.909-7.689 18.72-.229 3.968 0 7.826 5.024 9.511 4.236 1.478 8.939-.304 10.416-3.744 1.27-2.952 2.425-12.48 9.139-18.551a49.174 49.174 0 0 0 10.72-4.256c2.643-1.328 40.04-21.864 58.512-32.915a15.008 15.008 0 0 1 11.481 2.615c8.452 6.192 4.8 17.036 16.695 12 2.977-1.26 4.376-2.56 3.52-5.904-2.263-8.458-7.632-15.84-16.075-18.781 14.025-12.109 36.296-54.267 38.731-61.97 1.238-3.984-2.263-5.568-4.648-7.219zM95.146 226.896c-.263 3.92.094 4.011-3.68 4.368-1.239.115-2.164.113-2.88-.779-2.282-3.224-2.4-15.378 2.867-24.394a36.13 36.13 0 0 0 6.918 6.474 44.488 44.488 0 0 0-3.225 14.331zm62.822 38.765c-1.877 4.468-2.39 7.2-2.778 7.966-1.02 2.384-6.016 2.72-7.7.32-1.232-1.43-.938-16.258 5.696-21.541a25.114 25.114 0 0 0 8.961 4.171c3.079.615-.297-.257-4.179 9.084zm102.426-46.34a33.293 33.293 0 0 1 4.576 10.466 20.13 20.13 0 0 1-3.52 1.491c-4.568 1.034-1.735-5.941-10.984-12.16-8.93-5.717-12.29.77-.389-7.705a21.81 21.81 0 0 1 10.317 7.908zm27.822-72.817c-1.522 5.198-23.33 49.782-38.24 61.557-6.4 5.152-66.07 37.745-73.074 41.208-7.116 3.512-10.32 4.54-14.003 3.777-5.28-1.094-3.832-1.184-47.865-33.881-7.061-5.108-21.517-13.236-20.404-16.544 1.336-3.84 12.504-8.288 16.133-10.109 66.695-34.72 57.656-25.69 84.48-64.48 2.653-3.82 14.955-21.751 18.579-21.099 1.808.32 63.786 31.716 67.957 34.152 6.579 3.964 6.815 4.164 6.437 5.419z"/><path fill="#fff" d="M271.304 127.853a50.722 50.722 0 0 0-15.425-37.173c-17.059-16.94-43.92-6.048-43.92-6.048l-2.543 3.024s-1.572-3.024-8.227-1.573c-6.654 1.453-16.902 17.002-18.12 21.786-1.694 6.656 3.117 12.939 3.117 12.939s-.536-.202-3.171 4.629c-2.635 4.832 1.702 18.832 1.702 18.832s-7.68-11.914-7.797-20.7c-.033-2.617-.228-11.36-2.262-12.992-.459-.79-3.003-2.512-1.811-8.128 1.11-5.44 6.187-5.608 8.214-8.444a5.666 5.666 0 0 0-1.28-7.36c-7.52-5.715-13.958 5.44-14.297 4.952a38.36 38.36 0 0 0-7.56-8.464c-6.944-5.224-12.97-3.768-14.45-1.061-1.11 1.974.442 3.989 1.635 5.936-6.653-.858-13.816.822-11.225 5.92.809 1.6 3.084 1.829 8.382 4.278-4.752 1.101-9.76 1.84-9.179 5.408.923 4.925 7.734 2.589 13.909 6.331a5.936 5.936 0 0 1 2.703 2.586 5.94 5.94 0 0 1 .617 3.69c-.668 4.416-2.175 6.531 1.782 11.472a30.994 30.994 0 0 1 6.368 13.232c.659 4.611 7.413 15.976 7.413 15.976l-10.378 7.632-10.72-2.81s2.339-12.458-.95-18.699c-3.29-6.24-5.975-9.802-14.634-11.077-8.659-1.275-12.619-.672-12.552 5.84.067 6.512 1.208 30.475 1.343 35.04.134 4.565 6.846 6.109 9.531 6.24 11.662.584-3.271-2.01-3.607 8.752-.244 7.851-1.2 23.291-1.2 23.291-4.6.13-9.046 1.688-12.721 4.458-6.12 4.629-6.904 12.553-3.84 15.849 3.064 3.296 28.8 3.68 28.8 3.68s9.257.784 11.848-2.982c2.59-3.766 2.509-15.534 2.509-15.534s10.2 10.513 18.281 12.24c8.082 1.726 22.439-5.178 29.107-9.18 6.669-4.001 33.736-27.459 33.736-27.459s16.869 1.333 24.871-2.669c8.001-4.001 12.945-12.16 12.867-18.985a67.789 67.789 0 0 0-1.256-12.24c10.142-11.683 8.336-27.568 4.39-30.435z"/><path fill="#92FCFF" d="M201.253 96.32a89.27 89.27 0 0 0-9.317 8.32 21.883 21.883 0 0 0-4.961 11.707 21.889 21.889 0 0 0 2.377 12.489c.818 1.496 1.186 3.42 2.151 4.826 5.88 8.565 13.086 16.656 23.36 18.24 7.872 1.211 17.299-1.267 22.315-7.454 1.557-1.92 2.56-3.792 4.186-5.656 6.188-7.108 7.539-18.007-1.828-31.42a55.574 55.574 0 0 0-10.155-10.02c-7.84-6.688-20.749-7.2-22.901-6.381-2.64.985-3.076 3.537-5.227 5.349z"/><path fill="#0F0F0F" d="M156.496 212.159c9.565 13.65 22.56 8.116 22.848 9.1.659 1.131-15.065 7.24-25.264-7.416-9.664-13.89-1.15-27.706-.083-26.751.826.479-6.717 11.925 2.499 25.067z"/><path fill="#0F0F0F" d="M272.946 129.06c2.12-4.152-2.002-20.253-4.99-25.568-10.036-17.84-25.716-24.773-45.794-23.013-7.635 1.28-10.416 1.744-13.578 5.002-8.441-3.962-16.121 3.184-21.718 10.688-5.979 8-9.034 16.832-2.93 24.785-3.852 3.706-3.692 8.492-2.585 13.816-5.312-15.507-1.507-17.992-3.84-23.388-1.12-2.64-5.08-8.368-.271-11.95 1.834-1.386 5.095-2.503 6.255-5.71 2.659-7.744-8.679-16.363-17.354-4.112-10.888-19.52-28.16-13.238-25.56-4.334-9.267-1.165-13.933 8.827-6.302 12.611a5.761 5.761 0 0 0-3.939 4.448c-.583 9.133 11.601 7.856 15.2 10.018 4.889 2.843-.698 6.509 1.483 11.489 1.699 4.072 4.877 3.5 8.401 12.837 2.388 6.357 3.154 11.175 8.661 19.541a31.5 31.5 0 0 0-9.257 5.885 83.07 83.07 0 0 0-9.349-2.442c2.926-10.361.237-25.28-11.663-28.88-4.345-1.241-14.584-2.942-17.651.48-2.08 2.323-1.744 2.72-1.483 19.226.181 11.368.675 16.309 1.157 22.56.824 5.08 4.526 7.067 9.653 7.68-9.052 8.945-4.46 30.016-6.045 30.064-11.453.422-18.195 9.197-17.063 17.533.903 8.758 15.285 7.728 23.2 8.457 22.16 1.811 25.972-1.846 25.685-15.779-.03-1.432-.557-.6 4.135 3.248 7.294 5.92 15.868 8.712 24.764 5.53 12.48-4.464 32.037-16.45 51.183-35.698 20.128 1.818 38.04-4.21 38.589-23.84a63.256 63.256 0 0 0-1.261-12.32c6.179-8.336 10.63-21.152 4.267-28.864zM208 92.425c4.32-1.901 20.516 2.907 31.253 18.373 4.16 6.024 6.733 11.68 4.187 18.504-3.464 9.611-11.451 19.84-21.577 21.265-11.895 1.92-29.493-10.185-33.402-29.736.8-2.629.13-9.91 10.096-19.781 4.643-4.55 6.794-5.476 9.443-8.624v-.001zm-23.769 18.294c.917-7.158 12.573-25.192 22.334-22.88-6.121 7.717-19.005 13.751-21.352 29.683a12.494 12.494 0 0 1-.982-6.803zM134.72 91.183c.927-1.59 4-2.528 5.848-2.267 4.215.725 2.89 1.06 6.007 2.797 3.217 1.76 5.945 3.36 8.206 4.869-6.006 4.993-1.4 5.152-6.829 2.961-1.64-.624-.131-.203-9.976-4.374a7.482 7.482 0 0 1-3.001-1.656c-.472-.883-.711-1.514-.255-2.331v.001zm17.093 33.175c-3.128-3.455-.382-4.789-.31-8.84 5.953 1.171 10.889-1.082 10.694-1.664-.219-.703-5.037.824-11.04-.746-1.678-5.213-9.515-6.48-14.537-7.323-4.73-2.128-2.391-5.504 4-5.455 8.768 3.316 9.251 2.668 8.99 3.394-.552 1.542-.6 2.578-.32 2.682.621.219 2.264-3.215 5.35-6.56 3.04-3.39 6.3-5.35 6.021-5.95-.128-.271-1.155-.127-2.638.57-2.031.946 1.054.8-9.575-5.824-8.48-5.568-2.419-9.494 4.02-7.275 5.048 1.733 9.025 6.517 12.073 10.88-2.277 4.509-2.4 8.119-1.92 8.107.402.032.85-3.65 4.192-8.264 6.002-8.176 11.719-6.56 13.485-2.955 2.702 5.376-4.517 5.76-7.272 10.007a9.215 9.215 0 0 0-1.165 7.896 6.311 6.311 0 0 1-1.885 2.44c-2.609 1.971-7.606 3.603-7.398 4.244.184.581 7.731-.856 10.298-4.078 1.416 2.994 2.22 2.544 2.057 7.669-4.533 6.096-16.51 9.488-23.12 7.045zm12.259 2.64a21.814 21.814 0 0 0 10.856-6.199 37.129 37.129 0 0 0 1.81 10.37 79.69 79.69 0 0 1-17.672 6.032c-4.765-15.413-8.333-6.672 5.006-10.205v.002zm-4.64 11.401a46.134 46.134 0 0 0 17.724-5.942 68.064 68.064 0 0 0 1.585 4.264 81.337 81.337 0 0 1-18.003 6.185c-.429-1.427-.843-2.936-1.31-4.507h.004zm-12.379 88.221c-.96 9.141-13.84 6.275-29.76 5.902-3.633-.124-10.445-.665-11.411-4.174 18.222 2.005 35.224 1.448 35.218.717-.007-.731-14.594-.717-35.405-3.104.064-1.459.358-2.899.872-4.266 3.217-7.721 13.56-10.385 21.04-7.664 4.245 1.546 5.875 3.831 6.166 3.536.32-.269-2.934-5.043-9.902-6.413.04-7.113-.904-20.432 3.352-26.163 2.2-2.961 6.169-4.701 9.589-3.272 9.768 4.087 10.972 38.363 10.236 44.901h.005zm67.627-35.39c-.051.766 12.133 2.363 12.973 2.464-13.291 11.449-32.521 26.24-48.814 32.302-10.4 3.875-20.12-1.899-27.73-9.97-2.24-52.744-20.992-34.515-29.76-40.726a3.433 3.433 0 0 1-1.531-2.624c-.48-6.213-.96-10.915-1.139-22.267-.255-16.104-.37-15.901.573-16.528a7.656 7.656 0 0 1 3.212-.693c.952 12.717.5 37.72 1.592 37.694.628-.014 1.712-24.592.77-37.659 2.67.188 5.32.594 7.925 1.211 11.481 3.236 13.222 20.54 8.361 31.2-1.323 2.775-2.342 4.212-2.104 4.415.376.32 3.258-2.72 5.016-6.456 11.117 2.125 23.04 6.665 30.532 15.333 6.593 7.536 17.12 31.84 19.054 30.708.498-.284-1.014-4.073-3.499-10.2-.531-1.31-.762-.579 4.525 2.56 6.995 4.101 7.172 3.093 1.19-1.707-9.44-7.872-8.16-6.942-10.427-11.574-5.658-11.496-11.413-19.123-26.298-25.069a29.735 29.735 0 0 0 6.687-4.998c1.169 1.579 4.916 6.043 5.384 5.62.572-.499-5.087-6.483-9.525-18.515-1.059-2.997-1.139-.403 8.505-3.68 13.469-4.56 5.866-7.619 13.818 4.581 4.221 6.427 12.627 16.502 22.133 21.12 4.592 2.194 7.408 2.592 7.456 2.4.32-.96-11.887-3.656-21.487-17.883-3.566-5.263-6.292-12.32-5.462-10.952a39.638 39.638 0 0 0 16.275 15.696c9.968 5.12 23.483 6.249 32.815.777a32.535 32.535 0 0 0 8.708-7.849c-1.18 4.896-1.318 10.264 1.773 14.189a53.666 53.666 0 0 1-20.416 6.46c-6.443.581-10.461-.51-10.601.045-.256.563 9.803 5.183 25.323-.304a8.918 8.918 0 0 1-1.034 3.419c-1.224 2.319-22.321 2.08-22.358 3.229-.042 1.386 15.35 1.56 19.24.96a19.885 19.885 0 0 0 14.787 10.935c-14.138 4.822-36.312.243-36.446 2.336h.004zm39.103-3.391a21.943 21.943 0 0 1-16.17-10.131 7.86 7.86 0 0 0 3.487-1.568 27.343 27.343 0 0 0 19.464 7.291 24.873 24.873 0 0 1-6.786 4.408h.005zm8-5.664a32.943 32.943 0 0 1-19.874-7.006 8.477 8.477 0 0 0 1.013-2.834c.875-4.718-1.486-1.614 6.029-5.817 5.454 2.995 12.094-.138 16.701-4.976.873 7.505 1.04 15.04-3.877 20.633h.008zm11.417-43.382c-.832 9.28-10.753 25.249-19.985 24.862-10.994-.459-5.263-25.584 9.365-35.68 2.099-1.352 3.593-1.405 3.582-1.734.112-.488-4.214-1.616-11.56 5.542 3.594-11.803-1.157-19.443-1.469-19.296-1.221.459 8.208 11.64-8.768 33.664-6.731 8.69-13.008 12.912-24.504 12.464-23.425-.784-36.688-23.568-35.12-32.406a6.187 6.187 0 0 1 1.88-2.68c5.331 24.2 35.271 44.997 54.643 17.329 8.876-13.008 8.405-20.876.629-31.92-9.221-12.948-23.329-19.636-31.542-19.438a11.881 11.881 0 0 1 3.067-2.826 16.97 16.97 0 0 1 9.272.986c18.965 6.742 29.856 24.57 30.24 24.387 1.627-.512-9.877-20.15-29.304-27.078-1.691-.589-1.658-.415-.949-.535 22.375-1.95 37.602 8.365 44.043 26.25 1.292 3.862 3.116 12.81 2.82 15.818 0 .115-1.669-.455-1.752-.074-.168.539 6.361 2.432 5.404 12.365h.008z"/><path fill="#92FCFF" d="M113.139 98.856c-2.096 10.219-2.091 10.038-2.058 10.2.32 1.6 5.224-4.509 10.781-5.12a32.516 32.516 0 0 0-5.392 9.819l7.52-1.462c2.136-.416 4.107.208 3.423 1.006a99.737 99.737 0 0 0-10.24 8.878c-13.306 13.031-12.8 15.344-14.919 18.288a44.638 44.638 0 0 0-3.029 3.924c-1.37 2.44-1.77 6.27-4.948 5.043-2.925-1.13-8.77-2.05-8.98-6.018-.308-5.789 9-29.494 27.84-44.56l.002.002z"/><path fill="#FDFE1F" d="M78.275 144.395c-1.904-4.171 7.302-.875 8.125-.867 2.56.014 3.208-3.08 7.445-5.015 2.27-1.037 1.885 7.445 2.73 8.661a3.22 3.22 0 0 0 1.08.851 40.18 40.18 0 0 1 5.268 3.655c1.008.827.704 1.52-.429 2.12-4.605 2.43-6.47 2.67-6.852 3.104-.212.243-.11.056-2.228 8.147-.555 2.123-4.374-2.807-5.952-4.595a2.4 2.4 0 0 0-2.662-1.02c-1.043.101-7.06.693-7.728-.118-1.152-1.402 4.016-6.845 4.1-8.342.087-1.44-2.897-5.216-2.897-6.581z"/><path fill="#0F0F0F" d="M127.978 112.734c.309-.881-6.501-2.193-11.115.503.112-.16 6.633-10.208 6.204-10.56-.352-.816-8.251 2.851-11.62 6.489.228-.673 2.88-10.56 2.096-10.806-.221-.293-17.6 10.089-27.168 36.414a33.227 33.227 0 0 0-1.92 7.269c-3.73-.84-5.874-1.874-7.2.2-1.053 1.645-.213 2.496 2.768 8.96-3.62 6.096-4.626 6.973-3.616 8.752 1.176 2.066 2.94 1.307 9.643.515l4.64 5.28a2.688 2.688 0 0 0 3.074.698c.346-.147.657-.364.913-.639a2.69 2.69 0 0 0 .677-1.313l1.37-6.896 6.459-2.781a2.696 2.696 0 0 0 .249-4.822l-4.712-2.637c13.405-23.472 30.045-33.696 29.258-34.626zm-25.69 39.991c-7.952 3.422-7.542 3.164-7.601 3.469-1.644 8.369-1.488 8.191-1.968 8.191-.56 0-5.373-6.374-5.956-6.297-6.976.912-7.84.947-8.01.947-1.033 0-.138-.981 3.74-7.52.16-.269.288.2-3.336-7.659a.412.412 0 0 1 .464-.576c5.994 1.333 7.744 1.773 7.909 1.773.235 0-.173.305 6.163-5.552a.412.412 0 0 1 .691.265c.815 8.64.68 8.151.95 8.301 6.042 3.386 8.09 4.17 6.954 4.658zm-5.035-6.7-.598-6.465a2.678 2.678 0 0 0-2.683-2.44c-1.472 0-1.706.605-6.99 5.491l-.665-.15a33.04 33.04 0 0 1 2.003-6.972c6.624-17.348 13.28-24.908 24.379-36.07-2.124 4.205-2.56 10.602-1.78 10.645.276.357 2.987-1.303 6.304-3.325 5.475-3.37 3.6-2.803 1.257.888-2.033 3.173-2.784 6.202-2.368 6.339.171.432 2.759-.284 5.952-.665 2.288-.306 4.28-.24 5.267-.34-7.147 3.76-21.401 16.778-30.08 33.064h.002z"/><path fill="#FDFE1F" d="M271.408 34.054c-2.267-4-4.8-4.583-8.844-6.027-6.456-2.31-11.623-4.016-17.352-2.666-17.844 4.205-26.935 30.6-17.748 41.738 3.485 4.227 17.383 8.654 22.288 8.654 16.57 0 29.877-26.877 21.656-41.7z"/><path fill="#0F0F0F" d="M272.247 33.586c-2.515-4.64-6.261-5.264-9.358-6.47-4.64-1.658-10.479-3.693-15.4-3.146-22.016 3.168-30.298 33.483-20.448 44.072 3.259 4.13 19.58 9.653 24.612 8.48 17.226-2.323 28.532-28.389 20.594-42.936zm-9.238 4.656c1.28.232 3.062.432 4.48.8 1.555.397 3.4 1.176 4.656 1.568a28.333 28.333 0 0 1-.226 10.008c-6.853-.583-5.27-.992-9.626-2.435a30.404 30.404 0 0 0 .716-9.943v.002zm8.785.56c-5.83-.528-4.713-.89-9.099-2.512a14.447 14.447 0 0 0-4.429-8.088c-.843-.679-2.56-1.371 3.871.987 3.726 1.456 7.814 1.915 9.657 9.608v.005zM224.97 59.058a30.727 30.727 0 0 1 10.704-27.728c14.4-12 32.826-3.55 23.751 21.613-10.204 26.93-32.312 20.278-34.455 6.112v.003zm14.952 13.366a18.748 18.748 0 0 0 9.247-2.664c2.4.973 3.289.074 8.107 2.541-5.999 3.168-10.256 2.42-17.354.12v.003zm19.16-1.197c-3.949-1.05-3.005-.056-8.273-2.745a32.127 32.127 0 0 0 5.851-6.823c3.246.8 2.171-.52 9.627 2.264a26.89 26.89 0 0 1-7.205 7.301v.003zm8.202-8.848c-1.28-.198-3.341-.32-4.933-.704-1.592-.382-3.478-1.241-4.704-1.657a43.37 43.37 0 0 0 4.194-10.04c4.04.96 1.147-.52 9.713 2.265a38.089 38.089 0 0 1-4.27 10.132v.004z"/><path fill="#0F0F0F" d="M236.172 68.387c7.856 2.777 16.059-7.983 19.233-14.909 4.727-10.462 4.191-24.776-7.158-25.12-10.635-.346-17.664 14.533-17.102 14.78.345.16 2.734-6.662 9.934-11.586a11.203 11.203 0 0 1 11.091-1.028c14.367 7.408-6.497 47.287-19.069 34.538-8.528-8.243-.142-25.978-2.582-20.78-3.92 8.327-3.035 21.12 5.653 24.105z"/><path fill="#0F0F0F" d="m238.293 49.397-2.88 2.48 2.703 10.252c.308-.252-.924.8 7.759-6.69a.247.247 0 0 0 .108-.143.248.248 0 0 0-.012-.178c-.307-1.136-.932-3.504-.96-3.589-.544.504.853-.709-4.816 4.195-.414.356.026.26-1.902-6.327zm.407-8.305.989 3.73c.126-.107 3.4-2.933 4.886-4.223.221-.191.022-.147 1.818 6.4l2.88-2.48-2.693-10.23-7.88 6.803z"/><path fill="#0F0F0F" d="m241.397 51.325 2.887-2.501-.989-3.767-2.891 2.496.993 3.772zm9.565-.341-.968-3.706-2.854 2.467.98 3.706 2.842-2.467zm-14.471-8.013c-2.924 2.52-2.831 2.34-2.765 2.582 1.005 3.756.886 3.664 1.065 3.508 1.172-1.016 2.653-2.285 2.768-2.4-1.041-3.952-.908-3.832-1.068-3.69z"/><path fill="#FDFE1F" d="M204.32 55.22C218.111 45.35 210.433 8 189.034 8a72.495 72.495 0 0 0-16.168 3.112c-13.723 5.246-13.19 42.425 7.656 48.96 5.558 1.75 19.437-1.736 23.798-4.853z"/><path fill="#0F0F0F" d="M192.354 7.347c-4.725-.984-11.024.563-15.771 1.74-4.079 1.092-6.962 1.522-9.807 5.996-9.339 14.688-2.635 41.531 14.157 46.115 4.979 1.478 16.875-1.571 22.349-4.19 15.624-7.476 10.027-45.957-10.928-49.661zm-15.234 3.9c7.629-1.958 5.6-1.4 4.432-.6a15.956 15.956 0 0 0-5.457 7.714c-4.407 1.12-3.474 1.651-9.184 1.53 2.739-7.018 6.016-7.523 10.209-8.645zm-10.825 10.415c5.448-1.075 1.072-.78 9.195-1.365a33.665 33.665 0 0 0-.88 10.36c-4.224.895-2.933 1.581-9.709 1.394a31.406 31.406 0 0 1 1.398-10.389h-.004zm-1.298 12.07c1.269-.265 2.95-.73 4.371-.911 1.805-.23 4.13-.14 5.399-.29a45.421 45.421 0 0 0 2.512 10.864c-1.25.278-3.232.94-4.869 1.16-1.584.213-3.589.109-4.875.16a39.498 39.498 0 0 1-2.533-10.983h-.005zm3.248 12.668c7.605-1.944 6.435-.813 9.741-1.22a29.087 29.087 0 0 0 4.627 7.725c-5.61 2.162-4.4 1.256-8.536 1.892a25.54 25.54 0 0 1-5.832-8.397zm7.398 9.707a20.561 20.561 0 0 1 3.164-1.04c1.787-.365 5.292-.456 5.22-.715a16.172 16.172 0 0 0 8.629 3.885c-10.053 2.156-13.214.723-17.013-2.138v.008zm33.669-10.304c-1.185 3.875-3.331 7.714-6.997 9.398a15.336 15.336 0 0 1-8.568 2.024c-19.214-1.801-25.737-44.838-5.457-48.056 13.63-.64 26.457 17.611 21.022 36.626v.008z"/><path fill="#0F0F0F" d="M206.173 30.342c-2.006-7.235 4.115 12.563-5.449 20.8-10.293 9.159-20.64-11.149-19.957-25.14.829-15.383 15.36-19.18 23.416-.84 1.072 2.492 1.44 3.966 1.56 3.934a16.288 16.288 0 0 0-1.048-4.138c-5.579-15.112-17.298-15.881-22.111-8.904-6.449 9.035-2.811 25.888 5.512 35.246 9.122 10.225 22.802-3.807 18.077-20.96v.002z"/><path fill="#0F0F0F" d="M191.102 33.81c.809.345 1.67.55 2.547.605 2.196 0 4.32-2.62 5.202-4.356.232-.453.282-.02-.613-2.19a73.036 73.036 0 0 0-6.28-11.84 91.515 91.515 0 0 0-4.555 15.617c.298.813.576 1.192 3.699 2.165zm1.103-14.313a58.005 58.005 0 0 1 5.078 10.163c-2.458 4.263-4.16 3.141-5.715 2.651a15.302 15.302 0 0 1-2.519-.96 81.997 81.997 0 0 1 3.156-11.854z"/><path fill="#0F0F0F" d="M199.864 31.865c-6.684 5.388-1.849 6.298-12.676 2.256a15.86 15.86 0 0 0 2.34 5.301c.78 1.32 5.666 9.423 7.2 9.496 2.952-.08 2.871-13.789 3.136-17.053zm-1.804 5.618c-.421 4.82-.437 7.42-1.468 9.493a65.12 65.12 0 0 1-5.713-8.35c-2.162-3.68-.439-.348 3.742-.468 3.139-.078 3.791-4.718 3.439-.675z"/><path fill="#FDFE1F" d="M142.284 65.82c16.077-13.89.971-57.687-25.399-57.687-7.732 0-22.379 7.278-23.241 7.794-6.22 3.699-8.16 12.587-8.176 19.74-.072 24.285 18.709 43.277 33.093 40.61 7.753-1.458 19.465-6.784 23.723-10.458z"/><path fill="#0F0F0F" d="M123.914 8.32c-8.539-3.133-17.424.752-25.898 4.48-4.17 1.93-8.088 2.94-11.03 9.681-9.376 22.098 9.05 60.778 35.221 53.904 6.142-1.69 15.883-5.726 21.088-10.232 14.064-12.166 3.963-51.273-19.379-57.833h-.002zM93.376 18.464c1.744-1.503 10.527-5.168 12.517-5.947a19.742 19.742 0 0 0-6.475 12.059c-5.22 2.337-4.02 2.838-11.213 3.923a17.298 17.298 0 0 1 5.171-10.037v.002zm-5.56 12.397c6.47-2.479 1.133-1.2 11.28-3.722a43.586 43.586 0 0 0 1.143 13.227c-5.12 2.05-3.36 2.627-11.91 3.869a40.074 40.074 0 0 1-.513-13.374zm.997 15.472c1.54-.613 3.552-1.564 5.303-2.101 2.219-.683 5.166-1.077 6.72-1.541a58.194 58.194 0 0 0 5.526 13.12c-1.512.62-3.861 1.888-5.872 2.518-1.949.615-4.496.922-6.1 1.264a50.525 50.525 0 0 1-5.577-13.262v.002zm6.84 15.219a49.891 49.891 0 0 1 5.159-2.22c2.32-.729 5.44-1.015 6.828-1.44a37.204 37.204 0 0 0 7.508 8.713c-6.6 3.947-5.264 2.537-10.328 4.24a32.582 32.582 0 0 1-9.168-9.293h.001zm11.423 10.608a26.282 26.282 0 0 1 3.753-1.997c2.303-.9 6.56-1.712 6.413-2.038a20.417 20.417 0 0 0 11.712 3.008c-12.234 4.928-16.512 3.776-21.878 1.027zm33.358-6.95c-3.501 2.4-6.133 4.095-10.338 4.412-8.96.7-14.88-3.822-19.96-11.155C91.8 31.84 101.674-.557 128.455 12.96c22.016 12.848 23.369 44.429 11.981 52.241v.008h-.002z"/><path fill="#0F0F0F" d="M139.876 33.094c-1.672-3.538.068 1.17.78 3.968 1.877 7.606 1.84 17.371-3.107 23.382-10.953 13.768-28.393-9.513-30.585-27.283-2.293-19.43 15.078-27.587 29.28-6.158 1.891 2.902 2.678 4.677 2.819 4.611a20.695 20.695 0 0 0-2.219-4.98c-10.324-17.822-25.232-16.186-29.76-6.385-8.114 17.429 9.486 44.203 20.691 45.935 12.272 2.136 19.8-16.775 12.101-33.09z"/><path fill="#0F0F0F" d="M126.895 36.847a7.545 7.545 0 0 0 2.123-7.666 7.546 7.546 0 0 0-5.919-5.314c-.252-2.53-1.911-4.02-2.349-3.712-.426.278 0 1.627.417 3.188.173.615.348.16-2.4.416-.846-4.307-2.91-4.012-1.782.26-.72.272-1.421.592-2.098.96.791 3.132 3.52 9.673 4.848 15.04 1.328 5.366 2.575 12.444 3.751 15.52 2.385-.884 1.853-.872 2.193.124.904 2.661 3.28 4.064 1.711-.582-.114-.338-.143-.272.059-.294 2.88-.32 2.39-.901 2.611-.18 1.463 4.682 2.677 2.508 1.728-.528-.217-.716-.286-.512.056-.732 6.367-3.984 1.064-14.282-4.949-16.5zm-7.905-9.76c2.206-.672 4.265-1.22 6.203-.204a4.464 4.464 0 0 1 2.224 5.328c-1.075 3.078-4.768 3.38-6.901 3.91-.603-3.152-1.081-6.46-1.526-9.037v.003zm6.667 24.272a85.77 85.77 0 0 1-4.277-11.297 10.086 10.086 0 0 1 5.378-.413c6.435 1.997 10.635 12.8-1.101 11.71z"/><path fill="#FDFE1F" d="M42.576 45.873C37.093 47.71 25.28 55.898 23.36 58.306c-12.48 15.583 9.424 63.133 37.882 62.53 5.931-.125 18.173-8.242 23.92-14.104 17.323-17.685-13.802-70.514-42.586-60.86z"/><path fill="#0F0F0F" d="M49.489 88c4.112 5.967 14.77 17.151 21.97 17.654 4.32.3 7.38-2.429 9.106-6.336 6.452-14.592-9.12-36.688-4.537-30.28 7.158 9.992 11.616 28.544 2.13 36.293-3.249 2.652-8.32 3.127-13.781-.308-23.087-14.518-34.474-49.222-16.9-54.486 13.815-4.138 27.996 16.614 27.377 17.037-.433.294-5.663-8.946-16.516-14.41-6.185-3.115-12.393-1.44-15.148 2.048-6.202 7.854.024 23.683 6.299 32.787z"/><path fill="#0F0F0F" d="M40.541 45.645a106.654 106.654 0 0 0-15.84 9.958c-15.784 12.858 2.264 59.755 31.453 65.92 2.755.496 5.584.405 8.303-.265 4.505-1.404 12.124-5.548 20.388-12.848a17.903 17.903 0 0 0 3.475-4.352c12.044-20.938-19.2-70.849-47.779-58.413zm-10.94 10.21c2.33-1.652 4.616-3.268 6.92-4.698a21.1 21.1 0 0 0-3.88 14.659c-4.77 3.384-3.59 3.712-10.436 5.97-.422-10.781 3.493-13.145 7.396-15.93zm-7.228 18.433c1.45-.896 3.455-2.43 5.237-3.398 1.627-.884 3.757-1.661 5.28-2.348a53.6 53.6 0 0 0 4.445 14.621c-4.395 2.851-3.146 3.442-11.091 5.99a50.385 50.385 0 0 1-3.87-14.867v.002zm4.828 16.96c1.415-.895 3.212-2.189 4.83-3.027 2.08-1.076 4.94-1.978 6.435-2.72A72.859 72.859 0 0 0 47.4 99.293c-1.43.857-3.545 2.501-5.425 3.491-1.803.949-4.224 1.736-5.76 2.413a64.786 64.786 0 0 1-9.015-13.95zm10.652 15.781c7.298-5.487 6.65-3.693 11.263-5.731a45.88 45.88 0 0 0 9.953 8.604c-5.614 5.128-4.544 3.495-9.453 6.213a40.285 40.285 0 0 1-11.77-9.086h.007zm22.4 11.648a23.698 23.698 0 0 1-8.16-1.514c5.28-4.88 6.733-3.952 9.427-5.95a20.929 20.929 0 0 0 13.065 1.456c-3.482 2.272-10.221 6.169-14.348 6.006h.016v.002zm25.627-16.026a16.09 16.09 0 0 1-2.958 3.605c-3.36 2.901-4.376 4.088-8.48 4.864-9.493 1.843-16.384-3.053-22.966-10.035-13.57-14.96-26.103-43.735-8.535-53.263 24.565-9.6 54.917 34.653 42.94 54.829z"/><path fill="#0F0F0F" d="M66.103 80.736c-6.365 4.392-5.879 4.358-6.691 3.936-5.773-2.999-5.701-2.783-5.863-3.247-.161-.464-.96.34 11.823-8.534.48-.331.446-.171 6.296 2.806 1.316.67.566.805-5.565 5.039zm-14.935-2.761c-.363-.307-.187 0-.96-6.656-.105-.91-.812-.16 11.924-8.87.862-.589.899 1.354.998 2.248.494 4.48.707 4.94.203 5.28-12.805 8.742-11.813 8.296-12.165 8v-.002zm23.383 1.676c.346.32.22.096.96 6.784.082.733.835-.02-11.986 8.763-.404.277-.712-.16-.766-.654-.686-6.291-.888-6.56-.395-6.891 12.896-8.877 11.885-8.277 12.187-8v-.002z"/><path fill="#FDFE1F" d="m296.762 211.59-5.963-2.633c-4.299 9.373-36.48 84.029-37.271 85.12-.363-.695-11.225-43.16-11.241-43.48 0-.04-.127.757-.133.699-.038.024.024-.781-.058-.702-8.403 10.772-9.132 12.025-13.852 18.5-.514-1.88-6.548-23.441-6.597-23.694-2.56 1.37-21.403 17.352-22.018 16.733-.675-.679 9.28-12 24.381-24.16a4093.85 4093.85 0 0 0 2.477 7.957c4.301 12.664 3.646 11.481 4.227 10.363l14.198-19.317 10.092 38.643s27.494-63.302 30.171-69.139l-5.898-2.603a1.83 1.83 0 0 1-.089-3.298l13.806-7.021a1.833 1.833 0 0 1 1.585-.032 1.824 1.824 0 0 1 1.013 1.218l3.68 14.739a1.826 1.826 0 0 1-1.516 2.242 1.821 1.821 0 0 1-.994-.135z"/><path fill="#0F0F0F" d="M293.82 193.355c1.92 0 1.521.389 5.451 16.123a1.818 1.818 0 0 1-.595 1.838 1.822 1.822 0 0 1-1.914.274l-5.963-2.634c-4.298 9.373-36.48 84.029-37.271 85.12-.416-.8-11.179-43.483-11.432-43.483-10.782 14.008-6.264 8.091-13.853 18.501-.513-1.88-6.547-23.44-6.596-23.694-2.354 1.259-21.44 17.312-22.018 16.732-1.229-1.23 14.963-16.201 17.888-18.793.296-.263 4.885-4.071 6.493-5.365a4093.85 4093.85 0 0 0 2.477 7.957c4.304 12.68 3.646 11.48 4.227 10.363l14.198-19.317 10.092 38.643s27.494-63.302 30.171-69.139l-5.898-2.603a1.83 1.83 0 0 1-.832-2.604c.177-.297.434-.537.743-.694 15.011-7.638 14.012-7.225 14.632-7.225zm0-2.687c-1.528 0-1.168.047-15.85 7.512a4.52 4.52 0 0 0-2.319 2.885 4.509 4.509 0 0 0 2.541 5.263l3.408 1.505c-2.252 4.941-22.956 52.619-25.952 59.546l-9.568-36.53-14.982 20.303c-3.538-10.621-2.24-6.548-5.685-17.76a213.764 213.764 0 0 0-22.571 20.268c-5.429 5.8-7.267 8.2-5.12 10.362 3.002 3.021 6.366-1.886 22.282-14.144.32 1.12 7.12 25.306 7.12 25.306l13.838-18.78c11.346 44.135 8.899 36.456 12.187 42.74 3.471-4.754 3.848-4.88 6.151-11.002 1.838-4.894 32.569-75.066 32.836-75.656 3.648 1.611 4.124 1.95 5.365 1.95a4.52 4.52 0 0 0 3.55-1.735 4.524 4.524 0 0 0 .823-3.865l-3.68-14.737a4.508 4.508 0 0 0-4.374-3.431z"/></svg>