<svg xmlns="http://www.w3.org/2000/svg" width="320" height="320" fill="none"><path fill="#FFC5F6" d="M221.44 122.288c3.475 6.712 7.875 1.424 16.32.182 1.206-.177 1.793 0 2.414 1.583.59 1.504 3.41 9.342 2.679 10.774-.463.906-1.345.976-6.133 2.224-10.24 2.664-21.403 7.029-29.147-7.56-3.708-6.984-6.034-21.819-5.644-23.592a8.049 8.049 0 0 1 7.088-5.649c9.144-.604 6.698 10.993 12.423 22.038z"/><path fill="#fff" d="M239.747 119.2c1.211 8.509 3.211 17.195 9.821 22.699 1.844 1.536 2.804 1.107 3.83-.144 2.982-3.635 2.947-4.717 6.422-2.838a14.727 14.727 0 0 0 12.96.408c1.266-.584 4.114-2.375 5.839-.592.496.708.897 1.476 1.198 2.288 1.365 2.441 5.111 2.59 7.36.923 3.04-2.251 3.723-6.771 3.906-7.127a36.261 36.261 0 0 0 1.485-10.489 10.143 10.143 0 0 0-.597-1.739 41.325 41.325 0 0 1-1.469-7.896c-.378-2.212-1.48-1.725-1.92-4.413-.334-2.019 1.034-6.058-3.149-10.72-5.07-5.643-11.142-4.603-15.425-7.464-4.364-2.915-6.73-10.525-12.652-10.162-3.297.202-5.75 3.477-6.126 6.76a19.242 19.242 0 0 0 2.122 9.563c.92 2.151.729 2.751-.058 4.039-4.453 7.273-4.664 7.824-5.299 8.201-1.053.626-3.448-.059-6.952 1.853-2.021 1.098-1.651 4.351-1.296 6.85z"/><path fill="#0F0F0F" d="M292.715 121.531c.338-1.91.253-3.87-.248-5.744a13.275 13.275 0 0 0-2.656-5.099c2.282-6.341-.771-13.266-9.509-16.063-3.857-1.268-7.083-1.745-9.76-4.216-2.707-2.53-4.44-6.355-8.197-8.497-8.82-4.923-17.811 6.749-8.865 18.454a24.812 24.812 0 0 0-6.199 9.391c-8.278-1.541-9.841 2.677-9.236 11.065-1.543.356-12.517 4.082-13.552 3.546-3.466-1.795-5.909-14.08-6.623-17.906a7.924 7.924 0 0 0-4.257-5.873c-2.4-1.165-4.4-.717-4.372-.346.013.48 3.444.944 5.052 3.795.96 1.653.684 2.866 1.308 6.964.48 3.168 2.986 13.001 5.472 14.825 3.295 3.08 3.304 2.603 17.356-1.669 1.92 12.184 5.249 9.658.518 11.143-8.835 2.776-19.216 6.933-27.477-4.088-4.293-5.73-6.92-16.09-8.211-23.738-.944-5.12 5.346-6.72 5.28-7.174-.043-1.056-8.266.845-7.608 7.457.662 8.532 3.238 19.261 7.885 25.44 10.021 13.341 22.731 7.901 34.166 4.312 1.815 3.114 6.095 8.544 9.339 6.968 1.624-.737 2.474-2.345 4.669-5.409a16.743 16.743 0 0 0 20.176.18c1.213 5.623 8.343 7.344 12.861 1.44 2.907-3.782 5.822-14.289 2.688-19.158zm-4.058-8.424c3.464 6.4.018 13.786-6.459 17.102-7.091 3.562-11.854-4.936-5.385-9.82a15.133 15.133 0 0 0 11.844-7.282zm-33.348 24.64c-4.402 4.787-3.612 5.389-6.44 2.544-5.56-5.586-8.426-17.95-7.68-25.489.3-1.92.928-2.455 2.72-2.677a15.015 15.015 0 0 1 2.796-.071 32.915 32.915 0 0 0 3.12 18.226 29.773 29.773 0 0 0 5.484 7.466v.001zm-2.496-8.939a31.541 31.541 0 0 1-3.068-16.656 21.885 21.885 0 0 1 5.242-10.002c1.76 1.952 3.795 3.935 3.458 6.62-.144 1.408-.48 2.251-.236 2.368.32.182 2.32-2.153 1.706-5.261-.53-2.712-2.859-4.949-4.352-7.323-5.869-9.28-.373-16.935 5.19-13.722 2.76 1.514 4.671 5.333 7.52 8 3.284 3.067 7.005 3.613 10.988 4.949 15.459 5.024 5.44 21.44-5.234 19.2-3.077-.589-3.862-3.567-2.56-6.453 1.618-3.581 5.301-5.144 7.272-7.52 1.072-1.248 1.355-2.138 1.182-2.254-.204-.14-.825.449-2.044 1.289-2.434 1.76-6.644 3.149-8.879 7.266-2.494 4.667-.662 9.707 4.293 10.852-4.613 4.981-2.65 12.892 4.278 14.026a11.517 11.517 0 0 0-.531 2.469c-10.158 6.534-19.693 1.584-24.225-7.856v.008zM284 141.488c-2.978.512-5.6-1.973-4.338-7.213a10.4 10.4 0 0 0 4.066-1.112c6.833-3.494 7.877-8.945 7.944-8.097.297 3.363-2.117 15.481-7.672 16.422z"/><path fill="#fff" d="M48.96 290.28c-.48-4.371-4.869-7.13 4.187-20.85 3.638-5.512 5.14-6.944 12.64-8.704 2.584-.606 3.746-.7 7.25-5.489.13-.179 4.099-6.85 7.179-7.762 1.041-.309-.491-.907 18.787-14.541 7.029-4.971 17.792-9.374 18.65-9.859 10.56-5.963 44.134-12.51 58.211-10.765 5.92.735 10.107.112 15.821 1.834 14.06 4.238 30.539 6.936 42.15 15.93a48.885 48.885 0 0 0 8.08 5.318c4.722 2.269 12.067-6.018 32.984 18.187 6.522 7.546 12.206 18.699 11.422 28.64-.32 4.115-3.649 5.12-1.624 8.725.556.986 3.85 9.936 3.703 11.061-1.539 11.84-34.691 7.741-42.28 8.017-54.435 1.975-92.037 1.328-138.069 1.84-7.52.085-64.814 1.469-63.475-6.968.773-4.82 4.832-10.572 4.384-14.614z"/><path fill="#0F0F0F" d="M280.332 276.626c-.257-6.765-9.627-17.57-10.4-16.917-.489.411 3.607 6.147 6.071 11.6.699 1.576 2.24 5.296 1.28 6.773-.344.45-.833.767-1.384.899-1.346.32-.573.405-1.152-2.312-1.155-5.391-5.335-10.24-8.736-14.576-4.557-5.629-9.048-12.592-15.429-13.771 1.534-7.04 12.082 3.476 12.92 2.324.304-.412-6.72-8.353-11.742-7.118-3.052.726-5.034 4.547-3.52 8.752 2.256 6.293 11.379 16.15 16.105 22.208 2.288 2.88 5.397 6.438 8.987 7.248 3.159.824 7.125-.914 7-5.11zm-10.334 0c-1.176-1.082-19.008-21.181-19.498-26.82a15.156 15.156 0 0 1 6.512 4.573c1.413 1.563 12.32 15.186 14.144 18.367a16.776 16.776 0 0 1 2.274 6.142 10.393 10.393 0 0 1-3.432-2.258v-.004zm-36.424-3.861c-4.692-8.979-18.124-13.28-18.377-12.04-.203.672 11.661 4.569 15.961 13.28 1.684 3.339 1.565 7.779-1.822 8.558 3.162-12.027-24.749-19.392-33.944-18.326-6.202.718-6.814 3.744-6.92 2.758-1.403-10.579 20.64-6.293 20.835-6.957.664-1.824-25.521-7.076-23.581 7.322.716 5.304 5.866 8.011 11.296 8.894a65.037 65.037 0 0 1 13.189 2.612c8.123 2.678 13.97 7.908 20.01 6.331 3.969-.951 6.55-6.37 3.353-12.432zm-22.492 3.469c-10.864-3.592-18.276-1.404-21.823-7.063 1.235-1.987 3.992-2.736 6.32-2.944 8.178-.547 35.311 6.274 32.117 16.456-4.789-.227-8.878-3.902-16.614-6.449zm-29.733-33.226c-3.188-5.23-13.32-4.96-13.098-3.651.037.416 1.92.416 4.64 1.224 3.798 1.147 8.093 3.63 5.907 7.016-9.269-6.973-23.904-4.917-27.75.264-3.04-5.653 8.563-7.68 8.31-8.671-.078-.32-1.966-.56-5.04.29-9.014 2.49-7.83 11.19-1.089 13.403 3.152 1.098 6.852-.07 12.816-.065 3.68-.06 13.6 2.214 15.902-5.533a5.432 5.432 0 0 0-.598-4.277zm-15.308 7.04c-7.603 0-11.012 1.666-13.988-.941 3.128-3.864 16.054-5.896 25.673-.32-2.936 2.451-7.296 1.232-11.685 1.261zM59.056 275.547c-2.975 5.167-5.036 9.581-5.636 9.378-.56-.189.623-5.111 3.716-10.483 3.092-5.373 6.755-8.866 7.2-8.48.476.417-2.306 4.419-5.28 9.585zm73.281-4.115c-4.976-6.293-18.323-.214-17.713.866.265.47 5.398-1.648 10.491-1.44 3.2.065 7.48 1.838 4.722 4.8a23.297 23.297 0 0 0-14.781.729c-9.343 3.36-11.624 9.027-12.187 8.775-6.508-2.88 5.92-11.221 5.784-11.52-.232-.573-6.628 1.75-9.181 6.409-2.615 5.12 1.579 8.434 7.379 7.97 5.331-.365 31.405-8.967 25.486-16.589zm-27.873 14.154c5.44-6.176 15.68-10.274 24.16-8.8-4.237 3.388-18.941 9.48-24.16 8.8zm107.291-47.626c-1.579-2.52-.982-5.189 2.421-4.48 5.693 1.581 9.387 7.344 8.96 7.68-.48.373-4.066-4.64-9.418-5.872-.169-.054-.817-.16-.825-.011-.32 2.88 11.296 11.6 10.536 7.128-.16-.717-.421-1.165-.293-1.245.192-.138 1.176.8 1.232 1.822a2.07 2.07 0 0 1-1.28 1.906c-2.863 1.128-9.842-4.549-11.333-6.928zm-97.664 12.28c-2.925-.52-4.509-2.757-1.69-4.8 4.996-3.153 11.744-2.027 11.703-1.478-.045.589-6.223-.082-10.674 3.04-.144.081-.675.494-.563.605 1.888 2.158 16.208-.562 12.358-3.023-.64-.361-1.144-.469-1.12-.617.036-.236 1.386-.335 2.18.31a2.063 2.063 0 0 1 .548 2.24c-1.073 2.843-9.972 4.203-12.742 3.723zm40.841 25.522c-5.784 4.944-9.856 2.107-9.212-.618.299-1.264 1.376-1.92 1.508-1.749.122.138-1.168 1.818-.2 2.907 1.562 1.76 5.112-.377 6.778-1.808 1.094-.939 1.014-2.339.298-2.617-2.264-.613-6.661 1.76-6.88 1.518-.743-.763 9.104-6.321 9.048-.411a3.461 3.461 0 0 1-1.34 2.778zM83.75 278.84c-3.04-2.317 2.903-7.394 6.172-6.747.61.121.82.496.748.544a7.553 7.553 0 0 0-4.992 2.71c-1.85 1.898-1.29 3.258 1.855 1.44 4.389-2.545 2.976-3.928 3.137-4.144.186-.613 2.805 2.037-2.299 5.463-1.44.958-3.14 1.744-4.62.734zm160.876 8.414c-3.711-3.2-2.759-6.316-2.333-5.827a7.534 7.534 0 0 0 3.313 4.611c2.125 1.6 3.386.86 1.191-2.017-3.077-4.032-4.271-2.459-4.504-2.594-.656-.107 1.661-3.048 5.707 1.6 3.64 4.173.357 7.45-3.374 4.227z"/><path fill="#0F0F0F" d="M187.797 280.968c-10.434-4.56-10.65-16.368-9.808-16.206.297-.016.28 2.214 1.582 5.387 4.462 10.88 14.47 10.616 22.098 12.585 3.484.9 5.422 2.098 5.318 2.28-.11.234-2.131-.532-5.573-1.108-4.517-.757-9.225-1.018-13.617-2.938zm-32.117-22.87c-7.968-.8-12.402-5.725-11.864-6.163.449-.432 3.593 3.612 12.043 4.48 5.894.603 13.138-.471 13.216.16.078.63-7.914 2.08-13.395 1.523zm-19.85 22.451c-4.328 4.64-12.921 8.245-13.203 7.539-.19-.48 7.56-3.966 11.958-8.691 2.56-2.743 3.397-5.482 1.74-8.84-1.152-2.336-2.338-3.637-2.119-3.813.263-.235 8.738 6.19 1.624 13.805zm76.97-35.259c-3.52-2.754-6.027-7.2-5.419-7.535.44-.245 2.611 3.187 6.462 6.199 3.851 3.011 7.706 4.292 7.574 4.779-.148.547-4.675-.359-8.617-3.443z"/><path fill="#0F0F0F" d="M288.112 295.374a124.396 124.396 0 0 0-2.429-6.217c11.488-15.691-20.11-60.583-42.622-54.415-51.456-39.329-131.373-30.608-174.97 24.06-11.38-2.743-24.035 20.652-21.504 27.82 1.784 5.136 2.357.74-1.216 9.613-1.694 4.189-2.08 7.927-1.198 8.191 1.625.491 5.174-9.228 6.667-12.503 6.435 2.458 14.23-7.36 13.072-8.182-.821-.581-7.867 7.397-12.62 4.688-2.03-2.861-2.36-4.527-.913-8.37 2.08-5.241 4.8-11.017 8.992-14.75 3.538-3.237 9.31-5.368 10.16-.523.776 4.267-.85 10.4-.133 10.7.82.362 3.13-4.96 3.227-9.428a124.702 124.702 0 0 1 151.743-33.628c2.827 1.293 9.44 4.871 6.445 2.994-51.3-30.838-119.095-19.296-158.43 27.84a5.793 5.793 0 0 0-1.92-3.33c45.071-52.049 119.417-58.833 169.802-24.04-13.39 7.716 5.141 31.404 6.248 30.586.876-.64-12.96-19.605-6.24-26.469 9.168-9.851 40.594 9.962 44.48 40.259.041.706.03 1.413-.032 2.117-.536 7.173-8 10.72-16.225 6.011-5.455-3.147-17.005-15.36-17.829-14.545-.528.521 10.4 13.473 16.264 17.179 5.077 3.162 11.306 3.966 16.19.626a121.96 121.96 0 0 1 1.863 4.84c3.865 10.649 5.896 6.494 3.128-1.124z"/><path fill="#FDFE1F" d="M208.96 111.96c-.32-9.218-1.49-32.77-19.725-53.075-43.498-48.432-136.296-26.208-133.173 53.792 1.76 45.12 36.17 76.264 74.298 78.891 4.121.283 41.637 2.065 64.459-26.595 15.846-19.908 14.469-43.448 14.141-53.013z"/><path fill="#0F0F0F" d="M210.926 112.8C207.688 23.632 106.606 9.625 68.177 61.882 34.776 107.288 61.76 188.785 130.221 193.5c22.934 1.58 50.139-7.263 66.11-27.32 15.818-19.864 14.96-43.352 14.595-53.381zm-12.48 33.872a70.848 70.848 0 0 0 8.619-22.419 71.299 71.299 0 0 1-8.614 31.868c-1.75-5.744.642-9.401.002-9.449h-.007zm-58.021 26.401c-35.926 0-65.156-30.272-65.156-67.48 0-59.441 70.71-91.953 112.512-45.408a67.155 67.155 0 0 1 17.8 45.408c0 14.207-3.247 28.837-10.88 40.829-.2-.022-12.378 26.647-54.269 26.647l-.007.004zm34.466 6.4a83.045 83.045 0 0 1-36.85 10.189c.023-.16.717-5.76.901-5.941.685-2.465 2.08-5.432 2.653-7.339a74.12 74.12 0 0 0 33.627-7.825c.987 5.656.819 5.39-.325 10.92l-.006-.004zM72.288 98.545c-1.52.48-6.952 2.589-7.616 2.589-2.053.435-4.59.666-6.616.96a74.949 74.949 0 0 1 5.851-25.03c7.982-2.232 5.78-2.613 15.098-2.755a72.056 72.056 0 0 0-6.717 24.235v.002zM132.64 35.24a66.705 66.705 0 0 0-30.48 11.66c-3.703-.554-7.81.868-15.603 2.367A82.434 82.434 0 0 1 132.64 35.24zM79.065 55.39c6.445-3.398 9.6-6.323 18.888-5.299A70.695 70.695 0 0 0 81.027 70.4c-6.88 1.544-4.91 2.816-15.36 2.936A66.192 66.192 0 0 1 79.065 55.39zm-21.163 50.4c6.99-3.352 6.61-3.315 14.128-3.577a72.464 72.464 0 0 0 7.389 35.507c-8.778 5.795-4.397 3.691-13.877 6.856a86.149 86.149 0 0 1-7.64-38.781v-.005zm9.239 42.026c9.092-6.103 4.694-3.589 13.996-6.84a70.583 70.583 0 0 0 19.231 22c-3.928 7.824-1.49 4.894-8.491 12.704a76.77 76.77 0 0 1-24.736-27.861v-.005.002zm27.716 29.853c4.568-9.36 2.808-6.116 8.498-12.581a66.495 66.495 0 0 0 34.514 11.251c-.274 7.709-.202 6.91-3.442 13.405a74.434 74.434 0 0 1-39.57-12.071v-.004zm83.109-.061c-1.043-6.163.44-7.096.823-11.067a57.932 57.932 0 0 0 16.731-15.456c.912 3.36.909 3.48.427 9.081a63.036 63.036 0 0 1-17.981 17.447v-.005z"/><path fill="#fff" d="M140.522 48.995c-30.156 0-54.602 25.503-54.602 56.96 0 31.456 24.446 56.96 54.602 56.96 30.155 0 54.603-25.504 54.603-56.96 0-31.457-24.447-56.96-54.603-56.96z"/><path fill="#0F0F0F" d="M193.6 100.523c-3.92-35.286-33.992-55.473-63.824-49.905-8.047 1.502-12.911 4.247-13.056 3.956-.204-.401 6.662-3.619 12.838-5.012 30.08-6.79 62.262 13.708 66.586 50.739 3.436 74.7-79.148 78.88-103.826 34.635-12.586-22.56-9.472-53.456 11.605-72.184 4.614-4.1 11.345-7.9 11.541-7.531.419.648-34.72 16.87-27.906 58.976a52.76 52.76 0 0 0 15.962 31.323c9.536 9.552 22.328 14.529 32.116 15.049a56.54 56.54 0 0 0 17.056-.841c29.581-4.835 42.015-29.251 40.908-59.205z"/><path fill="#FDFE1F" d="M105.316 130.729c-7.36-13.841-5.824-30.636 7.012-43.892 1.451-1.5.972-1.404.47-3.412-4.862-19.448 2.309-24.467 13.366-5.985 1.034 1.728 1.559 1.909 3.084 1.715 15.022-1.9 15.14-1.82 16.308-2.326 3.468-1.504 5.317-7.2 8.679-10.474 2.333-2.266 6.179-3.52 8.832-1.646a8.872 8.872 0 0 1 2.861 4.662c3.612 10.922 1.638 17.525 2.465 19.317.827 1.792 4.296 2.309 6.314 12.584 1.941 9.881 1.259 15.95-1.643 23.569-4.722 12.397-10.004 15.34-22.629 19.285-13.167 4.114-35.2 3.867-42.631-7.985a35.9 35.9 0 0 1-3.603-9.101l1.115 3.689z"/><path fill="#fff" d="M101.256 107.376c2.99 4.198 7.633 4.918 11.101 2.459 1.584-1.12 2.748-2.838 4.51-3.654 6.098-2.826 11.098 5.561 16.24 7.392 9.906 3.52 14.658-9.378 23.246-9.303a10.133 10.133 0 0 1 8.813 6.855c3.635 9.664-3.747 22.805-10.797 30.352-4.076 4.365-25.777 4.979-31.2 3.827a41.303 41.303 0 0 1-9.844-3.976 33.075 33.075 0 0 1-5.805-5.664c-6.72-9.222-6.528-29.334-6.386-27.36l.122-.928z"/><path fill="#FFC5F6" d="M122.902 126.496c1.266.48 2.907.539 3.551 1.731.144.334.27.677.372 1.024.943 2.448 10.88 7 6.5 10.862a7.763 7.763 0 0 1-4.767 1.472c-5.822-.112-10.809-7.292-11.576-13.515a2.065 2.065 0 0 1 .683-2.049c3.189-3.621 2.285-.647 5.237.475z"/><path fill="#0F0F0F" d="M169.099 86.387c2.39-12.464-3.474-38.056-20.573-16.58-8.147 10.366.64 4.732-12.414 6.745a38.8 38.8 0 0 0-7.89 2.062c-1.937-4.417-4.433-8.915-8.401-11.68-1.948-1.353-4.648-2.704-6.831-1.808-3.766 1.546-2.67 8.202-2.24 12.205 1.16 10.291 2.659 7.896.871 9.418a35.146 35.146 0 0 0-10.376 15.04c-3.796 11.619-.416 29.891 9.104 39.384 8.291 7.315 16.454 7.7 27.483 6.936 8.113-.599 16.88-2.432 23.881-6.701 7.106-4.141 10.442-9.936 12.712-16.6 3.672-13.261 4.879-29.192-5.326-38.42zm3.986 26.421c-1.12 10.384-4.341 20.08-13.352 25.347-10.88 6.552-33.12 8.859-43.063 3.36-11.283-6.248-19.04-29.686-10.533-45.12 5.796-10.451 13.98-13.976 13.666-14.518-.051-.101-.877.134-2.318.875a28.28 28.28 0 0 0-3.439 2.104 106.585 106.585 0 0 1-1.169-13.42c3.185.058 5.963 10.525 6.835 10.274.825-.18-1.818-9.393-4.779-11.212-1.696-1.049-2.192.08-1.796-1.405a2.136 2.136 0 0 1 .935-1.51c.766-.409 2.894.59 4.265 1.503 3.591 2.383 6.063 6.488 8.21 10.216-2.309 1.024-3.52 1.92-3.41 2.16.362.837 9.135-3.136 19.807-2.512-1.362 3.06-1.76 5.205-1.251 5.395 1.259.47 13.852-22.992 20-19.04 1.568.99 2.72 4.013 3.243 5.784 3.36 11.639-.32 22.426.773 22.852.388.16 1.44-1.226 2.38-3.84 5.394 6.14 5.901 14.624 4.996 22.707z"/><path fill="#0F0F0F" d="M151.772 81.947c1.388-2.56 3.324-6.42 6.052-7.563.996-.418 1.739.088 1.664.269-.12.294-1.312-.605-3.645 3.52-.81 1.43-1.333 2.668-2.455 5.038-.763 1.997.653 2.367 5.52 5.367a1.239 1.239 0 0 0 1.403-.1 1.24 1.24 0 0 0 .316-.38c.454-.759.585-7.433-.023-11.35-.142-.908-.424-1.348-.296-1.467 1.354-1.648 3.567 11.024 2.218 13.76a3.353 3.353 0 0 1-2.045 1.754 3.373 3.373 0 0 1-2.677-.297c-4.9-2.999-8.238-4.474-6.032-8.55zm15.233 29.954c-1.479-5.882-4.679-7.853-8.359-8.704-8.105-.677-11.444 6.038-17.348 8.576-3.453 1.488-7.68 1.624-10.618-.64-2.65-2.039-4.64-6.024-9.576-6.29-7.68-.411-9.066 8.654-15.776 5.702-1.082-.48-1.63-.918-1.75-.8-.096.088.24.762 1.321 1.546 5.039 3.645 9.147-1.725 12.2-3.461a7.004 7.004 0 0 1 7.762.778c2.664 2.216 4.64 6.28 10.838 6.464 10.349.31 14.779-10.322 21.936-9.738 7.087.576 8.559 8.984 7.271 16.138-1.464 8.134-5.999 13.216-5.535 13.6.855.816 10.576-11.467 7.634-23.171zm-15.823-21.203c-.96-6.157-10.6-7.93-15.065-2.146a4.08 4.08 0 0 0 .043 5.064c1.858 2.04 3.778.598 9.562 1.725 3.98.74 5.856-2.053 5.46-4.643zm-3.208 2.66c-.96.347-2.507-.302-4.388-.608-1.831-.297-3.941.133-5.141-.245-1.24-.39-1.234-1.76-.555-2.72 3.124-4.423 11.136-3.707 11.552 1.11a2.41 2.41 0 0 1-1.468 2.463zm-23.363-5.019c-4.131-5.46-13.146-3.86-14.098 1.854a3.913 3.913 0 0 0 2.357 4.283c1.669.618 3.266-.126 4.96-.284 2.179-.23 3.442.269 5.15-.195a3.545 3.545 0 0 0 1.631-5.658zm-1.303 2.72c-.342 1.778-3.27.752-5.716 1.12-1.76.266-3.216.86-4.108.525a2.254 2.254 0 0 1-1.347-2.316c.439-4.515 7.939-5.068 10.805-.921.32.467.45 1.037.366 1.597v-.005z"/><path fill="#0F0F0F" d="M133.427 133.771c-2.106-1.824-4.27-2.928-5.75-4.773 6.23-.041 9.771-6.424 9.412-6.72-.259-.221-1.464 1.032-3.576 2.581-5.44 3.77-10.588 1.645-12.556-2.134a11.383 11.383 0 0 0 4.532-4.224c7.628-11.544-19.68-11.984-9.369 1.936a7.415 7.415 0 0 0 2.251 2.217c-3.51 7.232-8.728.391-9.507 1.067-.541.471 3.158 5.648 7.499 4.128a17.747 17.747 0 0 0 5.952 12.077c7.755 6.547 17.862.011 11.112-6.155zm-15.694-14.56c-1.44-1.845-3.13-5.205-1.349-6.72a7.034 7.034 0 0 1 5.997-.723c5.484 1.737.376 7.688-1.749 8.822-1.397.725-1.863-.043-2.899-1.376v-.003zm15.334 19.68c-2.75 4.438-13.955-.15-15.213-11.869 3.115-2.47-1.968-1.077 6.965 7.607 1.357 1.264 2.222 2.014 2.4 1.872.755-.584-5.28-6.274-6.538-10.501a9.232 9.232 0 0 0 5.101 2.819c2.152 4.621 9.439 6.739 7.285 10.078v-.006zm-15.926-43.069c-5.533 0-5.538 8.367 0 8.367 5.537 0 5.539-8.368 0-8.368v.001zm21.673.802c-5.533 0-5.541 8.366 0 8.366s5.538-8.368 0-8.368v.002z"/><path fill="#FDFE1F" d="M280.758 121.048c-1.932-32.728-26.889-54.582-54.22-53.864-25.76.677-52.612 22.827-53.101 53.883-.339 21.453 11.432 42.437 31.299 51.384 33.918 15.275 78.806-4.211 76.022-51.403z"/><path fill="#fff" d="M231.608 78.72a39.105 39.105 0 0 0-28.434 66.55 39.115 39.115 0 0 0 20.013 10.866 39.114 39.114 0 0 0 40.319-16.525 39.106 39.106 0 0 0 6.632-21.787 38.82 38.82 0 0 0-38.53-39.104z"/><path fill="#0F0F0F" d="M240.616 154.666c21.539-5.212 34.485-30.172 25.299-52.455-5.289-12.829-16.55-21.315-28.169-23.115-11.62-1.8-14.28.507-14.426-.104-.069-.29 5.091-1.478 9.454-1.344 28.468.885 45.567 29.506 35.116 55.52-14.128 35.166-63.429 32.96-73.986-5.659-4.253-20.197 4.666-37.008 18.981-44.823a28.31 28.31 0 0 1 8.96-3.315c.251.706-21.831 4.755-26.829 31.431a42.813 42.813 0 0 0 .202 13.852c.067.557 1.001 4.263 1.212 4.8 5.983 18.386 24.36 30.007 44.186 25.212z"/><path fill="#0F0F0F" d="M282.694 120.934c-1.976-33.472-27.505-56.448-56.208-55.69-26.14.689-54.475 23.27-54.988 55.791-.364 22.909 12.675 44.283 32.441 53.184 35.581 16.021 81.611-4.88 78.755-53.285zM269.29 149.07a50.6 50.6 0 0 0 9.462-19.497 52.265 52.265 0 0 1-8.915 26.011c-1.037-2.624-.189-4.832-.547-6.514zm-37.548 15.695c-25.182 0-45.668-21.213-45.668-47.288 0-39.216 45.528-64.336 76.897-33.44 30.739 30.277 8.663 80.728-31.229 80.728zm-37.937-16.197c-3.36 3.2-1.882 3.954-7.541 6.432a55.365 55.365 0 0 1-10.133-23.878c3.594-3.05 3.57-2.88 8.208-3.32a50.645 50.645 0 0 0 9.466 20.766zm17.494-76.467a49.632 49.632 0 0 0-23.808 25.019c-2.825 1.162-3.229 2.371-6.936 2.33a55.634 55.634 0 0 1 30.744-27.35zm-32.259 30.768c3.402-1.669 3.379-2.2 7.04-2.093a51.676 51.676 0 0 0-2.347 23.384c-3.856 1.958-2.25 2.491-8.053 3.68a51.61 51.61 0 0 1 3.36-24.971zm9.21 54.627c4.404-5.373 2.804-3.139 8-5.989a48.784 48.784 0 0 0 15.377 11.504c-.907 4.762.944 3.496-2.529 9.12a48.623 48.623 0 0 1-20.855-14.635h.007zm23.918 15.635c.32-5.691.661-4.278 2.958-8.64a47.035 47.035 0 0 0 27.68 1.722c1.733 3.448 1.656 2.985 1.197 7.009a58.384 58.384 0 0 1-31.843-.091h.008zm34.99-.893c-1.782-3.462-1.374-3.083-1.016-6.96a48.301 48.301 0 0 0 20.53-13.147c1.467 2.551 1.333 3.122.907 6.416a45.577 45.577 0 0 1-20.427 13.691h.006z"/><path fill="#FDFE1F" d="M213.945 100.64c-2.312-5.96.772-10.037 4.216-10.155 6.352-.218 10.38 6.611 10.541 6.73 2.663 1.947 2.168-8.032 5.058-7.783.502.043.745-.11 1.309.439 1.472 1.44 1.12 2.37 1.571 2.387 1.11.041 1.513-1.92 3.056-2.576a1.953 1.953 0 0 1 1.584.427c.379.376 1.017 3.192 1.881 3.242 1.22.07 1.516-1.04 3.703-1.519 1.091-.238 1.872.303 1.787 1.416-.013.16-1.301 4.915-.413 4.42 3-1.671 7.399-2.508 9.568.175 2.4 2.971.304 8.976-.461 15.155-1.017 8.239.879 20.565-6.848 27.064-3.148 2.65-13.31 7.167-20.288 6.474-3.756-.371-2.958 1.067-4.555 2.232-2.606 1.904-5.542-2.254-6.785-3.232-3.703-2.909-9.02-1.299-13.506-10.56-2.84-5.862-2.922-12.408 2.341-15.866 1.067-.7.731-.492 1.163-.585a1.347 1.347 0 0 0 1.112-.888c.368-1.342-1.76-1.451.656-7.242 2.736-6.542 5.037-5.302 3.31-9.755z"/><path fill="#fff" d="M235.118 125.341a8.387 8.387 0 0 0 8.32 1.909c9.69-1.573 14.282 7.56 5.989 14.025-3.733 2.909-10.603 4.619-15.966 4.688-7.117.091-6.215 1.504-7.972 2.56-2.88 1.722-5.6-2.486-7.473-3.656-3.37-2.096-4.829-.16-9.477-6.117-3.246-4.16-6.251-8.915-4.586-13.937a10.64 10.64 0 0 1 7.456-6.471c5.519-1.507 14.175-.47 23.709 6.999z"/><path fill="#0F0F0F" d="M219.04 111.52a3.147 3.147 0 1 0 .003 6.293 3.147 3.147 0 0 0-.003-6.293zm14.365 3.67a3.147 3.147 0 1 0 .003 6.295 3.147 3.147 0 0 0-.003-6.295z"/><path fill="#FFC5F6" d="M217.92 142.917a13.168 13.168 0 0 0 5.301 5.472c2.425.909 4.345-.85 3.814-3.485a12.895 12.895 0 0 0-1.381-3.213c-.833-1.633-1.478-3.36-2.203-5.043-1.037-2.416-1.818-1.76-3.003-2.813-1.338-1.185-.839-2.357-5.024-.408-1.087.507 2.072 8.632 2.496 9.488v.002z"/><path fill="#0F0F0F" d="M222.205 122.854c-3.68-1.068-6.829-.344-6.96-.776-.056-.187.673-.651 2.027-.96 6.425-1.44 11.961 4.16 11.224 4.8-.336.301-2.611-1.995-6.291-3.064zm20.233-12.52c-1.616-2.329-5.534-4.422-8.449-3.185a2.607 2.607 0 0 0-1.072 4.118 11.713 11.713 0 0 0 3.416 2.434c.809.55 1.192 1.501 2.128 2.139 2.785 1.898 6.805-1.506 3.977-5.506zm-.532 3.309a1.734 1.734 0 0 1-1.445 1.21 1.742 1.742 0 0 1-1.701-.813 7.912 7.912 0 0 0-1.528-1.6c-1.31-.891-2.536-1.226-3.099-2.066-1.256-1.633.899-2.64 3.2-2.148 3.429.716 5.006 3.454 4.573 5.417zm-17.026-8.683c-2.019-2.434-6.514-2.349-8.97-1.045-1.869.973-3.2 3.266-2.105 5.085 1.897 3.13 4.872.843 5.99.707a11.762 11.762 0 0 0 4.15-.597 2.591 2.591 0 0 0 1.543-1.833 2.61 2.61 0 0 0-.021-1.233 2.61 2.61 0 0 0-.587-1.084zm-1.61 2.806c-1.313.725-2.453-.273-5.789 1.13a1.74 1.74 0 0 1-.948.24 1.753 1.753 0 0 1-1.666-2.034c.949-3.568 7.016-3.84 8.91-1.292a1.174 1.174 0 0 1 .296 1.12 1.178 1.178 0 0 1-.803.835v.001z"/><path fill="#0F0F0F" d="M259.325 97.235c-2.485-3.731-6.952-3.544-10.696-1.147.52-2.147.945-3.376.118-4.578-1.515-2.176-5.466 1.335-5.466 1.168l-.32-1.244c-.96-3.284-3.235-3.52-5.091-1.464-1.068 1.2-.828 1.4-.972 1.238-1.304-2.413-3.314-4.3-4.903-2.05a15.057 15.057 0 0 0-1.403 3.53c-1.245 3.74-.354 3.864-1.578 2.485-2.662-2.936-8.329-6.95-12.148-5.975-2.972.8-4.708 4.173-4.394 7.592.238 1.93.667 3.833 1.28 5.679.333 1.112.23.931-.216 1.318-3.445 2.947-5.525 7.656-4.408 14.04a11.256 11.256 0 0 0-7.013 13.005 21 21 0 0 0 8.352 11.264 23.043 23.043 0 0 0 7.623 3.45c3.496 5.312 8.598 5.267 10.028 1.744 7.279.368 16.708-1.388 22.464-5.658 9.501-7.059 6.533-18.422 7.738-27.878.789-5.928 4.462-11.111 1.005-16.519zm-27.381-4.067c1.477-3.789 1.662-4.944 3.635-.936 2.195 4.458 4.36-5.76 5.72-.32.64 2.416.746 3.494 3.507 1.835.384-.262 2.24-1.488 2.594-1.184.406.605-.853 4.874-1.002 5.295a13.064 13.064 0 0 0-2.26 2.942c-6.381-3.088-10.282-2.008-12.252-2.93-.235-.108-.907-.48-.901-.73.106-1.367.429-2.708.959-3.972zm-5.619 53.184c-1.002 3.16-7.922 1.387-10.255-11.954a5.583 5.583 0 0 0 1.751-.777c1.051 4.8 6.099 15.478 2.145 1.997-.8-3.021-.808-.948 1.749.262 1.235.597.178-.952 3.464 6.662.866 1.967 1.44 2.911 1.146 3.812v-.002zm-9.08-19.461c-.947-2.112 3.549-1.51 5.152-.379 1.798 1.488-2.639 3.664-3.288 3.338a15.205 15.205 0 0 1-1.864-2.96v.001zm40.947-23.803a36.171 36.171 0 0 1-1.845 7.054c-.342.026-.995-.92-1.184-1.155-2.728-3.317-4.682-2.425-3.619-4.672 1.141-2.304 4.869-4.851 4.694-5.17-.241-.54-7.374 2.828-6.689 7.023.576 1.349.731 1.219 1.894 2.096 2.571 1.834 2.735 3.638 4.557 3.904-1.68 9.838 2.101 20.845-6.741 27.717-5.261 4.041-14.222 5.833-20.875 5.737-.075-1.208-.816-2.628-4.16-9.201 3.698-.072 5.941-3.511 5.512-3.81-.246-.216-1.272 1.13-3.493 1.848a4.236 4.236 0 0 1-5.747-3.229c.71-.396 1.224-.8 1.76-1.144 2.933-1.632 2.861-3.708 1.326-5.008-3.68-3.112-11.307-1.985-7.308 4.031a8.82 8.82 0 0 0 1.326 1.843 3.85 3.85 0 0 1-2.181 1.651c-3.312.983-4.92-2.179-5.329-1.965-.568.229.817 3.84 4.548 3.92.714 8.688 3.903 9.36.8 7.983a23.11 23.11 0 0 1-9.95-9.947 9.415 9.415 0 0 1 5.667-13.527c-.035-.209 11.106-1.877 19.571 3.741 2.525 1.6 4.548 4.102 7.458 5.261 2.982 1.248 5.701-.061 7.79-.151 5.57-.294 7.191 4.269 7.471 4.16.603-.089-1.36-5.524-7.52-5.609-3.632-.024-5.189 1.701-9.28-1.44-1.987-1.509-4.85-4.93-10.959-6.88a32.924 32.924 0 0 0-14.905-.89 11.974 11.974 0 0 1 2.416-10.104c3.84-4.669 8.48-5.344 8.339-6.112-.083-.557-2.983-.365-5.72 1.144-.775-3.04-2.019-6.448-.416-9.097 1.829-.055 5.424 8.035 6.339 7.614.8-.341-1.971-7.763-4.682-9.152a4.832 4.832 0 0 1 3.629.491c5.151 2.295 6.696 5.327 8.466 6.92-2.138.4-3.51 1.034-3.437 1.392.104.568 3.119.392 6.779.303.16.032 8.868 1.6 10.04 2.188 4.359 2.159 1.44 2.436 4.48-1.83 4.381-5.83 11.77-5.608 11.178 2.072z"/><path fill="#fff" d="M271.445 108.357c-2.194 3.441-1.416 7.091 1.206 8.96 2.336 1.661 2.52 1.928.8 4.337a6.712 6.712 0 0 0 1.85 9.244c1.233.899 2.861 1.6 3.256 3.07a7.94 7.94 0 0 1-.143 2.744c-.307 3.437 2.626 6.267 5.028 6.11 1.724-.113 4.777-2.63 5.675-3.966 1.361-2.027 2.675-9.083 3.059-11.373.622-3.712-.107-3.889-.744-6.029-.76-2.56.069-5.532-1.302-7.82a10.83 10.83 0 0 1-1.49-2.434c-.502-1.795 1.6-4.68-2.4-10.749-1.909-2.894-3.765-3.597-5.069-3.606-4.16-.03-.528 2.358-.869 3.078-1.67 3.495-6.214 4.287-8.857 8.434z"/><path fill="#0F0F0F" d="M292.715 121.531c.338-1.91.253-3.87-.248-5.744a13.275 13.275 0 0 0-2.656-5.099 11.669 11.669 0 0 0-6.88-14.896c-1.646-.688-10.16-2.816-10.56-2.125-.238.397 1.787 2.203 4.762 3.331 2.904 1.184 6.622 1.856 8.8 5.359 2.88 4.432.582 9.897-3.6 12.72-2.709 1.862-7.808 2.923-10.112 1.001-2.066-1.723-1.148-5.249.822-7.52 1.888-2.208 5.093-3.971 6.488-6.336.493-.8.571-1.361.397-1.481-.411-.247-1.725.96-4.383 2.427-6.23 3.451-10.144 8.32-6.491 14.374a7.239 7.239 0 0 0 4.213 2.64c-3.819 4.16-3.2 10.813 1.85 13.197 3.585 1.829 2.304-.845 1.92 3.368a6.506 6.506 0 0 0 4.355 7.292c.98.327 2.023.416 3.045.26 7.883-1.194 11.929-17.099 8.278-22.768zm-15.902-1.142a15.13 15.13 0 0 0 11.84-7.282c3.464 6.4.017 13.786-6.46 17.102-7.1 3.568-11.836-4.956-5.38-9.82zM284 141.488c-2.978.512-5.6-1.973-4.338-7.213a10.4 10.4 0 0 0 4.066-1.112c6.833-3.494 7.877-8.946 7.944-8.098.297 3.364-2.117 15.482-7.672 16.423z"/><path fill="#fff" d="M279.281 199.701a12.157 12.157 0 0 1-4.8 4.197c-.995.593-1.742.848-2.616.014-3.459-3.296 2.792-10.754-.224-10.56-.656.04-1.6 1.59-3.66 1.786a2.933 2.933 0 0 1-2.836-1.335 4.675 4.675 0 0 1-.104-3.158c1.416-6.979 1.6-8.408 2.4-9.949 1.221-2.382 1.01-2.453-.054-3.8a4.644 4.644 0 0 1 1.035-6.48 8.856 8.856 0 0 1 3.219-1.099c2.487-.499 4.042-.605 6.976 1.953 2.011 1.76 3.68 4.013 2.744 6.525-.747 2.003-2.225 1.461-1.515 2.695a18.67 18.67 0 0 1-.565 19.211z"/><path fill="#FFC5F6" d="M269.745 161.634a26.49 26.49 0 0 1-.729-8.32c.876-5.528 7.473-8.626 8.444-2.191.448 2.97 1.837 16.4.706 17.706a7.152 7.152 0 0 1-3.968.552 24.374 24.374 0 0 0-3.742-.434c-2.221.061.44-.264-.711-7.313z"/><path fill="#0F0F0F" d="M281.136 179.61c3.68-2.4 1.678-7.295-2.008-9.86-1.294-.867.136.908-.219-10.348-.083-2.56-.251-7.93-1.44-10.196a4.4 4.4 0 0 0-3.565-2.662 4.408 4.408 0 0 0-4.069 1.8c-2.825 3.314-.664 6.56-1.133 20.379-4.094 2.227-4.603 7.387-1.078 9.504-2.56 3.239-2.608 9.04-2.976 10.248a15.712 15.712 0 0 0-1.237 4.183 4.006 4.006 0 0 0 3.533 3.848c4.203.504 5.384-4.696 2.966 1.137-1.75 4.227-.328 9.018 4.122 8.426 7.224-1.551 14.075-16.896 7.104-26.459zm-10.499-21c.033-3.452-.786-6.92.889-8.848a2.253 2.253 0 0 1 1.527-.998 2.25 2.25 0 0 1 1.763.466c.326.264.573.615.71 1.012 1.44 2.66 1.647 15.136 1.6 18.428a11.976 11.976 0 0 0-2.707-.784c-6.302-1.006-3.539 4.216-3.782-9.276zm7.435 40.8c-4.83 6.752-7.371 3.558-5.61-.701a31.78 31.78 0 0 0 1.428-4c1.52-5.616-.082-9.221-.618-9.05-.458.107-.194 2.034-.886 5.12-1.031.951-2.972 3.848-5.17 3.546a1.827 1.827 0 0 1-1.582-1.621 18.67 18.67 0 0 1 1.144-3.574c.779-2.623.11-8.44 4.747-11.733 3.822-2.696-.591-1.991-2.789-.25a3.31 3.31 0 0 1-1.163-4.437c2.149-4.177 9.885-3.435 12.973 1.533.96 1.589 1.051 3.04-.392 4.189a7.503 7.503 0 0 0-4.871-2.712c-3.245-.146.48 1.162 1.933 2.72 5.107 5.317 5.37 14.454.864 20.962l-.008.008z"/><path fill="#fff" d="M195.501 171.2a3.865 3.865 0 0 1 .779 4.496c-3.33 5.498.264-.667 2.062 14.97.112.672.12 1.357.024 2.03a3.373 3.373 0 0 1-2.377 2.547c-2.511.679-3.605-1.558-4.184-1.83-.442-.208-1.228.04-.788.851 1.109 2.04 2.652 4.64 1.791 7.335-2.653 8.32-17.655-4.2-11.2-18.336.507-1.109 1.736-2.56 1.408-3.736-.149-.536-1.08-.744-1.319-1.248-2.977-6.264 8.812-12.296 13.804-7.079z"/><path fill="#FFC5F6" d="M185.054 165.981c.826-12.471.784-14.469 1.808-16.418a3.706 3.706 0 0 1 5.558-.981 3.71 3.71 0 0 1 1.177 1.749c.901 2.509.125 15.607-.039 18.051-.076 1.173-1.947.496-5.44 1.018-2.518.376-3.436 2.205-3.064-3.419z"/><path fill="#0F0F0F" d="M179.43 186.312c-1.707 11.974 7.794 22.144 12.48 19.338 2.16-1.295 2.531-3.917 1.987-6.4a14.645 14.645 0 0 0-1.105-2.92c-3.411-8.047-1.845-10.472-2.781-10.692-.659-.209-2.638 4.389.272 11.727.371.811.677 1.651.915 2.51.365 1.611.173 3.642-1.468 3.459-5.693-1.171-11.911-16.192-3.664-24.924 1.625-1.722 3.199-1.94 3.183-2.381-.016-.469-2.24-.691-4.44.877a14.18 14.18 0 0 0-5.379 9.406z"/><path fill="#0F0F0F" d="M196.32 196.506a3.98 3.98 0 0 0 3.533-3.848 14.94 14.94 0 0 0-1.237-4.183c-.578-2.019-.114-10.321-6.176-12.504-1.583-.569-2.645-.214-2.634.071-.013.32.858.569 1.941 1.334 4.621 3.272 3.962 9.096 4.746 11.734a18.845 18.845 0 0 1 1.144 3.575 1.83 1.83 0 0 1-.509 1.086 1.833 1.833 0 0 1-1.074.535c-1.529.209-2.992-1.184-3.905-2.184-.941-1.032-1.527-1.76-1.818-1.634-.77.355 1.509 6.6 5.989 6.018z"/><path fill="#0F0F0F" d="m183.2 180.171.614-1.28c-5.654-3.419 3.52-10.849 9.325-8.459 3.245 1.335 4.213 5.266.981 6.947l.544 1.319a4.932 4.932 0 0 0 2.981-2.776 4.914 4.914 0 0 0-.125-4.071c-2.691-6.001-12.862-5.305-16.528 1.389-1.56 2.842-.934 5.528 2.208 6.931z"/><path fill="#0F0F0F" d="M184.741 170.021c2.425-.16.835 1.523 1.627-10.523.16-2.453.499-7.621 1.376-9.255a2.25 2.25 0 0 1 1.849-1.491 2.242 2.242 0 0 1 2.151 1.011c2.253 2.629-.088 7.127 1.409 19.461l1.421-.114c-.521-14.08 1.688-17.401-1.144-20.764a4.406 4.406 0 0 0-7.635.862c-1.922 3.658-1.542 16.214-1.054 20.813z"/><path fill="#FFC5F6" d="M86.08 153.947c7.49 4.288 9.747 5.109 19.4 6.232 21.365 2.485 15.2 1.92 23.218 1.235 2.459-.211 4.937-.03 7.401-.182 5.786-.355 15.421-3.68 15.879-4.347.424-.623.19-.711-3.597-10.368-1.083-2.765-3.696.248-10.061 1.585-45.315 9.53-53.026-16.853-63.416-17.11-5.275-.131-12.406 9.457 11.176 22.955z"/><path fill="#fff" d="M162.4 162.064c-2.512 1.181-4.947-1.654-6.221-2.24-2.467-1.136-6.765-9.083-6.88-12.184-.281-7.21-2.817-10.941 3.57-12.59 4.549-1.175 5.107-.948 7.611-5.544 3.149-5.776 10.526-15.188 16.837-15.932 2.933-.345 6.278 1.344 6.845 4.242.51 2.616-1.264 5.082-1.836 7.68 2.573 1.477 5.786-.504 8.735-.187a5.868 5.868 0 0 1 4.135 2.953 5.883 5.883 0 0 1 .286 5.074c-.442.898-.455 1.213.584 1.85a8.69 8.69 0 0 1 4.087 6.531 8.694 8.694 0 0 1-2.705 7.214c-1.43 1.331-1.699 2.091-.072 3.144 7.765 5.021 4.502 11.971.533 12.125-2.533.098-9.373-4.085-23.053-4.648-2.858-.118-6.198-.288-7.818-2.646-2.193.854-2.502 4.156-4.638 5.158z"/><path fill="#0F0F0F" d="M197.662 151.056c7.111-4.616 6.687-12.464.023-16.631 2.819-7.211-3.472-14.976-13.264-10.163 5.504-9.715-4.12-17.035-12.218-10.494-1.2.947-.96.88-6.344 5.92-4.078 3.891-6.808 6.88-8.176 13.029a15.913 15.913 0 0 0-6.453.72c-5.779 2.539-3.973 9.947-4.427 10.123-2.432.939-14.381 6.294-27.558 5.397-25.202-1.293-34.24-13.733-37.51-16.424-4-3.264-8.338-2.519-9.487-.922.121-.698-7.872 3.611.174 13.483 12.413 15.627 51.12 25.559 80.543 14 1.784 2.101 4.649 4.528 7.262 4.984 2.051.426 3.461-1.187 4.8-2.625 5.064-5.418-3.886-.32 15.896.945 10.176.64 11.242 3.539 16.398 3.168 7.108-.587 9.461-10.701.341-14.512v.002zM70.56 134.888a11.194 11.194 0 0 1 1.616-3.107c.057.344 1.14-.415 3.16-.224 4.428.444 6.363 4.524 11.124 9.12 7.586 7.241 25.028 13.544 43.45 11.068a62.074 62.074 0 0 0 17.41-4.816 25.764 25.764 0 0 0 3.605 9.352c-42.674 14.37-83.341-9.721-80.365-21.39v-.003zm92.584 24.736c-1.938 1.789-2.061 1.889-3.442 1.12-8.057-4.32-13.029-21.477-7.421-24.784 1.606-.621 3.3-.98 5.02-1.063-1.12 8.421 1.792 17.573 7.705 22.72a21.18 21.18 0 0 1-1.862 2.007zm33.945 3.118c-2.08.141-4.48-.945-7.166-1.91-5.986-2.123-13.224-1.303-17.331-2.688-10.778-2.967-15.323-19.376-9.947-29.675a26.985 26.985 0 0 1 5.379-6.511c.245-.235 5.793-5.635 6.056-5.849 4-3.325 9.315-2.08 9.296 2.593a10.33 10.33 0 0 1-4.131 7.968c-5.178 2.208-9.256 3.429-9.133 4.221.085.882 6.467.771 13.469-2.52 2.24-1.04 4.864-2.694 6.996-2.312a4.613 4.613 0 0 1 4.352 3.824c1.14 6.928-7.19 8.32-11.68 10.106-10.43 3.905 4.912 2.72 10.1-.463a11.064 11.064 0 0 0 2.644-2.24 7.827 7.827 0 0 1 3.285 4.018c2.571 7.696-14.457 11.2-14.301 12.48.095.891 5.301.71 10.008-1.311 8.895 2.928 6.517 10.076 2.104 10.269z"/><path fill="#fff" d="M256.16 189.315c.539 1.39.32 2.984.851 4.379.37.775.778 1.528 1.224 2.259 1.744 3.469-.281 1.887 5.12 7.461a19.256 19.256 0 0 1 4.669 7.325c.75 3.029-.619 7.381-2.08 9.867a13.277 13.277 0 0 1-5.035 4.749 13.303 13.303 0 0 1-18.063-5.525c-1.32-2.433-1.884-5.209-3.104-7.696a47.25 47.25 0 0 1-2.502-4.888c-.32-.929-.51-1.905-.859-2.827-1.413-3.742-4.589-5.352-3.397-9.72 1.466-5.371 3.099-4.461 4.595-5.722 1.81-1.524.832-4.289 7.107-4.763 7.68-.577 6.655.651 7.5 1.415.667.598 3.078 1.377 3.974 3.686z"/><path fill="#FFC5F6" d="M249.215 175.502c-.202-2.63-.869-6.742-4.14-6.22-3.188.507-3.075 5.008-3.2 7.459a112.586 112.586 0 0 0-.137 8.48c.064 2.945-.01 8.035 4.105 7.909 4.456-.143 4.514-2.677 3.372-17.628z"/><path fill="#0F0F0F" d="M258.733 194.445a18.64 18.64 0 0 0-1.491-6.141 8.494 8.494 0 0 0-6.631-4.362c-.089-1.781-.729-9.92-.992-11.252-.401-1.824-1.205-3.724-3.008-4.221a3.966 3.966 0 0 0-4.009 1.12c-2.061 2.291-1.76 6.542-1.952 14.105a8.554 8.554 0 0 0-3.144 3.541c-2.62 1.69-4.61 2.56-5.335 5.79-1.297 5.676 2.528 10.741 5.002 15.441 2.23 4.232 2.821 9.38 5.643 13.609 6.434 10.071 24.33 8.424 26.376-6 1.606-12.134-9.109-13.789-10.459-21.63zm-15.826-15.2a29.92 29.92 0 0 1 .523-7.162c.722-2.137 2.66-2.365 3.56-1.309a9.497 9.497 0 0 1 1.514 4.787c.206 14.496 1.107 16.321-2.533 16.481-3.997.217-3.014-6.18-3.064-12.802v.005zm23.611 36.457c-1.803 11.923-16.47 12.751-21.462 4.869-2.626-3.898-3.36-8.931-5.656-13.248-2.334-4.242-8.704-12.547-3.306-16.905-.668 3.704 1.66 7.739 3.624 11.236 5.354 9.683 3.86 16.931 11.416 20.32a11.501 11.501 0 0 0 13.536-2.699c.842-1.091 1.085-1.856.97-1.894-.21-.09-5.302 7.272-13.861 3.2-6.72-3.243-5.059-9.698-10.611-19.743-1.55-2.75-1.334-2.131-.418-1.531 2.432 1.565 4.304 1.422 4.32 1.168.082-.338-1.528-.771-3.36-2.413a8.157 8.157 0 0 1-2.996-5.616 8.169 8.169 0 0 1 1.939-6.064c.129 4.349 1.093 8 5.461 7.81 4.875-.31 4.704-3.789 4.577-8.403 5.221.948 7.866 7.741 2.922 12.301-3.903 3.425-8.063 2.203-8.147 2.617-.264.443 4.723 2.08 9.136-1.448 3.36-2.79 1.534-3.84 2.88-1.091 2.974 6.272 10.345 8.251 9.036 17.53v.004z"/><path fill="#fff" d="M218.451 183.829c5.213.032 6.341 3.456 7.126 4.182.575.427 1.2.782 1.863 1.054 2.782 1.503 3.793 5.143 3.267 8.261-.842 4.989-4.125 7.818-8.136 17.885-3.014 7.568-4.426 10.256-14.014 11.728-3.328.51-6.317.293-9.86-4.677-3.771-5.28-3.99-10.08-2.516-13.465 1.854-4.263 6.576-6.733 8.467-10.981 1.021-2.295 1.112-4.891 1.873-7.287a7.492 7.492 0 0 1 5.296-5.28 19.412 19.412 0 0 1 6.634-1.42z"/><path fill="#FFC5F6" d="M214.432 175.502c.202-2.63.869-6.742 4.139-6.22 3.191.507 3.075 5.008 3.2 7.459.152 2.824.198 5.652.138 8.48-.064 2.945.011 8.035-4.104 7.909-4.456-.143-4.514-2.677-3.373-17.628z"/><path fill="#0F0F0F" d="M231.478 193.021c-.729-3.242-2.72-4.101-5.339-5.792a8.541 8.541 0 0 0-3.142-3.54c-.191-7.651.072-11.857-1.951-14.104a3.977 3.977 0 0 0-4.011-1.12c-1.805.5-2.606 2.4-3.008 4.22-.211 1.075-.859 8.604-.992 11.252a8.505 8.505 0 0 0-6.635 4.365 18.79 18.79 0 0 0-1.493 6.143c-.99 5.752-6.817 7.969-9.382 13.587a14.423 14.423 0 0 0 10.194 20.22c2.856.584 5.822.288 8.507-.847 8.84-3.421 8.947-12.687 12.243-18.943 2.512-4.758 6.309-9.752 5.009-15.441zm-16.336-17.464c.335-2.631.96-5.992 3.511-5.28 1.739.43 1.95 3.347 2.019 5.14.043.943.19 9.733.07 11.876-.137 2.476-.598 4.883-3.067 4.744-3.667-.167-2.734-2.186-2.533-16.48zm9.106 31.761c-2.288 4.32-3.03 9.351-5.658 13.248-5.067 8-19.68 6.939-21.46-4.869-1.412-9.976 7.51-11.785 9.657-19.136a9.803 9.803 0 0 0 6.896 4.783c2.917.469 4.592-.496 4.507-.64a37.72 37.72 0 0 1-4.251-.509c-8.96-2.581-8-13.133-.976-14.411-.096 3.462-.47 6.456 2.298 7.821a5.743 5.743 0 0 0 4.768.142c2.515-1.226 2.891-4.574 2.974-7.371a8.154 8.154 0 0 1 1.939 6.064 8.155 8.155 0 0 1-2.996 5.616c-1.836 1.641-3.444 2.08-3.36 2.413.012.363 2.58.264 5.024-1.684a52.229 52.229 0 0 0-4.061 8.122c-1.25 3.669-1.955 8.066-4.139 10.826a11.072 11.072 0 0 1-5.103 3.447 11.072 11.072 0 0 1-6.155.191c-4.549-1.082-5.76-4.16-6.144-4-.282.098 1.334 3.758 5.829 5.131a12.053 12.053 0 0 0 12.857-3.768c2.476-3.065 3.189-7.669 4.428-11.289 1.635-5.165 7.444-11.445 6.432-17.037 5.236 4.224-.8 12.358-3.306 16.91z"/><path fill="#fff" d="M147.858 218.593c.068 3.884.88 7.983 4.32 9.821 2.436 1.299 11.531 1.968 14.289 1.909 7.234-.16 5.015-.87 12.682.522 4.333.785 11.549 1.361 15.579-.407 6.125-2.689 10.266-12.296 6.611-21.789-3.853-10.009-23.507-13.169-28.253-5.814a20.073 20.073 0 0 1-8.875 6.573 4.855 4.855 0 0 1-5.131-1.618c-1.149-1.71-.72-4.048-1.693-5.054-1.094-1.136-9.84-1.807-9.529 15.857z"/><path fill="#FFC5F6" d="M155.424 192.67c.278 3.272 1.92 11.778 3.187 14.223a5.04 5.04 0 0 0 5.248 2.989c2.775-.104 4.567-1.25 5.015-4.047.454-2.835-1.312-11.699-1.996-15.267-1.512-7.907-1.652-10.675-3.769-11.848-6.343-3.52-8.299 6.754-7.685 13.95z"/><path fill="#0F0F0F" d="M199.873 204.627c-7.128-8.987-22.446-11.141-29.26-.261 0-1.653-1.653-19.773-4.354-23.806-2.136-3.379-5.44-3.176-5.317-2.459.024.395 2.034.616 3.243 3.566.895 2.206 2.196 14.104 2.57 17.347.264 2.285 1.056 6.362-.067 8.123-.944 1.48-4.778 1.49-5.981.365-1.974-1.846-3.027-16.982-3.112-19.689-.096-3.247-.198-6.156 1.981-8.562.565-.614 1.04-.869 1-1.106-.019-.209-.671-.412-1.715.028-6.191 2.692-4.276 15.894-3.402 22.51-7.917 1.171-9.301 7.891-9.005 15.728.32 8.558-.6 14.594 10.306 15.136 2.229.088 4.31-.037 9.485.187 9.896.434 13.944 1.397 18.852 1.717 21.423 1.29 22.882-18.662 14.776-28.824zm1.244 14.155a11.753 11.753 0 0 1-7.13 10.49c-6.789 2.533-13.786-.751-32.387-.997-4.679-.096-10.255.586-11.306-3.765 6.602 1.179 12.762-.8 19.944.269 5.747.832 11.077 2.197 15.083 2.283 4.012.168 6.428-.611 6.368-.875-.097-.64-1.505.578-12.857-1.981-2.503-.555-5.28-1.217-8.301-1.624-7.107-1.166-14.149 1.005-20.522-.384-.412-7.773-1.79-17.088 5.912-18.24a10.066 10.066 0 0 0 2.503 5.954c2.419 2.326 7.547 2.176 9.859.339-.742 3.387-.741 8.658-.29 8.669.64.035.332-6.667 3.42-12.147 7.742-14.108 31.059-5.791 29.707 12.009h-.003z"/><path fill="#fff" d="M233.545 60.184c2.676.937 4.33.899 4.57 1.382.189.38-.299.725-.691.885-5.938 2.426-9.794 8.64-10.56 15.003-.173 1.44-.951 1.403-1.21 1.143a39.298 39.298 0 0 0-1.824-4.845 32.74 32.74 0 0 0-3.864-4.587c-3.24-3.586-4.64-2.56-6.931-3.72-.37-.188-1.037-.176-.96-.583.21-1.139 3.248-2.048 4.302-2.688 2.288-1.385 4.704-5.947 5.52-8.48.412-1.636.974-3.23 1.679-4.763.72-.149.8 2.315.854 2.475a15.836 15.836 0 0 0 9.115 8.778zM88.709 36.208c-3.7 7.488-10.72 8.96-10.77 9.93-.033.671 3.639 1.947 6.103 3.28 10.681 5.779 9.188 14.846 11.42 14.863-.192-6.001 5.44-14.24 7.079-15.958a26.837 26.837 0 0 1 7.459-4.82c.192-.098-.2-.436-.267-.64-.288-.868-4.786-1.562-5.723-1.83C94.09 38.208 93 23.737 91.878 24.525c-.574.403 1.792 1.636-3.17 11.683zM268.19 76.211a8.549 8.549 0 0 0 1.328 3.485c2.007 3.04 3.872 2.171 6.12 3.9a14.491 14.491 0 0 0-6.109 8.143c-.054.245-.032.771-.281.8-.282.03-.263-.253-.364-.517-2.249-5.804-7.2-6.163-7.072-6.936.048-.3 1.569-1.072 2.661-2.06 3.383-3.064 2.392-7.088 3.717-6.816v.001zM68.654 117c.997.213 1.05.675.898.92-.133.213-.512.32-1.28.736-3.898 2.133-3.764 5.728-4.58 7.422-.816 1.695-1.502-4.94-7.103-6.128-1.906-.401 1.28-2.102 1.45-2.224 3.322-2.432 3.164-7.336 3.917-6.88A9.397 9.397 0 0 0 68.654 117z"/><path fill="#0F0F0F" d="M233.704 59.437c-3.443-1.316-6.386-3.543-8.346-9.085-1.182-3.389-1.76-6.368-2.257-6.304-.495.02-.64 3.125-1.303 6.798-2.317 13.29-12.817 12.864-12.573 14.227-.019 1.31 10.479-.259 14.576 11.07 1.216 3.294 1.749 6.287 2.24 6.24 1.6 0-.8-13.575 12.14-19.345 3.144-1.41 2.139-1.192-4.477-3.601zm-.384 4.528a21.868 21.868 0 0 0-7.555 12.852 16.275 16.275 0 0 0-12.439-12.08c4.109-1.236 8.648-5.619 10.107-13.6.212-1.185.044-1.147.359-.236 2.117 5.977 5.424 8.596 9.313 10.08 6.18 2.246 4.62-.341.215 2.984zm-123.02-22c-3.88-1.477-8.835-2.452-12.016-6.29-5.193-6.24-5.558-15.02-6.73-14.864-1.878.072.711 15.566-9.802 22.35-3.746 2.573-7.639 3.2-7.52 3.889-.012.678 3.75.784 7.785 2.48C94.4 54.32 93.265 68.81 95.22 68.647c1.361 0 .513-13.827 10.344-21.328 5.409-4.064 9.797-3.46 4.737-5.355zM94.88 61.709a23.737 23.737 0 0 0-4.922-9.06c-6.125-6.92-12.36-5.464-10.24-6.13 7.664-3.398 11.376-10.092 12.427-17.985 2.647 8.627 8.261 13.428 17.018 14.75-7.448 2.009-12.843 10.812-14.283 18.425zM273.449 82.1c-6.747-2.578-4.881-14.138-6.604-4.588-1.28 7.374-6.896 6.733-6.72 7.747 0 .829 5.632 0 7.82 6.048.64 1.744.96 3.285 1.28 3.349.853.232.181-5.835 4.591-9.199 2.832-2.183 5.097-1.364-.367-3.356zm-.307 2.474a11.849 11.849 0 0 0-4.059 6.658 9.207 9.207 0 0 0-5.202-5.827c-1.633-.668-1.491.041.06-1a9.829 9.829 0 0 0 4-6.765 8.265 8.265 0 0 0 5.104 5.496c2.841 1.024 2.163-.12.097 1.438zM67.445 116.189c-6.748-2.581-4.882-14.141-6.605-4.589-1.28 7.373-6.896 6.731-6.72 7.744 0 .83 5.632 0 7.82 6.051.64 1.743.969 3.283 1.28 3.347.853.232.181-5.835 4.591-9.2 2.832-2.18 5.098-1.361-.366-3.353zm-.308 2.473a11.841 11.841 0 0 0-4.059 6.656 9.233 9.233 0 0 0-5.201-5.827c-1.639-.672-1.49.04.06-1a9.832 9.832 0 0 0 4-6.765 8.268 8.268 0 0 0 5.104 5.496c2.828 1.018 2.164-.12.096 1.44z"/><path fill="#fff" d="M43.82 238.56s-7.04 6.027.352 13.424c0 0-12.505 15.438 5.216 26.08 0 0 5.2 2.683 10.445-2.56s44.747-34.416 44.747-41.245c0-6.829-5.05-22.275-20.82-18.363 0 0 4.752-8.295-5.216-11.133 0 0-1.106-13.352-13.59-10.299-.16.04-3.607-10.651-10.762-6.551a4.82 4.82 0 0 0-1.036.727 4.38 4.38 0 0 1-.64.691c-1.67 1.067-3.619-3.237-10.288-.179-5.53 2.536-2.256 6.269-4.32 7.699-6.61 4.594-1.37 13.904-.273 14.432a1.654 1.654 0 0 1 .667 2.24 6.038 6.038 0 0 0-1.589 1.941 16.11 16.11 0 0 0 7.107 23.096z"/><path fill="#0F0F0F" d="M99.04 218.002c-6.291-5.815-12.995-3.474-13.306-3.751.2-.693.324-1.405.37-2.125.267-4.217-2.437-6.88-6.49-8.241a13.983 13.983 0 0 0-4.897-8.96 10.74 10.74 0 0 0-7.602-1.92c-1.76.32-1.44.39-1.685-.125-3.163-6.616-8.054-9.254-13.509-4.402-5.14-3.84-15.214.287-14.022 7.074-6.136 3.155-6.08 13.197-.16 16.789-7.637 9.008-4.885 20.64 4.06 26.448.252.16.231-.019-.082.389a9.837 9.837 0 0 0-2.093 5.579 11.304 11.304 0 0 0 2.977 7.31 23.84 23.84 0 0 0-3.04 6.143 15.992 15.992 0 0 0 3.328 16.294 27.425 27.425 0 0 0 3.36 3.01c1.584 1.094 4.245 3.63 9.31 2.174a14.874 14.874 0 0 0 6.08-4c7.24-6.576 43.217-33.398 44.204-40.752.536-4.014-1.875-12.432-6.803-16.934zm3.913 17.12c-4.32 8.531-35.056 31.393-44.782 40.059-2.88 2.56-6.651 2.72-8.2 1.657-4.222-2.892-7.52-5.62-8.526-10.705-1.007-5.085 1.21-10.047 4.33-14.195-3.81-4.271-5.88-8.026-.914-12.741 4.69.753 7.9-1.514 7.638-2.007-.41-.766-9.642 3.114-14.974-5.76a14.554 14.554 0 0 1-1.128-13.187c6.472-11.478 12.918-8.896 13.001-10.193.077-.568-5.184-1.855-10.256 2.824a9.586 9.586 0 0 1-.629-13.448c.927 1.939 3.013 4.731 2.24 1.99-.502-1.866-1.721-4.032-.673-6.266 1.257-3.124 7.654-5.481 11.36-3.025 1.853 1.182 2.465 2.675 2.798 2.52.184-.023.208-1.341-1.048-2.909 5.152-4.168 8.8-.282 11.09 5.92a19.502 19.502 0 0 1 5.182-.47c3.264.23 6.639 2.745 7.735 8.497.545 2.864-.67 1.267 3.793 3.395 4.335 3.04 2.669 6.352.463 10.501 4.37-.629 10.312-2.766 15.822 2.367 4.365 4.019 6.573 11.96 5.672 15.172l.006.004z"/><path fill="#0F0F0F" d="M63.864 212.499c-2.475-6.197.083-10.851-.578-11.17-.705-.406-4.445 6.341-.865 13.348a15.22 15.22 0 0 0-1.892 6.46c-6.72.231-10.748 6.05-9.92 6.53.55.378 3.68-4.136 9.932-4.32.438 5.843 4.128 9.725 4.577 9.304.269-.214-.68-1.6-1.512-4.045-4.912-14.065 8.181-20.16 7.875-20.881-.147-.45-4.382.652-7.617 4.774zm-2.093 35.623c-1.82-.351-3.163.174-2.589-.061-1.629-4.037 1.799-6.93 1.488-7.424-.469-.976-5.502 2.79-3.619 8.049-5.651 2.362-5.91 9.292-4.765 9.236.32-.016.509-.96 1.08-2.277 3.165-7.488 10.536-5.535 10.82-6.25.102-.259-.725-.965-2.415-1.273z"/><path fill="#FFC5F6" d="M68.822 170.944c-.133-2.24-6.85-12.848-17.982-18.909-2.29-3.157-1.44-3.072-8.356-10.209-5.318-5.49-16.875-17.463-23.568-7.6-2.332 3.438-3.224 8.275-3.49 12.988-.22.056-1.225.268 0 .04a72.894 72.894 0 0 0 1.64 20.047c-3.825 12.241-1.106 24.531.238 26.094 3.696 4.301 14.4 1.053 14.625 1.411 2.949 4.824 4.23 7.781 6.344 7.508a2.505 2.505 0 0 0 1.936-1.972 6.445 6.445 0 0 0-.16-2.907c-.973-4.328-1.83-1.609 3.813-3.725.664-.32 2.66 6.759 6.149 6.306a3.174 3.174 0 0 0 2.456-2.501c.446-1.838-.435-4.969-1.208-7.382a15.794 15.794 0 0 0 3.768-3.307 43.801 43.801 0 0 1 2.582 4.092c2.978 4.871 8.498 2.824 2.56-9.558 3.725-2.739 8.85-7.099 8.653-10.416z"/><path fill="#92FCFF" d="M27.174 161.051a12.812 12.812 0 0 1 5.626-4.342c5.566-1.781 11.307 3.811 9.709 10.805-1.705 7.454-13.505 7.136-15.27.051-.444-1.762-.87-4.869-.065-6.514z"/><path fill="#0F0F0F" d="M31.314 172.997a8.951 8.951 0 0 0 4.998.899 8.952 8.952 0 0 0 4.681-1.97c7.68-6.24.552-19.604-9.539-15.68-4.469 1.677-4.896 5.967-4.48 6.04.17.04.392-.66 1.035-1.696a6.69 6.69 0 0 1 3.96-2.819c10.51-3.067 13.98 12.755 3.84 14.059a7.976 7.976 0 0 1-8.563-7.019c-.208-1.222-.204-1.947-.372-1.969-.597-.096-1.825 6.976 4.44 10.155z"/><path fill="#0F0F0F" d="M22.814 164.488c-.16-1.787-.027-2.795-.14-2.81a6.577 6.577 0 0 0-.397 2.836c.024 13.704 18.017 18.72 24.64 7.443 6.473-10.775-4.767-25.261-17.416-19.463a6.122 6.122 0 0 0-2.4 1.573c.067.103.904-.48 2.595-1.075a12.891 12.891 0 0 1 15.97 5.579 11.944 11.944 0 0 1-11.2 18.271 13.216 13.216 0 0 1-11.652-12.354z"/><path fill="#0F0F0F" d="M69.707 168.888a41.657 41.657 0 0 0-17.6-17.306 71.354 71.354 0 0 0-18.373-19.79c-18.801-12.222-23.713 14.638-17.947 36.227a41.676 41.676 0 0 0-.547 24.527c1.134 3.628 5.387 4.459 9.069 4.422 9.364-.307 6.265-3.219 9.04 1.675 1.086 1.871 1.966 3.818 3.875 4.445a2.91 2.91 0 0 0 3.36-1.44 6.395 6.395 0 0 0-.125-5.366c-.3-.874-.38-.021 3.013-1.228A37.936 37.936 0 0 0 46 199.013c2.776 3.464 6.4 2.339 7.422-.882.64-2.08-.041-4.513-.833-7.097-.213-.701.145-.037 2.69-2.698 1.77 3.282 2.606 4.96 4.273 5.678a2.94 2.94 0 0 0 3.81-1.664c.881-1.899.1-4.48-.697-6.8-1.825-5.315-2.635-1.828 3.346-7.305 2.82-2.699 5.432-5.867 3.696-9.357zm-50.232-32.16c3.824-7.776 10.293-4.395 16.811 1.413-2.016 1.208 1.085-.64-6.622 4.014-7.691 4.589-.536 2.327 8.13-2.624 14.534 13.789 19.889 29.405 19.695 36.746-8.69 4.267-9.22 5.547-10.118 4.859a5.21 5.21 0 0 0-8.389 3.917c-2.353.587-7.96 2.198-10.054 2.838-6.442-7.097-12.663-22.357-11.829-39.96 7.067-1.429 12.832-4.472 5.52-2.953-1.44.331-3.286.614-5.386.96a26.21 26.21 0 0 1 2.242-9.21zm-1.42 54.938a44.768 44.768 0 0 1-.994-19.482c2.54 7.36 7.656 17.31 14.585 21.395-3.737.791-12.5 1.715-13.592-1.913zm21.06 4.96c.277 1.262.725 3.049.011 4.131-1.589 2.408-3.36-1.482-6.104-5.402 1.76-.629.616-.563 3.023.183 3.355.996 2.782-.357 3.07 1.081v.007zm-8.726-7.271c11.77-2.333 7.139-4.656 9.972.501.453.8.813 1.39 1.9 3.2-3.381.946-7.114.571-11.872-3.707v.006zm20.97 8.099c-.53 1.644-2.033 2.197-3.644.16-.418-.516-.48-.64-3.77-5.947-1.692-2.821-5.224-7.085-1.204-9.563a3.247 3.247 0 0 1 3.74.149c2.31 1.971 5.704 12.627 4.879 15.201zm.35-8.969c-3.599-9.469-5.07-2.941 5.64-10.197a15.803 15.803 0 0 1-5.637 10.192l-.003.005zm10.07 3.097c-1.464 2.964-3.84-1.667-5.63-4.243a17.061 17.061 0 0 0 1.6-2.317c.972-1.684.083-.814 2.334-2.265.634 1.694 2.522 7.173 1.7 8.825h-.004zm5.57-20.48c-.559 3.349-5.058 7.093-7.703 9.237 1.92-7.577-1.74-17.768-5.28-24.702 8.207 6.294 13.061 14.544 12.994 15.464l-.011.001z"/><path fill="#FDFE1F" d="M43.652 66.645a4.211 4.211 0 0 0 4.852.697C60.716 63.2 67.572 50.768 66.766 46.805c-.427-2.108-5.069-7.087-8.543-7.399-4.69-.422-10.913 5.488-14.163 8.834-9.752 10.05-6.595 13.917-.408 18.405zm234.884 171.403a4.24 4.24 0 0 0 4.834.917c12.433-3.603 19.867-15.77 19.235-19.783-.336-2.132-4.767-7.332-8.237-7.801-4.685-.64-11.192 5.016-14.6 8.227-10.231 9.642-7.238 13.661-1.232 18.44zM180.83 26.102a4.995 4.995 0 0 0-.513 5.796c5.691 14.208 20.875 21.532 25.523 20.32 2.469-.64 8.072-6.468 8.217-10.605.196-5.586-7.209-12.581-11.387-16.216-12.539-10.909-16.92-6.919-21.84.705zm76.263 2.29a3.153 3.153 0 0 1 .8 3.573c-2.383 9.328-11.252 15.142-14.25 14.77-1.6-.2-5.565-3.372-5.997-5.94-.581-3.467 3.464-8.44 5.77-11.05 6.921-7.825 9.982-5.705 13.677-1.353zM42.035 103.097a3.145 3.145 0 0 1-3.315 1.543c-9.622-.346-17.189-7.776-17.46-10.786-.147-1.6 2.108-6.153 4.527-7.12 3.266-1.305 8.983 1.589 12.023 3.288 9.123 5.098 7.692 8.538 4.225 13.075zm257.39 72.784a3.14 3.14 0 0 1-3.64-.377c-8.089-5.221-10.788-15.477-9.483-18.202.695-1.44 4.96-4.208 7.535-3.8 3.473.549 6.904 5.962 8.64 8.978 5.238 9.054 2.248 11.28-3.052 13.401zM117.262 21.784a2.8 2.8 0 0 0 2.832 1.6c8.551.382 15.788-5.66 16.244-8.307.241-1.407-1.431-5.6-3.504-6.634-2.8-1.39-8.072.766-10.888 2.056-8.453 3.867-7.431 7.02-4.684 11.285z"/><path fill="#0F0F0F" d="M64.525 41.44c-4.409-4.256-8.303-5.075-15.644.555-5.001 3.867-13.65 12.405-11.913 18.621.745 2.965 3.68 4.96 6.163 6.749a4.913 4.913 0 0 0 4.53 1.26C58.4 66.137 68.192 54.28 68.207 47.54c.044-2.536-1.93-4.339-3.683-6.099zM39.756 56.032c2.925-6.622 18.501-19.805 20.337-13.958.934 2.787-4.821 9.777-7.093 12.057-7.71 7.747-17.068 10.695-13.243 1.891v.01zm25.135-6.016c-4.61 12.043-16.976 17.38-19.232 16.726-1.424-.398-5.568-4.147-5.02-4.064 7.053 1.136 21.748-13.876 20.898-20.21 4.303 3.562 4.44 4.8 3.354 7.538v.01zm235.701 163.683c-4.226-4.467-8.099-5.457-15.707-.142-5.229 3.68-14.24 11.84-12.78 18.144.616 3.011 3.472 5.139 5.876 7.04a4.94 4.94 0 0 0 4.48 1.465c10.88-2.017 21.232-13.467 21.545-20.225.165-2.541-1.731-4.436-3.414-6.282zm-25.493 13.518c3.182-6.42 19.435-19.078 21.026-13.086.814 2.837-5.271 9.6-7.653 11.778-8.072 7.427-17.592 9.955-13.373 1.308zm26.184-7.326c-.117 4.835-8.95 15.99-19.171 18.352a3.106 3.106 0 0 1-3.021-.893 25.397 25.397 0 0 1-3.574-3.465c7.588 1.82 22.56-13.621 22.035-19.304 1.219 1.099 3.803 3.659 3.728 5.31h.003zM210.203 30.88c-4.842-5.6-15.461-15.294-22.599-12.886-3.401 1.044-5.579 4.61-7.519 7.635a5.672 5.672 0 0 0-1.162 5.31 34.595 34.595 0 0 0 9.904 14.955c3.709 3.3 11.53 8.085 16.219 7.84 2.909-.11 4.888-2.523 6.822-4.676 4.636-5.378 5.432-9.898-1.665-18.178zm-16.96-10.282c5.643 2.117 21.486 15.568 19.162 22.59-1.588 1.788-3.784 1.182-5.943.135a43.433 43.433 0 0 1-18.24-16.259c-1.243-2.067-2.054-4.509-.901-6.637a7.394 7.394 0 0 1 5.923.163l-.001.008zm11.624 30.4c-5.518.394-19.963-8.441-24.027-20.61a3.758 3.758 0 0 1 .737-3.8 24.831 24.831 0 0 1 4-4.96c-1.837 8.626 18.647 26.054 25.583 23.858-.891 1.28-4.052 5.394-6.292 5.51l-.001.002zm52.77-23.067c-1.488-1.76-3.135-3.84-5.405-4.23-5.982-1.195-16.453 11.664-15.699 17.136.445 3.238 5.254 7.235 7.741 7 4.6-.363 13.254-7.853 14.576-16.567a3.744 3.744 0 0 0-1.213-3.339zm-18.72 10.736c1.297-4.2 8.952-14.467 13.491-13.133 3.693 5.436-16.79 23.99-13.488 13.133h-.003zm18.353-7.627c-1.528 7.632-9.712 14.432-13.14 14.62-1.058.076-2.116-.95-3.2-1.889-1.135-1.011-.501.146 2.24-1.499 5.627-3.326 11.907-11.42 10.992-15.784a22.64 22.64 0 0 1 2.4 2.368 2.282 2.282 0 0 1 .708 2.184zM43.953 93.496c-2.504-3.136-10.475-7.68-15.657-8.168-3.95-.3-6.11 2.313-7.767 6.408a4.787 4.787 0 0 0 1.108 5.291 22.587 22.587 0 0 0 14.4 8.219c4.657.556 5.544.4 8.428-4.254a5.824 5.824 0 0 0-.512-7.496zm-15.82-5.976c4.37.373 16.028 5.664 15.702 10.4-4.566 4.787-26.89-11.304-15.703-10.4zm13.337 15.142c-1.01 1.28-1.469 1.464-5.157.852a21.441 21.441 0 0 1-12.976-7.821c-1.492-1.888-1.32-2.656.615-5.76 1.19 4.85 14.425 12.081 19.323 9.888a22.546 22.546 0 0 1-1.805 2.845v-.004zm264.515 65.952c-.545-3.982-5.07-11.963-9.28-15.03-3.273-2.302-6.491-1.093-9.95 1.533a4.778 4.778 0 0 0-1.76 5.12 22.599 22.599 0 0 0 8.16 14.43c3.758 2.891 4.586 3.163 9.421.658a5.818 5.818 0 0 0 3.409-6.711zm-10.536-13.227c3.608 2.589 10.848 13.079 8.173 16.96-6.384 1.776-17.325-23.475-8.173-16.96zm3.712 19.84c-1.52.584-2.004.511-4.865-1.905a21.425 21.425 0 0 1-7.147-13.36c-.3-2.264.1-2.9 3.476-4.64-1.478 4.836 6.253 17.76 11.54 18.384a22.772 22.772 0 0 1-3.004 1.515v.006zM136.414 11.136c-1.728-3.757-4.019-5.28-10.033-3.52-2.916.912-7.919 3.008-10.207 5.451a5.268 5.268 0 0 0-.995 6.72c2.218 4.283 2.91 4.586 7.251 4.432a20.144 20.144 0 0 0 13.429-6.27c2.342-2.522 1.8-3.962.555-6.815v.002zm-5.72-2.035c1.045 0 2.517.385 2.434 1.43-.235 2.925-12.711 8.882-16.239 7.115-3.952-1.966 7.725-8.526 13.805-8.544v-.001zm4.48 6.08c-1.566 4.36-14.712 10.054-17.32 6.225a21.828 21.828 0 0 1-1.297-2.436c4.249 2.035 15.908-3.104 17.651-7.3.448.885 1.328 2.57.973 3.504l-.007.007z"/><path fill="#fff" d="M131.882 214.08c4.721 10.661 4.678 22.734 4.555 34.4-.042 3.808-.605 6.317-6.37 8.466a41.1 41.1 0 0 1-13.381 2.432c-26.337 1.52-18.496.83-28.945-.364-4.627-.528-9.807-.171-13.352-3.2a5.788 5.788 0 0 1-2.12-5.12c-.11-3.982-.263-13.44.64-17.336 1.189-5.12 6.89-13.558 9.291-15.606 3.36-2.866 17.536-8.997 27.083-4.867 1.527.661 6.56 3.776 8.64.337 1.403-2.328-1.691-9.235 5.936-7.387 4 .973 6.362 4.498 8.023 8.245z"/><path fill="#FFC5F6" d="M104.517 209.735c-.016 1.752.785 2.156 2.709 2.691 4.427 1.233 5.702 2.846 6.641 2.902a7.425 7.425 0 0 0 4-2.528c1.09-1.627.8-1.771 1.499-26.816.106-3.821-.102-5.88-2.86-8.307-3.792-3.336-7.344-1.92-8.992 1.698a12.157 12.157 0 0 0-1.039 5.12 193.116 193.116 0 0 0-1.958 25.24z"/><path fill="#0F0F0F" d="M137.92 238.069c-.853-8.453-1.352-19.81-6.096-27.581-3.298-5.035-6.104-6.118-11.36-6.478.714-12.488 2.736-26.33-4.784-28.244-1.099-.288-1.722-.108-1.76.1-.042.238.48.505 1.206 1.068 5.12 3.944 2.164 10.223 1.656 35.492a17.271 17.271 0 0 0-2.76 1.803 26.988 26.988 0 0 0-7.555-3.029c-.009-9.965 1.216-17.858 1.565-26.88.374-9.04 5.246-7.52 5.36-8.528.085-.77-7.2-2.467-8.411 8.264-.664 6.08-1.803 18.92-1.839 26.541-17.008-2.147-31.36 8.907-32.704 32.846-1.014 18.157 6.696 17.291 26.682 17.563 47.531.648 42.424-6.766 40.8-22.937zm-47.68 19.494c-6.514-.144-14.864.123-16.192-6.15-.283-1.339.298 1.27 12.933 1.6 10.691.181 24.011.301 34.211-1.469 5.094-.84 8.131-1.899 8.058-2.24-.175-.842-42.608 3.965-55.559-1.226-2.171-41.678 40.339-44.384 50.568-18.86 1.997 5.132 1.786 8.348 2.112 8.32.8.02.842-13.517-10-21.725 4.295-3.391 8-3.098 8.047-3.89.046-.742-2.844-.8-4.29-.561.04-1.426.094-2.852.16-4.277 13.187.07 13.413 22.32 14.973 38.182.889 9.005 1.096 13.315-45.021 12.296z"/></svg>