<svg xmlns="http://www.w3.org/2000/svg" width="320" height="320" fill="none"><path fill="#92FCFF" d="M135.218 195.896c.075-2.022.067-9.12-1.363-10.704-.704-.778-1.106-.8-8.48-3.379-2.352-.821-3.509-.306-3.989 2.696-.887 5.531-3.733 22.622-1.058 28 1.952 3.928 14.266 12.672 15.666 16.621 1.264 3.563 5.19 70.896 2.275 76.907a7.625 7.625 0 0 1-5.422 4.118 366.52 366.52 0 0 0 62.619.927 11.835 11.835 0 0 1-6.168-2.168c-3.379-2.936-2.491-3.372-9.351-72.391-.339-3.417 1.408-3.76 12.178-12.769 5.262-4.402 5.661-6.768 3.285-12.176-3.936-8.96-14.08-28.32-16.743-30.122-1.945-1.322-6.276-.918-7.449 1.642-.832 1.819-.259 2.904 3.401 17.952 1.612 6.627 1.096 8.16-1.208 12.587a140.241 140.241 0 0 0-12.75 35.605c1.035-5.178-8.819-18.328-11.069-23.186a31.478 31.478 0 0 0-3.104-5.643c-1.625-2.189-11.768-11.191-11.27-24.517z"/><path fill="#FFC5F6" d="M229.572 243.14c5.67 10.816 8.337 15.26 9.225 20.471 1.76 10.355-5.392 16.981-15.222 15.134a34.675 34.675 0 0 1-11.856-5.377c5.44 34.184 6.312 33.099 2.581 34.924-9.184 4.492-23.383 1.837-25.499.143a7.173 7.173 0 0 1-1.994-4.784c-2.499-17.251-4.266-34.387-5.562-51.77-1.523-20.419-2.88-16.417 9.295-25.523a15.732 15.732 0 0 0 4.909-4.971c3.566-6.871-3.415-14.52-5.562-20.16-.618-1.621-1.022-3.319-1.65-4.936-2.204-5.696-7.04-10.127-8.96-15.92l3.821-1.802c6.04-2.846 14.095 1.539 18.861 7.703 6.522 8.436 15.218 33.219 27.613 56.868zM88.887 214.853c9.474-23.648 32.016-35.459 31.909-29.813-.271 14.163-7.22 26.64 9.984 37.056 3.632 2.198 4.435 2.936 4.902 6.894a550.619 550.619 0 0 1 3.766 71.84c-.036 2.764-.299 5.944-2.544 7.559-2.113 1.52-2.531 1.112-35.569 1.68-12.832.219-19.84-2.504-21.952-16.946-1.49-10.158-.907-51.04 7.42-73.269a24.434 24.434 0 0 0 2.31-9.174l-.226 4.173z"/><path fill="#fff" d="M134.346 186.113c2.381 5.92-.361 12.896 1.789 18.894 2.309 6.438 13.704 14.8 23.178 39.63.388 1.021.908 2.183 1.968 2.453 7.916-30.63 13.531-35.325 14.4-38.744.902-3.544-2.384-18.387-3.397-22.24-1.095-4.173-7.343-.48-10.978.819-8.077 2.908-16.95.5-25.44-.819-1.08-.168-.96.111-1.774 2.8l.254-2.793z"/><path fill="#fff" d="M89.143 130.56a17.299 17.299 0 0 0-16.029 14.952 17.302 17.302 0 0 0 26.653 16.771c3.706-2.436 3.882 8.8 28 20.24 12.469 5.911 26.839 8.868 38.773 1.837 6.253-3.68 16.411-5.008 17.832-6.52 1.699-1.806-2.262-4.672-1.149-6.888a41.725 41.725 0 0 0 6.544-2.569c1.987-.981 1.773-1.82 1.066-3.512-2.779-6.656 3.918-19.744-1.069-41.336-1.83-7.922-8.826-27.228-13.859-34.136-12.573-17.255-26.4 8.64-47.328 17.737-11.479 4.992-26.763 5.479-26.616 24.595.013 1.714-.4 2.444-2.183 2.343-4.052-.229-7.859-.552-10.635-3.514z"/><path fill="#0F0F0F" d="M91.106 148.899c-3.051-4.2-8.32-2.746-8.238-3.72.13-1.467 6.87-3.328 10.71 1.93 4.211 5.76-.917 11.592-1.744 10.704-.645-.581 2.237-4.832-.728-8.912v-.002z"/><path fill="#0F0F0F" d="M193.601 165.92c-1.899-4.84-1.76-5.786-2.658-6.538 5.095-19.877-.904-43.368-9.774-62.09 3.36-3.95-.067-21.294-9.056-31.652-39.824-46.051-117.33 11.051-88.21 64.512-12.56 3.131-16.454 20.52-7.867 30.317a18.026 18.026 0 0 0 24.686 2.347c14.175 19.504 33.039 27.689 51.612 26.681 3.19 3.719 7.881-.054 33.721-9.539 3.018-1.109 1.09-3.809-.051-6.838 6.859-2.547 9.258-2.975 7.597-7.2zm-7.211 2.173c-1.298.512-2.607.988-3.924 1.448a2.322 2.322 0 0 0-1.6 2.816c.479 1.38.996 2.745 1.552 4.096-9.491 3.643-11.982 5.12-23.417 8.8-.823.264-2.618 1.339-3.403 1.137-.16-.04.662.997-3.567-7.616-1.233-2.51-5.28-.105-8.64 1.091-1.542.551-.707 1.613-4.125-6.102-1.193-2.688-5.14-.36-3.955 2.312 4.871 10.974 2.861 10.501 13.559 6.611.79 1.575 1.44 2.872 2.08 4.344-21.042-1.197-35.213-10.918-48.522-25.904 3.069-3.625 2.96-7.406 2.485-7.438-.597-.079-1.069 4.233-5.995 7.36a15.674 15.674 0 0 1-23.214-8.264 15.67 15.67 0 0 1-.21-9.306 15.04 15.04 0 0 1 3.777-6.678 12.752 12.752 0 0 1 6.607-3.451c3.244 4.624 9.697 10.937 15.435 10.208 4.533-.458 8.833-6.784 6.195-15.504-5.187-18.4 1.094 1.537 60.336-40.256 3.99 3.153 6.4 11.344 11.174 10.704 7.2 19.441 12.92 40.049 9.544 60.496-2.5.836-1.209 3.081-.052 6.326.899 2.517 1.411 1.376-2.109 2.768l-.011.002z"/><path fill="#0F0F0F" d="M189.911 152.619c-1.006-1.936-1.874-3.936-2.802-5.92a2.289 2.289 0 0 0-2.585-1.053c-.877.309-5.888 2.091-6.378 2.4-2.665-6.131-.549-5.451-18.144.872-10.438 3.751-11.133 3.162-13.422 4.786-2.045 1.453-.743 2.976 0 5.379-.728.261-1.6.704-1.968.824-1.227.408-2.458.811-3.68 1.221a2.321 2.321 0 0 0-1.6 2.817l1.856 5.048c1.009 2.743 5.44 1.557 4.416-1.217l-1.106-3.01c6.015-1.984 8.749-2.139 6.256-8.062 1.44-.544 3.04-.847 4.435-1.296 5.984-1.936 12.055-4.346 18.274-6.52 2.448 6.133 4.83 3.899 10.477 1.821.649 1.416 1.299 2.832 2.017 4.216 1.359 2.624 5.312.308 3.954-2.304v-.002z"/><path fill="#0F0F0F" d="M151.189 168.921c9.12 5.24 19.936-1.397 29.499-7.04a1.906 1.906 0 0 0 .855-1.881 1.905 1.905 0 0 0-1.364-1.552 1.906 1.906 0 0 0-1.411.139c-7.763 4.587-18.257 11.294-25.646 7.04a1.908 1.908 0 0 0-2.572.705 1.914 1.914 0 0 0 .639 2.589z"/><path fill="#fff" d="M92.02 117.338c-7.18-2.133-11.937-5.967-11.52-6.637.471-.757 5.699 1.699 12.385 3.712 6.688 2.009 12.416 2.512 12.432 3.387.019.992-6.506 1.56-13.296-.462h-.002zm11.219-19.814c-10.927-6.043-15.285-13.3-14.696-13.76.358-.282 1.989 1.245 4.734 3.462 13.468 10.88 29.544 15.067 29.12 16.498-.28.916-10.313-1.309-19.158-6.2zM118.18 85.28c-9.456-6.71-15.746-13.75-15.181-14.325.614-.629 7.706 5.28 16.947 11.84 9.242 6.56 17.159 11.285 16.77 12.085-.359.715-9.08-2.896-18.536-9.6zm18.075-13.037c-6.298-8.048-12.451-13.726-11.891-14.42.462-.64 7.736 4.161 14.296 12.539 6.56 8.377 9.473 16.593 8.732 16.89-.806.375-4.832-6.962-11.137-15.009zm18.23-4.446c-4.881-7.653-10.254-12.859-9.675-13.542.259-.306 1.981.613 4.354 2.643 11.339 9.704 14.781 25.035 13.52 25.382-.864.239-3.323-6.83-8.199-14.483z"/><path fill="#0F0F0F" d="m172.725 184.849-2.217.57c6.037 27.134 5.947 17.008-3.549 38.091-12.597 28.05 1.989 28.722-16.37.213-14.224-22.08-12.569-14.026-13.406-23.806l-1.002-15.445-3.078.171c1.166 25.624-.278 20.112 7.803 31.293 15.944 22.171 20.898 33.875 22.623 68.403.48 10.24.718 25.888 1.385 25.888.426 0 1.223-12.566 1.131-25.96-.278-28.341-6.832-34.838 4.16-59.296 9.501-21.098 10.229-13.568 2.52-40.122z"/><path fill="#0F0F0F" d="M148.242 238.006c-6.122-13.355-18.675-15.2-25.194-24.8-3.284-4.926-2.1-11.016-.497-29.35a77.617 77.617 0 0 1 3.55-.978l-.469-2.24c-39.477 8.983-47.773 50.965-47.595 91.613.085 10.56-2.485 28.931 6.462 36.435 4.29 3.556 10.805 3.607 16.268 3.439 36.147-1.272 39.419 2.486 39.877-11.231a442.61 442.61 0 0 0-3.84-71.694c5.5 4.107 6.899 6.363 8.772 10.08a97.203 97.203 0 0 1 8.308 21.178c.702 3.102.934 4.878 1.204 4.867.423-.007 1.78-8.205-6.846-27.319zm-11.987 68.714c-1.92 2.413-11.885 1.12-15.282 1.222l-9.569.306c1.108-16.813-1.573-77.005-3.2-76.854-.432.044-1.52 19.099-.252 52.508.34 8.874.519 17.172.29 24.447-17.43.552-24.842 1.838-26.639-15.602-.702-7.115 0-14.685-.057-20.515-.26-34.158 5.368-75.251 37.76-87.283-3.032 27.283-4.869 28.597 14.856 42.358 3.714 29.269 4.592 76.256 2.093 79.413zm95.761-62.269c-3.36-8.144-5.339-12.217-9.774-21.209-12.186-24.602-14.09-35.059-24-42.314a22.849 22.849 0 0 0-13.189-4.545l-.08 2.288c16.63.987 21.641 17.856 26.99 30.168 7.97 18.273 5.776 10.4 18.663 41.406 2.491 5.784 6.686 12.366 6.265 17.726-.613 6.56-6.147 10.159-12.665 8.725a43.38 43.38 0 0 1-7.101-2.47c-3.375-1.493-2.976-1.394-4.73-3.4-1.829-10.506-9.12-47.775-10.88-47.432-2.737.531 12.925 71.403 12.832 80.822.032 1.843-.185 2.72-2.782 3.408-4.042 1.09-12.848 1.04-16.992.899-4.144-.14-5.6-1.043-6.56-6.065-.032-.16-4.93-40.48-6.807-66.44 7.778-9.375 15.288-9.811 17.242-16.986 1.581-5.691-1.262-9.792-18.4-40.254l-2.71 1.472c15.68 29.993 17.337 31.305 17.848 35.23.84 6.109-6.053 8.48-10.668 12.616-17.856 15.389-14.763 37.739-13.664 37.619.94-.108-1.428-13.024 8.186-26.846a726.353 726.353 0 0 0 3.149 38.915c3.609 31.821-.04 33.939 18.117 34.194 22.753.029 17.561-5.12 15.576-22.519-1.045-9.14-2.047-12.928-1.887-12.768 6.952 3.471 14.607 5.738 20.834 1.484a13.36 13.36 0 0 0 3.9-4.349 13.365 13.365 0 0 0 1.676-5.595c.43-7.028-4.055-12.792-8.389-23.78zM183.812 99.144a17.443 17.443 0 0 0-17.007 13.573c-5.421.32-13.105 4.48-16.374 7.04a17.46 17.46 0 0 0-27.269 16.835 45.3 45.3 0 0 1-17.107-.016l-1.17 3.056a22.77 22.77 0 0 0 19.482 1.232c8.017 18.768 36.694 10.656 33.233-9.783 6.583-4.24 4-3.382 11.413-5.28 9.28 14.856 32.237 8.226 32.237-9.222a17.44 17.44 0 0 0-10.765-16.11 17.427 17.427 0 0 0-6.673-1.327v.002zm-27.554 27.6c-2.382-5.189-3.438-3.226-1.949-5.296 3.007-4.245 6.546-5.664 12.08-4.195.058 1.576.33 3.137.81 4.64-4.509 3.835-4.76 3.948-10.941 4.849v.002z"/><path fill="#fff" d="m135.717 132.717-5.898 1.411 1.41 5.898 5.898-1.41-1.41-5.899zm4.488-7.309-5.897 1.411 1.408 5.898 5.899-1.41-1.41-5.899zm39.219-11.158-5.897 1.411 1.409 5.898 5.898-1.41-1.41-5.899z"/><path fill="#fff" d="m183.912 106.944-5.897 1.412 1.409 5.897 5.898-1.411-1.41-5.898zm78.786 39.008c4.112 1.712 3.823 6.797 3.173 10.956-6.824 43.713-7.393 50.067-14.021 49.707-5.529-.301-30.152-2.128-34.784-7.235-5.334-5.884-1.816-20.927-1.086-28.242 1.997-20 1.851-25.144 6.022-28.576 5.94-4.886 19.375-1.418 23.983-.92a53.065 53.065 0 0 1 16.713 4.31z"/><path fill="#0F0F0F" d="M265.336 146.635c-3.301-2.952-9.792-4.251-14.177-4.868-14.168-1.994-20-4.152-26.61-1.613-6.902 2.685-6.803 8.811-7.79 16.672-4.199 35.387-7.055 43.19 5.238 46.419 5.861 1.379 28.947 6.925 33.995 3.616 2.667-1.626 3.429-4.446 5.907-17.19 2.172-11.38 5.429-35.136 5.463-37.292a7.375 7.375 0 0 0-2.026-5.744zm-46.36 10.469c.96-7.232.437-12.715 6.319-15.056 1.59-.64.553-.384-.32 1.178-3.335 6.025-6.72 43.585-6.698 47.79a18.772 18.772 0 0 0 1.869 9.163c-7.698-2.564-4.05-17.188-1.17-43.075zm46.429-4.75c0 .24-6.357 49.861-10.677 52.437-1.502.96-8.451.422-10.113.278a144.593 144.593 0 0 1-21.04-3.99c-4.535-2.637-3.488-12.103-2.896-17.623 4.726-41.928 3.488-42.821 16.48-42.019 19.825 2.944 28.478 3.587 28.246 10.917z"/><path fill="#0F0F0F" d="M262.258 153.053c-.182-3.957-5.157-5.07-9.186-5.715-6.744-1.11-7.712 2.76-7.931 9.522-.059 1.83-1.093 5.384 3.8 7.209a35.645 35.645 0 0 0 8.013 1.579 3.895 3.895 0 0 0 3.731-2.46 55.385 55.385 0 0 0 1.573-10.135zm-1.963 2.944c-1.378 7.408-.64 8.599-6.939 7.144-6.893-1.653-6.41-2.205-6.266-6.192.16-5.635.238-8.835 5.76-8.046 2.188.08 4.334.63 6.291 1.613 2.051 1.344 1.639 2.875 1.154 5.484v-.003z"/><path fill="#0F0F0F" d="M251.234 153.44a2.062 2.062 0 0 0-2.013 1.097 2.055 2.055 0 0 0-.142 1.573 2.073 2.073 0 0 0 1.012 1.213 2.063 2.063 0 1 0 1.143-3.883zm5.369-1.6a2.067 2.067 0 0 0-2.2 1.874 2.066 2.066 0 0 0 1.829 2.238 2.068 2.068 0 0 0 2.17-1.876 2.065 2.065 0 0 0-1.799-2.234v-.002zm-1.345 5.211a2.066 2.066 0 0 0-.369 4.112 2.06 2.06 0 0 0 2.196-1.876 2.075 2.075 0 0 0-.459-1.489 2.075 2.075 0 0 0-1.368-.747zm-18.055 19.052c.608.521 3.471 2.678 4.363 2.603a19.787 19.787 0 0 0 4.837-1.448c1.296-.763.819-3.586-.552-3.238-.976.16-1.139.174-1.457-.029a2.008 2.008 0 0 1-.565-2.4c.39-.711 1.2-1.28 1.083-2.047a11.589 11.589 0 0 0-1.45-2.912c-.211-.196-6.459 6.472-6.88 8.272-.169.552.344.96.621 1.199zm2.872.891a21.375 21.375 0 0 1-2.259-1.616c-.4-.339-1.098-.35 3.949-.51-.551 3.532.041 3.212-1.69 2.126zm5.805-.528a17.25 17.25 0 0 1-4.298 1.246c.152-.56.37-1.564.615-2.82.283.051 2.769 1.032 3.04 1.134.862.322.933.248.643.44zm-1.842-7.334c.132.452.266.48-.017.856-.453.58-1.653 1.496-1.242 3.07.488 1.688 1.479 2.184 2.595 2 .816-.133.7-.229.8.266.068.262.068.537 0 .8a28.242 28.242 0 0 0-3.876-1.692c1.745-9.206.742-8.74 1.74-5.3zm-.8-1.954c-2.534 9.235.828 6.578-5.625 7.595.563-1.318 3.968-4.845 5.624-7.595h.001z"/><path fill="#0F0F0F" d="M247.112 178.111c-.856.075.16-.172-5.648 1.486-.761.085-2.931-1.494-3.52-1.986-2.113-1.776-1.609-2.705-1.867-1.062-.361 2.315 3.384 10.528 4.16 10.198 2.503-1.07 7.896-8.798 6.875-8.636zm-7.089 8.16c-.579-1.781-1.415-3.255-2.867-8.098 4.512 3.926 3.964.549 3.209 5.184a24.917 24.917 0 0 0-.342 2.92v-.006zm5.029-5.932c-2.044 2.848-4.058 5.053-4.76 5.965.715-2.641.737-5.657.9-5.704a7.109 7.109 0 0 0 1.365-.336c4.051-1.15 3.44-1.237 2.495.082v-.007z"/><path fill="#FFC5F6" d="M219.819 248.284c-.099 9.179.335 28.107 9.289 30.368a8.512 8.512 0 0 0 4.614-.506 8.514 8.514 0 0 0 3.661-2.854 25.028 25.028 0 0 0 3.889-8.532c3.627-11.66 6.914-20.446 6.101-28.985-.245-2.579-1.862-.522-16.237-2.672-2.806-.419-5.876-1.848-8.686-1.863-3.261-.016-2.482 1.48-2.631 15.044z"/><path fill="#fff" d="M249.904 193.713a12.461 12.461 0 0 0 2.88-3.504c5.171-7.2 19.696-8.402 14.88 1.504-7.598 15.643-10.937 24.252-18.502 28.8 18.344 21.406-22.424 18.051-30.911 10.025a7.61 7.61 0 0 1-1.767-8.423 7.6 7.6 0 0 1 5.206-4.465c-4.352-1.894-7.496-6.254-10.259-10.113a10.649 10.649 0 0 1-2.508-6.034c.024-2.218 1.858-4.539 4.058-4.267a15.988 15.988 0 0 1-3.573-4.885 5.43 5.43 0 0 1 .755-5.71c2.037-2.103 5.503-1.389 8.298-.524-2.642-1.238-3.022-5.291-1.074-7.464a7.4 7.4 0 0 1 8.1-1.44 20.72 20.72 0 0 1 5.081 3.304 205.02 205.02 0 0 0 19.336 13.196z"/><path fill="#0F0F0F" d="M270.598 188.091c-1.71-8.614-16.488-6.232-21.361 4.456-14.351-8.48-20.856-20.125-28.738-17.877a6.951 6.951 0 0 0-5.6 6.496c-.043 3.293 1.143.754-2.989 1.81-4.422 1.048-6.912 7.6-1.27 13.39a6.313 6.313 0 0 0-3.52 4.778c-.742 5.705 6.995 12.56 11.65 16-5.341 2.523-5.732 11.52-.012 15.665a255.526 255.526 0 0 0 .522 34.482c2.107 13.89 11.635 16.64 17.464 10.822 7.768-7.752 12.205-28.233 11.91-40.136 4.311-1.222 6.965-4.075 6.832-8.603a15.08 15.08 0 0 0-.971-4.406 10.868 10.868 0 0 0-3.481-4.307c8.827-5.535 11.782-16.92 17.105-25.941 1.427-2.32 2.696-3.907 2.459-6.629zm-43.878 87.451c-2.019-1.94-3.338-6.024-3.806-8.851-.8-4.851-1.562-25.384-1.616-32.438 4.428 2.006 18.214 5.022 24.8 4.219-.632 13.981-9.64 46.549-19.378 37.07zm40.301-86.56c-.066 1.419-1.669 2.791-4.384 8.509-3.597 7.469-6.739 16.663-13.037 21.069-7.464 5.514-13.339 4.029-13.419 4.891-.093.586 5.809 1.669 12.288-1.382 4.104 2.483 4.589 8.152 2.88 10.35-3.767 5.12-20.088 1.059-26.24-.654-5.557-1.578-7.069-3.959-7.229-7.52a6.225 6.225 0 0 1 .069-1.613 4.089 4.089 0 0 1 3.753-3.495c7.162 4.445 13.695 5.01 13.749 4.223.17-1.11-10.373-2.466-22.344-16.358-1.886-2.274-3.766-5.369-1.542-7.329.416-.363 1.566-1.052 1.993-.705 9.933 8.048 18.08 9.898 18.436 8.936.497-1.325-13.015-8.338-18.866-14.386a5.4 5.4 0 0 1-1.784-5.422c2.003-5.779 10.627 4.899 20.757 8.857 2.798 1.109 4.686 1.362 4.885.895.62-1.44-17.76-11.695-18.501-14.869-1.088-4.258 3.131-5.92 6.443-4.374 4.507 2.097 16.674 15.174 28.333 17.673 1.867.408 2.942.344 2.989.114.056-.32-1.584-.92-4.253-2.304 4.339-8.959 15.216-9.155 15.027-5.106h-.003z"/><path fill="#FDFE1F" d="M49.503 287.939c3.46 5.496 7.075 6.419 12.64 5.004 15.04-3.822 24.736-16.923 24.68-22.355-.037-3.52-4.053-8.862-6.24-10.637-3.954-3.2-9.75-3.249-14.502-1.44-4.752 1.81-8.704 5.215-12.55 8.546-8.56 7.422-10.409 10.75-4.028 20.882z"/><path fill="#0F0F0F" d="M87.896 269.12c-.352-5.206-6.004-10.468-9.966-12.129-9.12-3.93-31.115 8.683-33.232 20.773-.555 5.899 4.936 20.8 20.202 15.891 9.774-3.216 23.97-14.307 22.996-24.535zm-12.419-9.964c2.571 1.851.861 6.587-.685 9.328-3.875 6.931-21.372 18.353-26.18 11.992-5.277-7.068 16.244-23.88 26.865-21.314v-.006zM48.53 282.711c2.253 1.769 5.853 1.549 8.629.883 2.82 3.2 3.531 2.893 5.077 7.36-7.196 1.63-10.952-1.523-13.706-8.243zm15.765 7.63c-3.531-4.459-2.15-2.699-4.586-7.542a36.202 36.202 0 0 0 8.32-4.779c4.104 4.363 3.03 1.894 5.773 7.155a40.327 40.327 0 0 1-9.507 5.166zm11.331-6.552c-4.845-4.369-3.002-3.398-5.504-7.371a25.214 25.214 0 0 0 6.109-6.486 25.326 25.326 0 0 1 3.419 2.4c1.216 1.176 2.256 3.172 2.989 3.945a31.418 31.418 0 0 1-7.013 7.512zm8.266-9.907a30.991 30.991 0 0 1-3.426-2.4c-1.214-1.216-2.29-3.234-3.026-3.981a11.346 11.346 0 0 0 .975-6.963c4.945 3.374 7.813 7.782 5.477 13.344z"/><path fill="#fff" d="M263.178 128.208c4.378-5.415 2.707-8.266-.517-38.683a12.17 12.17 0 0 0-12.077-10.88c-.912 0 1.44-.221-31.056 3.222a12.16 12.16 0 0 0-10.803 13.366c3.36 31.759 2.549 33.44 7.141 37.539a12.122 12.122 0 0 0 9.379 3.032c30.688-3.243 33.699-2.364 37.933-7.595v-.001z"/><path fill="#0F0F0F" d="m266.721 119.2-3.155-29.768a13.082 13.082 0 0 0-14.373-11.618l-29.76 3.154a13.088 13.088 0 0 0-11.619 14.374c3.225 30.432 2.31 34.005 7.936 38.56 5.6 4.523 8.27 2.973 39.36-.32a13.086 13.086 0 0 0 11.611-14.382zm-42.424-36.192c27.507-2.915 25.493-2.72 26.288-2.72a10.537 10.537 0 0 1 10.458 9.414l2.667 25.159a10.8 10.8 0 0 1-9.576 9.512l-22.84 2.42a10.767 10.767 0 0 1-11.855-9.582c-2.515-23.736-3.804-26.154-.086-30.754 1.284-1.599 3-2.796 4.944-3.45zm30.544 48.032c-46.046 4.881-39.67 9.588-44.498-35.97a10.544 10.544 0 0 1 9-11.531c-6.63 5.778-4.334 11.2-1.929 33.88a12.81 12.81 0 0 0 12.718 11.466c.987 0-.64.14 24.216-2.495a12.762 12.762 0 0 0 9.882-6.568 10.541 10.541 0 0 1-9.389 11.218z"/><path fill="#0F0F0F" d="M242.006 120.8c-.32-.252-5.16-4.439-10.184-8.756-.263-.224-.397.116 2.7-4.024.205-.272.053-.22.738.372 6.538 5.648 5.877 5.264 6.158 4.886 4.746-6.362 4.816-6.462 4.988-6.678l3.784 3.246-8.184 10.954zm-7.925-18.226-3.783-3.243 8.16-10.931 10.341 8.897-2.987 3.984a2511.58 2511.58 0 0 1-6.411-5.523c-.267-.238-3.451 4.435-5.32 6.816z"/><path fill="#0F0F0F" d="m239.85 100.934 3.794 3.266-3.01 4.028-3.785-3.268 3.001-4.026zm-11.739 1.342 3.741 3.226-2.962 3.958-3.724-3.224 2.945-3.96zm20.501 1.404c3.287-4.397 2.943-4.06 3.103-3.922 3.84 3.298 3.75 3.08 3.553 3.341-3.04 4.035-2.803 3.92-3.03 3.723-1.698-1.469-3.437-2.944-3.626-3.142z"/><path fill="#fff" d="M232.991 58.365c-5.015-24.722-4.523-27.813-10.011-31.45a12.08 12.08 0 0 0-9.13-1.78c-24.722 5.014-27.813 4.523-31.45 10.01-3.552 5.359-2.08 7.653 3.04 32.866a12.165 12.165 0 0 0 11.884 9.741c1.736 0 .665.114 26.177-5.06a12.16 12.16 0 0 0 9.49-14.327z"/><path fill="#0F0F0F" d="M233.888 58.184c-4.64-22.894-4.238-27.949-10.4-32.032-6.006-3.982-9.411-1.997-33.552 2.9a13.058 13.058 0 0 0-10.211 15.404l4.815 23.736a13.088 13.088 0 0 0 12.8 10.474c1.873 0 .929.075 26.337-5.077a13.07 13.07 0 0 0 10.232-10.304 13.032 13.032 0 0 0-.021-5.1zM193.28 30.967c22.498-4.562 21.496-4.447 22.983-4.447a10.537 10.537 0 0 1 10.31 8.432l4.243 20.888a11.05 11.05 0 0 1-8.779 9.658l-17.64 3.577a11.027 11.027 0 0 1-13.006-8.62l-3.578-17.639a11.053 11.053 0 0 1 5.467-11.85zm36.565 35.628c-3.209 4.844-5.654 4.296-30.414 9.314a10.535 10.535 0 0 1-12.407-8.222l-4.808-23.735a10.522 10.522 0 0 1 7.583-12.256 12.56 12.56 0 0 0-3.482 11.423l3.578 17.638a12.56 12.56 0 0 0 12.283 10.069c1.715 0 .981.059 20.16-3.832a12.556 12.556 0 0 0 9.165-7.656 10.44 10.44 0 0 1-1.651 7.257h-.007z"/><path fill="#0F0F0F" d="m216.867 49.332-1.725-8.618 1.733-.347 1.725 8.617-1.733.348zm-19.675 6.6-3.713.744-1.727-8.617c2.996-.6 6.196-1.816 6.791 1.158a2.03 2.03 0 0 1-.739 2 2.416 2.416 0 0 1 1.568 3.022 2.416 2.416 0 0 1-2.18 1.693zm-1.712-7.059-1.694.34.397 1.987 1.696-.34a1.025 1.025 0 0 0 .627-1.784 1.022 1.022 0 0 0-1.026-.203zm-.993 3.84.424 2.119c1.709-.343 3.009-.371 2.752-1.66-.223-1.134-1.069-.883-3.176-.462v.003zm10.705 1.618-1.72.344c-.891-4.448.029-2.624-4.393-8.083l1.881-.378 2.354 3.143.937-3.8 1.882-.378c-1.973 6.744-1.832 4.701-.941 9.152zm7.578-1.515-3.714.742-1.726-8.619c2.995-.598 6.195-1.814 6.79 1.159a2.04 2.04 0 0 1-.086 1.105 2.039 2.039 0 0 1-.654.895 2.415 2.415 0 0 1 1.621 1.777 2.42 2.42 0 0 1-.714 2.298 2.42 2.42 0 0 1-1.517.642v.001zm-1.712-7.06-1.694.338.396 1.984 1.695-.339a1.023 1.023 0 0 0 .04-2.044 1.023 1.023 0 0 0-.437.065v-.005zm-.995 3.84.425 2.118c1.709-.343 3.01-.371 2.752-1.66-.227-1.136-1.068-.884-3.177-.454v-.005zm13.207-6.287 1.426 7.118-1.733.347-1.425-7.12-2.317.464-.301-1.499 6.368-1.28.301 1.501-2.319.469z"/><path fill="#fff" d="M138.535 8.416c-7.638 2.005-10.421 11.851-11.482 19.67-2.915 21.456-3.972 22.771 28.367 27.37a12.336 12.336 0 0 0 14.099-10.224c3.371-22.85 3.451-22.544 3.24-24.074-.379-2.758-4.147-7.651-6.206-8.872-3.018-1.792-23.063-5.168-28.018-3.869v-.001z"/><path fill="#0F0F0F" d="M171.36 14.968c-4.246-5.688-8.361-5.08-29.043-8.072a13.083 13.083 0 0 0-14.806 11.06L124.552 38.4a13.085 13.085 0 0 0 11.061 14.806c21.12 3.056 24.586 4.64 30.139.494 5.826-4.353 5.22-9.34 8.072-29.041a13.004 13.004 0 0 0-2.464-9.691zm-41.329 3.36a10.53 10.53 0 0 1 4.116-6.924 10.523 10.523 0 0 1 7.807-1.984l18.024 2.604a11.06 11.06 0 0 1 6.133 11.52c-2.064 14.268-1.666 18.43-6.451 22.004-4.786 3.575-8.309 2.061-22.93-.054a11.044 11.044 0 0 1-9.312-9.136l2.613-18.032v.002zm41.28 5.976c-3.04 20.982-2.413 23.884-7.077 27.36-4.704 3.52-7.52 2.025-28.251-.976a10.538 10.538 0 0 1-9.011-10.72c3.625 7.58 9.619 7.052 24.291 9.168a12.467 12.467 0 0 0 9.315-2.37c5.082-3.795 4.722-6.915 7.05-23.008a12.564 12.564 0 0 0-4.056-11.154 10.521 10.521 0 0 1 7.734 11.693l.005.007z"/><path fill="#0F0F0F" d="M159.829 27.637a12.343 12.343 0 0 0-9.313-11.29 12.338 12.338 0 0 0-15.247 10.446 12.343 12.343 0 0 0 .457 5.164c4.128 13.92 25.007 10.217 24.103-4.32zm-4.243-.195c-3.3-.402-3.368-.357-3.42-.569a4.651 4.651 0 0 0-4.342-3.292 4.749 4.749 0 1 0 3.232 8.085c1.25-1.234-.362-1.233 4.648-.535a7.34 7.34 0 0 1-2.24 3.5 8.554 8.554 0 0 1-14.205-7.654c1.539-9.747 15.696-9.45 16.951.465.011.12-.05.078-.624 0z"/><path fill="#FDFE1F" d="M228.819 292.831c3.807 4.98 13.9 14.275 20.549 14.796 25.576 2.012 52.492-36.408 45.463-52.988-2.039-4.146-12.083-11.906-15.56-13.778-19.805-10.509-50.613 18.298-53.36 40.296a15.739 15.739 0 0 0 2.908 11.674z"/><path fill="#0F0F0F" d="M295.752 254.496a16.483 16.483 0 0 0-4.934-5.877c-4.903-4.424-11.171-10.172-17.81-10.708-18.72-2.52-39.291 17.5-46.181 35.649a24.017 24.017 0 0 0-1.006 15.736c3.349 7.36 14.803 16.847 20.536 18.699 3.022 1.028 8.181.685 11.562-.086 24.454-6.077 43.915-39.379 37.833-53.413zm-2.603 11.84c-3.344-1.368-2.766-1.472-5.312-3.862 1.683-5.973 1.29-9.504.422-12.311 3.663 3.362 7.383 5.549 4.89 16.173zm-64.858 22.058c-5.587-19.911 22.818-51.067 44.396-47.84 4.622.437 9.192 3.961 12.715 7.04 10.217 17.747-26.29 59.176-48.48 50.96a33.276 33.276 0 0 1-8.631-10.16zm11.728 12.627c3.864.772 7.861.552 11.616-.64 2.461 1.76 3.28 1.23 5.864 4.573-8.752 2.307-12.931-.595-17.48-3.933zm19.728 3.254c-3.227-2.14-3.003-1.376-5.752-4.758a51.448 51.448 0 0 0 11.648-7.083c2.408 1.617 2.735.355 6.808 4.574a41.942 41.942 0 0 1-12.704 7.267zm14.4-8.676c-4.84-2.352-3.078-1.293-6.617-4.708a79.546 79.546 0 0 0 11.04-11.496c3.606 1.965 2.896.452 6.627 4.066a68.072 68.072 0 0 1-11.046 12.138h-.004zm12.16-13.76c-4.732-1.932-3.486-2.119-6.288-4.365a54.066 54.066 0 0 0 7.106-12.856 11.055 11.055 0 0 1 5.488 3.76 50.147 50.147 0 0 1-6.309 13.461h.003z"/><path fill="#0F0F0F" d="M236.57 293.074c18.26 11.777 56.458-30.351 43.432-44.826-8.368-9.51-25.892-.838-34.496 8.218-2.83 2.982.778-.247 3.714-2.432 17.539-12.914 31.142-9.466 31.342.929.426 16.781-22.856 38.527-37.225 38.293-12.76-.093-13.885-15.506-2.72-30.71 2.249-2.97 5.469-6.474 2.465-3.69-10.142 9.373-16.916 27.427-6.512 34.218z"/><path fill="#0F0F0F" d="M249.05 272.96c-4.287-4.421-3.858-4.138-4.061-3.943-5.6 5.418-5.262 5.037-5.323 5.216-1.106 3.215-1.44 3.779-1.28 3.939 8.531 8.824 7.795 8.18 8 8.116 4.139-1.28 3.853-1.14 4.03-1.311 11.341-10.955 10.69-10.267 10.759-10.467 1.164-3.402 1.42-3.779 1.264-3.939-5.695-5.88-5.28-5.314-5.069-5.515 4.8-4.618 5.189-5.202 5.341-5.04 2.816 2.944 2.664 2.641 2.484 2.812-2.633 2.532-2.633 2.463-2.529 2.57 4.299 4.43 3.854 4.134 4.064 3.933 5.613-5.429 5.257-5.027 5.326-5.229 1.359-3.96 1.378-3.814 1.255-3.944-6.928-7.138-7.791-8.306-7.936-8.146-1.284.533-2.61.954-3.967 1.255-.222.069.455-.522-10.741 10.277-.192.184-.044-.088-1.459 3.979-.073.205-.464-.28 5.157 5.521.16.16-.093.218-5.224 5.181-.19.184.091.32-2.678-2.521-.21-.208 2.792-2.532 2.587-2.744z"/><path fill="#FDFE1F" d="M32.075 118.644c6.415 4.1 16.39 8.592 22.586 8.606a15.53 15.53 0 0 0 3.755-.624C83.6 120.028 97.41 72.3 84.14 60.151a17.213 17.213 0 0 0-5.714-3.2c-6.734-2.965-13.44-6.035-20.22-4.64-27.471 5.629-42.023 56.169-26.13 66.333z"/><path fill="#0F0F0F" d="M82.191 57.67c-1.107-.582-10.995-5.248-16.96-6.3-26.47-4.882-49.494 45.478-37.531 63.743 4.14 6.324 15.597 10.925 23.04 12.544 29.161 6.448 51.821-59.2 31.451-69.987zm4.57 14.925c-3.71-.257-3.181-.55-6.41-2.048-.537-12.08-5.931-13.177-2.755-11.749 3.79 1.738 8.185 2.823 9.165 13.797zM32.32 116.51c-9.307-7.808-6.484-36.28 10.774-53.547 4.17-4.41 9.55-7.49 15.466-8.851 4.64-1.064 10.212.893 14.627 2.747 15.635 13.958-6.491 66.01-30.752 65.158a48.169 48.169 0 0 1-10.115-5.508v.001zm13.93 6.911a23.859 23.859 0 0 0 11.092-4.359c2.82.872 3.63.175 7.173 2.56-7.787 5.045-12.709 3.6-18.26 1.799h-.006zm20.231-3.184c-3.82-1.04-3.39-.388-7.123-2.776a52.685 52.685 0 0 0 9.045-10.637c2.78.777 2.74-.555 8.094 2.256a42.797 42.797 0 0 1-10.01 11.157h-.006zm11.213-13.072c-5.5-.732-3.71-.413-7.949-2.448a81.61 81.61 0 0 0 7.04-14.731c3.301.596 3.061-.452 7.752 1.82a69.67 69.67 0 0 1-6.838 15.359h-.005zm7.392-17.293a21.156 21.156 0 0 1-3.286-.387c-1.498-.426-3.2-1.453-4.232-1.834a55.425 55.425 0 0 0 2.772-14.789 11.36 11.36 0 0 1 6.546 1.888 51.345 51.345 0 0 1-1.795 15.12h-.005v.002z"/><path fill="#0F0F0F" d="M37.15 115.349a11.962 11.962 0 0 0 10.356 1.184c22.783-6.902 38.645-59.27 14.058-58.853-14.296.343-25.536 21.799-24.879 22.131.48.253 4.466-9.21 14.73-16.825 6.131-4.509 12.408-4.371 15.85-2.272 5.006 2.958 5.44 12.64 4.344 18.755a61.106 61.106 0 0 1-13.338 27.285c-16.06 18.302-32.533 5.912-23.81-20.946 1.258-3.688 2.226-5.64 2.08-5.712-1.139-.577-12.843 26.195.608 35.251v.002z"/><path fill="#0F0F0F" d="M56.61 68.008a19.576 19.576 0 0 0-2.547-.742c-1.672 3.315-4.29 11.017-7.11 16.704-.108.16-7.29 13.176-8.428 16.3 2.27.853 1.87.664 2.2.944-1.816 3.26-.747 7.44 1.66 1.28a13.656 13.656 0 0 0 2.73 1.527c-2.748 5.779.498 4.707 1.978.582 9.181 1.669 11.84-11.86 8.461-18.004 7.52-.16 10.651-8.609 6.472-14.129 1.69-2.4 1.365-4.927.755-4.992-.64-.084-1.497 1.941-2.208 3.447-2.459-2.256-2.374-1.482-1.987-2.227 2.127-4.093.162-5.043-1.976-.69zM43.551 98.272a98.552 98.552 0 0 1 4.792-13.029 11.583 11.583 0 0 1 4.98 3.69c4.06 6.536-.382 19.142-9.772 9.34zm18.027-21.608a5.01 5.01 0 0 1-5.48 6.9 18.215 18.215 0 0 1-5.555-2.297l-.187.368c-.16-.099 4.184-6.982 5.683-9.462 2.413 1.075 4.616 2.144 5.54 4.491z"/><path fill="#FDFE1F" d="M39.782 169.291c-2.88 1.456-11.566 7.093-13.44 9.678C16.68 192.283 37.6 234.72 63.025 236.12c1.206.105 2.421.059 3.616-.135 5.526-1.149 18.05-9.206 21.053-14.576 10.267-18.353-21.528-65.48-47.91-52.118z"/><path fill="#0F0F0F" d="M49.047 165.816c-6.493-.245-13.235 4.6-18.513 8.336a15.956 15.956 0 0 0-5.464 5.133c-6.255 10.744 3.387 39.444 23.776 52.76 11.19 7.105 20.848 7.753 35.756-5.708a16.578 16.578 0 0 0 4.3-5.227c7.987-19.79-17.105-55.653-39.855-55.294zM32.84 175.945a20.743 20.743 0 0 0-1.01 12c-2.699 1.996-2.206 2.204-5.6 3.138-1.183-10.477 2.572-12.219 6.61-15.138zm-6.322 17.175a10.89 10.89 0 0 1 5.76-3.015 52.909 52.909 0 0 0 5.41 13.29c-2.928 1.83-1.835 2.203-6.601 3.51a49.003 49.003 0 0 1-4.569-13.785zm5.452 15.488c4.035-3.072 3.715-1.907 6.897-3.181a77.673 77.673 0 0 0 9.386 12.427c-4.234 3.216-2.81 2.367-6.962 3.803a66.366 66.366 0 0 1-9.321-13.054v.005zm10.804 14.613c4.488-3.655 4.685-2.4 7.133-3.655a50.255 50.255 0 0 0 10.482 8.215c-3.04 2.95-2.72 2.227-6.128 3.953a40.96 40.96 0 0 1-11.486-8.518v.005zm13.588 9.44c2.89-2.952 3.61-2.336 6.217-3.762a22.805 22.805 0 0 0 11.2 1.957c-4.875 2.744-9.253 5.046-17.417 1.795v.01zm31.222-15.335c-1.21 4.81-6.001 8.461-10.51 11.491a21.24 21.24 0 0 1-12.952-1.097c-16.32-7.031-38.922-39.573-28.21-53.931 8.738-5.96 12.758-6.08 18.98-4.661 20.45 5.189 36.56 32.827 32.692 48.189v.009z"/><path fill="#0F0F0F" d="M78.24 193.066a26.994 26.994 0 0 0-3.65-4.559c-.407.32 6.751 8.06 8.261 19.552 1.76 14.476-9.591 20.055-23.486 9.503a58.254 58.254 0 0 1-17.664-22.954c-2.182-5.485-3.63-14.64.48-18.357 2.82-2.62 8.64-3.948 15.247-.897 11.753 5.489 16.441 13.353 16.974 12.913.502-.395-13.846-18.377-27.47-15.939-23.106 4.32 1.803 50.219 24.358 52.32 12.33 1.237 18.747-13.365 6.95-31.582z"/><path fill="#0F0F0F" d="M59.288 200.48a5.517 5.517 0 0 0 4.279-2.194 14.001 14.001 0 0 0 1.85-6.925c0-.625.09-.421-.383-.811-6.79-5.6-5.398-4.814-16.494-11.746a59.975 59.975 0 0 0 1.92 12.677c3.025 11.41.72 9.776 8.828 8.999zm-4.8-1.538c-2.745-10.571-3.163-12.99-3.52-16.131a76.93 76.93 0 0 1 12.32 9.038 11.633 11.633 0 0 1-1.49 5.28 3.66 3.66 0 0 1-2.72 1.253c-1.516.296-3.05.483-4.593.558l.003.002z"/><path fill="#0F0F0F" d="M60.018 208.299c2.506 1.584 11.397 7.003 14.055 7.003.393 0 .48-.112 1.01-.405.71-5.96-2.004-9.134-7.345-21.996a15.168 15.168 0 0 0-1.72 4.995c-1.073 5.713-2.504 4.369-12.065 5.497a21.47 21.47 0 0 0 6.065 4.906zm-.947-3.288a14.874 14.874 0 0 0 6.262-1.357c3.71-2.029 1.626-8 3.698-2.921 2.47 6.019 4.04 9.264 4.08 12.262-4.208-1.635-14.736-7.944-14.04-7.984z"/><path fill="#fff" d="M47.76 52.099c-9.01 6.286-.372.246 6.758 6.912 1.387 1.296 3.505 5.998 4.32 5.688.18-.069.188-.32.17-.507a16.358 16.358 0 0 1 7.04-14.903c1.102-.736.692-1.472-.583-1.515a17.947 17.947 0 0 1-7.083-1.494c-2.08-1.232-5.367-5.472-6.807-7.709.093 5.664-.8 11.62-5.496 14.78l1.68-1.252z"/><path fill="#0F0F0F" d="M68.186 48.01c.07-1.08-7.15-.24-10.974-3.398-4.468-3.68-5.89-9.77-6.69-9.504-1.307.301 2.493 10.693-3.882 16.943-2.31 2.265-4.916 3.26-4.739 3.723.2 1.147 9.107-1.97 14.568 7.243 1.6 2.67 2.536 5.12 2.968 5.074 1.024 0-1.549-9.648 4.416-16.302 2.267-2.489 4.485-3.341 4.333-3.778zm-5.429 2.79a19.432 19.432 0 0 0-4.46 12.48 14.463 14.463 0 0 0-12.871-8.48c3.392-1.78 6.62-6.346 6.56-13.55-.011-1.071-.152-1.009.274-.266a13.408 13.408 0 0 0 9.82 7.252c5.76.928 3.972-1.067.677 2.564z"/><path fill="#fff" d="M50.568 161.136c-1.995 6.902-5.863 6.312-4.975 7.624a14 14 0 0 1 13.155 6.595c.31.519.689 1.12 1.29 1.154-1.22-13.136 5.336-13.979 5.82-16.375-11.31.021-10.433-3.374-15.142-7.872-.254 2.312 1.59 2.86-.148 8.874z"/><path fill="#0F0F0F" d="M67.19 160.017c-.019-.988-6.6.357-10.392-2.259-4.437-3.054-6.208-8.536-6.926-8.229-1.178.381 3.232 9.751-2.227 15.933-1.92 2.303-4.274 3.397-4.074 3.811.277 1.045 8.242-2.544 14.013 5.517 1.71 2.355 2.79 4.597 3.16 4.439.853-.285-2.146-8.864 2.753-15.381 1.89-2.475 3.863-3.44 3.693-3.831zm-4.79 3.005a17.987 17.987 0 0 0-3.117 11.864 13.953 13.953 0 0 0-10.186-6.792c-3.393-.39-2.702.946-.424-1.739a14.475 14.475 0 0 0 3.04-11.282c-.097-.985-.22-.918.23-.267a12.422 12.422 0 0 0 9.625 5.907c5.422.394 3.587-1.302.832 2.309z"/><path fill="#FDFE1F" d="M143.17 248.32c-5.346-2.56-9.789-.613-14.485 1.976-12.17 6.707-1.334 25.905 9.448 34.363 10.72 8.402 21.317-.989 20.728-11.768-.528-9.691-10.016-21.851-15.691-24.571z"/><path fill="#0F0F0F" d="M160.172 271.654c-1.749-8.8-10.676-24.078-21.215-25.957-5.897-.565-20.809 4.888-15.939 20.16 4.776 14.608 21.12 30.495 32.046 19.279 5.148-5.004 5.997-8.508 5.108-13.482zm-2.68 4.869c-1.858 2.56-6.588.846-9.327-.707-6.939-3.903-18.294-21.44-11.928-26.21 7.053-5.238 23.866 16.23 21.255 26.917zm-23.484-27.005c-1.772 2.24-1.566 5.843-.904 8.627-3.272 2.88-2.945 3.543-7.36 5.058-1.628-7.203 1.551-10.954 8.264-13.685zm-7.668 15.746c4.513-3.557 2.854-2.221 7.553-4.567a36.145 36.145 0 0 0 4.759 8.32c-3.103 2.906-1.567 2.853-7.168 5.76a39.646 39.646 0 0 1-5.144-9.513zm6.524 11.348c4.362-4.817 3.45-3.024 7.386-5.486a25.176 25.176 0 0 0 6.47 6.123 27.73 27.73 0 0 1-2.4 3.415c0 .265-3.444 2.499-3.953 2.979a31.463 31.463 0 0 1-7.503-7.031zm20.109 6.33a8.63 8.63 0 0 1-10.222 1.96 30.956 30.956 0 0 1 2.408-3.421c1.217-1.211 3.238-2.281 3.987-3.016a11.345 11.345 0 0 0 6.96.991 21.384 21.384 0 0 1-3.133 3.486z"/></svg>