<svg xmlns="http://www.w3.org/2000/svg" width="320" height="320" fill="none"><path fill="#fff" d="M286.817 226.706c-9.98-9.946-21.729-9.067-23.104-9.399-.822-14.534-12.587-39.908-21.872-52.568-13.87-18.908-26.828-23.609-46.492-28.118-5.92-1.358-12.095-2.72-18.026-1.384a20.976 20.976 0 0 0-15.84 17.92 16.504 16.504 0 0 0-14.223 11.425 16.503 16.503 0 0 0 4.996 17.546c-5.898 2.016-8.083 9.839-5.933 15.688 4.458 12.122 19.52 15.088 27.333 24.723 6.27 7.728 7.377 19.263 15.707 25.37a69.744 69.744 0 0 0 14.734 8.602c1.29.521 16.536 4.492 16.516 3.584.16 6.98 4.129 10.542 2.104 8.8 9.74 19.028 19.174 20.736 36.694 11.084 6.296-3.468 12.632-7.12 17.586-12.331 8.192-8.622 18.82-31.968 9.82-40.942z"/><path fill="#0F0F0F" d="M217.178 248.16c-5.074-1.333-8.866-4.55-8.536-4.985.294-.391 3.878 2.072 8.952 3.404 5.073 1.333 9.403.952 9.469 1.44.06.452-4.452 1.572-9.885.141zm-4.156-85.823c.8.335-2.104 7.232-2.24 14.508-.199 10.729 4.048 7.779-1.728 9.888-4.215-11.616 3.032-24.792 3.968-24.396z"/><path fill="#0F0F0F" d="M291.521 232.677c-2.848-9.184-16.539-15.65-27.331-16.38-1.252-16.427-9.456-33.55-18.14-47.56-11.944-19.504-29.777-30.416-52.233-34.24-9.975-1.726-21.562-1.948-28.773 5.292a16.467 16.467 0 0 0-4.99 12.497c-12.428 1.591-23.053 16.747-10.08 29.018-8.788 3.382-6.461 15.907-.999 23.701 5.503 7.644 12.746 6.529 21.651 16.899 9.234 10.605 6.362 17.613 18.41 27.52 8.587 6.96 18.486 11.36 30.093 11.48a10.515 10.515 0 0 0 1.181 6.473c6.067 12.357 14.348 22.24 27.729 19.56 30.69-6.179 47.432-41.084 43.482-54.26zm-3.795 9.547a57.874 57.874 0 0 1-31.285 38.035c-13.394 5.968-22.635 6.422-33.659-14.096a7.658 7.658 0 0 1-1.092-5.312c13.074-.661 23.157-8.022 22.788-8.562-.37-.574-8.138 5.152-20.168 6.016-18.348 1.44-35.936-9.908-41.88-22.318-2.37-4.912-4.029-10.136-9.325-16.219-9.024-10.504-16.816-10.187-21.458-16.653-4.691-6.669-7.241-18.08 1.472-19.251 2.597 1.841 12.597 7.752 15.352 9.368 3.749 2.149 4.8.462 1.263-1.989-9.628-6.595-13.325-8.771-15.629-10.608-13.479-10.765-4.349-23.84 6.345-26.131 2 9.001 18.511 11.883 34.933 22.851a33.672 33.672 0 0 0-4.408 7l2.96 1.386c5.147-11.007 13.053-15.36 12.445-16.348-.357-.616-4.906 1.621-8.789 5.512-10.048-6.8-23.36-11.918-30.427-16.528-5.779-3.822-4.563-11.52.195-16.28 10.584-10.942 39.2-2.88 52.415 4.96 14.268 8.413 21.6 19.2 28.988 32.373 7.04 12.571 15.749 33.229 13.2 47.36-1.88 10.08-8.64 17.064-8.198 17.432.378.32 9.61-9.392 10.501-20.373.075-.915.113-3.48.062-5.048a37.137 37.137 0 0 1 19.315 8.372c5.236 4.556 5.624 8.334 4.077 15.051h.007z"/><path fill="#fff" d="M160.713 284.289c-5.76-16.134-19.315-13.808-14.56-18.934 11.371-12.261 6.198-36-22.661-48.48 4.64-4.024 9.327-8.114 12.715-13.23 9.631-14.536 1.954-28.708-8.88-28.61a13.622 13.622 0 0 0-15.478-19.2c-2.389.595-2.79-.058-2.864-1.824-.198-4.774-4.702-8.522-9.414-9.32-10.666-1.81-38.687 10.744-55.37 41.44a40.242 40.242 0 0 0-4.406 11.093c-2.967 14.665 9.44 53.237 40.96 79.573-8.672 2.43-9.392 19.796-4.78 25.891a16.645 16.645 0 0 0 5.66 4.438c12.723 6.711 28.056 5.175 42.288 3.087 11.51-1.688 34.985-7.466 37.555-18.88a12.834 12.834 0 0 0-.765-7.044z"/><path fill="#0F0F0F" d="M132.416 249.749c.592 7.654-3.2 12.707-3.619 12.433-.566-.366 2.608-4.296 1.991-12.307-.536-6.934-3.632-11.987-3.152-12.224.412-.253 4.235 5.048 4.78 12.098zm-81.734-27.448c.546-.21 4.15 9.686 12.516 22.571 8.5 13.094 15.952 20.192 15.52 20.616-.144.144-2.373-1.744-5.6-5.187-15.583-16.65-23.101-37.741-22.435-38z"/><path fill="#0F0F0F" d="M162.844 285.11a26.29 26.29 0 0 0-15.865-17.6c13.515-13.167 4.198-41.141-21.507-50.4a41.19 41.19 0 0 0 7.369-6.899c16.722-19.12 8.435-34.501-3.371-35.629 2.779-14.427-8.546-23.322-18.971-19.989-.567-7.603-8.274-12.406-16.6-11.52-22.026 2.381-50.967 34.218-55.152 53.358-3.851 17.496 14.096 61.61 40 79.583-5.034 3.454-7.447 7.936-7.39 14.694.179 7.496 2.459 13.879 9.241 16.939 17.41 7.976 42.826 4.751 61.154.023 13.34-3.435 24.251-9.261 21.092-22.56zm-10.491 14.624c-11.182 6.054-47.801 13.046-67.262 5.76-4.883-1.973-8.367-4.058-9.563-10.314-2.005-9.805 1.033-15.189 9.398-19.349 6.328-3.137 14.006-4.496 13.893-5.182-.101-.605-10.52.074-18.047 4.149-24.808-17.621-42.544-61.135-38.854-77.653 5.176-23.52 48.32-63.768 63.528-47.504 2.997 3.155 2.914 6.275.994 10.112a49.79 49.79 0 0 1-14.01 16.174l1.243 1.695c6.623-4.762 15.179-13.962 16.64-20.667 7.984-2.4 17.203 3.377 16.235 14.86-.67 9.708-8.529 16.746-15.249 22.975l1.341 1.619c7.001-5.302 13.886-11.36 16.332-19.742a11.774 11.774 0 0 1 9.834 10.4c1.245 9.574-5.824 18.929-12.342 26.051-2.432 2.803-3.919 2.728-3.796 3.073-.673-.203-7.52-2.107-7.723-1.451-.47 1.562 19.371 5.003 29.587 20.6 6.648 10.007 8.311 23.65-1.393 31.2-10.362-1.862-31.552 1.858-31.479 2.477.116.974 16.346.016 22.56.134a32.5 32.5 0 0 1 12.49 2.143c10.318 4.574 19.891 20.885 5.643 28.44z"/><path fill="#FDFE1F" d="M50.414 48.924a10.144 10.144 0 0 0 5.248 5.563 4.408 4.408 0 0 0 2.78-1.073 8.577 8.577 0 0 0 1.68-4.135 45.967 45.967 0 0 0-2.258-8.853 16.512 16.512 0 0 1 6.281 5.7c5.44 8.435 5.565 12.998 4.274 18.604-2.538 11.015-13.44 17.62-24.928 15.162-8.81-1.885-14.376-10.944-14.275-13.912a15.269 15.269 0 0 0 6.502 3.176 10.113 10.113 0 0 0 8.123-.357 3.52 3.52 0 0 0 .276-6.377c-2.91-1.96-7.476-.922-9.273-3.757a6.593 6.593 0 0 1 .48-6.304c.844-1.418 7.84-7.615-2.295-12.866l1.324-.697c2.7.526 5.73-.234 8.181 1.01a21.241 21.241 0 0 1 2.656 1.92 9.588 9.588 0 0 1 3.754 3.606 10.275 10.275 0 0 1 1.472 3.59h-.002z"/><path fill="#0F0F0F" d="M66.401 48.264c-3.84-6.218-8.899-8.524-9.046-8.226-.32.186 2.77 5.24 1.877 10.056-.573 3.15-3.04 4.277-4.74 3.243-3.12-1.835-3.734-8.245-7.73-11.718-6.609-5.968-14.967-2.485-14.607-1.773 0 .176.833.216 2.08.829a5.656 5.656 0 0 1 2.509 7.954c-1.12 2.043-3.572 4-3.783 7.014-.395 6.638 7.424 6.611 9.208 7.155 5.675 1.73 3.141 7.384-5.513 5.947-4.988-.814-7.407-3.342-7.704-3.006-.255.037.172 5.617 5.947 10.64 17.904 15.437 45.157-5.426 31.504-28.115H66.4zm1.703 12.926c-.399 10.33-10.541 19.243-20.607 18.454a21.053 21.053 0 0 1-18.174-13.28c4.979 5.666 17.979 6.114 17.953-.85 0-3.545-4-4.84-7.52-5.413-4.598-.76-5.6-3.792-4.083-6.442 1.323-2.464 4.235-4.896 3.285-8.923a6.4 6.4 0 0 0-5.342-5.043 13.857 13.857 0 0 1 5.424.075c7.268 1.58 8.656 6.605 10.867 11.216 5.568 11.145 16.041 1.182 8.825-9.51-.907-1.346 9.91 7.415 9.376 19.716h-.004z"/><path fill="#FDFE1F" d="M96.235 36.555c1.12 1.062.845 2.832.785 4.138-.507 11.25 8.41 7.388 8.332 1.24 1.875 1.412 1.961 3.923 2.384 5.63a14.27 14.27 0 0 1 .585 6.357 20.125 20.125 0 0 1-4.563 7.749c-14.04 13.846-30.925-4.48-27.04-13.152 1.224.8 1.627 2.37 2.44 3.584 2.24 3.33 9.072 1.904 8.856-.524-.16-1.84-2.872-2.707-4.112-4.763a5.198 5.198 0 0 1 1.304-6.379c2.56-2.173 7.543-3.133 3.42-8.64 1.671-.966 6.334 3.546 7.609 4.76z"/><path fill="#0F0F0F" d="M108.91 49.512c-.64-5.293-3.594-8.736-3.917-8.462-.378.07-.013 2.346-1.246 4.32-1.5 2.4-5.685 3.04-5.744-1.989-.11-5.44.168-10.267-8.037-11.917-1.488-.32-1.829-.14-1.03 1.677 1.785 4.075-2.535 4.06-5.239 7.563a5.574 5.574 0 0 0-.496 6.656c1.214 1.691 3.629 2.733 3.57 4.044.123 2.88-6.212 3.297-9.148-2.522-.425-.88-.587-1.44-.75-1.42-.109-.054-.682.716-.95 2.373-1.468 9.096 9.067 19.729 20.3 17.104a15.992 15.992 0 0 0 12.687-17.427zm-24.133 13.41a16.243 16.243 0 0 1-8.01-13.014c-.016-3.498-.547 2.964 5.172 5.041 4.016 1.4 6.856-.787 6.966-3.536.029-3.337-4.258-4.125-4.44-6.643-.531-5.245 9.352-6.331 5.203-12.056-.912-1.12-.862-.96 0-.453 1.683.94 2.047 1.02 3.005 1.648 5.578 3.592 1.6 9.298 4.046 13.235 2.415 4.106 9.78 1.67 8.877-4.595 7.285 15.675-8.742 27.827-20.819 20.373z"/><path fill="#FDFE1F" d="M43.065 158.669c-1.838-2.88-4.069-5.648-7.396-6.432 3.024 6.764-.602 9.62-2.919 7.787-2.893-2.29-4.04-11.261-11.064-10.608-1.386.128-2.926-.416-4.395 1.145-.304.32-.056.541.368.66 3.056.851 4.73 4.875 2.432 8.878-.613 1.067-1.47 2.178-1.226 3.384.62 3.04 6.538 2.515 7.936 3.958 3.165 3.272-4.537 7.768-10.448 3.599a1.981 1.981 0 0 0 .357 1.44c2.853 4.989 9.898 9.392 18.88 6.222 9.032-3.182 11.069-14.382 7.475-20.033z"/><path fill="#0F0F0F" d="M46.081 165.707c-.34-10.802-10.706-14.783-10.974-13.962-.267.304 1.21 1.495 1.013 4.506-.092 1.333-.84 3.393-1.877 3.494-1.399.355-2.536-2.363-3.063-3.704-.96-2.433-1.694-4.334-4-5.859a8.82 8.82 0 0 0-9.37-.422c-1.77 1.144-.88 1.147.364 1.897a4.408 4.408 0 0 1 1.873 5.45c-.563 1.539-3.774 3.851-1.823 7.381 2.052 3.948 7.633 1.844 8 4.465.244 1.984-3.36 4.512-8.924 1.994-1.57-.743-2.24-1.327-.819 1.731a15.505 15.505 0 0 0 13.44 8.525c8.16.413 16.571-6.803 16.16-15.496zm-6.314 9.536c-6.192 5.803-16.65 5.76-23.003-3.651 3.805 3.171 9.091 2.417 10.93-.448a3.551 3.551 0 0 0-.683-4.767c-2.512-2.019-5.65-.589-6.904-2.899-1.28-2.387.989-3.485 1.652-5.79a5.217 5.217 0 0 0-4.145-6.992 8.95 8.95 0 0 1 8.41 1.12c3.299 2.47 2.987 7.899 6.481 9.635 2.634 1.361 5.383-1.29 5.155-5.208-.21-3.258-2.262-4.291-.608-3.184 7.663 5.15 9.759 15.76 2.714 22.184h.002z"/><path fill="#FFC5F6" d="M211.417 235.159a12.83 12.83 0 0 0 4.16-7.438c4.411-17.715-3.141-34.73-7.345-47.557-3.421-10.437-29.045-84.33-31.092-89.029-2.516-5.782-3.454-11.512-7.721-16.577a21.887 21.887 0 0 0-12.48-7.645c-7.463-1.376-33.299 3.024-42.171 5.416-22.357 6.026-45.136 7.146-53.413 11.904a22.926 22.926 0 0 0-10.434 16.566c-1.28 9.968 7.707 32.949 8.735 38.778.267 1.514.035 3.002.32 4.512 1.612 8.384 9.835 20.114 9.835 25.304 1.072 3.68 1.523 7.402 3.019 10.93-.042-.116.128-.215.238-.16.618.294 1.93 7.809 4.127 12.07 6.325 12.272 6.374 15.725 9.44 23.885 2.004 5.347 4.65 10.445 6.464 15.859 1.312 3.918 2.187 8 3.808 11.794 4.667 10.937 11.72 11.766 22.44 10.464 21.173-2.572 23.545-2.506 27.597-4.844 1.939 1.007 1.016.711 46.472-7.54 5.918-1.071 13.372-2.679 18.001-6.692z"/><path fill="#92FCFF" d="M192.729 184.096c-3.36-9.045 3.067 5.12-14.631-40.56-3.773-9.741-15.048-44.32-17.728-49.576a10.216 10.216 0 0 1-1.334-3.755 7.277 7.277 0 0 0-5.227-4.74 15.337 15.337 0 0 0-6.808.365c-62.303 12.896-64 10.72-69.612 18.424-3.292 4.525-.184 3.703 21.048 71.424.738 2.352 2.357 4.48 3.188 6.853 1.724 4.927.113 2.387 6.753 20.888 5.703 15.893 3.535 13.523 5.467 17.159a9.867 9.867 0 0 0 4.876 4.392c2.448.878 5.122.899 7.584.059 7.048-1.709 28.996-4.64 29.7-4.749 2.989-.434 3.076-1.224 22.56-4.544 15.469-2.637 16.02-2.8 17.156-3.496a11.151 11.151 0 0 0 3.68-5.362c.484-2.878-5.674-20.1-6.672-22.782z"/><path fill="#FDFE1F" d="M135.402 98.851c8.024-2.192 6.549-.814 11.342-1.654 1.399-.245 2.08-1.44 5.485.812 3.499 2.303 7.477 20.816 13.003 33.693 1.048 2.442 1.394 4.856 2.274 7.36 4.51 12.847 6.784 16.32 6.358 19.229-.771 5.28-6.56 5.085-11.145 6.44-7.778 2.301-16.055 2.605-23.776 5.094-.397.05-.797.074-1.197.072-.96.16-12.845 3.429-23.819 5.191-6.912 1.11-9.223-11.055-11.623-19.626-.88-3.149-12.027-31.489-12.253-34.765-.24-.347-.915.031-.745.416.17.386.904.143.81-.268-.985-4.244-3.074-6.658-1.009-10.501 2.88-5.354 8.439-3.434 27.655-7.698 11.478-2.544 12.531-2.128 18.64-3.795zm37.81 73.362c1.345 1.76 5.672-.908 9.131 9.752 9.885 30.46 9.082 17.884-52.41 32.56-3.235.772-5.792.819-8.187-2.589-1.837-2.611-4.523-11.815-5.627-15.469-5.104-16.91 7.058-12.64 21.366-16.744.077-.022 31.495-6.747 35.727-7.51z"/><path fill="#fff" d="M138.552 198.466a4.865 4.865 0 0 0-2.72-3.263c.84-3.032.384-5.413-2.24-7.107-4.128-2.659-7.143.48-10.101.899a2.24 2.24 0 0 0-1.699 1.973c-.279 1.981 3.459 12.818 4.32 14.627 2.008 4.219 4.237 4.256 7.277 2.866 4.723-2.167 7.052-4.602 5.163-9.995zm14.553-5.346c-.105-.034-.032.197.064.139.096-.058.076-.2.042-.307-1.723-5.418-1.941-6.333-2.688-7.456-1.734-2.605-4.627-2.191-5.232-.365-.699 2.123 2.43 6.474 3.661 9.702 1.27 3.333-.242 4.96-1.259 4.892-1.703-.128-4.176-6.002-4.7-9.365-.262-1.69-.364-3.85-2.016-4.877a2.728 2.728 0 0 0-2.494-.191 2.735 2.735 0 0 0-1.608 1.916 2.728 2.728 0 0 0 .154 1.696c1.904 4.339 2.118 11.921 6.2 15.04a6.911 6.911 0 0 0 6.582.843 6.91 6.91 0 0 0 4.264-5.085 11.654 11.654 0 0 0-.97-6.582z"/><path fill="#fff" d="M152.251 182.612a2.826 2.826 0 0 0-1.715 3.272c.101.439.304.845.595 1.189a62.265 62.265 0 0 0 6.693 6.4c.592.511.736.771.552 1.768-.893 4.816-1.176 5.624-.738 6.488a3.344 3.344 0 0 0 2.648 1.647c1.939-.103 2.447-2.349 2.784-3.983 1.479-7.153 5.168-14.288 2.931-18.189a2.642 2.642 0 0 0-2.49-1.635c-.352.008-.7.087-1.022.232-1.1.64-1.32 2.128-2.07 4.879-.736 2.694-2.33 2.588-3.299 1.31-1.211-1.581-2.269-4.301-4.869-3.378z"/><path fill="#0F0F0F" d="m106.21 171.147-18.848-55.365a7.174 7.174 0 0 1 5.344-9.182l54.252-10.63a7.183 7.183 0 0 1 8.239 4.614c20.987 59.756 20.329 56.59 18.325 60.159-2.192 3.913-.925 2.863-58.978 15.268a7.133 7.133 0 0 1-8.334-4.864zm-16.8-60.32c-1.81 3.097-1.12.301 18.355 59.817a5.554 5.554 0 0 0 6.432 3.78l54.198-11.754a5.564 5.564 0 0 0 3.691-2.712 5.536 5.536 0 0 0 .391-4.565c-12.858-36.513 14.288 40.016-18.831-54.273a5.56 5.56 0 0 0-6.368-3.556c-57.793 11.808-56.076 10.189-57.87 13.258l.001.005z"/><path fill="#0F0F0F" d="M158.973 88.096a10.95 10.95 0 0 0-7.36-3.12c-1.492-.048 2.448-1.08-65.356 12.41a13.235 13.235 0 0 0-6.542 2.454 10.518 10.518 0 0 0-3.962 9.675c.225 1.745 36.666 110.357 37.132 111.2a10.53 10.53 0 0 0 5.75 5.208c3.488 1.317 5.736.518 9.6-.181 55.36-10.032 77.654-15.15 23.794-5.858-30.925 5.336-29.7 5.564-32.752 4.386-3.655-1.408-4.717-4-5.567-6.56C78.3 110.88 77.89 111.097 77.656 109.246a8.604 8.604 0 0 1 3.24-7.885c2.46-1.862-1.685-.656 64.349-13.44 3.592-.694 7.025-1.806 9.872-.206 3.332 1.875 2.164.59 6.697 12.981 40.488 110.667 37.807 104.64 36.511 107.592-1.834 4.187-5.575 4.296-7.487 4.756-19.547 4.714 2.85.472 4.581-.363a8.375 8.375 0 0 0 4.12-10.32c-14.067-41.267-39.547-112.902-40.566-114.265z"/><path fill="#0F0F0F" d="M127.455 215.729a8.044 8.044 0 0 1-7.717-5.782l-5.513-17.224a7.981 7.981 0 0 1 2.921-8.936 7.992 7.992 0 0 1 3.043-1.343l51.796-10.486a8.162 8.162 0 0 1 9.28 5.405c2.968 8.515 1.704 4.496 6.304 17.849a7.81 7.81 0 0 1-.589 6.399 7.821 7.821 0 0 1-5.181 3.8c-6.048 1.285-52.728 10.318-54.344 10.318zm46.12-42.289c-.947 0 2.591-.591-53.062 10.611a6.318 6.318 0 0 0-2.421 1.074 6.35 6.35 0 0 0-2.306 7.119l5.512 17.224a6.456 6.456 0 0 0 7.52 4.49c52.842-10.517 43.444-8.187 52.64-10.141a6.17 6.17 0 0 0 4.098-3.006 6.175 6.175 0 0 0 .466-5.061c-4.612-13.386-3.325-9.31-6.301-17.845a6.55 6.55 0 0 0-6.146-4.465z"/><path fill="#0F0F0F" d="M161.601 204.339a3.544 3.544 0 0 1-3.449-.144 3.547 3.547 0 0 1-1.688-3.013c.764-5.821.572-4.407.932-6.923.192-.386-6.105-4.408-7.03-8.332-.288-1.225.403-2.161.563-2.08.664.207-1.912 1.12 3.568 5.832 2.146 1.845 4.682 3.68 4.675 3.901-.899 8.16-1.163 8.231-.041 8.96.904.581 1.92.413 2.496-1.47.049-.16 2.899-11.288 3.793-15.04 1.581-6.637-1.6-5.539-1.384-6.199-.1-.16 3.868-.756 2.72 6.458-.361 2.274-.843 5.104-1.584 8.098-1.643 6.656-1.608 8.825-3.571 9.952z"/><path fill="#0F0F0F" d="M160.579 181.548c.918-2.305 3.373-2.228 3.326-1.732.013.264-1.177.376-1.76 1.691-.48 1.086.434-1.416-1.176 4.547a2.202 2.202 0 0 1-1.13 1.394 2.207 2.207 0 0 1-2.764-.634c-2.968-3.242-2.861-3.552-3.706-3.731-1.232-.261-2.08.769-2.339.603-.309-.192.522-1.91 2.427-1.96 1.33-.034 2.08.842 3.04 1.797 3.251 3.179 1.965 3.344 4.082-1.975zm-39.228 12.663c-1.06-3.466-1.62-4.855 4.29-6.695 2.744-.854 5.56-.713 5.488-.329-.032.32-1.664-.18-5.12 1.34-5.397 2.372-4.446 1.53-1.304 10.192 1.858 5.12 2.765 9.181 5.322 9.525a8.936 8.936 0 0 0 5.003-1.265 6.475 6.475 0 0 0 3.469-4.96 6.457 6.457 0 0 0-2.156-5.656c-1.081-1.095-1.156-.69-.812-1.962a5.829 5.829 0 0 0-1.824-5.883c-1.336-1.069-2.464-1.12-2.416-1.312-.016-.082 1.148-.367 2.88.662a6.728 6.728 0 0 1 2.72 6.831c-.058.332.176.097 1.313 1.488 4.08 4.987 1.893 11.79-5.136 13.654-7.417 1.968-8.107-3.846-11.717-15.63zm26.389 4.733c1.22-.96-2.088-9.261-2.809-11.179-1.541-4.1 4.064-4.815 2.064-3.592-2.315 1.238-.501 3.612.571 6.059 1.216 2.774 3.571 7.977 1.499 10.104-5.542 4.64-7.309-13.477-7.528-13.88-.374-.688-.83-.979-.753-1.109.083-.251 1.396.274 1.817 1.462.515 1.752 3.501 13.418 5.139 12.135z"/><path fill="#0F0F0F" d="M147.737 206.219c-8.333.504-10.19-10.224-11.336-17.744-.64-2.981 2.688-3.84 2.736-3.41.054.16-.829.234-1.464 1.226s-.339 1.475.546 5.106c.96 3.91 2.385 9.059 5.177 11.475a5.968 5.968 0 0 0 8.875-1.163c.632-.94.983-2.04 1.013-3.172.256-4.16-2.499-11.582-3.283-13.102-.581-1.12-1.28-1.429-1.226-1.562 0-.123.96-.03 1.842 1.138a28.14 28.14 0 0 1 4.434 13.63 7.553 7.553 0 0 1-7.312 7.578h-.002zm-16.419-13.218a2.011 2.011 0 0 0-2.981-.861 2.004 2.004 0 0 0-.728.909c-.416-.32-.8-.39-.879-.244-.174.254.388.936.8 1.865.439.919.591 1.787.896 1.819.16.031.336-.276.38-.756 1.814-.082 2.835-1.421 2.512-2.732zm-1.314 1.28a3.37 3.37 0 0 1-1.216.828 3.319 3.319 0 0 0-.824-1.738c2.24-1.307 2.746.022 2.04.912v-.002zm4.324 6.877a2.019 2.019 0 0 0-1.104-1.322 2.016 2.016 0 0 0-1.721.018 2.017 2.017 0 0 0-.854.798c-.364-.372-.729-.505-.831-.374-.208.226.244.982.515 1.963.295.973.319 1.855.615 1.933.151.054.373-.224.48-.692 1.825.196 3.023-.989 2.9-2.324zm-1.488 1.071c-.39.311-.843.528-1.327.64a3.296 3.296 0 0 0-.555-1.841c2.41-.978 2.704.429 1.881 1.201h.001z"/><path fill="#0F0F0F" d="M218.765 211.577c-1.546-16.145-13.503-42.134-38.741-116.81-4.422-13.055-7.696-20.91-15.448-26.209-9.374-6.441-17.626-4.037-89.39 10.703-7.148 1.465-12.212 2.005-18.19 7.126a20.094 20.094 0 0 0-5.951 8.087c-2.575 8.332.152 21.168 2.277 29.6 4.561 17.83 35.099 102.052 43.537 123.068a16.467 16.467 0 0 0 16.789 9.747c11.2-1.449 86.162-14.345 86.835-14.526 11.653-2.936 19.97-13.696 18.282-30.784v-.002zM66.525 84.741c3.485-2.413 1.865-1.674 28.425-7.076 10.122-2.056 54.466-12.21 64.116-9.334a28.542 28.542 0 0 1 10.732 9.146c4.85 7.488 10.332 27.313 13.794 36.92 22.55 63.541 39.571 106.472 29.488 109.349-19.181 3.884-75.027 14.105-94.258 16.785-11.168 1.6-12.62-6.232-15.112-12.846-5.427-14.389-45.348-117.483-43.027-132.923a13.264 13.264 0 0 1 5.842-10.021zm120.141 156.758c-79.2 13.731-76.056 13.901-81.484 10.762-5.382-3.055-6.163-7.54-9.13-15.245-43.914-115.781-54.76-142.16-31.76-152.48-10.953 9.213-3.52 26.842 13.078 75.946 11.585 33.411 27.145 74.521 28.694 76.678a12.707 12.707 0 0 0 12.973 5.526c15.401-2.203 95.238-17.683 95.4-17.715-4.821 15.128-17.859 14.741-27.771 16.528z"/><path fill="#fff" d="M97.642 135.508c1.233 3.33 2.654 7.322 6.453 8.429a6.502 6.502 0 0 0 6.216-1.537c.731 9.19.64 10.262 1.491 11.488a2.215 2.215 0 0 0 2.91.8c-2.918 2.044-6.424 13.612-4.513 18.972a4.76 4.76 0 0 0 4 .76c59.129-12.624 54.924-11.721 56.233-12.64-.52-4.289-3.36-9.033-9.84-12.504-1.816-.974 1.469-1.75-1.587-8.441a46.832 46.832 0 0 0-2.581-5.091c-1.589-2.589.386-2.349 1.016-3.884a4.88 4.88 0 0 0-2.669-5.99c2.196-2.456 4.656-3.011 3.41-8.338-1.234-5.265-4.613-9.164-9.891-7.14-.722-2.445-3.247-3.784-5.295-5.3-.556-.414-.574-.63-.433-1.28a7.677 7.677 0 0 0-.608-5.21c-1.031.203-.733.446-1.013-.981-1.478-.8-2.386 0-3.162 1.385-3.932 7.006-.756 2.026-2.192-1.533a1.762 1.762 0 0 0-1.619-1.267 1.762 1.762 0 0 0-.717.122c-3.68.78-4.497 4.48-14.184 11.404-5.883 4.207-15.582 7.242-14.096 17.432-4.444-.932-9.779 3.732-7.33 10.344z"/><path fill="#0F0F0F" d="M151.425 157.908c-3.008 1.41-4.621 3.599-9.504 4.584-4.258.861-6.97-.353-10.66 0-6.801.661-7.27 7.882-6.576 7.68.264.011.48-5.977 6.687-6.598 3.385-.339 6.438.857 10.761-.021 7.802-1.586 10.652-8.578 16.151-3.453 1.374 1.28 2.009 2.338 2.158 2.24.359-.176-3.161-7.176-9.016-4.432h-.001z"/><path fill="#0F0F0F" d="M160.696 148.502c.977-4.974-1.464-10.379-4.365-14.486a4.606 4.606 0 0 0-.65-8.231c7.451-4.48 1.095-19.811-6.785-16.016a16.997 16.997 0 0 0-3.695-4.045c-2.264-1.744-1.907-.582-1.851-2.862.15-6.24-4.282-8.78-6.861-2.528a12.573 12.573 0 0 0-.307-2.72 2.802 2.802 0 0 0-1.459-1.91 2.79 2.79 0 0 0-2.402-.07c-2.249.8-3.664 2.77-5.371 4.348-8.986 8.31-15.53 11.36-18.4 13.669a11.172 11.172 0 0 0-4.286 11.029c-6.007-.52-12.103 5.88-4.999 16.392 3.271 4.764 8.056 4.884 10.4 2.528.33 2.761.502 5.539.514 8.32a3.515 3.515 0 0 0 3.209 3.404c.522.023.136-.272-1.28 2.186-3.616 6.133-2.732 12.549-2.24 12.514.727-.052-.12-8.535 6.439-15.408.55 6.708 7.251 7.246 8.846-1.588a8.655 8.655 0 0 0 11.469 3.856c9.109 5.103 20.915.64 23.68-6.926 5.982 2.317 8.89 9.574 9.29 9.469.993-.195-2.144-8.867-8.895-10.925h-.001zm-6.341-23.253c-1.615-.549-1.373-.416-1.427-.931 3.02-1.693 3.171-7.811-.951-8.074-.8 0-.353.368-1.035-1.92a1.715 1.715 0 0 1 1.528-.32c.48.104.734.284.778.226.192-.176-1.296-1.221-2.5-.517a15.9 15.9 0 0 0-1.262-2.95c6.621-2.055 11.202 10.797 4.869 14.486zm-1.546-1.84c-.264-1.771-.817-4.555-1.185-6.328 3.182-.022 3.224 4.45 1.185 6.328zm-3.667-9.75c1.09 2.72 2.198 7.965 3.36 10.899-3.141-1.371-1.485-2.63-3.616-4.048.253-2.67-1.6-6.528-2.658-8.186 2.512.146 1.773-1.542 2.914 1.335zm-42.861 5.701c1.984-5.492 6.741-5.28 18.119-14.916 5.321-4.49 7.868-8.563 9.771-7.504 2.784 1.17-.194 14.519 1.76 7.767.741-2.607-.173-1.76 2.064-5.176 1.76-2.65 4.013-1.642 3.782 3.285-.105 2.24-.422 2.224.773 3.064a16.771 16.771 0 0 1 5.28 5.187 12.22 12.22 0 0 1-2.352.241c-4.307-4.932-8.827-.096-12.858 1.482-6.04 2.418-12.24 2.811-14.539 5.954a42.105 42.105 0 0 1-12.089 6.34 10.68 10.68 0 0 1 .289-5.724zm.213 12.64a90.437 90.437 0 0 1 2.011 6.355 2.794 2.794 0 0 1-2.573.465c-2.712-.868-3.017-6.112.562-6.82zm2.904 10.203a4.62 4.62 0 0 1-5.88.872c-2.286-1.232-3.829-4.099-5.096-7.12-2.6-6.365 1.698-10.362 6.069-10.107 1.401 6.145 2.667 4.26-.706 4.625-3.777.36-3.456 4.272-3.025 4.093.214.018-.848-3.867 4.808-3.339.134.013.204.115.096.096-3.514.728-3.744 7.184 0 8.347a3.595 3.595 0 0 0 3.067-.47c.289.984.512 1.984.665 2.998v.005h.002zm-3.221-16.32a32.794 32.794 0 0 0 6.522-2.447c5.912-2.99 4.32-4.32 4.109-.608-.133 3.442.355 7.84 2.616 10.455a35.415 35.415 0 0 1-8.48 8.227c-1.436-7.032-3.903-12.171-4.767-15.632v.005zm29.477 28.694c-11.715-8.848-3.23-20.832-3.722-21.131a16.645 16.645 0 0 0-3.172 13.165 15.717 15.717 0 0 0 6.331 9.323 7.999 7.999 0 0 1-6.229-.909 7.992 7.992 0 0 1-3.638-5.137c-.418-2.199-.586 1.073-1.216 3.03-.5 1.491-1.719 4.422-3.176 5-1.565.624-2.66-1.224-2.901-2.928-.8-5.136-.087-1.92.846-6.787.215-1.237.146-1.936.043-1.947-.102-.01-.267.651-.659 1.792a12.413 12.413 0 0 1-2.057 4.043v.037c-2.04 2.753-4.205 2.193-4.45-.41a49.381 49.381 0 0 0-.557-9.37 24.314 24.314 0 0 0 8.927-8.448 6.374 6.374 0 0 0 3.74 1.72c2.266.144 3.44-1.44 4.946-2.8.491-.456 1.019-.88 1.486-1.388a2.752 2.752 0 0 0 1.629 1.792c2.763.985 5.251-.917 6.535-1.215 1.956-.451 3.028 1.573 3.246 1.394a3.112 3.112 0 0 0-3.406-2.293c-1.428.173-3.924 1.728-5.842.866a1.99 1.99 0 0 1-.654-2.612c.852-2.344 4.528-3.864 6.785-5.172 2.818-1.632 5.575-3.004 8.203-2.808 1.3.011 2.104.63 2.24 1.628.33 2.44-2.124 3.554-3.147 4.492a2.429 2.429 0 0 0-.618 3.097c.188.334.451.62.77.834.144-.064-.32-.679-.432-1.738-.169-2.088 4.253-2.059 4.749-5.95 1.558 2.865 8.205 2.72 6.664 7.243-1.165 3.41-20.93 9.894-22.96 18.026-.234.931-.32.88.277.072 3.027-4.096.265-1.044 6.526 2.257 8.68 4.56 18.307-2.064 12.768-11.336a3.779 3.779 0 0 0 1.392-3.389c-.043-1.888-.441-1.39.227-1.8 12.932 19.056-7.897 27.455-19.494 19.757zm16.874-6.112c-2.415 3.093-6.72 3.341-10.356 1.888 2.023-3.221 8.952-4.104 10.356-1.888zm-10.213-6.47c2.03-1.28 3.721-2.208 5.827-3.322.96 1.383-.264 3.659-1.67 4.227a4.03 4.03 0 0 1-4.157-.905zm6.779-3.824c1.662-.875 3.325-1.747 4.96-2.698.488 4.592-2.931 5.459-4.96 2.698zm-11.698 8.899a12.955 12.955 0 0 1-.713-.822 30.45 30.45 0 0 1 4.621-3.597 3.079 3.079 0 0 1-.302 3.67 3.078 3.078 0 0 1-3.606.749z"/><path fill="#92FCFF" d="M153.423 30.08c12.464 6.88 14.82 12.16 12 26.544a36.538 36.538 0 0 1-21.805 26.384 14.603 14.603 0 0 1-11.45.392c-19.091-5.848-21.421-15.576-15.462-32.872 4.39-12.731 17.595-21.936 24.417-22.52 4.186.015 8.341.714 12.301 2.072h-.001z"/><path fill="#0F0F0F" d="M167.857 44.211c-3.421-11.638-21.219-26.128-39.464-11.629-12.392 10.04-22.603 34.821-10.472 44.83 4.448 3.575 14.92 8.59 19.709 8.545 17.34-.091 33.58-26.99 30.227-41.746zm-2.344 3.023c-2.325-1.258-3.483-1.716-3.647-1.879-1.582-.931-3.52-2.206-4.872-2.84a15.485 15.485 0 0 0-4.16-11.445c5.896 2.914 12.767 9.71 12.679 16.163zM117.281 73.48c-4.867-7.738-2.183-18.666 1.821-26.432 7.412-14.383 22.472-21.986 30.961-16.506 17.227 10.931-11.96 65.963-32.782 42.938zm10.219 6.758a17.762 17.762 0 0 0 10.965-2.948 71.712 71.712 0 0 0 6.675 3.983c-6.784 3.34-10.739 2.167-17.637-1.035h-.003zm19.816-.16c-3.728-.662-4.728-.894-7.141-4.029a39.415 39.415 0 0 0 6.738-7.121c4.128 2.115 2.163.008 7.933 4.66a33.172 33.172 0 0 1-7.527 6.484l-.003.006zM156.161 72c-6.893-3.064-2.791-.97-8-4.82a56.232 56.232 0 0 0 5.654-10.475c6.25 2.994 3.24 1.065 8.379 5.16A46.798 46.798 0 0 1 156.162 72h-.001zm6.809-12c-6.72-3.02-4.441-2.462-8.372-5.296a39.263 39.263 0 0 0 2.305-10.064c4.423 1.096 5.211 1.677 8.554 4.926A37.205 37.205 0 0 1 162.967 60h.003z"/><path fill="#0F0F0F" d="M146.614 60.282c-9.332 16.182-21.95 16.454-26.227 10.598-5.998-8.203 2.4-24.451 3.087-24.057.16.092-7.716 15.664-2.01 23.235 2.67 3.542 9.738 4.566 16.867-1.907 11.221-10.181 17.511-32.125 4.391-34.216-5.656-.903-9.495 1.899-13.026 5.31a64.744 64.744 0 0 0-6.099 7.374c1.271-3 3.119-5.721 5.44-8.01 13.899-14.594 31.374-2.252 17.577 21.673z"/><path fill="#0F0F0F" d="M143.554 41.92c1.37-1.6 1.309-3.439.901-3.504-.378-.063-.875.971-1.579 2.121-.504.828.086.557-2.346-.8 2.224-3.14.79-4.094-1.2-.612-1.091-.504-1.291-.464-1.778-.756-1.44 2.296-3.939 7.68-6.379 11.616-.16.16-6.025 8.976-7.117 11.338 1.9.904 1.624.58 1.303 1.203-.941 1.824-.746 4.394 1.213.624.32-.624.123-.55.761-.2 2.08 1.14 2.112.576 1.816 1.101-2.033 3.712-.021 2.87 1.191.664.42-.75.16-.618.651-.573 6.621.663 9.581-6.997 7.187-11.872-.445-.845-.608-.627.118-.675 5.568-.432 8.877-5.802 5.258-9.675zm-15.962 18.09a70.24 70.24 0 0 1 4.488-9.233 9.975 9.975 0 0 1 4.413 2.532c3.175 4.275-.8 13.328-8.901 6.7zm10.711-10.39a17.355 17.355 0 0 1-4.512-1.398c1.648-2.352 3.485-4.74 4.816-6.584 1.909.621 4.256 1.365 4.944 3.2.973 2.44-1.6 5.264-5.248 4.784v-.001z"/><path fill="#92FCFF" d="M61.164 145.28c23.68-6.456 5.76-61.549-19.765-53.82a36.799 36.799 0 0 0-14.24 9.681c-4.43 5.297-4.48 9.587-3.608 14.976a57.809 57.809 0 0 0 8.577 22.414c2.856 3.901 10.03 11.08 16.144 11.533 6.6.496 14.25-6.168 12.892-4.784z"/><path fill="#0F0F0F" d="M61.692 127.762c4.592-4.757-.933-12.4-6.343-12.629 3.274-4.911-.043-10.4-4.846-9.946-.58-1.998-2.109-2.955-2.4-2.661-.291.295.334 1.351 1.085 2.924-2.456.708-1.959.996-2.224.393-1.416-3.2-2.648-2.249-1.063.941-.897.48-1.23.859-1.552 1.013 0 .017 4.418 7.931 6.08 11.481 6.416 13.698 4.8 12.32 6.837 11.096 1.007 2.362 3.767 3.788 1.213-.544a10.284 10.284 0 0 0 2.17-1.172c2.073 4.23 2.73 1.779 1.043-.896zm-11.264-11.583c-1.023-2.589-1.97-5.347-2.754-7.427a18.021 18.021 0 0 1 2.607-1.552 3.491 3.491 0 0 1 4.849 2.007c.213.629.243 1.306.085 1.951-.493 2.602-2.818 3.776-4.787 5.021zm6.321 11.463a70.652 70.652 0 0 1-5.144-8.664 8.586 8.586 0 0 1 4.357-1.784c5.4.166 10.175 8.308.787 10.448z"/><path fill="#0F0F0F" d="M41.619 122.04c-10.616-24.678 8.692-37.61 20.84-14.109a13.502 13.502 0 0 1 1.6 3.935c-.119.053-.748-1.32-2.156-3.624-9.85-16.13-20.64-13.232-21.617-1.989-.975 11.171 8.81 32.493 19.753 30.781 4.045-.64 5.64-4.687 6.272-8.704 1.504-9.544-2.39-15.04-1.75-15.288a18.867 18.867 0 0 1 1.731 3.883c7.323 22.858-12.965 32.334-24.673 5.115z"/><path fill="#0F0F0F" d="M73.193 122.191c-2.464-18.463-15.52-36.96-32.61-31.863-6.156 1.84-15.937 8.714-17.908 14.832-5.643 16.6 15.416 54.935 34.646 44.011 9.056-5.003 18.394-7.393 15.872-26.98zM36.221 95.075c3.85-2.156-2.386.252-2.72 11.52-.618.344.676-.48-9.376 6.309-.284-6.232 1.177-11.531 12.096-17.829zm-11.9 20.184c3.477-3.868 4.447-4.64 9.178-6.4a44.07 44.07 0 0 0 1.584 10.511c-1.262.789-2.987 2.181-4.416 3.213-.16 0-3.787 2.419-3.947 2.529a45.417 45.417 0 0 1-2.399-9.853zm9.637 23.597a53.842 53.842 0 0 1-6.49-11.757c3.108-3.588 3.72-4.16 8.204-5.76a41.747 41.747 0 0 0 5.307 10.898c-3.014 3.936-2.208 4.216-7.029 6.619h.008zm1.21 1.515c1.688-1.542 2.963-3.054 3.125-3.054 1.292-1.096 3.052-2.365 4-3.307a28.311 28.311 0 0 0 8.521 7.377c-3.096 4.16-3.171 4.031-7.624 5.674a29.083 29.083 0 0 1-8.03-6.69h.008zm21.029 6.776a12.352 12.352 0 0 1-10.767.909c.904-.697 1.909-1.555 2.778-2.24 5.152-3.619 4.688-3.257 4.331-3.569 9.565 4.289 13.971-1.394 3.65 4.9h.008zm-1.548-5.641c-19.008-6.946-25.734-41.21-13.49-48.578 29.05-8.545 42.865 60.391 13.482 48.578h.008z"/><path fill="#92FCFF" d="M262.69 195.659c8.527-8.538 12.045-15.666 6.184-25.317-3.497-5.76-6.609-12.049-12.64-15.053-8.469-4.216-18.686-8.427-27.157-2.854-3.852 2.533-16.576 16.576-11.409 26.603 3.141 6.099 6.336 11.698 11.32 16.411 6.609 6.25 15.2 9.9 24.16 8.8 6.779-.841 7.19-6.236 9.542-8.59z"/><path fill="#0F0F0F" d="M259.494 179.2c-.593-.499-.52-.232-.352-.736 1.951-5.609-4.8-9.819-9.939-9.037-1.035.184-.864.45-.752-.308.694-5.029-3.984-8.932-8.352-6.733-1.28-1.6-3.07-1.92-3.219-1.535-.147.354.749 1.055 1.733 1.941.603.539.452 0-1.264 1.717-2.607-2.702-3.765-1.47-.898 1-.614.774-.866 1.318-1.035 1.507 1.936 1.797 6.645 5.149 9.976 8.2.309.16 6.909 7.018 9.518 8.912 1.211-1.632.8-1.425 1.44-.928 1.698 1.338 4.029 1.453.842-1.07-.426-.335-.424-.189-.066-.551 1.581-1.59 1.003-1.742 1.49-1.336 3.126 2.588 2.825.576.878-1.043zm-18.835-14.88c2.989-2.973 7.403.357 5.861 4.371a13.75 13.75 0 0 1-2.315 3.68c-1.92-1.976-3.84-4.136-5.348-5.74a16.908 16.908 0 0 1 1.802-2.311zm13.742 16.16a70.885 70.885 0 0 1-8.035-5.981 8.228 8.228 0 0 1 3.333-3.153c5.064-1.781 12.542 3.854 4.702 9.134z"/><path fill="#0F0F0F" d="M272.641 177.194c-4.745-23.168-36.64-40.33-51.792-18.592-11.277 16.027-4.582 24.641 8.8 38.537a29.481 29.481 0 0 0 9.56 6.061 37.045 37.045 0 0 0 15.063 2.542c5.03-.568 6.88-4.444 12.107-11.68 4.342-6.062 7.721-9.716 6.262-16.868zm-4.529-4.941c3.56 7.773 2.531 11.2-.919 16.224-12.6 15.854-37.969-5.57-42.349-19.389-7.057-22.79 30.061-25.779 43.26 3.165h.008zm-44.716-12.96a18.099 18.099 0 0 0 .871 12.539c-2.349 5.368-1.69 4.456-5.44 8.251-3.279-7.361-.299-14.379 4.561-20.792h.008v.002zm-3.552 22.825c.655-1.043 2.317-4.259 2.78-4.723.811-1.064 1.9-2.28 2.708-3.317a39.655 39.655 0 0 0 5.512 7.736c-2.08 3.138-.267 2.38-5.6 8.012a50.718 50.718 0 0 1-5.403-7.709l.003.001zm6.744 9.29c.26-.461 1.981-3.888 2.367-4.272.99-1.346 2.544-2.765 3.385-3.725a54.727 54.727 0 0 0 8.44 7.003c-1.744 4.738-1.708 4.669-5.662 8.431a40.754 40.754 0 0 1-8.538-7.439l.008.002zm10.364 8.454c1.308-1.974 2.43-4.32 2.592-4.32.912-1.312 2.161-2.849 2.948-4.027a26.003 26.003 0 0 0 9.527 3.919c-1.866 4.344-1.259 3.422-4.61 7.64a33.572 33.572 0 0 1-10.465-3.213l.008.001zm24.115-2.72c-4.218 5.935-4.771 6.752-11.631 6.164 2.22-5.324 2.098-3.757 4.816-7.616 9.165.5 12.309-6.333 6.807 1.446l.008.006z"/><path fill="#0F0F0F" d="M237.601 182.043c-12.386-10.602-12.877-24.64-4.496-27.173 11.226-4.221 23.2 6.752 22.899 7.091-.301.34-11.817-10.059-22.422-5.822-8.898 2.656-5.392 20.912 14.158 31.01 12.291 6.347 25.6-2.285 11.962-20.898-1.661-2.266-2.824-3.336-2.733-3.434.515-.64 13.027 12.64 8.725 22.196a11.324 11.324 0 0 1-5.511 4.897c-8.224 2.89-15.787-2.048-22.582-7.867z"/><path fill="#FDFE1F" d="M270.391 17.86c-22.72 12.015-42.976 5-50.08-9.086a29.898 29.898 0 0 1-25.635 32.32c-4.389.7-13.12.397-15.736-1.51-5.717-4.174-4.466-3.784-4.16-1.472.083.632-.088-.662.048 5.44.185 8.362.488 10.05-.112 16.256-1.111 11.458-4.186 14.616-7.732 20.032-4.438 6.784-8.208 10.608-21.772 14.184 3.716 1.83 8.571 1.514 11.302 4.832 9.834 11.941 14.301 13.853 14.264 32.054 0 1.856-.219 3.716-.235 5.554a29.56 29.56 0 0 1-.171 5.85c-.33 1.6-.96 3.092-1.253 4.681-1.138 6.211-4.96 7.379 5.201 1.904 1.701-.917 6.08-.728 4.844-.827a23.853 23.853 0 0 1 16.232 1.133 10.458 10.458 0 0 1 4.918 3.52c6.08 6.176 3.851 3.04 6.475 7.701a19.46 19.46 0 0 0 2.32 3.409c1.259-5.88 2.821-8.982 8.48-13.464 10.968-8.675 20.394-7.504 21.554-8.813 4.131-1.318 9.696 1.175 14.15 1.68a6.87 6.87 0 0 1 3.293.944c4.218 2.13 5.792 2.892 7.2 3.76 3.957 2.434 1.6 2.484 2.534-2.19 4.312-21.451 31.119-25.222 31.597-25.44 2.903-1.28 8.395 2.467 3.371-2.118-8.881-8.109-7.92-27.6-5.675-39.244.613-3.179.187-2.416.631-3.568a83.302 83.302 0 0 1 3.915-8.25c0-1.12-6.151-1.44-9.517-3.327a24.947 24.947 0 0 0-2.168-1.247c-.891-.387-1.869-.523-2.792-.822-2.947-.952-4.429-3.269-6.587-5.243a26.32 26.32 0 0 1-2.699-2.389c-16.447-19.44-5.636-30.608-5.751-35.85-.261.146.015-.537-.254-.395z"/><path fill="#0F0F0F" d="M303.873 120.268c-9.467-9.782-9.938-32.895-6.373-45.671 3.106-11.501 6.4-5.802-6.296-11.3-16.946-7.424-24.029-21.8-22.058-36.121 1.6-11.856 6.346-10.592-5.996-6.944C228.548 30.228 221.727 7.328 220.239 8c-.685.032.195 9.504-5.781 19.328-3.726 6.048-9.292 11.083-20.726 13.081-12.869 2.128-18.576-5.067-19.227-4.137-1.451.096 2.363 20.915-4 36.246-8.48 19.813-27.277 20.88-27.227 21.67-.16.836 10.4 1.27 18.232 11.168 7.894 9.853 9.744 24.768 7.68 37.196-1.69 10.344-4.085 11.648-.292 9.724 12.735-6.4 23.074-4.22 32.138 2.592 6.066 5.149 7.645 10.3 8.344 10.032.69-.011-.035-4.291 3.65-9.136 4.96-6.948 19.232-13.648 33.52-12.809 13.534.872 18.852 7.606 19.52 6.797.47 0 .465-2.56 2.24-7.386 3.451-8.683 12.035-15.504 20.288-18.56a40.465 40.465 0 0 1 7.924-2.24c6.216-1.069 8.688.083 7.351-1.296v-.002zm-7.584-.614c-4.039.029-11.402 2.024-18.128 6.683-8.859 5.994-13.005 15.595-12.471 21.269.149 3.896 1.367.226-7.886-4.219-19.611-9.264-48.502 3.584-48.8 18.697-.054 1.653.454.34-2.458-4.312-11.504-15.632-29.852-13.662-38.24-6.379-1.6 1.403.751-.12 2.767-8.462 4.341-17.811-1.579-39.68-17.138-46.512-9.049-4.22-9.133-.123.256-4.032 11.978-5.072 20.816-16.077 22.139-33.28a88.47 88.47 0 0 0-1.555-22.307c9.323 11.49 40.549 8.513 45.632-18.666a34.26 34.26 0 0 0 .455-7.84 24.848 24.848 0 0 0 6.518 8.678 18.725 18.725 0 0 0 4.301 2.884c12.216 6.742 30.48 2.905 38.893-3.327-6.954 9.783-5.77 30.531 10.208 41.65 7.308 5.1 16.352 7.1 19.169 6.656-9.203 7.36-10.685 43.867 2.08 53.016.896.664-.517-.551-5.742-.197z"/><path fill="#fff" d="M207.807 73.736c-4.462-5.28-9.653-12.426-14.24-13.788a10.85 10.85 0 0 0-6.258-.46c-5.206 1.843-7.452 7.888-8.58 13.296-1.28 6.175-3.756 24.703-.703 30.156a7.916 7.916 0 0 0 14.755-2.86 7.883 7.883 0 0 0-.267-3.268 7.883 7.883 0 0 0-1.568-2.88 10.793 10.793 0 0 0 7.909-1.742 23.386 23.386 0 0 0 3.602 4.694c2.979 3.004 5.009 2.856 8.168.9 2.964-1.836 4.369-3.34 4.611-6.913.445-6.375-3.301-12.26-7.429-17.135zm-13.406 5.908c-.96 1.376-.32 3.49-4.562 2.523a.913.913 0 0 1-.656-.86c-.024-1.84-.48-4.42 1.232-4.703 1.712-.283 2.75.844 3.84 1.959a.911.911 0 0 1 .146 1.082z"/><path fill="#fff" d="M208.105 51.49c-11.52 6.746 1.816 29.065 10.993 36.574 2.768 2.265 4.588 2.65 7.68 1.294a7.49 7.49 0 0 0 4.596-9.12 24.116 24.116 0 0 0-3.146-7.165c17.662-12.45 6.115-36.94-20.123-21.582zm15.885 9.014c-.493 1.528-3.68 2.846-4.565 3.006a1.496 1.496 0 0 1-1.6-1.14 7.912 7.912 0 0 0-1.192-.985.903.903 0 0 1-.319-1.211.907.907 0 0 1 .319-.328c1.651-.8 3.174-2.251 5.155-1.86 1.168.234 2.656 1.108 2.202 2.518z"/><path fill="#fff" d="M234.866 48.36c.16 1.57.259 1.556 6.624 17.939 5.771 14.853 10.001 14.496 17.219 13.309a6.7 6.7 0 0 0 4.16-1.732 7.538 7.538 0 0 0 5.361-1.838c8.02-6.307 3.89-14.08-3.52-13.03a20.626 20.626 0 0 0-7.688 3.395 22.48 22.48 0 0 0-1.555-3.091c1.824-.922 3.799-1.501 5.691-2.272 9.679-3.948 7.652-11.962.978-12.613-5.038-.493-10.648 2.848-12.589 3.811l-1.312-3.2c21.075-4.336 9.92-21.368-7.984-12.525.071-.163-5.905 6.653-5.385 11.847zm-50.431 72.12c4.72-1.45 16.203-1.711 12.274 4.741-3.48 5.713-11.652 10.5-16.429 7.06-4.778-3.44-.717-10.304 4.155-11.801zm29.101-7.088a18.83 18.83 0 0 0-3.528-4.813 23.051 23.051 0 0 0-4.13-4.419c-3.112-2.151-6.88-1.184-7.344 2.902-.746 6.527 6.386 29.843 8.818 32.672a8.013 8.013 0 0 0 8.78 1.418 7.783 7.783 0 0 0 4.336-8.042c-.24-1.533-6.052-17.52-6.932-19.718zm36.03 11.385c-6.584 2.709-8.93-.768-14.445-3 .437 3.048 3.482 4.395 1.215 7.991-3.101 4.916-7.764 5.529-11.824 2.988-5.071-3.171-6.56-9.652-8.292-14.72-1.211-3.547-2.736-7.075-2.88-10.82-.32-8.519 6.533-12.904 15.73-7.541.438-1.771.134-3.648.45-5.44a7.989 7.989 0 0 1 6.892-6.524 7.967 7.967 0 0 1 3.348.308c4.568 1.44 6.638 6.197 8.758 10.043 4.827 8.754 10.306 22.912 1.048 26.715z"/><path fill="#fff" d="M274.784 90.502a6.885 6.885 0 0 0 .451-8.891c-6.584-10.18-24.037 1.617-23.84 17.073a20.644 20.644 0 0 0 12.182 18.888c10.227 4.207 25.531-6.097 23.149-17.452a9.686 9.686 0 0 0-7.84-7.66c-2.936-.36-5.128 1.074-7.779 1.815.385-1.424 2.734-2.595 3.677-3.773z"/><path fill="#0F0F0F" d="M198.225 121.977c-.688-5.44-17.899-4.246-20.67 3.344-2.062 5.586 3.258 11.139 11.101 8.053 4.625-1.802 10.555-6.586 9.569-11.397zm-16.344 9.039c-3.497-1.86-3.283-7.492 5.589-9.538 2.136-.494 8.781-1.368 9.027.782.56 4.892-9.976 11.2-14.616 8.756zm34.525-42.282c-.749-7.532-10.443-20.366-15.144-24.819-9.686-8.99-19.4-6.355-22.88 3.982a103.864 103.864 0 0 0-3.155 20.026c-.32 5.904-.493 13.93 3.613 18.214 5.664 5.794 17.129.876 14.003-10.433a11.631 11.631 0 0 0 5.659-2.315c4.557 12.46 19.09 5.56 17.904-4.655zm-2.867 3.93c-2.158 5.808-10.192 8.584-13.6-.54 2.47-2.495 4.118-6.33 3.488-6.705-1.349-.8-4.48 7.7-14.005 8.253-1.76.107-2.937-.022-3.073.355-.119.32.897 1.149 2.923 1.565a9.85 9.85 0 0 0 1.745.198c2.541 9.427-6.459 13.173-10.52 8.735-5.355-5.853-1.718-29.175.447-35.781 2.55-7.906 9.056-9.15 14.669-5.834 6.595 3.813 15.52 17.466 17.355 22.095a10.143 10.143 0 0 1 .571 7.659z"/><path fill="#0F0F0F" d="M197.799 77.715c-.083-.35-1.552-.3-3.006.832-.8-2.255-4.066-4.31-5.455-2.381a8.066 8.066 0 0 0-.665 5.733c-2.095.545-2.944 2.32-2.592 2.53.515.358 1.374-1.52 4.67-1.022 2.898.404 4.599 1.877 4.835 1.44.237-.436-.024-.64-.116-.619a5.724 5.724 0 0 0-1.797-1.513c.445-.881.998-1.703 1.646-2.447 1.211-1.312 2.64-2.107 2.48-2.553zm-4.891 4.614a7.199 7.199 0 0 0-3.333-.589c.712-3.918.355-6.352 3.773-3.52 1.056.893.926.77.771.931-.41.418-.729.916-.937 1.463a4.236 4.236 0 0 0-.274 1.715zm32.121-23.082c-.96-3.852-7.52-2.496-9.735.97-1.486-.394-2.56.134-2.497.4.084.53 1.88.173 3.966 2.326 1.802 1.799 1.909 3.972 2.346 4.032.48.08.569-1.454.387-2.3 2.811-.48 6.208-2.784 5.533-5.43v.002zm-1.631 1.207a7.137 7.137 0 0 1-4.253 3.157 6.119 6.119 0 0 0-2.739-2.957c2.685-2.797 7.899-2.71 6.992-.2z"/><path fill="#0F0F0F" d="M235.936 52.908c-4.624-9.03-17.194-8.32-26.333-3.791-3.89 1.968-6.923 4.16-7.472 8.65-1.066 8 7.584 21.903 12.198 27.666 4.514 5.56 9.712 8.381 15.541 4.171 5.642-4.16 3.68-10.25-.115-16.175 7.834-5.487 9.306-14.6 6.181-20.52zm-5.855 32.532a6.586 6.586 0 0 1-4.186 3.23 6.594 6.594 0 0 1-5.214-.882c-5.12-3.29-11.939-15.53-13.681-19.321-5.144-11.182-1.859-14.478 3.621-17.336 23.304-11.925 33.6 10.24 16.726 21.505-4.131 2.72-8 3.716-7.874 4.264.172.736 4.991-.502 7.96-2.062 1.946 3.04 4.341 7.42 2.648 10.602z"/><path fill="#0F0F0F" d="M272.962 65.104c-3.261-5.397-10.437-3.264-15.865.06a5.61 5.61 0 0 0-.62-1.474c5.28-1.344 12.032-4 11.871-9.42-.52-9.28-10.658-7.73-18.613-2.699-.031-.176-.414-1.771-.576-1.771 6.218-1.109 13.288-5.072 11.382-11.115-2.974-9.44-24.177-6.63-26.829 5.315-1.497 6.926 6.01 23.504 9.005 29.229 1.733 3.245 3.832 6.21 7.264 7.584 9.458 3.737 29.015-6.288 22.981-15.71zm-1.315 4.28c-.653 4.891-7.535 7.53-12.28 8.918-7.41 2.043-11.066-.184-14.258-6.34-2.742-5.28-10.08-21.545-8.8-27.413 1.243-5.706 7.116-8.16 12.884-8.96 11.579-1.655 13.815 9.944-1.17 12.596-1.72-1.791-3.783-1.942-3.871-1.574-.14.429 2.295 1.36 3.541 3.912 1.28 2.54.533 5.04.96 5.187.48.216 1.075-1.547 1.155-2.515 3.378-1.76 8.412-3.944 12.178-3.509a4.73 4.73 0 0 1 3.691 6.72c-1.76 3.02-6.932 4.874-10.222 6.03-1.957-1.76-4.8-1.234-4.816-.833-.194.86 6.595-.288 4.673 8.773-.256 1.683 1.761-.568 1.961-3.232 3.099-1.81 8.017-4.16 11.436-2.85a4.738 4.738 0 0 1 2.931 5.088h.007v.002zm-50.864 58.426c-1.481-4.912-7.422-17.252-10.364-20.869-2.05-2.544-5.407-5.6-8.564-4.76-5.166 1.389-4.865 6.705-3.82 11.827 1.249 6.162 4.366 22.488 8.846 26.792a8.963 8.963 0 0 0 11.485.565c4.267-3.195 3.865-8.48 2.417-13.555zm-1.71 6.668a6.117 6.117 0 0 1-7.909 5.751c-4.629-1.163-6.616-8.184-11.027-26.685-.902-3.744-1.858-8.502 2.114-9.539 6.456-1.243 17.11 23.368 16.822 30.473z"/><path fill="#0F0F0F" d="M255.759 113.823c-1.065-6.72-8.112-23.397-14.08-26.765-5.979-3.456-13.422 1.719-13.44 8.71-.027 3.863 1.869 2.094-4.64.423a8.925 8.925 0 0 0-6.888.517c-8.71 4.81-2.95 20 1.147 29.834 7.058 16.88 24.196 7.123 19.69-2.167 12.834 5.991 19.733-.841 18.211-10.552zm-2.937 5.635c-2.826 8.578-15.05 3.008-22.506-2.115-3.462-2.377-5.374-4.189-5.686-3.923-.26.221 1.193 2.56 4.504 5.44 4.846 4.222 4.576 2.493 6.198 5.518 2.261 4.367-1.587 8.471-5.56 8.517-3.786-.027-6.88-1.019-9.4-7.408-2.123-5.088-6.776-17.229-5.21-22.48 2.6-9.307 14.508-2.278 21.732 4.288 3.185 2.901 4.846 5.031 5.195 4.813.675-.421-3.882-8.054-11.791-12.97-1.56-7.52 5.44-12.408 10.055-9.705 5.149 2.814 14.669 23.185 12.469 30.025z"/><path fill="#0F0F0F" d="M287.766 99.856a9.493 9.493 0 0 0-8.504-8.31c-4.59-.529-5.528 2.372-3.275-.737 3.51-4.942 2.456-10.4-2.011-12.947-5.663-3.392-16.523-.66-21.882 11.168-5.854 12.877.952 27.591 13.8 30.544 13.101 3.095 24.087-9.344 21.872-19.72v.002zm-6.337 12.16c-8.92 9.664-22.666 5.089-27.157-5.527-6.751-15.47 9.089-31.728 18.369-26.32 3.567 2.024 3.703 5.932 1.488 9.365-2.417 3.738-5.979 4.935-10.334 5.738-1.76.3-2.778.437-2.778.64s1.005.401 2.864.42c3.879-.038 3.244-.939 1.237 1.412a7.022 7.022 0 0 0-1.472 7.446 7.027 7.027 0 0 0 6.154 4.445c5.067.331 8.537-4.613 7.758-5.139-.577-.391-3.318 3.272-7.608 2.965-5.662-.428-8.16-8.79 5.195-13.703 9.106-3.133 14.532 9.255 6.284 18.263v-.007.002z"/><path fill="#fff" d="M67.21 236.189c-.494-4.503-1.974-26.24-.448-29.6 1.46-3.215 12.541-10.061 17.096-18.259 2.152-3.872 3.978-10.773 9.427-12.37 5.824-1.706 10.418 3.36 13.957 7.84a17.045 17.045 0 0 1 4.48 9.954c2.016 12.225 1.968 17.032-6.761 34.208 15.264 8.622 21.944 25.256 21.107 25.92-.16.128-.405-.216-.203-.248a20.953 20.953 0 0 1 2.579 6.316c.71 3.133-.896 4.111-4.17 3.85-6.733-.536-24.857-1.976-31.112-4.341-6.78-2.557-25.161-16.099-25.952-23.27z"/><path fill="#0F0F0F" d="M87.341 197.993c-4.755 5.44-9.819 8.493-10.038 8.137-.286-.392 4.205-3.945 8.808-9.212 4.603-5.268 7.52-10.196 7.949-9.965.38.169-1.963 5.597-6.719 11.04z"/><path fill="#0F0F0F" d="M106.859 227.454c11.949-19.973 9.161-45.483-6.181-51.478a14.306 14.306 0 0 0-8.915-.837c-7.632 2.101-5.072 9.96-15.555 19.953-3.312 3.154-6.208 4.524-8.336 7.394-.464.608-.013.502-.992-1.486a13.718 13.718 0 0 0-5.727-5.943c-3.107-1.718-7.099-2.005-7.16-1.384-.104.573 7.27 1.999 10.112 8.611a26.885 26.885 0 0 1 1.59 10.125c.495 26.663 1.668 24.907 2.626-4.232.96-5.677 5.213-6.443 9.936-10.88 12.715-11.606 8.192-22.432 20.386-18.621 16.016 6.469 15.065 30.356 5.811 46.418-.928-4.12-4.176-6.733-4.565-6.275-.384.401 1.376 2.353 3.168 6.635-1.44-.669-8.813-3.571-9.11-2.659-.48 1.344 20.614 7.926 30.15 28.024 2.256 4.094 4.226 11.089 4.851 10.974 1.284-.193-.947-22.005-22.089-34.339zm75.382-55.878c1.632 2.828 1.243 5.348 4.45 7.659a25.897 25.897 0 0 1 2.961 2.197 6.173 6.173 0 0 1-4.873.105 6.177 6.177 0 0 1-2.071-1.379 6.176 6.176 0 0 1-1.356-2.086 8.644 8.644 0 0 1-11.165 3.8 11.062 11.062 0 0 1-5.92 14.766c6.955 2.595 9.809 11.909 6.517 17.75-.508-1.856-.868-4.052-1.431-6.049-1.806-6.4-6.225-10.223-9.28-10.911-4.448-.171 2.584-.433 6.271-6.382a10.092 10.092 0 0 0-.056-10.978c-3.004-4.372-2.623-3.004 3.816-1.307 4.089 1.08 7.403.48 10.472-3.797.856-1.177.395-1.902 1.665-3.388zm.261-2.818a10.165 10.165 0 0 0-3.05 4.971c-4.585 6.768-8.16 2.947-17.849 1.291 3.117 6.604 4.025 6.24 4.459 8.365 1.299 4.917-2.502 9.999-6.646 11.52-1.29.48-1.639.912-4.184 3.2 1.508.452 3.054.765 4.619.936 2.795.698 5.934 4.48 7.027 7.117 1.28 3.086.96 3.597 3.382 12.48 1.901-3.373 5.312-8.026 2.471-15.52a14.885 14.885 0 0 0-3.325-5.003c-2.757-2.749-2.08-.122.96-4.266a12.824 12.824 0 0 0 2.456-7.705c-.04-2.586-.725-1.92 1.005-1.92a9.842 9.842 0 0 0 5.337-1.525c3.36-2.101.946-2.271 3.405-.535a8.008 8.008 0 0 0 4.594 1.448 10.497 10.497 0 0 0 5.289-1.776c-5.297-5.08-5.884-3.616-7.265-7.395a22.164 22.164 0 0 0-2.68-5.683h-.005z"/><path fill="#FDFE1F" d="M186.694 179.235c-3.2-2.272-2.84-4.867-4.449-7.659-1.309 1.525-.765 2.146-1.659 3.391-5.407 7.539-11.36 3.016-16.16 2.195.939 1.989 2.707 3.52 3.236 5.862 2.188 9.679-8.606 13.855-9.012 14.221.724.171 4.64-.083 8.648 6.219 2.206 3.435 2.644 7.805 3.497 10.927a13.134 13.134 0 0 0-5.417-17.26c-1.647-.872-1.46-.032.664-1.414a11.122 11.122 0 0 0 4.24-13.651c-.223-.496-.184.043 2.033.411a8.551 8.551 0 0 0 5.238-.73 8.55 8.55 0 0 0 3.804-3.673 6.195 6.195 0 0 0 3.429 3.461 6.169 6.169 0 0 0 4.872-.101 27.514 27.514 0 0 0-2.964-2.199z"/><path fill="#fff" d="M236.9 249.268c-5.89 4.848-29.061-5.696-33.253-26.569-31.051-2.143-41.303-30.976-26.975-38.128 4.7-2.346 9.784-.728 14.618.23 13.187 2.615 18.731.618 25.75 4.128 3.399 2.381 5.058 6.507 7.776 9.643a55.84 55.84 0 0 0 7.975 6.671c6.126 4.856 18.182 26.981 3.873 44.301-.254-.708-.041.424.236-.276z"/><path fill="#0F0F0F" d="M202.619 193.932c-11.891-.228-22.52-3.291-22.4-3.814.117-.48 9.995 1.92 22.43 2.181 8.727.184 9.202.43 14.687 5.891 3.267 3.253 8.664 8.76-.787.846-5.812-4.87-4.666-4.924-13.93-5.104z"/><path fill="#0F0F0F" d="M226.526 198.239c-6.757-7.734-6.942-12.852-19.554-13.561a84.298 84.298 0 0 1-16.5-1.719c-5.92-1.208-12.53-2.452-17.564 1.906-10.619 9.294-.099 37.461 29.709 38.664a37.596 37.596 0 0 0 10.008 18.158c8.546 8.623 19.594 9.601 19.747 8.64.258-1.364-20.305-5.076-26.148-25.867 4.035 2.957 9.289 1.975 9.088 1.28-.103-.67-3.2-.067-8.02-2.262 4.368-.269 6.88-1.023 6.839-1.346-.098-.865-9.863.271-20-2.865-21.6-6.603-25.6-26.205-19.064-31.933 3.926-3.442 10.001-2.149 14.752-1.165 15.149 3.211 22.129-.245 27.897 5.712 2.2 2.24 3.372 4.403 7.154 7.971 4.578 4.272 8.093 5.962 8.309 5.626.286-.411-2.699-2.751-6.653-7.239z"/></svg>