<svg xmlns="http://www.w3.org/2000/svg" width="136" height="40" fill="none"><g clip-path="url(#a)"><path fill="#100F0D" d="M130.961 40H5.04C2.27 40 .003 37.75.003 35V5c0-2.75 2.267-5 5.037-5h125.92c2.77 0 5.037 2.25 5.037 5v30c0 2.75-2.267 5-5.037 5z"/><path fill="#A2A2A1" d="M130.961 0H5.04C2.27 0 .003 2.25.003 5v30c0 2.75 2.267 5 5.037 5h125.92c2.77 0 5.037-2.25 5.037-5V5c0-2.75-2.267-5-5.037-5zm0 .8c2.333 0 4.231 1.884 4.231 4.2v30c0 2.315-1.898 4.2-4.231 4.2H5.04C2.707 39.2.81 37.315.81 35V5C.81 2.684 2.706.8 5.04.8h125.92z"/><path fill="#fff" d="M107.727 30h1.88V17.498h-1.88V30zm16.931-7.998-2.154 5.42h-.065l-2.236-5.42h-2.025l3.355 7.575-1.913 4.214h1.96l5.169-11.789h-2.091zm-10.66 6.578c-.615 0-1.474-.306-1.474-1.062 0-.965 1.07-1.335 1.992-1.335.826 0 1.216.177 1.718.418a2.273 2.273 0 0 1-2.236 1.979zm.227-6.852c-1.361 0-2.77.595-3.353 1.914l1.668.692c.356-.692 1.02-.917 1.717-.917.973 0 1.961.579 1.977 1.608v.129c-.341-.193-1.07-.482-1.96-.482-1.8 0-3.63.98-3.63 2.814 0 1.672 1.475 2.75 3.127 2.75 1.263 0 1.961-.563 2.397-1.222h.066v.965h1.815v-4.793c0-2.22-1.67-3.458-3.824-3.458zm-11.617 1.795h-2.674v-4.285h2.674a2.174 2.174 0 0 1 2.203 2.143c0 .969-.798 2.142-2.203 2.142zm-.049-6.025h-4.504V30h1.88v-4.736h2.625c2.083 0 4.131-1.497 4.131-3.883 0-2.385-2.048-3.883-4.132-3.883zm-24.56 11.084c-1.299 0-2.386-1.08-2.386-2.562 0-1.498 1.087-2.593 2.386-2.593 1.282 0 2.288 1.095 2.288 2.593 0 1.482-1.006 2.562-2.288 2.562zm2.158-5.88h-.065c-.422-.5-1.234-.95-2.255-.95-2.143 0-4.107 1.868-4.107 4.268 0 2.384 1.964 4.237 4.106 4.237 1.022 0 1.834-.451 2.256-.966h.065v.611c0 1.628-.876 2.498-2.288 2.498-1.152 0-1.866-.822-2.159-1.514l-1.638.676c.47 1.127 1.719 2.513 3.797 2.513 2.207 0 4.074-1.289 4.074-4.43v-7.636h-1.786v.692zm3.084 7.297h1.882V17.497h-1.882V30zm4.658-4.124c-.049-1.643 1.282-2.48 2.24-2.48.746 0 1.379.37 1.59.901l-3.83 1.58zm5.842-1.418c-.357-.95-1.444-2.706-3.668-2.706-2.207 0-4.04 1.724-4.04 4.253 0 2.384 1.817 4.253 4.251 4.253 1.964 0 3.1-1.192 3.571-1.885l-1.46-.966c-.488.709-1.153 1.176-2.111 1.176-.957 0-1.639-.435-2.077-1.29l5.729-2.351-.195-.484zm-45.642-1.4v1.803h4.349c-.13 1.015-.47 1.756-.99 2.272-.633.628-1.623 1.32-3.36 1.32-2.677 0-4.77-2.142-4.77-4.8s2.093-4.8 4.77-4.8c1.445 0 2.5.563 3.279 1.288l1.282-1.273c-1.087-1.03-2.532-1.82-4.56-1.82-3.669 0-6.752 2.964-6.752 6.605 0 3.64 3.083 6.605 6.752 6.605 1.98 0 3.473-.644 4.64-1.853 1.202-1.192 1.575-2.867 1.575-4.22a5.84 5.84 0 0 0-.097-1.128h-6.118zm11.16 5.525c-1.298 0-2.418-1.064-2.418-2.578 0-1.53 1.12-2.577 2.419-2.577 1.298 0 2.418 1.047 2.418 2.577 0 1.514-1.12 2.578-2.418 2.578zm0-6.83c-2.37 0-4.3 1.787-4.3 4.252 0 2.449 1.93 4.253 4.3 4.253s4.301-1.804 4.301-4.253c0-2.465-1.931-4.253-4.3-4.253zm9.382 6.83c-1.297 0-2.418-1.064-2.418-2.578 0-1.53 1.12-2.577 2.418-2.577 1.3 0 2.419 1.047 2.419 2.577 0 1.514-1.12 2.578-2.419 2.578zm0-6.83c-2.369 0-4.3 1.787-4.3 4.252 0 2.449 1.931 4.253 4.3 4.253 2.37 0 4.302-1.804 4.302-4.253 0-2.465-1.931-4.253-4.302-4.253z"/><path fill="#EB3131" d="m20.87 19.424-10.724 11.3.001.006a2.892 2.892 0 0 0 2.798 2.13c.536 0 1.038-.143 1.47-.395l.034-.02 12.072-6.915-5.651-6.106z"/><path fill="#F6B60B" d="m31.72 17.5-.01-.007-5.212-2.999-5.872 5.187 5.893 5.848 5.184-2.97a2.874 2.874 0 0 0 1.526-2.534 2.87 2.87 0 0 0-1.508-2.525z"/><path fill="#5778C5" d="M10.144 9.277a2.802 2.802 0 0 0-.098.74v19.968c0 .256.033.504.099.739l11.094-11.01L10.144 9.276z"/><path fill="#3BAD49" d="m20.949 20 5.551-5.508-12.058-6.94a2.92 2.92 0 0 0-1.498-.411c-1.34 0-2.47.905-2.8 2.133v.003L20.95 20.001z"/><path fill="#fff" stroke="#fff" stroke-miterlimit="10" stroke-width=".267" d="M47.746 9.782h-2.94v.722h2.203c-.06.589-.296 1.051-.694 1.387-.398.336-.907.505-1.508.505-.66 0-1.218-.228-1.676-.681-.449-.463-.677-1.035-.677-1.724 0-.689.228-1.26.677-1.723a2.293 2.293 0 0 1 1.676-.68c.338 0 .661.058.957.185.296.126.533.303.72.53l.558-.555a2.516 2.516 0 0 0-.973-.664 3.343 3.343 0 0 0-1.262-.236c-.88 0-1.626.303-2.235.908-.61.606-.915 1.353-.915 2.235 0 .883.306 1.632.915 2.236.609.605 1.355.908 2.235.908.924 0 1.66-.294 2.227-.89.5-.497.754-1.17.754-2.01a2.96 2.96 0 0 0-.042-.453zm1.138-2.8V13h3.54v-.74h-2.76v-1.909h2.49V9.63h-2.49V7.723h2.76v-.741h-3.54zm8.504.74v-.74H53.22v.74h1.694v5.279h.78V7.723h1.693zm3.772-.74h-.78V13h.78V6.982zm5.143.74v-.74h-4.167v.74h1.694v5.279h.779V7.723h1.694zm7.862.043c-.601-.614-1.338-.917-2.218-.917-.881 0-1.618.303-2.22.907-.6.597-.896 1.346-.896 2.236 0 .89.296 1.64.897 2.236.601.605 1.338.908 2.22.908.871 0 1.616-.303 2.217-.908.601-.597.897-1.345.897-2.236 0-.882-.296-1.63-.897-2.226zm-3.878.503c.448-.453 1-.68 1.66-.68.66 0 1.21.227 1.651.68.449.445.67 1.026.67 1.723 0 .699-.221 1.278-.67 1.724-.44.453-.991.68-1.65.68-.662 0-1.213-.227-1.661-.68-.44-.455-.66-1.025-.66-1.724 0-.697.22-1.268.66-1.723zm6.626.984-.033-1.16h.033L79.995 13h.814V6.98h-.78v3.523l.034 1.16h-.033l-2.947-4.682h-.949V13h.78V9.252z"/></g><defs><clipPath id="a"><path fill="#fff" d="M0 0h136v40H0z"/></clipPath></defs></svg>