<svg xmlns="http://www.w3.org/2000/svg" width="320" height="320" fill="none"><path fill="#fff" d="M295.347 103.664c-1.12-.77-1.014-.45-.7-1.118a9.742 9.742 0 0 0-3.64-11.84c-.64-5.877.34-9.96-4.53-15.68a22.314 22.314 0 0 0-16.842-7.82c-7.851-.038-15.596 6.023-20.8 11.815a22.225 22.225 0 0 0-11.291.68c-4.857 1.558-1.16 1.73-6.851-5.52A25.472 25.472 0 0 0 210.56 64.16c.16-3.61 1.8-10.176-3.413-17.03-11.342-14.672-37.04-9.255-43.747 15.337-.51 1.87.083 1.358-2.12 1.498a27.26 27.26 0 0 0-9.451 2.269c-3.086-1.76-6.008-3.292-10.264-2.72-.776.103-2.491-5.745-9.642-7.892-5.963-1.792-11.699.575-15.68 5.39-.456.56-.224.178-1.536 2.866-.456.064-.931.141-1.449.232a31.314 31.314 0 0 0-9.879-16.406c-22.128-18.16-50.934 8.992-27.2 26.86-2.638 5.412-.553 9.462.877 13.034a15.452 15.452 0 0 0-.992 1.572 59.948 59.948 0 0 0-8.48.521c-5.387 1.038-8.619 5.296-7.096 3.36-12.16-7.411-27.83-5.38-33.105 8.135-4.066 10.414.64 23.385 8.372 28.335 1.36.873 1.205.457.708 1.559-3.477 7.71.41 4.696-5.162 4.459a8.38 8.38 0 0 0-8.9 7.645c-.308 2.517-1.14 1.6-3.697 2.507-12.64 4.519-8.222 25.496 8.91 22.691a18.341 18.341 0 0 0 3.334 7.04 61.992 61.992 0 0 0-8.16 6.037c-12.8 12.912-3.736 36.784 15.823 35.77 2.042-.106 3.493-1.523 6.487-2.053.8 3.793-.122 5.821.97 8.248 1.464 2.736-6.101 12.465-2.04 26.273 3.502 11.906 16.816 20.749 33.646 14.48 4.7-1.737 1.12-2.152 5.307 6.525 4.592 9.663 12.42 14.003 22.747 14.611 8.429 22.068 34.779 18.007 43.815-2.08a19.428 19.428 0 0 0 15.763 1.44 40.54 40.54 0 0 0 5.529 6.799 32.51 32.51 0 0 0 17.933 8.48c19.271 2.528 33.743-13.749 33.629-31.021a26.181 26.181 0 0 0 17.6-4.64c.757-.51 1.088 2.206 6.31 5.254 19.082 11.132 38.21-8.742 29.541-27.359-2.056-4.424-3.489-4.549-2.579-5.852 4.277-6.227.352-4.216 6.034-4.723 5.907-.528 11.273-3.562 13.302-9.187 2.822-7.854-2.49-11.866-8.205-16.16a7.134 7.134 0 0 0 3.655-.741c3.51-1.878 5.238-6.685 1.782-12.659 10.79-6.72 20.541-31.04.682-42.971a21.767 21.767 0 0 0 3.947-15.154 18.57 18.57 0 0 0-.48-2.496c13.382-6.145 12.11-21.205 1.361-28.579z"/><path fill="#0F0F0F" d="M131.115 101.941c.396 6.005 2.28 4.249-2.475 3.537-13.558-2.003-20.136 8.96-18.707 9.615 1.366.723 2.909-6.992 18.621-7.818 4.939-.254 3.854.976 4.361-5.317 1.364-17.61 11.951-25.456 11.141-26.39-.915-1.114-14.046 10.323-12.941 26.373zm79.474 29.149c-3.04 2.864-1.059 2.88-2.058-1.28-1.545-6.88-9.76-12.709-16.856-11.605-5.12.728-3.64 3.36-2.604-2.623 2.74-16.758-12.724-22.828-13.144-21.316-.48 1.361 11.36 3.71 11.36 21.164-.045 6.4-.594 4.384 4.491 4.57a17.762 17.762 0 0 1 15.056 10.379c2.013 4.595.19 5.04 4.857 2.146 11.373-7.063 19.52-1.475 20.074-2.871.608-1.248-12.146-7.094-21.176 1.436z"/><path fill="#0F0F0F" d="M296.211 103.403a11.02 11.02 0 0 0-4.454-13.893c1.786-19.856-18.56-29.024-32.384-20.96-5.517 3.237-10.379 8.64-10.168 8.842a16.467 16.467 0 0 0-12.15 1.408c-4.343 2.531-.744 3.443-4.106-3.267a23.533 23.533 0 0 0-21.405-12.8c3.122-15.642-9.52-26.56-23.075-25.378-12.293 1.024-22.894 10.669-26.046 25.1a20.358 20.358 0 0 0-10.4 1.902 13.115 13.115 0 0 0-10.317-1.997c-5.746-12.135-21.581-12.02-27.594-.173-.199.04-.398.085-.595.135a28.283 28.283 0 0 0-19.482-21.51C74.47 35.091 58.94 55.113 68.842 69.057a15.496 15.496 0 0 0 6.145 5.225c-4.083 6.923.378 12.683.07 13.22-5.859-.175-10.572.468-14.628 4.542a25.04 25.04 0 0 0-25.571-2.055c-14.936 8.03-13.239 32.332.36 40.268a15.314 15.314 0 0 0-1.87 4.704 9.493 9.493 0 0 0-11.332 4.383 9.499 9.499 0 0 0-1.189 4.189c-.016.064-.363.103-.429.112-11.001 1.551-14.543 15.76-5.688 22.888a14.662 14.662 0 0 0 11.639 2.978 13.89 13.89 0 0 0 3.112 6.525c-9.77 2.901-16.94 14.641-13.173 27.1 2.523 8.613 9.92 15.21 18.635 15.72 5.28.432 5.485-.307 8.824-1.67.64-.469-.77 4.552 1.691 7.973-13.417 28.224 8.354 50.11 32.802 40.44 2.928-1.147.371-1.357 3.34 5.715 4.196 10.134 14.127 15.709 23.041 14.816 7.336 21.422 33.658 20.878 45.816-.629a19.59 19.59 0 0 0 15.056.89 31.949 31.949 0 0 0 35.2 14.55c13.736-3.728 22.81-17.304 22.645-30.579a22.734 22.734 0 0 0 17.24-4.627 21.36 21.36 0 0 0 31.136 3.144 22.2 22.2 0 0 0 2.619-30.968 21.545 21.545 0 0 0 2.872-5.309c7.398.566 14.482-2.787 17.037-9.6 3.88-10.07-5.92-16.016-5.691-15.819-.197-.144.022-.037.582-.464 3.758-2.432 5.504-7.944 2.08-13.467 12.813-7.81 19.626-32.235 1.504-44.141a18.747 18.747 0 0 0 3.276-7.523c.524-2.719.44-5.52-.247-8.202 12.64-5.707 12.542-22.646.465-29.984zm-1.331 27.578c-1.24-2.709-3.36-4.754-3.712-4.392-.6.518 4.123 5.84 2.314 14.56-1.703 8.118-7.613 12.64-7.04 13.334.392.506 3.2-1.752 4.672-3.369 18.542 11.936 8.832 39.276-7.384 43.368-1.488.355-2.347.513-2.341.699.011.387 4.298.715 8.291-1.12 2.941 5.609.408 10.515-3.702 11.262-4.047.736-5.327-.95.427 3.344 4.859 3.717 7.638 7.67 5.498 13.477-2.119 5.865-8.015 8.64-14.176 8.768 1.203-4.55.32-8.392-.218-8.32-1.014.129.354 9.073-8.43 17.39-4.247 3.812-7.316 4.48-7.167 5.104.16.707 6.37-.232 11.36-5.894 8.738 12.494 2.066 28.96-11.305 32.253a20.908 20.908 0 0 1-20.229-6.728c3.537-3.312 4.781-7.213 4.307-7.389-.75-.352-3.872 6.977-13.619 9.845-9.656 2.83-16.722-.746-17.104.284-.247.607 3.629 2.103 6.325 2.636-.693 20.558-21.34 36.574-42.685 26.06a29.399 29.399 0 0 1-11.89-10.4c10.277-4.755 9.21-12.673 10.611-11.486 3.328 2.818 9.906 2.453 12.692-1.098 1.033-1.28 1.171-2.304.897-2.462-.32-.189-1.001.429-2.107 1.131-5.547 3.619-11.702.541-12.182 1.311-.594-.202-2.309 6.355-9.856 9.952a18.642 18.642 0 0 1-17.005-.412c-7.501-4.118-8.546-10.694-9.243-10.492-.572.02.235 7.289 7.339 12.056-14.863 26.208-45.515 15.768-43.389-11.288.16-1.824.33-2.848.144-2.901-.45-.138-3.018 6.293-.872 14.4-9.976-.445-19.397-7.378-22.654-20.309a29.73 29.73 0 0 0 10.646-9.166 12.437 12.437 0 0 0 12.464 10.052c6.597-.288 9.04-5.105 8.502-5.439-.342-.239-1.411 1.302-3.923 2.308-6.517 2.72-14.094-1.461-15.536-9.28-.547-2.701-.16-4.504-.553-4.606-.253-.111-1.239 1.448-1.242 4.32a28.98 28.98 0 0 1-14.4 11.115c-21.789 8.104-41.62-9.728-30.691-36.902 3.488 2.987 8.748 2.275 13.16.917 3.254 7.508 10.032 10.297 10.413 9.556.36-.652-4.055-3.376-7.116-8.673-3.176-5.232-3.441-10.413-4.188-10.41-.32 0-.717 1.325-.597 3.533a16.9 16.9 0 0 0 .878 4.405c-4.568 1.148-9.584 1.611-12.189-2.22-1.47-2.161-.246-4.081-1.395-9.364a11.628 11.628 0 0 0-3.072.76c-18.29 7.36-33.792-18.114-19.275-33.067 4.053-4.24 7.45-4.212 7.309-4.721 2.4 2.192 5.34 2.917 5.53 2.38.257-.735-3.652-2.155-6.37-7.459-2.68-5.325-1.517-9.319-2.266-9.546-.48-.142-1.568 2.208-1.395 5.211a13.27 13.27 0 0 1-10.018-3.011c-7.04-6.016-4.308-17.403 4.613-18.869 2.38-.373 2.269-1.629 2.466-3.11a7.68 7.68 0 0 1 9.875-6.264c-.338 3.2.546 6.043 1.154 5.931.695-.133.41-3.922 1.804-8.2 1.31-4.306 3.716-7.248 3.22-7.754-.465-.48-2.314 1.312-3.09 2.298-11.749-7.638-13.416-29.44-.168-36.8a23.854 23.854 0 0 1 23.36 1.162c-1.6 2.038-1.73 3.71-1.42 3.758.753.16 2.742-7.226 15.934-6.984-1.877 5.094-.64 9.712-.084 9.61.86-.108-.21-7.453 5.258-13.292 5.97-6.321 12.822-4.248 13.037-5.088.083-.212-.867-.85-2.672-1.132.64-6.972 9.12-7.33 9.14-7.913.226-1.3-10.833-1.347-11.68 7.788a14.818 14.818 0 0 0-10.041 5.004 11.562 11.562 0 0 1 .469-10.932c1.696-2.855 3.659-4 3.445-4.336-.077-.146-.66-.055-1.586.428a10.428 10.428 0 0 0-3.218 2.735 14.091 14.091 0 0 1-5.44-4.96C62.36 55.496 75.955 38.25 93.375 43.2a27.12 27.12 0 0 1 18.528 19.622c-1.148.447-3.81 1.952-3.381 2.677.384.62 3.285-.576 6.979-.96 3.68-.46 6.782.04 7.016-.65.102-.32-.59-.899-1.912-1.364a12.023 12.023 0 0 0-4.114-.599c6.333-8.233 17.357-8.422 23.493.987-2.104.855-3.019 1.969-2.856 2.167.378.605 6.047-2.797 12.368.696-2.787 1.854-4.902 4.67-4.441 5.05.289.252 1.44-.693 3.372-1.92 11.232-7.15 20.32-2.857 20.756-3.972.198-.464-2.223-1.76-5.058-2.264 9.451-33.41 49.845-27.264 45.733.141-4.339.374-9.072 2.515-8.739 3.133.363.832 9.26-3.616 19.785 1.302 11.727 5.508 13.224 16.623 13.76 14.208 1.29-.075 8.997-4.56 18.632-.2 1.883.839 3.016 1.565 3.283 1.288.412-.425-1.865-3.161-5.72-4.624a43.47 43.47 0 0 1 9.634-7.36c12.17-6.617 29.63.592 29.536 18.128-5.955-2.224-11.899 1.267-11.534 1.863.265.454 3.124-1.488 7.755-.82 6.921.984 9.95 7.8 7.712 12.497-1.6-.717-5.347-1.818-5.448-1.351-.127.512 5.611 1.579 10.192 6.755 6.904 7.712 5.134 19.152-3.826 23.351z"/><path fill="#0F0F0F" d="M130.56 275.584c-1.465-1.491-2.661-2.03-2.88-1.787-.48.557 2.927 4 4.32 9.526 1.522 5.493.251 10.181.952 10.415 1.467.54 4.722-10.989-2.392-18.154z"/><path fill="#FDFE1F" d="M284.791 98.82c-4.508.809-11.84 6.791-12.45 7.361-7.416 6.926 3.016 32.6 19.253 30.342 3.169-.44 12.63-6.709 14.462-10.96 4.21-9.771-7.784-29.157-21.265-26.742z"/><path fill="#0F0F0F" d="M284.256 98.02c-4.174.82-12.134 6.801-13.27 8.305-8.125 10.56 8.219 38.08 24.469 29.648a41.893 41.893 0 0 0 9.192-6.843c9.304-9.45-4.264-34.055-20.391-31.11zm-5.92 4.911a11.412 11.412 0 0 0-1.833 7.099c-2.09 1.564-1.932 2.1-5.551 3.511-.072-5.701 2.136-6.981 7.378-10.61h.006zm-7.321 11.925a21.552 21.552 0 0 1 5.612-3.36 24.373 24.373 0 0 0 2.229 7.171c-2.341 1.44-1.31 1.579-5.966 3.531a22.519 22.519 0 0 1-1.882-7.344h.007v.002zm2.377 8.41c4.197-3.127 2.863-1.781 6.08-3.392a32.576 32.576 0 0 0 4.64 6.58c-4.097 2.88-1.405 1.476-5.995 3.52a28.268 28.268 0 0 1-4.731-6.708h.006zm5.624 7.609c4.207-3.2 3.951-2.24 6.045-3.424a20.759 20.759 0 0 0 5.19 3.883c-2.864 2.72-1.889 1.733-5.014 3.535a18.381 18.381 0 0 1-6.227-3.989l.006-.005zm7.584 4.413c2.767-2.642 3.568-2.192 5.013-3.35a11.9 11.9 0 0 0 6.362.288c-5.832 3.934-8.13 3.881-11.381 3.062h.006zm18.591-10.018c-4.186 8.508-15.031 9.92-23.74-4.011-10.118-16.177.581-26.065 12.48-20.024 10.136 5.069 14.192 18.061 11.253 24.035h.007z"/><path fill="#0F0F0F" d="M301.104 111.616a12.824 12.824 0 0 0-1.797-2.506c-.27.186 3.264 4.16 3.58 10.584.252 5.66-2.836 8.714-5.738 8.89-6.434.387-18.122-12.429-16.034-21.685.933-4.48 5.525-5.88 9.146-4.582 6.432 2.414 8.584 6.949 8.96 6.667.298-.219-7.078-10.24-14.634-7.41-7.267 2.754-5.12 12.932-.099 19.66 12.938 17.11 24.6 4.366 16.616-9.618z"/><path fill="#FDFE1F" d="M304.743 205.306c-.351-7.621-6.842-15.408-14.279-13.701a64.424 64.424 0 0 0-5.749 1.6 4.529 4.529 0 0 0-2.758 2.097c-2.658 4.693-2.162 9.1-.528 13.612a15.267 15.267 0 0 0 4.187 6.862c3.981 5.106 15.224.182 17.011-1.944a14.542 14.542 0 0 0 2.116-8.526z"/><path fill="#0F0F0F" d="M290.749 190.773a40.507 40.507 0 0 0-6.538 2.08c-8.715 3.814-5.12 24.022 6.226 25.893 2.56.427 10.325-2.018 12.654-4.741 5.768-6.762-.348-25.392-12.342-23.232zm-2.355 2.07a8.033 8.033 0 0 0-2.544 4.33c-.589.177-1.658.699-2.56.929a14.96 14.96 0 0 1-1.823.287c1.093-3.808 2.853-4.192 6.927-5.546zm-2.693 10.632a14.267 14.267 0 0 1-4.682 1.184 15.815 15.815 0 0 1 .216-5.371 11.715 11.715 0 0 1 4.408-1.12 16.607 16.607 0 0 0 .058 5.307zm-4.557 1.992c1.5-.634 3.101-.992 4.728-1.056a22.86 22.86 0 0 0 1.81 5.363 12.076 12.076 0 0 1-4.693 1.168 19.773 19.773 0 0 1-1.845-5.475zm2.269 6.253a14.466 14.466 0 0 1 4.714-1.083 14.564 14.564 0 0 0 2.72 3.656 10.468 10.468 0 0 1-4.026 1.365 12.835 12.835 0 0 1-3.408-3.938zm4.235 4.48c.447-.237.909-.442 1.384-.611a19.83 19.83 0 0 0 2.607-.64 8.109 8.109 0 0 0 4.12 1.481c-4.596 1.424-6.076.968-8.111-.228v-.002zm16.221-6.957c-.843 4.147-2.827 5.223-6.368 6.581-8.896 1.043-13.573-14.032-10.24-20.557 4.482-8.643 19.139.307 16.608 13.978v-.002z"/><path fill="#0F0F0F" d="M301.643 201.629c-1.36-3.52 2.692 6.104-1.713 10.789-5.831 6.382-14.17-9.6-10.351-16.423a4.685 4.685 0 0 1 3.245-2.291 4.678 4.678 0 0 1 3.835 1.03 16.7 16.7 0 0 1 4.703 6.285 9.076 9.076 0 0 0-.736-2.04c-3.573-7.337-9.541-7.101-11.627-3.302-2.836 4.968-.06 13.318 4.561 17.528 5.098 4.624 11.368-3.04 8.083-11.576zm-46.67 22.737-2.213-.593c-11.272 36.809-51.269 54.307-51.16 40.6.029-3.691 2.338-5.247 8.518-18.039 1.807-3.736 3.469-7.107 5.12-10.009l-1.96-1.186c-4.366 6.77-7.571 13.982-12.248 21.515-2.436 3.922-3.955 8.175-1.7 12.232 3.121 5.618 10.902 3.291 17.009 1.251 14.85-4.966 33.213-23.577 38.634-45.771z"/><path fill="#92FCFF" d="M141.75 152.675a28.299 28.299 0 0 0-13.44-23.52c-20-13.105-42.008-22.51-65.064-15.417-12.268-25.12-32.539-28.32-37.92-21.253-2.01 2.707.653 5.206 2.135 8.253.187.371 6.758 15.94 6.984 16.406 4.7 9.76 12.653 6.702 5.037 7.934-13.064 2.282-24.053 9.191-29.26 21.002-1.985 4.498-2.57 9.467 1.156 12.389 7.44 5.824 24.64-14.223 49.222-1.816 19.2 9.657 50.378 51.99 57.414 56.656 2.62 1.736 6.176 1.853 10.295-1.096 7.105-5.087 7.579-15.026 7.819-23.003.581-19.183 6.045-26.65 5.622-36.535z"/><path fill="#fff" d="M67.704 161.872c10.4 7.776 34.56 34.586 42.928 45.23a29.133 29.133 0 0 0 5.251 5.648c4.052 3.01 10.259 3.336 13.946-.108 4.63-4.328 5.808-13.375 5.858-13.535 1.041-3.376 1.95-6.254-.89-8.579-1.455-1.19-4.49-1.702-5.151-.462-.678 1.28-.259 10.364-1.505 12.952-2.621 5.44-7.342 4.254-9.566-1.621-2.855-7.541-1.909-14.347-3.487-16.027a9.513 9.513 0 0 0-2.09-1.92c-22.51-22.426-32.892-29.6-54.21-32.373a27.297 27.297 0 0 0-11.905 1.261c-1.877.812 7.544-.388 20.821 9.534z"/><path fill="#0F0F0F" d="M127.68 125.803c-18.912-11.901-40.978-20.499-62.258-13.413-5.622-11.657-14.547-21.856-27.1-24.76-5.008-1.145-9.181-1.18-12.99 2.013-5.545 4.65-1.033 8.402.777 12.218 7.158 15.104 8.651 19.974 13.995 22.176-35.12 3.323-43.829 42.944-21.118 37.416 7.728-1.907 22.74-11.599 40.48-2.523 12.123 6.121 19.949 14.336 54.624 54.268 6.472 7.455 20.289 3.901 23.635-12.822 1.561-7.989.254-14.52 2.177-23.851 2.602-13.29 12.943-35.064-12.222-50.722zm8.726 50.037c-2.017 9.701-.675 16.227-2.177 23.84-2.203 11.182-11.04 17.106-16.624 12.027-.759-.689 2.008 2.13-21.051-23.133-18.08-19.808-33.75-41.206-59.895-36.32-13.28 2.455-21.201 9.349-25.353 4.738-5.877-6.222 4.654-22.096 17.43-27.688 13.872-6.112 27-3.168 27.117-4.086.062-.408-5.882-1.546-12.359-1.384-7.028-1.68-8.236-7.348-12.62-17.717-2.16-5.069-2.39-5.651-2.72-6.266-1.008-1.845-2.794-4.288-2.51-5.707.186-1.496 2.969-3.267 4.543-3.68 7.253-1.984 22.453 3.853 31.882 23.187-2.333.986-7.57 3.799-7.325 4.224 1.51 2.616 22.504-20.203 71.059 10.88 22.455 14.235 13.472 32.461 10.603 47.085z"/><path fill="#0F0F0F" d="M134.976 144.198c-5.021-5.588-10.026 1.151-12.403 1.853.11.399.059.202-.018 0-.753.269-5.79-1.347-6.574 2.043a9.632 9.632 0 0 0 .302 2.778c1.33 4 3.011 5.182 2.327 8.141a130.698 130.698 0 0 0-3.722 24.707c-15.125-14.413-32.746-31.294-53.928-32.874-1.897-.11-3.8-.061-5.688.148 0 .784 7.576-.746 20.245 4.761 14.478 6.138 27.773 19.738 39.219 30.629a60.055 60.055 0 0 0 .09 8.816c-12.53-11.248-28.756-27.52-43.821-36.034a15.332 15.332 0 0 0-4.66-2.046c-.063.142 1.55.942 4.247 2.73 16.57 11.081 30.331 25.76 44.715 38.507 2.12 10.025 9.064 11.059 12.97 6.445 2.278-2.815 2.198-6.845 1.953-10.639-.574-7.04-1.088-7.397-1.393.013-.197 3.469-.344 7.014-2.283 9.138-1.826 1.886-4.373 2.23-6.184-.02-5.6-7.283-.41-34.484 1.712-43.406 1.12-4.747-1.64-7.002-2.528-10.474-.378-.944 2.524 1.336 5.784-.899 3.47-2.47 4.579-4.014 6.422-2.845 5.226 3.319-1.163 17.432-1.643 30.951-.149 3.52.104 5.477.331 5.48.67.016-.546-.747 5.36-24.435.934-3.991 1.814-10.364-.832-13.468z"/><path fill="#FDFE1F" d="M103.347 111.779c13.487 1.6 30.56-14.314 32.511-27.227.672-4.8-1.152-6.258-3.303-8.44-3.246-3.296-6.155-6.314-10.187-7.335-16.987-4.307-40.786 21.418-32.502 32.597 3.064 4.135 8.403 9.744 13.481 10.405z"/><path fill="#0F0F0F" d="M103.52 91.433c.899-3.798 1.13-4.768 1.245-5.27l-3.091.768-2.04 8.64c.208-.041 4.96-1.24 8.32-2.08.224-.054.113.138.87-3.088.05-.213.115-.16-.48 0-5.339 1.357-4.889 1.328-4.824 1.03zm13.267-13.423-8.459 2.121-.737 3.147c1.142-.285 4.142-1.04 5.248-1.318.188-.048.201-.39-1.151 5.314-.045.19-.48.244 3.061-.64l2.038-8.624z"/><path fill="#0F0F0F" d="m106.293 88.76 3.102-.784.752-3.176-3.104.779-.75 3.18zm4.104 4.096 3.056-.774.744-3.124-3.064.772-.736 3.126zm-7.296-11.436c-.231.058-.104-.098-.864 3.084-.047.189-.226.18 2.971-.622.147-.037.024.275.842-3.19-.087.009-2.864.708-2.949.729z"/><path fill="#0F0F0F" d="M136.413 79.531a11.92 11.92 0 0 0-3.096-4c-3.133-3.208-6.978-6.992-11.386-7.736-17.659-2.982-40 22.166-32.852 33.477a37.755 37.755 0 0 0 9.697 9.76c14.136 9.571 43.219-17.694 37.637-31.5zm-4.461-2.681c2.059 2.206 4.461 3.708 2.274 10.516-3.829-2.08-3.12-2.118-5.541-4.672a11.607 11.607 0 0 0-.138-9.22c1.154 1.043 2.274 2.195 3.405 3.376zm-41.09 12.59c10.703-23.614 41.194-26.14 37.418-9.456-2.443 11.9-23.509 32.205-35.37 23.344-2.903-3.35-5.363-6.264-2.047-13.888zm8.978 20a33.159 33.159 0 0 1-4.8-3.866 13.868 13.868 0 0 0 8.493.655c.59.649 2.176 1.6 3.211 2.54a11.863 11.863 0 0 1 1.613 1.976c-2.902.66-5.946.193-8.517-1.305zm10.168.96c-2.622-2.163-2.24-1.144-4.81-4.648a32.66 32.66 0 0 0 7.616-4c2.495 1.92 1.725.206 5.989 4.598a28.763 28.763 0 0 1-8.8 4.05h.005zm10.067-4.92a34.206 34.206 0 0 1-3.2-1.997c-.971-.784-1.998-1.971-2.72-2.675a50.582 50.582 0 0 0 7.808-7.192c2.421 1.867 1.311.216 6.034 4.611a45.739 45.739 0 0 1-7.927 7.254l.005-.001zm8.811-8.35c-4.32-2.292-3.211-2.105-5.896-4.727a32.989 32.989 0 0 0 5.12-8.171c.669.467 2.642 1.71 2.938 2.008.917.763 1.92 1.851 2.677 2.542a32.225 32.225 0 0 1-4.843 8.35l.004-.003z"/><path fill="#0F0F0F" d="M94.482 101.28c4.696 4.841 15.945-2.15 21.027-6.56 7.704-6.752 14.694-19.2 5.95-22.928-7.859-3.312-19.539 6.881-19.219 7.237.229.262 4.662-4.37 12.195-6.535 4.701-1.33 8.136.405 9.339 2.531 1.77 3.061-.432 8.394-2.72 11.724a38.748 38.748 0 0 1-14.198 12.38c-3.368 1.671-8.57 4.439-11.62 1.399-2.436-2.309-2.076-6.463-.836-9.891 2.907-7.84 8.045-11.082 7.688-11.474-.627-.678-15.085 14.768-7.606 22.117z"/><path fill="#FDFE1F" d="M116.32 129.464c-2.624-2.102-6.158-5.12-9.352-5.546-12.813-1.678-23.491 16.904-16.81 24.282 2.066 2.28 7.476 6.821 10.306 7.288 12.77 2.112 25.018-18.688 15.856-26.024z"/><path fill="#0F0F0F" d="M117.461 129.457a48.237 48.237 0 0 0-6.542-4.878c-12.648-7.093-26.83 11.486-22.988 21.363 1.543 3.941 9.28 9.76 12.412 10.296 13.566 2.346 25.494-19.056 17.118-26.781zm.754 7.298a16.564 16.564 0 0 1-4.34-3.013c.456-5.411-3.08-7.331 1.079-3.894 2.552 2.049 3.435 3.286 3.261 6.907zm-28.668 8.562c-3.273-7.442 5.232-20.458 15.253-20.559 18.285-.293 2.56 31.319-10.858 25.527a13.167 13.167 0 0 1-4.395-4.968zm6.021 6.222a9.611 9.611 0 0 0 4.92-.125c-.241.285 1.76.659 3.895 2.858-3.613.696-5.599-.408-8.815-2.733zm9.92 2.461a11.275 11.275 0 0 1-3.854-3.016 17.384 17.384 0 0 0 4.469-3.04c1.747 1.094 1.673.345 4.774 2.968a15.065 15.065 0 0 1-5.394 3.088h.005zm6.146-3.773a14.303 14.303 0 0 1-4.699-3.077 27.188 27.188 0 0 0 4.112-5.305c2.635 1.47 1.824.48 4.8 2.944a23.396 23.396 0 0 1-4.218 5.438h.005zm4.651-6.27a17.697 17.697 0 0 1-4.683-3.096 19.652 19.652 0 0 0 2.126-5.93 13.712 13.712 0 0 1 4.402 2.88 18.664 18.664 0 0 1-1.85 6.146h.005z"/><path fill="#0F0F0F" d="M93.136 147.957c3.906 3.622 10.527-1.379 13.674-5.17 4.382-5.344 6.609-13.809.657-16.379-6.049-2.589-12.755 5.387-12.467 5.621a20.211 20.211 0 0 1 7.711-5.216c6.523-2.013 11.547 5.219 3.443 15.427-2.018 2.43-7.026 6.523-10.173 6.189-2.41-.255-4.867-2.915-4.445-7.619a19.82 19.82 0 0 1 3.382-8.682c-.547-.426-7.66 10.549-1.782 15.829z"/><path fill="#FDFE1F" d="M178.856 48.211c-.629-3.98-1.736-9.454-3.974-12.8-8.96-13.39-41.396-5.427-41.077 7.618.123 4.73 1.507 13.256 5.55 16.77 12.152 10.56 41.405.425 39.501-11.588z"/><path fill="#0F0F0F" d="M179.482 45.987c-1.744-8.862-3.861-15.06-14.994-17.6-12.168-2.656-32.344 3.923-31.715 14.943-.035 4.065 1.731 13.065 4.307 15.77 12.453 13.074 41.152 3.301 42.88-8.419a14.352 14.352 0 0 0-.478-4.694zm-44.172-6.115c4.37-9.392 24.16-14.704 35.338-7.072 14.312 9.768-2.382 22.602-21.067 22.354-12.781-.173-16.917-7.97-14.271-15.282zm.274 10.288a13.22 13.22 0 0 0 5.938 4.733c.276 1.813 1.289 2.29 1.513 6.142-5.001-2.437-6.179-5.432-7.451-10.875zm8.878 11.5c-1.012-3.17-1.151-2.206-1.382-6.252 2.523.645 5.123.931 7.726.853.895 2.665 1.324 1.372 2.336 6.89a24.379 24.379 0 0 1-8.68-1.492zm10.112 1.466c-2.12-4.688-1.203-2.276-2.228-6.921a42.922 42.922 0 0 0 9.44-1.611c1.022 3.04.96.944 2.36 6.921-3.11.94-6.326 1.48-9.572 1.611zm10.817-2.022c-2.178-4.104-1.37-3.338-2.167-6.949a29.701 29.701 0 0 0 7.872-3.825c.358.916.933 2.139 1.28 3.187 0 .16.739 3.265.778 3.43a27.683 27.683 0 0 1-7.763 4.157zm8.852-5.053c-1.901-3.664-1.347-3.552-1.909-6.675a11.296 11.296 0 0 0 4.346-7.091c1.709 7.064 2.394 9.528-2.44 13.766h.003z"/><path fill="#0F0F0F" d="M139.179 49.466c3.218 2.668 15.123 4.782 25.885.06 11.117-4.913 10.053-14.08 1.741-16.787a25.651 25.651 0 0 0-12.088-.8c-2.37.448.459.15 2.598.127 11.829-.06 17.813 6.05 13.65 11.68-6.928 9.64-36.917 11.028-32.696-1.332 3.013-8.568 18.92-10.712 14.48-10.164-12.253 1.473-20.082 12.016-13.57 17.216z"/><path fill="#FDFE1F" d="M64.931 55.36c-9.8 1.6-20.557 14.82-14.942 23.274a39.682 39.682 0 0 0 10.65 9.337c8.339 4.592 23.068-3.714 25.006-16.355.675-4.402-.587-6.638-2.88-8.675-6.125-5.44-9.701-8.912-17.834-7.581z"/><path fill="#0F0F0F" d="M83.482 62.206a55.804 55.804 0 0 0-7.162-5.814c-15.251-9.522-35.986 12.49-25.848 24.3a44.574 44.574 0 0 0 8.16 7.177c14.984 9.97 36.312-14.199 24.85-25.663zm1.272 8.675c-3.607-2.046-1.743-1.195-5.132-3.964.4-2.193.062-4.455-.96-6.436 4.552 3.889 6.674 5.39 6.092 10.399v.002zM50.09 76.96c-3.635-8.34 6.73-22.291 19.29-21.093 4.707.402 8.902 3.163 9.413 7.84 1.17 9.576-13.204 24.79-24.32 18.448a18.995 18.995 0 0 1-4.383-5.195zm6.432 6.976c1.948.654 4.016.866 6.056.622 1.248 1.207 2.24 1.088 4.501 3.663-4.42.288-6.842-1.26-10.557-4.279v-.006zm11.98 4.118a14.77 14.77 0 0 1-4.522-3.881 21.86 21.86 0 0 0 5.462-2.72c1.954 1.425 1.776.408 5.583 3.963a17.59 17.59 0 0 1-6.524 2.645v-.007zm7.543-3.336c-4.552-2.65-2.24-1.213-5.536-4.064a28.042 28.042 0 0 0 5.18-5.227c2.744 1.803 1.902.538 5.662 3.978a24.227 24.227 0 0 1-5.306 5.32v-.007zm5.935-6.24c-4.336-2.408-3.418-2.462-5.536-4.097a20.057 20.057 0 0 0 2.9-6.141 17.213 17.213 0 0 1 5.21 3.883 18.254 18.254 0 0 1-2.574 6.363v-.008z"/><path fill="#0F0F0F" d="M57.496 81.558c4.03.763 13.494-3.405 17.633-11.73 3.935-7.93-1.64-13.937-8.48-12.55a17.873 17.873 0 0 0-8.81 4.765c-1.44 1.467.48-.192 1.843-1.12 12.89-8.672 22.24 2.627 10.29 14.248-2.751 2.589-8.815 6.112-12.32 5.5-3.143-.543-5.695-3.951-5.047-8.59.86-6.144 4.921-9.096 4.656-9.36-.135-.135-1.75 1.673-2.053 2.052-6.282 7.867-3.058 15.921 2.288 16.785z"/><path fill="#FDFE1F" d="M182.08 155.029c-2.97-.875-8.202-2.528-11.389-1.906-14.866 2.906-20.594 28.32-10.426 33.151a36.734 36.734 0 0 0 10.218 2.811c15.254 1.725 23.957-30.414 11.597-34.056z"/><path fill="#0F0F0F" d="M187.232 158.063c-1.551-3.103-3.407-3.588-6.682-4.532-3.275-.944-7.654-2.144-10.979-1.204-14.122 3.52-21.51 29.279-9.744 34.862a34.3 34.3 0 0 0 10.539 2.909c12.378 1.388 23.155-19.453 16.866-32.035zm-6.498 3.537c2.01.042 4 .399 5.899 1.059.423 2.397.436 4.847.04 7.248-4.681-.16-2.985-.412-6.217-1.096.465-2.374.558-4.808.278-7.211zm5.651-.101c-3.542-.024-3.225-.401-5.886-1.214a9.667 9.667 0 0 0-3.392-5.723c5.827 1.475 8.003 1.864 9.278 6.936v.001zm-28.243 22.341c-5.291-5.525-2.377-23.067 8.907-28.698 20.592-9.796 14.111 32.538-3.052 31.681-1.917-.607-4.588-1.453-5.855-2.983zm14.136 4.418a26.46 26.46 0 0 1-5.934-.787 11.921 11.921 0 0 0 5.76-2.48c-.13.4 2.08-.108 5.229 1.26a12.07 12.07 0 0 1-5.055 2.005v.002zm6.127-2.795a12.6 12.6 0 0 1-5.28-1.402 23.088 23.088 0 0 0 3.827-5.296c2.571.429 1.957-.363 6.219.949a20.208 20.208 0 0 1-4.771 5.747l.005.002zm5.352-6.812a15.38 15.38 0 0 1-6.192-1.067 34.61 34.61 0 0 0 2.635-7.52c2.819.32 2.041-.333 6.278.917a30.296 30.296 0 0 1-2.721 7.669v.001z"/><path fill="#0F0F0F" d="M163.453 184.882c5.414 1.459 10.665-7.112 12.502-11.858 2.88-7.578 2.446-18.107-5.406-17.531-7.125.513-11.375 11.491-11.013 11.624a27.946 27.946 0 0 1 6.27-8.779c5.235-4.48 11.551-1.804 10.88 7.132-.704 8.96-9.089 23.471-15.491 17.178-5.565-5.47-.562-18.386-2.051-14.696-2.49 6.149-1.677 15.389 4.309 16.93z"/><path fill="#FDFE1F" d="M161.048 179.89a65.134 65.134 0 0 0-10.56 1.152c-15.402 3.939-15.923 30.6-4.555 35.36 3.76 1.616 14.272.572 17.398-.94 14.189-6.934 10.149-35.572-2.283-35.572z"/><path fill="#0F0F0F" d="M166.142 180.869a8.586 8.586 0 0 0-6.264-1.687c-5.952.199-11.86.616-16.112 4.708-10.08 9.214-7.5 29.158 1.88 33.203 2.964 1.6 11.492.736 15.004-.019 14.632-3.069 16.232-27.983 5.492-36.205zm1.6 28.974a14.845 14.845 0 0 1-6.08.525 21.681 21.681 0 0 0 1.983-6.24c.035.174 2.307-.726 3.913-1.014a16.195 16.195 0 0 1 2.999-.213 19.341 19.341 0 0 1-2.821 6.942h.006zm3.04-8.219c-4.87 1.35-1.92.757-6.939 1.162.32-2.615.306-5.258-.04-7.869 3.147-.698 1.787-1.027 6.973-1.315a27.098 27.098 0 0 1-.006 8.022h.012zm-.217-9.174c-5.12 1.544-3.783.7-6.967 1.139a21.712 21.712 0 0 0-2.337-6.786 22.887 22.887 0 0 1 6.606-1.045 19.958 19.958 0 0 1 2.693 6.692h.005zm-12.509-11.232c3.52-.16 5.968-.668 9.08 3.476-3.808 1.26-3.418.727-6.64.9-3.747-5.308-8.934-4.008-2.453-4.376h.013zm-11.725 34.276c-8.464-3.48-10.955-21.63-1.385-30.323a13.185 13.185 0 0 1 7.006-3.293c11.747-.345 14.08 22.17 7.52 30.159a12.284 12.284 0 0 1-6.51 4.091c-1.644.067-5.175.163-6.644-.634h.013zm9.6.416a13.092 13.092 0 0 0 4.992-4.284c.015.422 2.258-.82 5.931-.597-3.025 3.633-5.894 4.331-10.929 4.881h.006z"/><path fill="#0F0F0F" d="M160.48 199.096c.202-8.394-4.285-17.667-11.95-14.581-7.16 2.848-7.669 14.701-7.218 14.712a24.773 24.773 0 0 1 3.36-10.533c2.229-3.403 6.943-5.217 9.944-2.776 3.768 2.736 4.96 8.495 4.848 13.148-.112 3.806-1.881 11.104-4.821 13.396-2.641 2.061-7.04 1.506-9.979-2.608-3.894-5.452-2.894-10.48-3.36-10.475-.465.005-.275 11.68 7.267 14.629 7.629 3.034 11.669-6.808 11.909-14.912z"/><path fill="#FDFE1F" d="M135.986 203.421c10.513-2.639 17.148-23.52 3.792-33.911-4.664-3.091-15.082-4.36-16-4.36-10.007 0-18.573 18.391-11.104 30.26a14.159 14.159 0 0 0 6.272 5.529c4.051 1.555 13.102 3.471 17.04 2.482z"/><path fill="#0F0F0F" d="M146.504 176.926c-3.459-8.64-9.634-10.35-18.304-11.913-4.037-.683-9.24-2.274-15.275 6.581-5.511 8.288-5.995 22.137 3.707 29.024 3.339 2.371 12.784 3.908 17.6 3.84a12.294 12.294 0 0 0 8.152-4.092 23.54 23.54 0 0 0 4.12-23.44zm-15.259-9.406a11.444 11.444 0 0 0-6.519 3.395c-4.952-1.12-2.644.016-7.102-1.785 4.221-3.869 7.29-2.89 13.621-1.61zm-14.635 2.629c2.466.173 4.877.814 7.104 1.888a20.907 20.907 0 0 0-3.487 6.419c-5.342-1.37-2.131.173-7.51-2.051a19.45 19.45 0 0 1 3.893-6.251v-.005zm-4.308 7.433c1.152.135 2.296.349 3.42.64 1.417.42 3.123 1.252 4.078 1.57a29.049 29.049 0 0 0-1.131 7.746c-5.056-.988-1.515.219-7.504-2.08a24.651 24.651 0 0 1 1.137-7.871v-.005zm-1.067 9.252c1.125.116 2.24.316 3.335.598 1.643.48 4.075 1.694 4.126 1.531.405 8.597 3.576 6.069-2.027 6.069-1.12-.254-2.459-.768-3.395-1.029a18.017 18.017 0 0 1-2.039-7.165v-.004zm2.891 8.54c4.082.224 6.388 1.807 6.458 1.328a13.455 13.455 0 0 0 4.782 4.898c-5.076-1.12-8.347-2.115-11.24-6.221v-.005zm27.095 3.888c-3.855 4.012-7.856 3.668-12.48 2.959a13.347 13.347 0 0 1-6.504-4.693c-6.781-9.453.566-32.765 13.174-28.947 11.247 3.419 15.469 20.336 5.81 30.686v-.005z"/><path fill="#0F0F0F" d="M137.585 171.28c-10.536-5.029-18.663 12.05-13.028 24.935a7.618 7.618 0 0 0 9.109 4.457c8.38-1.92 10.504-13.507 9.934-13.587-.306-.042-.546 5.6-5.215 10.051-3.665 3.488-8.291 3.536-10.894 1.403-5.401-4.427-5.427-21.878 3.605-26.531 3.568-1.838 8.229.32 10.225 3.797 3.343 6.125 1.873 11.078 2.298 11.128.426.049 1.746-11.957-6.034-15.653z"/><path fill="#FDFE1F" d="M141.931 166.302c3.322 2.482 11.86 3.61 16.021 3.895 12.045.909 18.88-15.619 12.275-26.475-4-6.576-10.953-7.391-18.171-8.586-14.545-2.408-23.285 21.331-10.125 31.166z"/><path fill="#0F0F0F" d="M171.904 145.17c-3.819-7.852-10.032-9.186-18.213-10.536-3.485-.64-5.483-.901-8.32.28-12.542 5.44-16.294 29.059 1.362 34.23 3.761 1.03 11.069 2.357 14.88 1.581 9.341-1.984 15.051-15.525 10.291-25.555zm-18.517-8.64c6.56 1.016 1.589-.616-3.022 3.595-2.56-.551-2.551.081-7.055-1.6 3.69-3.05 6.333-2.643 10.077-1.994v-.001zm-11.134 2.944a19.36 19.36 0 0 1 7.059 1.716 19.085 19.085 0 0 0-3.44 5.85c-2.677-.656-2.184.174-7.52-1.872a17.658 17.658 0 0 1 3.901-5.693v-.001zm-4.333 6.811c5.902.889 3.224.709 7.51 2.035a24.536 24.536 0 0 0-1.12 7.048c-1.076-.194-3.804-.48-3.966-.64-1.192-.32-2.595-.923-3.557-1.266-.047-2.44.336-4.87 1.133-7.177zm-1.062 8.48c1.124.099 2.24.278 3.339.536 1.71.456 4.091 1.589 4.141 1.416.396 7.784 3.552 5.523-2.06 5.523-1.107-.23-2.427-.701-3.36-.947a14.941 14.941 0 0 1-2.06-6.527v-.001zm2.953 7.829c3.909.179 4.557 1.081 6.387 1.316a14.868 14.868 0 0 0 4.53 4.231c-4.958-1.027-8.056-1.879-10.917-5.546v-.001zm26.853 3.648c-3.891 3.529-7.741 3.15-12.171 2.545a12.488 12.488 0 0 1-6.488-4.049c-3.024-3.588-3.136-9.76-2.08-14.364 3.52-15.68 18.56-16.23 24.534-4.497a17.522 17.522 0 0 1-3.795 20.363v.002z"/><path fill="#0F0F0F" d="M162.973 140.368c-8.336-3.622-17.266 6.923-13.872 19.798.717 2.604 1.417 4.698 3.704 6.228 5.809 3.939 15.256-1.463 16.384-10.653.259-2.106-.28.493-.839 2.048-3.657 10.043-14.04 11.421-17.134 5.427-3.768-7.181-1.84-18.822 5.557-22.08 4.51-2.136 11.729 1.04 12.408 10.742.118 1.888-.034 2.94.056 2.952.382.05 1.829-11.124-6.264-14.464v.002z"/><path fill="#FDFE1F" d="M157.947 136.067c5.424-8.723-12.32-27.71-24.425-24.878-3.69.864-9.12 6.203-9.802 7.078-5.462 6.965 9.459 27.661 23.056 26.208 4.045-.432 9.598-5.878 11.171-8.408z"/><path fill="#0F0F0F" d="M134.23 110.301c-4.246.533-10.9 6.777-11.694 8.421-5.11 10.219 16.218 32.384 27.878 25.32a29.114 29.114 0 0 0 7.829-7.072c6.463-8.071-9.969-28.431-24.013-26.669zm-7.776 6.897c4.376-4.137.32-1.611 2.026 4.404-1.901 1.816-1.546 1.993-4.227 3.284-1.263-4.708.227-5.825 2.201-7.688zm-1.889 8.722a17.578 17.578 0 0 1 1.958-1.688c.723-.51 1.682-1.024 2.344-1.44a24.323 24.323 0 0 0 3.6 6.29c-2.117 1.675-1.038 1.494-4.52 3.283a23.488 23.488 0 0 1-3.382-6.445zm4 7.253c2.936-2.711 2.325-1.682 4.661-3.139a37.927 37.927 0 0 0 5.705 5.646 13.023 13.023 0 0 1-4.505 3.245 33.8 33.8 0 0 1-5.864-5.749l.003-.003zm13.422 9.678a21.398 21.398 0 0 1-6.657-3.267c2.83-2.683 3.024-2.042 4.6-3.146a24.62 24.62 0 0 0 5.683 3.212 10.62 10.62 0 0 1-3.629 3.204l.003-.003zm1.163.271c1.76-2.125 2.778-2.109 3.725-3.063 1.947.529 4.002.507 5.936-.064-3.363 2.803-5.325 3.871-9.664 3.13l.003-.003zm14.748-9.751c-.48 2.055-1.02 2.667-3.212 4.912-7.899 7.901-32.508-15.792-24.201-24.504 10.475-7.249 29.064 8.667 27.409 19.595l.004-.003z"/><path fill="#0F0F0F" d="M151.129 121.626a13.925 13.925 0 0 0-2.08-1.981 27.239 27.239 0 0 1 5.477 8.936c.823 2.653.861 5.8-1.102 7.429-2.455 2.121-6.275-.039-8.826-1.408a28.85 28.85 0 0 1-10.441-9.77c-4.996-7.902-.772-12.597 5.681-10.549 6.226 2.003 8.827 5.547 9.099 5.256.228-.237-8.168-8.261-14.417-6-6.907 2.523-2.2 12.061 3.603 17.501 15.651 14.56 23.227 2.355 13.006-9.414z"/><path fill="#FDFE1F" d="M125.536 194.437c-1.522.63-7.877 5.28-9.998 8.785-6.223 10.261 5.494 29.751 16.704 29.877 4.808-.296 12.977-7.11 14.19-10.685 4.768-14.043-12.046-31.596-20.896-27.977z"/><path fill="#0F0F0F" d="M125.25 193.741a41.044 41.044 0 0 0-8.916 7.073c-10.003 11.508 5.055 34.029 16.381 33.004 3.509-.12 12.536-6.157 14.432-11.165 5.309-14.024-12.384-33.026-21.897-28.912zm14.625 20.283c1.503-1.421.733-1.666 4.509-4.389a20.234 20.234 0 0 1 1.706 7.274 12.14 12.14 0 0 1-4.301 3.36 23.078 23.078 0 0 0-1.914-6.245zm4.011-5.491a15.322 15.322 0 0 1-4.587 4.294 34.624 34.624 0 0 0-4.405-6.635c2.197-2.315.815-1.714 4.52-4.453a30.311 30.311 0 0 1 4.472 6.794zm-5.212-7.6c-2.804 3.457-2.64 2.573-4.626 4.296a23.39 23.39 0 0 0-5.584-4.573 19.353 19.353 0 0 1 4.405-4.066 21.571 21.571 0 0 1 5.805 4.343zm-6.88-4.843c-2.146 2.792-2.146 2.24-4.522 3.96a9.658 9.658 0 0 0-6.611-.749c4.977-3.979 6.449-5.2 11.134-3.211h-.001zm.774 36c-7.568.883-19.84-12-17.512-24.42 4.63-22.356 34.434 8.399 23.424 21.549-1.648 1.181-3.92 2.781-5.91 2.872l-.002-.001zm12.051-8.608a26.421 26.421 0 0 1-4.206 4.257 11.946 11.946 0 0 0 1.494-6.08 33.931 33.931 0 0 1 4.16-3.413 12.294 12.294 0 0 1-1.446 5.237l-.002-.001z"/><path fill="#0F0F0F" d="M138.605 221.934c-1.531-9.406-8.36-18.72-15.338-19.598-5.299-.782-10.148 5.656-4.8 16.062.439.888.976 1.725 1.6 2.493a27.93 27.93 0 0 1-3.217-10.297c-.416-6.802 5.462-10.359 12.251-4.372 6.749 5.994 13.218 21.413 4.35 22.72-7.716 1.136-14.996-10.635-12.96-7.232 6.455 10.77 19.757 10.567 18.114.224z"/><path fill="#FDFE1F" d="M159.221 195.955c-3.41-1.929-7.301-2.485-12.202-3.291-12.587-2.067-20.853 19.378-8.394 28.517 2.48 1.819 10.944 3.163 14.629 3.273 13.077.392 18.079-21.646 5.967-28.499z"/><path fill="#0F0F0F" d="M165.39 201.776c-3.445-7.099-9.037-8.338-16.509-9.576-3.147-.579-4.976-.822-7.568.258-11.36 4.918-14.848 26.4 1.244 31.099 3.392.926 10.02 2.131 13.48 1.419 8.569-1.821 13.617-14.195 9.353-23.2zm-16.811-7.68c5.44.838 1.338-.544-2.72 3.155a22.765 22.765 0 0 1-6.269-1.413c3.29-2.686 5.634-2.32 8.989-1.74v-.002zm-9.92 2.586c2.162.124 4.283.644 6.258 1.532a17.243 17.243 0 0 0-3.108 5.28c-4.088-1.001-2.065.136-6.702-1.656a16.061 16.061 0 0 1 3.547-5.155l.005-.001zm1.738 14.339c-4.994-.901-1.952.045-6.696-1.685a18.679 18.679 0 0 1 1.022-6.506c4.992.738 3.71.904 6.686 1.824a22.196 22.196 0 0 0-1.017 6.368l.005-.001zm-6.632-.53c5.091.706 4.48 1.229 6.649 1.781a16.328 16.328 0 0 0 1.12 5.202c-3.52-.17-1.888.038-5.88-1.063a13.404 13.404 0 0 1-1.894-5.918l.005-.002zm2.696 7.064c3.814.186 5.588 1.576 5.657 1.077a11.352 11.352 0 0 0 3.84 3.789c-4.288-.919-6.966-1.653-9.502-4.864l.005-.002zm24.078 3.234c-3.474 3.142-6.898 2.822-10.931 2.269-5.539-.773-9.935-7.01-7.752-16.546 3.165-14.11 16.651-14.68 22.094-4.029a15.697 15.697 0 0 1-3.416 18.307l.005-.001z"/><path fill="#0F0F0F" d="M157.251 197.47c-7.52-3.269-15.6 6.24-12.531 17.888a8.656 8.656 0 0 0 3.347 5.626c5.28 3.577 13.794-1.378 14.8-9.624.237-1.907-.256.453-.757 1.848-3.302 9.08-12.688 10.312-15.478 4.904-3.411-6.507-1.653-17.01 5.019-19.949 4.021-1.906 10.592.934 11.21 9.704.107 1.706-.031 2.658.049 2.666.354.049 1.613-10.063-5.659-13.063z"/><path fill="#FDFE1F" d="M152.91 179.448c9.44-6.693.551-33.048-14.419-34.664-3.984-.431-12.579 2.816-14.155 4.014-7.238 5.383-3.008 27.059 9.15 33.669 3.68 2.002 7.162 2.712 15.317-.867a26.272 26.272 0 0 0 4.107-2.152z"/><path fill="#0F0F0F" d="M135.318 144.128a41.53 41.53 0 0 0-11.44 4.067c-8.588 6.4-2.572 33.704 14.381 36.69 3.464.609 10.954-2.331 14.24-4.277 12.461-7.218.08-39.064-17.181-36.48zm-3.603 2.835a10.454 10.454 0 0 0-3.254 6.56c-2.955 1.183-2.479 1.482-6.147 1.795.923-5.558 3.091-6.209 9.401-8.355zm-9.568 9.632c.555-.189 2.842-1.065 3.04-1.065.995-.248 2.24-.405 3.139-.578a25.828 25.828 0 0 0 .874 7.747c-3.227.96-1.504 1.12-6.502 1.695a23.879 23.879 0 0 1-.551-7.799zm.835 8.946c4.416-1.698 3.794-.987 6.58-1.525a37.861 37.861 0 0 0 3.379 7.882 16.266 16.266 0 0 1-6.491 1.664 33.26 33.26 0 0 1-3.468-8.021zm4.16 9.12c4.712-1.875 4.276-1.002 6.522-1.559 1.223 2 2.724 3.815 4.459 5.391a13.48 13.48 0 0 1-5.523 1.965 21.686 21.686 0 0 1-5.454-5.796l-.004-.001zm6.66 6.568c3.377-1.834 5.638-1.471 5.496-1.808a12.426 12.426 0 0 0 6.446 2.187c-5.87 1.971-8.454 1.667-11.939-.378l-.003-.001zm22.116-10.183c-.505 6.047-2.931 7.616-7.707 9.634-10.509 1.634-17.693-12.8-18.777-22.171-2.714-23.365 28.059-11.682 26.488 12.539l-.004-.002z"/><path fill="#0F0F0F" d="M151.547 160.016c-2.142-4.403 4.552 9.28-.918 15.907-6.16 7.455-16.219-7.36-17.717-17.072-.506-3.326.016-8.016 2.651-9.624a7.448 7.448 0 0 1 8.192.991c5.773 4.392 6.888 9.132 7.309 8.937.32-.149-4.854-11.696-12.59-11.595-8.244.115-7.84 11.382-4.207 19.299 2.432 5.203 8.611 13.81 14.197 11.68 6.085-2.192 6.184-12.139 3.083-18.523z"/><path fill="#FDFE1F" d="M189.92 131.915c-8.019-3.875-13.213-6.47-21.296-.507-9.76 7.2-12.96 20.592-10.002 26.416a8.606 8.606 0 0 0 3.68 3.808c3.048 1.886 9.221 4.96 12.791 4.674 15.877-1.269 25.825-29.072 14.827-34.391z"/><path fill="#0F0F0F" d="M194.654 136.208c-1.076-3.488-2.915-4.32-6.174-5.87-3.259-1.551-7.605-3.552-11.226-3.146-15.312 1.222-27.443 26.786-16.16 34.618a36.151 36.151 0 0 0 10.474 4.844c12.64 3.586 27.472-16.264 23.086-30.446zm-1.473 3.43c-3.634-.624-3.394-1.027-5.92-2.28-.389-6.672-5.589-8.092.336-5.193 3.451 1.664 5.169 2.493 5.584 7.473zm-33.258 18.4c-4.696-6.87 1.683-24.48 14.223-28.344 23.1-6.643 9.059 36.301-8.64 32.46-1.901-.973-4.524-2.304-5.583-4.124v.008zm13.957 7.04a28.084 28.084 0 0 1-6.045-1.841c2.244.051 4.46-.498 6.421-1.589-.144.282 2.584.502 5.229 2.213a12.765 12.765 0 0 1-5.605 1.206v.011zm6.862-1.854a13.26 13.26 0 0 1-5.251-2.368 24.236 24.236 0 0 0 4.898-4.856c2.217.76 2.038-.069 6.313 2.061a21.331 21.331 0 0 1-5.96 5.152v.011zm6.746-6.17c-4.605-1.016-2.462-.452-6.264-2.176a36.68 36.68 0 0 0 4.038-7.374c2.914.822 2.133-.016 6.38 2.038a31.974 31.974 0 0 1-4.154 7.501v.011zm4.542-8.601c-4.64-.928-3.66-1.189-6.283-2.213a24.707 24.707 0 0 0 1.533-7.461 20.36 20.36 0 0 1 5.96 2.12 22.73 22.73 0 0 1-1.21 7.543v.011z"/><path fill="#0F0F0F" d="M165.28 160.032c5.378 2.448 12.32-5.539 15.063-10.19 4.305-7.4 5.659-18.436-2.608-19.184-7.506-.7-13.824 10.001-13.471 10.203a29.454 29.454 0 0 1 8.035-8.061c6.215-3.765 12.336.112 10.095 9.302-2.304 9.32-13.536 22.836-19.09 15.216-4.851-6.656 2.579-19.232.397-15.657-3.656 5.997-4.384 15.741 1.579 18.371z"/><path fill="#FDFE1F" d="M39.315 228.48a32.157 32.157 0 0 0 8.94-.832c11.958-2.909 11.388-27.89 1.161-29.63-1.493-.16-8.48.344-11.2 1.891-10.696 6.117-9.123 28.238 1.1 28.571z"/><path fill="#0F0F0F" d="M49.6 197.258c-11.08-.21-14.914 3.251-17.46 8.832-3.735 8.288-1.75 22.635 7.332 23.15 3.573.203 9.208-.186 12.142-2.266 10.306-7.566 6.805-28.696-2.014-29.716zm4.16 25.264a11.288 11.288 0 0 1-4.728.48 21.318 21.318 0 0 0 1.608-5.183 16.24 16.24 0 0 1 5.342-1.085 17.014 17.014 0 0 1-2.222 5.788zm2.4-6.821c-.704.209-1.733.598-2.598.773-4.736 0-1.76 2.179-2.735-6.304a15.664 15.664 0 0 1 5.4-1.13c.283 2.213.26 4.454-.067 6.661zm-.08-7.592a15.653 15.653 0 0 1-5.398.997 18.474 18.474 0 0 0-1.778-5.655 12.823 12.823 0 0 1 5.144-.913 17.043 17.043 0 0 1 2.032 5.571zm-2.582-6.442a14.3 14.3 0 0 1-5.148.839 7.708 7.708 0 0 0-4.45-3.46c5.596-.646 7.263-.756 9.598 2.621zm-19.87 22.295c-9.023-16.208 10.33-34.936 15.598-17.655 2.24 7.335 1.062 19.394-7.093 21.571-3.69.17-6.306-.022-8.504-3.916zm10.742 3.734a11.152 11.152 0 0 0 4.097-3.634 18.725 18.725 0 0 1 4.618-.577c-2.349 3.075-4.727 3.742-8.715 4.211z"/><path fill="#0F0F0F" d="M41.618 226.445c3.244-.403 4.512-3.751 5.462-6.507a21.379 21.379 0 0 0 .408-12.612c-3.1-10.91-14.219-6.2-14.107 5.92.011 1.768.192-.48.424-1.779 2.062-11.325 10.494-12.574 12.92-3.931 1.977 7.258-.895 15.178-2.987 17.101-2.86 2.627-8.704.813-10.037-8.197-.203-1.477-.264-3.493-.35-1.795-.292 5.565 3.016 12.499 8.267 11.8z"/><path fill="#fff" d="M55.644 188.382c.836.351 1.636.784 2.388 1.291 4.204 2.365 12.392 1.858 18.005-4.507a29.064 29.064 0 0 0 4.333-8.838c1.403 4.23 5.65 9.003 8 11.048 4.365 3.798 6.225 4.613 13.053 5.326a17.039 17.039 0 0 0 9.145-1.776c-2.72 11.163-4.712 24.069 3.018 34.541a38.525 38.525 0 0 0 2.947 4c.682.618 1.28 1.32 1.782 2.09-.764.816-2.11.8-2.956 1.532a41.075 41.075 0 0 0-5.837 5.44c-6.626 8.573-1.213 13.44-2.296 16.407-4.96-2.139-5.325-2.216-5.811-2.765-5.743-1.05-10.341-1.805-15.57.64-6.974 3.266-8.693 8.278-10.58 10.035a58.86 58.86 0 0 0-1.778-7.323c-.218-.538-2.792-4.576-2.917-4.736a20.33 20.33 0 0 0-9.826-6.171c-3.753-1.28-7.395.262-6.515-1.32 2.992-5.384 1.936-9.899 1.76-13.885-.344-7.978-1.747-7.968-2.85-9.467-.708-.96-.894-2.307-1.822-3.064-.984-.8-2.208-1.141-3.04-2.107-1.138-1.33-.056-.831-3.36-3.09-.48-.32-.368-.64.134-.819 2.136-.744 2.55-.248 5.082-1.935 2.757-1.835 4.147-2.627 4.978-3.801a24.896 24.896 0 0 0 2.915-5.792 11.99 11.99 0 0 0-.7-6.571 22.474 22.474 0 0 1-1.682-4.383z"/><path fill="#0F0F0F" d="M114.978 226.307c-11.346-18.109-2.898-35.013-4.234-35.507-.246-.541-4.661 1.833-11.512.526a26.436 26.436 0 0 1-16.32-11.632c-1.805-2.915-2.334-5.056-2.67-4.984-.352-.024-.504 2.09-1.82 5.047a16.838 16.838 0 0 1-15.04 10.118c-5.93-.128-9.662-4.246-10.09-3.765-.463.445 8.834 10.747-.767 19.728-4.171 3.983-8.466 4.695-8.347 5.239-.434.539 4.683 4.188 7.597 8.417 3.886 5.615 4.25 12.371 3.073 19.063-1.325 7.344-2.149 5.091 3.829 6.337a19.288 19.288 0 0 1 15.165 14.207c1.92 6.51 0 5.6 4.853.348a21.463 21.463 0 0 1 10.979-6.371c10.453-2.425 17.555 3.114 18.009 2.416.727-.32-2.24-6.913.949-13.961 3.299-7.412 10.095-9.087 9.855-9.864.26-.255-1.415-2.069-3.509-5.362zm-.824 6.472a16.389 16.389 0 0 0-8.416 18.69c1.171 4.681 2.627 3.152-2.744.75-10.503-4.648-23.352-.03-27.445 9.637a18.543 18.543 0 0 0-5.735-13.663c-4.985-4.702-12.548-5.691-15.503-4.404 2.046-2.748 8.2-19.17-5.316-29.821-5.837-4.466-5.305-1.576.144-3.743 9.421-3.755 12.104-13.265 7.821-20.465 9.213 5.965 22.298-1.339 23.509-12.32 2.427 9.174 13.814 17.857 24.901 15.72 7.11-1.411 5.131-4.859 2.851 3.657-3.93 13.664 2.122 30.207 9.92 34.72a9.862 9.862 0 0 0-3.987 1.242z"/><path fill="#FDFE1F" d="M59.42 209.965c-3.905 16.18 8.103 36.104 18.922 37.897 6.375 1.056 20.047-5.238 23.021-9.158 13.472-17.76-6.72-52.271-22.097-46.379-10.562 4.044-17.301 6.961-19.847 17.64z"/><path fill="#0F0F0F" d="M106.861 221.6c-1.672-16.943-15.434-35.28-27.931-30.544-8.33 3.36-15.45 5.701-19.093 13.837-7.826 16.66 5.072 42.219 18.307 44.273 3.52.547 5.245.096 10.343-1.635a47.653 47.653 0 0 0 12.248-6.285c3.302-2.638 7.02-9.837 6.126-19.646zm-11.18 2.4c3.252-1.797 1.234-1.882 8.342-4.659.659 3.574.64 7.24-.053 10.808-3.736 1.982-2.498 1.998-7.727 3.347A32.961 32.961 0 0 0 95.68 224zm7.999-6.461c-6.149 4.205-2.494 2.022-8.406 4.558a50.146 50.146 0 0 0-4.037-10.932c4.48-2.493.406-1.154 8.389-4.704a44.141 44.141 0 0 1 4.04 11.081l.014-.003zM98.802 205c-5.002 3.915-4.091 2.598-8.455 4.493a34.399 34.399 0 0 0-6.49-8.471c1.086-.677 2.513-1.697 3.77-2.385.16-.168 3.628-1.564 4.288-1.864a32.336 32.336 0 0 1 6.872 8.23l.015-.003zm-8.32-9.362c-4.397 3.389-4.101 2.515-8.149 4.095a14.476 14.476 0 0 0-9.869-3.418c8.125-3.675 11.424-5.53 18.01-.674l.008-.003zm-10.86 51.53c-13.676-1.723-25.483-25.688-17.817-41.355 5.651-12.175 20.306-12.685 29.709 9.35 4.448 11.032 6.149 24.107-3.968 30.264-2.243.79-5.743 2.021-7.931 1.744l.008-.003zm11.578-3.207a17.168 17.168 0 0 0 4.735-8.395c.16-.056 4.392-2.336 4.553-2.496a20.086 20.086 0 0 1 2.97-.95c-1.967 6.349-5.421 8.79-12.258 11.841z"/><path fill="#0F0F0F" d="M83.955 208.32c-3.067-4.286-8.53-8.41-13.241-7.373-9.402 1.999-10.175 15.631-6.71 24.603 1.12 2.908.02-.904-.412-3.211-2.998-16.489 5.325-22.24 11.71-19.558 11.794 4.771 17.644 28.461 13.013 36.501-2.224 3.86-8.16 5.267-14.467.32-7.339-5.812-8.758-13.012-9.28-12.815-.63.226 5.402 15.84 16.239 17.12 14.86 1.802 11.936-23.253 3.148-35.587z"/><path fill="#0F0F0F" d="M71.467 224.753c.066.18-.072 0 2.173 2.098.16.149.053.083 5.083-1.771.16-.058.181.297 1.872 4.897.063.175.242.034-2.416 1.018-.16.061-.328-.714-.934-2.379-.067-.186.296-.237-3.829 1.265-.16.06.127.519 1.749 4.96.06.16-.083-.017 2.178 2.09.16.152.064.056 7.643-2.72.16-.058.128-.651.403-2.912.02-.16.211.456-3.638-10.053-.064-.174.088.018-2.16-2.08-.16-.147.16-.176-5.096 1.76-.16.061-.205-.369-1.868-4.893-.065-.184-.262-.032 2.464-1.041.16-.061.356.8.93 2.374.072.2-.277.234 3.827-1.259.16-.059-.08-.406-1.739-4.941-.064-.174.093.016-2.152-2.08a46.512 46.512 0 0 0-7.758 2.931c-.463 3.861-.999 1.103 3.268 12.736z"/><path fill="#92FCFF" d="M156.762 102.578c-1.741.998-4.362 3.388-4.376 4.144 0 .376 6.782 10.4 11.971 17.76 1.142 1.622 1.181-.96 14.986-13.221 1.179-1.047.696-1.064-1.309-4a22.391 22.391 0 0 0-2.488-3.509c-1.531-1.322-11.594-1.725-14.543-1.664a8.469 8.469 0 0 0-5.744 1.648l1.503-1.158z"/><path fill="#0F0F0F" d="M179.271 108.037c-2.527-4.946-3.903-5.181-8-5.899a65.477 65.477 0 0 0-12.48-.692 8.154 8.154 0 0 0-5.28 3.125c-2.276 2.915-2.34 2.002 7.542 16.354 1.738 2.525 3.36 4.427 3.717 4.2.16-.083.921.169 4.345-3.135 11.845-11.43 11.8-10.732 10.156-13.953zm-14.45 16.696c-.458-2.255-11.018-17.487-12.371-18.015a9.535 9.535 0 0 0 1.841-1.393c2.541-2.173 3.349-2.909 12.727-2.165 2.63.139 5.229.624 7.731 1.448 1.509.819 4.306 5.237 5.109 5.752-1.709.222-14.333 12.768-15.037 14.373z"/><path fill="#0F0F0F" d="M176.763 110.787c-.32-3.294-.72-6.301-.614-3.022.12 2.774.182 2.371-.151 2.035-3.857-3.888-3.412-3.381-3.214-3.456 3.181-1.28 3.373-1.632-.198-.582-3.775.053-7.549-.101-11.306-.463-.88-.261-3.478-1.873-3.608-1.661a12.6 12.6 0 0 0 3.378 2.346c3.145.413 6.313.63 9.486.654a1067.593 1067.593 0 0 0-5.179 4.559c-.275.211.021.493-1.221-1.331-2.901-4.271-1.933-4-4.859-2.919-2.816.874-2.789 2.063-2.365.111 1.163-5.564.026-1.94-.787 1.371-8.178-5.181 2.456 2.673 3.832 3.299a81.317 81.317 0 0 0 3.477 9.547 76.46 76.46 0 0 0-2.613-9.248c1.528.272 3.073.432 4.625.48-.862 14.496-.179 14.547.725.05 5.933.398 5.055.358 6.152.35-7.36 11.264-6.521 11.251.919-.078 1.169-.267 10.16-4.493 3.521-2.042zm-20.123-2.033c-.122-.077-.122-.01.381-.218 4.79-2.067 4.312-1.741 4.667-1.091.6.947 2.109 3.184 2.734 4.112-4.432-.311-3.564-.071-7.782-2.803zm18.642 2.593c-2.756 1.035-1.397.952-9.357.32a72.302 72.302 0 0 1 5.726-4.998c.33-.149.602.48 4.728 4.16.155.141.202.016-1.102.518h.005z"/><path fill="#92FCFF" d="M90.946 163.528c-1.076.835-2.24 1.566-3.234 2.497-2.86 2.674-2.776 2.4-3.592 4.33-.667 1.571-1.405 5.315-.48 6.226.533.52 21.019 4.16 21.181 4.19.981.149.293-.187.517-5.893.211-5.374.427-10.32.464-13.475.014-1.166 1.646-2.462-6.56-2.88-4.103-.198-3.839 1.539-8.296 5.005z"/><path fill="#0F0F0F" d="M105.52 159.446c-1.373-.926-6.125-2.156-8.01-1.553-3.286 1.054-9.18 6.483-11.635 8.889a8.036 8.036 0 0 0-3.022 7.493c.432 3.629-.307 3.059 16.872 6.301 1.76.432 3.571.605 5.379.515.96-.267 1.075-4.55 1.094-5.44.224-10.334.616-15.331-.678-16.205zm-.445 21.194c-1.968-1.314-19.323-4.424-21.214-4.144.539-5.158-1.029-5.44 7.585-12.72 7.172-6.003 6.698-4.606 14.106-3.798-.912 1.809-1.208 18.752-.477 20.662z"/><path fill="#0F0F0F" d="M102.667 166.248c.659-1.042 4.043-10.315 1.067-3.926-7.406-6.119-.832-.16-1.028-.16-1.565-.031.311.067-4.33-.012-.815 0-.7.047-.595-.185 1.364-3.151 1.243-3.52-.55-.274a102.723 102.723 0 0 1-8.353 7.634c-.81.433-3.79 1.12-3.73 1.361a12.576 12.576 0 0 0 4.047-.713 77.672 77.672 0 0 0 7.2-6.216c-.16 2.15-.346 5-.467 6.88-.048.344.365.334-1.805-.085-4.406-.861-3.92-.81-4.222-.762-.903.399-2.21 4.583-2.285 4.746-.02.011-2.226-3.477-2.338-3.413a39.973 39.973 0 0 0 2.146 4.048c-9.43 2.08 3.598.181 5.043-.353a78.04 78.04 0 0 0 9.192 4.32 76.466 76.466 0 0 0-8.368-4.727 32.126 32.126 0 0 0 3.62-2.92c9.651 10.967 10.063 10.386.548-.48 4.451-3.861 3.827-3.289 4.615-4.083 2.67 13.059 3.316 12.752.593-.68zm-14.75 8.822a44.59 44.59 0 0 1 2.161-4.64c.203.023.403.069.597.138 1.12.261 4.01.832 4.837.995-3.568 3.072-2.58 2.379-7.595 3.507zm8.737-4.491c.612-9.157-.401-7.771 3.2-7.8 4.344.035 4.036-.817 3.226.987-1.238 2.679-.295 1.629-6.426 6.813z"/><path fill="#92FCFF" d="m182.506 81.667.757-7.297a.893.893 0 0 0-.253-.705.854.854 0 0 0-.707-.243l-7.143.879a.875.875 0 0 0-.71.576.864.864 0 0 0 .203.892l2.261 2.272c-8.76 7.253-12.64 11.645-12.677 11.377-1.078-7.242.525-9.76-.426-12.239-.448-1.168-2.11-1.898-2.99-1.008-.16.16-20.506 25.194-20.056 25.616.866.816 12.499-12.122 14.47-14.4 6.588-7.627 5.458-7.2 5.498-5.408.021 1.216.075 2.429.16 3.64 1.147 15.506-1.56 10.704 18.08-5.505l2.061 2.08a.855.855 0 0 0 .664.252.857.857 0 0 0 .629-.332.868.868 0 0 0 .179-.447z"/><path fill="#0F0F0F" d="M182.4 73.414c1.258 0 .874.83.101 8.253a.876.876 0 0 1-.573.727.864.864 0 0 1-.901-.205l-2.061-2.08c-12.619 10.414-15.297 14.94-16.614 14.94-1.502 0-1.718-14.01-1.638-14.212.044-.176-5.405 6.907-12.664 14.416-4.264 4.412-7.024 6.782-7.296 6.526-.447-.419 19.897-25.456 20.056-25.616.878-.888 2.54-.16 2.99 1.008.912 2.371-.563 4.826.354 11.696.211 1.586-.839.418 12.748-10.834l-2.26-2.272a.865.865 0 0 1 .507-1.469c6.241-.76 7.07-.878 7.251-.878zm0-1.28c-.088 0-.176.005-.264.016-7.278.9-8.32.626-8.902 2.306-.495 1.429.425 2.126 1.784 3.493a195.184 195.184 0 0 0-9.824 8.844c-.434-4.302.774-7.53-.205-10.08a3.548 3.548 0 0 0-3.2-2.22c-2.026 0-2.333 1.325-9.6 10.4-9.848 12.32-15.667 18.104-11.389 18.174.509.008 1.453 0 8.16-6.933 12.309-12.734 10.573-14.08 10.69-9.23.083 3.395-.044 9.414 2.74 9.414 2.322-.124 3.256-3.425 16.48-14.49 1.397 1.402 1.704 1.877 2.752 1.877a2.14 2.14 0 0 0 2.133-1.92l.757-7.299a2.133 2.133 0 0 0-.539-1.638 2.138 2.138 0 0 0-1.573-.707v-.007z"/><path fill="#92FCFF" d="M43.491 180.126c2.698-3.884 6.749 1.991 7.776 1.559.243-.103 8.875-24.695 10.375-26.603 1.374-1.749 3.064-.904 4 .728 1.427 2.476 2.85 4.942 4.16 7.481.8-1.201 7.121-15.52 7.857-15.209l-2.933-1.295a.86.86 0 0 1-.514-.756.868.868 0 0 1 .452-.796l6.334-3.419a.862.862 0 0 1 1.244.531l1.95 7.075a.866.866 0 0 1-.705 1.086.868.868 0 0 1-.477-.065l-2.676-1.181c-.918-.404-7.921 17.984-9.616 19.08-2.08 1.351-5.58-8.414-6.924-9.385-1.472-1.064-4.412 11.76-8.39 20.496-2.24 4.902-2.56 6.84-5.351 5.565-5.839-2.668-2.848-5.007-8.898 2.649-.84 1.061-1.91 3.285-3.403 3.36-2.766.159 5.626-10.737 5.74-10.901z"/><path fill="#0F0F0F" d="M81.42 141.714c.906 0 .718.209 2.785 7.708a.868.868 0 0 1-1.183 1.021c-1.856-.824-2.545-1.187-2.707-1.187-1.193 0-8.137 19.214-10.003 19.214-2.518 0-5.92-11.136-7.112-9.414-1.909 2.742-4.41 13.826-9.818 24.763-1.555 3.147-3.84.867-6.695-.925-1.543-.96-1.333-.524-5.519 4.773-.822 1.039-1.962 3.368-3.457 3.368-2.621 0 5.665-10.744 5.78-10.909 2.188-3.15 4.9 0 7.306 1.448.869.522.069.756 5.688-13.75 4.337-11.2 3.824-11.04 5.157-12.742 1.297-1.653 2.98-1.048 4 .728 1.427 2.476 2.85 4.942 4.16 7.481.8-1.189 7.84-15.216 7.84-15.216l-2.907-1.28a.863.863 0 0 1-.404-1.22.863.863 0 0 1 .341-.333c6.896-3.725 6.439-3.528 6.747-3.528zm0-1.28c-.812 0-.79.137-7.348 3.68a2.13 2.13 0 0 0-1.124 1.967 2.137 2.137 0 0 0 1.276 1.873l1.44.64c-1.466 2.515-4.405 8.881-5.874 11.944a251.778 251.778 0 0 0-3.04-5.359c-1.484-2.574-4.254-3.241-6.11-.878-1.264 1.609-9.346 23.693-10.006 25.646-1.517-1.072-3.13-2.44-4.97-2.44-2.349 0-3.23 1.97-4.87 4.152-1.472 1.96-4.893 6.6-4.792 9.048a1.636 1.636 0 0 0 .519 1.158 1.644 1.644 0 0 0 1.19.442c2.21 0 2.732-1.76 8.094-8.456 7.149 4 7.306 8.202 16.816-20.392.272-.891.605-1.761.997-2.606 1.875 3.317 4.652 10.598 7.804 8.558 1.973-1.28 6.935-14.467 9.27-18.606 1.871.825 2.08.987 2.683.987a2.147 2.147 0 0 0 1.703-.843 2.14 2.14 0 0 0 .362-1.866c-1.787-6.457-1.84-8.645-4.02-8.645v-.004z"/><path fill="#fff" d="M268.202 85.487c-.367.185-.767-.148-1.088-.404-1.16-.923-2.002-.948-8.571-1.876-3.645-.514-11.399 1.654-15.316 5.74-6.902 7.2-3.36 11.149-6.171 6.797-.438-.678-1.171-1.144-1.534-1.867-.816-1.624-11.453-15.1-25.375-17.682-4.412-.817-8.667.341-8.219-.81.999-2.56.251-10.297-3.422-15.737-6.088-9.013-10.475-7.336-7.213-8.786a14.374 14.374 0 0 1 3.632-3.004c4.445-3.536 5.683-8.466 7.36-13.37 1.302-3.793.168-9.48.173-10.448.014-4.28.16.48 7.68 1.863 2.152.335 4.334.448 6.51.332a28.454 28.454 0 0 0 10.378-4.116c1.297-.977 1.099-1.106 3.097-2.695.391-.32 3.335 5.162 5.135 7.104a53.358 53.358 0 0 0 7.253 5.744 10.876 10.876 0 0 0 5.392 2.314c8.734 1.95 8.48-.018 12.081.201a2.68 2.68 0 0 1 1.515-.307c.74.547-2.588 2.984-.564 10.744a11.89 11.89 0 0 0 3.62 5.976c4.568 5.506 6.72 4.246 11.453 5.86-8.32 5.674-11.48 9.61-10.417 20.147.15 1.513.139.739 2.611 8.28z"/><path fill="#0F0F0F" d="M276.851 56.94c.034-.746-7.806-.8-12.705-7.966a16.055 16.055 0 0 1-2.88-10.035c.305-5.76 2.56-4.987-5.159-4.48a21.556 21.556 0 0 1-12.462-2.544c-8.32-4.48-12.773-13.149-13.554-12.669-.564-.43-4.449 4.48-13.744 5.719-3.44.549-6.964.139-10.187-1.186-2.425-1.085-3.648-2.355-3.917-2.115-.992.16 1.44 8.498-2.448 16.7a29.968 29.968 0 0 1-6.501 9.92c-5.617 5.138-4.625 1.942-.398 5.666 4.013 3.536 8.075 12 8.653 17.722.782 6.06-2.339 3.62 6.646 5.28a42.492 42.492 0 0 1 20.984 10.968c6.45 6.112 8.664 10.302 9.157 10.013.541.121 1.405-4.923 6.43-9.08 4.204-3.53 11.788-5.568 18.836-4.144 7.217 1.45 5.745 3.377 3.68-3.399-5.258-17.014 9.897-23.644 9.569-24.37zm-4.828 1.98a18.43 18.43 0 0 0-6.157 22.936c2.056 4.584 3.248 3.04-1.882 1.39-12.147-3.948-25.53 4.396-25.768 14.005-3.099-8.334-15.248-20.131-29.802-21.795-9.854-.848-5.459 2.936-5.337-3.83.376-8.7-7.064-19.823-12.525-20.16 7.864-2.597 16.133-16.122 12.301-28.586 3.04 3.854 8.942 4.886 13.782 4.227 7.397-.979 12.658-5.397 13.456-7.505.784 3.278 9.959 19.078 26.191 16.38 7.659-1.388 4.715-3.099 3.48 2.778-1.519 7.22 3.748 16.072 12.251 18.114 4.262 1.012 3.976-.62.01 2.046z"/><path fill="#FDFE1F" d="M215.725 33.712c-3.579 2.058-6.264 5.29-9.128 8.78-2.018 2.462-3.52 3.943-3.416 7.569.294 14.4 24.277 35.891 42.019 31.469 5.531-1.38 11.965-9.397 14.541-14.381 7.878-15.248-26.981-43.24-44.016-33.439v.002z"/><path fill="#0F0F0F" d="M258.914 52.9c-7.714-13.084-26.114-25.087-40.48-21.346-5.12 1.332-9.269 6.195-12.624 10.294a14.155 14.155 0 0 0-3.237 5.054c-4.607 15.09 27.158 43.24 45.077 34.88 3.22-1.524 7.731-6.43 10.104-9.686 3.921-5.347 6.337-10.016 1.16-19.197zm-53.999-5.298c.41-1.717 5.191-7.234 6.271-8.41a13.775 13.775 0 0 0 .875 10.653c-2.461 3.115-1.786 3.275-5.96 6.017-1.04-2.476-1.973-5.69-1.186-8.26zm1.92 9.857c.855-.944 1.803-2.214 2.826-3.2.969-.936 2.325-1.893 3.245-2.662a38.95 38.95 0 0 0 6.865 9.072c-3.11 3.627-1.822 3.182-6.369 6.121a38.018 38.018 0 0 1-6.572-9.33h.005zm7.723 10.507c4.837-5.388 4.045-3.665 6.56-5.982a59.572 59.572 0 0 0 9.92 7.643c-3.984 4.618-1.521 2.4-6.412 6.053a53.906 53.906 0 0 1-10.066-7.714h-.002zm11.636 8.604c4.195-5.181 4.264-3.9 6.507-5.96a38.516 38.516 0 0 0 9.366 3.9c-2.617 4.31-2.277 3.164-5.097 5.892a33.854 33.854 0 0 1-10.781-3.832h.005zm12.688 4.057c2.62-4.33 3.492-3.497 5.185-5.726a16.393 16.393 0 0 0 9.73-1.555c-5.203 5.94-8.394 7.656-14.917 7.281h.002zm19.732-14.032c-4.32 9.635-14.665 8.387-23.984 3.487-23.664-12.698-31.491-36.16-10.95-37.108 20.515-.69 40.909 23.168 34.93 33.621h.004z"/><path fill="#0F0F0F" d="M246.56 45.59a20.341 20.341 0 0 0-3.592-2.654c-.264.34 6.349 4.52 10.226 12.69 1.784 3.84 2.681 8.72.049 11.71-3.237 3.858-9.641 1.186-13.8-.44a45.709 45.709 0 0 1-17.972-13.078c-3.1-3.744-6.154-9.778-4.421-13.498 1.211-2.658 5.089-5.011 10.72-3.942 9.499 1.844 14.72 6.817 15.011 6.416.291-.402-14.317-11.304-23.346-6.508-9.824 5.242-.64 19.01 9.373 26.332 6.429 4.656 20.376 11.708 25.394 5.53 5.256-6.18-1.157-16.743-7.642-22.558z"/><path fill="#0F0F0F" d="M236.704 49.842c1.347-4.651-3.821-9.58-8.186-8.613-1.067-1.58-3.011-2.544-3.288-2.08-.259.416 1.215 1.86 1.895 2.58-1.776.822-1.187 1.028-1.76.393-2.309-2.59-3.4-1.664-1.069.96.366.413.419-.016-.85 1.57 0 0 5.712 5.52 9.978 9.786 10.741 12.138 8.685 11.236 10.374 9.412 1.908 2.324 5.032 2.785 1.208-.757.503-.3.964-.663 1.375-1.079 2.697 3.14 4.128 1.96.859-1.136 2.962-5.303-6.069-11.406-10.536-11.036zm-9.504-5.167a9.422 9.422 0 0 1 1.84-1.44c3.2-1.635 6.989 2.205 5.827 5.243a7.999 7.999 0 0 1-2.419 2.88c-1.888-2.302-3.76-4.798-5.248-6.683zm15.482 16.48a90.13 90.13 0 0 1-8.175-7.404 5.261 5.261 0 0 1 3.506-1.78c4.849-.044 9.28 4.48 7.68 7.276a5.096 5.096 0 0 1-3.013 1.911l.002-.003z"/><path fill="#FDFE1F" d="M196.392 81.045a43.014 43.014 0 0 0-9.424 8.019c-2.69 2.72-4.512 5.902-1.293 13.941 5.267 13.038 22.279 27.862 36.762 24.899 3.965-.81 11.019-7.822 13.523-11.52 9.848-14.526-22.813-44.531-39.568-35.34z"/><path fill="#0F0F0F" d="M199.89 78.789c-4.944.835-9.261 5.085-12.762 8.668a13.446 13.446 0 0 0-3.469 4.489c-5.673 14.028 22.295 42.976 39.642 36.662 4.11-1.52 14.414-10.272 14.985-17.174 1.165-14.063-21.051-35.576-38.396-32.645zm-14.215 13.957c.546-1.626 5.627-6.528 6.802-7.59a12.98 12.98 0 0 0-.16 10.337c-2.763 2.92-1.989 2.953-6.211 5.235-.786-2.46-1.397-5.597-.431-7.982zm1 9.571c.847-.775 1.973-1.991 3.002-2.848 0-.16 2.03-1.371 3.291-2.251a37.012 37.012 0 0 0 5.739 9.156c-3.021 2.952-1.813 2.76-6.608 5.298a36.122 36.122 0 0 1-5.424-9.355zm6.434 10.584c5.861-5.448 3.022-2.285 6.76-5.168a56.67 56.67 0 0 0 8.752 8.061c-4.562 4.428-1.92 2.284-6.647 5.235a51.21 51.21 0 0 1-8.865-8.128zm10.291 9.12c4.654-4.789 4.298-3.303 6.712-5.155a36.57 36.57 0 0 0 8.536 4.48c-2.904 3.947-2.514 2.833-5.392 5.209a32.231 32.231 0 0 1-9.856-4.539v.005zm11.67 4.912c2.751-3.763 3.94-3.408 5.44-5.059 3.173.759 6.504.501 9.522-.736-5.923 5.728-9.243 6.667-14.962 5.788v.007zm21.303-15.664c-.303 3.011-1.344 4.336-3.954 7.345-6.409 4.8-13.781 2.2-20.438-2.08-10.08-6.616-24.269-22.096-17.76-32.189 3.904-5.28 12.753-4.48 18.896-2.004 15.069 6.006 24.051 21.005 23.256 28.923v.005z"/><path fill="#0F0F0F" d="M225.309 94.346a22.364 22.364 0 0 0-3.178-2.812c-.278.301 5.629 4.8 8.616 12.86 1.367 3.788 1.81 8.48-.931 11.084-3.387 3.38-9.219.32-13.019-1.568a43.445 43.445 0 0 1-15.914-13.875c-2.614-3.792-5.009-9.76-3.056-13.139 1.351-2.382 5.195-4.32 10.467-2.835 8.834 2.539 13.357 7.68 13.668 7.323.31-.357-12.599-11.888-21.546-8.106-9.798 4.168-2.069 18.034 6.67 25.696 5.714 4.946 18.304 12.773 23.565 7.346 5.475-5.374.367-15.875-5.342-21.974z"/><path fill="#0F0F0F" d="M216.277 98.385c.277-.995 1.632-3.748.385-4.305-8.48-3.784-9.694-4-12.96-4.78a60.758 60.758 0 0 0 5.655 11.65c.201.349.085.264.48.33a9.03 9.03 0 0 0 4.592-.432 3.538 3.538 0 0 0 1.848-2.463zm-5.92 1.6a49.634 49.634 0 0 1-4.391-8.728 72.378 72.378 0 0 1 9.861 3.933c-.152.757-.369 1.5-.649 2.22-.458 1.294-.551 3.083-4.818 2.577l-.003-.001z"/><path fill="#0F0F0F" d="M213.205 104.675c1.6 1.208 1.92 1.259 4.17 2.693a11.49 11.49 0 0 0 6.4 2.472c1.129-1.67-2.664-11.33-5.061-14.507-.472 1.584-.587 1.92-.855 3.096-1.26 5.478-2.601 3.272-5.777 4.081-2.277.581-1.927-.132 1.123 2.165zm4.427-2.139c2.261-2.835.858-5.738 2.279-2.342a56.362 56.362 0 0 1 2.806 8.233 14.25 14.25 0 0 1-4.762-2.294c-6.992-4.459-2.409-.981-.323-3.597z"/><path fill="#92FCFF" d="M309.333 137.016c-7.458-17.4-32.111-14.88-27.49-14.928-17.259.16-44.257 12.104-76.197 15.453-9.68 1.014-19.609 1.28-26.673 8.611a15.134 15.134 0 0 0-4.051 7.785c-.304 1.805-.439 7.821-.432 7.658a11.883 11.883 0 0 1-2.442 2.387c-10.672 9.111-13.155 27.275-11.888 40.173-3.672 26.168-16.568 32.178-29.555 46.278-5.485 5.956-10.13 13.007-3.309 18.253 9.12 7.019 36.674-2.941 46.994-8.331 9.955-5.195 18.451-13.088 21.376-15.541 17.692-14.901 40.39-9.214 71.068-28.08 25.557-15.685 51.287-59.454 42.599-79.718z"/><path fill="#FFC5F6" d="M226.846 170.774c6.256 5.397 15.554 2.367 17.309-4.87.199-.819-.048-1.112-.864-1.325a255.545 255.545 0 0 0-14.174-3.269c-1.451-.291-4.45-1.544-5.693-.355-1.909 1.824.712 7.482 3.422 9.819z"/><path fill="#fff" d="M306.278 140.12c2.581-.73 5.357-1.28 5.685 4.355.429 7.36-2.859 14.44-7.697 27.184-17.092 45.024-51.474 53.479-85.493 63.051-10.88 3.063-14.24 4.02-14.4 4.028-1.557.078 9.515-18.264 11.339-28.106 2.143-11.555-1.28-2.629 27.99-20.662 29.78-18.349 38.239-42.967 62.576-49.85z"/><path fill="#0F0F0F" d="M313.131 144.48c-.731-15.87-15.373-24.736-31.321-24.421-12.247.171-24.141 4.821-45.44 10.042-24.032 5.993-33.471 5.947-40.8 7.113-8.874 1.386-17.679 5.188-20.924 13.484-1.512 3.857-.924 7.446-1.211 10.96-10.025 6.18-18.336 25.956-13.797 37.966-3.771 35.616-23.881 38.411-34.9 55.397-6.069 9.501-.117 17.219 9.308 17.878 5.293.007 10.57-.56 15.74-1.691 33.704-6.709 43.865-25.299 57.726-31.304 21-9.15 71.798-5.672 99.632-69.43 3.541-8.188 6.339-17.095 5.987-25.994zM141.582 269.333c-4.603.64-9.816 1.147-13.512-1.656-8.912-6.639 5.184-18.295 13.292-26.064 10.899-10.419 17.76-19.2 20.214-38.416 4.901 6.254 16.344 6.641 16.542 5.627.101-.504-1.876-1.234-4.904-2.338-7.252-2.748-11.2-5.43-11.318-14.259-.136-8.233 4.374-18.531 9.12-23.885 6.496-7.505 14.72-8.014 14.546-9.32-.08-.752-5.039-.809-9.76 1.378.216-4.787-.676-11.52 8.595-16.886 7.086-4.14 16.16-3.935 24.747-5.12 42.984-5.482 67.57-21.788 87.814-11.936a21.682 21.682 0 0 1 11.164 11.056c-29.722 4.369-45.021 52.6-101.029 67.766-12.727 3.35-21 3.578-20.97 4.195.035.703 13.6.872 28.621-3.563a61.944 61.944 0 0 1-12.146 29.613c-4.398 5.92-4.817 6.035-10.99 11.12a90.404 90.404 0 0 1-50.026 22.688zm154.306-84.611c-26.997 45.137-70.848 43.723-89.77 52-1.424.619.583-.016 4.828-7.68a62.874 62.874 0 0 0 7.504-24.301c47.592-16 64.121-60.365 90.744-63.775 2.888 12.954-6.524 32.324-13.306 43.756z"/><path fill="#0F0F0F" d="M222.991 212.75c33.096-7.185 64.563-34.758 76.736-64.12 4.278-10.523-1.28.978-6.927 9.786a128.356 128.356 0 0 1-58.95 49.264c-9.587 3.95-22.01 7.419-10.859 5.07z"/><path fill="#0F0F0F" d="M308.64 144.64c-.725-.253-6.011 18.08-18.946 35.907-15.233 20.919-33.6 32.531-58.475 41.05-10.577 3.549-27.477 7.801-13.457 5.152 45.51-8.64 73.052-32.8 87.614-71.088.214-.575 3.846-10.831 3.264-11.021zm-55.059 16.394c-.816-.525-2.925 2.507-9.49 2.196-4.825-.139-9.784-3.068-15.449-4.016-10.508-1.7-16.306 4.96-15.472 5.912.596.679 3.828-1.355 8.4-2.232a12.36 12.36 0 0 0 6.297 10.822 12.371 12.371 0 0 0 12.519-.222 12.364 12.364 0 0 0 5.307-6.731c6.401-.523 8.894-5.19 7.888-5.729zm-29.563 1.518c6.651-.562 12.168 3.499 18.804 4.16a10.126 10.126 0 0 1-18.804-4.152v-.008z"/><path fill="#fff" d="M276.662 235.179c-.235-.062-3.68-1.558-3.84-1.636a17.424 17.424 0 0 1-9.875-12.597c-1.971-8.544 1.672-14.763.983-15.139-.21-.114-7.212 3.84-12.648 3.225a33.816 33.816 0 0 1-8.831-3.04c-3.824-2.128-4.443-4.569-5.656-6.021-1.368-1.635-1.44 1.48-1.549 1.823-3.275 10.67-9.265 12.726-17.843 13.105-1.293.056-3.328-1.02-3.533-.878-1.059.736 7.3 14.267-8.328 28-4.401 3.869-6.339 3.486-5.369 4.214a19.863 19.863 0 0 1 5.545 7.712c2.14 6.24 4.068 11.148-2.11 19.487 8.16-2.205 20.168.717 26.069 7.576.273.299.568.579.881.837.38.401.714.844.996 1.32.137.192 1.523 1.745 1.486 1.827 2.462-5.552 3.258-5.867 9.12-9.186a25.43 25.43 0 0 1 10.528-3.928c4.8-.339 4 2.536 3.883-2.173a27.243 27.243 0 0 1 1.09-8.849c3.531-10.09 5.537-12.076 11.705-19.015a30.234 30.234 0 0 1 5.292-5.043c2.662-1.909 2.716-1.44 2.004-1.621z"/><path fill="#FDFE1F" d="M260.298 233.494c-.603-9.574-5.482-14.824-12.779-18.385-5.676-2.77-10.098-4.083-16.4.549a56.343 56.343 0 0 0-10.373 11.644 61.84 61.84 0 0 0-3.751 8.826c-4.225 10.48-3.9 13.302-2.753 19.2 1.019 5.235 3.029 8.579 7.856 11.05 9.23 4.721 11.118 5.974 13.833 5.864 9.954-.402 25.584-19.407 24.367-38.748z"/><path fill="#0F0F0F" d="M277.333 235.19c.106-.544-4.96-1.257-9.197-6.169-3.539-4-5.843-11.528-4.653-18.667 1.196-7.247 3.138-5.836-3.484-3.552a18.91 18.91 0 0 1-21.109-4.997c-4.571-4.981-2.551-5.351-4.616.625a17.113 17.113 0 0 1-11.2 11.132c-4.253 1.376-9.12-.047-9.267.32-.656.128.944 6.281.273 11.393-.872 6.797-5.069 12.229-10.115 16.832-5.486 4.927-4.654 2.72-1.571 7.615 4.309 7.064 4.8 15.323 2.774 20.012-1.973 4.901-4.35 4.263 3.125 3.954a28.608 28.608 0 0 1 17.37 4.87c5.478 3.378 6.94 7.293 7.504 6.981.784.051.196-4.19 10.035-9.481a31.087 31.087 0 0 1 9.379-3.263c2.509-.413 4.059-.011 4.184-.32.421-.033.346-5.664 1.461-9.629 3.611-17.195 19.619-26.857 19.107-27.656zm-5.747 3.322c-7.115 5.251-13.779 14.88-15.104 23.973a23.757 23.757 0 0 0 .11 9.742c-5.093-3.961-22.861 3.936-23.614 12.08-.023.586-1.003-5.848-12.354-10.64a22.166 22.166 0 0 0-12.48-1.481c-5.589.929-3.821 2.012-1.619-1.791 3.226-5.301 2.27-15.241-2.907-21.553a10.153 10.153 0 0 0-3.352-2.88c3.36-.932 14.851-8.903 15.768-20.48.2-3.834-.456-7.663-1.92-11.212 3.077 2.229 9.955 2.49 15.384-1.6a16.393 16.393 0 0 0 6.521-12.884c4.602 10.956 19.237 13.38 27.488 6.56-4.771 8.256-2.049 22.838 8.247 27.692 6.051 2.794 6.806-.828-.168 4.474z"/><path fill="#0F0F0F" d="M258.598 223.349c-2.465-4.693-8.16-7.627-12.892-9.957a14.18 14.18 0 0 0-5.658-2.005c-15.84-1.065-35.874 36.365-23.731 51.821 2.214 2.79 8.016 6.069 11.726 7.64 6.08 2.598 11.179 3.907 18.96-3.23 10.976-10.463 18.507-31.116 11.595-44.269zm-9.084-5.323a13.812 13.812 0 0 0-10.176 3.27c-3.741-1.76-3.557-.96-7.215-4.437 5.647-4.091 7.959-4.149 17.391 1.167zm-18.78-.093c1.053.584 2.605 1.28 3.76 2.022 1.132.733 2.372 1.835 3.332 2.56a38.941 38.941 0 0 0-7.277 8.747c-4.067-2.118-3.41-.952-7.408-4.812a37.993 37.993 0 0 1 7.593-8.517zm-8.48 9.905c6.864 3.773 3.66 2.543 7.317 5.028a59.49 59.49 0 0 0-5.19 11.4c-5.591-2.928-2.802-1.031-7.351-4.872a53.84 53.84 0 0 1 5.224-11.554v-.002zm-5.736 13.28c6.12 2.965 4.685 3.212 7.284 4.983a38.457 38.457 0 0 0-1.672 10.008c-4.72-1.551-3.44-1.397-6.895-3.627a33.838 33.838 0 0 1 1.283-11.362v-.002zm-1.07 13.28c4.578 1.495 4.627 2.797 6.755 3.751a16.386 16.386 0 0 0 3.725 9.12c-7.528-4.008-9.408-6.669-10.48-12.869v-.002zm18.152 16.034c-10.31-2.016-11.52-12.288-8.84-22.56 6.947-25.76 28.035-38.998 33.65-19.091 5.123 19.045-13.06 45.169-24.81 41.651z"/><path fill="#0F0F0F" d="M254.213 225.387c-7.338-8.379-18.658 3.698-23.52 15.108-3.082 7.334-6.77 22.502.381 25.985 7.745 4 18.019-6.409 21.652-15.555 2.56-6.435-5.427 13.71-16.896 15.102-10.948 1.143-8-15.04-3.824-24.98 10.693-25.154 29.645-21.346 22.464 4.308-.776 2.687-2.036 5.986-.721 3.239 2.891-5.995 5.461-17.479.464-23.207z"/><path fill="#0F0F0F" d="M247.947 250.24c.218-.288.135-.058-.345-5.243-.064-.68.622-.178-10.56-4.874-.362-.15-.536.239-.496.64.494 5.031.363 5.131.838 5.327 1.888.758 10.365 4.406 10.563 4.15zm1.055-8.587c5.42-4.434 5.692-2.971-1.701-6.104-5.205-2.205-4.853-2.226-5.389-1.789-4.042 3.298-3.925 3.061-3.974 3.432-.076.576 5.377 2.274 5.294 2.493 5.605 2.342 5.238 2.405 5.77 1.968zm-12.719 6.969c-.4-.168-.32-.102-4.365 3.159-.299.241-.462.63-.108.779 11.163 4.733 10.353 4.56 10.804 4.197 3.2-2.587 4.74-3.443 3.781-3.848-1.923-.807-8.089-3.432-10.112-4.287z"/><path fill="#FDFE1F" d="M195.059 242.859c6.81-7.579-2.6-28.141-14.88-28.51a29.044 29.044 0 0 0-12.848 3.856c-3.79 3.166-3.168 11.595-.902 17.005 2.642 6.275 8.362 12.856 14.859 12.856 3.208 0 11.45-2.626 13.771-5.207z"/><path fill="#0F0F0F" d="M178.011 213.691a41.306 41.306 0 0 0-8.39 2.423 6.96 6.96 0 0 0-2.691 1.422 6.964 6.964 0 0 0-1.832 2.432c-4.346 9.237 2.72 26.24 14.324 28.614 4.94 1.008 14.287-2.915 16.335-5.388 6.992-8.44-3.322-31.436-17.746-29.503zm-3.71 2.802a8.77 8.77 0 0 0-2.698 5.339 15.964 15.964 0 0 1-5.499 1.48c.907-4.773 3.224-5.202 8.197-6.819zm-8.362 7.921a14.5 14.5 0 0 1 5.53-1.356c-.103 2.23.155 4.464.766 6.612-2.691.759-1.555 1.005-5.833 1.44a18.992 18.992 0 0 1-.463-6.696zm.727 7.68c3.931-1.44 3.406-.8 5.907-1.26a31.282 31.282 0 0 0 3.04 6.696 14.834 14.834 0 0 1-5.797 1.4 27.244 27.244 0 0 1-3.15-6.84v.004zm3.78 7.775a26.84 26.84 0 0 1 5.815-1.314 21.398 21.398 0 0 0 4.03 4.618 12.008 12.008 0 0 1-4.857 1.627 18.855 18.855 0 0 1-4.988-4.936v.005zm6.08 5.571a24.858 24.858 0 0 1 4.834-1.44 12.907 12.907 0 0 0 5.453 1.826c-4.12 1.228-6.623 1.568-10.291-.386h.004zm19.885-8.344c-.48 4.934-3.029 6.368-7.414 8-9.09.886-15.52-10.656-16.546-18.96-2.517-20.133 25.818-9.56 23.955 10.955l.005.005z"/><path fill="#0F0F0F" d="M192.554 227.426c-1.962-3.855 4.371 8.299-1.032 13.734-5.634 6-14.655-6.598-15.943-14.902-1.195-8.098 4.677-10.912 9.938-7.189a25.149 25.149 0 0 1 6.601 7.614c.287-.134-4.343-9.822-11.236-9.92-7.586-.067-7.416 9.536-4.05 16.464 3.216 6.525 10.216 13.76 15.232 8.456 3.317-3.465 2.599-10.128.49-14.257z"/><path fill="#FDFE1F" d="M180.253 264.507c-1.319-4.854-7.031-12.616-8.938-13.76-11.393-6.809-41.76 13.511-38.79 30.08.779 4.079 7.529 14.56 12.869 15.816 12.827 3.037 38.152-15.565 34.859-32.136z"/><path fill="#0F0F0F" d="M181.347 266.978c0-4.711-3.261-9.362-6.048-13.18a12.609 12.609 0 0 0-3.621-3.913c-9.321-5.723-33.736 6.689-39.284 23.04-1.903 5.966-1.722 10.414 5.209 18.88 2.53 2.971 3.882 4.768 7.506 5.689 12.752 3.236 36.254-13.921 36.238-30.516zm-10.72-15.351c1.426.762 5.178 6.24 5.978 7.487a12.216 12.216 0 0 0-9.557-1.76c-2.21-2.928-2.4-2.24-3.886-6.573a11.754 11.754 0 0 1 7.46.846h.005zm-9.027-.563c.56.864 2.176 3.066 2.176 3.227.573 1.058 1.12 2.434 1.573 3.402a34.686 34.686 0 0 0-9.383 3.893c-2.265-3.26-2.275-2.109-3.881-6.951a34.01 34.01 0 0 1 9.515-3.571zm-10.813 4.32c.579.88 1.376 1.979 1.92 2.96.16 0 1.251 3.058 1.816 4.112a53.177 53.177 0 0 0-8.835 6.856c-3.019-4.374-1.546-1.477-3.818-6.976a48.161 48.161 0 0 1 8.912-6.957l.005.005zm-10.049 8.12c3.732 5.083 2.361 4.445 3.732 7.024a34.473 34.473 0 0 0-5.476 7.214c-3.2-3.3-2.183-2.684-3.989-5.806a30.324 30.324 0 0 1 5.728-8.437l.005.005zm-6.38 10.08c.055-.16 1.572 1.725 1.772 2.021.084.085 1.793 3.416 2.08 3.779a14.622 14.622 0 0 0-.8 8.939c-4.424-6.422-4.786-9.389-3.056-14.744l.004.005zm44.717-2.381c-3.36 14.943-22.769 27.471-33.509 24.539-2.753-.752-3.817-1.931-6.192-4.811-3.444-6.678.096-13.102 5.12-18.617 16.157-17.461 38.418-19.224 34.576-1.114l.005.003z"/><path fill="#0F0F0F" d="M160.974 263.459c-12.072 5.661-19.694 16.986-20.243 21.578a6.443 6.443 0 0 0 4.606 7.211c8.8 3.142 21.08-6.206 20.73-6.64-.235-.304-5.33 4.47-13.259 5.984-3.749.682-8.149.346-10.13-2.589-2.606-3.664 1.143-8.595 3.48-11.824a40.797 40.797 0 0 1 15.339-12.589c3.924-1.832 9.824-3.126 12.655-.787 2.019 1.64 3.189 5.515.998 10.144-3.915 8.181-9.267 11.103-8.915 11.52.274.338 12.982-9.825 10.867-18.709-1.664-6.918-9.673-6.278-16.128-3.299z"/><path fill="#0F0F0F" d="M167.302 272.16c.344-.765-.076-1.171-.94-.95-.16.041-16.21 4.619-16.664 4.96-1.104.849 1.268 2.168 1.129 2.305 1.971 2.011 1.711 2.112 5.208 1.12 10.085-2.861 8.605-1.515 11.267-7.435zm-5.328 8.461c-7.393 2.07-7.582 1.485-4.489 4.64 2.67 2.72 2.579 2.659 3.905-.213 1.024-2.221 2.852-5.061.584-4.427z"/><path fill="#92FCFF" d="M135.607 236.392c-2.663 1.082-10.16 4.822-11.208 7.488-.429 1.091-1.6 3.934-.936 4.774.59.752 3.78.943 12.852 5.12 1.204.554 3.213 1.576 3.645.992.432-.584 2.008-10.891 2.231-11.572a14.7 14.7 0 0 0 1.075-3.772c.16-1 .019-1.449-1.266-1.92-4.342-1.588-4.533-1.867-6.393-1.11z"/><path fill="#0F0F0F" d="M143.426 238.299c-.024-.734-4.407-3.093-6.378-2.827-2.4.32-12.384 5.341-13.635 8.851a5.931 5.931 0 0 0-.213 4.218c-.392.92 5.675 3.04 12.312 5.577 3.445 1.317 4.352 1.154 4.453.96.829.16 1.653-4.3 3.305-12.443.453-2.23.516-4.109.156-4.336zm-3.36 12.423c-1.13 5.561 1.393 4.038-4 1.972-7.655-2.926-10.999-4.32-12.471-4.292.258-.717.584-3.724 2.455-5.322a51.723 51.723 0 0 1 8.308-5.045c3.604-1.689 2.946-1.213 8.709.451-.987 1.29-1.721 5.962-2.997 12.234l-.004.002z"/><path fill="#0F0F0F" d="M141.379 240.035c-2.638-3.125-3.304-3.742-.995-.67.573.776.731.32-3.773-.333 1.648-2.386 1.64-2.837-.32-.43a5.76 5.76 0 0 1-1.816 1.304c-6.08 3.68-5.427 3.59-6.94 3.752-2.914.294-2.823.513.028.497 1.269-.021 1.44.083 7.762-4.029-.133.64.117-.528-1.358 5.408-.1.308 0 .17-.1.186-5.025-1.95-4.348-1.72-4.574-1.725-.696.16-2.053 2.695-2.416 3.312-.125.21.058.496-.946-1.891-1.12-2.605-.092.619.62 2.504-7.604.288 2.3.675 4.057.438.576.431 6.544 4.96 6.696 4.768a69.667 69.667 0 0 0-5.979-4.96 25.712 25.712 0 0 0 3.299-1.803c6.09 10.091 6.525 9.728.506-.297 2.437-1.448 3.63-2.138 4.257-2.578.256 10.88.812 10.459.576-.48.618-.658 4.736-7.678 1.416-2.973zm-14.416 7.869c3.173-4 .541-4.069 6.536-1.704-3.012 1.822-2.489 1.586-6.536 1.704zm13.684-6.813c-1.372 1.962-.506 1.28-6.08 4.496a49.268 49.268 0 0 1 1.523-5.952c.149-.246.504.029 5.054.605.154.021.152-.096-.504.851h.007z"/><path fill="#92FCFF" d="M213.941 197.769c-.8 9.73-.784 10.133-1.328 10.436-.573.32-5.256-.335-10.629.206-.862.088-15.078 1.402-15.55.701-.434-.64 1.251-7.415 1.534-11.882a278.56 278.56 0 0 1 1.221-13.797c.35-3.08 1.47-2.4 7.232-2.296 3.864.064 9.051 7.096 10.56 8.741 2.496 2.696 5.357 4.591 6.96 7.891z"/><path fill="#0F0F0F" d="M214.536 197.44c-1.619-4.04-8.949-10.954-12.201-13.831a10.224 10.224 0 0 0-6.24-3.232c-1.967-.214-6.255 0-7.069 2.039-1.2 3.006-1.586 8.869-2.861 19.83-.936 8.045-.96 8.13 6.81 7.749 10.616-.522 17.44-.621 19.539-1.63 1.779-.861 2.968-8.575 2.022-10.925zm-1.6 2.374c-.075 4.402-.392 7.251-.184 7.986-1.899-1.263-24 .16-26.08 1.12 1.482-2.608 4.075-25.509 3.186-27.234.945.205 1.914.282 2.88.227 4.717.16 5.944 1.172 8.246 3.213 3.213 2.847 12.053 10.898 11.946 14.68l.006.008z"/><path fill="#0F0F0F" d="M209.686 197.44c-.825-.293-.881-.48-5.844-5.37a48.032 48.032 0 0 1-4.48-4.43c-.618-.979-1.74-4.655-2.039-4.56.136 1.73.559 3.425 1.253 5.016a97.852 97.852 0 0 0 8.437 8.48c-5.539 0-8.925.024-8.995.017 0 .16.931-7.254.844-7.627-.52-.989-4.849-2.08-5.92-2.374-.401-.099-.64.203 2.488-2.152 4.16-3.2-2.912 1.43-3.537 1.893-2.207-7.469-1.706-4.144.051 3.473 1.101 4.435 1.403.826-2.552 11.096-3.246 8.309.522.915 3.965-7.273a40.332 40.332 0 0 0 3.985 4.28c-12.214 12.382-12.8 14.211.64.64l4.354 4.356c1.818 1.9 2.421.178-7.04 3.36-11.901 4 8.611-1.795 9.525-1.43 1.633.704 12.721 3.899 4.64.8a21.609 21.609 0 0 0 3.131-4.682c-.16-.104-.718.946-2.424 2.983-1.05 1.264-.261 1.016-1.018-5.896a15.13 15.13 0 0 0 3.508 1.003c-.9-.688-1.902-1.23-2.972-1.603zm-17.572-10.379c-.06-.199-.135-.119.542.11 6.408 2.066 5.51 1.966 5.32 2.834-.234 1.488-.654 4.859-.818 6.156-3.95-3.977-3.313-3.032-5.044-9.102v.002zm15.494 17.896c-3.475-1.308-2.115-.266-9.12-7.45 9.36-.05 9.251-.149 9.56.013.44.134.141.91 1.022 7.787.039.28.316.301-1.462-.347v-.003z"/><path fill="#92FCFF" d="m259.711 104.622 3.182 1.946a1.045 1.045 0 0 0 1.489-.439c.084-.176.117-.373.095-.567l-.96-8.64a1.052 1.052 0 0 0-.922-.924 1.05 1.05 0 0 0-.462.053l-8.373 2.933a1.048 1.048 0 0 0-.693.875 1.047 1.047 0 0 0 .493 1.002l3.147 1.92c-29.299 46.409-23.796 43.761-29.795 40.677-4.189-2.154-6.894-4.863-9.537-1.464-4.268 5.486-13.188 19.921-15.855 21.371-2.539 1.382-4.275-3.2-7.137-.855-2.612 2.133-4.349 6.152-5.978 9.034a130.248 130.248 0 0 0-9.826 20.149 42.954 42.954 0 0 0 6.604-8.298c9.44-15.499 9.656-17.07 11.555-17.363 3.445-.53 3.821 6.064 10.285-2.88 12.96-17.92 13.092-19.89 15.977-18.022 2.951 1.872 7.613 6.672 10.784 2.39 2.624-3.555 11.957-20.774 25.927-42.898z"/><path fill="#0F0F0F" d="M262.474 96c1.27 0 .993.567 2.003 9.57a1.052 1.052 0 0 1-.478.996 1.039 1.039 0 0 1-1.106.01l-3.182-1.946c-31.562 49.984-24.045 48.616-36.709 40.506-2.899-1.858-2.987.042-15.978 18.022-6.427 8.896-6.933 2.37-10.285 2.88-3.387.524-7.784 14.826-18.158 25.661a130.201 130.201 0 0 1 9.826-20.149c1.457-2.579 4.699-9.712 7.652-9.712 1.975 0 3.452 2.628 5.463 1.533 2.656-1.44 11.545-15.832 15.854-21.371.282-.425.65-.787 1.079-1.063a3.673 3.673 0 0 1 4.281.22c7.699 4.555 7.56 4.189 8.243 3.259 6.178-8.406 12.05-19.963 25.73-41.629l-3.147-1.92a1.035 1.035 0 0 1-.314-.304 1.053 1.053 0 0 1 .04-1.235c.123-.155.287-.272.474-.338 9.128-3.206 8.459-2.99 8.712-2.99zm-.856-1.394c-7.887 2.765-9.839 2.823-10.08 5.098-.207 1.95 1.344 2.56 3.04 3.589-12.243 19.485-18.952 32.187-24.762 40.117-1.12-.53-6.899-4.565-9.533-4.565-3.152 0-4.592 2.477-10.182 10.809-12.659 18.866-8.053 10.652-14.04 10.652-4.026 0-7.154 7.241-9.157 10.785-7.224 12.771-7.96 15.282-12.411 27.112 7.075-7.39 9.139-9.288 12-13.995 8.96-14.701 9.573-16.653 10.611-16.653 1.768 0 4.445 5.888 10.93-3.169 13.23-18.48 12.867-18.768 14.128-17.959 2.109 1.354 5.28 4.365 8.537 4.365 5.2 0 4.188-3.774 29.5-44.058 1.518.93 3.46 2.576 5.166.669 1.016-1.137.701-1.419-.33-10.645a2.565 2.565 0 0 0-2.27-2.298 2.557 2.557 0 0 0-1.147.139v.007z"/></svg>