<svg xmlns="http://www.w3.org/2000/svg" width="320" height="320" fill="none"><path fill="#FFC5F6" d="M109.317 214.711c10.467-4.812 13.963-9.868 17.482-9.012a5.176 5.176 0 0 1 3.294 4.077c2.963 12.184-13.078 32.704-26.334 34.418-1.25.16-5.851.134-6.602-.871-.725-.969.226-2.328.015-10.008-.27-9.79-2.096-11.569-.447-13.712 1.784-2.323 5.442-1.606 12.592-4.892z"/><path fill="#fff" d="M97.799 241.227a20.948 20.948 0 0 1-3.884 9.563 9.107 9.107 0 0 1-9.25 3.36c-1.522-.465-1.92-.713-3.282.381-7.67 6.146-8.96 7.717-19.59 7.155-10.631-.561-30.346-1.152-27.854-10.907.863-3.373 4.79-4.717 7.58-6.8 2.924-2.182-2.97-3.15-3.724-8.16-.379-2.518 1.055-5.23.015-7.554-.975-2.174-4.8-3.743-2.783-8.868 1.383-3.52 11.184-16 20.32-19.245a2.97 2.97 0 0 0 2.482-2.803c.8-3.68.883-7.536 2.312-11.015 3.432-8.355 12.786-8.329 15.2.867 1.723 6.561-.8 8.586 3.66 20.832.814 2.24.716 2.721 3.166 1.709 8.233-3.398 19.872 9.644 15.632 31.485z"/><path fill="#0F0F0F" d="M72.893 227.477c-2.679-6.599-2.954-12.554-3.927-12.597-1.873-.08-2.147 15.589 7.472 23.4-6.299-.57-10.373 6.947-9.326 7.84.87.741 4.29-2.442 5.9-3.666 2.165-1.627 5.657-2.094 5.655-3.115.678-.697-3.203-5.222-5.774-11.862z"/><path fill="#0F0F0F" d="M126.096 202.648c-7.574-.194-9.489 12.776-29.747 13.718-3.419-6.531-9.494-10.654-15.78-6.809-4.732-7.703-1.44-15.501-3.153-22.476a10.341 10.341 0 0 0-6.964-7.867 14.797 14.797 0 0 0-7.04-.145c-3.84 1.139-4.847 5.12-5.44 9.009-2.967 19.379.93 1.76-10.938 15.663-5.811 6.979-10.474 7.796-12.53 12.696a11.508 11.508 0 0 0 2.645 12.659 9.5 9.5 0 0 0-.857 7.395 18.076 18.076 0 0 0 4.454 7.384c-9.253 1.547-9.731 12.666-3.912 15.84 2.616 1.44 5.507 1.102 8.269 1.12 9.19-.03 26.24 9.12 38.641-6.144 7.244 2.613 12.084-1.486 14.348-8.886 32.576 1.68 44.222-42.775 28.004-43.157zm-87.128 24.421a8.805 8.805 0 0 1-1.252-9.181c1.6-3.535 6.37-4.514 12.32-11.65 1.85-2.219 2.993-4.342 5.664-4.571 4.297-.307 8.838 4.96 4.081 14.378-4.897 1.134-9.68 5.6-13.817 7.891-2.784 1.55-4.666 1.256-6.996 3.133zm41.72 25.22c-9.617 12.186-23.59 6.341-31.382 5.428a53.29 53.29 0 0 0-8.03-.13c-3.797-.051-5.485-2.368-5.38-5.168.32-8.32 9.781-6.71 17.957-5.486 18.789 2.934-3.139-2.701-8.361-3.172-2.199-3.339-7.218-7.563-5.31-12.07.975-2.181 2.996-2.47 4.982-3.125 5.91-1.936 13.712-10.729 18.414-8.518a8.695 8.695 0 0 1 3.82 8.176c-1.338 10.518-17.292 13.667-17.191 14.473.027.247 1.229.432 3.379.148 12.237-1.644 22-12.48 15.389-22.8a8.467 8.467 0 0 0-6.115-4.197c4.262-7.631 2.027-14.031-2.56-16.717 2.044-13.994 1.472-16.8 6.56-16.509 9.28.466 6.824 10.306 7.108 16.96.541 12.901 6.56 14.103 9.496 22.208 1.87 4.89 4.565 21.53-2.776 30.499zm12.82-4.465c-1.778 4-4.496 5.193-8.12 4.541 3.536-5.77 4.376-12.892 3.939-19.612-.64-10.534-2.47-14.352-7.186-20.945 11.79-5.541 17.341 22.432 11.367 36.016zm5.387-5.319a50.153 50.153 0 0 0-.834-21.955c-.702-2.277-.768.28 8.16-1.649 11.023-2.213 17.242-11.754 19.715-11.432 7 .3.24 33.348-27.041 35.036z"/><path fill="#fff" d="M188.027 31.179c18.904-6.528 40.812 5.005 45.403 24.47 4.056 17.2-6.656 35.293-23.586 40.685-17.76 5.656-38.24-3.973-43.928-22.4-5.534-17.95 5.219-36.92 22.111-42.755z"/><path fill="#0F0F0F" d="M199.398 99.056c-15.213 0-29.823-9.472-34.547-24.8a36.023 36.023 0 0 1 22.812-44.133c19.639-6.783 42.136 5.28 46.852 25.267 4.94 20.957-11.506 43.664-35.117 43.664v.002zM166.98 73.6c5.503 17.845 25.365 27.139 42.525 21.673 26.739-8.516 33.318-45.62 6.446-60.416-27.609-15.203-57.5 11.085-48.971 38.743z"/><path fill="#FDFE1F" d="M186.537 85.746a45.073 45.073 0 0 0 12.667 2.496c20.066.828 26.584-39.895 12.923-45.642-1.36-.573-12.291-3.469-17.44-1.79-18.366 5.98-22.341 40.112-8.15 44.936z"/><path fill="#0F0F0F" d="M217.189 46.035c-2.56-4.439-5.455-4.618-8.756-5.413-4.267-.898-10.094-2.13-14.24-.613-18.048 6.365-23.148 40.063-8.497 46.376 4.281 1.845 13.92 3.714 17.846 2.535 14.813-4.76 21.131-29.19 13.647-42.885zm1.065 15.246c-5.52.423-4.24-.08-8.305-.833.294-3.2.102-6.43-.572-9.573 1.108.035 2.624-.013 3.858.097.427 0 3.36.626 4.05.738a29.898 29.898 0 0 1 .969 9.57v.001zm-1.44-11.113c-4.817.336-4.133-.122-7.897-.978a12.893 12.893 0 0 0-5.69-7.59c8.221 1.34 11.243 1.776 13.586 8.568h.001zm-31.36 34.108c-6.939-3.616-7.549-15-5.982-22.628 5.52-26.88 34.529-28.71 28.563 3.566-2.08 10.286-7.282 21.405-17.845 20.65a26.162 26.162 0 0 1-4.737-1.588h.001zm8.16 2.35a14.79 14.79 0 0 0 7.728-3.97c2.12.547 2.947-.32 7.171 1.195-4.72 4.008-8.372 3.955-14.896 2.776h-.003zm16.21-4c-4.549-.508-2.995.18-7.261-1.343a29.71 29.71 0 0 0 4.205-7.392c2.941.241 1.955-.725 8.32.672a26.404 26.404 0 0 1-5.261 8.072l-.003-.008zm5.87-9.569c-6.414.055-2.795.275-8.31-.765a46.271 46.271 0 0 0 2.4-10.19c3.51.28 1.081-.586 8.358.658a40.917 40.917 0 0 1-2.445 10.305l-.003-.008z"/><path fill="#0F0F0F" d="M194.605 82.7c4.24-2.059 11.625-13.262 11.328-26.195-.424-16.61-15.672-17.61-21.92.098-1.099 3.131-1.872 5.789.457.176 5.876-13.912 14.698-14.003 17.978-8.704 6.01 9.405-1.043 29.994-8.354 33.587-5.878 3.005-12.632-4.118-11.52-17.296.431-4.424.378-5.6-.48-.06-2.067 14.08 5.976 21.699 12.511 18.395z"/><path fill="#0F0F0F" d="M191.921 65.152a3.8 3.8 0 0 0 3.271.214c5.267-1.704 4.286-.054 3.04-8.026a41.503 41.503 0 0 0-2.296-8.443 64.531 64.531 0 0 0-7.053 11.813c-.192.38-.186.23-.018.613a9.612 9.612 0 0 0 3.056 3.829zm3.596-13.095a73.252 73.252 0 0 1 2.251 11.051c-.761.307-1.547.546-2.349.716-1.418.34-3.061 1.307-5.098-2.781a52.822 52.822 0 0 1 5.2-8.986h-.004z"/><path fill="#0F0F0F" d="M189.789 78.707c1.422.01 10.056-11.136 8.899-12.354-.8-.848-3.637 1.44-6.261 1.203-1.315-.121-2.182-2.45-3.345-3.52a.72.72 0 0 0-1.205.547c.024 1.098-.762 14.106 1.912 14.124zm-.551-12.128c1.671 2.432 2.752 3.264 7.48 1.512a62.582 62.582 0 0 1-6.692 8.848c-.917-2.152-.869-9.079-.788-10.359v-.001z"/><path fill="#FFC5F6" d="M207.884 47.099c5.12-2.131 6.211-4.395 7.52-9.181 1.21-4.402 2.061-11.286.363-15.544-2.144 3.973-1.158 5.608-5.149 8.656-4.358 3.328-5.632-2.435-5.619-7.92 0-2.472 2.127-5.171.653-9.008-.062-.16-4.854-6.02-7.077-5.683-.217.201 1.056 1.659 1.28 2.411 1.371 4.685-5.013 6.758-5.321 6.944-2.925 1.76-4.418 1.3-4.941 2.97a3.704 3.704 0 0 0 .8 4c1.28 1.886.56 1.324 1.427 2.57 1.179 1.7 2.19 1.43 2.485 4.151.289 2.664-2.664 3.565-4.906 2.986-1.592-.411-2.089-1.946-3.029-2.218-1.74-.505-2.593-3.648-3.2-4.144a16.909 16.909 0 0 1-1.35-2.598c-.227-1.517-1.28 3.069-1.28 3.446.12 16.845 13.53 23.915 27.344 18.16v.002z"/><path fill="#0F0F0F" d="M216.695 23.934c-.611-1.8-1.243-2.657-1.344-2.606-.357-.037-.384 2.482-2.229 5.715-3.057 5.131-7.942 4.8-6.753-1.499.512-2.77 1.409-5.803.768-8.664-1.573-7.664-9.4-9.691-9.543-8.88-.212.27 2.895 2.918.96 6.4-2.308 4.211-9.177 1.682-9.96 7.909-.614 4.417 4.176 5.977 4.89 9.134.501 2.013-1.76 3.423-4.96 1.525-5.613-3.349-6.24-8.48-6.758-8.296-.24-.126-2.888 4.085-1.44 10.675a18.414 18.414 0 0 0 20.091 14.632c14.449-1.304 19.621-16.251 16.278-26.045zm-.68 7.797c-3.931 26.029-39.929 18.24-34.323-6.253a12.463 12.463 0 0 0 2.88 6.327c5.365 6.486 12.152 4.16 11-.8-.77-3.867-5.28-5.387-4.859-8.44.336-3.083 3.693-3.09 6.265-4.402a5.96 5.96 0 0 0 3.319-4.171 5.961 5.961 0 0 0-1.357-5.155 11.917 11.917 0 0 1 6.213 8.411c.8 4.25-2.357 8.845-.64 12.824 2.446 5.586 10.846 1.571 11.107-7.069.678 2.86.811 5.82.395 8.728z"/><path fill="#fff" d="M108.653 17.838c18.904-6.53 40.813 5.005 45.403 24.47 4.056 17.199-6.656 35.291-23.585 40.683-17.76 5.656-38.24-3.972-43.928-22.4-5.535-17.952 5.219-36.912 22.11-42.753z"/><path fill="#0F0F0F" d="M120.024 85.713c-15.213 0-29.821-9.473-34.548-24.8a36.027 36.027 0 0 1 22.813-44.128c19.645-6.785 42.138 5.28 46.851 25.267 4.941 20.954-11.507 43.661-35.116 43.661zm-.344-68.593c-34.061 0-46.776 46.216-15.84 62.388 26.427 13.815 55.422-10.24 49.12-36.942-3.52-14.982-17.92-25.446-33.28-25.446z"/><path fill="#FDFE1F" d="M134.456 72.208a54.95 54.95 0 0 1-14.066 2.496c-22.278.829-29.51-39.893-14.347-45.642 1.783-.677 13.807-3.42 19.36-1.79 20.357 5.968 24.851 40.097 9.053 44.936z"/><path fill="#0F0F0F" d="M120.799 25.709a70.92 70.92 0 0 0-15.166 2.374c-13.99 5.475-10.8 40.592 8.902 46.997 5.44 2.096 21.063-1.029 24.376-4.173 12.575-10.024 3.836-45.034-18.112-45.2v.002zm-9.6 3.25c6.207-1.231 4.648-.906 3.557-.246a13.413 13.413 0 0 0-5.104 6.888c-4.366.888-3.318 1.372-8.849.988 2.716-6.99 6.483-6.768 10.396-7.63zm-10.955 9.265c1.227-.178 3.051-.608 4.551-.768 7.452 0 2.678-2.152 3.689 9.408-4.587.765-2.918 1.315-9.313.835a27.103 27.103 0 0 1 1.08-9.474h-.007v-.001zm-.931 11.056c8.171-1.29 5.554-.363 9.373-.666a42.684 42.684 0 0 0 2.63 10.106c-6.56 1.144-1.936.816-9.302.763a37.164 37.164 0 0 1-2.701-10.203zm3.427 11.797c.333-.068 3.36-.743 4.035-.743 2.039-.144 5.25.245 5.239.023a29.364 29.364 0 0 0 4.616 7.37c-4.866 1.59-2.979.809-8.074 1.332a26.434 26.434 0 0 1-5.816-7.984v.002zm7.351 9.252c4.406-1.452 5.878-.692 7.897-1.161-.16-.704 2.053 2.82 8.359 3.913-9.341 1.479-12.336.175-16.256-2.752zm31.952-7.61a12.943 12.943 0 0 1-4.309 6.705c-.544.43-1.128.805-1.746 1.12-20.992 9.982-31.744-25.325-23.542-37.867 10.075-15.018 36.486 6.336 29.597 30.043z"/><path fill="#0F0F0F" d="M138.745 47.982c-1.993-6.47 4.367 12.496-5.145 19.245-9.791 7.275-19.728-12.172-19.332-24.588.583-14.102 14.549-16.361 22.469.528 1.071 2.314 1.461 3.68 1.57 3.653a15.675 15.675 0 0 0-1.093-3.856c-5.6-14.118-16.733-15.232-21.08-9.6-6.52 8.021-2.534 23.667 5.506 32.875 9.041 10.312 22.03-2.256 17.105-18.257z"/><path fill="#0F0F0F" d="M130.754 51.757c-2.603 6.264-2.305 5.826-2.541 5.55-4.387-5.14-3.492-4.086-3.968-4.678-.104.224-.715 1.71-1.358 3.233-.115.27-.578-.416 6.314 7.645.187.223-.271 1.12 3.987-9.102-2.639-3.075-2.354-2.84-2.434-2.648zm-7.157-3.745c2.48-5.97 2.317-5.795 2.466-5.616a3155.55 3155.55 0 0 0 4.03 4.716l1.408-3.36-6.501-7.6-3.84 9.232c2.706 3.15 2.36 2.827 2.437 2.628z"/><path fill="#0F0F0F" d="m127.655 52.979 1.416-3.402-2.385-2.788-1.412 3.4 2.381 2.79zm-8.912-1.765 2.344 2.753 1.394-3.344-2.352-2.755-1.386 3.346zm16.786-2.789c-1.051-1.222-2.176-2.549-2.272-2.642-1.544 3.71-1.453 3.341-1.337 3.474 2.409 2.82 2.275 2.776 2.364 2.56 1.421-3.445 1.412-3.198 1.245-3.392z"/><path fill="#FFC5F6" d="M93.74 33.393c3.777 3.695 10.56 4.234 16.686-.385 3.075-2.32 3.437-4.053 3.531-7.559a26.883 26.883 0 0 0-.42-5.6 18.633 18.633 0 0 0-2.149-3.456c-.346-.065-.338.405-.552 1.093-.584 1.87-2.098 3.774-3.552 3.488-3.933-.774-1.477-6.94-5.963-9.874-1.47-.96-5.055-2.392-3.933-.784 1.084 1.554 1.29 1.533.372 3.2-1.955 3.552-3.596 2.49-4.01 4.893-.558 3.245 3.182 3.3 4.383 6.06.32.755-.908 2.763-3.012 2.889-3.122.189-5.69-4.117-5.697-3.34-.028 3.878 3.074 8.16 4.316 9.375z"/><path fill="#0F0F0F" d="M114.616 21.306c-1.072-4.124-3.781-6.462-4.054-6.166-.367.117.265 5.053-3.109 4.96-3.68-.011.47-10.066-8.306-10.95-4.16-.423-1.625.947-1.49 2.614.219 2.344-5.562 3.98-4.597 8.67.553 2.87 4.02 3.423 4.075 4.572.265 1.23-2.098 2.475-4.75.939-2.255-1.331-2.766-3.189-3.086-3.072-1.033-.343-1.798 8.697 6.896 12.904 9.807 4.928 21.213-4.098 18.421-14.47zm-2.56 7.346c-5.555 10.72-20.768 6.506-22.483-3.802 2.36 5.165 10.127 4.773 9.733-.107-.306-2.71-3.664-2.944-4.107-4.76-.8-3.371 4.811-5.12 3.68-8.507-.61-1.742-2.527-2.053-.01-1.109 4.208 1.555 3.971 3.5 4.538 7.546 1.036 7.062 8.998 4.413 8.046-1.035a12.6 12.6 0 0 1 .598 11.774h.005z"/><path fill="#FFC5F6" d="M104.685 112c-3.801 5.357-4.835 12.693-4.365 19.211.661 9.138 5.28 24.186 14.04 24.93a35.608 35.608 0 0 0-7.348 17.644c-1.034 6.188.91 12.338 3.66 17.45.61 1.131 2.581 1.795 3.184 2.586.202.264.05.124 3.188 2.43 1.998 1.469 1.796 3.811 2.129 5.141 1.639 6.537-.603 7.669-4.904 17.208a52.314 52.314 0 0 0-3.913 16.771c.035 2.302 1.539 2.387-3.68 6.56-5.668 4.536-10.13 11.147-13.725 17.454a30.621 30.621 0 0 0-2.967 11.2c-1.078 10.253-1.224 18.88 6.72 26.38a33.055 33.055 0 0 0 11.858 6.4c36.368 10.921 71.371 10.827 106.118 2.902 14.781-3.371 17.536-12.224 20.368-25.76 3.172-15.162-5.771-59.237-22.542-75.04-.75-.707-4.902-3.49-5.365-4.41-.48-.95-.688-1.12.103-2.72 1.6-3.2 13.44-16.275 13.19-38.547-.043-3.71-1.083-3.664 1.686-6.681 19.48-21.226 13.24-43.895 6.248-47.669-8.462-4.579-15.412 6.003-17.107 5.771-.64-.086-2.051-1.621-2.489-2.096-23.061-25.056-46.268-13.915-46.852-17.393-.75-4.413-22.318-15.575-37.184-8.125a4.225 4.225 0 0 0-2.908 3.565c-.191 1.495 1.12 2.29 1.28 3.09.259 1.252-2.56.654-6.816 3.169-1.567.926-3.066 1.859-3.36 3.272a7.44 7.44 0 0 0-.402 3.096c.139.683.523 1.643 1.28 1.82 4.778 1.12 10.08 1.6 14.261 5.028.384.32.419.576-.061.94-8.445 6.448-7.84 8.404-9.155 9.525-1.691 1.44-1.667-.581-2.471-2.753-1.617-4.367-7.54-8.21-11.699-2.349z"/><path fill="#fff" d="M120.8 204.48c2.905 7.286 5.101 10.87 13.086 13.6 15.277 5.232 30.792-.755 37.293-13.007 3.798-7.158 7.662-22.862 1.586-31.481-.996-1.411-1.882-1.28-3.58-.437-10.412 5.189-12.252-1.643-16.64-.432-1.588.44-6.521 5.149-10.688 2.379-2.065-1.374-2.936-4.299-5.28-5.12a9.645 9.645 0 0 0-2.419-.333c-5.749-.48-8.088-3.99-8.688-4-.624-.012-1.208.706-1.363 1.135a32.454 32.454 0 0 0-1.787 4.929c-2.48 12.663-8.535 15.167-1.52 32.767zm33.12-78.199c-2.186-15.477-16.814-15.04-23.477-5.19-6.88 10.174-4.96 29.472 9.837 29.331 9.8-.094 15.123-13.59 13.64-24.141zm31.792 6.062c-2.43-15.297-18.801-15.2-26.414-5.19-7.741 10.174-5.575 29.472 11.069 29.331 11.035-.096 17.02-13.59 15.345-24.141z"/><path fill="#0F0F0F" d="M186.837 132.16c-2.88-18.608-24.809-16.877-31.509-1.573.05-24.512-22.545-20.496-27.873-7.459-6.264 12.553-.562 30.164 13.12 28.857a12.065 12.065 0 0 0 8.433-3.894c5.981-6.261 3.445-9.703 4.652-3.44a16.046 16.046 0 0 0 3.332 7.539 16.048 16.048 0 0 0 14.82 5.85 16.058 16.058 0 0 0 7.584-3.231c6.24-5.093 8.7-14.528 7.441-22.649zm-44.917 16.496c-16.48 3.2-18.745-26.548-2.758-32.368 18.118-6.474 17.402 29.608 2.758 32.368zm29.949 6.022c-14.798 1.067-18.214-13.968-12.464-24.536 3.944-7.36 14.89-11.101 20.64-6.093 9.343 7.811 3.723 29.023-8.179 30.629h.003z"/><path fill="#0F0F0F" d="M136.903 130.184c-4.581 0-4.64 14.778 0 14.778s4.552-14.778 0-14.778zM167.718 136c-5.187 0-5.192 14.776 0 14.776s5.191-14.776 0-14.776zm42.505 11.472c6.145 7.792 20.64-14.816 5.728-19.093 1.16-2.827 3.398-8.509 5.846-9.147 4.683-1.224 3.544 7.723 4 7.84.498.128 2.618-5.92-.242-8.888a4.724 4.724 0 0 0-4.283-1.227c-3.049.672-4.838 4.24-6.141 7.081-2.942 6.251-8.15 17.784-4.908 23.434zm4.515-15.97c9.92 2.107.96 15.107-1.344 14.842-1.074.267-2.861-3.386 1.344-14.842zm-21.834-7.118c-.416-1.008-6.656 1.772-13.264-4.16-6.08-5.205-6.43-12.388-7.494-12.373-.738.009-1.315 5.053 1.267 9.76 2.971 5.883 9.621 9.79 15.122 8.899 3.091-.448 4.55-1.795 4.369-2.126zm-50.719-17.305c9.789-2.164 13.22 6.168 14.378 5.836.411-.119.55-1.509-.405-3.482a10.91 10.91 0 0 0-10.742-5.805 10.895 10.895 0 0 0-4.104 1.255c-1.898 1.097-2.56 2.328-2.287 2.656.311.372 1.432-.096 3.16-.46z"/><path fill="#0F0F0F" d="M174.915 161.899c-9.051-15.692-60.873-19.173-52.537.854 2.412 5.867 8.36 7.906 14.417 9.6 2.89 5.52 10.45 7.499 16.28 1.944a35.652 35.652 0 0 0 9.627 1.973c9.173.241 16.776-5.936 12.213-14.371zm-2.15 5.718a7.217 7.217 0 0 1-4.549 4.6c-4.16 1.76-8.874 1.011-13.256-.054a4.142 4.142 0 0 1 2.24-1.556c1.778-.457 6.115-.16 6.05-.985-.036-.451-4.2-1.511-6.464-1.343-3.015.298-4.064 2.44-6.095 4.024-4.424 3.576-9.645 1.908-11.52-2.137-1.053-2.162-1-7.709-7.597-8.555-1.148-.14-1.79 0-1.828.224-.039.224.524.51 1.44 1.019 3.68 2.041 3.76 2.4 4.595 6.544a24.512 24.512 0 0 1-7.2-3.587c-2.939-2.311-4.728-6.008-2.658-9.12 6.32-9.424 48.819-1.332 46.842 10.926zm18.869-20.377c-.788-.142-1.991 4.347-5.583 8.311-3.533 4.014-7.937 5.513-7.736 6.28.202.766 5.653.23 9.81-4.42 4.109-4.529 4.286-10.03 3.509-10.171z"/><path fill="#0F0F0F" d="M124.055 150.478c.48-.397-.648-2.584-1.304-5.531-.704-2.938-1.12-5.515-1.771-5.506-1.031-.012-1.431 6.511 1.464 9.988.724.88 1.382 1.238 1.611 1.049zm26.429 46.84c-2.536-13.475-11.629-15.507-14.56 1.074-3.192 19.566 17.768 18.102 14.56-1.074zm-9.783 10.616c-3.267-3.16-1.416-13.691.45-17.355 2.069-4.061 6.24-3.214 6.89 7.053.566 10.323-4.666 12.952-7.34 10.302z"/><path fill="#0F0F0F" d="M208.393 200.419a55.57 55.57 0 0 0 13.92-44.681 28.004 28.004 0 0 0 8.05-9.632c4.928-10.341 10.04-27.36 4.149-37.384-3.979-6.867-13.183-8.071-20.736-1.973-4.735 3.864-.015 3.594-9.477-5.094-10.936-10.17-28.43-13.46-41.179-10.439-11.816-19.153-42.983-12.937-43.007-4.51a5.071 5.071 0 0 0 1.226 3.533c-5.491 1.468-12.907 5.412-10.288 10.385 3.544 5.92 8.29 1.195 16.402 7.088a27.233 27.233 0 0 0-8.381 8.066c-1.92-8.08-9.863-10.56-14.959-5.725-11.01 10.317-4.83 44.12 8 47.211-9.968 10.339-10.587 34.274 3.784 39.413a28.338 28.338 0 0 0 2.73 9.76c-6.467 9.093-10.77 21.339-9.827 32.494-24.522 15.154-30.731 55.68-3.251 65.34 39.36 13.403 86.644 11.31 111.52 3.275 11.076-3.607 17.35-9.487 19.664-25.773 2.923-21.682-4.72-62.926-28.34-81.354zm-105.484-79.484c2.545-13.076 12.59-12.38 13.86-1.2-5.131 10.604-4.44 23.488-2.227 35.064-9.742-.258-13.502-24.447-11.633-33.864zm130.18 160.32c-2.193 14.763-7.464 19.52-17.208 22.633-24.844 7.928-70.96 9.634-109.168-3.04-24-8.264-18.9-44.331 2.442-59.102.458 2.617 1.12 4.093 1.515 4.035 1.741-.232-1.101-18.587 10.13-35.624 11.189 16.171 36.382 14.803 47.688 3.291 6.089-.229 11.499-1.361 15.739-5.741 4.829-4.984 5.803-11.95 5.098-12.16-.866-.32-2.309 5.495-7.311 9.796a17.486 17.486 0 0 1-10.144 3.96 36.693 36.693 0 0 0 5.96-22.192c-.237-5.912-1.67-9.336-2.109-9.232-1.308.227 3.554 36.448-25.161 39.977 4.902-3.763 5.086-10.059 4.216-9.92-.439-.035-.64 2.093-2.416 4.677-5.299 7.477-15.255 6.122-19.162-1.76-1.361-2.906-1.984-4.986-2.4-4.874-.573.144-.222 6.272 2.986 10.018a21.734 21.734 0 0 1-4.698-2.733c-18.4-13.976-4.357-41.147-6.608-41.984-.885-.342-6.51 10.811-6.72 21.491-10.92-6.486-8.464-29.262 2.424-37.95 1.32-1.054 2.152-1.586 2.032-1.869-.077-.197-.968-.168-2.43.407-1.299-10.093-1.96-21.407 1.702-30.951 4.744-12.621 14.56-15.821 13.92-17.069-.113-.224-1.024 0-2.637.64-6.24-5.844-12.756-5.371-14.683-5.92-6.48-1.816 8.887-11.019 24.909-5.464 6.613 2.288 10.965 5.938 11.398 5.44.578-.656-9.92-11.884-25.582-10.707-12.602-3.15 17.214-14.269 32.43 1.173 4.605 4.669 6.148 9.942 6.845 9.734.371-.105-.029-3.124-1.681-6.632a58.556 58.556 0 0 1 24.993 3.466c9.266 3.218 15.637 9.726 20.045 14.379-5.24 7.48-8.109 20.394-6.938 20.698.872.233 3.639-7.783 7.583-14.706 8.67-15.104 21.373-13.347 22.957-1.008 1.246 9.722-3.901 24.501-7.378 30.173-5.098 8.336-15.592 13.858-14.824 15.062.517.821 6.787-2.742 8.227-3.659 1.845 36.551-27.021 51.914-26.161 53.315.332.656 7.35-2.756 13.712-9.073 23.352 18.893 28.995 61.133 26.468 79.008v-.003z"/><path fill="#0F0F0F" d="M115.113 279.244a4.556 4.556 0 0 0-4.269-1.12c-3.84 1.392-4.55 8.588-2.462 12.088 1.705 2.951 4.984 2.252 4.709 1.669-.096-.304-2.196.024-3.2-2.461-1.204-2.72-.236-9.817 2.646-8.987 3.179 1.354 3.094 8.677.76 11.083-.656.677.421.541 1.214.008 2.802-1.884 3.536-9.172.602-12.28z"/><path fill="#92FCFF" d="m88.422 165.817-35.252 6.165a8.372 8.372 0 0 0-6.805 9.691l11.725 67.028a8.376 8.376 0 0 0 9.69 6.804l35.251-6.166a8.367 8.367 0 0 0 6.806-9.69l-11.725-67.027a8.373 8.373 0 0 0-9.69-6.805z"/><path fill="#0F0F0F" d="m111.482 239.36-11.724-67.024a10.056 10.056 0 0 0-11.625-8.16l-35.251 6.165a10.058 10.058 0 0 0-8.16 11.625l11.721 67.026a10.06 10.06 0 0 0 9.89 8.32c1.258 0-1.162.352 36.987-6.317a10.015 10.015 0 0 0 6.494-4.125 10.05 10.05 0 0 0 1.668-7.51zm-9.194 7.018c-1.59 2.262 1.266 1.176-34.797 7.48a6.72 6.72 0 0 1-7.758-5.448L48.01 181.384a6.706 6.706 0 0 1 5.44-7.755l33.18-5.803a7.548 7.548 0 0 1 5.183 5.896c12.629 72.171 12.986 69.089 10.474 72.659v-.003zm4.782-1.44a6.66 6.66 0 0 1-3.532 2.56c3.286-4.509 2.48-2.304-10.07-74.069-.874-4.997-4.767-6.08-3.6-6.08a6.718 6.718 0 0 1 6.598 5.547c12.654 72.394 12.843 68.864 10.604 72.05v-.008z"/><path fill="#0F0F0F" d="M69.882 175.937a3.237 3.237 0 0 1 3.177 2.675l2.72 15.575a3.224 3.224 0 0 1-2.624 3.737l-13.931 2.437a3.22 3.22 0 0 1-2.413-.538 3.233 3.233 0 0 1-1.325-2.087l-2.72-15.575a3.233 3.233 0 0 1 2.626-3.737c15.168-2.655 14.088-2.487 14.49-2.487zm-.928-2.046c-21.967 3.825-19.68.717-15.562 24.211a5.35 5.35 0 0 0 6.202 4.355l13.93-2.437a5.36 5.36 0 0 0 4.356-6.2l-2.72-15.574a5.286 5.286 0 0 0-6.2-4.355h-.006z"/><path fill="#fff" d="M68.534 183.869a3.538 3.538 0 0 0 .16 7.075 3.538 3.538 0 0 0-.16-7.075zm-5.506.62a3.538 3.538 0 1 0-7.075.16 3.538 3.538 0 0 0 7.075-.16zm-2.078 5.652a3.538 3.538 0 0 0 .16 7.075 3.538 3.538 0 0 0-.16-7.075z"/><path fill="#0F0F0F" d="M68.515 183.04c-5.721.129-5.62 8.745.1 8.745 5.854-.004 5.748-8.875-.1-8.745zm.16 7.072a2.704 2.704 0 0 1-.063-5.403 2.703 2.703 0 0 1 .068 5.398l-.005.005z"/><path fill="#0F0F0F" d="M59.591 188.944c5.776-.135 5.59-8.866-.203-8.746-5.86.138-5.485 9.003.203 8.746zm-2.803-4.304a2.7 2.7 0 0 1 4.561-2.006c.518.491.82 1.166.842 1.879a2.7 2.7 0 0 1-4.56 2.006 2.703 2.703 0 0 1-.843-1.879zm4.143 4.666c-5.72.134-5.62 8.747.1 8.747 5.887 0 5.663-8.888-.1-8.747zm2.056 6.24a2.705 2.705 0 0 1-4.235-3.316 2.713 2.713 0 0 1 2.217-1.252 2.7 2.7 0 0 1 2.724 3.166 2.705 2.705 0 0 1-.706 1.4v.002zm6.643-17.626a1.57 1.57 0 0 0-1.448.972 1.577 1.577 0 0 0 .336 1.712 1.579 1.579 0 0 0 1.712.335 1.572 1.572 0 0 0 .853-2.049 1.567 1.567 0 0 0-1.453-.97zm2.702 38.659c.741.39 5.842 1.92 6.479 1.366 2.891-2.222 6.78-3.264 4.448-6.531-1.448-2.027-2.495 1.904-4.48-.822-1.173-1.708 1.035-3.146-.26-4.503-.583-.613-2.324-2.424-2.499-2.269-.2-.083-5.84 11.842-3.688 12.759zm5.204.296a28.492 28.492 0 0 1-4.661-1.28c-.16-.16.09-.16 4.598-1.983.767 3.884 1.072 3.472.063 3.263zm.89-.034c-.417-4.769-1.836-3.134 4.382-3.36-.36 1.011-3.234 2.538-4.383 3.36zm-.545-10.217c.458.566-.16.99-.465 2.363a3.36 3.36 0 0 0 2.374 3.68c.506.12.91.16 2.48-.712.218.272.392.576.517.901.15.48.171.348-.986.236a18.118 18.118 0 0 0-3.928-.179c-1.622-9.859-2.556-9.462.008-6.289zm-1.899-2.119c.16 1.935.968 6.429 1.38 8.551-1.55.62-3.06 1.336-4.524 2.14.09-1.686 2.429-6.976 3.144-10.691z"/><path fill="#0F0F0F" d="M83.867 215.473c-5.611 4.16-5.043 3.741-5.28 3.703a14.553 14.553 0 0 1-6.042-1.876.465.465 0 0 0-.499.018.462.462 0 0 0-.187.462c.574 2.9 8.19 10.194 8.595 9.68.891.496 6.98-14.632 3.413-11.987zm-9.467 4.599c-1.12-1.492-1.157-.765 2.043-.151.79.238 1.61.364 2.435.376.24 2.253.674 4.48 1.294 6.659-.822-1.049-3.281-3.582-5.772-6.884zm9.33-3.117a65 65 0 0 1-3.308 9.976c-.12-2.781-1.368-6.65-1.208-6.72.274-.131 4.867-3.525 4.518-3.251l-.001-.005z"/><path fill="#fff" d="M84.268 174.952c-1.978-.21-3.427-3.775-4.263-5.218A2.718 2.718 0 0 0 77.353 168c-3.276-.373-7.317-.8-9.877-3.117-4-3.629-1.91-9.695 2.78-11.536 5.647-2.219 12.01-2.146 17.978-2.477 5.029-.278 11.531.224 13.099 6.17 2.389 9.052-10.817 10.008-12.232 11.089-1.73 1.323-1.397 7.187-4.833 6.823z"/><path fill="#0F0F0F" d="M86.671 171.89c1.76.628 1.184.904 2.08-1.648.592-1.676.971-1.592 1.879-1.815 3.868-.945 9.364-2.424 11.214-6.15 2.093-4.221.16-11.304-8.8-12.403-2.12-.261-16.147-.44-23.346 2.516-6.985 2.869-7.812 12.668 1.061 15.421a50.759 50.759 0 0 0 7.335 1.256c.779.219.96.839 1.972 2.658 3.053 5.52 6.4 5.12 7.959.64l-1.35-.48c-2.353 6.336-5.367-1.979-6.463-3.52-1.728-2.424-10.346-.608-13.171-5.725-1.493-2.702-.365-7.101 5.073-8.779a57.535 57.535 0 0 1 13.92-1.783c3.698-.172 9.218-.672 12.33 1.996 2.294 1.968 3.531 6.52.149 9.244a20.03 20.03 0 0 1-7.077 3.17c-3.334.942-3.31.566-4.765 5.402z"/><path fill="#0F0F0F" d="M75.79 157.315a2.734 2.734 0 0 0-2.736 2.737 2.735 2.735 0 0 0 2.736 2.737 2.746 2.746 0 0 0 2.672-2.736 2.736 2.736 0 0 0-2.672-2.738zm8.097-.291a2.736 2.736 0 1 0 0 5.472 2.736 2.736 0 0 0 0-5.472zm7.962-.394a2.736 2.736 0 1 0 0 5.473 2.736 2.736 0 0 0 0-5.473z"/><path fill="#fff" d="M257.191 85.6c14.472-4.998 31.246 3.832 34.762 18.734 3.104 13.168-5.096 27.023-18.06 31.151-13.6 4.329-29.28-3.04-33.632-17.155-4.236-13.736 3.996-28.26 16.93-32.73z"/><path fill="#0F0F0F" d="M265.897 137.88a27.364 27.364 0 0 1-28.001-27.616 27.35 27.35 0 0 1 18.915-25.76c15.217-5.257 32.624 4.09 36.275 19.568a28.027 28.027 0 0 1-27.189 33.808zm-8.32-51.176c-20.549 7.098-23.795 35.447-3.915 45.84 20.025 10.467 41.92-7.757 37.165-27.939-3.338-14.123-19.332-22.712-33.256-17.9h.006z"/><path fill="#92FCFF" d="M251.607 123.592c1.996 2.486 5.128 1.416 14.052 2.528a75.59 75.59 0 0 0 9.44 1.12c6.625-.024 6.052-12.394 6.777-17.034.367-2.357 3.141-11.408-2.739-13.526-.84-.253-1.71-.395-2.587-.423-12.754-1.078-23.611-5.92-24.627 2.373-2.34 19.058-3.636 20.827-.316 24.962z"/><path fill="#0F0F0F" d="M258.82 92.96a7.241 7.241 0 0 0-8.075 6.315c-3.586 29.269-6.51 25.589 22.832 29.192a7.26 7.26 0 0 0 8.075-6.315c3.578-29.272 6.509-25.615-22.832-29.192zm15.47 29.681-14.929-1.824a5.307 5.307 0 0 1-4.616-5.902l1.824-14.928a5.314 5.314 0 0 1 4.19-4.544c25.037 3.06 22.01-.8 18.951 24.232a5.31 5.31 0 0 1-5.42 2.96v.006zm-.443 3.613c-20.032-2.44-20.453-2.005-22.161-4.19-1.709-2.186-1.224-2.095 1.28-22.519a5.015 5.015 0 0 1 4.568-4.393c-2.988 2.344-2.536 3.989-4.44 19.56a6.983 6.983 0 0 0 6.08 7.765c15.52 1.899 17.043 2.747 20.054.401a5.03 5.03 0 0 1-5.381 3.37v.006z"/><path fill="#0F0F0F" d="M277.016 107.92c-.8-5.853-1.152-6.181-3.902-4.816-2.274 1.12-6.031 1.888-1.6 4.923.299.208.55-.416-2.824 5.095-1.493-6.744-1.44-7.863-3.007-7.786-.868.051-1.166.64-1.643 1.213-5.12 6.189-8.064 11.158-2.769 5.747 5.246-5.363 4-5.562 4.676-2.464 1.245 5.704 1.151 5.581 1.636 5.936a1.363 1.363 0 0 0 1.619.058c.16-.11.294-.253.393-.42l3.736-6.102c.773.504 1.616.89 2.501 1.147 1.235 0 1.352-1.307 1.184-2.531zm-5.701-2.16c.503-.232 1.308-.616 2.176-.986 1.461-.608 1.087-1.04 1.461.898.16.8.4 2.264.453 2.861a23.467 23.467 0 0 1-4.09-2.773z"/><path fill="#FDFE1F" d="M260.127 78.525c.532 2.64-1.44 6.545-.095 8.582a2.815 2.815 0 0 0 3.333.8 7.724 7.724 0 0 0 2.847-2.312c4.395 11.955-11.976 20.338-20.98 11.442-4.272-4.22-3.408-16.855-1.496-12.06a7.083 7.083 0 0 0 4.776 4.368c1.876.128 3.266-2.176 1.957-4.627-1.23-2.3-2.56-3.613 1.131-5.507 4.127-2.117 4.397-2.09 4.338-3.52a4.716 4.716 0 0 1 .248-1.848c.374-.507 3.417 2.1 3.941 4.682z"/><path fill="#0F0F0F" d="M267.079 85.85c-.386-1.249-.831-1.836-.96-1.782-.16-.016-.32.33-.599.887-2.062 4.041-6.08 3.24-4.929-.63 1.325-4.815 2.109-8.207-3.559-10.913-1.12-.548-1.44-.352-1.308 1.136.289 3.296-2.815 2.252-5.68 4.295a4.6 4.6 0 0 0-1.967 5.171c.528 1.531 2.08 2.912 1.776 3.68-.16.811-1.504 1.376-3.261.304-2.84-1.744-2.72-5.392-3.051-5.413-.361-.328-2.664 2.416-2.166 7.015a13.654 13.654 0 0 0 12.329 12.224 12.664 12.664 0 0 0 13.375-15.975zm-24.141 3.529a11.139 11.139 0 0 1 .056-4.879 6.184 6.184 0 0 0 5.632 6.141 3.275 3.275 0 0 0 2.865-1.427 3.27 3.27 0 0 0 .276-3.189c-.755-1.744-3.146-3.401-.48-5.545 1.893-1.535 6.91-1.967 5.28-6.138-.218-.48-.207-.414-.055-.235.876.992 1.229 1.227 1.818 1.96 3.211 3.952-1.038 7.131-.04 10.793.875 3.543 6.774 3.84 7.938-.844 1.292 16.273-20.384 18.601-23.29 3.363z"/><path fill="#fff" d="M52.8 74.64c20.379-7.04 44 5.398 48.947 26.383 4.379 18.541-7.17 38.048-25.428 43.863-19.142 6.096-41.229-4.283-47.36-24.16-5.956-19.344 5.637-39.794 23.84-46.085v-.002z"/><path fill="#0F0F0F" d="M65.064 147.817c-16.432 0-32.16-10.24-37.244-26.733-6.004-19.477 5.027-40.819 24.594-47.577.272.784.728 2.105 0 0a39.24 39.24 0 0 1 31.654 2.992c35.218 19.392 19.759 71.316-19.004 71.318zm-34.948-27.442c5.91 19.157 27.258 29.28 45.845 23.36 28.827-9.176 35.919-49.176 6.949-65.13-29.63-16.311-61.998 11.914-52.794 41.77z"/><path fill="#FDFE1F" d="M82.126 130.08a49.816 49.816 0 0 1-13.045 5.44c-21.24 5.259-35.32-37.212-21.84-46.341 1.814-1.229 12.733-6.376 18.251-5.72 20.621 2.448 30.879 38.342 16.634 46.621z"/><path fill="#0F0F0F" d="M60.242 82.85c-3.186.73-12.544 4.223-14.72 6.306-6.125 5.652-5.295 19.234-1.876 28.103 5.95 15.456 16.96 20.758 22.936 19.878 4.994-.62 16.444-4.782 20.397-10.416 8.907-14.643-6.104-48.441-26.737-43.87zm-3.74 3.342a14.73 14.73 0 0 0-4.68 9.382c-3.937 1.76-2.98 2.08-8.214 2.775 1.312-7.884 4.536-8.986 12.894-12.157zm-13.12 13.92c5.226-1.957 1.079-.923 8.25-2.615a35.42 35.42 0 0 0 1.094 10.426c-4.23 1.685-2.616 1.958-8.692 2.71a33.2 33.2 0 0 1-.658-10.523l.006.002zm1.036 12.099c7.84-3.032 4.425-1.298 8.78-2.53a48.825 48.825 0 0 0 4.367 10.444c-6.767 2.737-2.4 1.416-8.733 2.643a43.034 43.034 0 0 1-4.42-10.559l.006.002zm5.342 12.048c6.998-3.093 4.75-1.405 8.746-2.542a30.921 30.921 0 0 0 5.779 7.04c-4.733 2.843-3.783 1.83-7.544 3.052a27.582 27.582 0 0 1-6.981-7.55zm8.613 8.578c.878-.56 1.8-1.049 2.757-1.463.16 0 4.553-1.331 4.713-1.408a15.31 15.31 0 0 0 8.896 2.597c-8.792 3.522-12.078 2.685-16.374.274h.008zm23.934-4.106c-23.232 16.549-42.947-47.14-17.08-44.285 21.439 2.368 28.717 37.226 17.072 44.285h.008z"/><path fill="#0F0F0F" d="M81.949 103.133c-1.954-4.136 2.59 5.36 1.472 14.196-1.02 8.036-5.999 11.04-9.82 10.061-7.68-1.957-19.952-22.249-15.13-34.262 2.6-6.664 12-8.405 20.718 5.28 1.358 2.165 2.88 5.238 1.808 2.541-6.181-15.496-19.877-17.81-23.701-8.29-3.327 8.029.288 23.568 11.49 33.504 10.515 9.283 20.844-6.782 13.163-23.03z"/><path fill="#0F0F0F" d="M72.855 105.794c3.208-3.965 1.384-9.508-3.322-9.632-.288-1.852-1.577-2.849-1.899-2.59-.321.257.14 1.505.535 2.705-2.127.373-1.824.619-1.93.246-.822-2.851-2.166-2.496-1.334.386.188.65.112-.143-1.49 1.168.533 1.76 4.178 10.413 4.178 11.125 3.788 13.316 2.65 11.84 4.726 10.95.203-.043.082-.096.29.426.752 1.905 2.62 2.88 1.292-.512-.147-.365-.188-.255.234-.397 1.856-.615 1.589-.912 1.704-.599 1.28 3.48 2.125 1.76 1.307-.468-.21-.591-.262-.389.023-.652 4.537-4.158.272-11.275-4.314-12.156zm-1.494-7.639c2.177.81 2.58 4.099.168 6.08a14.046 14.046 0 0 1-3.468 1.949c-.566-2.39-1.041-4.904-1.467-6.832 1.533-.864 3.229-1.797 4.767-1.197zm1.057 19.2a60.886 60.886 0 0 1-3.563-8.198 8.255 8.255 0 0 1 4.102-1.271c4.818.544 8.164 8.444-.545 9.476l.006-.007z"/><path fill="#FFC5F6" d="M36.749 94.054c5.515 5.395 15.432 6.182 24.37-.562 4.489-3.389 5.019-5.92 5.154-11.04.125-4.64.025-7.488-4.071-13.358-.83 3.27-2.175 6.675-5.018 8.512-1.586 1.024-2.959-1.102-3.434-2.76-1.457-5.088 2.285-10.792-3.029-14.267-.16-.106-3.68-5.026-8-3.52a5.632 5.632 0 0 1 .88 7.016 15.543 15.543 0 0 1-3.099 3.89c-1.745 1.713-3.485 1.825-3.596 3.638-.236 3.795 8.462 9.024 5.767 10.808-7.233 4.787-8.336-.87-10.644-2.115-.96-.517-.844-.78-1.452-1.407-.817-.846-.899 2.178.266 4.829 1.342 3.072 2.799 7.297 5.906 10.336z"/><path fill="#0F0F0F" d="M67.076 77.174c-1.1-5.69-5.208-9.728-5.617-9.323-.463.18.428 2.337-1.46 5.46-.833 1.37-2.808 3.2-3.958 2.72-1.677-.387-1.392-3.974-1.216-5.7.304-3.15.584-5.69-1.082-8.653a10.82 10.82 0 0 0-10.019-5.714c-2.56.267-1.616.776-.683 2.31a5.383 5.383 0 0 1-1.029 6.94c-1.322 1.213-4.121 1.568-5.44 4.131a6.003 6.003 0 0 0 .168 5.98 16.668 16.668 0 0 0 4.072 3.587c2.904 2.473.658 4.783-2.835 4.267-5.14-.706-7.46-6.101-8.013-5.87-.606-.047-2.894 12.567 9.304 19.777 13.146 7.638 31.282-3.176 27.808-19.912zM63.34 88.1c-6.648 13.339-29.855 11.67-32.855-7.94-.3-2.19-.029 1.006 3.373 3.588 6.267 4.64 12.77.072 10.62-4.515-1.6-3.603-5.809-3.84-5.89-7.01-.056-3.303 2.972-3.168 5.025-5.35a6.42 6.42 0 0 0-.558-9.947 10.956 10.956 0 0 1 8.417 5.936c2.212 4.56-1.206 10.248 1.663 14.14 2.13 2.991 6.659 1.636 8.614-2.796 1.554-3.587.011-5.68 1.072-3.818A18.941 18.941 0 0 1 63.34 88.1z"/><path fill="#fff" d="M242.966 228.137c19.282-6.66 41.632 5.106 46.314 24.96 4.137 17.543-6.789 36-24.06 41.503-18.113 5.769-39.011-4.053-44.809-22.856-5.645-18.304 5.323-37.655 22.555-43.607z"/><path fill="#0F0F0F" d="M254.561 297.789c-15.754 0-30.779-9.835-35.637-25.587-9.416-30.534 23.632-59.288 53.819-42.669 33.579 18.488 19.098 68.256-18.182 68.256zm-.343-69.971c-34.323 0-47.136 46.56-15.964 62.859 26.68 13.949 55.854-10.333 49.513-37.222-3.547-15.055-18.04-25.637-33.545-25.637h-.004z"/><path fill="#92FCFF" d="M231.738 276.528a6.943 6.943 0 0 0 3.6 5.568 9.974 9.974 0 0 0 2.864.662c26.101 3.394 32.879 5.856 34.175-1.748.8-4.663 5.707-32.551 3.385-36.615-2.536-4.433-16.451-4.107-24.88-6.097-2.374-.562-5.312-.064-7.761-.268a8.21 8.21 0 0 0-6.08 1.876c-1.807 1.55-1.244 2.88-2.229 8.788-.6 3.562-3.423 25.112-3.074 27.834z"/><path fill="#0F0F0F" d="M278.547 248.072a7.663 7.663 0 0 0-1.573-5.667 7.688 7.688 0 0 0-5.123-2.893c-30.585-3.733-31.395-4.64-34.785-1.984-3.36 2.627-2.535 2.198-6.916 38.019a7.681 7.681 0 0 0 1.575 5.669 7.688 7.688 0 0 0 5.122 2.891c31.72 3.878 29.377 3.616 30.056 3.616a7.698 7.698 0 0 0 7.624-6.754l4.02-32.897zm-36.499-4.461a4.96 4.96 0 0 1 3.575-4.179c27.436 3.36 27.291 2.822 28.905 4.885 1.615 2.062 1.178 1.428-2.625 32.537a4.957 4.957 0 0 1-4.917 2.463c-26.287-3.216-25.554-2.629-27.248-4.8-1.735-2.213-1.298-1.367 2.31-30.906zm24.293 40.976-29.12-3.558a4.582 4.582 0 0 1-4-5.106c4.32-35.314 3.68-34.333 5.746-35.952a4.557 4.557 0 0 1 2.9-.971 7.243 7.243 0 0 0-2.137 4.329c-3.562 29.16-4.32 29.456-1.835 32.623 2.484 3.166 3.104 2.539 28.8 5.673a7.22 7.22 0 0 0 4.745-1.051 4.567 4.567 0 0 1-1.718 3.064 4.592 4.592 0 0 1-3.381.949z"/><path fill="#FDFE1F" d="M248.252 256.061c-.64-4.986 2.029-4.14-.023-8.52-.427-.914 1.8-1.483 2.784-1.693 2.4 5.542 4.732 4.718 5.664 8.267a12.717 12.717 0 0 0 8.376 9.023c1.612.539 4.101.16 4.578 1.76 1.258 4.23-6.026 7.692-13.514 3.083a16.887 16.887 0 0 1-7.865-11.92z"/><path fill="#fff" d="M243.373 262.845c2.252-2.107 3.337-3.288 4.756-3.763 1.45-.48 3.911-.1 6.064-2.56 2.154-2.461 1.428-4.429 7.314-8.22 1.094-.704.715-.694 1.12-.134 3.387 4.702 2.931 4.358 4.046 5.76 1.042 1.31 1.42 1.386 1.506 1.76.187.81-3.33 3.338-3.84 3.659-2.261 1.421-2.03 1.44-2.531 3.36-1.235 4.717-5.44 3.869-8.672 5.848-5.731 3.52-3.701 5.903-7.17.562-3.605-5.565-4.597-4.397-2.593-6.272z"/><path fill="#0F0F0F" d="M270.613 265.939c-.037-5.237-5.28-1.006-10.486-7.005-3.53-4.075-1.6-5.659-5.383-8.95-4.651-3.914-1.304-6.12-5.734-4.258-2.152.922-1.586 1.676-.989 2.951a3.205 3.205 0 0 1 0 3.126c-1.55 5.16 1.375 13.451 8.775 17.44 7.651 4.023 13.924.279 13.817-3.304zm-21.707-18.603a4.124 4.124 0 0 1 1.71-.598c.698 1.628.498.305-1.337 1.515a8.19 8.19 0 0 1-.373-.917zm.285 4.835c.473-.917.617-1.97.408-2.981a3.87 3.87 0 0 0 1.76-.902c2.206 4 3.232 1.95 4.758 6.747a13.18 13.18 0 0 0 9.626 9.109c3.509.59 1.44-.142.909 1.738a2.53 2.53 0 0 0 .742 2.4c-8.133 5.075-21.24-7.029-18.203-16.111zm18.693 15.762c-.293-1.451-.444-2.152.868-3.04a2.491 2.491 0 0 1-.868 3.04z"/><path fill="#0F0F0F" d="M264.301 266.168a13.857 13.857 0 0 1-3.36-1.012 8.159 8.159 0 0 0 1.749-3.489c.248-.827.408-.779 6.298-5.424-.888-1.207-5.346-7.336-6.442-8.391-.267-.257-.219-.58-4.697 2.847-2.623 2.005-1.66 1.481-2.524 3.51a6.902 6.902 0 0 1-2.363 2.923c-1.374-2.56-1.555-4.121-1.853-4.092-.361.03-.281 2.315.908 4.665a9.43 9.43 0 0 1-3.2.791c-1.082.206-1.317.537-7.24 5.44 8.395 11.4 8.308 10.55 1.345.185 5.312-4.19 5.368-4.397 6.128-4.531a9.407 9.407 0 0 0 3.691-1.022 7.82 7.82 0 0 0 3.498-3.991c.8-2.08-.077-1.371 2.096-3.251 4.976-4.094 3.797-3.506 4-3.472.16.024-1.003-1.163 5.293 8.189-4.875 3.68-5.642 4.104-5.983 5.262a7.173 7.173 0 0 1-4.091 5.059 14.81 14.81 0 0 1-2.989.708c-1.625.556-12.236 9.849-1.889 2.267a6.843 6.843 0 0 1 2.139-1.378 9.11 9.11 0 0 0 5.28-1.952c3.013 1.418 6.04.899 6.024.597-.016-.168-.725-.245-1.818-.438z"/><path fill="#FDFE1F" d="M224.627 230.65c-.192 4.174.096 5.726 2.821 8.842 4.395 5.03 9.165 6.12 13.413 5.086 8.825-2.149 10.454-13.238 8.428-16.971-.54-.994-.728 1.555-2.816 2.888-2.144 1.368-4.592.285-4.532-2.789.027-1.392 1.776-6.938-3.287-10.125-.48-.302-1.785-.905-2.115-.664-.416.304.301 1.76.205 2.504-.12.938-.903 1.461-4.021 4.349-4.672 4.328 1.574 7.141.875 9.28-.374 1.142-2.969 2.043-5.32.451-2.16-1.465-2.782-3.667-3.112-3.721-.385-.068-.526.62-.539.87z"/><path fill="#0F0F0F" d="M251.152 232.915c-.085-4.238-2.203-7.438-2.597-7.176-.405.031-.944 5.147-4.32 4.248-3.752-.907 2.957-9.992-5.725-13.008-4.1-1.44-1.862.541-2.126 2.272-.346 2.4-6.552 2.651-6.707 7.618-.131 3.016 3.224 4.408 3.003 5.576-.029 1.297-2.704 1.987-5.005-.197-1.949-1.878-2.016-3.872-2.365-3.829-.985-.613-3.856 8.351 3.84 14.634 8.69 7.313 22.32.947 22.002-10.138zm-25.2 2.523a11.478 11.478 0 0 1-.846-4.971 6.4 6.4 0 0 0 6.868 5.202 3.388 3.388 0 0 0 2.652-1.984 3.389 3.389 0 0 0-.312-3.296c-1.087-1.627-3.831-2.88-1.519-5.555 1.64-1.909 6.666-3.279 4.237-7.223-.32-.461-.275-.371-.099-.229 1.086.86 1.44.996 2.213 1.656 4 3.428.265 7.447 1.96 10.991 1.556 3.462 7.606 2.625 7.918-2.331 4.36 16.436-17.344 22.582-23.072 7.74z"/><path fill="#FDFE1F" d="M191.601 184.512c.942 1.148 2.68 1.048 4.146 1.299a11.95 11.95 0 0 1 6.974 4.949 31.196 31.196 0 0 1 6.502 19.076c16.66-5.64 14.775-5.48 26.012-4.174a60.498 60.498 0 0 1 19.486 13.814 23.063 23.063 0 0 1 21.898-19.72c1.112-.043 2.225.02 3.324.186 1.535.506 3.352.704 2.53-.741-3.744-6.577-6.323-17.395-4.04-22.925.074-.174 3.542-7.696 3.646-10.604-.443-.048-7.948-1.077-8.929-1.484a29.752 29.752 0 0 1-6.32-4.72c-5.4-5.665-4.661-12.979-5.667-14.15-.64-.738-1.658.771-5.679 2.282-8.067 3.03-18.267.406-22.955-3.768-1.336-1.189-2.36-2.88-5.904-6.61-.906-.96-1.533-.79-2.048.432-4.581 10.84-15.403 14.421-26.03 13.216-.943 3.77 4.348 6.224.947 20.538a17.271 17.271 0 0 1-4.64 9.372c-1.235 1.224-1.683 2.34-2.88 3.111a.906.906 0 0 0-.373.621z"/><path fill="#0F0F0F" d="M281.687 195.338a32.24 32.24 0 0 1-.32-25.143c2.946-7.008 3.947-4.789-2.825-5.838a18.455 18.455 0 0 1-10.018-5.002c-7.166-6.797-5.643-14.581-6.864-14.729-.422-.824-6.634 2.651-11.926 3.096a23.77 23.77 0 0 1-14.208-3.959c-3.946-2.621-9.325-8.227-9.988-7.577-1.784-.864-5.971 13.619-22.312 14.025-6.051.16-5.745-.941-4.724 6.023 1.292 9.001.718 16.654-4.604 24.075-4.268 6.019-4.555 3.726 1.508 6.603 13.492 6.4 12.107 23.376 13.806 23.371.662 1.167 21.794-11.077 40.755 5.661 8.789 8.056 3.52 7.058 8.581-2.52 2.912-5.515 11.968-11.461 19.346-12.264 7.107-.773 6.792 1.688 3.793-5.822zM254.7 218.795a22.703 22.703 0 0 0-4.379-5.92c-10.803-11.547-32.56-11.024-40.703-3.211 1.061-3.543.391-11.32-3.104-17.003a16.82 16.82 0 0 0-10.347-7.946c-5.049-1.289-4.553 1.093-.497-2.896 5.724-5.534 8.604-15.52 5.096-26.11-2.176-6.552-3.548-4.16 2.304-3.171a18.954 18.954 0 0 0 12.457-2.173c5.6-3.2 9.728-9.89 10.125-13.479a34.24 34.24 0 0 0 8.109 9.354c8.723 6.571 20.056 6.066 27.31-.736-3.625 10.637 9.096 24.16 20.599 20.67-8.426 8.026-7.576 25.244.363 33.44-10.856-4.027-28.122 7.013-27.333 19.181z"/><path fill="#fff" d="M245.647 164.243c.239-2.365-5.451-4.134-6.673.979-3.36 14.05-3.555 15.48-4.738 17.512-1.2 2.064-3.259.781-.773-8.23a62.572 62.572 0 0 0 1.84-11.669 3.15 3.15 0 0 0-2.969-2.494 3.154 3.154 0 0 0-3.154 2.256 100.943 100.943 0 0 1-3.04 14.158c-.725-.16-.941-1.133-2.341-4.382a1.39 1.39 0 0 1 0-1.463c.716-1.494 2.196-3.507 1.965-5.219a14.374 14.374 0 0 0-4.061-7.328c-3.84-3.115-7.46-.866-10.542-1.586-.75-.176-1.206.791-1.357 1.546-.753 3.813-3.664 22.526-2.806 24.989.785 2.267 5.521 2.926 7.899 3.312a6.318 6.318 0 0 0 7.022-2.512c2.08-2.581 2.653-5.451 3.813-5.328-1.561 12.777 10.666 14.925 15.088 3.814a159.006 159.006 0 0 0 4.827-18.355zm-28.332 15.84c-1.775 1.226-4.087 1.251-3.714-1.304.282-1.334.459-2.69.531-4.053-.016-1.286 7.16 2.613 3.183 5.355v.002zm1.47-12.403a5.1 5.1 0 0 1-3.555.381.268.268 0 0 1-.253-.333c.368-1.792.56-5.48.92-5.539 2.525-.421 5.949 3.276 2.888 5.491zm39.71 10.824c1.965-1.555 6.219-5.872 6.384-7.904a3.608 3.608 0 0 0-2.168-3.405 3.6 3.6 0 0 0-1.387-.297c-1.426.078-6.045 4.744-7.024 5.76-1.46 1.5-.668-3.781-1.407-5.882a3.52 3.52 0 0 0-2.571-2.387c-6.48-.736-2.251 15.006-2.573 16.611-.47 2.37-4.521 7.307-5.449 9.862-1.413 3.879 2.139 5.89 4.376 4.608 1.553-.891 2.038-2.846 2.846-4.443.915-1.808 2.373-3.296 3.29-5.102 1.96-3.872.468-3.285 5.683-7.421zm9.531-7.08c-1.697 1.27-8.36 15.021-9.31 17.729-.566 1.624 2.138 5.12 4.717 3.029 2.4-1.949 8.992-17.315 9.054-17.557a2.86 2.86 0 0 0-1.043-3.256 2.87 2.87 0 0 0-3.418.055zm-7.531 24.71c-1.803-2.666-5.427-2.136-6.103-.526a3.877 3.877 0 0 0 1.136 4.883c2.872 1.848 6.672-1.84 4.967-4.357z"/><path fill="#0F0F0F" d="M212.23 187.401c-7.871-2.03-7.104-1.349-4.904-16.24.524-3.56 1.806-10.318 2.34-13.501.287-1.699 1.448-1.732 4.372-1.644a9.574 9.574 0 0 1 4.908 1.081c-.1.349-1.961-.629-7.422.279-.57.094-.352-1.236-2.227 14.041-.019.16-1.623 11.751-1.12 12.248a21.955 21.955 0 0 0 8.48 2.093c3.68-.181 6.313-3.418 7.04-6.838a7.895 7.895 0 0 0 .149-3.856 7.9 7.9 0 0 0-1.701-3.463 11.125 11.125 0 0 0 1.627-2.344 9.019 9.019 0 0 0-1.851-10.168c-1.562-1.44-2.687-1.584-2.594-1.878a5.373 5.373 0 0 1 3.147 1.211 9.84 9.84 0 0 1 1.928 13.238 9.607 9.607 0 0 1 1.308 7.664c-.858 4.495-4.296 8.413-8.933 8.64a15.02 15.02 0 0 1-4.547-.563z"/><path fill="#0F0F0F" d="M213.842 180.192c-.013.084-.047.117.032.133.646.048 1.296.059 1.944.037 2.208-.16 2.315-2.216 2.675-2.171.419-.055.32 2.981-2.483 3.494-.717.11-1.441.167-2.167.17-2.182.061-1.6-2.08-1.341-4.48.085-1.069.253-2.13.506-3.173.595-2.019 3.854-.32 4.822.731a2.718 2.718 0 0 1 .668 3.2c-.354.042-.194-2.045-2.647-2.974-.216-.082-1.44-.448-1.382-.258.051-.181-.559 4.855-.627 5.291zm1.476-12.371c-.012.082-.046.115.032.131.647.048 1.295.061 1.943.039 2.208-.16 2.315-2.218 2.677-2.173.419-.055.32 2.982-2.484 3.494-.716.112-1.441.17-2.168.17-2.18.061-1.6-2.08-1.341-4.48.08-1.112.263-2.215.545-3.293.555-1.666 3.615-.424 4.783.85a2.71 2.71 0 0 1 .669 3.2c-.355.041-.193-2.048-2.648-2.975-.209-.08-1.44-.448-1.38-.259.054-.174-.604 5.134-.628 5.296zm9.971 18.201a13.343 13.343 0 0 1-.094-7.112 155.824 155.824 0 0 1 3.744-17.085c1.012-2.272 4.126-1.973 4.062-1.6.016.195-1.13-.019-2.384.995-.8.64-.696 1.191-.936 2.661-1.826 11.165-3.458 18.456-2.331 21.336a6.05 6.05 0 0 0 4.449 3.727 6.054 6.054 0 0 0 5.543-1.72c2.56-2.392 5.337-12.599 6.24-15.968 1.537-5.794 2.437-7.151.677-8.64-.34-.285-.562-.415-.535-.496.114-.343 2.936.64 2.493 3.467-.866 5.512-3.326 19.385-7.349 23.238a8.207 8.207 0 0 1-7.563 2.347 8.197 8.197 0 0 1-6.016-5.15z"/><path fill="#0F0F0F" d="M233.203 182.784c-.071.16.952-1.171 2.769-8.134 2.946-11.285 2.852-12.418 5.476-12.948 1.494-.302 2.24.29 2.177.399-.041.169-.8-.023-1.92.443-1.966.819-1.029.594-3.704 12.595-.561 2.52-2.147 9.893-4.681 10.357-1.167.214-2.607-1.005-2.359-3.16.215-4.072 3.128-15.2 3.984-18.947.514-2.24-1.953-2.909-1.872-3.151-.083-.441 3.343.16 3.127 3.306-.431 3.323-3.335 19.578-2.997 19.24zm11.679 14.016a3.87 3.87 0 0 1-3.572-3.598 3.847 3.847 0 0 1 .316-1.799c6.452-16.061 5.164-4.185 4.755-18.445a44.013 44.013 0 0 1 .16-6.372c.718-2.629 3.789-2.548 3.76-2.202-.016.202-2.434.229-2.824 2.422-.106.594.281 5.474.331 6.08.862 10.181 1.522 7.2-.64 11.618-3.01 6.117-3.581 7.392-3.666 7.613a1.88 1.88 0 0 0 1.612 2.686c2.004.202 2.107-.91 3.731-4.136a45.58 45.58 0 0 1 6.825-11.214c3.005-3.266 8.668-7.168 8.906-9.095.182-1.462-.885-2.313-.782-2.456.128-.179 1.505.752 1.568 2.492.086 2.457-5.639 6.88-8.436 10.164-6.824 7.989-6.294 16.746-12.044 16.242z"/><path fill="#0F0F0F" d="M254.345 171.921a42.752 42.752 0 0 1 5.65-4.994c2.155-.915 4 .615 3.757.941-.186.245-1.711-.595-3.111.331-.48.312-2.283 2.632-8.097 8.364-.296.342-.115-9.588-.171-9.861-.335-1.661-2.05-2.002-2.026-2.317.034-.458 2.488-.312 3.382 1.875.312 1.874.517 3.763.616 5.661zm3.649 16.605c.515-1.505 6.459-12.715 8.672-16.528 1.516-2.614 5.076-1.104 4.598-.764-.07.16-2.712-.648-3.57 1.302-6.862 15.618-7.985 16.144-7.851 17.562a1.945 1.945 0 0 0 1.828 1.741 1.93 1.93 0 0 0 .892-.169c1.272-.508.616-1.251 9.263-16.601a3.348 3.348 0 0 0-.562-3.84c.086-.16 1.182.272 1.69 1.523.712 1.76-.237 3.2-1.44 5.883-.434.971-6.004 13.05-6.684 13.869a4.03 4.03 0 0 1-6.819-1.25 4.026 4.026 0 0 1-.017-2.728zm-5.354 8.885a4.497 4.497 0 0 1 3.232-4.24 4.308 4.308 0 0 1 3.522.512 4.292 4.292 0 0 1 1.918 2.997c.04.664-.136 1.003-.257.997-.296.033-.367-1.41-1.88-2.418a2.868 2.868 0 0 0-3.349-.027 2.877 2.877 0 0 0-1.093 3.166 2.882 2.882 0 0 0 1.504 1.762c2.823 1.317 4.656-2.482 4.818-2.483.248 0 .469 1.12-.271 2.177-3.07 4.419-8.177 1.746-8.144-2.443z"/><path fill="#fff" d="M39.273 229.404s-6.456-5.648-2.987-12.507c3.469-6.859 11.217-9.683 14.445-14.122 3.227-4.438 11.782-2.261 12.588 1.856.807 4.117-2.42 12.427-2.42 12.427s7.262 2.26 8.232 6.86c.97 4.6-4.279 16.219-14.688 17.995-10.41 1.776-12.992.16-12.992.16s-6.616-5.325-2.178-12.669z"/><path fill="#0F0F0F" d="M65.28 216.565c-3.85-1.954-2.415 1.6-.628-5.092 2.837-11.108-8.214-17.088-14.386-11.438-2.582 2.296-3.566 5.15-9.475 9.715-2.197 1.701-4.992 3.587-6.292 6.687a11.508 11.508 0 0 0 2.644 12.659c-1.93 3.072-1.776 8.184 1.866 12.68a44.886 44.886 0 0 1 3.057 3.909l3.313-2.061c-1.965-3.154-4.496-4.779-5.313-8.09-.716-2.797.047-5.205 2.72-6.201a25.387 25.387 0 0 0 5.052-1.989c7.088-3.951 13.718-11.52 17.937-5.189 2.618 3.832 1.98 8.032-.784 11.59-5.08 6.437-14.89 8.226-14.798 8.952.072.653 6.08.504 12.078-2.84 11.915-6.337 10.455-19.512 3.01-23.292zm-21.338 8.299a13.5 13.5 0 0 0-4.973 2.205 8.805 8.805 0 0 1-1.253-9.181c1.6-3.535 6.371-4.514 12.32-11.65 1.851-2.219 2.994-4.342 5.664-4.571 4.298-.307 8.838 4.96 4.082 14.378-5.792 1.339-11.717 7.494-15.84 8.819z"/><path fill="#FFC5F6" d="M186.708 248.64c-7.158 2.768-17.314 2.08-21.251 1.07a24.884 24.884 0 0 0-6.08-1.331c-3.237-.987-.456 7.443-5.466 18.373-1.333 2.907-1.333 4.336 1.613 5.524 31.392 12.685 61.47-14.72 58.184-32.98-1.394-7.749-5.093-16.117-8.363-9.549-4.034 8.11-10.194 15.632-18.637 18.893z"/><path fill="#fff" d="M114.079 198.901c2.526 3.68 1.722 10.289 9.616 16 6.602 4.776 3.248 2.461 6.4 5.801 3.626 3.84 10.4 4.509 12.416 9.392a11.02 11.02 0 0 0 1.318 3.06c.8.96 2.676 1.012 3.874 1.369 7.754 2.311 10.424 10.317 9.979 17.877-.16 2.656.203 5.389-.64 7.912a39.113 39.113 0 0 1-5.497 11.342c-6.812 9.013-17.173 8.973-21.58 2.941-1.003-1.371-1.28-2.048-3.184-2.47-2.497-.551-5.211-.103-7.561-1.12-2.962-1.28-4.563-4.515-7.2-6.373-4.853-3.416-12.075-1.531-20.16-10.675-4.96-5.618-3.877-10.635-.989-12.613a8.28 8.28 0 0 0 2.136-1.526c1.134-1.503.064-3.6-.109-5.476a7.52 7.52 0 0 1 4.32-6.868c4.8-2.572 10.263-1.2 9.023-2.948-13.323-18.728 2.036-34.081 7.838-25.625z"/><path fill="#0F0F0F" d="M214.344 244.034c-.949-.336-4.613 14.027-19.52 23.277-11.351 7.04-28.611 9.001-40.64 2.694a34.898 34.898 0 0 0 5.293-19.741 35.194 35.194 0 0 0 41.76-11.04c3.408-4.536 5.513-10.595 4.75-10.889-.96-.373-4.445 9.998-16.282 16.593a35.082 35.082 0 0 1-30.665 1.312c-1.33-7.265-5.57-12.904-13.12-13.181a17.727 17.727 0 0 0-3.799-6.257 28.986 28.986 0 0 0-6.494-3.85 86.565 86.565 0 0 1-13.155-11.878c-6.111-6.749-3.242-11.491-7.765-15.144-7.68-6.21-20.362 4-14.386 20.112a45.599 45.599 0 0 0 3.93 7.859c-8.384-1.134-14.656 3.616-12.133 13.81-5.853 1.513-7.325 9.608-3.905 15.06 3.93 6.269 11.875 9.6 19.345 11.242a35.857 35.857 0 0 0 13.747 9.456 17.897 17.897 0 0 0 7.548 1.067 13.47 13.47 0 0 0 14.744 4.199 19.564 19.564 0 0 0 8.516-5.952c20 12.027 53.957 1.563 61.621-24.621.752-2.573.84-4.066.61-4.128zm-100.57 20.993c6.133.677 10.847.263 10.88-.358.077-1.179-12.217-1.37-22.265-5.83-16.03-7.116-13.156-16.738-8.99-17.693 2.609-.597 5.393.865 10.561 2.968 6.4 2.603 10.294 4.373 10.579 3.904.605-.994-13.253-9.085-17.778-10.213a14.69 14.69 0 0 0-1.097-.222 13.922 13.922 0 0 1-.458-4.48c.573-6.01 6.799-6.298 12.335-4.706 7.36 2.115 14.72 8.466 15.411 7.621.494-.607-5.912-7.915-13.909-10.896-3.954-6.824-8.8-15.224-5.075-22.97 1.533-3.2 4.265-4.533 6.753-4.009 5.248 1.102 1.589 7.312 9.396 15.152a71.679 71.679 0 0 0 6.283 5.619c-4.095-1.664-7.36-2.848-7.402-2.783-.64 1.044 14.347 8.503 17.378 10.202a11.16 11.16 0 0 1 6.003 6.586c9.797 24.841-7.384 48.75-28.605 32.108zm35.925 5.575c-5.56 6.72-13.494 7.096-17.92 3.461 7.469-1.861 13.662-8.503 15.866-17.14a44.68 44.68 0 0 0-.84-21.236c13.355 2.873 10.073 26.248 2.894 34.915z"/></svg>