<svg xmlns="http://www.w3.org/2000/svg" width="320" height="320" fill="none"><path fill="#fff" d="M279.345 226.08c1.488 4.584 5.6 21.06 5.134 29.471-.32 5.968-2.585 7.829-2.496 8.734.09.906 2.989 3.36 4.551 4.931 7.105 7.156 7.726 15.832 4.046 21.44-4 6.08-16.464 11.29-23.95 12.466-7.143 1.12-29.148 7.403-37.864-5.237-1.732-2.512-.996-5.534.056-14.366.297-2.509-.268-3.021-1.89-3.808-14.136-6.859-12.03-18.141-14.28-26.704-1.87-7.119-1.838-7.184-2.24-7.776-3.294-4.776-24.16-14.05-23.165-23.696.531-5.12 3.821-7.387 4.032-8.096.2-.677-12.32-15.04 8.493-18.315-1.03-5.175-7.613-9.82 5.066-17.311 3.947-2.331 9.6-1.497 14.176-1.171 6.625.48 12.96 2.789 19.2 5.083 6.841 2.519 9.401 3.613 18.848 10.986 10.137 7.929 18.102 20.502 22.283 33.369z"/><path fill="#0F0F0F" d="M226.39 268.035c-5.731-5.395-7.102-12.394-6.24-12.64.8-.227 2.837 5.574 8.16 10.595 5.323 5.021 11.247 6.704 11.069 7.512-.168.784-7.029.143-12.989-5.467z"/><path fill="#0F0F0F" d="M283.339 263.907c10.135-19.061-5.013-58.147-27.381-74.951-12.531-9.347-43.128-19.638-55.36-11.052a11.551 11.551 0 0 0-4.888 13.139c1.336 3.941 2.532 2.453-.768 3.313-9.075 2.356-12.622 11.909-5.664 18.807-4.664 3.253-4.246 9.894-1.699 14.953 4.431 8.96 21.522 15.752 22.213 19.866 2.054 13.459 3.605 27.917 17.794 33.677-1.421 8.693-2.959 16.411 4.278 21.073 9.946 6.549 24.63 5.272 36.269 2.004 27.766-7.664 36.393-22.167 15.206-40.829zm-16.261 37.043c-10.476 2.946-24.339 4.515-33.379-1.147-5.31-3.2-4.51-9.17-3.633-17.28 4.867 1.398 11.896 1.571 11.896.835.009-.517-5.143-.68-10.8-2.81-14.56-5.35-15.52-18.628-17.565-33.18-1.13-7.055-18.25-12.508-22.626-20.951-2.013-3.91-2.72-8.817 1.232-11.008a25.58 25.58 0 0 0 8.32 2.829l.583-2.461c-5.01-1.461-9.959-3.512-11.533-8.515-1.431-4.245 2.07-8.064 6.349-9.12 9.36-2.342 28.912 6.56 39.99 10.36a36.593 36.593 0 0 0-2.458 6.08l3.226.978c3.52-11.653 10.213-17.49 9.418-18.333-.512-.568-5.309 3.04-8.932 9.029-8.14-3.645-16.14-7.546-24.836-10.12-3.821-1.096-16.556-1.879-12.72-11.079 5.014-12.086 31.768-4.467 43.569.899 30.49 14.037 45.567 57.92 37.695 75.621-4.32 9.786-17.562 16.823-27.882 19.767-4.826 1.356-7.642 1.6-7.616 1.92.032 1.76 26.266-1.94 36.587-17.077 17.898 17.897 9.635 27.68-14.885 34.763z"/><path fill="#FFC5F6" d="M74.914 65.224c-.835-8.069 2.922-16.744 9.974-20.744 9.362-5.315 25.676-3.19 75.232-9.858 19.266-2.592 26.53-4.832 35.658-5.368 10.683-.627 13.046 2.571 16.747 4.931 5.023 3.2 7.122 11.872 7.978 17.773l20.427 192.506s-3.539 9.217-7.851 11.584c-4.312 2.366-115.96 16.048-115.96 16.048s-15.066 1.998-18.781-9.711c-2.747-8.67-1.98 11.901-23.424-197.161z"/><path fill="#fff" d="M99.969 74.504c-2.08-7.058 1.158-13.703 6.701-15.901 4.916-1.949 11.865-2.42 85.528-11.056 0 0 9.856-1.451 12.31 3.752 3.68 7.803 2.547 4.32 21.784 180.461.656 6.001-2.35 11.987-8.73 13.4-.337.075 3.256-.375-87.496 10.577 0 0-6.62-.019-8.56-4-3.844-7.897-.718 12.167-21.537-177.233z"/><path fill="#0F0F0F" d="m242.24 237.841-20.96-191.42c-1.253-11.436-10.911-19.84-21.722-18.544L90.772 40.968c-10.697 1.28-18.376 11.68-17.12 23.181l20.96 191.421c1.154 10.541 9.519 18.675 19.52 18.675 1.615 0-5.449.8 110.984-13.224 10.701-1.288 18.381-11.688 17.124-23.181zM95.884 43.751C206.798 30.4 200.353 31.11 201.75 31.11c8.392 0 15.227 6.943 16.182 15.67l20.608 188.24c-.969 8.384-7.102 15.268-15.18 16.241l-99.431 11.967c-9.697 1.163-18.161-6.516-19.269-16.64L84.624 63.572a18.88 18.88 0 0 1 11.26-19.824v.002zM224.718 257.67l-108.787 13.098c-9.021 1.085-16.931-6.08-17.97-15.563L77.004 63.784c-1.017-9.303 4.83-17.74 13.18-19.314a21.678 21.678 0 0 0-7.794 19.347l20.037 183.024c1.245 11.37 10.838 19.943 21.769 18.624l99.432-11.966a19.556 19.556 0 0 0 9.177-3.79 19.56 19.56 0 0 0 6.131-7.81c-.677 8.107-6.495 14.846-14.218 15.776v-.005z"/><path fill="#0F0F0F" d="M213.142 101.656c-5.179-47.22-4.8-44.496-5.358-46.423a12.386 12.386 0 0 0-11.04-9.22c-1.46-.036 4.604-.449-87.967 10.471-6.381.752-11.281 7.412-10.26 15.183 0 0 18.559 168.929 19.116 173.569a13.231 13.231 0 0 0 8.752 11.048c2.282.569 4.665.595 6.959.079.16-.018 83.68-10.709 83.625-11.112-.057-.463-84.64 9.344-87.053 9.44-5.353.205-9.572-4.571-10.156-9.738a531708.947 531708.947 0 0 1-19.015-173.531c-.877-6.752 3.264-12.112 8.296-12.707 93.323-11.051 87.967-11.331 91.541-9.341a11.302 11.302 0 0 1 5.494 8.603c.05.371-.608-6.326 19.696 174.019a12.089 12.089 0 0 1-6.009 12.212c-1.667.824-4.075 1.241-2.02 1.019a10.775 10.775 0 0 0 8.161-6.965c1.484-3.651 2.705 4.406-12.762-136.608v.002z"/><path fill="#0F0F0F" d="M198.523 67.139a13.978 13.978 0 0 0-6.56-8.35c-3.904-2.053-1.079-1.826-70.109 6.742-4.952.616-8.533 5.032-9.542 9.997a19.89 19.89 0 0 0-.098 6.997c12.87 117.454 12.016 110.432 12.826 112.94 2.2 6.81 7.502 9.834 11.83 9.381 12.787-1.341 61.144-8.139 62.547-8.384 13.631-2.366-40.677 4.229-62.72 6.32-3.446.32-7.753-2.187-9.584-7.968-.699-2.208.346 5.815-12.669-112.536a17.995 17.995 0 0 1 .061-6.283c.8-3.96 3.584-7.722 7.616-8.234 68.448-8.675 64.867-7.944 66.029-7.82 3.2.34 6.642 2.908 8.227 7.873.651 2.039-.358-4.982 13.381 114.24.72 6.24-2.302 11.397-6.206 13.168-1.231.557-2.916.885-1.448.763 4.302-.107 9.609-5.98 8.905-14.048-.305-3.515-11.237-110.89-12.486-114.798z"/><path fill="#92FCFF" d="M130.303 229.812c0-19.649 3.985-12.555 69.661-21.86a10.02 10.02 0 0 1 5.308.203c12.495 5.289 12 26.409.3 29.744-3.16.901 5.584-.901-64.565 8.16 0 0-7.023 1.713-8.669-3.551a40.62 40.62 0 0 1-2.035-12.696z"/><path fill="#fff" d="M149.84 235.94c-.283-.623-.688-1.186-.936-1.823-.383-.981-.373-2.08-.752-3.064a20.555 20.555 0 0 0-1.36-2.355c-1.074-1.965-2.843-9.086-5.482-8.829-2.421.235-3.2 6.735-3.101 6.547-.062.16-2.4 10.191-1.875 12.136.632 2.3 3.239 2.447 4.173.053 1.539-3.947-1.392-2.926 3.531-3.91.632-.127.821.054.912.712.912 6.523 6.375 3.793 4.89.533zm-6.49-5.28c-.275 1.016-2.483 1.8-2.437-.81-.004-1.192.19-2.376.575-3.504a.26.26 0 0 1 .112-.09c.044-.02.093-.027.141-.02a.263.263 0 0 1 .214.174c.445 1.227 1.749 2.936 1.395 4.25z"/><path fill="#fff" d="M151.425 236.96a4.918 4.918 0 0 0 4.521 1.524 4.897 4.897 0 0 0 3.68-3.04c1.578-3.46-1.613-5.404-3.081-3.964-.925.907-.716 3.28-1.749 2.451-2.623-2.104-1.895-9.944-1.072-10.229.333-.115 2.421.826 3.374-.739.954-1.565-.718-4.106-3.393-3.954-6.538.362-6.776 12.392-2.28 17.951z"/><path fill="#fff" d="M163.529 223.431c-1.12 7.38 1.97 10.734 2.578 8.619.062-.215 0-2.517 2.107-2.49a2.811 2.811 0 0 1 2.488 2.656c.019.442-.066.882-.248 1.285a5.352 5.352 0 0 1-2.02 2.558 5.353 5.353 0 0 1-3.131.908 8.637 8.637 0 0 1-3.323-1.327c-2.377-2.08-4.785-12.374-1.454-16.267 3.555-4.16 8.653.034 6.705 2.342-1.849 2.197-3.312-.848-3.702 1.716zm6.28-2.703c.616 6.56 1.094 6.795 1.11 8.371a4.992 4.992 0 0 0 .596 3.128c.422 1.11.692 2.854 2.004 3.49a8.338 8.338 0 0 0 5.703-.685c.782-.376.973-.699.909-1.735-.082-1.34-.354-2.089-1.744-2.332-2.914-.508-2.468 1.54-3.14-2.116-.201-1.102 3.311-.296 3.504-2.929.106-1.431-1.108-2.81-3.868-2.338-.271.047-.349-.019-.396-.257-.268-1.383-.369-1.698-.297-1.872.35-.828 4.632-.05 2.453-3.943-.89-1.587-2.544-1.182-4.54-.752a2.485 2.485 0 0 0-2.131.887 2.487 2.487 0 0 0-.494 2.254c.045.314.632 3.118.331.829zm18.351-3.141c-2.755-4.307-7.963-2.838-9.045-.277-.4.947-.081 2.509.346 4.999 1.894 11.067 2.33 11.716 3.342 12.211a1.852 1.852 0 0 0 2.447-.987 3.79 3.79 0 0 0-.034-1.991c-1.398-7.445.715-2.369 3.499-6.109 1.7-2.294 1.004-5.396-.555-7.846zm-3.344 5.141c-1.896 2.819-2.651-4.307-1.48-3.493 1.528-.555 2.904 1.366 1.472 3.493h.008z"/><path fill="#fff" d="M191.84 218.24c1.152 11.096 1.2 12 1.574 13.504.758 3.04 3.214 2.259 3.795.48.616-1.883-.563-2.287-1.009-13.803-.063-1.616 2.542-.042 3.387-1.668.185-.453.258-.945.212-1.433a3.04 3.04 0 0 0-.473-1.37c-1.259-1.382-9.037-.179-10.043.448-1.523.951-1.562 3.746.664 3.858.173.001 1.872-.189 1.893-.016z"/><path fill="#0F0F0F" d="M132.409 217.365a14.121 14.121 0 0 0-3.458 9.905c-.283 25.81 9.515 19.853 22.739 18.24 47.2-5.76 52.36-6.926 52.32-7.265-.065-.557-28.065 1.984-52.588 5.035-8.18 1.018-14.828 3.704-17.64-.57-2.813-4.273-2.925-15.04-2.298-18.497a9.12 9.12 0 0 1 7.733-7.919l62.821-7.36c11.488-.32 16.289 21.842 5.736 27.759-2.154 1.208-5.559 1.811-2.661 1.6 15.728-1.175 12.725-33.267-4.507-31.475-67.192 6.971-64.632 6.86-68.197 10.547z"/><path fill="#0F0F0F" d="M141.643 236.069a18.63 18.63 0 0 0-.275 2.156 2.969 2.969 0 0 1-5.648 1.248 8.312 8.312 0 0 1 .211-4.504 79.435 79.435 0 0 1 3.28-13.59c.555-1.368 2.064-1.566 2.091-1.397.01.058-.205.122-.539.331-.922.581-1.315 1.327-2.373 7.773-.025.16-1.483 9.291-1.501 9.725-.081 1.933 1.706 2.418 2.56 1.28.378-.499.377-.866.586-2.61.194-1.616.181-1.616.363-1.622a15.375 15.375 0 0 1 2.413-.709c2.829-.488 2.4-.142 2.581.24 1.306 3.45 1.261 3.512 1.661 3.925a1.373 1.373 0 0 0 1.356.311 1.37 1.37 0 0 0 .927-1.037c.331-1.132-5.354-14.276-6.195-16.38-.517-1.296-1.719-1.084-1.732-1.246-.012-.162 1.498-.451 2.273.984 1.091 2.021 7.679 14.805 7.047 17.042-.732 2.625-4.404 3.35-5.688-.192-.148-.41-.799-2.114-.87-2.274a9.486 9.486 0 0 0-2.528.546z"/><path fill="#0F0F0F" d="M160.783 232.197a2.903 2.903 0 0 0-3.664-1.709 2.903 2.903 0 0 0-1.224.822c-.443.501-.7 1.14-.726 1.808-.186 2.024-2.504-5.577-1.338-8.857a2.689 2.689 0 0 0 3.346-4.064 3.687 3.687 0 0 0-4.48-.984 5.671 5.671 0 0 1 2.776.548c3.144 1.752.331 4.904-1.311 3.3-2.72-2.656-2.755 13.547 1.527 11.609.305-.15.563-.383.742-.673.18-.289.275-.623.274-.964a1.372 1.372 0 0 1 .625-.925 1.392 1.392 0 0 1 1.105-.163 1.387 1.387 0 0 1 .927 1.821 4.416 4.416 0 0 1-3.903 3.929 4.416 4.416 0 0 1-1.965-.225c-4.396-1.793-5.735-13.573-2.832-16.688 1.003-1.134 1.904-1.387 1.846-1.512 0-.073-1.005-.037-2.278 1.093-3.695 3.158-2.767 16.187 2.72 18.478 5.187 2.053 8.987-3.824 7.833-6.644z"/><path fill="#0F0F0F" d="M171.285 232.201c-.663 7.2-12.781 9.981-12.906-6.251-.053-7.062 4.021-8.12 4.042-7.889.259.451-3.352.782-2.949 7.857.824 14.453 9.802 11.402 10.275 6.119.311-1.549-2.414-2.512-2.747-.077a1.611 1.611 0 0 1-.916 1.321 1.602 1.602 0 0 1-1.601-.137c-1.992-1.498-2.822-10.432-.64-11.568.464-.242.293-.267.672.107a1.636 1.636 0 0 0 1.664.288c.279-.107.52-.288.703-.525.182-.235.297-.515.331-.811.28-1.165-1.293-2.88-3.707-2.72-.509.034-.788.099-.81.035a3.749 3.749 0 0 1 4.682.682 2.69 2.69 0 0 1-.024 3.664 2.696 2.696 0 0 1-3.656.248c1.105.176.416-.242.26 1.481-.308 3.439 1.04 8.935 1.551 7.831a2.887 2.887 0 0 1 .883-2.165 2.9 2.9 0 0 1 3.346-.497 2.907 2.907 0 0 1 1.475 1.815c.106.388.131.794.072 1.192z"/><path fill="#0F0F0F" d="M178.4 236.23c-5.395.783-6.997 1.301-7.783-4.931-1.355-10.744-2.734-13.6-.132-14.507.64-.303 3.409-.362 1.68 0-1.205.445-1.12.337-1.44.509-1.624.886-.741 3.088-.356 5.07 1.994 10.282 1.6 12.64 3.741 12.84 1.733.005 3.45-.336 5.05-1.003a1.518 1.518 0 0 0-1.168-2.666c-.17.019-2.667.498-2.827.528-.036 0-.023-.073-.036-.107l-.718-4.381c1.467-.177 2.35-.16 2.984-.64a1.67 1.67 0 0 0-.64-2.757c-.919.033-1.835.122-2.742.268l-.6-3.914c4.763.344 3.376-3.547 2.001-3.773-.272-.083-4.24.032-1.965-.385a6.435 6.435 0 0 1 2.098-.232 2.71 2.71 0 0 1 2.008 2.107 2.72 2.72 0 0 1-1.048 2.717c-1.909 1.34-1.96-.536-1.488 1.963.064.235 1.05-.125 1.92-.063 2.693.415 3.958 5.293-.768 5.991h-.024c.01.03.213 1.205.219 1.235.04.232-.056.19.37.112a4.237 4.237 0 0 1 2.483-.059c3.006.965 2.502 5.595-.819 6.078z"/><path fill="#0F0F0F" d="M186.112 233.846a2.89 2.89 0 0 1-2.755 1.869 2.88 2.88 0 0 1-2.677-1.978c-.683-3.84-1.893-13.07-2.117-14.667a3.116 3.116 0 0 1 .747-2.947c.85-.8 3.04-1.362 3.04-1.062.047.16-.827.214-1.907 1.092-1.635 1.77-1.467-1.12 1.69 17.159.332 1.28 3.03 1.363 2.585-1.183-.091-.52-.64-4.089-.837-5.321 2.88-.349 5.039-1.12 5.12-4.408.08-3.36-1.968-6.643-5.169-7.139-.912-.141-1.44-.104-1.453-.205-.016-.075.491-.293 1.496-.309 3.029-.051 6.342 3.018 6.424 7.666a5.482 5.482 0 0 1-4.682 5.678c.599 3.704.912 4.576.495 5.755z"/><path fill="#0F0F0F" d="M196.688 234.338a2.875 2.875 0 0 1-3.956-.953 2.89 2.89 0 0 1-.425-1.426c-1.718-17.788-.105-11.584-3.28-13.416a2.702 2.702 0 0 1-.8-3.831c.717-1.171 1.591-1.051 2.677-1.12 3.04-.179 3.15.031.072.599-1.064.195-1.566.107-2.002.952a1.69 1.69 0 0 0 1.33 2.627c2.72.16 1.739-3.447 3.52 14.017a1.379 1.379 0 0 0 2.312 1.013c.264-.245.421-.583.438-.942-1.374-19.407-1.984-13.626 1.623-14.746 1.533-.48 1.393-3.04 0-3.304a20.093 20.093 0 0 0-2.597-.024c-6.198.018 1.968-.92 2.757-.825a2.79 2.79 0 0 1 1.602 1.223c.364.593.494 1.3.364 1.983a2.795 2.795 0 0 1-2.998 2.27c-.191.005-.381.02-.57.045 1.45 13.627 2.019 14.575-.067 15.858zm-12.752-11.343c1.059-.23 1.395-2.515 1.395-2.515.398-.21.894 2.706-1.106 3.475-1.92.738-2.304-3.84-2.012-4.449a1.659 1.659 0 0 1 3.089.342c.098.31.063.496 0 .517-.144.091-.436-.65-1.201-.891-.384-.12-1.069.126-.972.681.154.885.41 2.853.807 2.84zm-41.746 9.075c-2.026.388-1.717-1.089-1.621-2.097.061-.648.545-3.861.995-3.767.213.047.069 1.319-.022 4.836.361.052 1.315-.287 1.153-.304.274-.332-.397-2.24-.531-2.636-1.642-4.817 2.181 1.344 1.48 3.117-.192.488-.941.752-1.454.851z"/><path fill="#fff" d="M203.477 31.78c-3.346 4.063-10.263 5.383-7.911 6.24 4.791 1.75 8.346.938 12.5 8.778a53.763 53.763 0 0 0 4.137 7.459 25.83 25.83 0 0 1 9.821-17.235 13.077 13.077 0 0 1 4.48-2.287c2.282-2.198-11.234-.43-15.538-13.843-2.83-8.814-2.489-.222-2.832 1.306a23.03 23.03 0 0 1-4.657 9.582z"/><path fill="#0F0F0F" d="M226.666 33.091c-3.709-1.413-8.448-2.349-11.485-6.011-4.96-5.971-5.312-14.354-6.434-14.206-1.798.07.698 14.867-9.368 21.36-3.579 2.459-7.299 3.062-7.18 3.718-.01.64 3.584.75 7.441 2.368 11.507 4.454 10.891 18.55 12.64 18.269 1.261-.293.575-13.293 9.863-20.38 5.193-3.904 9.344-3.312 4.523-5.118zm-14.738 18.87a22.72 22.72 0 0 0-4.705-8.659c-5.188-5.857-11.17-5.419-9.786-5.859 7.309-3.241 10.88-9.63 11.877-17.187 2.536 8.273 7.934 12.84 16.265 14.094-7.107 1.917-12.286 10.33-13.651 17.611z"/><path fill="#fff" d="M117.617 301.686c2.08 1.25 4.011 6.666 10.938 8.973 5.934 1.978 10.368.013 14.187-3.614a49.876 49.876 0 0 0 13.968-24.013c1.902-7.693 7.909-17.299-.629-26.4-5.424-5.779-12-4.782-17.61-5.774-6.478-1.146-.278-4.095-12.737-13.543a203.254 203.254 0 0 0-16.935-11.379c-3.84-3.2-4.816-2.601-15.883-11.176-16.173-12.529-20.336-17.704-29.59-15.44-2.842.696-4.903 1.637-5.744 6.466a22.52 22.52 0 0 0 2.531 14.764c-3.128-1.505-5.584-4.257-8.848-5.44-5.349-1.92-11.813 1.391-13.891 6.684a13.747 13.747 0 0 0 4.499 15.27c-13.458-5.075-18.218 5.09-13.358 14.346 4.836 9.212 16.03 14.142 27.958 20.649-2.138 2.975-6.202 4.072-8.365 7.028-1.681 2.299-3.552 9.339-2.37 12.996 1.76 5.415 8.404 7.986 13.618 7.968 3.738-.013 7.424-.856 11.155-1.093 11.988-.758 23.557 4.744 35.653 4.49 9.882-.202 8.978-3.25 11.453-1.762z"/><path fill="#0F0F0F" d="M115.909 257.92c-5.963-10.786-3.477-16.64-4.738-16.853-1.726-.381-4.094 17.227 11.735 29.014a27.755 27.755 0 0 0-10.88-1.164c-8.791.865-13.8 6.437-13.325 6.99.64.778 5.061-3.339 13.6-4.195 7.762-.749 14.16 1.32 14.448.39.579-.768-5.963-5.584-10.84-14.182z"/><path fill="#0F0F0F" d="M161.641 265.053c-1.79-16.544-20.28-14.811-25.43-15.68-5.023-14.813-16.212-17.803-39.116-33.912-11.373-8.101-18.408-16.517-26.865-18.387-9.892-2.256-17.612 5.158-13.552 17.411.71 2.024.827.562-3.84-1.014-11.291-3.727-22.096 8.038-16.995 18.4.939 1.92 1.366 2.048 1.139 2.013-12.32-1.639-19.247 16.047-.044 29.144 21.772 14.193 18.572 4.865 11.27 13.475-9.063 10.352-4.212 23.725 8.267 25.254a44.74 44.74 0 0 0 10.153-.331c16.624-2.749 33.792 8.859 50.355 1.28 21.511 32.334 47.127-15.458 44.658-37.653zm-123.5-38.606a9.991 9.991 0 0 1 4.198-7.68c11.188-8.136 15.228 7.256 41.44 17.12a88.803 88.803 0 0 0-10.205 19.64c-9.728-5.898-19.112-13.112-29.207-18.696-2.465-1.364-6.492-5.898-6.225-10.384zm119.446 46.003c-1.693 9.866-5.416 20.493-11.439 28.434-9.32 12.393-17.677 12.48-26.798.587 11.254-6.72 14.835-20.554 13.933-20.887-1.004-.401-4.749 11.053-14.88 17.204-15.541 9.384-32.409-2.792-52.19-.268-4.32.466-9.449 1.106-13.254-.809-11.61-5.816-5.07-26.344 21.931-25.853 6.847.077 10.903 1.72 11.15 1.133.898-1.378-14.854-7.68-29.266-1.487-8.21-4.057-22.39-11.406-26.354-19.629-3.758-7.579.026-13.919 6.064-13.119 5.855.758 23.928 13.968 36.245 20.28-.406 1.288-2.215 7.462-1.426 7.705.946.288 4.59-9.859 11.124-21.309 6.492-11.464 12.972-20.104 12.2-20.757-.46-.388-4.52 3.447-9.245 9.951a112.344 112.344 0 0 1-13.63-7.456c-6.092-3.922-9.36-5.92-11.628-12.838-1.533-4.77-1.425-9.44 2.987-11.92 5.55-2.677 11.703 1.468 16.607 5.238 10.16 7.955 3.813 4.979 37.368 26.117 6.169 3.886 11.2 6.984 15.2 14.349 6.694 12.209 2.187 26.427 3.101 26.655.441.112 4.252-10.591 1.622-21.649 9.699 1.781 23.725 1.266 20.578 20.328z"/><path fill="#fff" d="M112.319 121.6c2.08 14.978 2.04 15.84 3.005 17.6 2.9 5.315 14.057 6.49 19.931 3.707a11.398 11.398 0 0 0 6.781-9.966 18.288 18.288 0 0 0-1.167-5.335c-12-36.704-11.496-29.17-9.334-37.352a48.455 48.455 0 0 0 7.609-8.347 2.638 2.638 0 0 0 .615-2.4c-.915-7.897-1.76-3.134 5.6-10.665 1.177-1.207.993-2.27-.352-3.242-2.011-1.454-2.437-.96-3.063-4.48a18.899 18.899 0 0 0-1.377-4.456 103.61 103.61 0 0 0-11.456 5.216c-.33-1.483 1.261-3.866 1.829-5.226 3.536-8.448 6.27-5.92-3.253-10.116a231.982 231.982 0 0 1-8.563 18.72 21.192 21.192 0 0 1-1.28-7.863c.3-1.6.732-1.024 3.2-8.843.257-.816.27-.554-6.704-1.987a42.054 42.054 0 0 0-3.604 21.515c-1.814-2.789-5.336-3.573-6.592-7.912-.42-1.454-.705-1.942-2.323-1.696-3.926.6-3.99.562-4.235.771-1.12.96 2.451 8.512 3.435 10.216 8.447 14.661 4.023-.312 11.298 52.141zm69.819 10.291c-1.078-5.245-4.099-5.551-8.96-3.248-.675.32-.771.582-.683 1.232.177 1.326.437 2.64.776 3.934-6.042 2.379-5.92 2.099-5.701 2.944 4.261 16.2 4.16 15.4 3.912 15.802a15.155 15.155 0 0 1-4.296 1.736c-.915.248-1.246.464-1.346 1.505-.16 1.704.064 3.421.66 5.026l1.096 38.706 24.918-2.88c1.674-4.101 3.731 3.768-10.376-64.757z"/><path fill="#fff" d="M154.76 72.376c-.181 1.337-.711 3.019-2.058 3.09-1.017.054-3.102-1.69-3.777 1.17a6.705 6.705 0 0 1-.589 2.071c-5.298.256-2.24-2.56-4.607 6.66 5.232 1.633 2.871.1 2.351 4.682-.061.538 4.149.898 4.592 1.666.377.653.371-.072-3.01 18.266-.814 4.422-.913 6.105 1.6 12.497 8.416 21.44 7.04 21.693 11.667 25.255 1.821 1.401 4.32 2.324 5.034 4.507.373 1.136.378 1.856 1.666 1.901a9.647 9.647 0 0 0 4.249-1.199l-4.48-16.825c1.295-.348 5.664-1.828 6.179-2.584.578-.845-.294-3.645-.894-4.816 8.722-1.624 3.03-.744 6.16-9.341 1.525-4.191 1.541-4.44 1.957-4.719.768-.512 5.382.269 6.275.44 1.867-17.632 3.784-18.788 5.44-33.579.723-6.491-.014-7.718-8.237-12.683-4.27-2.58-5.621-3.069-11.385-3.438-8.191-.524-17.093-.714-18.133 6.979z"/><path fill="#0F0F0F" d="m181.21 108.307-16.745-2.076.521-4.104 2.172.276-.245 1.926 14.566 1.805-.269 2.173zm-11.967.723-.296 2.171 6.539.892.296-2.17-6.539-.893zm21.224-23.567.345-2.005-11.189-1.938-.348 2.005-1.44-.25-.4 2.31-2.527-.414.426-2.456-1.44-.25.365-2.16-24.701-4.407-.295 1.66 13.538 2.413c-.13.743.19.607-1.538.307l-1.166 6.72 1.44.25-.346 2.003 11.191 1.95.347-2.002 1.44.248.384-2.218 2.526.411-.411 2.367 1.44.25-.347 2.004 11.198 1.931.348-2.003 1.44.248 1.164-6.72-1.444-.254zm-40.316 62.201-18.574-51.762c1.12-5.203-.552-2.177 9.413-14.545l-.587-5.736 8-8.058c-5.85-6.312-4.178-3.509-6.989-12.531l-10.375 4.518 5.392-9.936-8.48-5.473c-8.275 16.267-6.747 13.12-8.44 17.04-.443-4.01-.985-1.237 3.668-13.856l-9.28-2.967c-5.191 13.33-4.32 8.496-4.32 21.178-3.623-4.016-2.455-1.954-4.984-9.368l-9.028 1.483c1.964 8.922.21 4.763 8.301 18.69 3.429 8.582 1.219-4 10.765 75.028l5.01-.841 2.332 9.773 7.61-2.335 1.41 5.479 15.68-5.386-1.986-7.499 5.462-2.896zm-43.788-72.435c-7.727-13.183-6.322-9.941-7.51-15.344l3.889-.64c1.941 5.688-.064 2.737 9.563 13.416 0-20.018-.83-14.548 3.2-24.91l4.101 1.31-3.234 8.77 1.538 13.92a224.037 224.037 0 0 1 11.091-23.68l3.802 2.452c-7.597 14.002-5.818 9.666-8.304 19.387 9.513-9.6 6.041-7.177 15.2-11.165l1.238 3.972-15.701 11.603-.75 4.02-5.506-.8-1.779 12.468 2.71.385 1.391-9.75 5.393.784 1.034-5.546 14.632-10.814 2.24 2.416-7.061 7.114.603 5.904c-9.92 12.32-7.976 8.896-9.412 15.57l10.806 30.649-4.365 1.237 1.12 3.716-5.005 1.492 1.512 4.713-4.678 1.559-1.76-3.898-5.878 1.584-1.012-3.52-3.926 1.402c-7.614-61.653-5.675-50.832-9.182-59.776z"/><path fill="#0F0F0F" d="m205.619 193.001-.915-16.426-18.981-57.729-4.549-.735.348-2.332 6.464.528 8.26-51.543-3.36-.725.882-5.102-4.544-.896.698-4.093-24.274-4.227-.853 4.32-4.558-.837-.8 4.458-3.84-.632-2.959 16.868-4.52-.972-.788 4.339-3.469-.8-1.957 9.952 3.568.8-.87 4.045 4.427 1.241-3.968 25.13-3.36 1.323 11.2 30.207-5.501 2.676 2.288 7.706-18.81 6.453 1.965 35.966a3.086 3.086 0 0 0 3.099 2.922c.308 0-1.881.261 33.144-4.128l-.78-12 7.95-.835-8-32.64 4.698-1.376-4.232-17.397 6.116-1.952-1.16-4.968 2.684-.709 1.52 7.539-6.044 2 11.594 47.472 4.624-.397 2.933 12.024 12.909-2.196a2.081 2.081 0 0 0 1.721-2.322zm-27.073-75.819-14.682-1.875.563-4.197-5.472-.771.243-1.748-2.72-.364-.595 4.443 5.322.752c-.552 4.061-1.189 8.995-1.725 13.056l2.786.368.534-4.053 12.627 1.472.496 2.466-4.865 1.28 1.184 5.072-6.138 1.956 4.222 17.348-2.6.761-3.36-13.699-3.529.8-2.911-11.419-3.449.829-5.218-13.676-1.246.492 4.096-25.941-4.293-1.205.899-4.18-3.616-.814.899-4.566 3.508.8.8-4.38 1.83.396-1.498 7.546 6.479 1.224 2.59-14.092 4.237.828.59-3.221 11.68 2.22-.288 2.51 7.28 1.24-.545 2.61 8.541 1.492-3.751 23.409-2.15-.262.528-3.9-24.114-2.902-.561 4.135-3.298-.463-.64 4.511 2.712.381.253-1.8 3.307.462.571-4.187 18.677 2.249-.528 3.895 4.8.587-1.333 8.32-6.477-.536-.652 4.341z"/><path fill="#fff" d="m163.897 81.435-.402 2.319 2.319.402.403-2.318-2.32-.403zm1.917 2.723-.401 2.32 2.319.4.401-2.318-2.319-.402zm14.652.274-.402 2.32 2.321.402.401-2.32-2.32-.4v-.002zm1.92 2.722-.401 2.32 2.319.402.401-2.318-2.319-.404z"/><path fill="#FDFE1F" d="M86.651 227.011c1.933-1.42 15.947-11.652 15.776-11.84 5.725 6.488 4.973 8.939 6.917 7.051.96-.931 5.177-4.64 6.483-4.341 2.538.571 11.926 16.501 17.539 22.592.52.563.557.904-.105 1.45-6.28 5.184-6.541 5.22-6.551 5.852-.013.7 1.298 1.738 4.035 6.684 1.589 2.87-10.992 7.257-16.468 12.998a16.37 16.37 0 0 1-2.437 2.093c-4.296 3.013-6.954-6.029-9.528-6.586-.994-.216-1.359.184-7.957 4.114-.874.521-1.363.553-2.213-.525-3.019-3.821-12.574-16.587-14.488-19.933a.57.57 0 0 1 .091-.8c3.399-3.949 4.864-3.457 5.303-4.603.669-1.742-7.595-6.286-3.131-9.746 2.144-1.662 4.312-2.684 6.734-4.46zm-12.517-92.132c-.275.259-.066-.346-2.927 11.491-.48 2.002 2.119.835 2.63 1.954.11 1.197.07 2.402-.12 3.589 2.788.881 8 1.798 8.64 1.508.516-.232 1.28-3.136 1.404-3.646.616-2.517 3.288 1.76 4.011-1.976 1.534-7.92 2.258-9.85.87-10.186-1.641-.398-1.643 1.056-.985-4.201-8.936-2.383-9.83-2.429-10.272-.117-.52 2.693-1.92.333-3.251 1.584zm34.994-15.395c.086.571-.629.783-2.738 2.125-.281.178-.32.312-.131.597 1.976 3.097 2.133 3.229 2.098 3.621-.092.974-8.423 5.376-9.28 5.819-.397.206-.597.192-.922-.264-3.281-4.627-2.11-4.33-5.069-2.434-.876.562-1.419.595-2.252-.608-.986-1.424-6.818-10.4-6.794-11.4.033-1.291 3.149-1.014 1.897-2.803-1.195-1.712-1.888-2.515-1.903-3.294-.013-.568.465-1.181 1.025-1.084 3.99-1.684 8.211-7.408 10.24-4.872 2.189 2.732 2.319 3 2.602 3.021.208.016.16 0 2.72-1.825a69.933 69.933 0 0 1 8.507 13.401zm9.813-15.411c-4.983 1.571-2.48 2.298-2.266 3.914.16 1.264-1.187.912-1.254 1.552-.02.187-.144-.176 2.587 6.102 1.12 2.573 2.208.307 3.099.832.234.138.237.214 1.45 2.432.379.696 5.2-1.6 5.908-1.968.684-.358.468-.47-.598-2.786 3.062-1.564 2.227-.625.17-4.976-2.463-5.2-1.712-4.737-3.829-4-.298.106-.4.061-.555-.182-1.84-2.875-.602-2.216-4.712-.92zm-60.903 70.872c-.046.32-.115.043 3.464 7.568-4.826 3.888-5.085 4-5.239 4.438-.566 1.628 4.288 8.287 5.6 10.789 1.703 3.245 3.828 10.131 5.969 10.4 2.08.263 6.33-5.416 8.044-2.846 3.048 4.571 4.682 7.857 6.444 6.945.88-.454.48-1.297 3.633-2.993 14.431-7.752 14.543-7.778 14.741-8.367.334-.984-1.093-1.808-3.413-7.321-.222-.53-.16-.755.38-1.071 4.587-2.66 6.012-3.52 5.964-4.75-.043-1.134-11.606-21.626-12.195-22.659-.408-.719-.714-.773-1.344-.48a54.05 54.05 0 0 0-6.208 3.438l-4.31-7.2c-16.581 10.28-21.421 13.352-21.53 14.109z"/><path fill="#0F0F0F" d="M104.662 186.817c-13.376-24.723-12.445-24.912-15.4-23.009 0 0-4.655 2.964-4.682 2.985a47.351 47.351 0 0 1-2.76-5.28c-.96-1.934-2.1-2.203-3.84-.835-.344.264 1.376-.922-20.298 12.72a1.919 1.919 0 0 0-.659 2.507l3.323 6.602c-3.793 2.477-6.164 3.336-5.084 5.409 11.68 22.4 10.779 21.428 11.881 21.722.97.259.843.114 7.84-3.974 4.81 7.934 4.528 7.793 5.461 8.043 1.035.273-.032 1.037 20.534-11.595a1.894 1.894 0 0 0 .688-2.447c-.056-.128-1.376-3.182-3.068-6.451l5.203-3.086a2.492 2.492 0 0 0 .861-3.311zm-11.863-.19 3.397 6.456-14.362 9.099c-4.8-9.13-2.776-8.48-11.04-3.245l-8.235-15.641c.176-.471-.64.16 5.76-3.896 1.635-1.037.135-2.637-2.808-8.231 15.781-9.873 14.117-9.03 14.269-8.702.152.328 0 .035 2.835 5.432 1.141 2.534 2.472 1.28 8.109-2.36l8.256 15.545c-5.603 3.556-7.03 3.932-6.18 5.543zm-33.65-11.488 4.932-3.075 3.168 6.022-5.01 3.176-3.09-6.123zm40.37 25.233L81.05 211.36c-6.27-10.346-3.643-9.708-13.269-4.08l-10.4-20.144 3.944-2.576c8.709 16.548 8.16 15.923 9.006 16.15.778.211.692.08 6.82-3.802 2.742 5.208 3.552 7.983 5.296 6.88l14.321-9.072a93.334 93.334 0 0 1 2.752 5.656zm3.135-12.169c-5.3 3.123-5.253 3.104-5.42 3.232l-2.86-5.44 5.419-3.432c3.038 5.597 3.086 5.509 2.857 5.64h.004z"/><path fill="#0F0F0F" d="M77.738 191.256c-1.228.736-2.606 1.92-3.078.856-.272-.616.069-18.967.075-19.127.046-.985.667-1.379 1.44-.873 3.6 2.369 4.89 2.896 4.856 4.99-.22 13.507.472 11.895-3.293 14.154zm10.232-6.174c-4.668 2.803-4.017 2.915-3.821-5.706.025-1.133.744-1.44 1.492-.942 6.63 4.459 7.103 3.777 2.328 6.648z"/><path fill="#FDFE1F" d="M120.031 204.827c-.139 1.025.047 1.475 1.223 1.748 3.708.864 5.537.055 5.899 1.28.184.628-.442 1.69-.503 5.248-.059 3.48 10.192 2.092 16.229 3.658 2.835.736 4.701.992 5.157-1.986.87-5.683.8-5.801 1.194-6.155.523-.48.809-.286 7.904.8.992-7.104 1.747-14.328 2.516-21.459a19.043 19.043 0 0 1-5.86-.699c.086-1.386 1.251-6.648.105-7.552a2.454 2.454 0 0 0-1.15-.395c-21.197-3.445-19.922-3.314-20.455-3.151-2.945.898.943 7.733-3.75 7.01-7.307-1.123-5.032-3.957-8.509 21.653z"/><path fill="#0F0F0F" d="m155.003 186.227.712-6.128a1.775 1.775 0 0 0-1.506-2.002c-24.115-3.369-22.648-3.36-23.449-2.472-.53.589-.421.722-1.216 6.682-4.911-.714-6.986-1.493-7.477.728-.037.16.184-.701-3.165 22.136-.046.295-.032.596.041.885a2.216 2.216 0 0 0 1.887 1.667l5.178.587a72.146 72.146 0 0 0-.592 5.85 1.77 1.77 0 0 0 .869 1.78c.202.118.426.194.659.225 21.176 2.72 20.049 2.51 20.846 1.908.749-.566.576-.6 2.08-8.219 7.163.768 7.072.917 7.808.362.842-.64.398.421 3.24-21.295.306-2.31-2.443-2.148-5.915-2.694zm-6.442-6.63 4.874.664-.656 5.64-4.973-.711.755-5.593zm-24.131 4.243c4.72.723 7.115 1.774 7.341-1.226 0 0 .689-5.233.693-5.28 1.158.245-1.94-.203 14.427 2.045-1.162 8.605-2.208 7.075 6.136 8.267.16.242.28-1.097-1.92 15.171-8.64-1.235-7.056-2.428-8.25 6.418l-14.685-2.099c1.184-8.765 2.373-7.258-6.014-8.456 1.886-12.394 1.802-14.917 2.272-14.84zm2.181 22.293c-.16-.034-.33-.047-5.487-.621l.784-5.17 5.381.77-.678 5.021zm29.592 2.145c-9.709-1.04-7.815-2.473-9.861 7.858l-18.662-2.149c.057-.84.217-2.944.528-5.154 15.972 2.284 14.784 2.124 14.947 2.124 1.6 0 1.376-1.485 2.158-7.274l5.901.843c1.885.277 1.488-.873 3.539-16.065l3.888.611-2.438 19.206z"/><path fill="#0F0F0F" d="M142.62 184.905c.912 2.045.88 1.891.859 2.027-.447 2.97-.437 3.613-.599 3.587-3.747-.604-3.52-.491-3.496-.651a12.55 12.55 0 0 0 .215-1.76c-2.53-.393-2.322-.416-2.341-.28-.451 3.011-.64 3.578-.48 3.603 4.736.748 4.616.655 4.688.815.92 2.057.885 1.904.866 2.033a69.778 69.778 0 0 1-1.141 7.332c-1.021 1.147-1.311 1.616-1.471 1.59-6.921-1.101-6.99-1.018-7.062-1.178-.933-2.08-.893-1.92-.875-2.043.433-2.88.435-3.625.597-3.6 3.665.591 3.52.48 3.499.648a11.843 11.843 0 0 0-.211 1.76c2.472.386 2.273.408 2.294.277.461-3.086.64-3.582.48-3.608-4.613-.726-4.61-.64-4.682-.8-.921-2.061-.889-1.912-.868-2.046a70.676 70.676 0 0 1 1.131-7.263 13.8 13.8 0 0 0 1.424-1.648l.008-.006a.011.011 0 0 1 .008-.003h.009c7.6 1.204 7.076 1.054 7.148 1.214z"/><path fill="#FDFE1F" d="M108.773 168.32c.349-5.72.439-5.739.16-5.986-.201-.176-.353-.134-4.76-.579a3.091 3.091 0 0 1-1.313-.701c4.094-27.31 3.336-23.952 3.83-24.505 1.165-1.306 4.029-.106 5.525-.055 1.496.051.969-1.565.979-2.449.021-1.599.182-3.191.48-4.76.395-.448-.448-.41 18.488 2.099 2.08.275 2.384 1.165 1.005 8.437 1.513.377 3.03.737 4.55 1.081-1.785 17.768-1.665 22.787-4.174 22.451-4.453-.596-4.443-.657-4.848-.412-1.621.98-1.28 9.035-3.557 8.936-5.664-.245-8.907-1.338-11.123-1.48-1.973-.133-7.123.15-5.242-2.077z"/><path fill="#0F0F0F" d="M134.044 138.987c.712-5.989 1.539-8.344-.631-8.64-20.934-2.915-19.654-2.939-20.409-1.914-.397.536-.301.371-1.188 7.079-4.515-.789-6.198-1.424-6.587 1.656-3.134 24.88-3.597 23.67-2.757 24.755.663.854 1.02.72 5.621 1.208a97.358 97.358 0 0 0-.677 6.305 1.747 1.747 0 0 0 .289 1.323 1.732 1.732 0 0 0 1.151.713c14.762 1.836 16.887 1.825 17.058 1.825 1.99 0 1.829-2.358 3.091-9.195l5.45.534a1.733 1.733 0 0 0 1.909-1.584l2.737-21.452c.306-2.277-2.009-2.127-5.057-2.613zm-23.852 23.032c1.247-9.307 2.24-7.787-4.891-8.8l2.192-16.053c4.091.59 6.291 1.654 6.56-1.418 0 0 .736-5.614.744-5.694.423.125-.445-.013 12.215 1.701-1.204 8.973-2.24 7.533 4.985 8.56.264.465.426-1.53-1.91 16.432-7.587-1.08-6.138-2.343-7.306 7.065l-12.589-1.793zm21.623-23.327-4.067-.577.824-6.154 3.98.531-.737 6.2zm-27.589 21.77c.077-.16.346-2.307.843-5.685l4.416.627-.742 5.541c-.115-.021-1.162-.128-4.517-.483zm29.968 1.893c-8.426-.826-6.72-2.312-8.741 8.64l-15.774-1.699c.069-.876.269-3.221.613-5.672 12.883 1.832 12.547 1.798 12.715 1.798 1.622 0 1.365-2.202 2.061-7.802l5.083.724c1.729.256 1.403-1.191 3.541-17.141l3.131.501-2.629 20.651z"/><path fill="#0F0F0F" d="M119.075 148.307c-1.808 0-3.331-2.122-4.016-3.551-.16-.32-.189-.024.434-1.462a37.305 37.305 0 0 1 3.811-6.814c.741-1.143.465-1.132.96.091a58.502 58.502 0 0 1 2.745 10.464c-.289.896-3.596 1.272-3.934 1.272zm-2.915-3.802a7.677 7.677 0 0 0 2.001 2.44 1.859 1.859 0 0 0 1.573.179 16.904 16.904 0 0 0 2.171-.464 67.347 67.347 0 0 0-2.265-8.68 33.42 33.42 0 0 0-3.48 6.525z"/><path fill="#0F0F0F" d="M122.921 149.676c.387-1.28-1.78-.36-2.764-.12-2.225.532-2.611.136-3.787-1.547-2.456-3.509-1.936.299-1.579 4.581a10.348 10.348 0 0 0 1.493 5.517c2.009-.019 6.387-7.605 6.637-8.432v.001zm-2.25 1.888a37.862 37.862 0 0 1-3.93 5.216c-.755-1.556-.768-3.22-1.097-6.891-.237-2.625.176.531 2.32.904 3.033.527 4.331-1.771 2.707.773v-.002zm-10.879-32.91c-9.836-15.297-7.754-14.595-12.23-11.723-1.92-3.062-2.436-4.846-4.306-3.304-9.986 6.301-10.916 6.341-9.99 7.811l2.145 3.52c-3.68 2.448-3.771.49 5.088 14.645.83 1.328 1.81.384 4.6-1.241l2.753 3.924c.925 1.468 1.682.677 10.978-5.065a1.212 1.212 0 0 0 .342-1.675c-.038-.071-.92-1.69-2.014-3.405 1.736-1.021 3.722-1.784 2.634-3.487zm-4.407 3.338-6.665 4.278c-3.188-5.059-2.135-4.694-6.095-2.155l-5.425-8.621c.142-.44-.394 0 2.56-1.888.972-.622-.063-1.668-1.896-4.579 4.468-2.821 6.316-3.979 6.462-4.093 3.02 4.823 2.213 4.658 6.098 2.167l5.44 8.528c-3.837 2.451-3.624 1.363-.479 6.363zm-20.48-11.101 2.002-1.264 2.006 3.184-2.041 1.309-1.967-3.229zm22.615 15.149-8.464 5.03c-4.044-5.76-2.79-5.334-7.335-2.689l-6.851-11.04 1.53-1.01c5.825 9.248 5.456 8.872 5.984 8.991.48.105.53-.053 3.273-1.813 1.848 2.933 2.458 4.48 3.43 3.862l6.673-4.283a61.699 61.699 0 0 1 1.76 2.952zm-1.514-5.173-1.794-2.848 2.248-1.44 1.86 2.915c-.031.026-2.282 1.352-2.314 1.373z"/><path fill="#0F0F0F" d="M100.79 116.533c-3.98-3.344-7.016-8.016-7.573-5.792-.08.32-.088.112 1.156 4.396-.348.197-.692.4-1.03.613a.562.562 0 0 0 .567.97l.786-.48.928 3.19a.564.564 0 0 0 1.01.108.564.564 0 0 0 .073-.405l-1.003-3.45c.398-.206 1.208-.494.827-1.085-.32-.494-.8-.189-1.146-.013-1.4-4.816-1.21-2.16 4.611 2.733.549.471 1.348-.32.794-.784v-.001zm-12.61 20.409c1.082-5.269 2.337-3.918-9.36-6.24-1.67-.557-1.734.496-2.434 3.658-2.436-.498-3.132-.876-3.536 1.009-2.95 13.77-3.768 12.613.352 13.306-1.132 5.085-1.684 3.768 8.905 5.725a1.158 1.158 0 0 0 1.335-.892l.984-3.58c4.71.755 3.296 2.017 6.185-11.226.312-1.432-1.333-1.515-2.432-1.76zM74.842 147.84c1.01-4.573 1.3-3.876-2.041-4.557l1.7-7.575c3.506.724 3.079 1.068 4.053-3.316l5.782 1.137c-.69 3.109-.787 3.165-.53 3.56.43.664 2.412.423 2.836.981l-1.704 7.69c-3.704-.757-3.04-1.268-4.048 3.316l-6.048-1.236zm11.66-11.112-1.649-.338.586-2.643 1.611.32-.547 2.661zM71.98 146.772l.565-2.4 1.83.375-.518 2.337-1.877-.312zm14.784 1.831c-4.25-.68-3.418-1.101-4.835 4.064l-7.536-1.28c.088-.525.253-1.44.469-2.4 7.939 1.622 6.656 2.461 7.768-2.56 3.947.8 2.88 1.931 5.056-7.872l1.177.262-2.099 9.786zm43.571-36.136c-4.547-9.689-3.52-9.104-6.24-7.907-1.493-3.256-.122-3.024-8.471.565-.998.624-.259 1.465.498 3.184-.925.424-1.89.672-1.453 1.629 4.176 9.172 2.946 8.272 6.109 7.04 1.086 2.08 1.395 3.209 2.32 2.822 5.885-2.467 6.808-2.4 6.312-3.466-.942-2.468-1.258-1.796.454-2.475a.998.998 0 0 0 .537-.594 1 1 0 0 0-.066-.798zm-3.531.89-3.53 1.545c-1.291-2.819-.909-2.665-3.218-1.654l-2.137-4.677c2.32-1.016 2.142-.688.88-3.445l3.472-1.492c1.317 2.88.969 2.792 3.345 1.752l2.063 4.518c-2.325 1.024-2.152.664-.875 3.453zm-9.108-7.757.672 1.469-1.198.528-.654-1.488 1.18-.509zm5.28 12.899c-1.856-3.56-1.246-3.237-4.051-2.144l-2.968-6.595.981-.448c2.8 6.112 2.042 5.714 4.57 4.605.846 1.845 1.032 2.613 1.851 2.256 4.489-1.963 3.84-1.786 3.971-1.503.328.695.61 1.378.771 1.783l-5.125 2.046zm5.084-5.28-.832-1.816 1.06-.464.876 1.842-1.104.438zm6.53 126.701s-16.631-22.57-16.823-22.8c-1.027-1.183-2.329-1.204-4 .02 0 0-4.96 3.605-5.069 3.695-3.982-5.507-5.062-8.698-8.523-5.637-.344.304 1.483-1.13-22.366 16.075a2.334 2.334 0 0 0-.534 3.242l4.428 6.353c-4.521 3.375-5.347 3.653-5.558 4.975-.213 1.349-.752.305 15.325 22.641a2.328 2.328 0 0 0 3.222.548l7.077-4.778c6.273 7.582 6.181 7.914 7.651 7.914 1.018 0-.558 1.326 22.517-14.956a2.297 2.297 0 0 0 .587-3.161 92.505 92.505 0 0 0-4.173-6.194c5.94-4.061 6.519-4.133 6.781-5.725a2.912 2.912 0 0 0-.542-2.212zm-14.069 1.572 4.585 6.32-15.688 11.388c-6.649-9.162-4.201-8.72-13.302-2.112l-11.218-15.455c.17-.632-.743.187 6.15-4.822a1.712 1.712 0 0 0 .379-2.4l-4.378-6.032c17.149-12.309 15.227-11.255 15.646-10.677 6.051 8.352 4.237 8.266 13.045 1.739l11.186 15.279-6.024 4.371a1.703 1.703 0 0 0-.688 1.121 1.704 1.704 0 0 0 .307 1.28zm-40.392-8.16 5.203-3.723 4.152 5.723-5.28 3.84-4.075-5.84zm49.517 21.8-20.106 13.786c-8.506-10.278-5.51-9.824-16-2.738l-14.134-19.819 4.1-3.061c12.023 16.564 11.257 15.872 12.258 16.034.928.147.613.176 7.597-4.894 3.781 5.209 5.065 8.097 6.984 6.7l15.67-11.374a97.619 97.619 0 0 1 3.631 5.368v-.002zm-3.2-9.622c-.378.258.291.952-3.984-4.939l5.729-4.16 3.914 5.227-5.659 3.872z"/><path fill="#0F0F0F" d="M113.57 245.985c-.34-.48-.333-.285-.144-.592 2.979-4.8-2.472-10.206-6.97-9.846 1.987-4.64-1.39-8.855-5.44-7.828-.744-1.6-2.152-2.161-2.367-1.848-.214.314.354 1.08.973 2.012.32.48.368.054-1.382 1.163-1.616-2.72-2.765-1.76-1.058.742-.416.383-.813.786-1.187 1.208 1.22 1.92 4.509 5.666 6.584 8.952 6.896 10.919 5.298 10.066 7.04 8.658.17-.091.053-.106.37.309 1.16 1.524 3.091 1.92 1.032-.789-.215-.28-.251-.17.112-.416 1.483-1.007 1.201-1.223 1.379-.971 2.026 2.806 2.366 1.056 1.058-.754zm-11.332-8.866c-1.12-2.008-2.182-4.15-3.056-5.779a16.327 16.327 0 0 1 1.92-1.683c3.069-2.115 5.988 1.624 3.756 4.827a13.136 13.136 0 0 1-2.62 2.635zm6.76 8.96a56.974 56.974 0 0 1-5.289-6.473 7.71 7.71 0 0 1 3.369-2.184c4.423-.743 9.548 5.478 1.917 8.648l.003.009z"/><path fill="#fff" d="M142.72 179.869c1.44.724 2.003 2.24 3.571 5.516.614-1.34.997-5.406 5.414-6.689.48-.138.738-.461.307-.72-1.043-.627-4.172-.989-5.408-4.584-1.899-5.527.264 3.657-6.71 5.203a9.324 9.324 0 0 0 2.826 1.274zM60.363 166.47a42.337 42.337 0 0 0 2.691-6.911 25.387 25.387 0 0 0 3.04 5.869c1.7 2.029 5.931 2.863 6.187 3.394.32.669-3.04 1.134-4.77 3.256-.206.249-2.612 4.171-2.72 4.467-.374.974-.382 2.21-1.24 2.803-.694-1.44-.825-3.096-1.56-4.51-1.489-2.864-4.569-3.52-6.08-4.237-2.295-1.086 2.329-.974 4.452-4.131z"/><path fill="#0F0F0F" d="M69.51 167.139a8.82 8.82 0 0 1-5.211-6.25c-1.63-5.499-.96-5.878-2.363.215-1.997 8.91-8.845 7.925-8.731 8.984.09.843 6.939.241 9.254 7.745.705 2.24.949 4.191 1.28 4.178.331-.013.544-1.92 1.272-4.16 3.71-11.558 14.203-6.638 4.5-10.712zm-5.78 11.2a11.175 11.175 0 0 0-6.02-7.752c-2.482-1.16-2.3.032.12-1.43a12.032 12.032 0 0 0 5.296-8.402 10.336 10.336 0 0 0 8.602 8.219c-3.995.883-7.058 5.416-7.997 9.368v-.003z"/><path fill="#fff" d="M117.253 124.929c-2.581 2.533-4.755 1.471-3.264 2.61a8.086 8.086 0 0 1 3.119 6.496c3.896-5.725 5.772-4.574 6.326-5.12.522-.514-1.088-1.328-1.358-1.514-2.391-1.638-1.768-4.512-2.354-5.659-.947.887-1.512 2.247-2.469 3.187z"/><path fill="#0F0F0F" d="M122.656 127.171c-4.138-3.085-.875-11.434-4.142-4.743a6.597 6.597 0 0 1-3.78 3.626c-1.376.472-2.672.427-2.72.774-.222.81 4.047 1.248 4.405 6.14.291 3.668.125 3.531 1.971.464 3.6-6.032 9.551-2.448 4.266-6.261zm-5.12 5.525a7.163 7.163 0 0 0-2.664-5.076c-.64-.504-.667-.209.213-.496a7.543 7.543 0 0 0 4.259-3.832 6.45 6.45 0 0 0 3.565 5.348 8.206 8.206 0 0 0-5.381 4.056h.008z"/><path fill="#fff" d="M96.197 218.11c4.867.192 5.353 1.009 8.219 4.278.32-5.531 1.28-6.72 3.537-8.945-.609-.788-3.131.225-5.361-1.228-1.309-.852-2.4-2.739-2.87-3.048-.88-.571-.2 1.816-.233 2.458a10.54 10.54 0 0 1-3.293 6.485z"/><path fill="#0F0F0F" d="M150.431 176.626c-5.44-2.383-3.739-12.311-5.616-4.168-1.397 6.22-6.141 5.44-6.035 6.414-.039.875 4.763.238 6.409 5.558 1.268 4.012.909 3.789 2.138.012 2.467-7.684 9.883-4.967 3.104-7.816zm-4.171 7.465a7.999 7.999 0 0 0-4.207-5.014c-1.057-.491-.998-.048.101-.711a8.465 8.465 0 0 0 3.699-5.419 7.233 7.233 0 0 0 5.472 5.154c-2.444.779-4.246 3.465-5.065 5.99zm-40.67 28.357c-6.117-.48-7.758-10.695-6.834-2.162.748 6.518-4.136 7.334-3.699 8.254.253.853 4.698-1.396 8.098 3.218 4.8 6.437-.231-1.166 3.635-6.438 1.813-2.503 3.915-2.549-1.2-2.872zm-1.507 8.676a8.156 8.156 0 0 0-2.516-2.366 8.159 8.159 0 0 0-3.271-1.109c-1.244-.126-1.03.307-.152-.747a8.687 8.687 0 0 0 1.75-6.541 7.426 7.426 0 0 0 7.109 3.183c-2.112 1.547-3.027 4.856-2.92 7.576v.004z"/><path fill="#fff" d="M107.329 98.72c2.536 2.31 4.888 1.794 5.026 2.199.128.375-.973 1.639-1.247 2.266-.449 1.03-.201 2.289-.768 3.259-1.899-3.04-4.829-2.2-4.837-2.781 0-.253 1.327-1.44 1.671-2.821.083-.329.453-1.844.155-2.123z"/><path fill="#0F0F0F" d="M113.307 100.757c-.011-.618-2.53-.297-3.704-1.12-1.44-1.004-2.211-3.053-2.746-2.834-.913.3.911 3.419-1.089 5.746-.664.771-1.431 1.305-1.298 1.617.096.32.997.25 1.976.381 2.994.301 3.496 3.52 4.392 3.374.861-.232-.523-3.133 1.326-5.561.588-.78 1.255-1.299 1.143-1.603zm-3.285 4.588a5.325 5.325 0 0 0-3.45-1.908 6.357 6.357 0 0 0 1.306-3.84 4.704 4.704 0 0 0 3.714 1.728 6.217 6.217 0 0 0-1.57 4.02z"/><path fill="#FDFE1F" d="M228.115 160.723c3.157 2.88 7.33 4.331 11.376 5.706 7.119 2.419 15.66-.8 20.304-6.72 6.33-8.061 6.56-17.587 4.756-19.936-1.708 3.489-5.872 7.68-9.629 6.79a3.824 3.824 0 0 1-2.901-4.198c.666-3.695 6.099-9.669 5.568-12.133-.23-1.069.674-2.57.48-4.454-.114-1.079-.491-1.735-2.48-6.048a3.485 3.485 0 0 0-1.779-1.981c-1.199-.827-2.263-2.131-3.719-2.117 4.192 15.52-13.864 6.55-15.008 15.448-.489 3.808 3.596 5.355 2.181 11.424-.272 1.163-.557 1.555-1.825 1.773a8.036 8.036 0 0 1-7.309-1.674c-1.362-1.395-3.811-6.809-3.36-9.96.48-3.373-4.664 5.175-3.36 16.904-.799-.267 2.504 7.341 6.705 11.176zM133.673 20.279c-2.299.128-2.04 16 10.053 18.31 4.038.768 7.616.96 12.206-2.26 3.605-2.523 4.341-5.023 4.939-9.41a6.98 6.98 0 0 0-.656-5.137c-1.99 4.733-7.595 4.178-8.16.66a9.48 9.48 0 0 1 .909-4.06 8.87 8.87 0 0 0-4.187-10.025c-.19 1.186.442 2.454-.01 3.568-.691 1.712-2.825 1.513-6.046 3.68-2.763 1.864-2.598 3.453-1.29 6.31.8 1.746 1.223 3.98-.062 4.65a5.919 5.919 0 0 1-5.182-1.906 19.254 19.254 0 0 1-2.514-4.38zM80.478 54.836c-.336-.557-.592-1.026-1.366-1.12a21.71 21.71 0 0 1 .532 6.198 5.37 5.37 0 0 1-1.688 4.043 2.598 2.598 0 0 1-2.844 1.187c-5.682-.694-3.87-6.57-5.835-9.987-1.572-2.734-1.76-3.97-4.674-5.37-3.568-1.71-8.502-2.043-6.477-.572a6.269 6.269 0 0 1 2.735 6.419c-.845 2.998-4.377 4.462-5.186 6.54a4.32 4.32 0 0 0 1.683 4.654c3.287 2.648 7.989 1.88 6.675 6.862a2.08 2.08 0 0 1-1.512 1.726c-4.264 1.725-5.515.17-7.134-.53-.65-.282-1.35-.44-1.983-.756-1.467-.738-2.41-2.254-3.85-3.04.007.803.073 1.606.198 2.4 2.28 6.456 4.656 8.827 8.934 11.114 7.928 4.235 11.773 3.283 16.928.827 5.749-2.741 7.704-6.655 9.44-11.512a17.513 17.513 0 0 0-.576-12.389 25.516 25.516 0 0 0-4-6.694z"/><path fill="#0F0F0F" d="M265.08 139.547c-.64-1.57-.585-.688-1.533.902-3.184 5.424-11.988 7.136-10.118 1.2.923-2.88 3.563-5.617 4.974-8.848a13.55 13.55 0 0 0-1.843-13.489c-2.507-3.2-6.454-4.629-6.64-4.018-.521.223 1.674 4.522-1.6 7.704-4.744 4.815-10.28-1.083-13.92 5.976-2.7 5.187 2.271 8.603 2.08 12.202-.152 3.061-5.513 3.942-9.193-2.024-2.581-4.306-1.852-8.149-2.477-8.202-.338-.216-4.49 5.003-4.879 12.453-1.097 20.4 22.356 31.539 36.749 20.814 8.351-6.212 11.296-17.528 8.4-24.672v.002zm-1.813 11.872c-6.516 18-28.596 17.906-37.28 4.864a23.352 23.352 0 0 1-2.366-21.982c.91-2.37.64-1.724.589-.928-.467 9.67 8.421 15.456 13.28 11.48a4.946 4.946 0 0 0 1.739-3.492c.336-5.049-5.843-9.336-.934-12.857 2.022-1.461 4.568-.407 7.321-1.344 4.835-1.544 7.536-6.851 4.917-11.224 4.787 3.456 6.456 7.68 6.315 11.613-.169 6.336-7.163 10.622-6.304 16.331.928 6.957 12.376 3.811 14.08-3.315a23.912 23.912 0 0 1-1.357 10.856v-.002zM160.175 20.442c-.458-.05-2.051 5.424-5.555 3.773-3.332-1.476 2.472-7.09-.501-12.293-1.571-2.765-5.44-4.352-5.632-3.922-.48-.037-.037 2.207-.295 2.949-.419 1.251-2.062 1.678-3.328 2.053-4.971 1.507-7.152 5.22-4.329 9.31.753 1.093 1.165 1.851.997 2.288-.287 1.408-3.344 1.629-5.418-1.21-1.75-2.435-1.429-4.622-1.818-4.64-.112-.1-.838.394-1.537 1.76-1.835 3.592-1.397 10.018 2.816 14.962 8.518 9.963 24.208 5.085 26.006-6.683.779-4.829-.982-8.531-1.406-8.347zm-26.576 6.084a12.738 12.738 0 0 1 .064-5.587 7.09 7.09 0 0 0 6.456 7.04 3.747 3.747 0 0 0 3.6-5.29c-.863-1.99-3.608-3.902-.554-6.358 2.17-1.76 7.922-2.252 6.056-7.04-.256-.558-.229-.462-.062-.27.982 1.12 1.377 1.373 2.08 2.24 3.68 4.528-1.189 8.176-.047 12.373 1.026 4.15 7.797 4.307 9.098-.97 1.509 18.738-23.378 21.26-26.691 3.862zM78.457 52.832c-.34.125.752 2.418.512 6.163-.48 5.943-5.054 7.9-6.78 1.636-1.28-4.602-2.057-10.127-9.188-12.343-3.432-1.056-6.65-.081-6.528.34-.074.337 3.912 1.361 3.702 5.367-.136 2.93-2.352 3.824-4.307 6.052-2.622 3.006-2.08 7.382 3.274 9.427a8.7 8.7 0 0 1 4 2.203c1.336 1.59-.064 3.883-3.816 3.576-6.323-.522-9.455-4.86-9.794-4.519-.275-.007-.8 4.98 3.418 10.31 13.197 16.508 40.59 2.502 32.18-19.604-2.164-5.491-6.36-9.019-6.673-8.608zm5.883 20.175c-1.998 8.868-12.19 15.001-20.81 12.73a18.73 18.73 0 0 1-13.716-14.24c3.6 5.857 14.777 8.102 15.883 1.99.58-3.168-2.72-4.984-5.776-6.08-3.8-1.372-4.18-4.055-2.488-6.08 1.531-1.933 4.504-3.624 4.3-7.348a5.734 5.734 0 0 0-3.668-5.208c1.516.052 3.01.38 4.408.97 6.018 2.56 6.4 7.07 7.602 11.486 3.155 10.858 14.24 3.544 9.41-6.947-.169-.36 7.271 8.22 4.855 18.727z"/><path fill="#fff" d="M200.487 217.119c.64 14.375 15.285 21.496 26.748 27.212 1.84.916 2.364 1.496 2.152 4.694-.735 11.021 7.404 23.141 10.58 25.2 5.319 3.448 16.348-4.709 19.002-10.992 3.07-7.272.835-17.149-1.477-24.664-.881-2.869-3.713-11.782-5.481-14.187-2.492-3.384-13.94-9.091-17.888-10.594-4.989-1.899-10.512-2.977-14.5-6.526-4.32-3.84-7.473-7.218-13.02-3.227a15.594 15.594 0 0 0-6.116 13.084z"/><path fill="#0F0F0F" d="M256.894 231.312c-4.32-16.374-21.905-17.104-33.03-23.763-3.901-2.258-5.883-5.338-9.501-6.634-5.496-2.128-15.469 4.434-15.189 15.698.509 13.523 15.327 26.808 28.48 29.76-.678 16.414 10.291 28.422 11.427 27.44.776-.64-4.416-7.347-6.928-17.175-2.67-9.784-1.529-18.197-2.521-18.357-.367-.068-1.071 1.455-1.552 4.161-16.834-4.068-32.867-25.36-20.8-35.762 6.56-5.469 7.667.361 14.579 4.227 11.931 7.053 27.654 6.813 32.371 21.178 7.69 26.281 8.512 24.515 2.664-.773z"/><path fill="#FDFE1F" d="M204.915 201.453c1.619 2.048 7.21 1.11 10.227-1.13 2.778 4.986 9.463 4.507 9.731 3.488.16-.603-1.531-1.553-2.697-2.848-2.827-3.137-2.595-8.48-3.976-10.353-1.466 1.204-2.227 3.089-3.65 4.342a10.442 10.442 0 0 1-7.054 2.4c-1.786-.227-8.784-3.925-9.423-4.149.663 5.875 3.797 6.336 1.808 10.61-1.708 3.68-5.937 7.36-6.195 7.806 5.84-.342 10.277-.909 10.927-7.36.195-.923.296-1.863.302-2.806z"/><path fill="#0F0F0F" d="M217.945 192.045c1.112 3.222.175 5.617 3.008 8.624a26.744 26.744 0 0 1 2.57 2.803 6.36 6.36 0 0 1-7.747-5.023 8.887 8.887 0 0 1-12.047 1.666c1.328 4.981-1.773 11.285-8.189 10.685 3.255-3.543 5.557-5.128 5.402-10.013-.085-2.706-1.542-4.274-2.13-6.57 5.082 1.92 10.204 7.786 17.324.408a6.022 6.022 0 0 1 1.809-2.58zm.816-2.8c-1.92 1.531-3.117 2.24-4.059 4.436-5.995 5.94-8.757 1.423-18.323-2.182 1.845 7.216 2.88 7.214 2.88 9.341.301 4.201-2.171 5.789-7.259 11.325l3.387.32c6.301.585 10.136-4.352 10.313-9.575 2.27.744 4.727.68 6.954-.182 3.805-1.466 1.398-2.12 3.552.125 3.656 3.809 7.75 2.254 10.069 1.6-4.408-6.24-5.243-4.781-5.909-8.909a22.377 22.377 0 0 0-1.605-6.299z"/></svg>