<svg xmlns="http://www.w3.org/2000/svg" width="144" height="39" fill="none"><path fill="#0F0F0F" fill-rule="evenodd" d="M23 8v24h-7V8h7zm2 0h14.481C44.186 8 48 11.582 48 16s-3.814 8-8.519 8h-7.666v8H25V8zm6.815 9.6h7.666c.941 0 1.704-.716 1.704-1.6 0-.884-.763-1.6-1.704-1.6h-7.666v3.2zM72.62 8v12.4c0 2.872 2.409 5.2 5.38 5.2 2.97 0 5.38-2.328 5.38-5.2V8H90v12.4C90 26.807 84.627 32 78 32s-12-5.194-12-11.6V8h6.62z" clip-rule="evenodd"/><path fill="#0F0F0F" fill-rule="evenodd" d="M50.333 19.2c0-6.186 4.962-11.2 11.084-11.2H63v6.4h-1.583c-2.624 0-4.75 2.15-4.75 4.8v.8c0 6.627-5.317 12-11.875 12H44v-6.4h.792c3.06 0 5.541-2.507 5.541-5.6v-.8z" clip-rule="evenodd"/><path fill="#0F0F0F" d="M127 8c0 1.105-1.119 2-2.5 2s-2.5-.895-2.5-2 1.119-2 2.5-2 2.5.895 2.5 2zM96.776 32l3.145-12.899 2.338 7.76c1.394 4.628 8.088 4.628 9.482 0l2.338-7.76L117.224 32H124l-4.945-20.283c-1.176-4.823-8.116-5.002-9.549-.246L107 19.79l-2.506-8.318c-1.432-4.756-8.373-4.577-9.549.246L90 32h6.776z"/></svg>