<svg xmlns="http://www.w3.org/2000/svg" width="144" height="39" fill="none"><g fill="#0F0F0F" opacity=".96"><path d="M36.096 17.226c2.204 0 2.7.958 2.7 2.152 0 1.266-.6 2.173-2.691 2.173-2.079 0-2.68-.854-2.68-2.173 0-1.298.655-2.152 2.67-2.152zm23.043 0c2.204 0 2.7.958 2.7 2.152 0 1.266-.6 2.173-2.691 2.173-2.078 0-2.68-.854-2.68-2.173 0-1.298.655-2.152 2.67-2.152z"/><path fill-rule="evenodd" d="M16.573 31.828V6.917H128v24.911H16.573zm53.106-1.405h56.916v-22.1H69.679v22.1zm-33.573-6.75c3.914 0 5.56-1.69 5.56-4.326 0-2.68-1.853-4.273-5.56-4.273-3.65 0-5.57 1.73-5.57 4.273 0 2.87 2.014 4.325 5.57 4.325zm-13.61-8.41v8.283h7.9V21.34h-5.041v-6.076h-2.859zm28.012 8.283-.073-.802a5.06 5.06 0 0 1-3.292.928c-1.762 0-3.229-.527-4.052-1.593a4.356 4.356 0 0 1-.78-2.658 4.118 4.118 0 0 1 .804-2.585c.833-1.034 2.342-1.72 4.59-1.72 2.584 0 4.103.791 4.757 2.12.14.314.222.65.243.992H49.97a1.125 1.125 0 0 0-.369-.527 2.908 2.908 0 0 0-1.846-.475 2.72 2.72 0 0 0-2.132.665 2.29 2.29 0 0 0-.432 1.55 2.343 2.343 0 0 0 .4 1.488 2.77 2.77 0 0 0 2.185.728 3.05 3.05 0 0 0 2.173-.675c.131-.164.221-.357.264-.562H47.27v-1.78h5.507v4.906h-2.269zm8.641.126c3.914 0 5.56-1.688 5.56-4.325 0-2.68-1.856-4.273-5.56-4.273-3.65 0-5.57 1.73-5.57 4.273 0 2.87 2.015 4.325 5.57 4.325z" clip-rule="evenodd"/><path d="M74.494 23.514v-8.282h2.038v8.282h-2.038zm12.502-3.461c-.517.676-1.406.984-2.659.992l-3.767-.01v2.479h-1.994v-8.282h5.762a3.307 3.307 0 0 1 2.563.833 3.05 3.05 0 0 1 .623 2.078 2.985 2.985 0 0 1-.528 1.91zm-1.636-2.7c-.21-.316-.665-.492-1.434-.492H80.56v2.521h3.344c.823 0 1.256-.168 1.456-.496.12-.23.17-.49.148-.749.017-.27-.033-.54-.148-.784zm8.04 6.287c-3.756 0-4.906-1.404-4.906-2.795h2.131c0 .686.94 1.203 2.87 1.203 1.92 0 2.426-.338 2.426-.887 0-.612-.379-.802-2.162-1.002a47.132 47.132 0 0 1-1.667-.2c-2.53-.285-3.504-1.034-3.504-2.374 0-1.414 1.425-2.48 4.516-2.48 3.356 0 4.643 1.32 4.643 2.691h-2.108c0-.696-.791-1.097-2.659-1.097-1.92 0-2.331.263-2.331.78 0 .538.421.707 2.459.95.464.064 1.498.18 1.783.21 2.152.222 3.123 1.002 3.123 2.384-.004 1.647-1.48 2.618-4.614 2.618zm10.615-.01c-2.753 0-4.547-1.087-4.547-3.373v-5.025h2.014v5.053c0 1.045.855 1.741 2.617 1.741 1.593 0 2.543-.654 2.543-1.74v-5.054h1.994v5.213c0 2.078-1.667 3.185-4.621 3.185zm15.54-.116v-5.528l-2.585 5.528h-1.962l-2.511-5.528v5.528H110.6v-8.282h2.57l2.849 6.31 2.912-6.31h2.529v8.282h-1.905z"/></g></svg>