<svg xmlns="http://www.w3.org/2000/svg" width="144" height="39" fill="none"><g fill="#0F0F0F" opacity=".96"><path d="M45.545 25.89h9.106v-2.72h-5.87V12.916h-3.236v12.975zm14.502-1.814c-1.299 0-1.975-1.125-1.975-2.813 0-1.687.676-2.83 1.975-2.83 1.298 0 1.993 1.143 1.993 2.83 0 1.688-.695 2.813-1.993 2.813zm.018 2.105c3.017 0 4.992-2.123 4.992-4.918 0-2.794-1.975-4.917-4.992-4.917-2.999 0-5.01 2.123-5.01 4.917 0 2.795 2.011 4.918 5.01 4.918zm10.215 2.922c1.39 0 2.614-.309 3.437-1.035.75-.671 1.244-1.687 1.244-3.085V16.6h-2.853v.998h-.037c-.548-.78-1.39-1.27-2.633-1.27-2.322 0-3.931 1.923-3.931 4.645 0 2.85 1.956 4.41 4.06 4.41 1.133 0 1.846-.454 2.395-1.071h.073v.925c0 1.126-.53 1.779-1.792 1.779-.988 0-1.481-.417-1.646-.907h-2.889c.293 1.941 1.993 2.994 4.571 2.994zm-.019-5.916c-1.115 0-1.847-.907-1.847-2.305 0-1.415.732-2.322 1.847-2.322 1.244 0 1.902 1.052 1.902 2.304 0 1.307-.604 2.323-1.902 2.323zm10.565.889c-1.298 0-1.975-1.125-1.975-2.813 0-1.687.677-2.83 1.975-2.83s1.993 1.143 1.993 2.83c0 1.688-.695 2.813-1.993 2.813zm.018 2.105c3.017 0 4.992-2.123 4.992-4.918 0-2.794-1.975-4.917-4.992-4.917-2.999 0-5.01 2.123-5.01 4.917 0 2.795 2.011 4.918 5.01 4.918zm5.862-.291h2.98V16.6h-2.98v9.29zm0-10.579h2.98v-2.395h-2.98v2.395zm4.274 13.646h2.98V24.93h.037c.585.78 1.444 1.252 2.651 1.252 2.45 0 4.078-1.923 4.078-4.936 0-2.794-1.518-4.917-4.005-4.917-1.28 0-2.194.562-2.834 1.397h-.055V16.6H90.98v12.357zm4.9-5.062c-1.28 0-2.011-1.035-2.011-2.54 0-1.507.658-2.65 1.956-2.65 1.28 0 1.884 1.052 1.884 2.65 0 1.578-.695 2.54-1.829 2.54zm9.699 2.286c2.45 0 4.26-1.052 4.26-3.085 0-2.377-1.938-2.794-3.584-3.067-1.188-.217-2.249-.308-2.249-.961 0-.58.567-.853 1.298-.853.823 0 1.39.254 1.5 1.089h2.743c-.147-1.833-1.573-2.976-4.224-2.976-2.213 0-4.042 1.016-4.042 2.976 0 2.177 1.738 2.613 3.365 2.885 1.243.218 2.377.308 2.377 1.143 0 .599-.567.926-1.463.926-.987 0-1.609-.454-1.719-1.38h-2.816c.092 2.051 1.811 3.303 4.554 3.303zm8.309-.018c1.298 0 2.121-.508 2.798-1.415h.055v1.143h2.852v-9.29h-2.98v5.189c0 1.107-.622 1.869-1.646 1.869-.951 0-1.408-.563-1.408-1.579V16.6h-2.962v6.097c0 2.069 1.133 3.466 3.291 3.466zm7.002-.273h2.98v-5.207c0-1.107.549-1.887 1.481-1.887.896 0 1.317.58 1.317 1.578v5.517h2.981v-5.208c0-1.107.53-1.887 1.481-1.887.896 0 1.316.58 1.316 1.578v5.517h2.981v-6.043c0-2.087-1.061-3.52-3.182-3.52-1.207 0-2.212.508-2.944 1.633h-.036c-.476-.998-1.408-1.633-2.634-1.633-1.353 0-2.249.635-2.834 1.596h-.055V16.6h-2.852v9.29zM27.36 5.495l-2.996-.797-2.526 9.352-2.28-8.443-2.996.797 2.463 9.122-6.135-6.088-2.194 2.177 6.73 6.678-8.38-2.228-.804 2.973 9.157 2.435a6.136 6.136 0 0 1-.16-1.396c0-3.401 2.778-6.158 6.205-6.158 3.426 0 6.204 2.757 6.204 6.157 0 .478-.055.943-.158 1.389l8.322 2.212.803-2.973-9.194-2.445 8.382-2.229L37 13.058 27.807 15.5l6.135-6.088-2.194-2.177-6.636 6.586 2.248-8.327z"/><path d="M29.481 21.5a6.132 6.132 0 0 1-1.544 2.822l6.03 5.983 2.193-2.177-6.679-6.628zm-1.604 2.884a6.21 6.21 0 0 1-2.772 1.627l2.193 8.125 2.997-.797-2.418-8.955zm-2.884 1.656a6.263 6.263 0 0 1-3.204-.027l-2.196 8.132 2.996.797 2.404-8.901zm-3.31-.058a6.212 6.212 0 0 1-2.724-1.65l-6.044 5.997 2.194 2.177 6.574-6.524zm-2.775-1.703a6.129 6.129 0 0 1-1.505-2.787l-8.35 2.22.804 2.974 9.05-2.407z"/></g></svg>