<svg xmlns="http://www.w3.org/2000/svg" width="144" height="39" fill="none"><path fill="#0F0F0F" d="M12.139 33.213h27.374V6.283H12.14v26.93zm22.105-16.056H28.46v-5.69h5.784v5.69zm-16.837-5.69h5.787v10.872h11.05v5.69H17.407V11.468zm39.932-5.183c-2.707 0-5.353.79-7.604 2.269a13.516 13.516 0 0 0-5.041 6.043 13.262 13.262 0 0 0-.78 7.779 13.399 13.399 0 0 0 3.747 6.894 13.759 13.759 0 0 0 7.008 3.685c2.655.52 5.407.253 7.908-.766a13.641 13.641 0 0 0 6.142-4.96 13.309 13.309 0 0 0 2.307-7.48 13.37 13.37 0 0 0-4.013-9.516 13.818 13.818 0 0 0-9.674-3.948zm0 21.746a8.518 8.518 0 0 1-4.677-1.396 8.313 8.313 0 0 1-3.1-3.717 8.157 8.157 0 0 1-.48-4.784 8.24 8.24 0 0 1 2.304-4.24 8.462 8.462 0 0 1 4.31-2.267 8.548 8.548 0 0 1 4.864.471 8.39 8.39 0 0 1 3.778 3.05 8.186 8.186 0 0 1 1.42 4.601 8.226 8.226 0 0 1-2.47 5.852 8.503 8.503 0 0 1-5.949 2.43zm62.666-21.746c-2.707 0-5.353.789-7.604 2.268a13.52 13.52 0 0 0-5.042 6.043 13.262 13.262 0 0 0-.779 7.78 13.4 13.4 0 0 0 3.746 6.894 13.758 13.758 0 0 0 7.008 3.685c2.654.52 5.407.253 7.908-.766a13.634 13.634 0 0 0 6.142-4.96 13.303 13.303 0 0 0 2.308-7.48 13.376 13.376 0 0 0-4.013-9.516 13.821 13.821 0 0 0-9.674-3.948zm0 21.746a8.521 8.521 0 0 1-4.677-1.396 8.32 8.32 0 0 1-3.101-3.716 8.157 8.157 0 0 1-.479-4.785 8.237 8.237 0 0 1 2.303-4.24 8.467 8.467 0 0 1 4.311-2.267 8.544 8.544 0 0 1 4.863.471 8.388 8.388 0 0 1 3.779 3.05 8.186 8.186 0 0 1 1.419 4.601 8.225 8.225 0 0 1-2.47 5.852 8.5 8.5 0 0 1-5.948 2.43zM88.672 6.284c-2.707 0-5.354.79-7.605 2.269a13.515 13.515 0 0 0-5.04 6.043 13.262 13.262 0 0 0-.78 7.779 13.398 13.398 0 0 0 3.746 6.894 13.759 13.759 0 0 0 7.008 3.685c2.655.52 5.407.253 7.908-.766a13.64 13.64 0 0 0 6.143-4.96 13.31 13.31 0 0 0 2.307-7.48 13.37 13.37 0 0 0-4.014-9.516 13.818 13.818 0 0 0-9.673-3.948zm0 21.746a8.523 8.523 0 0 1-4.396-1.217 8.336 8.336 0 0 1-3.104-3.295 8.168 8.168 0 0 1 .674-8.622 8.398 8.398 0 0 1 3.579-2.79c1.431-.588 3-.775 4.533-.541a8.48 8.48 0 0 1 4.153 1.867 8.276 8.276 0 0 1 2.552 3.725h-7.991v5.182h7.991a8.304 8.304 0 0 1-3.061 4.115 8.526 8.526 0 0 1-4.93 1.576z" opacity=".96"/></svg>