<svg xmlns="http://www.w3.org/2000/svg" width="144" height="39" fill="none"><path fill="#0F0F0F" fill-rule="evenodd" d="M49.683 7.778c0-.914.749-1.655 1.673-1.655h2.914c.658 0 1.295.225 1.804.638l.886.719.022.02.062-.02c1.6-.507 3.54-.603 5.52-.603 1.98 0 3.921.096 5.52.603l.062.02.022-.02.887-.72a2.863 2.863 0 0 1 1.803-.637h2.914c.924 0 1.673.74 1.673 1.655V8.8a2.8 2.8 0 0 1-.928 2.08l-.715.644a3.02 3.02 0 0 1-1.224.668l-.169.047c.663 1.564 1.029 3.236 1.029 4.588 0 5.44-3.403 7.79-6.402 9.86-2.361 1.631-4.472 3.088-4.472 5.746 0-2.657-2.11-4.115-4.472-5.745-2.998-2.07-6.401-4.42-6.401-9.86 0-1.353.366-3.025 1.028-4.59l-.169-.046a3.021 3.021 0 0 1-1.223-.668l-.715-.645a2.8 2.8 0 0 1-.929-2.08v-1.02zm15.056 13.498c0 .26-.115.51-.319.693a1.15 1.15 0 0 1-.768.287c-.25 0-.49-.077-.682-.216.327.866 1.165 1.687 2.438.367 1.124-1.227-.05-3.814-1.194-5.349-.381-.511-1.007-.758-1.65-.758-.642 0-1.268.247-1.65.758-1.144 1.535-2.318 4.122-1.194 5.349 1.274 1.32 2.111.5 2.438-.367-.192.14-.432.216-.681.216a1.15 1.15 0 0 1-.769-.287.934.934 0 0 1-.319-.693h4.35zM58.4 13.618h-3.03l2.388 1.891c.526.416 1.293.283 1.618-.28.411-.711-.134-1.61-.976-1.61zm8.328 0h3.03L67.37 15.51c-.525.416-1.293.283-1.618-.28-.41-.711.135-1.61.976-1.61z" clip-rule="evenodd"/><path fill="#0F0F0F" d="M79.054 24.76h2.684V14.637h-2.684V24.76zm0-11.702h2.684v-2.407h-2.684v2.407zm4.413 15.017h2.684v-4.46h.04c.571.868 1.499 1.44 2.92 1.44 2.604 0 4.38-2.071 4.38-5.347 0-3.157-1.716-5.348-4.4-5.348-1.381 0-2.329.652-2.98 1.54h-.059v-1.263h-2.585v13.438zm5.071-5.25c-1.598 0-2.447-1.203-2.447-3.038 0-1.816.671-3.256 2.349-3.256 1.657 0 2.328 1.342 2.328 3.256 0 1.914-.868 3.039-2.23 3.039zm10.307 2.231c2.526 0 4.262-1.224 4.262-3.256 0-2.368-1.874-2.842-3.571-3.197-1.44-.296-2.783-.375-2.783-1.243 0-.73.69-1.125 1.737-1.125 1.144 0 1.835.395 1.953 1.48h2.427c-.197-2.033-1.677-3.355-4.34-3.355-2.31 0-4.125 1.046-4.125 3.237 0 2.21 1.776 2.703 3.591 3.058 1.382.276 2.664.375 2.664 1.342 0 .71-.67 1.164-1.855 1.164-1.203 0-2.032-.513-2.21-1.677H94.11c.158 2.15 1.796 3.572 4.736 3.572zm14.452-.296V14.635h-2.684v5.841c0 1.342-.77 2.29-2.033 2.29-1.144 0-1.677-.652-1.677-1.836v-6.295h-2.664v6.75c0 2.21 1.263 3.65 3.513 3.65 1.42 0 2.21-.533 2.9-1.46h.06v1.183h2.585zm1.735 0h2.684v-5.88c0-1.343.73-2.21 1.816-2.21.986 0 1.558.591 1.558 1.736v6.354h2.684v-5.88c0-1.343.691-2.21 1.816-2.21.986 0 1.558.591 1.558 1.736v6.354h2.684v-6.808c0-2.21-1.204-3.592-3.335-3.592-1.282 0-2.348.671-3.039 1.776h-.039c-.493-1.065-1.519-1.776-2.802-1.776-1.401 0-2.388.71-2.94 1.638h-.06v-1.361h-2.585V24.76zm-103.732 0h2.684V10.65H11.3v14.11zm9.246.296c3.138 0 5.289-2.329 5.289-5.348 0-3.02-2.151-5.348-5.289-5.348-3.137 0-5.288 2.329-5.288 5.348 0 3.02 2.15 5.348 5.288 5.348zm0-2.053c-1.657 0-2.565-1.322-2.565-3.295 0-1.973.908-3.315 2.565-3.315 1.638 0 2.565 1.342 2.565 3.315 0 1.973-.927 3.295-2.565 3.295zm10.996 5.21c1.5 0 2.802-.355 3.65-1.145.75-.69 1.204-1.657 1.204-3.078v-9.353H33.81v1.065h-.04c-.611-.848-1.539-1.342-2.802-1.342-2.565 0-4.38 1.934-4.38 4.953 0 3.059 2.21 4.835 4.46 4.835 1.282 0 2.051-.513 2.644-1.184h.059v1.105c0 1.381-.73 2.111-2.25 2.111-1.243 0-1.815-.493-2.032-1.124h-2.664c.276 1.973 1.973 3.157 4.736 3.157zm-.04-6.216c-1.381 0-2.289-1.006-2.289-2.723 0-1.697.908-2.763 2.27-2.763 1.617 0 2.407 1.263 2.407 2.743 0 1.5-.69 2.743-2.388 2.743zm11.417 3.059c3.138 0 5.289-2.329 5.289-5.348 0-3.02-2.151-5.348-5.289-5.348-3.137 0-5.288 2.329-5.288 5.348 0 3.02 2.15 5.348 5.288 5.348zm0-2.053c-1.657 0-2.565-1.322-2.565-3.295 0-1.973.907-3.315 2.565-3.315 1.638 0 2.565 1.342 2.565 3.315 0 1.973-.927 3.295-2.565 3.295zm86.792-10.577c0-.454.368-.822.822-.822h1.645a.822.822 0 0 1 0 1.644h-1.645a.822.822 0 0 1-.822-.822z"/></svg>