<svg xmlns="http://www.w3.org/2000/svg" width="144" height="39" fill="none"><path fill="#0F0F0F" d="M34.709 7.182h3.595v20.196h5.916v3.366h-9.511V7.182zM51.013 31.08c-1.765 0-3.116-.516-4.053-1.548-.937-1.032-1.405-2.491-1.405-4.376V12.769c0-1.885.468-3.344 1.405-4.376.937-1.032 2.288-1.548 4.053-1.548 1.765 0 3.116.516 4.053 1.548.936 1.032 1.405 2.491 1.405 4.376v12.387c0 1.885-.468 3.344-1.405 4.376-.937 1.032-2.288 1.548-4.053 1.548zm0-3.366c1.242 0 1.863-.774 1.863-2.322V12.533c0-1.548-.621-2.322-1.863-2.322s-1.863.774-1.863 2.322v12.859c0 1.548.62 2.322 1.863 2.322zm12.989 3.366c-1.743 0-3.072-.505-3.988-1.514-.915-1.033-1.372-2.503-1.372-4.41V12.769c0-1.908.457-3.366 1.372-4.376.915-1.032 2.245-1.548 3.988-1.548 1.743 0 3.072.516 3.987 1.548.915 1.01 1.373 2.468 1.373 4.376v2.02h-3.4v-2.256c0-1.548-.62-2.322-1.862-2.322s-1.863.774-1.863 2.322v12.892c0 1.526.62 2.29 1.863 2.29 1.242 0 1.863-.764 1.863-2.29v-4.611h-1.798v-3.366h5.197v7.708c0 1.907-.458 3.377-1.373 4.41-.915 1.01-2.244 1.514-3.987 1.514zm12.864 0c-1.765 0-3.115-.516-4.052-1.548-.937-1.032-1.406-2.491-1.406-4.376V12.769c0-1.885.469-3.344 1.406-4.376.937-1.032 2.287-1.548 4.052-1.548 1.765 0 3.116.516 4.053 1.548.937 1.032 1.406 2.491 1.406 4.376v12.387c0 1.885-.469 3.344-1.406 4.376-.937 1.032-2.288 1.548-4.053 1.548zm0-3.366c1.242 0 1.863-.774 1.863-2.322V12.533c0-1.548-.62-2.322-1.863-2.322-1.242 0-1.863.774-1.863 2.322v12.859c0 1.548.621 2.322 1.863 2.322zm7.897-20.532h3.595v23.562h-3.595V7.182zm6.287 0h5.296c1.786 0 3.126.493 4.02 1.48.893.988 1.34 2.435 1.34 4.343v2.322c0 1.908-.447 3.355-1.34 4.343-.894.987-2.234 1.48-4.02 1.48h-1.7v9.594h-3.595V7.182zm5.296 10.603c.588 0 1.024-.169 1.307-.505.305-.337.457-.91.457-1.717V12.77c0-.808-.152-1.38-.457-1.716-.283-.337-.719-.505-1.308-.505h-1.699v7.237h1.7zm12.113 13.295c-1.743 0-3.061-.505-3.955-1.514-.893-1.033-1.34-2.503-1.34-4.41V23.81h3.399v1.615c0 1.526.621 2.29 1.863 2.29.611 0 1.068-.18 1.373-.54.327-.38.49-.987.49-1.817 0-.987-.217-1.851-.653-2.592-.436-.763-1.242-1.672-2.419-2.726-1.482-1.347-2.517-2.559-3.105-3.636-.588-1.1-.882-2.334-.882-3.702 0-1.863.457-3.3 1.372-4.309.916-1.032 2.245-1.548 3.988-1.548 1.721 0 3.018.516 3.889 1.548.894 1.01 1.34 2.468 1.34 4.376v.976h-3.399v-1.212c0-.807-.152-1.391-.457-1.75-.305-.381-.752-.572-1.34-.572-1.199 0-1.798.752-1.798 2.255 0 .853.218 1.65.654 2.39.457.74 1.274 1.638 2.451 2.693 1.503 1.346 2.538 2.57 3.105 3.669.566 1.1.85 2.39.85 3.87 0 1.93-.469 3.412-1.406 4.444-.915 1.032-2.255 1.548-4.02 1.548zm12.717 0c-1.743 0-3.073-.504-3.988-1.514-.915-1.032-1.373-2.502-1.373-4.41V7.182h3.596v18.244c0 .807.152 1.39.457 1.75.327.359.785.539 1.373.539s1.035-.18 1.34-.539c.326-.36.49-.943.49-1.75V7.182h3.464v17.974c0 1.908-.457 3.378-1.372 4.41-.915 1.01-2.245 1.515-3.987 1.515zm7.92-23.898h5.131l2.288 16.864h.065l2.289-16.864H144v23.562h-3.4v-17.84h-.064l-2.616 17.84h-3.007l-2.614-17.84h-.065v17.84h-3.138V7.182zM0 30.744c4.423 0 8.009-3.693 8.009-8.248S4.423 14.248 0 14.248v5.774c1.327 0 2.403 1.107 2.403 2.474 0 1.367-1.076 2.474-2.403 2.474v5.774zm26.695-13.747a13.963 13.963 0 0 0-4.337-.687c-7.925 0-14.35 6.616-14.35 14.778 0 .819.066 1.622.19 2.405h8.915a6.041 6.041 0 0 1-.495-2.405c0-3.265 2.57-5.911 5.74-5.911 1.732 0 3.285.79 4.337 2.04v-10.22zM1.408 6c.664 6.186 5.756 10.997 11.94 10.997 6.183 0 11.275-4.811 11.94-10.997h-8.592c-.53 1.37-1.83 2.337-3.348 2.337-1.52 0-2.818-.968-3.349-2.337H1.41z" opacity=".96"/></svg>