<svg xmlns="http://www.w3.org/2000/svg" width="144" height="39" fill="none"><g fill="#0F0F0F" opacity=".96"><path d="M67.76 34.357h2.657V24.301h-2.656v10.056zm0-11.625h2.657v-2.391h-2.656v2.391zm4.369 14.918h2.656v-4.43h.04c.566.863 1.484 1.431 2.89 1.431 2.578 0 4.336-2.058 4.336-5.312 0-3.137-1.7-5.313-4.356-5.313-1.367 0-2.304.647-2.949 1.53h-.058V24.3h-2.56v13.35zm5.02-5.214c-1.582 0-2.422-1.196-2.422-3.019 0-1.803.664-3.234 2.324-3.234 1.64 0 2.305 1.333 2.305 3.234 0 1.902-.86 3.02-2.207 3.02zm10.201 2.215c2.5 0 4.219-1.215 4.219-3.234 0-2.353-1.856-2.823-3.536-3.176-1.425-.294-2.754-.372-2.754-1.235 0-.725.684-1.117 1.72-1.117 1.132 0 1.816.392 1.933 1.47h2.402c-.195-2.02-1.66-3.333-4.297-3.333-2.285 0-4.082 1.04-4.082 3.215 0 2.196 1.758 2.686 3.555 3.039 1.367.274 2.637.372 2.637 1.333 0 .706-.665 1.156-1.836 1.156-1.192 0-2.012-.51-2.188-1.666h-2.46c.155 2.137 1.776 3.548 4.687 3.548zm14.303-.294V24.301h-2.656v5.802c0 1.333-.762 2.274-2.012 2.274-1.132 0-1.66-.647-1.66-1.823v-6.253H92.69v6.704c0 2.196 1.25 3.627 3.476 3.627 1.406 0 2.188-.53 2.871-1.451h.059v1.176h2.558zm1.718 0h2.656v-5.841c0-1.334.723-2.196 1.797-2.196.977 0 1.543.588 1.543 1.725v6.312h2.657v-5.841c0-1.334.683-2.196 1.796-2.196.977 0 1.543.588 1.543 1.725v6.312h2.657v-6.763c0-2.195-1.192-3.568-3.301-3.568-1.27 0-2.324.667-3.008 1.765h-.039c-.488-1.059-1.504-1.765-2.773-1.765-1.387 0-2.364.706-2.911 1.627h-.058v-1.352h-2.559v10.056zM67.8 17.133h2.656V3.116H67.8v14.017zm9.151.294c3.106 0 5.235-2.313 5.235-5.313 0-3-2.13-5.312-5.235-5.312-3.105 0-5.234 2.313-5.234 5.312 0 3 2.129 5.313 5.234 5.313zm0-2.039c-1.64 0-2.539-1.313-2.539-3.274 0-1.96.899-3.293 2.54-3.293 1.62 0 2.538 1.333 2.538 3.293 0 1.96-.918 3.274-2.539 3.274zm10.883 5.175c1.484 0 2.774-.353 3.613-1.137.742-.686 1.192-1.646 1.192-3.058V7.076H90.08v1.059h-.039c-.605-.843-1.523-1.333-2.773-1.333-2.54 0-4.336 1.92-4.336 4.92 0 3.039 2.187 4.803 4.414 4.803 1.27 0 2.031-.51 2.617-1.176h.059v1.098c0 1.372-.723 2.097-2.227 2.097-1.23 0-1.797-.49-2.012-1.117h-2.636c.273 1.96 1.953 3.136 4.687 3.136zm-.039-6.175c-1.367 0-2.266-1-2.266-2.705 0-1.686.899-2.744 2.246-2.744 1.602 0 2.383 1.254 2.383 2.724 0 1.49-.683 2.725-2.363 2.725zm11.301 3.039c3.105 0 5.234-2.313 5.234-5.313 0-3-2.129-5.312-5.234-5.312-3.106 0-5.235 2.313-5.235 5.312 0 3 2.13 5.313 5.235 5.313zm0-2.039c-1.64 0-2.54-1.313-2.54-3.274 0-1.96.9-3.293 2.54-3.293 1.621 0 2.539 1.333 2.539 3.293 0 1.96-.918 3.274-2.54 3.274zm7.562-2.098h11.485v-2.293h-11.485v2.294zm12.327 9.302c0-.45.365-.817.814-.817h1.628a.816.816 0 0 1 0 1.634h-1.628a.816.816 0 0 1-.814-.817z"/><path fill-rule="evenodd" d="M40.935 0c10.73 0 19.429 8.73 19.429 19.5S51.666 39 40.935 39c-10.73 0-19.428-8.73-19.428-19.5S30.205 0 40.935 0zm-.702 1.46c-2.216.312-4.327 2.1-5.965 5.09a20.34 20.34 0 0 0-1.278 2.86c2.228-.563 4.675-.894 7.243-.945V1.459zm-8.885 8.418a22.553 22.553 0 0 1 1.69-4.008c.811-1.482 1.775-2.762 2.861-3.745-5.905 1.722-10.56 6.393-12.275 12.32.98-1.09 2.255-2.057 3.732-2.872a22.378 22.378 0 0 1 3.992-1.695zm-.466 1.648c-.56 2.235-.89 4.692-.941 7.27h-6.98c.312-2.226 2.093-4.344 5.071-5.988a20.19 20.19 0 0 1 2.85-1.282zm.463 7.27c.059-2.814.462-5.455 1.13-7.788 2.324-.67 4.956-1.075 7.758-1.133v3.044a10.356 10.356 0 0 1-5.855 5.876h-3.032zm-1.404 1.409h-6.98c.312 2.225 2.093 4.343 5.071 5.987a20.19 20.19 0 0 0 2.85 1.282c-.56-2.235-.89-4.692-.941-7.27zm2.534 7.787c-.668-2.333-1.072-4.974-1.13-7.787h3.033a10.356 10.356 0 0 1 5.855 5.876v3.044c-2.802-.058-5.434-.463-7.758-1.133zm-1.127 1.13a22.38 22.38 0 0 1-3.992-1.695c-1.477-.815-2.752-1.782-3.732-2.872 1.715 5.927 6.37 10.598 12.275 12.32-1.086-.983-2.05-2.263-2.862-3.745a22.553 22.553 0 0 1-1.689-4.008zm8.885 8.419c-2.216-.313-4.327-2.1-5.965-5.09a20.341 20.341 0 0 1-1.278-2.86c2.228.562 4.675.893 7.243.944v7.006zm5.739-.666c1.085-.983 2.05-2.263 2.862-3.745a22.56 22.56 0 0 0 1.689-4.008 22.384 22.384 0 0 0 3.992-1.695c1.477-.815 2.752-1.782 3.731-2.872-1.715 5.927-6.37 10.598-12.274 12.32zm2.909-7.284a20.341 20.341 0 0 1-1.278 2.86c-1.638 2.99-3.749 4.777-5.965 5.09v-7.006c2.568-.051 5.015-.382 7.243-.944zm2.108-2.117a20.19 20.19 0 0 0 2.85-1.282c2.978-1.644 4.76-3.762 5.071-5.987h-6.98c-.05 2.577-.381 5.034-.94 7.27zm-.464-7.27c-.058 2.814-.461 5.455-1.129 7.788-2.325.67-4.956 1.075-7.758 1.133v-3.042a10.356 10.356 0 0 1 5.855-5.878h3.032zm1.405-1.409h6.98c-.312-2.225-2.093-4.343-5.071-5.987a20.19 20.19 0 0 0-2.85-1.282c.56 2.235.89 4.692.941 7.27zm-2.534-7.787c.668 2.333 1.071 4.974 1.13 7.787h-3.033a10.356 10.356 0 0 1-5.855-5.878V9.875c2.802.058 5.434.463 7.758 1.133zm1.127-1.13c1.458.466 2.8 1.036 3.992 1.695 1.477.815 2.752 1.782 3.731 2.872-1.715-5.927-6.37-10.598-12.274-12.32 1.085.983 2.05 2.263 2.862 3.745a22.56 22.56 0 0 1 1.689 4.008zm-8.885-8.419c2.216.313 4.327 2.1 5.965 5.09a20.34 20.34 0 0 1 1.278 2.86c-2.228-.562-4.675-.893-7.243-.944V1.459z" clip-rule="evenodd"/></g></svg>