<svg xmlns="http://www.w3.org/2000/svg" width="144" height="39" fill="none"><path fill="#0F0F0F" d="M46.167 13.07h3.024V25.2h-3.024V13.07zm4.224 7.55c0-3 1.855-4.79 4.718-4.79 2.862 0 4.717 1.79 4.717 4.79s-1.814 4.8-4.718 4.8c-2.903 0-4.717-1.75-4.717-4.8zm6.401 0c0-1.65-.655-2.62-1.684-2.62-1.028 0-1.673 1-1.673 2.62s.635 2.6 1.673 2.6c1.039 0 1.684-.92 1.684-2.59v-.01zm4.173 5.17h2.904a1.57 1.57 0 0 0 1.633.9c1.149 0 1.754-.62 1.754-1.52v-1.68h-.06a2.857 2.857 0 0 1-1.123 1.239 2.881 2.881 0 0 1-1.63.401c-2.207 0-3.67-1.67-3.67-4.54s1.392-4.68 3.71-4.68a2.912 2.912 0 0 1 1.67.448c.497.315.885.773 1.113 1.312V16h3.024v9.1c0 2.19-1.946 3.55-4.819 3.55-2.67 0-4.334-1.19-4.506-2.85v-.01zm6.3-5.18c0-1.46-.675-2.38-1.743-2.38-1.069 0-1.724.91-1.724 2.38 0 1.47.645 2.3 1.724 2.3 1.078 0 1.744-.81 1.744-2.29v-.01zm4.164 0c0-3 1.855-4.79 4.718-4.79s4.728 1.79 4.728 4.79-1.815 4.8-4.728 4.8-4.718-1.74-4.718-4.79v-.01zm6.401 0c0-1.65-.655-2.62-1.683-2.62s-1.623 1.01-1.623 2.64c0 1.63.635 2.6 1.663 2.6s1.643-.93 1.643-2.6v-.02zm4.194-6.79a1.52 1.52 0 0 1 .238-.857 1.554 1.554 0 0 1 2.369-.289 1.526 1.526 0 0 1 .372 1.662c-.11.282-.304.525-.554.699a1.55 1.55 0 0 1-.853.275 1.482 1.482 0 0 1-1.11-.394 1.46 1.46 0 0 1-.462-1.076v-.02zm0 2.2h3.024v9.18h-3.024v-9.18zm14.002 4.59c0 3-1.34 4.71-3.64 4.71a2.902 2.902 0 0 1-1.68-.41 2.868 2.868 0 0 1-1.142-1.29h-.06v4.52h-3.025V16h3.025v1.64h.06a2.876 2.876 0 0 1 1.12-1.324 2.91 2.91 0 0 1 1.683-.446c2.318.04 3.7 1.76 3.7 4.76l-.041-.02zm-3.024 0c0-1.46-.676-2.39-1.734-2.39-1.059 0-1.734.94-1.744 2.39-.01 1.45.685 2.38 1.744 2.38 1.058 0 1.734-.91 1.734-2.36v-.02zm8.215-4.8c2.51 0 4.033 1.18 4.103 3.07h-2.752c0-.65-.544-1.06-1.381-1.06s-1.21.32-1.21.79c0 .47.333.62 1.009.76l1.935.39c1.845.39 2.631 1.13 2.631 2.52 0 1.9-1.744 3.12-4.314 3.12-2.571 0-4.254-1.22-4.385-3.09h2.913c.09.68.635 1.08 1.522 1.08s1.29-.29 1.29-.77c0-.48-.282-.58-1.008-.73l-1.744-.37c-1.804-.37-2.752-1.32-2.752-2.72.02-1.8 1.643-2.97 4.143-2.97v-.02zm14.426 9.37h-2.914v-1.71h-.06a2.608 2.608 0 0 1-1.001 1.424 2.647 2.647 0 0 1-1.68.486 3.242 3.242 0 0 1-2.487-.959 3.177 3.177 0 0 1-.901-2.49V16h3.025v5.24c0 1.09.564 1.67 1.502 1.67a1.56 1.56 0 0 0 1.162-.52 1.528 1.528 0 0 0 .37-1.21V16h3.024l-.04 9.18zm1.461-9.18h2.924v1.77h.06a2.663 2.663 0 0 1 .982-1.415 2.698 2.698 0 0 1 1.649-.525 2.425 2.425 0 0 1 1.68.502c.476.37.794.905.891 1.498h.06a2.825 2.825 0 0 1 1.077-1.483 2.857 2.857 0 0 1 1.766-.517 2.954 2.954 0 0 1 2.213.892 2.883 2.883 0 0 1 .811 2.229v6.25h-3.024v-5.45c0-1-.453-1.46-1.3-1.46a1.334 1.334 0 0 0-1 .44 1.306 1.306 0 0 0-.321 1.04v5.43h-2.873v-5.49c0-.92-.453-1.42-1.28-1.42a1.353 1.353 0 0 0-1.289.94c-.057.18-.075.371-.052.56v5.41h-3.024l.05-9.2zM37.71 13.62a13.232 13.232 0 0 0-2.016-3.22 13.62 13.62 0 0 0-4.461-3.542 13.726 13.726 0 0 0-11.164-.463 13.646 13.646 0 0 0-4.744 3.159 13.514 13.514 0 0 0-3.023 4.81 13.43 13.43 0 0 0 .843 11.052 13.56 13.56 0 0 0 3.718 4.304 13.223 13.223 0 0 0 3.226 1.83 13.58 13.58 0 0 0 5.11 1 13.725 13.725 0 0 0 9.643-3.979A13.505 13.505 0 0 0 38.84 19a13.3 13.3 0 0 0-1.13-5.38zM25.19 8.19c1.574 0 3.129.341 4.556 1-.348.15-.714.253-1.089.31a5.793 5.793 0 0 0-3.256 1.62 5.713 5.713 0 0 0-1.633 3.23 2.99 2.99 0 0 1-.89 1.807 3.035 3.035 0 0 1-1.841.843 5.793 5.793 0 0 0-3.257 1.62 5.713 5.713 0 0 0-1.633 3.23 2.9 2.9 0 0 1-.796 1.74 10.725 10.725 0 0 1 .644-10.4 10.852 10.852 0 0 1 3.952-3.684A10.956 10.956 0 0 1 25.2 8.17l-.01.02zM16.853 26c.121-.11.242-.21.363-.33a5.464 5.464 0 0 0 1.633-3.23 2.91 2.91 0 0 1 .877-1.82 2.863 2.863 0 0 1 1.825-.86 5.793 5.793 0 0 0 3.256-1.62 5.713 5.713 0 0 0 1.633-3.23 2.91 2.91 0 0 1 .877-1.91 2.904 2.904 0 0 1 1.845-.83 5.543 5.543 0 0 0 3.024-1.43c.95.782 1.755 1.723 2.379 2.78a.868.868 0 0 1-.131.14 2.902 2.902 0 0 1-1.825.88 5.774 5.774 0 0 0-3.26 1.616 5.693 5.693 0 0 0-1.63 3.234 2.99 2.99 0 0 1-.873 1.82 3.034 3.034 0 0 1-1.838.86 5.824 5.824 0 0 0-3.27 1.616 5.744 5.744 0 0 0-1.65 3.234 3.124 3.124 0 0 1-.493 1.37A10.96 10.96 0 0 1 16.853 26zm8.337 3.86a11 11 0 0 1-3.024-.42c.336-.622.555-1.3.645-2a2.99 2.99 0 0 1 .87-1.817 3.035 3.035 0 0 1 1.831-.863 5.794 5.794 0 0 0 3.263-1.617 5.714 5.714 0 0 0 1.637-3.233 2.99 2.99 0 0 1 .87-1.817 3.035 3.035 0 0 1 1.831-.863 5.783 5.783 0 0 0 2.58-1c.426 1.598.476 3.271.148 4.891a10.78 10.78 0 0 1-2.04 4.456 10.888 10.888 0 0 1-3.81 3.108 10.979 10.979 0 0 1-4.801 1.125v.05z" opacity=".96"/></svg>