<svg xmlns="http://www.w3.org/2000/svg" width="144" height="39" fill="none"><g fill="#0F0F0F" opacity=".96"><path d="M52.415 24.137V10.914h-2.15v13.223h2.15zm1.315-4.408c0 2.701 1.798 4.62 4.53 4.62 2.731 0 4.529-1.919 4.529-4.62 0-2.702-1.798-4.621-4.53-4.621-2.73 0-4.529 1.92-4.529 4.62zm2.168 0c0-1.582.934-2.684 2.362-2.684 1.427 0 2.361 1.102 2.361 2.684 0 1.564-.934 2.684-2.361 2.684-1.428 0-2.362-1.12-2.362-2.684zm7.614-.178c0 2.56 1.639 4.408 4.088 4.408 1.27 0 2.362-.516 2.908-1.369v1.493c0 1.44-.899 2.4-2.397 2.4-1.339 0-2.255-.658-2.379-1.814h-2.167c.282 2.293 2.026 3.786 4.423 3.786 2.82 0 4.617-1.866 4.617-4.763v-8.335h-1.903l-.123 1.19c-.529-.924-1.622-1.475-2.908-1.475-2.485 0-4.16 1.902-4.16 4.479zm2.185-.053c0-1.458.916-2.524 2.273-2.524 1.48 0 2.468 1.084 2.468 2.524 0 1.457-.987 2.577-2.468 2.577-1.339 0-2.273-1.102-2.273-2.577zm7.973.231c0 2.701 1.797 4.62 4.53 4.62 2.73 0 4.528-1.919 4.528-4.62 0-2.702-1.797-4.621-4.529-4.621-2.731 0-4.53 1.92-4.53 4.62zm2.168 0c0-1.582.934-2.684 2.361-2.684 1.428 0 2.362 1.102 2.362 2.684 0 1.564-.934 2.684-2.362 2.684-1.427 0-2.361-1.12-2.361-2.684zm9.217-6.168c.705 0 1.286-.568 1.286-1.297 0-.71-.581-1.28-1.286-1.28-.723 0-1.269.57-1.269 1.28 0 .729.546 1.297 1.269 1.297zM83.98 24.136h2.15v-8.78h-2.15v8.78zm4.034 4.07h2.097v-5.278c.546.906 1.727 1.44 3.031 1.44 2.573 0 4.107-1.991 4.071-4.728-.053-2.755-1.621-4.55-4.088-4.55-1.322 0-2.52.586-3.05 1.6l-.123-1.334h-1.938v12.85zm2.185-8.46c0-1.581.952-2.683 2.45-2.683 1.498 0 2.397 1.12 2.397 2.683 0 1.564-.9 2.666-2.397 2.666-1.498 0-2.45-1.084-2.45-2.666zm7.56 1.76c.07 1.741 1.41 2.861 3.489 2.861 2.045 0 3.437-1.102 3.437-2.808 0-1.262-.776-2.115-2.203-2.47l-1.533-.373c-.652-.178-1.093-.41-1.093-.978 0-.604.476-1.03 1.251-1.03.811 0 1.34.461 1.34 1.226h1.956c-.071-1.742-1.357-2.844-3.243-2.844-1.868 0-3.26 1.102-3.26 2.772 0 1.138.652 2.08 2.326 2.524l1.516.391c.564.16.916.427.916.924 0 .693-.652 1.013-1.445 1.013-.952 0-1.498-.444-1.498-1.208h-1.956zm11.386 2.861c1.181 0 2.309-.55 2.82-1.368l.141 1.137h2.009v-8.78h-2.15v4.604c0 1.581-.6 2.47-2.009 2.47-1.093 0-1.851-.533-1.851-2.346v-4.728h-2.15v5.492c0 2.097 1.128 3.52 3.19 3.52zm9.017-.231V19.09c0-1.422.828-2.098 1.85-2.098 1.022 0 1.692.658 1.692 1.902v5.243h2.097v-5.03c0-1.44.811-2.115 1.833-2.115 1.04 0 1.71.658 1.71 1.902v5.243h2.079v-5.74c0-2.027-1.11-3.306-3.225-3.306-1.322 0-2.361.64-2.784 1.67-.476-1.03-1.428-1.67-2.873-1.67-1.022 0-1.939.48-2.45 1.262l-.105-.996h-1.974v8.78h2.15zm-5.155 7.847a.607.607 0 0 0 .599-.595.609.609 0 0 0-.599-.604.611.611 0 0 0-.607.604.61.61 0 0 0 .607.595zm1.217-2.193c0 1.3.792 2.175 1.947 2.175.994 0 1.753-.603 1.913-1.504h-.759c-.143.501-.581.799-1.104.799-.742 0-1.214-.578-1.214-1.48 0-.917.498-1.478 1.231-1.478.506 0 .944.272 1.079.807h.758c-.134-.91-.842-1.521-1.829-1.521-1.196 0-2.022.892-2.022 2.201zm4.159-.009c0 1.25.843 2.185 2.107 2.185 1.264 0 2.107-.935 2.107-2.185s-.843-2.184-2.107-2.184c-1.264 0-2.107.935-2.107 2.184zm.801 0c0-.85.514-1.47 1.306-1.47s1.306.62 1.306 1.47-.514 1.47-1.306 1.47-1.306-.62-1.306-1.47zm4.883 2.091v-2.499c0-.654.404-1.08.994-1.08.565 0 .919.366.919 1.02v2.56h.775v-2.491c0-.663.397-1.088.995-1.088.556 0 .91.365.91 1.02v2.558h.767v-2.728c0-.96-.556-1.547-1.5-1.547-.641 0-1.138.314-1.34.824-.211-.51-.674-.824-1.349-.824-.514 0-.969.238-1.197.646l-.059-.527h-.708v4.156h.793z"/><path fill-rule="evenodd" d="m14.532 19.836.002-.154.003-.155.004-.155.007-.155.007-.155.01-.155.01-.155.013-.155.014-.155.016-.154.017-.155.019-.154.02-.155.022-.154.024-.154.025-.154.027-.154.028-.153.03-.154.031-.153.033-.153.035-.152.036-.152.038-.152.04-.152.04-.151.042-.151.044-.15.046-.151.047-.15.048-.15.05-.149.052-.148.053-.148.055-.148.056-.147.058-.147.059-.146.06-.146.063-.145.064-.144.065-.144.067-.143.068-.143.07-.143.07-.141.073-.14.074-.141.076-.14.077-.138.078-.139.08-.137.081-.137.083-.136.084-.135.086-.134.087-.134.088-.133.09-.131.09-.132.093-.13.094-.13.095-.128.097-.127.098-.127.099-.126.1-.125.102-.124.103-.123.104-.122.106-.12.107-.12.108-.12.11-.118.11-.117.112-.116.113-.114.115-.114.115-.113.117-.111.118-.11.119-.11.12-.108.122-.107.122-.106.124-.105.124-.104.126-.102.127-.101.128-.1.13-.099.13-.097.13-.096.133-.095.133-.094.134-.092.135-.091.136-.09.138-.089.138-.087.139-.086.14-.084.14-.083.142-.082.143-.08.144-.08.144-.077.145-.077.146-.074.147-.074.148-.072.148-.07.15-.07.15-.067.15-.066.152-.065.152-.063.153-.062.153-.06.154-.06.155-.057.156-.055.156-.055.157-.052.157-.052.158-.05.159-.047.159-.047.16-.045.16-.044.16-.042.161-.04.162-.039.162-.037.162-.035.163-.034.163-.033.164-.03.164-.03.164-.027.165-.026.165-.025.165-.022.166-.022.166-.019.166-.018.167-.016.166-.015.167-.013.167-.01.899-.053.05 4.365h.278l.124.003.125.004.124.004.124.006.124.008.124.008.124.01.125.01.124.013.124.013.124.015.123.016.124.017.124.018.123.02.124.02.123.022.123.024.123.024.123.026.122.027.123.028.122.03.122.03.121.032.122.033.12.034.121.036.12.036.121.038.12.04.12.04.119.041.118.043.119.044.118.045.117.046.118.048.116.048.117.05.116.051.115.053.115.053.115.055.114.055.113.057.113.058.112.06.112.06.112.061.11.063.11.063.11.065.109.066.108.067.108.069.107.069.107.07.105.072.106.072.104.074.104.075.103.075.102.077.101.078.101.079.1.08.1.08.098.083.098.083.097.084.096.085.095.086.095.087.093.088.093.089.092.09.09.09.091.092.09.093.088.094.087.094.087.096.085.096.085.098.084.098.082.099.082.1.081.1.08.102.079.103.078.103.077.104.075.105.075.106.074.106.073.108.071.108.07.109.07.11.069.11.067.11.066.113.065.112.064.113.063.114.062.115.06.115.06.116.058.116.057.118.056.117.055.119.054.119.053.12.05.12.05.12.05.121.047.122.047.123.045.123.044.123.043.124.041.124.04.125.04.125.037.126.037.126.035.127.034.127.033.127.031.128.03.128.03.129.027.129.026.129.025.13.023.13.023.13.02.13.02.13.019.131.017.131.016.132.014.131.013.132.012.132.01.133.01.132.007.132.006.133.005.133.004.133.002.133.001.133v.133l-.002.133-.003.133-.005.134-.005.133-.008.133-.008.133-.01.134-.011.133-.013.133-.014.133-.015.133-.017.133-.018.133-.02.133-.02.133-.022.132-.024.132-.025.132-.026.132-.028.132-.028.132-.03.131-.032.131-.033.13-.035.131-.035.13-.037.13-.039.13-.04.13-.04.129-.043.128-.043.129-.045.128-.047.127-.047.127-.05.127-.05.126-.051.126-.053.126-.054.125-.056.124-.056.124-.059.124-.059.123-.06.122-.062.122-.064.121-.064.121-.066.12-.067.12-.068.119-.07.118-.07.118-.072.117-.073.116-.074.116-.076.115-.076.115-.078.113-.08.113-.08.112-.081.112-.083.11-.084.11-.085.11-.086.108-.087.108-.089.106-.09.106-.09.105-.092.105-.093.103-.094.103-.095.101-.096.101-.097.1-.098.099-.1.098-.1.097-.101.096-.102.095-.104.094-.104.093-.106.092-.106.092-.108.09-.108.089-.11.088-.11.087-.11.086-.113.085-.113.084-.114.083-.114.082-.116.08-.117.08-.117.078-.118.077-.12.077-.12.075-.12.073-.122.073-.122.072-.123.07-.124.069-.125.068-.125.067-.126.065-.127.065-.128.063-.128.061-.129.061-.13.06-.13.058-.13.056-.132.056-.133.054-.132.053-.134.052-.134.05-.134.05-.135.047-.136.047-.136.045-.137.044-.137.042-.138.041-.138.04-.139.039-.139.037-.14.036-.14.034-.14.033-.14.032-.142.03-.141.029-.142.027-.142.026-.143.025-.143.024-.143.021-.143.02-.144.02-.144.018-.144.016-.145.015-.144.013-.145.012-.145.01-.146.01-.145.008-.145.006-.146.005-.146.003-.146.002h-.292l-.146-.003-.146-.004-.146-.005-.146-.007-.146-.008-.146-.01-.146-.01-.146-.013-.146-.014-.146-.015-.146-.017-.145-.018-.146-.02-.145-.022-.146-.022-.145-.024-.145-.026-.144-.027-.145-.028-.144-.03-.144-.032-.144-.032-.143-.034-.144-.036-.142-.037-.143-.039-.142-.04-.142-.04-.142-.044-.14-.044-.142-.045-.14-.047-.14-.049-.14-.05-.139-.05-.138-.053-.138-.054-.138-.056-.137-.057-.137-.058-.136-.06-.135-.06-.135-.063-.135-.063-.134-.065-.133-.067-.132-.067-.132-.07-.132-.07-.13-.071-.13-.073-.13-.075-.128-.075-.128-.077-.127-.078-.127-.08-.125-.08-.125-.083-.124-.083-.123-.085-.123-.086-.122-.087-.12-.088-.12-.09-.12-.09-.118-.093-.117-.093-.116-.094-.116-.096-.115-.097-.113-.098-.113-.099-.112-.1-.11-.102-.11-.102-.11-.104-.107-.105-.107-.106-.106-.107-.104-.108-.104-.11-.103-.11-.101-.11-.1-.113-.1-.114-.098-.114-.097-.116-.096-.116-.095-.118-.093-.118-.093-.12-.091-.12-.09-.121-.09-.123-.087-.123-.086-.124-.086-.125-.084-.126-.082-.127-.082-.128-.08-.128-.08-.13-.077-.13-.076-.131-.075-.132-.074-.133-.073-.133-.07-.134-.07-.135-.07-.136-.066-.136-.066-.138-.064-.137-.063-.139-.062-.14-.06-.14-.06-.14-.057-.141-.056-.142-.054-.142-.053-.143-.052-.144-.05-.144-.05-.145-.047-.145-.046-.146-.044-.146-.043-.147-.042-.148-.04-.148-.038-.148-.037-.148-.036-.15-.034-.15-.033-.15-.03-.15-.03-.15-.028-.151-.027-.151-.025-.152-.023-.152-.022-.152-.02-.153-.02-.153-.017-.153-.015-.153-.014-.154-.013-.154-.011-.153-.01-.154-.008-.155-.006-.154-.005-.155-.003-.154-.002-.155v-.155zM29.38 8.502l-.035-2.975-.033.003-.152.016-.152.018-.152.02-.151.02-.151.022-.151.024-.15.025-.151.027-.15.028-.15.03-.148.031-.15.033-.147.034-.148.035-.148.037-.147.039-.146.04-.146.04-.146.043-.145.044-.144.046-.144.047-.144.048-.143.05-.142.05-.142.053-.14.054-.141.055-.14.057-.14.058-.138.059-.138.06-.137.062-.137.063-.135.065-.135.066-.135.067-.133.068-.133.07-.132.071-.131.072-.13.074-.13.075-.129.076-.128.077-.127.078-.126.08-.126.081-.124.082-.124.083-.122.085-.122.085-.121.087-.12.088-.119.09-.118.09-.117.09-.116.093-.115.094-.114.094-.113.096-.112.097-.11.097-.11.1-.11.1-.107.1-.106.102-.106.103-.104.104-.104.105-.102.106-.101.106-.1.108-.099.109-.097.11-.097.11-.095.111-.094.112-.093.114-.092.114-.09.114-.09.116-.088.117-.087.117-.085.118-.085.119-.083.12-.082.12-.08.121-.08.122-.078.123-.076.123-.076.124-.074.125-.073.125-.072.126-.07.127-.069.127-.067.128-.066.129-.065.129-.064.13-.062.13-.06.13-.06.132-.058.131-.057.133-.056.133-.054.133-.052.134-.052.134-.05.134-.048.136-.047.135-.046.136-.044.136-.043.137-.041.136-.04.138-.039.137-.037.138-.036.139-.034.138-.033.139-.031.139-.03.139-.03.14-.026.14-.026.139-.024.14-.023.14-.022.14-.02.141-.018.14-.018.141-.015.141-.015.141-.012.141-.012.141-.01.141-.008.141-.007.141-.006.141-.004.141-.003.141-.001.141v.141l.001.141.003.14.004.142.006.14.008.14.008.14.01.14.012.14.013.14.014.14.016.139.017.14.018.138.02.139.022.138.022.138.024.137.026.138.027.137.028.137.03.136.03.136.033.135.034.136.035.135.036.134.038.134.04.133.04.134.041.132.043.132.045.132.046.13.047.131.048.13.05.13.05.129.053.128.053.128.055.127.056.127.057.125.059.126.06.124.06.124.063.124.063.122.064.122.066.121.067.12.069.12.069.12.07.118.072.117.073.117.074.116.075.115.077.115.077.113.079.113.08.112.08.11.082.111.082.11.084.108.085.107.087.107.087.106.088.105.089.103.09.103.091.102.092.101.093.1.094.1.095.098.096.097.097.096.098.095.098.094.1.093.1.092.102.091.102.09.103.089.104.088.105.086.105.086.107.084.107.084.108.082.109.081.11.08.11.08.11.077.112.077.113.075.113.075.114.073.114.072.116.071.115.07.117.068.117.068.118.066.118.065.119.063.12.063.12.061.12.06.121.06.122.057.122.056.123.055.123.054.124.053.124.051.125.05.125.05.125.047.126.046.126.045.127.044.127.043.128.041.127.04.128.039.129.037.129.036.128.035.13.034.13.032.13.03.13.03.13.029.13.027.13.026.131.024.131.023.132.022.131.02.132.02.131.017.132.017.131.015.132.014.132.013.132.011.132.01.132.009.133.007.132.006.132.005.132.003.132.002.131.001h.132l.132-.002.132-.003.131-.004.132-.006.131-.007.131-.008.131-.01.131-.01.13-.013.131-.013.13-.015.13-.016.13-.017.13-.018.129-.02.129-.021.129-.023.128-.023.128-.025.128-.026.127-.027.127-.029.127-.03.126-.03.126-.033.126-.034.125-.034.124-.036.125-.037.124-.039.123-.04.123-.04.122-.042.122-.043.121-.044.121-.046.12-.046.12-.048.12-.049.118-.05.118-.051.117-.053.117-.053.117-.055.115-.056.115-.056.115-.059.113-.058.113-.06.113-.062.111-.062.111-.064.11-.064.11-.066.109-.066.108-.068.107-.068.107-.07.105-.07.105-.072.104-.073.104-.073.102-.075.102-.075.101-.077.1-.077.1-.079.098-.079.097-.08.097-.081.096-.083.095-.082.094-.084.093-.085.092-.086.091-.086.09-.087.09-.089.088-.089.088-.09.086-.09.085-.091.085-.093.084-.093.082-.093.082-.095.08-.095.08-.096.078-.097.078-.097.076-.099.075-.098.075-.1.073-.1.072-.1.071-.102.07-.102.07-.103.067-.104.067-.104.066-.104.064-.106.064-.105.062-.107.061-.107.06-.107.06-.108.057-.108.057-.11.056-.11.054-.109.053-.11.053-.111.05-.112.05-.111.049-.113.047-.112.047-.113.045-.114.044-.113.043-.115.041-.114.04-.115.04-.115.038-.115.037-.116.035-.116.035-.117.033-.116.032-.117.03-.117.03-.117.029-.118.027-.118.026-.118.024-.118.024-.118.022-.119.021-.118.02-.119.019-.119.017-.119.016-.119.015-.119.014-.12.012-.119.012-.12.01-.118.009-.12.007-.12.007-.119.005-.12.004-.119.003-.119.001-.12v-.238l-.002-.119-.003-.119-.005-.118-.006-.12-.007-.118-.008-.119-.009-.118-.01-.118-.012-.118-.013-.118-.014-.117-.015-.118-.017-.117-.017-.117-.02-.117-.02-.116-.02-.116-.023-.116-.023-.116-.025-.115-.025-.115-.027-.114-.028-.115-.03-.114-.03-.113-.032-.113-.032-.113-.034-.113-.035-.111-.036-.112-.037-.111-.038-.111-.04-.11-.04-.11-.041-.11-.043-.108-.044-.109-.044-.108-.046-.107-.047-.107-.048-.106-.049-.106-.05-.105-.051-.105-.052-.104-.053-.103-.054-.103-.056-.103-.056-.101-.057-.101-.058-.1-.06-.1-.059-.1-.061-.098-.062-.098-.063-.097-.064-.097-.065-.095-.066-.096-.066-.094-.068-.094-.069-.092-.07-.093-.07-.091-.07-.09-.073-.09-.073-.09-.074-.088-.074-.088-.076-.086-.076-.086-.077-.086-.078-.084-.079-.083-.08-.083-.08-.082-.081-.08-.082-.08-.083-.08-.083-.079-.084-.077-.085-.077-.086-.075-.086-.075-.087-.074-.088-.073-.088-.072-.09-.072-.09-.07-.09-.07-.09-.068-.092-.067-.093-.066-.093-.066-.093-.065-.094-.063-.095-.063-.095-.061-.096-.061-.097-.06-.097-.059-.097-.057-.098-.057-.099-.056-.098-.054-.1-.054-.1-.053-.1-.051-.101-.05-.102-.05-.102-.049-.102-.047-.102-.047-.103-.045-.107-.046-.1-.042-.105-.042-.104-.041-.105-.04-.105-.04-.106-.037-.106-.037-.106-.036-.107-.035-.106-.033-.107-.033-.108-.031-.107-.031-.108-.03-.108-.028-.108-.027-.109-.026-.108-.025-.109-.024-.109-.023L33.02 10l-.11-.021-.108-.02-.11-.018-.11-.017-.11-.017-.11-.015-.11-.014-.109-.013-.11-.012-.11-.01-.11-.01-.11-.009-.11-.007-.11-.007-.11-.005-.111-.004-.11-.003-.11-.002-.11-.001H30.8l.035 2.954h.142l.081.001.08.002.081.003.08.004.081.004.08.006.081.006.08.007.082.007.08.009.08.01.081.01.08.01.081.012.08.012.08.014.081.014.08.015.08.016.08.017.08.017.08.018.08.02.08.02.078.02.08.021.079.022.079.024.078.023.079.025.078.026.078.026.078.027.078.028.078.029.077.029.077.03.077.031.076.032.077.033.075.033.076.034.076.035.075.036.075.037.074.037.074.038.074.039.073.04.074.04.072.041.073.042.072.043.072.043.071.044.07.045.071.046.07.046.07.047.07.048.068.049.069.049.067.05.068.05.067.052.066.052.066.053.066.053.065.055.064.055.064.055.064.056.063.057.063.058.061.058.062.06.06.059.06.06.06.061.06.062.058.062.058.063.057.063.057.064.056.065.055.065.055.066.054.066.054.067.053.068.052.068.052.069.05.07.051.07.05.07.049.07.048.072.047.072.047.073.046.073.046.074.045.074.044.075.043.075.042.075.042.076.041.077.04.077.04.078.039.077.038.079.037.079.036.079.036.08.035.08.034.08.033.081.033.081.031.082.031.082.03.082.03.083.028.083.027.084.027.084.026.084.025.084.024.085.024.085.022.085.022.086.02.086.02.086.02.087.018.086.017.087.016.087.016.088.015.088.013.087.013.088.012.089.011.088.01.089.01.088.008.09.008.088.007.09.005.089.005.09.004.089.003.09.002.09.001.09v.179l-.002.09-.002.09-.004.09-.004.09-.006.09-.006.09-.007.091-.008.09-.009.09-.01.09-.01.09-.013.09-.012.09-.014.09-.014.09-.016.09-.017.09-.017.09-.018.09-.02.088-.02.09-.02.089-.023.089-.022.089-.024.088-.025.089-.026.088-.026.088-.028.088-.028.088-.03.087-.03.087-.03.087-.033.087-.033.087-.034.086-.035.086-.035.085-.037.086-.038.085-.038.085-.04.084-.04.084-.04.084-.042.083-.043.083-.044.083-.044.082-.046.082-.046.082-.047.08-.048.081-.05.08-.05.08-.05.08-.051.079-.052.078-.054.078-.053.078-.055.077-.056.076-.056.077-.058.075-.058.075-.058.075-.06.074-.06.073-.062.073-.062.072-.063.072-.063.071-.065.071-.065.07-.066.07-.066.068-.068.069-.068.067-.069.067-.07.066-.07.066-.07.065-.072.064-.073.064-.073.063-.074.062-.074.062-.075.06-.076.061-.077.06-.077.058-.078.058-.079.058-.079.056-.08.056-.08.055-.08.055-.083.053-.082.053-.082.052-.084.051-.084.05-.084.05-.085.049-.086.048-.086.047-.087.047-.087.045-.088.045-.088.043-.09.044-.088.042-.09.04-.09.041-.091.04-.092.038-.091.038-.092.037-.093.036-.093.035-.093.035-.094.033-.094.032-.095.032-.095.03-.095.03-.096.029-.096.027-.096.027-.097.026-.097.025-.098.024-.097.023-.098.022-.099.022-.098.02-.099.019-.1.018-.099.018-.1.016-.099.015-.1.015-.1.013-.1.013-.101.01-.101.011-.101.01-.101.008-.102.008-.101.006-.102.005-.101.005-.102.003-.102.003h-.102l-.102.001h-.102l-.102-.002-.103-.003-.102-.003-.102-.005-.103-.006-.102-.006-.102-.008-.103-.009-.102-.01-.102-.01-.102-.012-.103-.013-.102-.014-.102-.015-.102-.016-.101-.017-.102-.018-.102-.019-.101-.02-.102-.021-.1-.022-.102-.023-.1-.024-.101-.025-.1-.026-.101-.027-.1-.029-.1-.029-.1-.03-.099-.031-.099-.032-.099-.033-.098-.035-.099-.035-.098-.036-.097-.037-.098-.038-.096-.04-.097-.04-.096-.04-.096-.043-.096-.043-.095-.044-.095-.045-.094-.046-.094-.047-.094-.048-.093-.049-.093-.05-.092-.05-.092-.052-.091-.052-.091-.054-.09-.055-.09-.055-.09-.056-.088-.058-.089-.058-.087-.06-.088-.06-.086-.06-.086-.062-.086-.063-.085-.063-.084-.065-.084-.065-.083-.066-.082-.068-.082-.067-.081-.07-.08-.069-.08-.07-.08-.072-.078-.072-.078-.073-.078-.074-.076-.074-.076-.076-.075-.076-.074-.077-.073-.078-.073-.078-.072-.08-.071-.08-.07-.08-.07-.082-.07-.082-.067-.084-.068-.083-.066-.085-.066-.085-.065-.086-.064-.087-.063-.087-.062-.088-.062-.088-.06-.09-.06-.09-.059-.09-.058-.092-.057-.091-.056-.093-.055-.093-.054-.094-.054-.094-.052-.095-.052-.095-.05-.096-.05-.097-.049-.097-.047-.098-.047-.098-.046-.099-.044-.099-.044-.1-.043-.1-.042-.1-.04-.102-.04-.101-.04-.103-.037-.102-.037-.103-.035-.104-.035-.103-.034-.104-.032-.105-.032-.105-.03-.105-.03-.106-.028-.106-.028-.107-.026-.107-.025-.107-.024-.107-.023-.108-.022-.108-.021-.108-.02-.108-.018-.11-.018-.108-.017-.11-.015-.11-.014-.109-.013-.11-.012-.11-.011-.11-.01-.11-.009-.111-.007-.111-.007-.111-.005-.111-.004-.111-.003-.111-.002-.112v-.223l.001-.111.003-.112.003-.112.005-.111.006-.112.008-.112.008-.111.01-.112.01-.112.012-.111.013-.112.014-.111.015-.112.016-.111.018-.111.018-.111.02-.111.021-.111.022-.111.023-.11.025-.111.025-.11.027-.11.027-.11.03-.11.03-.109.03-.11.033-.108.033-.109.035-.108.035-.108.037-.108.038-.107.039-.108.04-.106.041-.107.043-.106.043-.106.045-.105.045-.105.047-.105.048-.104.049-.104.05-.103.05-.103.053-.103.053-.102.054-.101.056-.102.056-.1.058-.1.058-.1.06-.099.06-.098.062-.098.063-.098.064-.097.064-.096.066-.096.067-.095.067-.094.07-.094.069-.093.07-.093.073-.092.072-.091.074-.09.075-.09.075-.09.077-.088.077-.088.079-.087.079-.087.08-.085.082-.085.082-.084.082-.084.084-.082.085-.082.086-.081.086-.08.088-.08.088-.078.09-.078.09-.077.09-.076.091-.075.093-.074.093-.074.094-.072.095-.072.095-.07.097-.07.097-.07.098-.067.098-.068.1-.066.1-.065.1-.064.102-.063.102-.063.103-.061.104-.06.104-.06.105-.058.106-.057.106-.057.107-.055.107-.054.108-.053.109-.053.109-.05.11-.05.11-.05.111-.048.112-.047.112-.045.112-.045.113-.044.114-.042.114-.042.114-.04.115-.039.116-.038.116-.037.116-.036.117-.035.117-.033.118-.033.118-.03.118-.03.119-.03.119-.028.12-.026.12-.026.12-.024.12-.023.12-.022.121-.02.122-.02.121-.019.122-.017.122-.016.045-.005zm.052 4.38-.035-2.986-.1.015-.108.016-.107.017-.107.018-.107.02-.107.02-.106.022-.106.022-.106.024-.105.024-.105.026-.105.027-.104.027-.1.028-.108.03-.103.031-.103.032-.102.033-.103.033-.101.035-.102.036-.1.036-.1.038-.1.038-.1.04-.1.04-.098.042-.098.042-.097.043-.097.045-.097.045-.096.046-.095.047-.095.048-.094.049-.094.05-.093.05-.093.052-.092.052-.091.053-.091.054-.09.055-.09.056-.09.057-.087.057-.088.059-.087.059-.086.06-.086.06-.085.062-.084.063-.084.063-.083.064-.082.064-.082.066-.08.066-.08.067-.08.068-.078.069-.078.069-.077.07-.076.07-.076.072-.075.072-.073.073-.073.073-.073.074-.071.075-.071.075-.07.077-.069.076-.068.078-.068.078-.066.078-.066.08-.065.08-.064.08-.063.08-.062.082-.062.082-.06.082-.06.084-.058.083-.058.084-.057.085-.056.085-.055.086-.055.086-.053.087-.052.087-.052.087-.05.088-.05.089-.049.088-.047.09-.047.09-.046.09-.045.09-.044.091-.043.091-.042.092-.04.092-.04.092-.04.093-.038.092-.037.094-.036.093-.036.094-.034.094-.033.094-.032.095-.032.095-.03.095-.03.095-.028.096-.027.096-.026.095-.026.097-.024.096-.023.096-.023.097-.021.097-.02.097-.02.097-.018.097-.017.097-.017.098-.015.097-.014.098-.014.097-.012.098-.011.098-.01.098-.01.097-.008.098-.007.098-.007.098-.005.098-.004.097-.004.098-.002.098-.001.098v.195l.002.097.002.098.004.097.005.097.005.097.007.097.008.097.008.096.01.097.01.096.012.096.012.096.014.096.014.095.015.095.017.096.017.095.018.094.02.094.02.095.02.093.023.094.023.093.023.093.025.093.026.092.026.092.028.092.029.09.029.092.03.09.031.09.032.09.033.09.034.09.035.088.035.088.037.088.037.087.038.087.04.087.04.086.04.085.042.085.042.085.043.084.044.084.045.083.046.083.046.082.048.082.048.08.049.081.05.08.05.08.051.079.052.078.053.078.053.077.054.076.055.076.056.076.056.074.058.075.057.073.059.073.06.072.059.072.06.07.062.071.062.07.062.069.064.068.064.067.064.067.065.067.066.065.066.065.067.064.068.064.068.062.069.062.07.061.07.06.07.06.07.06.072.058.073.057.072.057.073.056.074.055.074.055.075.053.075.053.075.052.077.051.076.05.077.05.078.05.078.048.078.047.079.046.079.046.08.045.08.044.08.043.08.042.081.042.082.04.081.04.083.04.082.037.083.038.083.036.083.035.084.035.084.034.084.033.084.032.085.032.085.03.085.03.086.028.086.028.085.027.087.026.086.025.086.025.087.023.087.023.087.021.087.021.087.02.087.02.088.017.088.018.087.016.088.015.088.015.088.014.088.013.088.012.088.01.089.011.088.01.088.008.088.007.089.007.088.006.088.005.088.004.088.003.089.002.088.002h.176l.088-.001.087-.002.088-.003.088-.004.087-.005.087-.005.088-.007.087-.007.087-.008.086-.009.087-.01.087-.01.086-.012.086-.012.086-.014.085-.014.086-.014.085-.016.085-.017.085-.017.084-.018.084-.02.084-.02.084-.02.084-.021.083-.022.083-.023.082-.024.082-.025.082-.026.082-.026.081-.027.08-.028.081-.028.08-.03.08-.03.08-.03.079-.032.078-.033.079-.033.077-.034.078-.034.077-.036.076-.036.076-.037.076-.037.075-.039.075-.039.075-.04.073-.04.074-.04.073-.043.072-.042.072-.043.071-.044.071-.045.07-.045.07-.046.07-.046.069-.047.068-.048.067-.049.068-.049.066-.05.066-.05.066-.05.064-.052.065-.052.064-.053.063-.053.062-.054.062-.054.061-.055.061-.056.06-.056.06-.056.058-.058.058-.057.058-.058.057-.06.056-.058.056-.06.054-.06.055-.061.053-.061.053-.062.053-.062.051-.063.05-.063.051-.063.05-.064.048-.065.048-.065.048-.065.046-.065.047-.067.045-.066.044-.067.044-.067.043-.068.042-.068.042-.068.041-.069.04-.069.04-.07.038-.069.038-.07.037-.07.037-.07.035-.072.035-.07.035-.072.033-.072.032-.072.032-.072.031-.073.03-.073.03-.072.03-.074.027-.073.027-.074.027-.074.025-.074.025-.074.024-.074.024-.075.022-.075.022-.074.021-.076.02-.075.02-.075.018-.075.018-.076.017-.076.017-.075.015-.076.015-.076.014-.076.013-.076.012-.076.012-.076.01-.076.01-.077.01-.076.008-.076.008-.076.006-.077.007-.076.005-.076.004-.077.004-.076.003-.076.002-.076.001-.076.001-.076v-.076l-.001-.076-.002-.076-.003-.076-.003-.075-.004-.076-.005-.075-.005-.076-.007-.075-.007-.075-.008-.075-.008-.074-.01-.075-.01-.074-.01-.075-.012-.074-.012-.073-.014-.074-.014-.073-.014-.074-.016-.073-.015-.073-.017-.072-.018-.073-.018-.072-.019-.072-.02-.071-.02-.072-.021-.07-.022-.071-.022-.071-.023-.07-.024-.07-.025-.07-.025-.069-.026-.069-.027-.068-.027-.069-.028-.068-.029-.067-.029-.068-.03-.067-.03-.066-.032-.066-.032-.066-.032-.066-.033-.065L37 17.87l-.034-.064-.035-.064-.036-.064-.036-.063-.037-.062-.038-.063-.038-.061-.038-.061-.04-.061-.04-.06-.04-.06-.04-.06-.042-.059-.042-.059-.043-.058-.043-.057-.044-.057-.044-.057-.045-.056-.045-.055-.046-.056-.047-.054-.047-.054-.047-.054-.048-.053-.048-.052-.049-.052-.05-.052-.05-.05-.05-.05-.05-.05-.051-.05-.052-.048-.052-.048-.053-.048-.053-.047-.053-.046-.054-.046-.054-.045-.055-.045-.055-.044-.055-.043-.056-.043-.056-.042-.057-.042-.057-.041-.057-.04-.058-.04-.058-.04-.058-.038-.059-.038-.059-.037-.059-.037-.06-.036-.06-.036-.06-.035-.06-.034-.061-.033-.061-.033-.062-.032-.061-.032-.062-.031-.062-.03-.063-.03-.062-.03-.063-.028-.063-.027-.063-.027-.064-.027-.063-.026-.064-.025-.064-.024-.065-.024-.064-.023-.065-.022-.065-.022-.064-.021-.065-.02-.065-.02-.066-.02-.065-.018-.066-.018-.066-.017-.065-.016-.066-.016-.066-.015-.066-.015-.066-.013-.067-.014-.066-.012-.066-.012-.066-.01-.067-.011-.066-.01-.067-.009-.066-.008-.067-.008-.066-.007-.067-.006-.066-.006-.066-.005-.067-.004-.067-.004-.066-.003-.066-.002-.066-.002-.067-.001h-.111l.034 2.917h.059l.038.002h.038l.038.003.038.002.039.002.038.003.038.004.039.003.038.004.038.005.039.005.038.005.039.006.038.006.039.007.038.006.039.008.038.008.038.008.039.008.038.01.038.009.039.01.038.01.038.01.038.012.038.011.038.012.038.012.038.013.038.013.038.014.037.014.038.014.037.015.038.015.037.016.037.016.037.016.037.017.037.017.037.018.036.018.037.019.036.018.036.02.036.02.036.02.036.02.035.02.035.022.036.022.035.022.035.022.034.023.035.024.034.023.034.024.034.025.034.024.033.026.033.025.033.026.033.027.033.026.032.027.032.028.032.028.032.028.031.028.032.03.03.029.031.03.03.03.03.03.03.03.03.032.029.031.029.032.029.032.028.032.028.033.028.034.027.033.028.034.026.034.027.034.026.035.026.035.025.036.026.035.024.037.025.036.024.037.024.037.024.037.023.037.022.038.023.039.022.038.021.039.022.039.02.039.021.04.02.04.02.04.02.04.018.04.019.041.018.041.018.042.017.041.017.042.016.042.016.042.016.043.015.042.015.044.014.043.014.043.014.044.013.043.013.044.012.044.012.045.011.044.01.045.011.045.01.045.01.045.009.045.008.046.008.046.008.046.007.045.007.047.006.046.006.046.005.047.005.046.004.047.004.047.004.047.002.047.003.047.002.047.001.047v.048l.001.047v.095l-.002.048-.001.047-.002.048-.003.048-.003.048-.003.048-.005.048-.004.047-.005.048-.006.048-.006.048-.007.048-.007.048-.007.048-.009.048-.008.048-.01.048-.01.048-.01.047-.01.048-.011.048-.012.048-.012.047-.013.048-.013.047-.014.048-.014.047-.015.047-.016.048-.015.047-.017.047-.017.047-.017.046-.018.047-.018.046-.02.047-.019.046-.02.046-.02.046-.021.046-.021.046-.022.045-.023.046-.023.045-.023.045-.024.045-.025.044-.025.045-.025.044-.026.044-.026.044-.027.044-.028.043-.028.044-.028.043-.029.042-.03.043-.029.042-.03.042-.031.042-.031.042-.032.04-.032.042-.033.04-.033.041-.034.04-.034.04-.034.04-.035.039-.035.039-.036.038-.036.039-.037.038-.037.038-.038.037-.038.037-.039.037-.038.036-.04.036-.04.036-.04.035-.04.035-.041.035-.042.034-.042.034-.042.033-.042.033-.044.033-.043.032-.044.032-.044.031-.044.031-.045.031-.046.03-.045.03-.046.03-.047.029-.047.028-.047.028-.047.028-.048.027-.048.027-.049.026-.048.026-.05.025-.049.025-.05.025-.05.024-.05.023-.05.023-.052.023-.051.022-.052.021-.052.021-.052.02-.052.021-.053.02-.053.019-.053.018-.053.018-.054.018-.054.017-.054.016-.055.016-.054.016-.055.014-.055.015-.056.014-.055.013-.056.012-.056.013-.056.011-.056.011-.057.01-.056.01-.057.01-.057.009-.057.008-.058.008-.057.007-.058.007-.057.006-.058.005-.058.005-.058.004-.058.004-.059.003-.058.003-.058.002h-.06l-.058.002h-.118l-.058-.001-.059-.002-.059-.002-.059-.003-.059-.003-.059-.004-.06-.005-.058-.005-.06-.006-.058-.006-.06-.007-.059-.008-.059-.008-.059-.009-.059-.01-.059-.01-.059-.01-.059-.01-.059-.013-.059-.012-.058-.013-.06-.014-.058-.014-.058-.015-.059-.015-.058-.016-.058-.017-.058-.017-.059-.018-.057-.018-.058-.02-.058-.02-.058-.02-.057-.02-.057-.022-.057-.022-.057-.022-.057-.024-.056-.023-.057-.025-.056-.025-.056-.025-.055-.027-.056-.026-.055-.028-.055-.028-.055-.028-.055-.03-.054-.03-.055-.03-.054-.03-.053-.032-.053-.032-.054-.032-.052-.033-.053-.034-.052-.034-.052-.035-.052-.036-.051-.035-.051-.037-.05-.037-.051-.037-.05-.039-.05-.038-.05-.04-.048-.04-.049-.04-.048-.04-.048-.042-.047-.041-.048-.043-.046-.043-.047-.043-.046-.044-.045-.044-.045-.045-.045-.046-.044-.046-.044-.046-.044-.047-.043-.047-.042-.048-.042-.049-.042-.048-.041-.05-.041-.05-.04-.05-.04-.05-.04-.051-.038-.052-.038-.052-.038-.052-.038-.053-.036-.053-.037-.054-.035-.054-.036-.055-.034-.055-.035-.055-.033-.056-.034-.056-.032-.056-.032-.057-.032-.058-.03-.057-.03-.058-.03-.059-.03-.059-.029-.058-.028-.06-.027-.06-.027-.06-.026-.06-.026-.061-.025-.061-.025-.062-.024-.061-.023-.062-.023-.063-.022-.062-.021-.063-.02-.063-.021-.063-.02-.064-.018-.064-.019-.064-.018-.065-.016-.064-.017-.065-.015-.066-.015-.065-.015-.065-.014-.066-.013-.066-.012-.066-.012-.067-.01-.066-.011-.067-.01-.067-.009-.067-.008-.067-.008-.067-.007-.068-.006-.068-.006-.067-.005-.068-.004-.068-.003-.068-.003-.068-.002-.069-.002-.068v-.206l.002-.068.002-.069.003-.069.003-.068.004-.07.005-.068.006-.069.006-.069.007-.069.008-.069.009-.068.009-.07.01-.068.01-.069.012-.068.012-.069.013-.069.013-.068.015-.069.015-.068.015-.068.017-.069.017-.068.017-.068.019-.067.02-.068.02-.068.02-.067.021-.068.022-.067.023-.067.024-.067.024-.067.025-.066.025-.066.027-.067.027-.066.028-.065.028-.066.03-.065.029-.065.03-.065.032-.064.032-.065.032-.064.034-.064.034-.063.034-.063.036-.063.036-.063.036-.062.038-.062.038-.062.038-.061.04-.062.04-.06.04-.06.042-.06.042-.06.043-.06.043-.059.044-.058.044-.058.046-.058.046-.057.046-.058.047-.056.048-.056.048-.056.05-.055.049-.055.05-.054.05-.054.052-.054.052-.053.053-.052.053-.052.054-.052.054-.05.055-.052.055-.05.056-.05.057-.048.057-.049.058-.048.058-.047.058-.047.06-.047.06-.045.06-.046.06-.045.062-.044.062-.043.062-.043.063-.043.063-.041.064-.042.065-.04.064-.04.066-.04.065-.038.066-.039.067-.037.067-.037.068-.036.067-.036.069-.035.069-.034.069-.034.07-.033.07-.032.07-.032.07-.031.072-.03.071-.03.072-.029.072-.028.073-.028.073-.027.073-.026.073-.025.074-.025.075-.024.074-.024.075-.022.075-.022.075-.021.076-.02.076-.02.076-.019.077-.018.076-.018.077-.016.078-.016.077-.015.039-.008zm.952 5.61-.884.213-.052-4.411-.041.009-.063.015-.063.015-.062.017-.062.016-.061.018-.062.018-.061.018-.061.02-.06.019-.061.02-.06.02-.06.022-.06.022-.06.023-.058.023-.06.024-.058.024-.058.024-.058.026-.057.026-.057.026-.057.027-.056.027-.057.029-.055.028-.056.03-.055.029-.054.03-.055.03-.053.032-.054.031-.053.032-.053.033-.052.033-.052.033-.052.034-.05.035-.052.035-.05.035-.05.036-.05.037-.048.037-.049.037-.048.037-.048.038-.047.04-.047.038-.046.04-.046.04-.046.04-.045.04-.044.041-.044.042-.044.041-.043.043-.043.042-.041.043-.042.044-.041.043-.041.044-.04.044-.04.045-.039.045-.038.046-.038.046-.038.045-.037.047-.037.046-.036.048-.035.047-.035.047-.035.048-.034.048-.033.049-.033.049-.032.049-.032.049-.03.05-.032.05-.03.05-.03.05-.028.05-.029.05-.028.051-.027.052-.027.05-.026.052-.026.052-.025.052-.024.052-.024.053-.024.052-.023.053-.022.052-.022.053-.02.053-.021.054-.02.053-.02.053-.019.054-.018.054-.018.054-.017.054-.016.054-.017.054-.015.054-.015.055-.014.054-.014.055-.013.054-.012.055-.012.054-.012.055-.01.055-.01.055-.01.055-.01.055-.008.054-.008.055-.007.055-.007.055-.006.055-.006.055-.005.055-.004.055-.004.055-.004.054-.003.055-.002.055-.001.055-.002.054v.164l.002.054.001.054.003.055.002.053.004.055.004.053.004.054.005.054.006.053.006.054.006.053.007.053.008.053.008.053.009.053.01.052.01.052.01.053.01.052.012.052.011.051.013.052.013.05.013.052.014.05.015.052.014.05.016.05.016.05.016.05.017.05.018.049.017.049.019.049.019.049.019.048.02.048.02.048.02.047.022.048.021.047.022.046.023.047.023.046.023.046.024.045.024.045.025.045.025.045.026.044.026.044.026.044.027.043.027.043.028.043.028.042.028.042.029.042.03.041.029.041.03.04.03.041.03.04.032.04.031.039.032.039.032.038.032.038.033.038.033.037.034.037.034.036.034.037.034.035.035.036.035.035.036.034.035.034.036.034.037.033.036.033.037.033.037.032.038.031.037.032.038.03.039.03.038.03.039.03.039.03.04.028.039.028.04.028.04.027.04.027.04.027.04.026.041.025.041.025.041.025.042.024.041.024.042.023.042.023.042.023.042.022.043.021.042.021.043.02.043.021.043.02.043.019.043.019.044.018.043.018.044.017.044.017.043.017.044.016.044.015.045.015.044.015.044.014.045.014.044.013.044.012.045.013.045.011.045.012.044.01.045.01.045.01.045.01.045.01.045.008.045.008.044.008.045.007.045.006.045.007.045.005.045.006.045.005.045.004.045.004.045.003.045.003.044.003.045.002.045.002h.044l.045.002h.133l.044-.002.045-.001.043-.002.044-.003.044-.002.044-.004.044-.003.043-.004.044-.005.043-.005.043-.005.044-.006.043-.006.042-.007.043-.007.043-.008.042-.007.042-.009.043-.008.041-.01.042-.01.042-.009.041-.01.041-.011.041-.011.041-.012.041-.012.04-.012.04-.013.041-.013.04-.013.04-.014.04-.014.038-.015.04-.015.038-.015.039-.016.038-.016.038-.016.038-.017.038-.017.038-.018.037-.017.037-.018.036-.019.037-.019.036-.019.036-.02.035-.02.036-.02.035-.02.035-.02.034-.022.034-.021.035-.022.033-.022.034-.022.033-.023.033-.023.032-.023.033-.023.031-.024.032-.024.031-.024.031-.025.031-.025.03-.025.03-.025.03-.026.03-.026.029-.026.029-.026.028-.027.028-.027.028-.027.028-.027.027-.028.027-.027.026-.028.026-.029.026-.028.026-.029.025-.028.025-.03.024-.029.024-.03.024-.029.023-.03.023-.03.023-.03.022-.03.022-.03.022-.031.021-.03.02-.032.022-.03.02-.032.02-.032.019-.031.019-.032.019-.032.018-.031.018-.033.018-.032.017-.032.017-.032.016-.033.016-.033.016-.032.016-.033.014-.033.015-.033.014-.033.014-.033.014-.033.013-.034.013-.033.012-.034.012-.033.012-.034.011-.033.011-.034.01-.033.01-.034.01-.034.01-.034.01-.034.008-.033.008-.034.008-.034.008-.034.007-.034.007-.034.007-.034.006-.034.005-.033.006-.034.005-.034.005-.034.004-.034.004-.034.004-.033.003-.034.003-.034.002-.033.002-.034.002-.034.002-.033v-.033l.001-.034v-.033l.001-.033v-.034l-.001-.033-.001-.033-.001-.033-.002-.032-.002-.034-.002-.032-.003-.032-.003-.033-.003-.033-.004-.032-.004-.032-.004-.032-.005-.032-.005-.032-.005-.032-.006-.031-.006-.032-.006-.031-.006-.031-.007-.031-.008-.031-.007-.031-.008-.03-.008-.031-.008-.03-.009-.03-.009-.03-.01-.03-.009-.03-.01-.03-.01-.03-.01-.029-.01-.029-.012-.029-.011-.028-.012-.029-.011-.028-.013-.028-.012-.028-.013-.028-.012-.028-.014-.027-.013-.027-.014-.027-.014-.027-.014-.026-.014-.027-.015-.026-.015-.026-.015-.026-.015-.025-.015-.026L33 19.66l-.016-.024-.017-.025-.016-.025-.017-.024-.017-.024-.017-.023-.017-.024-.018-.023-.017-.023-.018-.023-.018-.023-.019-.022-.018-.022-.019-.022-.018-.021-.02-.022-.019-.02-.02-.022-.019-.02-.02-.02-.02-.02-.02-.02-.02-.02-.02-.02-.02-.019-.021-.018-.021-.02-.021-.017-.021-.018-.021-.018-.022-.018-.021-.017-.022-.017-.022-.017-.021-.016-.022-.016-.023-.016-.022-.016-.022-.015-.022-.015-.023-.015-.023-.015-.022-.014-.023-.014-.023-.014-.023-.013-.023-.014-.023-.012-.023-.013-.023-.013-.024-.012-.023-.012-.024-.011-.023-.012-.024-.01-.023-.011-.024-.01-.024-.011-.023-.01-.024-.01-.024-.01-.024-.008-.024-.01-.024-.008-.024-.008-.024-.008-.024-.008-.024-.007-.024-.008-.024-.007-.024-.006-.024-.007-.024-.006-.024-.006-.024-.006-.024-.005-.024-.005-.024-.005-.024-.005-.024-.004-.024-.004-.024-.004-.024-.003-.023-.004-.024-.003-.024-.003-.024-.002-.024-.002-.023-.002-.024-.002-.023-.002-.024-.001-.023-.001h-.023l-.024-.002h-.092l-.023.001-.023.001-.023.001-.023.002-.022.001-.023.002-.022.002-.023.002-.022.003-.022.003-.022.002-.022.004-.022.003-.021.004-.022.004-.022.003-.021.005-.021.004-.021.005-.021.005z" clip-rule="evenodd"/></g></svg>