<svg xmlns="http://www.w3.org/2000/svg" width="144" height="39" fill="none"><g fill="#0F0F0F" opacity=".96"><path d="M51.515 5c-3.046 0-5.968 1.21-8.122 3.364l-7.029 7.03A11.485 11.485 0 0 0 33 23.513C33 29.859 38.142 35 44.485 35c3.046 0 5.968-1.21 8.122-3.364l4.862-4.862 14.167-14.167a5.485 5.485 0 0 1 9.095 2.177l4.471-4.471A11.477 11.477 0 0 0 75.515 5c-3.046 0-5.968 1.21-8.122 3.364l-19.029 19.03a5.485 5.485 0 0 1-7.757-7.758l7.029-7.03a5.485 5.485 0 0 1 9.095 2.178l4.471-4.47A11.477 11.477 0 0 0 51.515 5z"/><path d="M72.364 27.393a5.485 5.485 0 0 1-9.095-2.176l-4.47 4.47A11.477 11.477 0 0 0 68.484 35c3.046 0 5.968-1.21 8.122-3.364l19.029-19.03a5.485 5.485 0 1 1 7.757 7.758l-7.029 7.03a5.485 5.485 0 0 1-9.095-2.178l-4.471 4.471A11.476 11.476 0 0 0 92.485 35c3.046 0 5.968-1.21 8.122-3.364l7.029-7.03a11.485 11.485 0 0 0 3.364-8.12C111 10.141 105.858 5 99.515 5c-3.046 0-5.968 1.21-8.122 3.364l-19.029 19.03z"/></g></svg>