<svg xmlns="http://www.w3.org/2000/svg" width="24" height="24" fill="none"><path fill="#000" d="M20.623 18.145a12.064 12.064 0 0 1-1.15 2.126c-.603.887-1.098 1.5-1.48 1.842-.59.56-1.223.846-1.901.862-.487 0-1.074-.143-1.757-.432-.686-.288-1.316-.43-1.892-.43-.604 0-1.252.142-1.945.43-.694.29-1.253.44-1.68.455-.65.029-1.299-.266-1.946-.885-.413-.371-.929-1.007-1.548-1.907-.663-.961-1.21-2.076-1.637-3.347C3.23 15.486 3 14.156 3 12.869c0-1.474.31-2.746.93-3.811A5.537 5.537 0 0 1 5.875 7.03a5.124 5.124 0 0 1 2.63-.765c.517 0 1.194.165 2.036.488.84.324 1.378.489 1.614.489.177 0 .775-.192 1.79-.576.96-.355 1.77-.503 2.433-.445 1.798.15 3.149.88 4.047 2.194-1.608 1.003-2.403 2.408-2.387 4.21.014 1.404.509 2.572 1.481 3.5.44.43.933.762 1.48.999a17.26 17.26 0 0 1-.377 1.02zM16.499 1.44c0 1.1-.39 2.128-1.168 3.079-.94 1.13-2.075 1.783-3.307 1.68a3.524 3.524 0 0 1-.025-.417c0-1.056.446-2.186 1.24-3.11a4.79 4.79 0 0 1 1.51-1.168c.61-.306 1.186-.475 1.728-.504.016.147.022.294.022.44z"/></svg>