<svg xmlns="http://www.w3.org/2000/svg" width="320" height="320" fill="none"><path fill="#fff" d="M291.762 159.65c15.031 6.235 11.091 25.565 12.3 30.267 2.174 8.42 10.342 9.509 2.8 27.263-22.859 53.777-25.068 29.44-46.257 38.687-9.568 4.171-14.491 19.705-65.568-3.77-17.979-8.272-9.655-16.03-13.995-25.017-3.401-7.061-13.787-8.855-16.527-16.204-2.957-7.924 4.967-15.743 5.724-24.163.913-10.188-11.874-24.633 2.609-38.112 13.987-13.009 24.912.113 32.375-4.58 6.959-4.354 1.079-17.833 14.526-22.457 5.219-1.793 47.945-1.436 55.156 12.53 5.871 11.302 3.558 20.01 16.857 25.556z"/><path fill="#0F0F0F" d="M309.132 189.316c-3.235-6.565-3.862-5.747-2.87-9.709a17.509 17.509 0 0 0-2.749-16.004c-8.393-12.286-9.951-8.089-16.709-11.494-8.029-4.031-1.287-20.297-23.659-28.734-19.224-6.966-46.362-10.928-57.279 6.635-3 6.156-.208 10.745-8.698 9.578-8.185-1.08-19.223-8.368-30.705 9.004-15.309 23.37-2.348 24.084-.478 32.217 3.018 10.58-18.101 25.443.261 40.794 4.175 3.396 8.924 5.886 9.655 9.03a23.517 23.517 0 0 0 3.177 14.87 23.481 23.481 0 0 0 11.61 9.807c50.45 26.897 65.524 3.874 75.318 2.69a40.155 40.155 0 0 0 17.571-3.953c15.222-9.178 36.115-43.346 25.555-64.731zm-6.219 15.29c-1.218 12.06-16.022 40.359-30.235 42.249a39.596 39.596 0 0 0-17.571 3.718 41.836 41.836 0 0 1-13.517 6.434c-12.995 2.613-52.189-9.142-54.599-20.175a20.62 20.62 0 0 0-7.176-18.398c-10.212-7.959-13.848-8.037-7.133-21.09 12.282-23.658-7.932-25.53-1.53-36.867 2.461-4.493 6.497-12.634 11.594-13.47 5.646-.914 14.179 4.711 22.546 1.01 10.612-4.693 4.75-11.981 11.787-17.511 12.038-9.456 46.153-1.611 52.189 3.753 4.819 4.276 4.106 12.26 8.142 19.383a18.38 18.38 0 0 0 11.986 8.002 17.404 17.404 0 0 1 8.698 10.91c.54 4.537-2.905 8.629-.53 14.124a32.878 32.878 0 0 1 5.349 17.928z"/><path fill="#0F0F0F" d="M290.005 191.797c-10.012-4.249-21.885 26.227-25.695 36.511-3.479 9.935 5.454 16.274 10.751 11.223 2.81-2.76 11.961-20.114 4.15-10.771a67.592 67.592 0 0 1-6.611 7.837c-2.218 2.107-5.958-1.829-3.61-6.548.957-2.334 2.757-5.277 4.08-8.316a80.784 80.784 0 0 1 13.612-24.755c3.097-2.473 4.637 2.412 3.68 6.627-2.61 8.176-4.81 13.827-3.958 14.045 1.722.435 15.031-21.438 3.601-25.853zm-45.457-50.494c10.524 1.341 18.849 3.3 19.44 1.916.592-1.385-7.611-5.869-18.701-7.288-16.788-2.221-34.576.888-.739 5.372zm11.238 31.478c-2.418-1.219-4.028-1.071-4.071-.732-.044.34 1.148.932 2.896 2.491 3.723 3.396 7.133 9.795 2.61 11.232-10.438 3.57-46.727-16.544-31.784-20.636 8.603-2.56 19.363 4.501 19.937 3.082a25.215 25.215 0 0 0-9.648-6.182 25.173 25.173 0 0 0-11.385-1.271c-5.462 1.245-7.567 4.466-7.567 7.427 0 12.19 30.261 26.636 42.152 21.768 6.263-2.542 6.35-11.694-3.14-17.179zm-51.685 30.484c.556-.418-1.566-3.718 0-8.707 3.618-8.499 13.099 15.299 11.307 20.802-1.052 2.116-2.279 2.455-3.914 0-3.157-4.85-5.341-8.098-6.002-7.715-.87.505 1.81 12.861 7.724 13.932 12.387 1.289 7.394-22.256-1.217-30.972-5.576-4.415-10.508-2.43-11.578 3.039-1.017 7.235 3.375 10.353 3.68 9.621zm40.116 37.538a28.677 28.677 0 0 1-20.006.783c-15.953-4.893-28.939-10.448-29.574-8.855a66.678 66.678 0 0 0 28.147 14.071 27.54 27.54 0 0 0 22.781-2.386c5.01-2.342 8.15-3.082 8.194-3.84.043-.757-3.914-1.314-9.542.227z"/><path fill="#FDFE1F" d="M241.843 124.107c-3.175 3.387 1.218 8.855-6.672 10.153-21.841 3.578-20.789 12.364-22.615 24.511-5.15 33.724-37.229 24.224-23.633 55.109a39.694 39.694 0 0 0 4.74 8.263c18.867 21.577 1.331 39.532-35.08 14.803-26.443-17.955-15.396-26.331-27.269-39.941-11.117-12.739-31.036-8.402-45.805-13.444a18.896 18.896 0 0 1-10.092-6.799 18.923 18.923 0 0 1-3.86-11.547 18.958 18.958 0 0 1 1.826-7.994c3.828 14.359 22.964 19.052 36.472 16.779 21.398-3.622 23.659-20.401 10.595-29.126-12.021-8.019-41.874-9.239-63.594-24.311a130.072 130.072 0 0 1-14.021-14.733 52.643 52.643 0 0 1-8.403-17.606C23.812 56.38 12.34 59.489 9.642 55.084c-1.374-2.23 25.112-6.549 44.648 17.823 7.09 8.847 10.247 20.027 19.024 27.194 11.43 9.334 31.113 9.97 44.761 15.568 13.134 5.39 31.662 23.51 38.794 15.5 10.351-5.277-3.479-26.001-10.438-32.575-15.152-14.384-33.705-6.478-48.388-13.06a31.09 31.09 0 0 1-12.175-9.041 31.134 31.134 0 0 1-6.457-13.73c9.203 9.63 19.345 17.633 45.84 8.908a52.642 52.642 0 0 1 28.026.958c5.741 2.76 9.342 8.655 14.648 12.19a147.185 147.185 0 0 0 29.391 12.843c18.18 3.562 13.361-3.83 46.414 12.644 3.758 1.872 11.308 4.945 12.352 9.639.644 2.821-2.844 3.735-4.993 3.613-2.888-.139-6.872-1.994-9.246.549z"/><path fill="#0F0F0F" d="M254.707 114.546c-15.074-17.345-51.372-16.919-70.247-23.876-26.617-10.118-23.259-28.116-56.487-21.977-12.595 2.612-27.434 7.732-38.716 1.393-7.01-3.953-10.368-9.77-11.238-9.038-1.548 0 .87 13.4 12.004 22.987 11.308 9.979 28.652 7.027 39.507 9.787 14.109 3.657 30.74 27.359 25.225 32.401-5.932 5.424-14.708-2.935-21.154-7.489-22.224-16.204-39.925-10.292-54.555-19.339-12.717-7.61-17.284-24.738-28.6-36.014-17.762-17.728-43.492-10.64-42.413-8.29.678 2.282 17.162 9.335 21.258 25.514a68.21 68.21 0 0 0 16.701 35.491c25.721 28.16 74.057 20.619 79.007 40.245 3.653 14.237-36.82 17.598-46.658 6.966-4.114-4.432-4.045-8.428-4.819-7.444a15.315 15.315 0 0 0 .566 20.418c13.986 16.544 36.619 8.037 51.746 21.586 19.205 17.188.87 30.955 50.345 51.051 9.995 3.901 20.441 5.303 26.643-3.543 6.376-12.243-8.385-26.558-13.117-37.73-4.645-10.3 2.392-16.779 10.943-22.787 20.093-14.393 11.655-36.928 18.779-43.171 3.41-2.996 10.351-.827 16.527-4.458 4.758-2.613 4.845-7.837 5.619-9.526 1.792-2.508 2.366-.601 8.577-.592a7.14 7.14 0 0 0 6.549-4.728 7.192 7.192 0 0 0-2-7.837h.008zm-6.436 4.719c-16.701-2.83-13.048 8.708-16.405 11.189-4.141 2.569-11.552-.278-17.666 5.225-8.438 7.201-5.028 19.948-8.194 28.011-6.228 18.73-20.006 16.005-24.738 31.486-5.698 18.425 20.302 37.991 15.048 46.411-5.924 9.482-37.664-6.853-45.37-14.803-9.255-9.064-8.838-23.161-21.407-33.157-10.542-8.865-21.111-8.612-31.992-10.206-13.178-1.628-28.009-9.43-25.138-22.334 1.322-5.982-.54-1.306 3.305 4.441 9.438 13.879 43.596 12.782 53.442 2.264 7.255-8.09 5.976-21.899-14.595-30.772-14.535-6.235-31.81-8.046-45.762-14.402-42.743-19.47-21.12-55.989-58.426-67.352 44.7-3.805 40.395 35.552 64.445 50.99 16.788 10.763 32.358 4.354 53.808 19.67 5.784 3.98 13.587 11.425 22.72 10.65a13.577 13.577 0 0 0 9.358-4.264 13.602 13.602 0 0 0 3.689-9.607 43.553 43.553 0 0 0-10.568-20.437c-16.04-20.54-32.645-15.438-45.066-16.944a35.676 35.676 0 0 1-17.2-6.596 35.728 35.728 0 0 1-11.626-14.302c21.389 28.856 52.572-2.926 74.274 13.2a88.814 88.814 0 0 0 27.896 19.331c17.953 6.966 38.394 6.583 54.973 14.646 3.566 1.576 12.352 7.314 11.195 7.671v-.009z"/></svg>