<svg xmlns="http://www.w3.org/2000/svg" width="320" height="320" fill="none"><path fill="#FDFE1F" d="M145.331 211.389c14.945 42.595-71.443 97.98-95.58 96.011-14.932-1.223 9.816-59.704 13.626-68.56 8.367-19.509 21.401-48.685 45.775-51.182a35.603 35.603 0 0 1 36.179 23.731z"/><path fill="#0F0F0F" d="M39.994 286.321c5.252-22.785 22.945-70.156 40.613-89.214a40.134 40.134 0 0 1 65.262 4.409 40.144 40.144 0 0 1 5.796 24.38c-1.333 16.136-14.308 34.815-26.081 46.4-22.372 21.948-97.954 73.761-85.59 14.025zm11.727 14.572c16.837.354 54.561-26.627 65.831-36.996 58.384-53.937-1.062-90.373-28.14-58.745-17.539 20.48-39.416 83.158-37.691 95.741z"/><path fill="#0F0F0F" d="M74.834 269.792c2.407-9.577 15.807-50.203 31.454-61.473 15.448-10.942 30.155-.998 22.476 18.086-8.618 22.25-41.997 41.875-52.514 45.312-2.214.721-1.57-1.114-1.416-1.925zm40.433-32.181c10.298-13.182 13.851-29.859 1.287-27.291-17.81 3.399-29.157 40.826-40.31 60.123 8.128-7.216 27.096-17.681 39.023-32.845v.013z"/><path fill="#92FCFF" d="M223.7 256.379c-7.723 5.02-29.877-1.545-38.792-5.626-23.074-10.581-22.784 10.878-36.352 17.211-5.149 2.382-12.693.58-13.903-4.936-1.647-7.492 9.101-14.971 5.033-21.479-52.475-41.759-51.967-44.198-57.927-37.742-5.02 5.426-8.837 14.16-16.213 13.735-6.147-.386-9.655-7.859-8.522-13.903 2.33-12.1 17.23-19.888 15.267-32.735-.643-4.209-1.718-5.381-17.442-31.834-7.228-12.165-4.666-16.394 1.93-21.762 51.929-42.235 58.572-36.198 73.079-43.921 12.628-6.72 37.331-38.374 95.007-55.301 29.646-8.702 41.129 1.158 45.956 20.596 16.799 67.517-30.895 95.67-21.723 133.78 4.956 20.499-18.318 79.328-25.398 83.923v-.006z"/><path fill="#FFC5F6" d="M212.076 147.669c2.517-7.615 6.205-18.614 3.398-26.138-2.574-6.952-16.567-21.562-29.658-22.064a29.313 29.313 0 0 0-23.551 12.158 56.816 56.816 0 0 0-8.844 33.72c2.421 7.357 17.739 19.56 34.326 18.022 24.368-2.33 30.038-30.573 24.329-15.705v.007z"/><path fill="#0F0F0F" d="M149.038 133.432a33.549 33.549 0 0 0 23.776 32.439 34.261 34.261 0 0 0 27.406-3.224 34.277 34.277 0 0 0 16.143-22.38c.914-5.097.328-7.936-.213-7.968-.643-.045-1.223 2.639-3.025 7.009-13.278 32.118-55.481 23.429-55.352-5.857a28.849 28.849 0 0 1 14.832-24.735 28.852 28.852 0 0 1 28.838.464 25.872 25.872 0 0 1 12.377 13.793c1.481 4.402 1.77 7.189 2.446 7.176 1.23.065 4.274-15.659-11.585-26.215a35.654 35.654 0 0 0-36.687-1.974 35.662 35.662 0 0 0-18.956 31.472z"/><path fill="#0F0F0F" d="M133.99 149.464c15.512 47.552 86.524 43.941 97.91-7.118a24.72 24.72 0 0 0 .895-10.878c-.438-.051-.785 3.817-2.877 10.337a50.583 50.583 0 0 1-53.679 36.23 45.6 45.6 0 0 1-37.22-30.474 45.606 45.606 0 0 1 10.792-46.878 49.221 49.221 0 0 1 64.087-7.42c5.792 3.63 8.418 6.493 8.753 6.165a23.296 23.296 0 0 0-7.595-7.852c-42.01-31.944-96.037 11.978-81.066 57.888z"/><path fill="#0F0F0F" d="M60.667 109.553a158.046 158.046 0 0 1 71.721-40.408c23.28-23.602 79.682-65.818 112.636-63.012 55.61 3.103 35.689 102.57 8.155 155.393 4.911 45.241-14.868 91.693-24.13 97.247-16.735 10.034-41.804 1.41-58.571-8.097-9.217 10.858-22.811 29.459-33.772 20.365-8.708-7.151-3.552-18.286 1.803-26.949-16.497-5.793-46.76-27.612-52.56-36.958-6.52 7.331-10.555 12.551-17.378 13.819a11.282 11.282 0 0 1-12.782-9.371c-1.693-7.808 3.36-16.735 8.27-24.722 11.232-18.254 11.328-4.609-6.352-29.974-17.803-26.724-9.945-34.634 2.96-47.333zm204.226-24.6c-24.96-11.16-43.935-27.355-17.983-15.583 5.065 2.427 11.688 5.014 19.18 8.059 7.543-54.548-12.152-74.18-64.634-45.21 25.469 24.291 47.037 45.332 18.221 24.89a270.345 270.345 0 0 1-25.024-20.995c-45.969 27.238-93.565 68.785-102.995 121.447a839.257 839.257 0 0 0 94.763 66.012c31.763-22.45 66.886-73.941 78.472-138.62zm-39.989 161.939a180.09 180.09 0 0 0 19.895-70.594c-15.448 25.056-42.178 56.826-69.809 67.382 13.265 5.728 43.194 15.209 49.946 3.218h-.032v-.006zm-85.99 16.213c3.695 9.777 13.883-2.575 18.929-7.209 9.655-9.307 9.063-7.234 6.211-9.14a45.037 45.037 0 0 1-20.705-1.139c-2.253 5.149-6.353 12.377-4.409 17.488h-.032.006zm-48.64-79.013c1.178 15.55 4.699 19.534 13.884 26.048 30.096 21.536 47.397 34.48 76.592 17.121-30.379-14.244-75.221-49.007-90.044-63.077a102.385 102.385 0 0 0-.431 19.908zm-14.61 25.475c12.3-11.946 5.896-1.287 4.653-24.851-.128-2.49.644-1.01-4.35-6.076-22.785 35.323-12.358 42.307-.303 30.927zm4.827-38.489a163.096 163.096 0 0 1 39.906-88.822 182.727 182.727 0 0 0-51.813 35.368c-9.713 9.519-20.893 12.338 11.888 53.46h.013l.006-.006z"/></svg>