<svg xmlns="http://www.w3.org/2000/svg" width="320" height="320" fill="none"><path fill="#FDBC45" d="M191.197 57.413c9.103 8.635 6.866 23.017 6.385 33.628-4.122 91.441 68.347 60.05 67.709 10.077 15.241 11.482 15.943 31.885 19.376 45.76a115.985 115.985 0 0 1 4.759 51.663 163.597 163.597 0 0 1-37.086 62.976C138.234 374.05 1.007 225.107 32.58 154.628c9.948 6.502 13.225 19.271 19.83 29.128 18.205 27.073 73.731 15.474 71.975-4.252-1.3-14.954-23.341-22.002-33.419-38.712a42.248 42.248 0 0 1 10.598-51.845c20.805-17.659 61.299-25.46 27.801-70.22 13.576-7.853 51.468 28.817 61.832 38.686z"/><path fill="#0F0F0F" d="M294.209 162.725c-5.201-43.016-29.206-71-31.832-68.776-3.069.573-.104 19.064-10.13 35.11-12.184 19.505-46.202 24.707-46.683-16.163-.897-44.213 1.366-83.444-65.317-96.85-12.093-2.601-14.863-1.145-8.374 13.627 14.512 33.12-20.598 32.99-42.573 61.468a45.303 45.303 0 0 0-4.032 54.094c9.87 13.745 29.492 22.21 29.011 32.86 1.002 23.407-50.48 26.801-74.341-20.493-3.459-7.152-4.772-11.703-6.099-11.534-.884-.443-5.54 5.812-7.724 19.284-11.924 73.925 73.691 160.334 164.989 139.008a129.96 129.96 0 0 0 103.105-141.635zM98.077 271.708A132.014 132.014 0 0 1 32.98 165.937c-.13-28.426-4.447 24.096 42.028 40.974 32.638 11.378 55.72-6.398 56.617-28.738.234-27.125-34.602-33.523-36.085-53.99-4.317-42.626 76.006-51.455 42.288-97.982-7.412-9.103-7.009-7.802 0-3.68 13.679 7.633 16.631 8.296 24.42 13.394 45.331 29.193 13.004 75.563 32.886 107.565 19.623 33.367 79.478 13.563 72.144-37.346 59.205 127.395-71.051 226.157-169.202 165.574z"/></svg>