<svg xmlns="http://www.w3.org/2000/svg" width="320" height="320" fill="none"><path fill="#4CEB9F" d="m270.802 90.981-5.365-46.857a5.574 5.574 0 0 0-2.582-4.081 5.564 5.564 0 0 0-4.799-.529L214.42 54.94a5.564 5.564 0 0 0-3.659 4.597 5.57 5.57 0 0 0 2.507 5.314l17.345 11.147c-25.681 32.948-43.574 58.945-63.615 89.591-16.28-44.239-18.876-68.152-25.592-110.99C72.38 200.458 32.266 272.688 36.507 275.207c6.566 3.916 61.695-93.445 70.918-110.465 30.999-57.385 24.306-52.746 27.032-41.583a471.723 471.723 0 0 0 29.001 83.088 1302.605 1302.605 0 0 1 82.996-120.12l15.821 10.158a5.558 5.558 0 0 0 8.005-2.257c.459-.945.64-2.002.522-3.046z"/><path fill="#0F0F0F" d="M261.355 39.342c4.985 1.336 3.694 1.17 9.451 51.626a5.567 5.567 0 0 1-8.531 5.315l-15.82-10.157a1315.182 1315.182 0 0 0-82.986 120.082c-35.789-88.119-26.815-82.074-30.677-90.296 1.964-4.236-9.382 19.261-25.357 48.791-14.724 27.208-64.24 112.267-70.82 110.504-4.632-2.036 33.255-69.445 104.801-220.645 7.166 46.097 10.136 68.988 25.593 110.989 19.261-29.505 37.241-55.753 63.614-89.591l-17.347-11.14a5.55 5.55 0 0 1 1.155-9.918c47.224-16.682 44.568-16.191 46.924-15.56zm2.121-7.914c-5.609-1.503-4.671-.891-51.778 15.749a13.759 13.759 0 0 0-7.84 18.854 13.755 13.755 0 0 0 4.999 5.686l9.813 6.303a1241.48 1241.48 0 0 0-49.438 69.163c-10.902-33.225-11.439-43.809-23.816-120.238C24.686 274.976 18.193 278.647 34.499 283.103c18.159 4.992 87.287-127.612 95.656-143.912 8.334 30.22 17.043 49.365 31.854 84.68a1429.449 1429.449 0 0 1 86.329-126.827c8.912 5.728 16.899 12.737 25.946 4.949 7.803-6.686 4.678-12.025-.694-58.858a13.7 13.7 0 0 0-10.114-11.707z"/></svg>