<svg xmlns="http://www.w3.org/2000/svg" width="320" height="320" fill="none"><path fill="#FDFE1F" d="M94.807 164.673c-80.77 58.392-3.328 2.289 60.589 64.203 12.436 12.038 31.428 55.717 38.729 52.834 1.621-.639 1.692-2.972 1.52-4.711-2.246-26.796 2.414-53.729 13.502-78.049 11.088-24.32 28.208-45.154 49.612-60.374 9.882-6.837 6.21-13.673-5.222-14.075-21.857-.11-43.463-4.833-63.5-13.881-18.647-11.443-48.11-50.827-61.019-71.604.832 52.611-7.172 107.927-49.272 137.294l15.061-11.637z"/><path fill="#0F0F0F" d="M277.934 126.701c.631-10.032-64.103-2.229-98.385-31.567-40.049-34.182-52.8-90.746-59.972-88.28-11.719 2.795 22.347 99.323-34.799 157.373-20.712 21.044-44.079 30.274-42.487 34.584 1.793 10.656 81.646-18.295 130.602 67.279 14.344 24.805 22.735 47.558 26.608 47.127 9.18 0-13.885-89.617 39.589-151.427 20.326-23.11 40.206-31.032 38.844-35.089zm-48.669 25.904c-26.03 32.591-40.184 73.62-39.991 115.922-10.108-23.065-26.305-42.699-46.72-56.636-20.416-13.937-44.22-21.609-68.663-22.131 30.409-16.527 59.341-58.942 58.81-125.865-.1-9.943-1.362-9.363 2.453-2.467 8.482 17.648 20.886 32.957 36.192 44.669 15.306 11.712 33.077 19.492 51.851 22.699 51.639 8.62 35.602-9.912 6.068 23.809z"/></svg>