<svg xmlns="http://www.w3.org/2000/svg" width="320" height="320" fill="none"><path fill="#FDFE1F" d="M141.11 24.431C62.172 37.32-24.474 143.8 20.75 211.9a319.636 319.636 0 0 0 85.795 75.214c67.159 36.989 185.805-29.913 201.412-131.74 5.439-35.455-4.729-53.472-23.198-69.878-49.335-43.82-78.139-71.786-143.649-61.064z"/><path fill="#0F0F0F" d="M290.533 79.58a449.519 449.519 0 0 0-57.686-46.835C109.999-43.95-57.016 133.348 24.642 228.487a359.036 359.036 0 0 0 65.729 57.803c120.695 80.317 292.491-114.368 200.162-206.71zm10.246 69.878c-29.049-16.483-14.035-9.627-41.331-31.936a81.298 81.298 0 0 0-7.733-51.835c36.666 31.317 53.755 43.419 49.064 83.758v.013zM21.575 198.42C-7.706 131.235 75.782 18.865 176.952 28.518c37.916 3.235 71.708 25.48 75.82 63.15 9.421 77.135-106.352 199.687-195.897 148.599a153.035 153.035 0 0 1-35.3-41.847zm51.81 56.191a111.617 111.617 0 0 0 48.78 5.013c10.053 9.718 18.043 8.764 36.254 29.501-35.596 2.32-55.109-10.143-85.035-34.462v-.052zm96.491 33.174a118.979 118.979 0 0 1-36.421-31.266 176.055 176.055 0 0 0 44-21.91c15.736 11.483 14.305 3.286 44.966 31.923a141.663 141.663 0 0 1-52.545 21.304v-.051zm60.767-26.872c-36.666-21.355-18.043-9.769-44.592-32.735a225.842 225.842 0 0 0 41.718-42.105c22.103 14.525 15.324 4.33 45.61 32.039a195.119 195.119 0 0 1-42.736 42.853v-.052zm47.801-50.263c-34.926-19.396-27.528-19.834-44.592-33.006a161.532 161.532 0 0 0 23.366-49.464 138.66 138.66 0 0 1 41.963 31.279 147.027 147.027 0 0 1-20.737 51.256v-.065z"/><path fill="#0F0F0F" d="M81.22 235.462c32.465 6.148 108.697-27.426 142.039-94.494 31.691-63.873-13.211-112.254-68.307-101.08a143.959 143.959 0 0 0-70.96 38.38c-11.6 11.818 3.866-1.547 14.834-9.022C202.663-.606 277.967 90.408 181.708 184.013c-22.155 20.853-71 49.232-99.237 44.309-25.312-4.382-45.869-31.833-40.649-69.195 6.934-49.49 39.643-73.268 37.504-75.395-1.083-1.095-14.086 13.468-16.535 16.523-50.598 63.37-24.629 128.248 18.43 135.207z"/></svg>