<svg xmlns="http://www.w3.org/2000/svg" width="320" height="320" fill="none"><path fill="#FDFE1F" d="M25.22 48.408c-1.769 5.942 2.431 13.885 5.775 19.144.682 1.077.978 2.361 1.733 3.387 14.338 19.482 13.28 15.456 20.355 24.075 10.832 13.184 70.488 64.045 91.632 77.207 8.056 5.016 15.285 11.731 23.285 16.843a67.726 67.726 0 0 1 8.923 6.126c3.539 3.165 19.152 11.882 21.458 13.386a72.062 72.062 0 0 0 6.489 4.078c22.228 12.626 23.45 13.712 24.213 14.135a128.923 128.923 0 0 1 12.341 6.052c5.821 3.399 6.589 2.908 24.451 11.552 1.619.784-6.336-2.265 17.92 5.575 3.768 1.217 2.691.808 10.88 1.513 3.401.05 6.741-.905 9.6-2.747 8.29-6.168 1.776-19.105-4.275-27.427-.552-.758-1.197-1.264-1.707-2.051-7.469-11.52-5.379-8.026-10.773-13.877-4.379-4.752-3.086-4.43-9.507-10.331-8.704-8-11.103-11.727-14.792-14.819-7.707-6.461-14.899-13.535-22.848-19.698-3.127-2.424-5.631-5.507-8.728-7.968-77.352-61.411-113.328-77.497-124.959-85.462-5.726-3.92-30.8-14.863-33.948-16.64-3.301-1.856-4.842-.99-15.288-5.44a58.654 58.654 0 0 0-17.77-4.463c-.88-.078-6.966.88-7.178.931a10.271 10.271 0 0 0-7.283 6.919zm10.143.336C61.555 45.14 134.822 92 156.693 106.755c4.051 2.731 7.79 6.03 12.302 7.902.443.148.851.384 1.2.696 1.12 1.16-1.92-.587 5.786 4.48 9.715 6.4 10.216 7.637 14.56 10.357.794.381 1.55.836 2.257 1.36 10.832 9.808 1.623.653 32.271 25.991 33.176 27.428 23.31 19.635 26.88 23.297 1 1.026 2.384 1.584 3.408 2.584 8.446 8.255 19.665 19.191 24.035 24.082 5.59 6.261 25.805 29.342 19.627 35.131-1.046.982-1.054 1.336-2.758 1.237-5.647-.331-6.72-.368-7.84-.543-3.538-.555-4.903-2.142-6.391-2.292-.769-.079-.209.299-1.6-.205-5.985-2.173-4.784-.784-4.918-1.131-1.874.068-2.152-.295-21.066-8.733a10.279 10.279 0 0 1-1.619-.538c-4.281-2.915-18.59-8.621-20.297-10.28-1.663-1.614-24.04-13.461-36.546-22.136a49.506 49.506 0 0 0-9.12-5.696c-.062-.433-.522-.673-.92-.856-6.126-2.785-10.901-7.897-16.8-11.134-5.03-2.76-2.741-1.28-6.52-4.216-2.512-1.957-5.229-3.309-17.549-12.386-10.229-7.536-11.611-10.093-14.429-10.909-5.011-5.374-14.552-9.6-34.156-27.804-3.55-3.293.217 2.502-22.916-20.49a19.965 19.965 0 0 0-2.443-2.09c-7.099-4.98-9.544-9.473-12.16-12.17a66.776 66.776 0 0 1-6.907-7.118c-2.646-3.105-5.74-5.983-8.085-9.323-.9-1.28-1.416-2.801-2.288-4.107-1.971-2.952-2.82-2.07-5.749-8.574-2.022-4.501-6.01-11.65-.582-12.397h.003z"/><path fill="#0F0F0F" d="M303.346 224.914C264.907 161.037 50.242 11.274 26.179 44.566.763 79.733 235.717 252.48 294.741 252.48c12.581 0 19.845-8.886 8.605-27.566zm1.875 21.321C283.27 276.611 70.613 130.939 31.557 66.035 21.22 48.86 27.375 41.646 38.362 41.646c59.35 0 290 172.58 266.859 204.594v-.005z"/><path fill="#0F0F0F" d="M273.802 200.19C186.869 109.896.658 4.498 36.058 63.328c31.928 53.067 189.516 166.973 249.952 180.64 3.891.882 12.619 2.418 14.953-.814 5.626-7.776-20.526-36.072-27.161-42.964zm25.459 41.738c-1.554 2.142-10.2.581-12.787 0C226.614 228.382 69.478 114.795 37.858 62.24c-4.597-7.64-4.64-11.282-4.016-12.14.13-.183.968-1.092 4.539-1.092 45.856 0 222.323 123.371 256.864 180.774 4.595 7.645 4.637 11.287 4.016 12.146z"/><path fill="#92FCFF" d="M127.159 252.397c.022 8.024 1.104 10.307 4.424 15.624 5.308 8.502 8.98 13.381 19.627 17.309 8.32 3.07 10.56.971 16.07.657 9.08-.518 12.48 1.059 26.131.515 15.885-.632 21.554 2.4 35.351-7.416a17.86 17.86 0 0 0 5.214-5.289c7.744-11.455 7.469-12.949 7.003-65.472-.083-9.347-2.937-21.584-9.694-28.723-7.595-8.026-16.952-16.292-28.128-17.384-1.44-.141-4.355-1.18-5.787-1.311-4.351-.401-8.667.64-13.029.383-7.941-.458-27.349-.991-34.813 1.846-9.654 3.669-17.185 11.68-19.902 19.2-3.363 9.304-2.623 10.706-2.467 70.061z"/><path fill="#0F0F0F" d="M207.827 288.074h-46.88a34.863 34.863 0 0 1-34.833-34.826v-58.949a34.862 34.862 0 0 1 34.825-34.825h32.712a49.059 49.059 0 0 1 49.002 49.006v44.768a34.87 34.87 0 0 1-10.211 24.614 34.876 34.876 0 0 1-24.615 10.212zm-46.88-125.461a31.722 31.722 0 0 0-31.68 31.68v58.955a31.722 31.722 0 0 0 31.68 31.68h46.88a31.719 31.719 0 0 0 31.68-31.68V208.48a45.915 45.915 0 0 0-45.862-45.862l-32.698-.005z"/><path fill="#FDFE1F" d="M310.88 53.165a10.278 10.278 0 0 0-7.04-7.157c-.258-.072-6.264-1.22-7.142-1.17a58.707 58.707 0 0 0-17.921 3.87c-10.839 4.203-11.956 3.113-15.46 4.932-3.351 1.74-28.535 11.706-34.485 15.496-8.739 5.567-9.008 3.934-17.6 9.712-1.949 1.309-26.899 12.599-84.019 52.709-36.304 25.491-28.877 22.009-35.095 26.505-4.84 3.501-24.292 19.276-27.614 22.72-7.509 7.778-12.085 11.149-14.583 13.565-2.27 2.197-4.2 4.722-6.416 6.971-5.932 6.021-3.579 2.535-11.23 13.511a47.498 47.498 0 0 0-7.267 10.368 23.868 23.868 0 0 0-3.28 9.67 10.867 10.867 0 0 0 3.587 9.224 21.082 21.082 0 0 0 7.637 3.061 56.71 56.71 0 0 0 7.52-.278c2.304.16 2.792-.16 21.035-5.391a18.1 18.1 0 0 0 2.322-.451c17.654-7.83 19.115-7.65 24.822-10.731a83.578 83.578 0 0 1 9.93-4.554c2.23-.853 51.016-26.939 55.787-30.928a67.502 67.502 0 0 1 9.12-5.825c8.16-4.845 15.608-11.316 23.829-16.06 19.616-11.324 42.04-30.822 58.672-42.924 4.092-2.978 15.177-12.783 18.198-15.487 3.072-2.747 6.978-4.665 9.44-7.968 3.762-5.046 13.063-10.926 28.986-31.117.788-1.001 1.12-2.275 1.846-3.328 3.565-5.203 8.021-12.825 6.421-18.945zm-9.016 8.041c-2.53 5.154-3.501 7.392-5.034 9.24-.993 1.2-2.216 2.205-3.123 3.47-.907 1.267-1.48 2.777-2.424 4.03-1.846 2.45-11.544 12.417-12.576 13.34a36.83 36.83 0 0 0-6.437 6.493c-5.342 6.08-8.48 6.984-11.581 9.866-22.196 20.64-21.038 17.504-23.584 19.715-19.409 16.851-30.324 21.896-35.063 26.653a10.707 10.707 0 0 0-3.853 2.249c-12.255 9.956-23.704 16.202-28.883 19.965-3.708 2.693-1.343 1.307-6.658 4-6.005 3.04-10.947 7.989-17.162 10.57-.404.168-.872.393-.949.824-4.182 1.555-6.375 3.774-13.38 7.848-28.216 16.408-31.173 16.616-33.184 18.451-1.707 1.55-16.255 6.827-20.63 9.6-.8.507 4.244-1.907-19.068 7.576-4.904 1.994-2.56-.15-8.867 1.901-1.407.459-.885.102-1.6.152-1.472.099-2.88 1.638-6.464 2.08-1.165.142-2.223.137-7.856.28-1.656.041-1.662-.271-2.72-1.327-3.535-3.542 2.737-12.764 5.68-16.8 11.485-15.766 27.1-29.193 39.931-40.921 1.058-.96 2.46-1.477 3.491-2.469 4.2-4.034-7.885 5.04 27.639-22.389 32.717-25.262 21.648-15.19 33.12-24.902a13.761 13.761 0 0 1 2.301-1.28c4.428-2.573 4.972-3.797 14.896-9.866 7.47-4.569 5.033-3.416 5.932-4.289a3.389 3.389 0 0 1 1.221-.656c4-1.508 83.17-53.904 124.198-61.175 3.106-.55 11.447-1.168 13.236.386 1.944 1.675.43 5.38-.552 7.386h.003z"/><path fill="#0F0F0F" d="M310.4 49.559C287.507 15.424 67.862 157.363 27.072 220.06c-12.12 18.625-4.717 27.877 8.726 27.877 60.604 0 298.72-162.402 274.602-198.38zm-6.13 21.267C262.963 134.315 45.32 272.44 24.448 241.304 2.6 208.73 235.808 46.195 297.302 46.195c11.818 0 18.154 7.439 6.968 24.63z"/><path fill="#0F0F0F" d="M57.464 196.39c-6.976 6.756-33.992 34.031-28.654 41.989 2.217 3.307 11 2.08 14.917 1.338 60.892-11.546 222.364-119.84 256.14-171.755 4.389-6.744 6-11.96 4.426-14.31-12.474-18.59-166.213 64.687-246.829 142.738zm240.64-129.576C264.659 118.23 103.648 226.216 43.336 237.653c-2.64.501-11.294 1.777-12.78-.445-.591-.878-.423-4.518 4.44-12C71.922 168.464 250.377 53.56 297.28 53.56c3.269 0 4.885.68 5.28 1.264.578.88.41 4.518-4.453 11.99h-.003z"/><path fill="#fff" d="M221.691 151.496c1.564-3.717 1.045-2.059 2.157-8.621.167-.683.272-1.379.32-2.08a6.484 6.484 0 0 1 .387-1.672c1.093-4.2.364-8.649.108-12.83a53.144 53.144 0 0 0-.522-7.04 48.15 48.15 0 0 0-1.069-5.739 5.025 5.025 0 0 1-.272-.532c-2.056-5.937-2.494-5.6-4.32-10.102-.35-.867.031-.773-.739-2.022-2.72-4.41-9.584-14.332-15.53-19.371-7.025-5.956-3.436-3.83-21.036-11.8a40.949 40.949 0 0 0-11.935-3.99c-3.494-.502-4.888-.275-5.981-.67-5.558-2.008-19.63-.712-19.852-.726-.824-.053-25.893 4.512-40.261 18.912-5.976 5.989-10.28 13.397-14.261 20.821-3.154 5.886-2.165 3.712-3.285 9.246-1.091 5.358-2.4 10.448-2.277 15.914a86.365 86.365 0 0 0 1.335 17c2.017 8.787 10.4 23.464 11.349 24.068a33.501 33.501 0 0 1 4.996 5.738c1.639 2.019 4.772 4.397 4.8 4.677.076.691-2.974 3.113-3.23 3.76-1.634 4.12.866 9.665 4.864 11.577-6.576 15.186-11.84 25.904-12.573 37.12-.611 9.402 2.58 19.613 10.331 24.968 11.568 8 51.079 11.087 79.533 6.866 13.335-1.979 21.491-6.409 22.704-28.894 2.503-46.333-8.297-36.172-2.342-45.087a7.36 7.36 0 0 0-.061-8.072c-.568-.825-1.355-1.691-1.163-2.677.368-1.884 8.725-7.02 12.069-14.42a10.22 10.22 0 0 0 1.203-4.357c.192-.803.363.001 4.553-9.965z"/><path fill="#FFC5F6" d="M118.843 183.099c1.524-1.667.188-2.35-.723-3.771-1.219-1.902-.331-4.626-1.574-6.512a8.531 8.531 0 0 0-3.52-2.4c-10.112-5.222-8.015-19.541-.091-29.542 1.08-1.364.928-2.008-.136-3.04-5.388-5.242-11.048-11.976-8.32-19.501 2.214-6.112 9.92-9.6 18.04-6.33 2.147-7.318 7.08-7.544 7.222-10.102a3.323 3.323 0 0 0-.813-1.986 5.576 5.576 0 0 1-.96-.726c-9.685-8.48-1.696-17.885 3.122-14.6-1.376-3.869 4.725-10.986 18.12 1.168 1.616 1.464 3.267 3.163 5.43 3.437 3.181.404 5.843-2.476 7.154-5.402 1.003-2.24 3.048-9.928 6.334-9.966 3.68-.042 2.205 6.16 4.96 7.68 2.903 1.6 6.045-3.2 9.248-2.34 2.311.62 2.842 3.612 2.88 6.002.16 11.125 7.778 3.595 10.483 6.4 1.551 1.611 1.178 7.504-2.969 10.845-1.847 1.488-1.496 1.253 2.317 8.464 9.568-1.623 18.833 14.363-.354 27.059a71.682 71.682 0 0 1-15.152 39.83c5.893 1.834 8.126 2.698 12.896 6.778.517.442 1.774 1.515 1.701 2.19-.139 1.298-1.743 1.44-2.901 2.036-9.17 4.755-10.494 5.92-21.989 8.654-5.233 1.246-19.593 1.936-24.875.914-18.064-3.493-17.174-4.8-21.942-6.431a15.347 15.347 0 0 1-5.068-2.653c-.628-.523-2.436-1.145-2.206-2.064.23-.918.451-.547 3.686-4.091z"/><path fill="#FDFE1F" d="M158.85 89.11c.491-4.32 5.42-13.862 6.964-15.123a3.175 3.175 0 0 1 3.642-.443c2.629 1.76.283 7.277 4.042 8.413 3.347 1.01 6.339-5.174 10.164-2.496 2.941 2.06.884 8.611 1.791 10.5 1.79 3.73 7.76-1.32 10.771 1.556 2.106 2.013.621 4.928-1.166 7.22-7.424 9.534-10.704 11.681-22.098 5.138-10.485-6.014-14.11-5.881-14.11-14.764z"/><path fill="#0F0F0F" d="M139.84 140.427c-4.68-.64-10.08-.454-14.069 2.08-1.54.978-2.443 2.283-1.734 3.967 1.28 3.052 6.696 2.262 8.192 6.26 1.085 2.906-.31 7.26-.816 7.164-.506-.096.378-3.976-.894-6.38-1.036-1.955-3.892-1.934-6.279-3.11a5.865 5.865 0 0 1-3-7.117c4.877-12.349 41.485-5.317 34.592 7.026-1.28 2.915-4.928 3.405-7.712 3.613-4.227.32-4.681.936-6.109 3.619-2.107 3.961-2.416 3.27-1.196-.533 1.955-6.09 5.328-4.67 9.688-5.952 5.675-1.674 4.656-8.563-10.663-10.637z"/><path fill="#0F0F0F" d="M174.896 131.731c3.55.461 4.528.848 4.629-.24.68-7.269.973-7.667-.034-7.816-76.869-11.333-71.331-10.918-71.36-9.613-.238 8.732-.505 8.946.48 9.072 3.936.511 4.818.37 4.751 1.376-.367 5.6-.66 6.21.336 6.343 3.665.48 4.451.36 4.406 1.328-.224 4.8-.509 5.553.48 5.672 16.53 1.958 16.754 2.344 16.83 1.141.272-4.205.072-5.234 1.189-5.085 2.951.393 3.888.742 3.986-.312.518-5.581.339-6.272 1.406-6.133 2.749.357 3.579.256 3.533 1.205-.25 5.075-.562 5.933.43 6.08 3.077.443 4.108.334 4.024 1.342-.358 4.266-.632 4.847.34 4.989 16.448 2.4 16.64 2.797 16.732 1.578.306-3.986.122-4.86 1.221-4.701 4.039.581 5.031 1.003 5.149-.103.57-5.406.386-6.264 1.472-6.123z"/><path fill="#fff" d="M117.527 122.323c-.394 4.407-.656 4.946.196 5.079 3.384.523 4.095.419 4.034 1.267-.336 4.582-.534 4.864.28 4.982 3.648.533 4.378.855 4.459-.089.394-4.578.584-4.863-.211-4.996-3.608-.598-4.16-.497-4.072-1.332.416-4.12.73-4.869-.16-4.997-3.675-.528-4.443-.848-4.526.086zm32.393 4.143c-.393 4.406-.656 4.945.197 5.078 3.384.523 4.096.419 4.034 1.267-.336 4.583-.535 4.864.28 4.983 3.648.532 4.377.854 4.459-.09.393-4.578.584-4.862-.211-4.995-3.608-.599-4.16-.498-4.072-1.333.416-4.12.729-4.869-.16-4.997-3.684-.528-4.452-.848-4.527.087z"/><path fill="#0F0F0F" d="M194.24 124.221c2.387-3.163 3.392-5.999 2.991-6.24-.536-.343-2.644 2.6-5.348 5.837-3.472 4.064-5.713 4.865-5.486 5.449.094.253 1.066.205 2.466-.429a12.531 12.531 0 0 0 3.297-2.278 16.41 16.41 0 0 0 3.096-.426c6.984-1.494 2.698-2.934-1.016-1.913zM164.895 112c-4.503-.458-9.324 3.84-10.063 2.858-.48-.64 2.341-3.68 5.33-5.079a9.58 9.58 0 0 1 12.537 4.023c1.087 2.121.81 3.636.42 3.68-.861.176-2.559-4.908-8.224-5.482zm-27.567-2.571c-4.504-.458-9.323 3.84-10.064 2.858-.469-.623 2.224-3.624 5.33-5.079a9.577 9.577 0 0 1 12.537 4.024c1.088 2.122.81 3.635.421 3.68-.862.175-2.56-4.907-8.224-5.483z"/><path fill="#0F0F0F" d="M207.384 117.267a12.406 12.406 0 0 0-10.608-7.8c-2.006-.105-.443.62-2.459-2.987-2.413-4.334-2.783-.281 2.827-8.8 2.037-3.094 1.341-6.408-.491-7.744-1.44-.992-2.669-.854-4.664-.491-9.226 1.752-4.554-1.662-5.909-8.149a4.092 4.092 0 0 0-3.816-3.52c-3.186-.195-7.157 4.035-9 3.03-1.664-1.343.032-6.047-3.342-7.875a5.639 5.639 0 0 0-6.848 1.874c-1.821 2.3-5.16 11.174-5.573 12.728-5.171.553.576 1.7-14.995-8.103-7.119-4.208-12.084-1.668-13.245 2.15-.592 1.956.278 1.76-.736 1.635-8.101-1.253-12.015 11.636-.533 18.588 1.197.712-.494-.368-3.942 4.576-4.33 6.183-1.52 6.72-3.888 5.168-11.7-7.72-28.116 9.888-6.96 28.16-11.264 9.063-13.2 29.456 2.755 33.229a14.96 14.96 0 0 0 1.499 6.4c1.634 3.36 2.098 1.202-.933 3.967a13.663 13.663 0 0 0-3.19 4.113l1.744 1.6a28.92 28.92 0 0 0 5.973-5.025c8.683 7.643 26.448 6.648 36.06-.565 5.28-3.939 10.058-11.963 7.776-18.183-.465-1.376-16.62 3.61-34.792 4.597-6.98.311-16.457 1.003-20.152-4.824-4.48-6.797-.364-17.659 5.421-23.696 2.8-2.953 5.088-4.312 4.835-4.822-.115-.296-1.628-.093-3.824 1.093-4.675-3.917-9.096-8.368-9.899-14.452-.859-6.315 3.651-12.056 10.066-10.712 6.461 1.357 7.267 7.508 7.889 7.344.394-.056.068-2.952-1.328-5.198 2.72-3.907 2.709-5.008 8.071-11.168 3.072 1.243 4.971 1.44 2.24-.698-2.635-2.096-6.323-4.256-8.171-8.198a6.246 6.246 0 0 1 .225-6.68c2.539-2.909 7.408.992 12.467 3.965 15.408 9.059-1.355-5.216-6.164-7.56a2.941 2.941 0 0 1 2.044-3.274c2.269-.8 4.752.397 6.823 1.632 11.83 7.453 10.966 6.096 9.83 6.589-1.958.832-2.96 1.76-2.784 2.14.261.582 2.181.028 9.29-.594a8.195 8.195 0 0 0 1.261 4.89c4.014 5.948 20.409 12.73 23.915 13.29 3.139.52 5.827-.952 8.238-3.051.359.674 1.92 3.488 2.274 4.09-7.2 2.022-12.423 9.44-11.709 9.942.691.613 8.094-7.774 15.568-7.04 8.595.8 12.498 12.306-.672 21.656-3.544 2.448-7.594 4.384-7.36 4.96.24.599 4.411-.845 5.024-1.075-2.174 14.458-5.426 27.371-16.603 37.501-1.034 0-6.781 0-6.72 1.227.041.928 4.32 1.302 9.193 2.458a27.603 27.603 0 0 1 5.524 2.4c10.363 5.467 7.6 6.294 10.214 3.404a29.4 29.4 0 0 0-14.845-9.075c11.506-8.949 15.706-24.32 15.856-39.03 10.402-5.018 13.387-14.003 11.253-20.007zm-44.664 49.506c.44 4.493-1.669 7.763-4.666 11.117-9.336 10.445-37.072 11.689-39.577-4.511 8.944 1.108 31.837-.67 44.243-6.606zm19.978-61.229c-3.716-.601-18.88-7.629-21.618-11.808-1.797-2.688.16-7.166 1.458-10.275 1.204-2.971 2.318-7.68 5.084-8.011 3.04-.357.612 5.044 4.026 7.556 2.958 2.253 7.04-1.76 9.574-2.73 3.736-1.487 2.442 4.343 2.256 7.164-.425 8.427 9.703 3.957 11.36 4.923.668.46.48 2.16-.124 3.239-.096.161-6.759 10.733-12.023 9.942h.007z"/><path fill="#0F0F0F" d="M203.136 195.493c4.587-4.781 6.475-10.24 1.378-14.415 46.937-43.185 14.337-118.812-50.432-118.812-64.8 0-97.496 75.84-50.231 119a9.896 9.896 0 0 0-2.601 8.417 14.076 14.076 0 0 0 4.96 7.248 79.94 79.94 0 0 0-10.666 32.619c-2.256 21.632 6.4 30.922 23.813 34.866a194.64 194.64 0 0 0 50.982 3.798c11.175-.664 23.559-1.48 31.568-9.478 7.596-7.491 7.57-18.674 7.872-28.757.348-12.646-.648-23.779-6.643-34.486zM84.565 131.39c0-36.406 31.186-66.025 69.517-66.025 38.331 0 69.517 29.619 69.517 66.025 0 36.407-31.184 66.028-69.517 66.028s-69.517-29.62-69.517-66.028zm20.864 51.272a75.2 75.2 0 0 0 97.536-.198c6.368 5.384-2.341 12.91-9.086 16.821-35.516 21.128-104.261-1.179-88.448-16.623h-.002zm101.224 47.2c-.411 9.308-.435 19.861-7.19 26.4-7.252 7.128-19.279 7.732-29.301 8.293a197.315 197.315 0 0 1-50.019-3.648c-7.84-1.713-14.359-4.169-18.391-10.942-7.5-12.791-1.029-38.573 6.386-51.52 20.437 14.88 70.533 18.955 93.257-1.296 5.103 9.625 5.722 21.763 5.258 32.718v-.005z"/><path fill="#FDFE1F" d="M144.72 212.075a29.971 29.971 0 0 0 6.576 7.424 31.293 31.293 0 0 0 17.789 4.96c7.84-.294 14.286-4.193 15.947-6.621.731-1.07.773-1.47 4.245-12.139 1.145-3.52 1.826-6.4-.992-10.454a23.09 23.09 0 0 0-8.923-7.2c-.828-.279-1.696-.432-2.506-.76-.921-.375-1.741-.96-2.645-1.383-3.385-1.564-15.84-1.92-21.653 2.38-5.838 4.337-10.488 18.3-7.838 23.793z"/><path fill="#0F0F0F" d="M168.042 224.64a31.652 31.652 0 0 1-16.842-5.013 30.152 30.152 0 0 1-6.622-7.483c-2.677-5.544 1.969-19.597 7.885-23.981 5.888-4.361 18.433-3.958 21.814-2.4.904.418 1.731 1.011 2.637 1.379.8.32 1.672.48 2.496.756a23.203 23.203 0 0 1 9.003 7.256c2.72 3.913 2.262 6.752 1.013 10.592-3.52 10.832-3.552 11.137-4.266 12.179-1.96 2.864-9.11 6.715-17.118 6.715zM144.863 212a29.877 29.877 0 0 0 6.524 7.36 31.202 31.202 0 0 0 17.692 4.933c7.763-.293 14.19-4.16 15.824-6.56.726-1.063.772-1.493 4.225-12.099 1.155-3.552 1.795-6.325-.973-10.316a22.928 22.928 0 0 0-8.844-7.136c-.823-.276-1.692-.43-2.514-.763-.941-.381-1.749-.96-2.651-1.384-3.36-1.558-15.723-1.92-21.495 2.362-5.771 4.281-10.403 18.177-7.788 23.611V212z"/><path fill="#0F0F0F" d="M153.875 186.158c-4.088 2.264-7.153 4.888-9.789 15.671a18.558 18.558 0 0 0-.731 8.707c3.533 14.643 35.04 21.739 43.893 4.432a60.15 60.15 0 0 0 4.23-13.258c.97-11.71-22.638-23.71-37.603-15.552zm31.608 7.186c-.36 1.059-.741 2.706-1.241 3.966-.46 1.156-1.218 2.479-1.696 3.477a26.953 26.953 0 0 0-7.396-4.547c1.165-3.141.02-2.205 3.164-7.79a25.12 25.12 0 0 1 7.169 4.894zm-8.488-5.459c-1.785 6.221-1.723 4.381-3.325 7.766a38.644 38.644 0 0 0-9.246-2.209c1.771-5.74.122-1.888 3.186-7.775a33.955 33.955 0 0 1 9.385 2.218zm-10.958-2.317c-1.811 6.531-2.165 5.067-3.255 7.73a26.49 26.49 0 0 0-7.796.563c.771-4.96.977-3.808 2.23-7.05a23.618 23.618 0 0 1 8.821-1.243zm-10.469 1.92c-.736 4.854-2.77 6.72-2.221 6.866a14.95 14.95 0 0 0-6.664 5.011c2.64-8.131 4.922-9.986 8.885-11.872v-.005zm24.846 32.555c-13.232 8.81-33.382.227-35.39-9.878a16.335 16.335 0 0 1 .667-7.29c2.903-6.56 8.855-8.587 15.346-8.47 19.705.254 33.881 15.995 19.377 25.643v-.005zm6.853-9.969a11.884 11.884 0 0 0-3.52-8.106c1.066-3.84.282-3.285 2.815-7.491 4.435 5.053 3.222 8.064.705 15.603v-.006z"/><path fill="#0F0F0F" d="M182.855 207.99c-3.909-8.561-18.08-12.014-28.765-9.483-11.952 2.864-7.143 18.61 7.779 21.479 2.56.491-.64-.416-2.442-1.143-12.07-4.979-13.049-14.08-8.64-17.565 3.469-2.744 15.596-4.169 25.351 1.362 3.445 1.994 6.904 5.822 6.4 9.413a9.37 9.37 0 0 1-6.384 7.144c-7.731 2.619-13.059.438-13.16.934 1.146.407 2.34.665 3.552.77 13.734 1.539 19.169-6.949 16.309-12.911z"/><path fill="#FDFE1F" d="M120.334 198.341c-.718-4.541.38-6.271 3.116-9.045 6.552-6.639 12.057-11.187 21.625-8.835a45.666 45.666 0 0 1 8.863 3.691 43.953 43.953 0 0 1 5.641 4.96c3.935 4.11 7.965 11.107 6.059 16.769a20.153 20.153 0 0 1-4.686 6.9c-7.774 8.505-14.477 11.92-27.218 4.329-3.166-1.888-3.966-3.317-6.307-5.28a23.579 23.579 0 0 1-7.093-13.489z"/><path fill="#0F0F0F" d="M166.062 197.779c-4.43-11.969-18.936-21.853-31.704-17.618-3.809 1.263-7.691 5.293-10.414 8.16-2.758 2.86-4.398 4.676-4.427 8.49-.031 12.261 14.31 25.736 27.056 25.44 4.581-.138 8.416-1.059 15.52-9.237 4.117-4.707 6.371-8.58 3.969-15.235zm-37.798-11.262a11.62 11.62 0 0 0-.573 8.617c-2.63 2.847-1.715 2.73-5.8 5.251-1.592-6.385.829-8.452 6.373-13.868zm-5.941 15.341c.786-.76 1.853-2.02 2.855-2.89.915-.8 2.168-1.61 3.028-2.262a26.375 26.375 0 0 0 4.391 7.262c-2.442 2.229-.97 1.88-6.24 5.354a24.606 24.606 0 0 1-4.034-7.464zm4.93 8.545c4.459-4.736 3.176-2.821 6.368-5.261a37.91 37.91 0 0 0 7.04 6.06c-4.096 4.187-.942 1.577-6.25 5.331a33.257 33.257 0 0 1-7.158-6.133v.003zm8.48 6.919c4.52-4.884 4.139-3.426 6.288-5.258a25.978 25.978 0 0 0 7.027 3c-2.88 3.958-2.549 2.87-5.093 5.128a23.1 23.1 0 0 1-8.216-2.87h-.006zm9.96 3.014c2.681-3.704 5.373-4.64 5.003-4.971a14.658 14.658 0 0 0 8.034-1.371c-5.866 5.824-8.698 6.486-13.031 6.342h-.006zm19.315-14.986a15.97 15.97 0 0 1-3.84 6.037c-5.462 4.407-11.541 3.499-17.129.49-17.02-9.042-22.271-29.06-5.36-30.956 15.721-1.763 29.051 14.97 26.336 24.429h-.007z"/><path fill="#0F0F0F" d="M156.72 191.057a15.433 15.433 0 0 0-2.72-2.289c-.234.267 4.96 3.859 6.907 10.833 1.616 5.983-1.12 10.164-4.88 10.9-4.32.844-11.973-3.154-15.501-5.988-7.008-5.678-12.118-15.705-4.672-19.857 8.29-4.64 20.98 6.513 17.365 3.336-5.677-5.01-16.12-8.175-20.8-1.664-3.792 5.16.909 17.861 15.338 23.696 2.755 1.096 5.625 2.16 8.493 1.537 6.484-1.321 9.371-11.241.47-20.504z"/><path fill="#0F0F0F" d="M156.682 205.179c-.055-.23-.547-1.992-2.368-8.539a.224.224 0 0 0-.215-.197c-.996-.203-3.072-.64-3.145-.648.208.65-.083-.355 1.501 5.315.112.397.344.18-5.624-.98l.875 3.171 8.976 1.878zM142.4 191.825l5.528 1.16-.875-3.168-8.96-1.876 2.411 8.675 3.267.678c-1.613-5.886-1.624-5.525-1.371-5.469z"/><path fill="#0F0F0F" d="m149.469 198.49-.888-3.181-3.298-.693.885 3.184 3.301.69zm4.12-4.343-.878-3.134-3.242-.685.875 3.142 3.245.677zm-11.61 7.829c.064.232-.123.105 3.2.811.195.043.187.213-.72-3.049-.045-.161.283-.034-3.315-.786.027.12.488 1.762.835 3.024z"/><path fill="#FDFE1F" d="M207.222 207.03c1.333 5.76-3.027 13.362-6.832 17.725-5.31 6.09-11.272 7.832-18.126 8.863a9.82 9.82 0 0 1-8.17-1.583 20.751 20.751 0 0 1-6.384-4.782c-5.224-6.615-9.16-10.159-5.499-18.303 8.346-18.56 28.704-21.206 36.989-12.526 2.701 2.829 6.896 5.734 8.022 10.606z"/><path fill="#0F0F0F" d="M207.232 203.757a59.842 59.842 0 0 0-9.867-9.815c-15.651-11.144-40.574 9.333-36.902 24.172 1.187 4.8 9.353 12.694 13.267 15.04 4.96 3.102 15.787 2.88 25.814-6.32 6.319-5.81 11.783-16.573 7.688-23.077zm-1.025 8.678c-4.226-2.589-3.308-2.51-5.952-5.349a11.908 11.908 0 0 0-.615-8.811c6.619 6.408 8.016 8.259 6.567 14.16zm-44.095 5.234c-2.88-9.88 10.944-26.81 26.847-25.082 5.548.602 8.619 3.146 10.187 7.061 3.057 9.08-7.146 20.114-15.559 24.622-5.649 3.066-11.873 4.08-17.518-.435a16.366 16.366 0 0 1-3.957-6.166zm6.455 8.821a15.813 15.813 0 0 0 8.16 1.424c1.355 1.545 2.512 1.345 5.193 5.016-5.774.222-8.721-1.877-13.353-6.44zm15.132 6.284c-2.56-2.257-2.288-1.212-5.228-5.225a26.503 26.503 0 0 0 7.179-3.098c2.147 1.819 1.893.453 6.451 5.36a23.618 23.618 0 0 1-8.402 2.963zm9.752-3.776c-5.424-3.806-2.182-1.145-6.412-5.43a38.769 38.769 0 0 0 7.185-6.224c3.28 2.488 1.992.566 6.533 5.357a33.994 33.994 0 0 1-7.306 6.297zm8.215-7.404c-5.419-3.557-3.711-3.016-6.4-5.455a26.936 26.936 0 0 0 4.465-7.445c.885.664 2.167 1.488 3.108 2.303 1.025.886 2.123 2.171 2.929 2.947a25.148 25.148 0 0 1-4.102 7.656v-.006z"/><path fill="#0F0F0F" d="M167.335 221.973c4.932 5.155 15.52-.223 20.577-4.311 7.655-6.262 13.019-17.579 4.426-22.145-8-4.269-19.216 4.64-18.88 5.032.237.293 4.55-4.077 12.107-5.24a9.37 9.37 0 0 1 4.946.468 9.367 9.367 0 0 1 4.014 2.929c7.963 11.139-23.795 34.193-28.238 19.504-3.2-9.52 10.188-20.136 6.24-17.016-6.242 4.942-10.663 15.169-5.192 20.779z"/><path fill="#0F0F0F" d="M187.155 199.774a9.801 9.801 0 0 1-1.12-.976c-1.678 1.349-4.893 4.808-7.773 7.103-10.689 8.52-8.419 5.645-7.424 7.542-1.745 1.28-2.164 3.603.405 1.199.218-.204.149-.212.271-.026.924 1.421 1.12 1.029.774 1.314-2.014 1.68-1.394 2.7.77.896.425-.356.211-.33.632-.104 4.243 2.355 8.868-3.698 8.491-7.632a5.093 5.093 0 0 0 6.688-3.151c.29-.878.337-1.818.134-2.72 1.451-.849 1.899-2.249 1.6-2.427-.299-.178-.984.438-1.813 1.133-.361.305 0 .307-.952-1.192 2.391-1.723 1.621-2.879-.683-.959zm-14.16 12.826a58.643 58.643 0 0 1 5.703-5.73 5.964 5.964 0 0 1 1.777 2.991c.52 4.281-4.849 9.557-7.48 2.739zm14.776-7.274a3.01 3.01 0 0 1-.846 1.831 3.01 3.01 0 0 1-1.81.889c-2.091.228-3.341-1.6-4.347-2.732 1.776-1.271 3.691-2.512 5.149-3.52a4.665 4.665 0 0 1 1.854 3.532z"/><path fill="#FDFE1F" d="M210.68 231.173c.995 1.395 3.146 8.301 3.567 8.96.617 1.995.848 4.089.678 6.171a19.028 19.028 0 0 1-2.896 8.434c-2.643 4.577-5.76 6.779-11.704 10.198a23.906 23.906 0 0 1-6.739 2.066c-4.066 1.164-4.031.859-9.458.464a11.88 11.88 0 0 1-3.605-1.263 10.12 10.12 0 0 1-3.427-3.091c-4.96-6.08-5.499-14.302-6.662-16.347-.272-.48.336-2.546.337-3.317 0-.184 2.199-4.069 2.416-4.435 4.085-6.901 6.927-7.699 9.972-10.016a10.948 10.948 0 0 1 5.937-2.914c6.731-1.584 7.867-1.318 10.871-1.102.036 0 1.44.062 1.476.081 3.892 2.14 4.842.858 7.383 3.892.061.083 1.798 2.14 1.854 2.219z"/><path fill="#0F0F0F" d="M215.395 242.262a59.746 59.746 0 0 0-4.733-13.088c-7.31-11.315-38.315-2.95-40.676 15.408-.868 4.287 2.937 13.677 5.099 17.5 8.813 15.582 44.173.958 40.31-19.82zm-6.344-12.03a74.118 74.118 0 0 1 3.378 8.141 11.898 11.898 0 0 0-7.73-4.277c-1.497-3.68-1.784-2.789-2.339-7.654a10.055 10.055 0 0 1 6.691 3.798v-.008zm-8.243-4.03c.362 1.057 1.064 2.595 1.44 3.899.341 1.197.546 2.707.774 3.79a26.908 26.908 0 0 0-8.631.906c-1.002-3.223-1.317-1.717-2.241-8.103a25.19 25.19 0 0 1 8.658-.492zm-10.056.849c2.419 6.119 1.216 4.117 2.102 8.183a38.7 38.7 0 0 0-8.673 3.889c-2.099-5.63-1.059-1.6-2.219-8.105a33.96 33.96 0 0 1 8.79-3.967zm-10.096 4.848c2.552 6.296 1.375 5.328 2.135 8.109a26.606 26.606 0 0 0-5.836 5.202c-2.374-4.32-1.478-3.36-2.533-6.946a23.626 23.626 0 0 1 6.234-6.365zm-7.123 7.911c2.377 4.292 1.907 7.017 2.427 6.795a14.96 14.96 0 0 0-2.222 8.033c-2.824-7.918-2.239-10.846-.205-14.828zm40.377 6.792c-1.336 12.292-14.998 21.673-28.174 20.296-6.256-.687-8.414-3.813-10.645-8.871-2.414-9.881 5.76-16.745 15.218-20.627 16.054-6.266 24.526.69 23.601 9.202z"/><path fill="#0F0F0F" d="M198.922 238.101c-12.383 1.689-28.592 14.609-19.319 22.832 6.781 6.2 19.821.88 19.547.294-.142-.333-5.729 2.915-13.033 1.683-6.122-1.083-8.935-5.408-7.968-9.257 2.03-8.095 19.587-18.09 29.005-13.255 5.073 2.514 6.308 11.112-4.8 18.802-1.786 1.218-4.452 2.65-2.138 1.642 15.866-6.884 15.554-24.919-1.294-22.741z"/><path fill="#FDFE1F" d="M129.691 221.707a8.03 8.03 0 0 1-.145.8 4.114 4.114 0 0 0-.274.695c.01 2.224.279 4.44.8 6.603.518 2.408-.461 2.92 3.859 10.79a9.598 9.598 0 0 0 3.189 3.933c2.72 2.354 2.019 1.96 2.486 2.203.97.631 1.893 1.328 2.764 2.09a32.266 32.266 0 0 0 3.6 2.24c2.784 1.515 9.836 1.086 12.32.461a25.468 25.468 0 0 0 8.42-4.62c2.744-1.993 5.672-4.252 6.503-7.539.541-1.752.801-3.581.771-5.414-1.291-10.482-9.547-20.595-15.84-23.061-8.549-3.349-11.762-2.739-18.56 1.042-4.043 2.252-8.68 5.137-9.893 9.777z"/><path fill="#0F0F0F" d="M174.661 233.179c-1.592-12.726-13.565-26.198-27.467-24.944-4.096.37-8.912 3.487-12.277 5.699-3.427 2.215-5.472 3.637-6.391 7.426-2.896 12.229 8.272 28.976 21.012 31.65 4.58.928 8.611.923 17.614-5.576 5.202-3.74 8.347-7.068 7.509-14.255zm-38.695-17.659c5.008-3.352 3.66-2.467 2.989-1.478a12.414 12.414 0 0 0-1.896 7.56c-3.27 2.211-2.352 2.323-7 3.875-.086-6.045 2.189-7.531 5.907-9.957zm-5.82 11.52c.96-.573 2.316-1.579 3.52-2.213 1.099-.582 2.534-1.097 3.545-1.545a26.937 26.937 0 0 0 2.677 8.256c-2.957 1.654-1.403 1.648-7.459 3.878a25.18 25.18 0 0 1-2.283-8.376zm2.915 9.661c5.401-3.578 4.16-2.215 7.568-3.754a38.603 38.603 0 0 0 5.6 7.68c-5.107 3.243-1.411 1.395-7.467 3.85a34.076 34.076 0 0 1-5.701-7.779v.003zm6.838 8.872c5.653-3.821 4.907-2.437 7.488-3.771a26.589 26.589 0 0 0 6.301 4.628c-3.734 3.218-2.968 2.136-6.269 3.919a23.61 23.61 0 0 1-7.52-4.779v.003zm9.221 5.323c3.36-2.912 6.414-3.403 6.142-3.784a14.965 14.965 0 0 0 8.32.507c-7.22 4.439-10.196 4.429-14.464 3.277h.002zm22.733-10.419a16.333 16.333 0 0 1-5.237 5.12c-6.467 3.113-12.309.8-17.173-3.509-14.841-12.979-15.413-34.141 1.883-32.082 16.071 1.911 25.436 21.682 20.524 30.474l.003-.003z"/><path fill="#0F0F0F" d="M166.923 224.304a14.271 14.271 0 0 0-2.171-2.912c-.309.222 4.037 4.974 4.352 12.402.213 6.347-3.499 9.859-7.405 9.715-4.501-.16-11.2-5.938-14.04-9.578-5.669-7.305-8.402-18.475-.021-20.87 9.248-2.658 19.317 11.297 16.517 7.374-10.01-14.053-27.61-10.08-21.979 5.978 4.016 11.2 14.72 18.126 19.494 18.205 6.763.195 11.96-9.007 5.253-20.314z"/><path fill="#0F0F0F" d="M156.032 229.414c1.497-.414 2.032-1.833 2.512-2.747 1.584-2.987 1.206-3.214.939-3.733-7.264-4.446-7.64-4.894-12.722-6.889a64.483 64.483 0 0 0 3.52 11.38c.8 1.92.564 1.621.992 1.76 1.54.489 3.18.567 4.759.229zm-7.232-11.033a72.11 72.11 0 0 1 9.502 5.459 13.547 13.547 0 0 1-.989 2.173c-.662 1.252-1.016 3.065-5.302 1.929a51.233 51.233 0 0 1-3.211-9.561z"/><path fill="#0F0F0F" d="M158.096 236.507a12.032 12.032 0 0 0 6.181 3.464c1.6-1.76-1.429-12.626-3.055-15.565-4.307 9.347-1.993 5.738-9.451 6.541 3.32 2.798 1.24 1.264 6.325 5.56zm.973-4.899c2.72-2.56 1.715-5.736 2.67-2.058a59.013 59.013 0 0 1 1.664 8.821 14.658 14.658 0 0 1-4.529-3.04c-6.5-5.587-2.327-1.349.195-3.723z"/><path fill="#FDFE1F" d="M131.981 212.946c3.305 4.355 4.696 8.208.214 17.539-4.539 9.456-14.758 17.264-25.937 16.362a10.49 10.49 0 0 1-4.127-1.01 13.762 13.762 0 0 1-3.806-2.907c-3.952-4.789-19.59-12.64-3.735-31.919 6.157-7.486 13.429-10.23 23.266-9.92a8.359 8.359 0 0 1 3.797 1.148 92.216 92.216 0 0 1 10.328 10.707z"/><path fill="#0F0F0F" d="M135.07 214.928c-1.105-2.31-7.248-8.763-9.776-10.826-16.419-13.225-41.312 10.01-38.08 25.189 1.58 6.415 11.24 16.28 15.373 17.699 18.213 6.325 38.608-19.24 32.483-32.062zm-1.448 8.742c-4.281-2.827-3.292-2.72-5.971-5.777a13.864 13.864 0 0 0-.617-9.552c6.824 7.089 8.03 9.029 6.588 15.329zm-16.982-21.494a11.253 11.253 0 0 1 9.84 7.594c4.494 14.926-24.048 42.126-35.98 22.828-7.226-11.694 9.446-32.969 26.14-30.422zm-21.077 36.723a14.481 14.481 0 0 0 8.232 1.525c1.391 1.701 2.56 1.458 5.311 5.52-5.925.27-9.045-2.264-13.543-7.045zm15.36 6.871c-2.771-2.608-2.313-1.317-5.323-5.722a25.707 25.707 0 0 0 7.258-3.349c2.32 2.059 1.91.522 6.542 5.837a22.477 22.477 0 0 1-8.483 3.234h.006zm9.839-4.114c-.92-.688-2.444-1.629-3.501-2.589-1.095-.993-2.219-2.488-2.997-3.325a40.16 40.16 0 0 0 7.286-6.74c3.301 2.638 2.1.734 6.591 5.808a35.08 35.08 0 0 1-7.386 6.846h.007zm8.292-8.043c-5.699-4-3.576-3.168-6.456-5.92a29.98 29.98 0 0 0 4.532-8.072c.896.715 2.169 1.6 3.099 2.464 1.045.969 2.152 2.361 2.966 3.2a28.002 28.002 0 0 1-4.147 8.328h.006z"/><path fill="#0F0F0F" d="M93.94 233.571c4.78 6.178 15.545.671 21.201-4.224 7.688-6.728 12.995-18.544 4.936-23.731-8.188-5.24-19.922 4.758-19.552 5.171.22.258 4.86-4.587 12.513-5.736 4.6-.619 9.879 2.106 9.848 7.877.136 11.598-17.083 24.195-24.912 22.026-3.558-.986-6.373-5.506-4.64-12.194 2.047-7.717 7.311-11.56 7.04-11.84-.15-.16-2.312 2-2.813 2.56-4.936 5.533-8.065 14.53-3.62 20.091z"/><path fill="#0F0F0F" d="M103.478 222.224c.122-.125.303.15-2.454-2.56-.035-.034-.061-.021-.122.042-3.93 4.022-2.982 2.56-3.992 5.745a65.982 65.982 0 0 0 5.172 5.055c3.28-1.12 1.108.505 8.96-7.487.116-.118.03.051.838-2.504.101-.32-3.52-3.27-3.291-3.51l3.142-3.2c.123-.127-.07-.218 1.76 1.561.031.031.021.053-.035.111l-1.499 1.528c-.128.129-.304-.144 2.448 2.56.037.037.064.021.128-.045 3.92-4.013 2.984-2.573 3.977-5.704a41.319 41.319 0 0 0-5.265-5.056c-2.528.856-2.375.771-2.493.891-7.787 7.923-6.189 5.741-7.234 9.047-.102.32 3.556 3.23 3.288 3.5l-3.14 3.2c-.056.058-.082.072-.116.04-1.76-1.742-1.691-1.568-1.569-1.689.499-.506.997-1.016 1.497-1.525z"/><path fill="#fff" d="M234.987 239.261c.335-1.565.205-1.651-1.539-17.146-1.155-10.264-3.717-9.28-5.421-14.78-.707-2.292-.64-4.84-1.806-6.933-1.687-3.015-5.44-4.226-7.666-6.867-2.419-2.869-3.04-7.384-6.409-9.042a8.047 8.047 0 0 0-7.532.998c-11.155 6.832 1.101 15.181-.28 22.24a18.499 18.499 0 0 0-.968 4.191c.109 2.448 2.527 4.32 2.677 6.765.147 2.412-1.907 4.32-2.849 6.56-1.327 3.126-.412 6.825-1.588 10.009-1.752 4.744-7.641 7.147-8.96 12.029-3.68.464-5.008-5.232-12.019 1.44a2.496 2.496 0 0 0-.345.381c-7.343-4.421-17.661-3.719-23.866-13.701a11.787 11.787 0 0 0-2.331-3.51 8.144 8.144 0 0 0-.947-.552c-.453-.394-.81-.284-1.09-.415-1.947-.907-2.758-1.681-6.968 1.807-.79.654-.902 2.497-2.182 4.04-1.333 1.6-2.053-4.015-7.271-2.036a17.102 17.102 0 0 0-4.491 3.04 50.389 50.389 0 0 1-16.288 8.664c-4.866-5.945-9.538-2.299-11.885-2.382-4.585-.16-6.333-7.395-5.57-12.582.612-4.16-1.532-8.269-.42-12.388.48-1.776 1.491-3.36 2.025-5.12.792-2.606.512-5.512 1.698-7.964a26.184 26.184 0 0 1 2.154-3.224c2.748-4.028 4.062-10.346 1.152-14.184a7.125 7.125 0 0 0-8.362-1.92 70.921 70.921 0 0 0-13.643 10.569c-3.89 3.858-2.08 5.343-3.63 8.367-1.572 3.056-5.903 3.817-7.554 6.83-1.056 1.928-.746 4.28-1.063 6.454-.857 5.86-6.361 10.773-5.516 16.64.462 3.216 2.81 5.912 3.33 9.12.548 3.373-.993 6.901-.087 10.197 1.147 4.16 5.713 6.434 7.737 10.251 1.35 2.544 1.636 5.852 3.97 7.535 2.458 1.773 6.01.848 8.733 2.174 3.213 1.567 5.872 7.898 12.277 10.459a10.018 10.018 0 0 0 10.208-1.24c6.772 6.744 9.305 6.615 17.43 6.18 10.248-.549 11.978 2.28 16.742 2.979 4.034.592 8.021-1.055 12.06-1.61 12.942-1.781 24.12 6.418 32.726-13.163a40.716 40.716 0 0 1-2.88 5.682c-.16 1.219 1.901 1.929 2.802 1.99a29.046 29.046 0 0 0 4.044-.443c3.192-.235 3.756.421 6.303-2.507 5.976-6.871 5.869-6.84 6.462-7.181 2.323-1.333 5.531 1.942 9.44-5.202 1.258-2.305 2.272-4.889 4.365-6.475 2.766-2.098 7.098-2.194 8.818-5.21 1.739-3.048-.442-6.964.432-10.361.916-3.647 5.062-5.797 5.841-9.453zm-44.049 31.485c-.216-4.522-3.188-15.058-7.864-19.536 5.36 2.833 8.252 12.816 7.864 19.536z"/><path fill="#0F0F0F" d="M215.587 204.84c-4.686.768-8.254 2.53-8.672 1.898-.192-.29.491-1.159 1.938-2.119 6.798-4.51 15.886-1.981 15.558-.749-.195.733-4.137.204-8.824.97zm3.826 16.19c-6.254-1.188-11.39.32-11.661-.403-.117-.312 1.043-1.161 3.245-1.827 10.414-3.157 20.48 4.96 19.411 6.133-.513.571-4.741-2.714-10.995-3.903zm-2.81 17.877c-7.07-2.513-13.968-1.657-14.08-2.547-.097-.8 7.703-2.525 14.967.075 8 2.864 11.427 9.991 10.637 10.434-.864.491-3.516-5.109-11.524-7.962zm-8.038 13.183c-5.626-5.776-12.215-7.671-11.983-8.428.074-.32 1.852-.291 4.548.62 13.643 4.604 16.932 19.763 15.409 20.03-.896.157-1.729-5.81-7.974-12.222z"/><path fill="#0F0F0F" d="M235.104 230.653c-1.421-5.085-1.109-5.091-.291-9.024 1.475-8.099-3.106-8.933-5.349-13.303-.941-1.854-.533-3.852-.763-6.316-.519-6.539-6.163-6.845-7.805-10.042a17.422 17.422 0 0 0-2.57-5.046 10.837 10.837 0 0 0-9.398-3.99 10.86 10.86 0 0 0-8.549 5.583 10.859 10.859 0 0 0-1.221 6.853c.522 4 3.405 6.282 4.056 8.863.76 2.289-1.556 5.553-.451 9.094.602 2.045 1.795 3.811 1.88 5.216.096 1.6-1.366 2.552-2.064 4.45-1.241 2.752-.984 6.145-1.12 8.563-.358 8.224-6.702 5.6-9.31 13.573-5.04-2.471-9.429-1.656-12.455 1.542-4.427-2.734-9.904-3.806-14.528-6.104-3.889-1.933-6.113-7.491-10.42-10.278-5.071-3.256-10.4-.48-12.303 4.78a6.895 6.895 0 0 0-4.48-2.326c-5.793-.464-7.52 5.109-14.11 8.562-2.88 1.449-6.053 2.516-8.96 3.971a12.197 12.197 0 0 0-12.853-2.371c-.77-.885-1.613-1.626-2.24-2.381-3.305-4.179-.48-7.463-.6-13.112a15.451 15.451 0 0 0-1.362-5.408c-.775-2.979 3.695-4.731 3.77-9.706.12-5.44-.851-4.334 3.792-9.44a10.648 10.648 0 0 0 2.958-6.525c.869-11.371-12.41-15.52-18.923-8.22-3.216 3.593-.128 2.844-7.04 6.011-6.699 3.145-4.099 8.616-7.22 12.033-2.049 2.24-6.324 4.032-7.2 8.306-.64 3.109-.012 4.504-.32 6.826-.373 2.76-2.186 5.064-3.62 8.564-3.84 9.528 3.754 12.336 2.81 18.08-.34 2.485-2.488 6.162-.709 9.458 1.663 3.064 7.387 5.21 9.413 9.496 1.42 2.88.72 6.702 5.867 8.518a18.863 18.863 0 0 0 8.128.788c4 9.505 13.51 13.336 21.141 10.388 7.592 5.876 16.227 6.808 25.6 5.9 4.525 3.168 8.933 2.115 14.501 1.182 10.142-1.971 26.56 4.352 36.433-7.91 7.053 5.323 16.544.608 18.936-8.716a8.167 8.167 0 0 0 9.463-4.236c2.256-4.876.446-5.183 10.115-9.904 6.107-2.983 3.742-7.788 3.962-11.52.182-4.16 5.46-7.114 6.444-11.908a19.402 19.402 0 0 0-1.035-8.814zM88.712 273.831c-2.75.121-7.798-.301-9.02-3.311-1.684-3.981.43-5.499-9.3-13.03-3.28-2.658-1.067-4.563-.266-9.031 1.085-5.92-4.431-9.956-3.643-14.579.947-5.6 4.978-6.929 4.848-15.707a6.313 6.313 0 0 1 1.365-5.043c1.962-2.191 6.032-3.832 7.325-8.12.766-2.362.8-4.605 1.896-6.066 1.041-1.377 3.138-1.845 5.288-3 3.216-1.627 3.778-4.137 4.96-5.414a7.83 7.83 0 0 1 7.36-2.261 7.427 7.427 0 0 1 5.171 5.224 7.435 7.435 0 0 1-1.848 7.115c-2.541 3.007-4.597 4.36-4.555 8.736.027 2.221.333 3.485-.368 4.96a51.202 51.202 0 0 0-2.88 4.925c-1.03 2.72.424 4.749.877 6.128 1.213 3.84-.91 7.645-.288 12.08a11.109 11.109 0 0 0 4.096 6.539c-7.784 4.539-14.356 18.413-11.018 29.855zM95 254.28c7.379-13.971 18.03-7.985 17.539-7.68-10.606 6.611-15.36 26.701-4.117 37.979C96.56 286.48 85.645 272.096 95 254.28zm39.152 29.543a5.131 5.131 0 0 0-.79 5.193c-16.18.925-25.78-6.965-28.824-17.984-1.135-4.537-2.701-10.113 5.788-18.581 5.557-5.419 12.8-5.476 18.844-10.11 2.428-1.75 3.982-4 5.843-5.155 5.073-3.178 8.048 4.245 6.133 10.333-3.26 1.294-4.864 2.379-7.855 3.347-2.345.766-3.941 1.054-3.942 1.51-.015.408 1.64.93 4.39.672 3.2-.278 5.994-1.736 9.797-3.059a12.577 12.577 0 0 1 9.587-.19c8.511 2.195 9.45 2.153 9.995 3.761.223.867.216 1.586-1.385 2.647-5.461 3.427-9.533.433-16.559.836-4.852.341-17.736 4.895-19.625 9.351-1.21 2.702.929 6.293 5.366 7.294-2.88 1.573-4.608 2.795-4.413 3.248.344.8 5.816-.712 18.744-6.277a25.61 25.61 0 0 1 18.021-.441c3.103 1.205 2.72 5.6-1.955 6.893-6.928 1.897-9.334-3.333-23.779 4.187a10.168 10.168 0 0 0-3.381 2.525zm65.302-1.584a8.452 8.452 0 0 1-5.124 2.694 8.458 8.458 0 0 1-5.656-1.243 21.004 21.004 0 0 0 3.076-13.403c-.867-5.999-1.454 1.552-2.755 5.51-6.99 20.394-26.72 11.907-38.824 14.24-4.574.786-8.883 1.715-11.917-.667-3.74-2.938-.259-4.301 4.012-6.21 7.632-3.71 10.72-2.569 18.192-2.477 7.099.183 11.664-.292 4.745-1.769 3.763-2.24 4.48-7.754 1.458-10.463a13.57 13.57 0 0 0-6.279-2.4c-9.403-1.888-15.547.88-24.82 5.28-2.783.093-6.477-.769-7.135-2.995-.745-2.281 7.93-5.624 10.167-6.475 6.171-2.342 8.233-1.787 13.939-1.144 11.563 1.382 21.157.837 10.323-1.526 3.04-1.679 4.446-4.196 2.742-7.754a6.987 6.987 0 0 0-4.75-2.891c-9.013-2.437-10.573-3.018-13.645-2.687-3.68-7.174-1.041-12.376 2.28-13.217 4.096-1.167 7.586 6.177 11.578 9.6 6.537 5.6 17.673 3.454 25.257 15.23 3.04 4.749 5.677 15.827 4.874 7.101a24.61 24.61 0 0 0-9.418-16.48c5.776-4.467 13.743 2.258 17.232 8.016 4.514 7.446 6.434 20.426.448 26.131v-.001zm27.818-34.544a11.38 11.38 0 0 0-.661 6.74c.599 4.989-.651 4.8-4.752 6.938-9.929 5.056-6.88 9.149-9.792 11.869a6.041 6.041 0 0 1-5.456 1.4c1.375-9.44-2.526-21.872-12.32-28.287 1.826-5.883 5.76-4.764 8.421-9.033 2.219-3.339 1.461-7.375 2.026-10.823a9.163 9.163 0 0 1 2.025-4.497c3.17-4.738-1.629-7.77-.893-11.84.32-1.826 1.346-4.181.64-6.792-1.23-4.515-4.843-6.179-3.729-11.096a7.268 7.268 0 0 1 14.096-.493c2.11 5.786 5.541 5.506 7.376 8.115 1.653 2.08 0 6.4 1.95 10.08 1.658 3.2 5.044 5.461 5.333 8.095.472 4.307-2.491 4.26.174 13.54 3.111 10.562-1.241 9.143-4.438 16.084z"/><path fill="#0F0F0F" d="M90.7 202.819c4.687 1.768 7.766 5.301 7.295 5.779-.43.437-3.531-2.113-8.037-3.812-4.505-1.7-8.52-1.829-8.553-2.442-.039-.674 4.565-1.307 9.296.475h-.002zm-7.748 14.97c7.013.072 11.82 3.749 11.488 4.262-.307.546-5.056-2.096-11.509-2.161-6.453-.066-11.256 2.475-11.552 1.92-.32-.515 4.501-4.095 11.573-4.021zm-1.134 18.104c7.42-1.09 14.859 1.986 14.65 2.611-.238.712-6.866-1.611-14.342-.533-8.568 1.237-12.17 6.364-12.828 5.799-.484-.41 3.884-6.608 12.52-7.877zm4.165 15.562c-6.705 5.88-8.445 11.931-9.162 11.699-.549-.179 1.069-7.397 7.776-13.28 6.531-5.73 14.062-6.6 14.178-5.978.142.765-6.053 1.647-12.793 7.559z"/><path fill="#fff" d="M278.391 222.89c.467 1.59 1.99 2.88 1.859 4.541-.131 1.66-1.896 2.825-2.026 4.48-.152 1.96 2.031 3.43 2.146 5.392.11 1.88-1.711 3.44-1.685 5.323.022 1.577 1.346 2.937 1.28 4.513-.072 1.832-1.998 3.336-1.677 5.141.28.779.613 1.539.995 2.275.666 2.063-1.092 4.192-.894 6.349.149 1.637 1.416 3.117 1.166 4.741-.264 1.725-2.192 3.146-1.696 4.818.239.537.53 1.048.872 1.526 1.476 2.731-1.44 5.944-1.084 9.027.35 2.984 2.547 3.48 1.76 7.656a3.916 3.916 0 0 1-3.17 1.807c-.16 0-67.914 6.72-71.885-2.581-.237-.555 1.8-3.642 1.858-4.243.909-9.554 4.565-7.314 6.216-10.472a7.93 7.93 0 0 0 .389-3.716c0-3.907 2.52-3.321 3.595-3.734 2.808-1.078 1.109-5.92 3.297-7.982 1.084-1.023 2.88-1.076 3.828-2.229 1.576-1.92-.416-5.243 1.166-7.163 1.016-1.232 3.016-1.199 4.106-2.367 1.56-1.67.352-4.653 1.68-6.513 1.225-1.717 4.16-1.82 4.9-3.796.442-1.179-.147-2.516.128-3.745.508-2.264 3.485-2.96 4.767-4.896 1.094-1.653.8-3.989 2.037-5.538.96-1.203 2.662-1.665 3.531-2.936 1.206-1.76.368-4.379 1.609-6.118.86-1.203 2.48-1.631 3.458-2.741 1.998-2.272 1.107-7.563 8.749-3.662 6.2 3.163 10.56 2.956 14.31 3.321 3.89.379 6.787 1.935 6.175 5.795-.407 2.556-2.551 5.044-1.76 7.727z"/><path fill="#FDFE1F" d="M236.499 249.227c1.717-4.149 2.211-3.99 4.925-6.608 2.213-2.134 2.77-3.465 7.624-5.243 6.43-2.355 11.309-2.08 16.195 3.032 2.984 3.126 5.839 6.275 6.276 9.248a15.527 15.527 0 0 1-1.281 6.77c-.896 4.395-7.988 12.652-17.174 14.899-5.806 1.419-8.21-.199-11.733-3.859-7.765-8.066-7.624-11.485-4.832-18.239zm17.344-30.491c.389-.925 1.165-1.401 3.112-2.809 2.043-1.479 3.496-2.135 6.069-.791a11.05 11.05 0 0 1 1.997 1.347 37.22 37.22 0 0 1 3.875 5.192 15.655 15.655 0 0 1 2.182 5.552c.106.394.098.81-.022 1.199-.269.577-.446 1.197-.742 1.76-.812 1.544-3.823 4.077-5.293 4.201-4.861.415-13.069-11.155-11.178-15.651z"/><path fill="#0F0F0F" d="M281.92 245.562c0-2.434-1.942-2.439-1.934-4.866.008-2.427 1.942-2.432 1.937-4.866-.005-2.433-1.966-2.419-1.985-4.844-.02-2.426 1.92-2.453 1.888-4.885-.032-2.432-1.992-2.4-2.036-4.826-.059-2.72 2.168-2.014 1.74-6.227-.631-6.205-3.386-5.222-3.218 1.408.062 2.424-1.877 2.469-1.826 4.886.052 2.418 2 2.384 2.039 4.8.038 2.416-1.92 2.45-1.89 4.868.031 2.417 1.973 2.4 1.987 4.828.015 2.429-1.944 2.429-1.94 4.848.003 2.42 1.945 2.424 1.937 4.85-.008 2.426-1.969 2.4-1.99 4.827-.021 2.427 1.92 2.443 1.888 4.869-.032 2.426-1.995 2.389-2.04 4.8-.045 2.411 1.894 2.462 1.838 4.886-.056 2.424-2.021 2.368-2.089 4.786-.069 2.418 1.868 2.483 1.785 4.907-.083 2.424-2.045 2.346-2.141 4.762-.096 2.416 1.847 2.504 1.733 4.926-.355 7.543 2.943 7.29 3.291.16.111-2.432-1.827-2.518-1.723-4.944.104-2.425 2.048-2.349 2.139-4.781.092-2.432-1.86-2.497-1.784-4.923.077-2.425 2.023-2.371 2.08-4.8.058-2.429-1.889-2.478-1.835-4.905.055-2.428 1.995-2.391 2.039-4.824.043-2.434-1.92-2.458-1.885-4.885.035-2.427 1.968-2.397 1.995-4.835zm-45.6-7.712c1.422-2.312-.243-3.333 1.174-5.647 1.418-2.313 3.08-1.299 4.492-3.619 1.411-2.32-.253-3.33 1.145-5.654 1.399-2.325 3.077-1.317 4.469-3.653 1.392-2.336-.28-3.33 1.101-5.666 1.381-2.336 3.064-1.347 4.435-3.697 4.04-6.933 1.373-8.928-2.862-1.669-1.367 2.341-3.04 1.355-4.416 3.68-1.376 2.325.296 3.321-1.092 5.653-1.387 2.331-3.068 1.318-4.464 3.638-1.395 2.32.271 3.33-1.137 5.646-1.408 2.317-3.074 1.301-4.488 3.612-1.415 2.31.251 3.332-1.17 5.641-1.421 2.309-3.083 1.288-4.504 3.597-1.421 2.309.239 3.331-1.185 5.64-1.424 2.309-3.085 1.28-4.509 3.594-1.424 2.313.238 3.334-1.184 5.643-1.423 2.309-3.083 1.289-4.503 3.605-1.419 2.315.245 3.332-1.168 5.648-1.412 2.315-3.081 1.3-4.48 3.627-1.398 2.326.26 3.329-1.132 5.659-1.392 2.33-3.072 1.325-4.463 3.664-1.39 2.339.29 3.33-1.081 5.669-4.108 7.005-1.352 8.811 2.838 1.665 1.368-2.332-.294-3.313 1.085-5.648 1.379-2.334 3.064-1.329 4.451-3.651 1.387-2.321-.272-3.326 1.12-5.646 1.392-2.32 3.07-1.307 4.48-3.621 1.41-2.314-.254-3.33 1.165-5.64 1.419-2.31 3.075-1.293 4.497-3.602 1.423-2.308-.238-3.329 1.184-5.64 1.423-2.31 3.084-1.28 4.508-3.593 1.424-2.314-.237-3.331 1.188-5.64 1.426-2.309 3.077-1.285 4.506-3.595zm33.998 7.355a54.027 54.027 0 0 0-6.43-6.72c-12.8-10.31-32.096 7.814-29.59 19.573 1.017 4.141 5.531 8.976 8.566 11.549 13.992 11.529 36.045-13.349 27.454-24.402zm-2.4-.454c2.196 2.441 3.52 4.182 2.439 8.939-3.323-2.197-2.551-2.109-4.64-4.49a11.19 11.19 0 0 0-.119-6.587c-.329-.84-1.305-2.027 2.32 2.138zm-10.755-7.764a8.71 8.71 0 0 1 8.104 8.997c-.257 9.664-14.787 24.104-24.726 18.52-13.127-7.329 1.525-29.824 16.622-27.517zm-16.379 28.535a11.123 11.123 0 0 0 6.421 1.165c-.352.296 1.827.947 4.104 4.32-4.613.193-7.008-1.751-10.525-5.485zm11.931 5.342c-2.064-1.95-1.784-1.003-4.137-4.449a19.984 19.984 0 0 0 5.64-2.602c1.8 1.6 1.492.416 5.084 4.538a17.865 17.865 0 0 1-6.587 2.513zm7.645-3.2c-4.301-3.219-1.694-.989-5.05-4.597a31.15 31.15 0 0 0 5.661-5.238c2.589 2.067 1.615.557 5.12 4.514a27.23 27.23 0 0 1-5.731 5.323v-.002zm6.442-6.253a20.037 20.037 0 0 1-5.016-4.592 23.302 23.302 0 0 0 3.52-6.273c.696.557 1.684 1.243 2.4 1.92.809.753 1.67 1.835 2.304 2.485a21.74 21.74 0 0 1-3.208 6.462v-.002z"/><path fill="#0F0F0F" d="M239.52 261.382c3.707 4.8 12.061.536 16.48-3.281 14.098-12.339 4.397-26.04-9.147-16.384-2.33 1.68-3.447 2.646.213.32 9.128-5.711 14.98-2.066 14.953 3.307.106 9.024-13.28 18.798-19.36 17.12-2.763-.765-4.952-4.28-3.6-9.475 1.635-6.165 7.328-10.858 4.85-8.754-4.763 4.039-8.256 12.304-4.389 17.147z"/><path fill="#0F0F0F" d="M250.731 252.016c1.368.31 2.495 1.019 3.407.307a54.3 54.3 0 0 0 3.244-9.662c.258-1.354.447-1.155-.763-.594a44.382 44.382 0 0 0-7.229 3.869c-1.353.89-1.156.661-1.2 1.011a7.277 7.277 0 0 0 .504 3.667 2.845 2.845 0 0 0 2.037 1.402zm-1.486-4.686a39.405 39.405 0 0 1 6.841-3.82 57.72 57.72 0 0 1-2.809 8.039c-.389-.016-3.229-.64-3.608-1.413a6.09 6.09 0 0 1-.424-2.806z"/><path fill="#0F0F0F" d="M247.475 250.251a7.933 7.933 0 0 0-.56-2.673c-1.316 2.323-7.22 11.072-4.491 11.072 1.815 0 8.8-3.1 10.01-4.103 1.08-.889 1.101-.616-.213-.945-3.565-.898-4.565-.383-4.746-3.351zm3.082 4.103a39.943 39.943 0 0 1-7.65 3.171c.226-1.658 1.268-3.163 2.855-6.021 1.358-2.445-.067.461 1.691 1.742.942.592 2.003.97 3.107 1.108h-.003zm2.297-34.962c-1.102 6.024 7.42 17.854 14.604 14.678a9.949 9.949 0 0 0 3.75-4.288c1.803-4.398-4.085-13.404-8.566-15.424-3.922-1.808-9.202 1.631-9.788 5.034zm8.044 5.773c-1.528 1.488-.709 1.389-3.421 2.869a19.42 19.42 0 0 1-2.597-4.573 11.243 11.243 0 0 1 3.618-2.295 17.57 17.57 0 0 0 2.4 3.999zm.8 1.005a12.383 12.383 0 0 0 3.212 2.902c-.331.594-.711 1.16-1.136 1.691-.556.599-1.513 1.12-1.886 1.485a15.638 15.638 0 0 1-3.72-3.339c2.05-2.36 1.795-1.6 3.528-2.739h.002zm2.492 4.982c.564-.605 1.533-1.133 1.896-1.496a5.752 5.752 0 0 0 3.485.371 5.728 5.728 0 0 1-1.565 1.751 4.221 4.221 0 0 1-4.945 1.054c.329-.59.707-1.152 1.128-1.68h.001zm1.404-2.786c-2.336-1.248-6.421-6.296-6.852-9.76-.48-3.2 1.872-4.772 5.882-1.347 5.36 4.599 8.933 15.256.976 11.107h-.006zm-7.504-8.432c-1.564 1.44-1.394 1.749-3.52 2.533-.884-3.453.625-5.334 3.87-6.734a5.115 5.115 0 0 0-.352 4.201h.002z"/><path fill="#FFC5F6" d="M289.6 212.373c4.81.52 10.24.518 12.784-3.781a7.537 7.537 0 0 0-.283-7.755c-1.41-2.293-9.662-9.072-13.557-10.232-1.398-.416-.96-.171-1.912-.96-3.637-3.003-39.461-13.093-49.44-7.52a5.843 5.843 0 0 0-3.2 5.845c.367 1.894 2.688 4.497 4.016 5.901a17.328 17.328 0 0 0 7.655 5.342c14.723 6.227 23.27 10.926 43.937 13.16z"/><path fill="#92FCFF" d="M259.04 194.571c.664.311 11.31 4.088 12.64 4.445 5.218 1.403 11.509.96 12.939-.129 1.355-1.029 3.496-6.68 2.4-12.082-1.208-5.92-4.721-8.61-9.248-10.822a12.738 12.738 0 0 0-7.761-1.784c-7.922.251-10.338 2.651-15.287 10.347a4.375 4.375 0 0 0-.987 3.52 8.215 8.215 0 0 0 5.304 6.505z"/><path fill="#0F0F0F" d="M303.89 201.792c-2.3-4.915-10.351-9.811-15.173-12.273a18.209 18.209 0 0 0-9.936-14.853c-4.514-2.155-8.386-1.645-12.024-1.045-3.967.653-7.73 3.598-10.363 6.549-7.328-1.399-21.949-1.563-23.148 5.76-.852 4.429 3.04 9.211 6.504 11.88 9.887 7.669 46.778 19.475 58.685 15.283 6.455-2.277 7.76-7.067 5.455-11.301zm-45.97-19.28c9.139-11.776 22.597-7.744 26.443 1.768 1.207 2.89 2.2 8.144.939 11.007-2.755 6.18-23.867.128-28.465-4.034-2.511-2.55-1.08-5.869 1.083-8.741zm42.773 26.128c-9.163 7.639-50.338-6.56-59.127-13.195-2.6-1.952-6.11-5.808-5.6-9.014.826-4.928 13.711-5.045 18.948-4.388-2.002 2.88-3.352 7.154-1.316 9.842 2.864 4.712 14.88 8.104 20.599 8.872 8.309 1.062 14.795-.306 14.704-8.714 3.865 2.287 10.694 6.788 12.558 10.895.965 2.118 1.002 4.272-.769 5.702h.003z"/><path fill="#FDFE1F" d="M53.562 113.12c-3.715 10.589 17.76 24.357 23.76 23.867 3.712-.304-2.44-14.841-3.388-17.043-2.08-4.849-5.32-12.102-11.379-12.723a8.851 8.851 0 0 0-8.993 5.899z"/><path fill="#0F0F0F" d="M79.747 131.747c-1.305-5.664-5.704-17.44-10.096-22.177a9.974 9.974 0 0 0-11.468-2.929 9.978 9.978 0 0 0-6.196 10.085c.332 4.012 3.557 8.655 6.484 11.535 5.561 5.456 24.35 18.336 21.276 3.486zm-2.915 3.623c-4.185.088-13.563-6.62-16.365-9.197-14.513-13.408.264-22.466 6.996-14.603 4.36 5.091 9.798 20.672 9.37 23.8z"/><path fill="#0F0F0F" d="M71.086 127.638c-.598-2.38-3.93-12.48-7.819-15.281-3.84-2.72-7.496-.248-5.587 4.496 2.142 5.531 10.44 10.409 13.054 11.264.55.179.39-.277.352-.479zm-10.05-8c-2.56-3.276-3.444-7.422-.32-6.784 4.426.845 7.247 10.149 10.02 14.946-2.02-1.794-6.736-4.395-9.7-8.165v.003z"/><path fill="#92FCFF" d="M34.08 124.304c1.92 1.248 7.427-.384 9.643-1.398 5.736-2.631 5.664 2.704 9.037 4.278 1.28.592 3.155.144 3.456-1.227.41-1.863-2.262-3.722-1.251-5.339 13.045-10.381 12.918-10.988 14.4-9.383 1.248 1.349 2.197 3.52 4.03 3.415 1.528-.096 2.4-1.954 2.119-3.456-.58-3.008-4.283-4.944-3.795-8.138.16-1.046.427-1.338 4.336-7.913 1.796-3.025 1.16-4.076-.48-5.41-12.91-10.5-14.56-8.999-18.167-10.919-3.14-1.67-9.28-9.539-23.617-13.747-7.37-2.163-10.224.288-11.424 5.12-4.177 16.784 7.68 23.783 5.4 33.256-1.232 5.096 4.553 19.72 6.313 20.863v-.002z"/><path fill="#FFC5F6" d="M36.97 97.28c-.626-1.893-1.543-4.627-.845-6.498.64-1.728 4.118-5.36 7.373-5.484a7.287 7.287 0 0 1 5.854 3.022 14.123 14.123 0 0 1 2.199 8.382c-.602 1.83-4.41 4.863-8.533 4.48-6.058-.579-7.468-7.6-6.048-3.904v.002z"/><path fill="#0F0F0F" d="M52.64 93.74a8.34 8.34 0 0 1-5.91 8.065 8.516 8.516 0 0 1-9.404-3.162 8.518 8.518 0 0 1-1.422-3.203c-.227-1.267-.082-1.973.053-1.98.16-.012.304.655.752 1.742 3.3 7.984 13.792 5.824 13.76-1.456a7.172 7.172 0 0 0-10.856-6.034 6.432 6.432 0 0 0-3.077 3.429c-.368 1.094-.44 1.787-.608 1.784-.306.016-1.062-3.893 2.88-6.517a8.864 8.864 0 0 1 13.832 7.333z"/><path fill="#0F0F0F" d="M56.381 97.727c-3.856 11.82-21.509 10.923-24.34-1.77a6.144 6.144 0 0 1-.222-2.704c.11-.013.196.949.716 2.57a12.572 12.572 0 0 0 13.344 9.006 11.333 11.333 0 0 0 9.252-7.576A11.337 11.337 0 0 0 52.448 85.6a12.235 12.235 0 0 0-15.931-1.845c-1.44.903-2.093 1.615-2.176 1.533a5.791 5.791 0 0 1 1.888-1.952c10.443-7.94 23.874 2.978 20.152 14.39z"/><path fill="#0F0F0F" d="M74.608 87.805A39.29 39.29 0 0 0 56.78 77.76c-5.787-5.867-19.808-16.362-28-15.664-13.824.771-8.872 25.498-2.027 38.629-1.22 11.246 3.696 22.793 5.999 24.174 4.16 2.495 10.392.351 14.56-2.013 2.29 2.7 5.67 7.324 8.395 5.063 2.164-1.778.883-4.546-.448-6.699 4.1-1.44 11.624-6.864 13.065-9.188 1.621 1.823 2.624 3.12 4.32 3.436a2.806 2.806 0 0 0 3.178-2.33c.42-1.941-.835-4.16-2.056-6.146-2.792-4.537-2.816-1.145 1.58-7.45 4.425-6.644 2.471-8.61-.737-11.767zM23.84 81.69c6.205-2.775 10.922-6.8 4.47-3.874-1.259.603-2.905 1.246-4.767 2.003-1.876-13.56 3.02-18.44 16.067-11.238-6.331 6.038-11.693 11.269-4.53 6.187a67.186 67.186 0 0 0 6.22-5.22c11.428 6.772 23.26 17.1 25.604 30.191a208.781 208.781 0 0 1-23.557 16.41c-7.896-5.581-16.627-18.38-19.507-34.46zm9.94 40.256a44.765 44.765 0 0 1-4.945-17.549c3.84 6.229 10.485 14.126 17.354 16.75-3.298 1.424-10.738 3.781-12.416.8h.008v-.001zm21.377 4.03c-.918 2.43-3.451-.64-4.706-1.792-2.4-2.314-2.252-1.798-1.544-2.272a11.21 11.21 0 0 0 5.148-.283c.56 1.28 1.579 3.077 1.096 4.347h.007-.001zm12.091-19.642c-.293 3.866-1.168 4.856-3.451 6.476-7.482 5.353-11.782 8.571-19.04 4.256 7.552-3.541 18.7-12.183 22.384-15.68a25.44 25.44 0 0 1 .107 4.948zm3.632 6.333c-3.057-2.969-1.465-.32-1.157-6.177.032-.62-.16-.252 1.082-1.511 5.664 8.781 3.072 10.517.075 7.688zm-1.2-9.568a40.545 40.545 0 0 0-9.92-22.08 45.426 45.426 0 0 1 12.88 8.792c2.415 2.367 5.194 3.067-2.955 13.29h-.003l-.002-.002z"/><path fill="#fff" d="M69.44 57.296c-2.864 1.18-2.12 4.856-2.346 5.718-.414 1.592-1.97 1.797-.532 5.15 4.356 10.156 4.787 5.566 8.82 7.308 1.826.789 2.76 3.723 12.503-.714 3.424-1.558 1.844-3.04 2.667-4.724.65-1.333 2.63-1.672 3.152-3.06.563-1.497-.947-2.976-1.091-4.565-.175-1.92 2.264-4.652-.5-7.2-2.619-2.41-4.8-.012-6.174-.867-1.34-.833-.192-3.36-2.771-4.24a25.209 25.209 0 0 0-6.229.245c-6.992.896-3.18 5.173-7.5 6.95v-.001z"/><path fill="#0F0F0F" d="m73.422 52.368-.89-1.018c-1.57 1.306-1.322 3.882-2.503 4.48a6.427 6.427 0 0 0-2.39 1.12 4.095 4.095 0 0 0-1.383 4.208c.37 1.4-2.6 3.085-.38 8.03 3.228 7.2 5.985 6.88 8.188 7.15 2.094.252 2.88 2.753 7.963 1.798a27.122 27.122 0 0 0 6.637-2.32c3.7-1.998 2.662-4.266 2.88-4.778.304-1.31 4.26-2.01 3.14-5.716-.462-1.522-1.534-2.706-1.217-3.933.448-1.735 2.832-1.792-.093-6.232-2.132-3.237-4.025-1.999-5.953-1.746-1.65.218-1.109-.662-1.693-1.862a5.035 5.035 0 0 0-3.864-2.328 15.269 15.269 0 0 0-9.323 2.137c1.555 1.781-.32.725 4.614-.278 1.962-.4 4.82-.667 6.4.57.8.632.664 1.016.901 1.852.837 2.97 4.944 1.213 5.76 1.344.989.16 1.76 1.74 2.25 2.608 1.238 2.228-2.69 2.519-.3 7.141 1.303 2.519.604 2.51-1.382 4.083-3.752 2.973 2.176 3.52-6.08 6.543-5.253 1.92-6.595.78-8.523-.32-2.258-1.28-3.453.139-5.517-1.855a14.56 14.56 0 0 1-3.75-7.04 6.536 6.536 0 0 1 1.03-3.473c.787-1.687-1.056-1.736.576-4.039.99-1.398 2.546-.745 3.34-2.36.78-1.406.62-2.883 1.562-3.766z"/><path fill="#0F0F0F" d="M69.718 64.382c-1.41.346.845 4.018.39 4.135-.118.03-.737-.8-1.484-2.514-.774-2.416 1.742-4.691 4.243 1.082 1.208 2.789 2.287 4.281 1.28 5.505a1.227 1.227 0 0 1-1.84.16 6.68 6.68 0 0 1-1.145-1.864c-1.152-2.256 1.417 1.146 1.622 1.293.43.408 1.155-.353.7-1.269-.329-.785-2.876-6.75-3.766-6.528zm8.502-10.648c-2.04.264-3.65.64-3.769.37-.118-.27 1.477-1.133 3.624-1.411 3.456-.448 6.555.208.144 1.041h.002zm2.692 8.261c-2.811 1.653-6.9 2.01-6.294-.446.387-1.565 2.184-2.114 2.214-1.86.03.138-1.333.762-1.48 1.974-.149 2.25 7.2-1.04 7.278-2.701.08-.592-1.265-.792-1.936-.695-1.585.232-2.568.855-2.64.679-.132-.263 3.04-2.424 4.96-1.07 1.642 1.148-.276 3.047-2.1 4.12h-.002zm5.034.848c1.699.535.366 3.485.116 2.89-.108-.08.304-.72 0-1.68-.713-1.653-2.544 2.952-2.192 4.027.204.41.442.48.757 0 .615-.94 1.037-1.566 1.165-1.493.16.095-.34 2.492-1.498 2.695-2.992.302-.774-6.968 1.652-6.439zm-3.493 11.322a5.322 5.322 0 0 1-4.416-.463c-.972-.452-1.576-.598-1.59-.744-.012-.145.748-.254 1.84.044a5.537 5.537 0 0 0 3.882.152c3.103-.919 5.6-2.02 5.741-1.714a12.48 12.48 0 0 1-5.457 2.725z"/><path fill="#fff" d="M98.96 67.888c-1.512 1.834-3.896 4.109-2.07 6.131.624.693 1.6 1.091 2.109 1.904.524.847.372 1.712 2.239 1.987 4.655.685 3.957-1.41 5.172-2.624.48-.47 1.152-.676 1.635-1.137 1.001-.96 1.104-2.903-.859-4.693-1.373-1.253-.8-1.21-1.426-2.118a5.735 5.735 0 0 0-3.803-1.453c-1.517 0-1.946.726-2.997 2.003z"/><path fill="#0F0F0F" d="m100.133 66 .685 1.166a4.533 4.533 0 0 1 3.101.018c1.828.568 1.187 2.093 2.342 3.154.714.656 1.221.657 1.507 1.328a2.026 2.026 0 0 1-.086 1.6c-.267.393-1.397.608-2.058 1.486-.605.942-.365 1.432-1.211 1.802-.973.424-3.778.48-4.181-.458-.979-2.283-2.36-1.315-2.683-3.007a9.087 9.087 0 0 1 .026-1.977c.172-.94 1.12-.89 1.838-1.9.597-.846.76-1.563 1.405-2.043l-.685-1.166c-.611.376-1.12.9-1.475 1.523-1.341 2.183-2.605.562-2.992 4.492-.368 3.76 2.376 4 2.52 4.457.16.16.14.706.702 1.26 1.501 1.476 4.747 1.44 6.4.727a3.678 3.678 0 0 0 2.024-2.488c.122-.288 1.64-.61 2.154-1.709a3.97 3.97 0 0 0 .115-3.393c-.562-1.293-1.664-1.6-2.043-1.933-.469-.416-.64-2.773-3.168-3.35a5.797 5.797 0 0 0-4.237.41z"/><path fill="#0F0F0F" d="M99.74 73.498c-.423-.655-.813-.912-.772-1.06.042-.147.678-.07 1.339.58.629.619 1.261 1.665 2.175 1.79.774.216 1.107-1.251 1.968-1.827.819-.549 1.449-.416 1.448-.291.03.16-.48.32-.96.85-.517.564-1.917 5.034-5.2-.042h.001z"/><path fill="#fff" d="M49.648 244.469c-1.789 2.171-4.61 4.864-2.451 7.257.739.82 1.9 1.292 2.496 2.253.622 1.002.441 2.026 2.653 2.352 5.507.811 4.681-1.669 6.12-3.105.556-.557 1.364-.8 1.934-1.348 1.186-1.132 1.306-3.435-1.016-5.553-1.626-1.483-.94-1.44-1.69-2.507a6.787 6.787 0 0 0-4.5-1.719c-1.794-.001-2.301.859-3.546 2.37z"/><path fill="#0F0F0F" d="M61.854 247.592c-.617-1.461-1.995-1.906-2.392-2.259-.755-.674-.64-4.423-6.288-4.146-3.2.202-3.956 2.483-4.688 3.314-.56.64-1.137.577-1.91 1.323a6.407 6.407 0 0 0-.336 6.496c.816 1.269 2.158 1.459 2.272 1.824a4.87 4.87 0 0 0 .82 1.474c1.751 1.726 5.551 1.694 7.495.851a4.352 4.352 0 0 0 2.373-2.904c.142-.335 1.92-.715 2.52-2.002a4.637 4.637 0 0 0 .134-3.971zm-1.984 1.859c-.107 1.81-1.494 1.144-2.65 2.682a13.166 13.166 0 0 0-.705 1.525c-.841 1.342-4.749 1.049-5.44.32-.227-.293-.273-.685-.63-1.186-.749-.998-1.861-1.139-2.33-1.76a5.168 5.168 0 0 1-.086-3.803c.243-.307 1.272-.663 1.92-1.579 1.152-1.632 1.12-3.602 5.28-2.372 2.171.711 1.337 2.392 2.74 3.692.788.724 2.031.985 1.903 2.481h-.002z"/><path fill="#0F0F0F" d="M53.395 253.424c-1.696-.256-2.384-1.704-3.062-2.755-.496-.767-.952-1.067-.902-1.239.047-.171.8-.083 1.566.677.736.727 1.477 1.951 2.544 2.095.907.254 1.296-1.463 2.304-2.138.96-.64 1.696-.48 1.694-.341.035.178-.552.373-1.12.997-.668.726-1.115 2.992-3.024 2.704z"/><path fill="#fff" d="M216.827 61.163c-4.78 1.98-3.64 8.453-3.99 9.808-.704 2.73-3.36 3.083-.907 8.837.865 2.032 4.142 9.403 6.054 10.82 2.475 1.83 6.13.48 8.952 1.714 3.104 1.354 4.699 6.386 21.267-1.222 5.832-2.678 3.132-5.194 4.54-8.106 1.105-2.288 4.48-2.868 5.361-5.25.96-2.567-1.611-5.102-1.856-7.84-.297-3.3 3.851-7.98-.851-12.348-4.539-4.216-8.082.035-10.504-1.486-2.262-1.423-.35-5.778-4.712-7.276-1.856-.64-8.64.16-10.595.42-11.613 1.508-5.64 8.98-12.759 11.93z"/><path fill="#0F0F0F" d="M259.36 74.893c-.8-2.647-2.585-4.531-2.045-6.621.354-1.375 2.279-2.594 2.253-5.055.032-1.985-2.701-6.26-4.277-7.67-4.284-3.878-9.235 1.28-10.284-1.44a6.573 6.573 0 0 0-2.597-4.514c-3.482-2.657-8.845-2.136-13.12-1.16-4.925 1.209-8.115 2.418-9.365 6.474-2.483 7.725-3.416 1.6-7.52 7.765a5.816 5.816 0 0 0-.899 5.22c.63 2.513-4.339 4.838-.64 13.52 6.457 14.756 12.574 10.88 15.696 12.657 4.131 2.356 7.029 4.443 17.173.82 5.001-1.878 10.536-3.951 10.296-9.352-.084-3.905 7.398-3.77 5.329-10.644zm-5.323-7.533c-1.28 4.429 2.944 8.045 2.064 10.16-.71 2.4-5.69 2.437-5.6 8.05.032 1.899-1.222 2.97-2.96 3.888a44.21 44.21 0 0 1-10.123 3.553c-7.395 1.44-7.618-2.533-12.367-2.973-3.2-.342-6.064.8-11.262-9.92-3.19-7.083.994-8.345.8-11.59-.109-2.07-1.363-2.24.706-5.136 1.409-2.005 3.129-1.239 4.851-2.933a11.129 11.129 0 0 0 2.08-4.848c.72-2.61 1.616-3.441 7.613-4.694 3.243-.64 8.188-1.138 10.763.96.401.34.75.736 1.035 1.179.32.557.251 5.696 5.92 4.864 3.549-.543 4.704-1.802 6.84 1.638 3.622 5.696.765 3.583-.36 7.802z"/><path fill="#0F0F0F" d="M221.022 78.587c-.572-1.322-2.72-5.498-3.68-5.26-2.278.56 1.293 6.671.655 6.96-.272.124-5.223-6.788-1.176-8.426 2.376-.96 4.8 3.68 5.822 6.014 2.109 4.86 3.84 7.229 2.154 9.27a2.065 2.065 0 0 1-3.098.282 14.1 14.1 0 0 1-1.928-3.138c-1.848-3.753 2.323 1.882 2.73 2.178.725.686 1.947-.598 1.179-2.138-.418-1.01-.333-.37-2.658-5.742zm10.634-23.19c-3.433.444-6.147 1.07-6.345.624-.199-.447 2.484-1.908 6.1-2.376 5.821-.756 11.036.35.245 1.752zm4.533 13.91c-2.439 1.44-6.736 2.963-9.237 1.944a2.343 2.343 0 0 1-1.363-2.698c.629-2.55 3.67-3.61 3.728-3.132.041.201-2.248 1.334-2.491 3.324-.292 4.416 16.672-3.985 11.059-5.579a8.732 8.732 0 0 0-5.237.73c-1.688.576-1.664.283-.309-.618 6.445-4.281 13.005.65 3.85 6.029zm3.854 6.155c1.98-6.02 5.552-5.6 6.015-3.008.366 2.044-.96 3.428-1.2 3.144-.179-.182.526-1.262-.01-2.828-.686-2.005-2.4.982-3.126 3.246-1.367 4.29-.039 4.683.72 3.52 1.035-1.58 1.744-2.64 1.96-2.512.216.125-.096 1.26-.874 3.131-1.369 2.706-5.608 1.787-3.485-4.693zm-1.261 14.335a8.965 8.965 0 0 1-7.433-.78c-1.637-.763-2.658-1.006-2.677-1.252-.019-.247 1.256-.43 3.094.073 2.077.873 4.4.963 6.538.255 3.978-1.144 9.419-3.437 9.666-2.88.219.485-4.77 3.312-9.188 4.584z"/><path fill="#FDFE1F" d="M233.019 49.646c1.031 1.098-.395 2.87 2.165 3.29 7.086 1.158 6.742 4 7.344 7.944 1.67 10.926 12.075 7.85 7.667 17.857-1.47 3.337-4.713 5.7-3.937 8.8 1.56 6.24 15.1-.32 18.595-5.61 1.76-2.673 1.92-6.254 4.03-8.665 5.219-5.977 18.111-.433 19.395-9.681a4.407 4.407 0 0 0-.764-3.23c-1.28 4.764-7.255 6.2-11.669 5.454-6.946-1.173-7.68-6.612-3.439-9.44 3.901-2.6 13.586-2.997 20.629-7.879a42.328 42.328 0 0 0 4.551-4.77 16.961 16.961 0 0 0 2.72-5.706c3.446-10.32 7.168-9.317 8.043-10.74.445-.723-8.146-2.123-14.485 5.775-2.301 2.867-3.323 6.488-6.17 8.813-3.707 3.025-10.094 3.23-14.521 5.044-4.263 1.748-10.272 7.615-12.584 5.023-3.36-1.71 1.12-8.427 3.374-10.56 4.915-4.66 10.935-2.1 15.698-4.22 2.83-1.259 5.853-4.288 6.045-7.379-3.095 3.236-5.138 4.23-9.12 3.95a21.1 21.1 0 0 1-5.752-1.065 17.136 17.136 0 0 0-9.093.32c-1.863.895-3.027 2.805-4.751 3.947a47.765 47.765 0 0 1-9.534 4.16c-5.901 1.154-4.333-1.24-15.056 4.098-1.219.606-3.658 1.6-4 3.121-.211.917.923 1.212 1.621 1.172.936-.045 2.225-.647 2.998.177z"/><path fill="#0F0F0F" d="M305.082 26.202c-12.16-.752-12.983 11.792-19.36 15.612-3.57 2.208-8.6 1.816-13.211 3.754-4.376 1.82-6.4 4.278-8.498 5.195-2.134.983-3.576-.078-3.565-1.296.04-1.459 1.866-3.98 2.797-5.27 7.088-9.48 15.654-.171 21.75-11.178a10.29 10.29 0 0 0 1.271-3.595c.024-.64-.613.064-1.104.54-7.056 6.53-12.427.81-20 1.313-4.517.253-6.514 3.131-9.111 5.077-7.856 5.884-17.691 2.542-26.736 9.448a3.023 3.023 0 0 0-1.382 3.69c.882 1.631 2.592 1.257 3.896 1.03 1.707-.3.456 2.24 2.754 3.496 3.832 2.252 6.014-1.7 6.643 6.156a13.224 13.224 0 0 0 6.574 10.63c6.299 5.194-2.022 9.486-2.896 15.729-.496 3.547 2.88 6.352 9.181 3.902 16.186-6.587 10.166-11.04 16.432-16.64 4.949-4.425 12.306-1.624 16.888-7.04a5.074 5.074 0 0 0 .131-6.688c.111.576.251 1.144.423 1.706.94 4.195-3.893 6.752-8.207 7.281-3.291.48-6.961.407-10.441 3.327-4.194 3.333-3.895 7.785-6.989 10.814-3.506 3.63-17.903 9.861-14.445 2.048 2.373-5.366 9.808-10.72-.251-17.817-5.943-4.272-2.093-10.639-5.947-13.92-1.989-1.78-4.439-.877-5.76-1.696-1.135-.823.113-4.581-5.357-3.65 0 0-.035 0-.045-.014a.057.057 0 0 1-.01-.032c0-.01.004-.022.01-.03 4.822-4.822 15.051-4.654 21.626-7.212 5.356-2.149 6.587-4.434 9.105-6.302 7.04-5.221 17.243 4.88 24.103-4.119-.982 2-2.422 3.742-4.204 5.08-6.372 4.723-12.894-2.856-21.161 9.053a10.147 10.147 0 0 0-2.08 4.75 4.329 4.329 0 0 0 4.171 4.41c4.888.42 6.4-5.144 15.826-7.027 7.801-1.58 10.504-2.15 14.72-9.522 3.472-6.198 6.462-10.74 15.544-9.867a15.945 15.945 0 0 0-5.482 3.35c-2.856 2.695-2.856 6.285-4.506 9.685a18.902 18.902 0 0 1-9.12 9.029c-6.584 3.003-19.36 3.533-20.849 10.38-.495 2.362.755 4.96 4.433 6.106 3.618.925 7.42.844 10.994-.236 4.142-1.632 4.227-5.51 3.778-5.506-.493-.06-.242 4.866-8.72 4.496-9.037-.408-9.6-4.083-6.517-6.546 5.494-4.53 16.625-2.688 24.208-10.964 3.777-4.112 4.454-7.65 5.449-11.52 1.348-5.253 6.4-7.27 6.78-8.234.846-.008-.823-.968-3.533-1.166z"/><path fill="#fff" d="M60.189 211.899c2.765 1.146 2.04 4.698 2.262 5.562.4 1.547 1.903 1.747.515 5.01-4.204 9.881-4.61 5.409-8.508 7.108-1.76.767-2.666 3.621-12.061-.692-3.307-1.52-1.776-2.946-2.575-4.597-.625-1.298-2.536-1.627-3.04-2.978-.544-1.456.914-2.893 1.053-4.44.168-1.872-2.184-4.526.48-7.003 2.573-2.39 4.583.021 5.955-.842 1.28-.8.199-3.276 2.672-4.126.96-.33 8.82-.264 10.146 2.302 1.08 2.077.654 3.677 3.1 4.696z"/><path fill="#0F0F0F" d="M63.384 217.35c-.595-1.206-.71-1.056-.528-1.784a3.213 3.213 0 0 0-.506-2.94c-1.544-2.258-1.83-1.487-3.073-2.112-1.477-.741-.237-3.73-4.352-5.28-3.536-1.28-8.528-2.008-10.536 1.219-.552 1.131-.039 1.974-1.6 1.76-1.506-.199-3.536-1.538-5.648 1.654-2.816 4.295-.432 4.426-.088 5.92.555 1.944-3.33 4.675.048 7.496.768.624 1.642 1.082 1.776 1.659a4.318 4.318 0 0 0 2.72 4.535c9.28 4.942 12.053.712 13.854.494a7.392 7.392 0 0 0 3.232-.726c2.8-1.687 6.643-7.965 4.701-11.895zm-1.144 2.81c-.224 2.216-2.947 7.416-5.562 7.763a7.298 7.298 0 0 0-3.231.683 7.709 7.709 0 0 1-2.487 1.183c-2.39.48-9.6-1.68-10.043-3.707a3.785 3.785 0 0 0-1.32-3.381c-1.879-1.463-2.547-1.477-1.312-3.875 2.26-4.348-1.46-4.692-.282-6.775.453-.825 1.196-2.321 2.133-2.475 1.038-.168 2.608.866 4.147.186 1.952-.863.874-2.202 2.168-3.218 2.215-1.738 8.49-.296 9.6.69.887.785.755 2.252 1.498 3.561a3.385 3.385 0 0 0 2.205 1.471 3.19 3.19 0 0 1 1.6 2.004c.099.834-.535 1.586-.098 2.596a6.03 6.03 0 0 1 .984 3.294z"/><path fill="#0F0F0F" d="M59.866 217.806c-1.842-.78-4.026 4.82-4.727 6.709-.64 1.826 1.004 2.991 1.978 2.063.517-.508 2.2-3.696.763-1.98-.368.511-.774.991-1.216 1.44-.408.388-1.096-.336-.664-1.203.176-.429.507-.969.75-1.528a14.844 14.844 0 0 1 2.505-4.549c.57-.454.852.444.676 1.218-.48 1.502-.884 2.541-.728 2.581.317.08 2.765-3.939.663-4.751zm-8.362-9.278c1.936.246 3.467.606 3.576.352.109-.254-1.4-1.078-3.44-1.339-3.088-.408-6.36.163-.136.987zm2.067 5.784c-.444-.224-.74-.197-.748-.134-.008.062.21.171.532.457.685.624 1.312 1.8.48 2.064-1.92.656-8.595-3.04-5.846-3.792 1.582-.47 3.562.827 3.667.567a4.63 4.63 0 0 0-3.869-1.37c-1.005.229-1.392.821-1.392 1.365 0 2.24 5.567 4.894 7.754 4 1.152-.467 1.168-2.149-.578-3.157zm-9.507 5.602c.102-.077-.288-.683 0-1.6.666-1.562 2.41 2.811 2.08 3.822-.194.389-.42.451-.72 0-.58-.891-.982-1.488-1.104-1.417-.16.092.333 2.363 1.42 2.56 2.28.236 1.36-4.09-.223-5.692-1.026-.811-1.933-.446-2.13.559-.187 1.329.621 1.902.677 1.768zm7.379 6.897a5.282 5.282 0 0 1-3.68.144c-2.934-.899-5.323-1.92-5.44-1.627a12.28 12.28 0 0 0 5.178 2.586 5.074 5.074 0 0 0 4.19-.439c.922-.43 1.5-.566 1.507-.705.008-.14-.72-.242-1.755.041z"/><path fill="#FDFE1F" d="M51.006 205.368c-.584.623.224 1.627-1.227 1.866-4.017.657-3.824 2.272-4.16 4.504-.947 6.197-6.848 4.451-4.347 10.126.229.539.522 1.05.872 1.519 3.47 3.964.245 7.264-6.453 2.72-4.864-3.3-2.832-4.839-5.016-7.34-2.045-2.34-5.709-1.544-8.425-2.47a3.476 3.476 0 0 1-2.567-3.371 3.48 3.48 0 0 1 .336-1.469c.704 2.638 4.224 3.501 6.709 3.083 3.936-.665 4.352-3.749 1.949-5.352-2.211-1.473-7.703-1.697-11.698-4.467a23.958 23.958 0 0 1-2.579-2.707 9.674 9.674 0 0 1-1.546-3.235c-1.953-5.852-4.064-5.28-4.56-6.09-.252-.41 4.62-1.203 8.213 3.275 1.304 1.626 1.885 3.68 3.5 4.997 2.102 1.715 5.723 1.832 8.233 2.861 2.416.99 5.824 4.32 7.136 2.848 1.904-.97-.64-4.778-1.92-5.986-2.787-2.643-6.2-1.19-8.9-2.4a5.714 5.714 0 0 1-3.428-4.184c1.693 1.77 3.558 3.24 8.432 1.637a9.695 9.695 0 0 1 5.155.176c1.056.507 1.719 1.59 2.695 2.24a27.122 27.122 0 0 0 5.406 2.36c3.344.654 2.458-.704 8.538 2.323.69.344 2.08.909 2.272 1.771.118.519-.524.687-.919.664-.531-.025-1.264-.366-1.7.101z"/><path fill="#0F0F0F" d="M53.373 203.611c-2.773-3.187-9.45-3.109-12.922-4.387-4.896-1.859-4.278-5.166-10.39-4.038-2.317.48-5.046 1.42-7.122.256-1.29-.727-1.907-1.796-2.067-1.661-.285 0 .16 2.462 2.208 4.224 2.08 1.833 5.27 1.291 7.267 1.798 2.596.672 5.655 5.028 4.64 5.954-1.09.997-2.705-.539-3.89-1.376-4.089-2.978-7.345-1.891-10.036-3.554-2.34-1.398-3.18-4.545-5.26-6.617-3.268-3.258-8-1.956-7.803-1.524.125.42 3.157 1.716 3.91 4.688a12.528 12.528 0 0 0 3.073 6.522c4.731 5.174 13.622 3.789 14.533 7.395.672 2.616-6.773 3.234-8.583 1.28-.757-.814-.744-1.549-.886-1.368a2.814 2.814 0 0 0 .104 3.752c2.573 3.04 6.736 1.477 9.518 3.967 3.533 3.158.16 5.688 9.261 9.38 1.839.717 3.76.975 4.9-.651 1.174-2.249-1.542-4.88-2.412-6.933-.854-1.892.44-3.083 2.013-4.187 3.696-2.645 2.144-6.785 3.454-7.933.627-.55 1.904-.152 3.04-.819.875-.48.892-1.44 1.034-1.75.33-.461.435-.111 1.578-.109a1.312 1.312 0 0 0 1.204-.869 1.319 1.319 0 0 0-.368-1.44h.002zm-1.184.867c-3.072-.52-2.4 1.6-3.018 2.056-.761.472-2.124-.051-3.25.961-1.551 1.323-.924 3.665-1.507 5.147-1.145 3.441-3.68 2.94-4.55 5.785-1.048 3.386 3.735 6.981 2.768 8.528-1.09 1.743-6.928-1.259-8.346-2.72-1.702-1.665-1.625-4.256-3.937-6.093-1.94-1.628-3.883-1.582-5.885-1.875-2.424-.299-5.152-1.733-4.624-4.104.243-1.099-.1-.24.608.816 1.736 2.551 8.02 2.349 9.83.416 1.335-1.486 1.1-4.024-2.684-5.654-2.674-1.146-5.852-1.479-8.418-2.647-7.862-3.577-3.885-10.288-10.747-12.376 8.222-.699 7.43 6.533 11.854 9.37 3.088 1.978 5.952.8 9.898 3.614 1.064.732 2.5 2.1 4.18 1.957a2.498 2.498 0 0 0 2.4-2.549 8.004 8.004 0 0 0-1.945-3.755c-2.95-3.774-6.005-2.837-8.29-3.113a6.567 6.567 0 0 1-5.302-3.84c3.934 5.302 9.67-.538 13.662 2.425a16.326 16.326 0 0 0 5.132 3.552c3.302 1.28 7.062 1.21 10.112 2.691.656.29 2.272 1.344 2.059 1.41v-.002z"/><path fill="#fff" d="M67.008 140.69a30.414 30.414 0 0 0-28.304 18.725 30.422 30.422 0 0 0 16.594 39.859A30.42 30.42 0 1 0 67.01 140.69h-.002z"/><path fill="#0F0F0F" d="M67.008 203.133a32.028 32.028 0 0 1-6.24-63.437 32.032 32.032 0 0 1 26.565 6.654 32.032 32.032 0 0 1 11.707 24.757 32.06 32.06 0 0 1-32.032 32.026zm0-61.051a29.024 29.024 0 0 0-26.818 17.919 29.026 29.026 0 1 0 55.845 11.106 29.06 29.06 0 0 0-29.027-29.027v.002z"/><path fill="#FFC5F6" d="M50.894 164.877c.868 3.089 2.266 12.48 5.928 14.261a3.336 3.336 0 0 0 3.964-1.487 13.467 13.467 0 0 0 1.468-4.355c.368-1.475 2.372-7.426 3.85-7.2 1.85.277 6.58 9.806 7.826 12.64.294.669 1.85 1.194-.061 2.002-4.066 1.716-3.728 4-.291 5.657 6.45 3.109 9.88 6.272 10.29-.686.343-5.827 2.08-8.018.503-8.89a4.956 4.956 0 0 0-2.966.077c-.994.309-1.44.454-2.039-.365-4.603-6.217-8.766-21.136-12.435-21.621-3.397-.451-5.425 8.8-9.361 12.986-3.141-7.974-4.276-12.618-7.301-12.467-2.352.112.06 7.437.625 9.448z"/><path fill="#0F0F0F" d="M79.737 179.102c3.908-1.785 3.68-1.718 4.009-1.718a1.153 1.153 0 0 1 1.107 1.44l-2.466 9.419a1.15 1.15 0 0 1-.645.76 1.14 1.14 0 0 1-.996-.033l-8.465-4.426a1.14 1.14 0 0 1-.612-1.046 1.143 1.143 0 0 1 .669-1.013l3.868-1.77c-10.85-18.953-8.881-22.369-15.492-4.998-.536 1.409-1.38 3.029-2.88 3.029-3.399 0-4.679-8.551-5.649-12.237-.49-1.856-1.175-3.653-1.6-5.528-.65-2.827-.712-6.4 1.408-3.963 2.813 3.241 4.295 15.912 5.983 12.678 1.76-3.368 3.76-6.653 5.568-10.037 4.776-8.957 3.752-2.219 16.192 19.443h.001zm-12.923-25.051c-2.53 0-3.84 2.952-9.259 12.829a115.211 115.211 0 0 1-1.721-5.411c-2.978-10.163-8.868-8.602-6.913-.107.47 2.025 1.12 3.68 1.621 5.577 1.296 4.931 2.39 13.648 7.43 13.495 4.71-.146 4.48-7.421 8.45-13.778 2.48 3.291 4.383 7.864 7.407 13.288-1.976.902-3.794 1.349-3.851 3.507-.064 2.335 1.294 2.482 9.984 7.018a2.836 2.836 0 0 0 4.06-1.797c2.517-9.6 3.11-10.4 1.968-11.87-1.6-2.08-3.712-.72-5.548.12-7.832-13.94-10.23-22.871-13.628-22.871z"/><path fill="#FDFE1F" d="M305.954 60.669a5.624 5.624 0 0 0-3.634.184c-.562.32-.454.344-2.586 4.684-3.12 6.36-4.009 5.56-6.03 8.38-.914 1.28-1.48 2.776-2.424 4.028-2.454 3.26-5.642 6.034-8.39 9.048a67.131 67.131 0 0 1-7.141 6.88c-2.744 2.652-5.28 7.012-12.551 11.757-.89.6-1.731 1.271-2.512 2.008-22.196 20.64-21.038 17.504-23.584 19.715-19.409 16.852-30.324 21.896-35.064 26.653-2.9.736-3.956 2.987-14.785 10.421-12.64 8.683-15.37 9.92-17.951 11.794-3.825 2.78-1.428 1.35-6.657 4-6.005 3.04-10.947 7.988-17.162 10.569-.405.168-.872.394-.949.824a49.514 49.514 0 0 0-9.3 5.389c-12.8 8.269-35.616 19.411-37.264 20.909-1.704 1.55-16.251 6.827-20.627 9.6-.532.204-1.078.365-1.636.48-7.728 3.142-28.299 11.184-36.921 11.368a2.614 2.614 0 0 0-1.584 2.769c.206 2.263 2.368 3.244 2.952 4.064.681.96.176.823 1.92.64 2.478-.27 28.873-6.969 46.582-16.534 4.075-2.1 8.26-3.983 12.534-5.64.16-.082 48.88-26.24 53.183-29.842a67.404 67.404 0 0 1 9.12-5.825c8.16-4.845 15.608-11.315 23.829-16.059 21.329-12.32 83.04-61.469 94.15-74.112 7.52-8.56 6.218-4.458 21.146-23.384.788-1.002 1.12-2.276 1.846-3.328a70.33 70.33 0 0 0 4.152-6.999 4.209 4.209 0 0 0-2.662-4.441z"/><path fill="#0F0F0F" d="M304.45 58.696h-2.189C287.888 103.832 87.925 238.47 35.841 238.47c-.625 0-.47-.4-.47 2.096 52.298.991 256.549-136.745 269.079-181.87z"/><path fill="#0F0F0F" d="M309.861 58.696c-6.949 35.053-140.304 135.054-229.224 173.92-45.83 20.035-45.28 9.184-45.28 15.307 56.82.786 268.238-142.662 276.39-189.257l-1.886.03z"/><path fill="#fff" d="M273.742 89.6c.608.96.397 1.75 1.711 2.432 1.049.544 2.859-.394 3.585-.34 1.026.073 1.536 1.055 2.908 3.163.772 1.183.356 1.414-.244 2.49-1.289 2.308.652 4.969.701 5.836a4.244 4.244 0 0 1-.696 1.63c-.345.488-.79.897-1.304 1.202-1.329.552-1.173 0-1.803 2.317-.686 2.524-3.466 3.345-5.848 3.928-5.072 1.24-4.342 1.163-6.29-.104-2.88-1.871-6.475-.626-8.145-4.885-1.491-3.805-1.92-4.619-1.808-5.643.144-1.378 1.395-2.5 1.365-3.883a9.38 9.38 0 0 1-.181-1.839c.299-1.681 2.593-1.734 3.493-3.04.587-.846.617-2.443 2.033-3.7 2.219-1.969 6.827-1.209 6.989-1.231a3.64 3.64 0 0 1 3.534 1.667z"/><path fill="#0F0F0F" d="M282.949 101.92c-.432-1.416-1.407-2.475-1.12-3.605.408-1.58 2.592-1.629-.085-5.71-1.965-2.97-3.68-1.832-5.456-1.6-1.512.198-1.014-.608-1.55-1.709-1.943-3.112-6.78-2.4-10.178-1.176-4.208 1.587-2.592 4.298-4.202 5.104-1.28.64-1.489-.118-2.968 2.038a3.09 3.09 0 0 0-.489 2.84c.174.695.094.501-.509 1.724-1.976 4 2.067 9.997 4.541 11.486a7.117 7.117 0 0 0 3.123.699c1.811.22 4.363 4.32 13.378-.48a4.105 4.105 0 0 0 2.632-4.377c.294-1.218 3.908-1.827 2.883-5.234zm-2.896-4.1c-.674 2.323 1.584 4.428 1.12 5.529-.224.971-2.613 1.509-2.979 3.408-.221 1.141.452 1.966-1.679 3.09-2.24 1.212-6.854 2.936-9.253 1.6a7.273 7.273 0 0 0-2.985-1.28c-1.744-.188-3.296.443-6.13-5.399-1.947-4.32 1.211-4.8.288-7.064-.176-.64-.262-.921.53-2.04.92-1.297 2.317-.65 3.061-2.163 1.208-2.127.035-3.186 2.964-4.131a13.876 13.876 0 0 1 5.975-.696c3.269.555 1.968 2.08 3.073 3.278a2.772 2.772 0 0 0 2.492.734c1.929-.297 2.56-.98 3.721.892 1.975 3.104.421 1.923-.198 4.245v-.004z"/><path fill="#0F0F0F" d="M260.08 101.069c-1.245.307.726 3.693.357 3.789-.107.029-.675-.738-1.359-2.304-.707-2.197 1.586-4.309 3.887.992 1.105 2.545 2.097 3.921 1.171 5.045a1.12 1.12 0 0 1-1.278.408 1.136 1.136 0 0 1-.407-.248 5.712 5.712 0 0 1-1.049-1.709c-1.037-2.034 1.209.985 1.484 1.185.397.375 1.061-.32.64-1.161-.268-.666-2.625-6.199-3.446-5.997zm7.792-9.759c-1.869.244-3.346.584-3.454.341-.109-.243 1.353-1.038 3.321-1.293 3.384-.438 5.84.213.133.952zm2.467 7.57c-5.171 3.04-7.544-.208-4.462-1.984.429-.216.715-.19.721-.131.007.06-.206.16-.515.443-.649.584-1.269 1.727-.467 1.992 1.88.624 8.283-2.912 5.646-3.662-1.534-.435-3.452.768-3.542.547a4.479 4.479 0 0 1 3.736-1.32c.96.211 1.346.792 1.344 1.317 0 1.174-1.45 2.206-2.461 2.798zm4.611.78c1.562.489.32 3.174.107 2.646-.099-.072.279-.659 0-1.539-.649-1.519-2.328 2.708-2.003 3.691.186.376.405.435.695 0 .561-.861.948-1.44 1.067-1.368.16.093-.347 2.286-1.373 2.469-2.757.276-.694-6.383 1.507-5.9zm-3.2 10.374a4.874 4.874 0 0 1-4.046-.424c-.89-.415-1.44-.549-1.456-.682-.016-.133.683-.233 1.683.04a5.078 5.078 0 0 0 3.558.138c2.844-.84 5.14-1.851 5.261-1.57a11.444 11.444 0 0 1-5 2.498z"/><path fill="#fff" d="M289.254 77.573c1.868 1.477 2.125 3.25 1.464 4.401-.515.896-1.552 1.346-2.252 2.106-.41.445-.701.993-1.132 1.42a5.88 5.88 0 0 1-5.92 1.108c-.769-.432-1.248-1.053-3.211-3.224a3.231 3.231 0 0 1-.661-4.496c.928-1.92 1.495-1.6 2.24-2.422.543-.597.682-1.505 1.298-2.028.79-.67 1.946-.448 2.894-.577 1.045-.144 1.407-.546 2.304.07 1.712 1.176.898 1.999 2.976 3.642z"/><path fill="#0F0F0F" d="M292.029 78.912c-.616-1.458-1.997-1.907-2.4-2.26-.784-.698-.64-4.422-6.29-4.145-3.2.2-3.955 2.483-4.686 3.315-.515.584-1.2.64-1.911 1.322a6.396 6.396 0 0 0-.332 6.502c.814 1.267 2.155 1.461 2.27 1.824.186.536.464 1.035.822 1.474 1.752 1.726 5.549 1.694 7.495.851a4.316 4.316 0 0 0 2.368-2.91c.139-.333 1.92-.716 2.52-2a4.621 4.621 0 0 0 .144-3.973zm-1.983 1.86c-.113 1.82-1.488 1.135-2.654 2.68a14.465 14.465 0 0 0-.704 1.526c-.835 1.342-4.747 1.05-5.44.32-.226-.287-.277-.69-.63-1.188-.828-1.102-1.818-1.08-2.332-1.76a5.173 5.173 0 0 1-.084-3.803c.243-.309 1.28-.662 1.92-1.58 1.145-1.621 1.12-3.6 5.28-2.369 2.166.71 1.34 2.4 2.74 3.692.786.721 2.032.983 1.904 2.481z"/><path fill="#0F0F0F" d="M283.57 84.744c-1.693-.256-2.381-1.7-3.063-2.755-.494-.765-.96-1.068-.902-1.239.026-.168.8-.083 1.566.679.736.724 1.476 1.948 2.544 2.094.908.253 1.298-1.462 2.304-2.138.96-.64 1.696-.48 1.695-.342.035.18-.552.373-1.12.997-.663.718-1.114 2.992-3.024 2.704z"/><path fill="#fff" d="M268.445 167.96c13.61-9.849 16.658-28.865 6.81-42.475-9.85-13.61-28.866-16.658-42.476-6.808-13.609 9.848-16.657 28.864-6.808 42.474 9.848 13.609 28.866 16.657 42.474 6.809z"/><path fill="#92FCFF" d="M268.96 134.24c-.25-1.12-2.04-8.253-3.08-8.715-1.28-.571-7.946 3.118-9.158 3.784-3.565 1.96-2.56 4.422.147 4.85 1.048.16 1.774.507 1.259 1.428-7.83 13.876-7.549 14.069-8.816 13.676-.84-.261-2.72-5.12-2.984-5.818-1.427-3.822-.915-5.992-3.216-7.36-1.813-1.077-4.272.056-5.44 1.819a13.268 13.268 0 0 0-1.622 5.28c-.228 1.379-2.223 8.04-2.5 9.176-1.891 7.84.824 8.653 2.538 6.367 4.109-5.498 3.088-11.085 4.451-11.397 1.235-.282 1.111 2.104 7.072 11.152.879 1.333 1.783 2.139 3.271 1.44 1.83-.856 1.812-1.525 11.95-21.355.542-1.06.976-1.002 1.646-.66 2.896 1.476 5.405.426 4.482-3.667z"/><path fill="#0F0F0F" d="M224.685 161.994c-16.678-23.04 3.013-54.88 31.013-50.4a32 32 0 0 1 26.099 24.198 32.004 32.004 0 0 1 .461 12.491c-4.507 28.069-40.839 36.837-57.573 13.711zm25.92-47.804a29.032 29.032 0 0 0-28.658 24.478 29.034 29.034 0 0 0 33.17 33.229 29.028 29.028 0 0 0 12.523-5.164c22.591-16.344 11.183-52.543-17.029-52.543h-.006z"/><path fill="#0F0F0F" d="M264.711 126.048c1.208 0 .96.259 3.568 10.283a1.154 1.154 0 0 1-.958 1.426 1.141 1.141 0 0 1-.631-.095l-3.52-1.616c-12.373 21.493-11.386 28.488-16.224 19.429-1.808-3.385-3.803-6.675-5.56-10.043-1.682-3.224-3.2 9.454-5.995 12.674-2.09 2.4-2.08-1.079-1.405-3.967.433-1.873 1.12-3.67 1.611-5.525.979-3.7 2.27-12.353 5.739-12.23 3.322.117 3.344 7.926 7.815 14.094 1.6 2.199 6.164-8.513 10.489-16.048l-3.867-1.772a1.144 1.144 0 0 1-.66-1.173 1.146 1.146 0 0 1 .607-.887c9.199-4.803 8.6-4.55 8.991-4.55zm0-1.69c-.941 0-.42-.145-9.78 4.741a2.839 2.839 0 0 0-1.527 2.589 2.834 2.834 0 0 0 1.659 2.507l2.192 1.005c-2.981 5.338-4.935 9.992-7.416 13.28-3.972-6.387-3.708-13.736-8.589-13.787-4.207-.043-5.696 6.654-6.647 10.805-1.251 5.459-4.009 11.812-2.019 14.316.842 1.06 2.44 1.28 4.077-.598 2.011-2.314 2.109-4.618 4.307-10.97 5.146 9.381 6.655 12.84 9.25 12.84 3.337 0 6.213-9.665 13.648-22.856 2.208 1.012 2.507 1.232 3.305 1.232a2.82 2.82 0 0 0 2.248-1.104 2.835 2.835 0 0 0 .501-2.454l-2.457-9.422a2.841 2.841 0 0 0-2.752-2.124z"/></svg>